<!-- Generator: Adobe Illustrator 25.2.0, SVG Export Plug-In  -->
<svg version="1.1" xmlns="http://www.w3.org/2000/svg" xmlns:xlink="http://www.w3.org/1999/xlink" x="0px" y="0px" width="4800px"
	 height="3480px" viewBox="0 0 4800 3480" style="overflow:visible;enable-background:new 0 0 4800 3480;" xml:space="preserve">
<style type="text/css">
	.st0{opacity:0.9;fill:#565053;enable-background:new    ;}
	.st1{fill:none;}
</style>
<defs>
</defs>
<path class="st0" d="M3815,1757.9c-128.5,0-248.5,36.3-350.3,99.1l-79.7-79.6l-230.5,230.5l82.7,82.7
	c-57.3,98.6-90.2,213.1-90.2,335.3c0,368.9,299.1,668,668,668s668-299.1,668-668S4183.9,1757.9,3815,1757.9z M3815,2777.9
	c-194.4,0-352-157.6-352-352s157.6-352,352-352s352,157.6,352,352S4009.4,2777.9,3815,2777.9z"/>
<rect class="st1" width="4800" height="3480"/>
<g>
	<path class="st0" d="M3847.5,2043.8c-1,9.9-1.9,19.8-2.7,29.7c17.8,1.4,35.2,4.2,52.1,8.2c2.8-11,5.5-22.3,8.5-34.6
		c-18.7-2.6-36.1-5.2-53.6-7.3C3850.5,2039.6,3847.7,2042.3,3847.5,2043.8z"/>
	<path class="st0" d="M3778.7,2039.6c-8.5,1.1-17.1,1.9-25.6,3.3c-8.6,1.4-17.1,3.3-26.4,5.2c2.8,11.6,5.4,22.7,8.1,33.7
		c16.9-4,34.4-6.8,52.2-8.2c-0.8-9.7-1.8-19.3-2.4-29C3784.2,2040.4,3782.5,2039.1,3778.7,2039.6z"/>
	<path class="st0" d="M3757.2,1991.4c-0.3-1.8-3.4-4.7-4.8-4.5c-16.3,2.8-32.5,6.1-50,9.5c4.5,16.9,8.5,32.3,13,47.5
		c0.4,1.4,4.2,2.9,6,2.6c12.4-2.2,24.7-5.1,37.1-7.2c3.9-0.7,4.7-2.4,4.3-5.8C3761,2019.4,3759.3,2005.4,3757.2,1991.4z"/>
	<path class="st0" d="M3732.2,1933.8c-13,2.5-26,5.3-38.9,8.5c-1.7,0.4-4.1,3.8-3.7,5.3c3.7,15.2,7.9,30.3,12.2,46.1
		c13.7-2.8,26.4-5.4,39.1-8.3c1.2-0.3,3-2.8,2.9-4.1c-2-14.7-4.2-29.4-6.8-44C3736.7,1935.9,3733.6,1933.5,3732.2,1933.8z"/>
	<path class="st0" d="M3639.4,1958.5c0,1.7-0.2,2.4,0,2.9c5.4,14.5,11,28.9,16.4,43.5c1.4,3.7,3.6,2.9,6.3,2
		c8.6-2.9,17.1-5.9,25.8-8.6c14-4.4,11.3-2.2,8.3-14.3c-3.3-13.2-7.1-26.3-10.9-40.4C3669.3,1948.8,3654.2,1953.7,3639.4,1958.5z"/>
	<path class="st0" d="M3874.7,1990.8c-2.2,14.4-4.1,28.9-5.7,43.4c-0.2,1.5,2.1,4.3,3.7,4.6c12.5,2.9,25.1,5.4,37.7,7.6
		c1.9,0.3,5.6-1.3,6-2.7c4.5-15.2,8.4-30.6,12.9-47.5c-17.5-3.4-33.8-6.7-50-9.5C3878,1986.7,3875,1989.3,3874.7,1990.8z"/>
	<path class="st0" d="M3933.7,1991.4c-0.3,1.2,0.7,3.9,1.6,4.2c12.9,4.3,25.9,8.3,39.4,12.5c6.3-16.4,12.4-32.3,18.9-49.3
		c-16-5.2-31.2-10.1-47.1-15.2C3942,1960.4,3937.7,1975.9,3933.7,1991.4z"/>
	<path class="st0" d="M3994.6,1964.5c-5.5,13.5-10.7,27.1-15.7,40.8c-0.5,1.4,0.4,4.7,1.5,5.3c12,5.6,24.1,10.7,37,16.4
		c7.9-15.4,15.6-30.7,24-47c-14.6-6.4-28.3-12.5-42.1-18.2C3998.2,1961.4,3995.2,1963.1,3994.6,1964.5z"/>
	<path class="st0" d="M3937.5,1941.9c-12.3-2.7-24.7-5.3-37-8.1c-3.7-0.8-5.5,0.3-6,3.9c-2.2,14.4-4.5,28.9-6.4,43.3
		c-0.2,1.4,1.3,4.1,2.4,4.4c12.9,2.9,25.9,5.5,39.5,8.3c4.2-15.6,8.3-30.9,12.4-46.3C3943.4,1943.4,3940.5,1942.5,3937.5,1941.9z"/>
	<path class="st0" d="M3638.1,1901.1c-13.8,4.9-27.4,10-40.9,15.5c-1.6,0.7-3.5,4.5-3,5.9c5.6,13.5,11.5,26.8,17.7,40.1
		c0.5,1.2,3.4,2.5,4.5,2c13.8-5.2,27.6-10.8,42.4-16.7c-4.9-15.1-9.6-29.9-14.7-44.5C3643.6,1902.1,3639.7,1900.5,3638.1,1901.1z"/>
	<path class="st0" d="M3445.2,1940.5c11.1,14.5,21.4,27.9,32.3,42c13-9.1,25.2-17.6,37.8-26.4c-9.6-15-18.8-29.4-28.6-44.7
		C3472.6,1921.3,3459.1,1930.7,3445.2,1940.5z"/>
	<path class="st0" d="M3352.5,1947.7c-6.5,6-6.4,6.1-0.3,12.2c4.5,4.5,9.1,9,13.6,13.6c5.6,5.9,11,11.9,16.6,18
		c12.8-11.6,24.3-21.9,35.6-32.4c0.9-0.8,1.3-3.6,0.7-4.4c-10.3-12.6-20.8-25.1-31.9-38.4
		C3374.9,1927.2,3363.6,1937.4,3352.5,1947.7z"/>
	<path class="st0" d="M3339.5,1960.7c-9.5,10.6-19.1,20.9-28.7,31.4c-1.3,1.4-2.1,3.1-3.4,4.9c11.3,9.5,22.2,18.6,32.9,27.8
		c2.1,1.8,3.5,4.3,5.2,6.5c0,0-0.1,0-0.1-0.1c-0.2,2,0.3,4.5-0.7,5.9c-3.7,5.4-8,10.4-12.4,16c13.6,10.3,26.3,20.2,39.3,29.8
		c1,0.7,4.1,0.4,4.9-0.6c9.1-10.6,17.9-21.3,27.1-32.5c-10.8-9.9-21.3-19.7-31.9-29.3c-3.3-3-6.1-7.8-12.3-4.3
		c7-7.5,14-15.1,22-23.6c-11.2-10.9-22.2-21.4-32.9-32.3C3345,1956.6,3342.7,1957.2,3339.5,1960.7z"/>
	<path class="st0" d="M3582.3,1866.8c-0.6-1.3-3.7-2.7-4.9-2.2c-13.6,5.9-27,12.2-41.7,18.9c8,15.3,15.2,29.5,22.8,43.4
		c0.6,1,3.9,1.6,5.4,0.9c10.7-4.7,21.3-9.9,32-14.7c3.2-1.4,4.6-3,3.1-6.5C3593.4,1893.4,3588.1,1880,3582.3,1866.8z"/>
	<path class="st0" d="M3240.3,2091.5c15.4,8.9,30.1,17.4,45,26c1.5-2,2.6-3.3,3.5-4.7c6.9-10.8,13.5-21.8,20.7-32.4
		c2.9-4.2,2-6.2-2-8.9c-9.8-6.5-19.2-13.5-28.9-20.1c-9.7-6.7-8.1-7.4-14.8,2.5c-4.2,6.2-8.3,12.5-12.3,18.9
		C3247.8,2078.7,3244.3,2084.7,3240.3,2091.5z"/>
	<path class="st0" d="M3210.4,2024.4c16.6,10.9,32.3,21.3,48.1,31.8c10.4-14.4,20.1-28,30.4-42.2c-15-11.8-29.7-23.3-45.3-35.6
		C3232.2,1994,3221.6,2008.8,3210.4,2024.4z"/>
	<path class="st0" d="M3284.6,1937c-2.9-2.7-4.5-1.2-6.5,1.1c-6.2,7.2-12.6,14.3-18.7,21.6c-4.5,5.3-8.8,10.8-13.6,16.7
		c15.4,12.1,29.9,23.5,44.7,35c11.2-13.2,21.8-25.6,32.3-37.9c-0.5-1-0.7-1.7-1.2-2.1C3309.3,1960,3296.9,1948.6,3284.6,1937z"/>
	<path class="st0" d="M3432.7,1880.9c-14.9,11.5-29,22.4-43.6,33.6c11.7,14,22.6,27,33.6,40.1c12.9-9.7,25.2-19,37.4-28.5
		c1-0.8,1.4-3.8,0.7-4.9C3451.8,1908.2,3442.6,1895.2,3432.7,1880.9z"/>
	<path class="st0" d="M3534.5,1948.6c-14.3,8.7-28.3,17.8-43.1,27.2c10.6,14.7,20.4,28.2,30.5,42.1c13.3-8.5,25.6-16.2,37.7-24.3
		c1.2-0.8,2-4.5,1.2-5.9c-6.8-12.4-13.9-24.7-21.1-36.8C3538.8,1949.5,3535.4,1948,3534.5,1948.6z"/>
	<path class="st0" d="M3559.4,1978.7c6.7,11.6,6.6,11.6,18.6,5.3c10.5-5.5,21.2-10.8,32.4-16.6c-7.1-16-14.1-31.6-21.6-48.3
		c-16.8,8.6-32.8,16.7-49.3,25.2C3546.6,1956.6,3553.1,1967.6,3559.4,1978.7z"/>
	<path class="st0" d="M4021.4,1967.3c14.3,7.5,28,14.7,41.7,21.6c0.9,0.5,3.5-0.5,4.2-1.6c8.2-13.9,16.2-27.9,25-43.1
		c-16.8-8.6-32.7-16.6-49.4-25.1C4035.5,1935.8,4028.5,1951.4,4021.4,1967.3z"/>
	<path class="st0" d="M4363.6,2048.1c-0.6-0.9-4.5-0.7-6,0.3c-11.4,7.7-22.4,15.8-33.8,23.4c-3.9,2.6-4.1,4.7-1.5,8.5
		c6.6,9.7,12.7,19.7,19.1,29.5c1.6,2.5,3.3,4.9,5.2,7.7c15.2-8.8,29.7-17.2,45.4-26.3C4382.3,2076.3,4373.1,2062.1,4363.6,2048.1z"
		/>
	<path class="st0" d="M4142.1,2291.9c6.5,16.1,11.9,32.8,16.1,50c11.4-2.6,22.9-5.4,35.2-8.3c-6-18.7-11.8-36.7-17.9-55.5
		C4163.6,2283,4152.7,2287.5,4142.1,2291.9z"/>
	<path class="st0" d="M3438.2,2205.2c9,5.6,18.3,10.8,27.5,16.2c12.4,7.2,12.3,7.1,20-4.9c5.9-9.2,12.2-18.2,18.6-27.7
		c-13.6-10.4-26.7-20.5-41.5-31.8c-9.6,14.7-18.7,28.5-27.3,42.5C3434.8,2200.5,3436.6,2204.2,3438.2,2205.2z"/>
	<path class="st0" d="M3430.2,2466.4c2.2,13.5,4.3,27.1,6.8,40.6c0.6,3.5,1.2,7.9,7,6.4c9.8-2.5,19.6-4.9,29.4-7.3
		c-3.9-16.5-6.7-33.4-8.2-50.7c-8.8,0.7-17.6,1.4-26.4,2C3430.2,2457.9,3430.2,2457.7,3430.2,2466.4z"/>
	<path class="st0" d="M4188.2,2338.2c-9.8,2.1-19.6,4.4-29.3,6.9c3.8,16.6,6.5,33.7,7.8,51.1c10.1-0.7,20.2-1.5,30.3-2.5
		c1.6-0.2,4.4-2.9,4.2-4.2c-2.1-15.8-4.5-31.5-7.3-47.2C4193.6,2340.6,4189.9,2337.9,4188.2,2338.2z"/>
	<path class="st0" d="M4203.2,2448.6c-0.1-7.7,0-15.5,0-23.2l0,0c0-8,0-15.9,0-23.9c0-3.2-0.9-5-4.6-4.7
		c-10.5,0.8-21.1,1.6-31.6,2.3c0.6,8.3,0.9,16.7,0.9,25.1c0,9.3-0.4,18.5-1.1,27.7c10.2,0.7,20.4,1.4,30.6,2.2
		C4201.9,2454.6,4203.3,2452.8,4203.2,2448.6z"/>
	<path class="st0" d="M3490.5,2559c-6.7-16.1-12.2-32.7-16.4-49.9c-11.5,2.7-23.2,5.5-35.7,8.5c6,18.7,11.8,36.6,17.9,55.5
		C3468.5,2568.2,3479.7,2563.6,3490.5,2559z"/>
	<path class="st0" d="M3417.9,2221.2c1-0.7,1.5-0.9,1.7-1.2c4.7-8.2,9.4-16.5,14.2-24.7c6.9-11.6,7-11.6-4.5-19.1
		c-10.7-6.9-21.4-13.8-33.1-21.3c-8.4,14.6-16.3,28.4-24.5,42.8C3388,2206,3403.1,2213.7,3417.9,2221.2z"/>
	<path class="st0" d="M3388.5,2072.5c-6.7,8.4-13.3,16.9-20.3,25.9c14.6,10.6,28.3,20.5,42.3,30.7c10.4-12.9,20.4-25.2,31.1-38.5
		c-12.2-11-23.9-21.7-36-32.1c-1-0.9-4.6-0.2-5.8,1C3395.7,2063.5,3392.1,2068,3388.5,2072.5z"/>
	<path class="st0" d="M3399.2,1980.7c-9.7,9.1-18.9,18.7-28.4,28c-2.3,2.3-2.8,4.3-0.1,6.7c11.5,10.4,22.9,20.8,34.9,31.8
		c10.2-10.1,19.8-19.5,29.2-29.2c0.9-1,0.9-4.4,0-5.4c-9.5-10.8-19.2-21.5-29.2-31.8C3404.5,1979.6,3400.4,1979.6,3399.2,1980.7z"/>
	<path class="st0" d="M3381.7,2173.1c9.1-14,17.8-27.5,26.9-41.5c-13.1-9.5-25.9-19-39-28c-1.1-0.8-5,0.5-6.1,2
		c-5.6,7.7-10.9,15.6-16.1,23.6c-3.7,5.7-7.1,11.6-10.9,18C3352,2156,3366.7,2164.5,3381.7,2173.1z"/>
	<path class="st0" d="M4169,1924c13.5,10.4,26.4,20.3,40,30.8c11.4-13.5,22.2-26.5,33.8-40.3c-14.9-11.4-29.1-22.2-43.7-33.5
		C4188.6,1895.9,4178.9,1909.8,4169,1924z"/>
	<path class="st0" d="M3312.4,2480.1c-14.3,1.2-28.6,2.9-42.9,4.4c-3.4,0.4-5.2,1.8-4.6,5.6c2.5,14.8,4.8,29.7,7.2,44.5
		c0.6,3.5,2.1,4.9,5.8,4.1c14-3.1,28.1-5.9,42.1-9.1c1.8-0.4,3.2-2.4,4-3c-2.4-15.5-4.4-29.3-6.8-43
		C3316.9,2482.1,3313.9,2479.9,3312.4,2480.1z"/>
	<path class="st0" d="M4257.4,1923.1c-7.2-6.3-14.5-12.5-22-18.6C4242.5,1910.7,4249.8,1916.8,4257.4,1923.1z"/>
	<path class="st0" d="M4342.9,2013.9L4342.9,2013.9c10,13.9,19.6,27.1,29.3,40.7C4363,2040.7,4353.2,2027.1,4342.9,2013.9z"/>
	<path class="st0" d="M4112.3,2020.2c13.3,10.7,25.8,20.8,38.6,31.1c11-12.2,21.6-23.8,31.9-35.6c1-1.1,0.7-5-0.4-5.9
		c-12.6-10.8-25.5-21.2-39.1-32.5C4132.4,1992.4,4122.4,2006.3,4112.3,2020.2z"/>
	<path class="st0" d="M4159.2,1986.5c10.5,9,21.3,17.8,32.4,27c11.9-12.9,23.5-25.6,35.7-38.9c-13-10.9-25.5-21.4-38.8-32.6
		c-10.6,13.9-20.4,26.6-30,39.6C4157.9,1982.6,4158.3,1985.6,4159.2,1986.5z"/>
	<path class="st0" d="M3321.9,2166.7c4.4-7.9,8.5-14.9,12.4-22.1c3.2-5.7,9.5-12.4,8.3-17.1c-1.3-4.8-9.9-7.9-15.4-11.5
		c-8.7-5.6-17.4-11-27-17.1c-8.5,14.8-16.6,28.9-25,43.4C3291.3,2150.8,3306.2,2158.6,3321.9,2166.7z"/>
	<path class="st0" d="M4321.8,2198.4c-8.4-16.4-16.3-32.1-24.7-48.5c-15.5,8.9-30,17.3-44.9,25.9c7,14.1,13.5,27.4,20.3,40.5
		c0.6,1.1,3.5,2.2,4.6,1.8C4291.7,2211.9,4306.2,2205.3,4321.8,2198.4z"/>
	<path class="st0" d="M4244.1,2259.8c12.1-4.6,24.2-9.3,37.5-14.5c-6.8-15.4-13.3-30-20.1-45.3c-16.3,8.3-31.6,16.1-47.2,24.1
		c4.4,10,8.6,19.2,12.7,28.5C4232.1,2264.3,4232.1,2264.4,4244.1,2259.8z"/>
	<path class="st0" d="M4331.4,2099.1c-10.7,6.8-20.2,12.8-29.7,18.8c-14.6,9.3-14.6,9.3-6,23.9c2,3.4,4,6.9,6,10.4
		c2.7,4.7,5.3,9.5,8.2,14.6c15.7-8.2,30.6-15.9,46.8-24.3C4348,2127.5,4339.8,2113.5,4331.4,2099.1z"/>
	<path class="st0" d="M4218.3,2239.8c-5.5-11.5-11.5-22.7-17.5-34.6c-15.9,9.2-30.6,17.6-45.4,26.2c7.3,14.6,14.2,28.6,21.4,43.1
		c11.5-4.7,22.5-9.2,33.5-13.8C4225,2254.5,4225.2,2254.3,4218.3,2239.8z"/>
	<path class="st0" d="M3760,1990.8c1.9,13.6,3.6,27.2,5.3,40.8c0.6,4.5,2.2,6.5,7.3,6.1c12.5-1.2,25.2-1.6,37.7-2.9
		c1.6-0.2,4.1-3.1,4.2-4.8c0.5-7,0.2-14.2,0.2-21.2c0-6.9-0.2-13.7,0.1-20.6c0.1-4.3-1.5-6-5.8-5.7c-14.8,1-29.6,1.9-44.4,2.8
		C3761,1985.4,3759.4,1987,3760,1990.8z"/>
	<path class="st0" d="M3788.7,1933.6c-0.2-5.3-2.4-6.4-7-5.9c-11.8,1.4-23.7,2.9-35.6,3.8c-5.9,0.4-7,2.9-6.1,8.1
		c2.3,13.3,4.4,26.6,6.3,39.9c0.6,4.5,3,5.3,6.9,4.8c11.2-1.3,22.4-2.4,33.5-4c1.6-0.2,3.3-2.6,4-4.4c0.7-1.7,0.1-3.9,0.2-5.9
		C3790.2,1957.8,3789.1,1945.7,3788.7,1933.6z"/>
	<path class="st0" d="M3404.4,1974.5c12.3,13.4,24,26.2,35.8,39c12-10.1,23.3-19.5,35.2-29.5c-10.6-13.9-21-27.5-32.2-42
		C3429.9,1953.2,3417.4,1963.6,3404.4,1974.5z"/>
	<path class="st0" d="M3834.8,1927.2c-12.6,0.1-25.2,0.1-37.8,0c-4.4,0-5.6,2.2-5.4,6.3c0.9,13.7,1.7,27.4,2.3,41.1
		c0.2,3.7,1.8,5.1,5.4,5c5.5-0.1,11.1,0,16.6,0v0.1c5.5,0,11.1-0.2,16.6,0.1c3.6,0.2,5.3-0.7,5.4-4.6c0.6-13.9,1.4-27.9,2.3-41.8
		C3840.5,1929.2,3839.1,1927.2,3834.8,1927.2z"/>
	<path class="st0" d="M3757.4,1880.1c-0.4-4.4-2.3-6.3-6.9-5.5c-14.4,2.4-28.7,4.8-43.1,7c-4.3,0.7-5.3,2.6-4.4,6.8
		c3.1,13.6,6,27.2,8.7,40.8c0.8,4,2.6,5.1,6.4,4.4c12.8-2.2,25.7-4.5,38.5-6.3c4.5-0.6,5.7-2.5,4.9-6.8
		C3760.2,1907.4,3758.7,1893.8,3757.4,1880.1z"/>
	<path class="st0" d="M3978.7,1950.7c11.5,4.1,22.9,8.3,34.1,13.1c4.7,2,6.6,1.2,8.5-3.3c5.1-12,10.6-23.9,15.9-35.8
		c0.6-1.4,1.2-2.9,2.1-5.1c-1.2-0.9-2.4-2.2-3.8-2.8c-13.8-5.4-27.7-10.6-41.5-15.9c-3.4-1.3-5.3-0.6-6.5,3.1
		c-4.2,13.1-8.3,26.2-12.8,39.1C3972.8,1947.7,3974.6,1949.2,3978.7,1950.7z"/>
	<path class="st0" d="M3843.1,1932.7c-0.6,12.6-1.4,25.2-2.3,39c-0.1,7.8-0.2,8.1,3.3,8.6c11.8,1.4,23.7,2.8,35.6,3.8
		c1.7,0.1,4.9-1.8,5.2-3.2c2.6-14.6,4.9-29.2,6.8-43.9c0.2-1.5-2-4.8-3.4-4.9c-13.4-1.7-26.8-3-40.2-4.4
		C3844.4,1927.2,3843.3,1929.1,3843.1,1932.7z"/>
	<path class="st0" d="M3925.1,1881.8c-14.8-2.5-29.6-5-46.3-7.9c-1.2,1.6-3.7,3.4-4,5.6c-1.8,14.2-3.3,28.5-4.5,42.8
		c-0.1,1.5,2.1,4.4,3.6,4.7c13.5,2.5,27,4.7,40.5,6.5c1.7,0.2,4.9-2,5.3-3.6c3.3-14,6.1-28,9.2-42.1
		C3929.7,1884.4,3928.8,1882.4,3925.1,1881.8z"/>
	<path class="st0" d="M3817.3,1987.4c-0.5,7-0.2,14.1-0.2,21.2c0,7.1-0.3,14.2,0.2,21.2c0.1,1.8,2.6,4.7,4.3,4.9
		c12.8,1.2,25.6,1.8,38.3,2.9c4.4,0.4,6-1.6,6.5-5.5c1.8-13.8,3.8-27.6,5.3-41.4c0.2-1.7-2.3-5.1-3.8-5.3
		c-15.4-1.3-30.9-2.3-46.3-2.9C3820.1,1982.6,3817.4,1985.6,3817.3,1987.4z"/>
	<path class="st0" d="M3969.7,1893c-11.3-3.2-22.6-5.9-35.2-9.2c-1,1.6-2.6,3.3-3.1,5.2c-3,13.6-5.6,27.3-8.7,40.8
		c-1,4.2,0.5,5.5,4.1,6.4c12.4,3.2,24.8,6.3,37.1,10c4.3,1.3,6.1,0.1,7.3-3.8c3-9.7,6.3-19.3,9.3-29
		C3985.7,1897.6,3985.7,1897.5,3969.7,1893z"/>
	<path class="st0" d="M3625.8,1846.3c-6.6,1.7-13.1,4.1-19.5,6.5c-7.4,2.7-14.7,5.6-22.4,8.6c6.8,16.5,13.3,32,20,48.3
		c14.5-5.3,28.3-10.4,42.8-15.7c-4.9-15.5-9.6-30.7-14.7-45.7C3631.5,1847,3627.6,1845.8,3625.8,1846.3z"/>
	<path class="st0" d="M3685.5,1886.9c-13,3.2-25.8,7-39.5,10.7c5.3,16.2,10.1,31.3,15.2,46.3c0.4,1.3,3.1,3.1,4.2,2.8
		c14.5-3.8,28.9-7.9,44.4-12.2c-2.6-12.5-5.3-24.6-7.7-36.7C3699.4,1883.6,3699.4,1883.4,3685.5,1886.9z"/>
	<path class="st0" d="M3301.1,2210.7c6.3-13.3,12.2-25.4,17.7-37.7c0.6-1.3-0.7-4.7-2-5.5c-12.8-7-25.8-13.7-38.9-20.1
		c-1.3-0.7-4.9,0.4-5.6,1.7c-6.7,13.4-13,27-19.9,41.6C3269.6,2197.8,3285.3,2204.2,3301.1,2210.7z"/>
	<path class="st0" d="M3236.1,2236.7c-0.4,1.4,1.8,4.9,3.5,5.5c13.4,4.6,27,8.5,40.5,12.9c3.7,1.2,5.1-0.1,6.3-3.4
		c3.8-10.9,7.9-21.6,11.8-32.4c0.6-1.8,1-3.6,1.6-5.8c-16-6.6-31.5-13.1-48.5-20.1C3245.9,2208.4,3240.7,2222.5,3236.1,2236.7z"/>
	<path class="st0" d="M3328.9,2501.4c13.1-2.2,26.2-4.4,39.3-6.1c5.3-0.7,6.7-2.9,6-7.9c-1.3-9.2-2.4-18.4-3.5-27.6
		c-1.1-9.2-1-9.2-8.1-9c-14.2,0.8-26.5,1.9-38.9,2.2c-5.3,0.2-6.3,2.4-5.8,7c1.4,12.3,2.8,24.6,4,36.9
		C3322.5,2501.5,3325,2502.1,3328.9,2501.4z"/>
	<path class="st0" d="M3216.3,2144.3c14.7,7.1,29.5,14,44.5,21c7.9-15.1,15.4-29.6,23.5-45.2c-15.2-8.8-30-17.4-46-26.6
		c-8.1,15.7-15.9,30.8-23.4,46C3214.2,2140.7,3215.2,2143.8,3216.3,2144.3z"/>
	<path class="st0" d="M3588.3,1804.6c-0.6-1.4-4.1-3.1-5.4-2.6c-15.6,6-31.1,12.5-47.5,19.2c7.4,15.8,14.2,30.6,21.3,45.3
		c0.5,1,3.5,1.9,4.8,1.4c13.4-5.3,26.7-10.8,39.8-16.6c1.3-0.6,2.6-3.6,2.2-4.9C3598.8,1832.4,3593.7,1818.4,3588.3,1804.6z"/>
	<path class="st0" d="M3322.3,2353.9c-1.8,12.9-3,25.9-4.4,38.9c-0.4,3.5,0.7,5.3,4.6,5.5c13,0.6,26.1,1.4,39.1,2.2
		c0.2,0.5,0.5,0.9,0.7,1.4c2.7-1.5,7.4-2.7,7.7-4.5c2-12,3.1-24.1,4.1-36.2c0.1-1.4-2-4.2-3.4-4.5c-14.4-2.5-28.8-4.8-43.3-6.7
		C3325.9,2349.7,3322.5,2352.3,3322.3,2353.9z"/>
	<path class="st0" d="M3504.9,1833c1.6-0.7,3.4-1.6,5.6-2.7c11-5.5,22.1-10.8,34-16.5C3531,1819.8,3517.8,1826.2,3504.9,1833z"/>
	<path class="st0" d="M3335.6,1881.9c-10.6,9.1-10.6,9.2-1.2,19.6c9.4,10.3,18.9,20.4,28.7,31c12.4-10.4,24.3-20.3,35.9-30.5
		c0.8-0.7,0.7-3.9-0.2-5c-10.3-13.5-20.9-26.9-32.3-41.5C3355.8,1864.8,3345.7,1873.3,3335.6,1881.9z"/>
	<path class="st0" d="M3241.3,1976.7c-10.6-8.3-21-16.5-31.6-24.7l-43.2,43.2c13.9,9.2,27.5,18.2,41.5,27.5
		C3219.4,2007,3230.2,1992.1,3241.3,1976.7z"/>
	<path class="st0" d="M3284.1,1932.5c13.1,12.1,25.9,24,38.9,35.6c1,0.9,4.7,0.3,5.9-0.9c9.8-9.3,19.3-18.9,28.7-28.6
		c1.1-1.2,1.6-4.9,0.7-5.9c-11.6-13-23.5-25.8-35.5-38.8C3309.8,1906.9,3297.2,1919.4,3284.1,1932.5z"/>
	<path class="st0" d="M3999.5,1848.9c-4.6,13.6-8.9,27.4-12.9,41.2c-0.4,1.5,1.1,4.8,2.5,5.3c12.6,4.9,25.3,9.3,38.9,14.2
		c6.7-16.3,13.2-31.9,20-48.6c-15-5.3-29.1-10.5-43.3-15.2C4003.4,1845.4,4000,1847.4,3999.5,1848.9z"/>
	<path class="st0" d="M3354.7,2218.1c1.1,0.5,4.3-1.4,5.1-3c6.1-11.3,11.7-22.9,17.8-34.1c2.1-3.9,1.2-5.9-2.4-7.9
		c-5.8-3.2-11.5-6.6-17.3-9.9c-7.4-4.3-14.8-8.5-23.2-13.3c-8.4,16.5-16.3,32.1-24.6,48.5
		C3325.6,2205.4,3340.1,2211.9,3354.7,2218.1z"/>
	<path class="st0" d="M3422.3,2629.5c2.7,5.4,5.9,10.6,9.1,16.4c15.6-9,30.2-17.5,45-26c-7.2-14.6-14.1-28.4-21.3-43.1
		c-15.2,6.2-29.6,12.2-44.2,18.1c-4,1.6-3.1,4.1-1.7,6.9C3413.6,2611.1,3417.8,2620.4,3422.3,2629.5z"/>
	<path class="st0" d="M3453.7,2574c-4.7-14.3-9.1-28-13.9-41.5c-0.5-1.4-3.4-3.3-4.6-3c-15.4,3.8-30.7,8.1-47.5,12.6
		c6,17.7,11.7,34.5,17.6,52C3422.3,2587,3437.9,2580.5,3453.7,2574z"/>
	<path class="st0" d="M3586.7,2691.6c-13.2-11.3-25.5-23.6-36.9-36.7c-9,7.6-18.3,15.6-28.3,24.2c14.1,14,27.3,27.2,41,40.9
		C3571.2,2709.9,3579.2,2700.4,3586.7,2691.6z"/>
	<path class="st0" d="M3547.9,2652.6c-11.3-13.2-21.5-27.2-30.8-42c-10.1,6.2-20.5,12.6-31.6,19.4c11.8,16.2,22.8,31.2,34.2,46.7
		C3529.6,2668.2,3538.9,2660.4,3547.9,2652.6z"/>
	<path class="st0" d="M3457.3,2270.2c5.9-11.4,11.4-23,17.3-34.4c1.8-3.4,1.1-5.1-2.1-6.8c-7.2-3.9-14.2-8.1-21.3-12.2
		c-6.5-3.7-12.9-7.4-20.4-11.6c-8.2,16.6-16,32.4-24.3,49.2c16.2,6.7,30.9,12.9,45.7,18.7
		C3453.3,2273.5,3456.5,2271.7,3457.3,2270.2z"/>
	<path class="st0" d="M3430.4,2389.1c-0.5,3.5,1.1,4.7,4.4,4.9c9.8,0.7,19.6,1.5,30.1,2.3c1.4-17.5,4-34.6,7.9-51.3
		c-9.2-2.2-18.4-4.5-27.5-6.8c-4.8-1.2-7.2,0.3-7.9,5C3435.1,2358.5,3432.8,2373.8,3430.4,2389.1z"/>
	<path class="st0" d="M3388.3,2260c11.5,4.4,11.5,4.4,16.3-6.7c4.2-9.6,8.5-19.3,12.9-29.3c-15.7-8-30.8-15.7-47.1-24
		c-6.8,15.3-13.4,29.9-20.2,45.3C3363.6,2250.5,3375.9,2255.3,3388.3,2260z"/>
	<path class="st0" d="M3570.1,2725.2c9.4,7,18.7,14.1,28.2,21c4.2,3.1,8.8,5.6,13.7,8.7c6.5-10.6,12.8-20.8,19-30.9
		c-14.6-9-28.6-19.1-41.7-30.2c-6.7,7.8-13.3,15.6-20,23.3C3566.3,2720.5,3566.7,2722.7,3570.1,2725.2z"/>
	<path class="st0" d="M3473.5,2342c4.1-17.2,9.5-34,16.1-50.1c-5.3-2.2-10.5-4.3-15.8-6.5c-5.4-2.2-10.9-4.5-17.5-7.3
		c-6.1,19-11.9,36.9-17.9,55.5C3450.8,2336.6,3462.3,2339.3,3473.5,2342z"/>
	<path class="st0" d="M3515.5,2608c-9.1-14.8-17.1-30.3-23.9-46.4c-10,4.1-19.9,8.3-29.8,12.6c-1.1,0.5-2.4,3.4-1.9,4.5
		c7.6,16.1,15.5,32.1,23.8,49C3494.9,2620.7,3505.3,2614.4,3515.5,2608z"/>
	<path class="st0" d="M4365.4,2160.7c-7.6-15.5-7.7-15.5-23-7.6c-10.3,5.4-20.6,10.9-31,16.4c6.6,14.2,12.9,27.5,19.4,41.3
		c16.2-6.7,31.8-13.2,48.5-20.1C4374.4,2180.2,4370.1,2170.3,4365.4,2160.7z"/>
	<path class="st0" d="M4310,2355.6c-0.4-5.6-3-6.5-7.8-5.7c-12.8,2.2-25.7,4.5-38.6,6.1c-5.9,0.7-6.7,3.2-5.9,8.3
		c1.4,9.4,2.9,18.8,3.2,28.3c0.2,6.7,2.1,9.6,8.2,7.9c13.2-0.8,25.8-1.8,38.4-2.1c5.6-0.1,6.8-2.4,6.3-7.3
		C4312.4,2379.3,4310.9,2367.5,4310,2355.6z"/>
	<path class="st0" d="M4325.2,2207.2c-1.5-3.9-4-4.7-7.9-2.9c-12.5,5.7-25.1,11.1-37.6,16.9c-1.5,0.7-3.4,3.6-2.9,4.7
		c5.2,14.1,10.9,28,16.7,42.8c15.3-5,30.4-9.9,45.4-15.2c1.1-0.4,2.1-4.2,1.5-5.8C4335.6,2234,4330.4,2220.6,4325.2,2207.2z"/>
	<path class="st0" d="M4393.6,2093.6c-15.9,9.2-30.8,17.8-46,26.6c8,15.4,15.6,30,23.5,45.2c15.9-7.4,31.4-14.7,48-22.5
		C4410.5,2126.3,4402.2,2110.3,4393.6,2093.6z"/>
	<path class="st0" d="M4380.5,2067.4c5.1,8.5,10.1,16.7,15.1,25C4390.8,2083.9,4385.7,2075.6,4380.5,2067.4z"/>
	<path class="st0" d="M4244.7,2537c3.4-16,6.9-31.9,9.9-48c0.2-1.3-2.8-4.4-4.6-4.6c-14-2.1-28-3.9-42.1-5.4c-1.7-0.2-4.8,2-5.2,3.7
		c-2.9,12.5-5.3,25.1-8,37.6c-0.8,3.8,0.5,5.8,4.2,6.7c5.4,1.3,10.7,2.8,16,4.2c9.6,2.5,19.1,5,28.3,7.4
		C4244.2,2537.6,4244.7,2537.4,4244.7,2537z"/>
	<path class="st0" d="M4193.4,2517.7c-12.5-3-24.3-5.8-35.8-8.6c-4.2,17.2-9.8,33.9-16.4,49.9c11,4.5,22.1,9,34.3,14
		C4181.5,2554.4,4187.3,2536.6,4193.4,2517.7z"/>
	<path class="st0" d="M4260.9,2494.7c14.6,2.5,29.3,4.8,43.9,6.7c1.4,0.2,4.3-2,4.5-3.3c1.7-13.4,3.2-26.8,4.2-40.3
		c0.1-1.5-2.7-4.4-4.4-4.6c-12.8-1.1-25.6-1.7-38.4-2.5c-0.2-0.5-0.4-1-0.6-1.5c-2.9,1.5-8.1,2.7-8.4,4.6c-2,12-3.1,24.1-4.1,36.2
		C4257.4,2491.7,4259.5,2494.5,4260.9,2494.7z"/>
	<path class="st0" d="M4242.4,2546c1.2-3.7-0.8-4.7-3.7-5.4c-13.7-3.6-27.3-7.4-41-10.8c-1.6-0.4-5,1-5.5,2.3
		c-4.9,13.7-9.3,27.5-14.1,42c15.8,6.6,31.4,13.1,48.6,20.2C4232.2,2577.4,4237.2,2561.7,4242.4,2546z"/>
	<path class="st0" d="M4256.4,2475.7c0.7-9.3,1.5-18.5,2.3-27.8c0.1,0,0.3,0,0.4,0c0-4.6-0.3-9.3,0.1-13.9c0.3-4.9-1.6-6.7-6.5-6.6
		c-13.5,0.1-27-0.1-40.5-0.4c-4.5-0.1-5.5,1.9-5.7,6c-0.5,11.3-1.4,22.5-2.3,33.7c-0.7,8.1-0.1,8.8,8.3,9.8
		c12.3,1.5,24.6,2.9,36.8,4.9C4254.5,2482.2,4256.1,2480.3,4256.4,2475.7z"/>
	<path class="st0" d="M4091.5,1952.2c-6.9,11.3-13.3,22.9-20.1,34.3c-2.1,3.6-1.9,5.7,1.9,8c10.9,6.8,21.4,14.1,32.3,20.8
		c1.5,0.9,5.4,0.6,6.3-0.6c9.3-12.3,18.3-24.9,28.5-38.9c-14.7-9.4-28.6-18.4-42.7-26.9C4096.6,1948.2,4092.6,1950.4,4091.5,1952.2z
		"/>
	<path class="st0" d="M4305,2312.7c0.5,5.3,2.5,7.2,8.2,5.8c13.3-3.2,26.7-5.8,40.1-8.6c3.5-0.7,4.6-2.5,3.6-6.2
		c-4-14-7.7-28.1-11.4-42.3c-1.2-4.5-3.2-5.4-7.6-3.9c-13.2,4.5-26.6,8.3-39.7,13c-6.1,2.2-8.6,0-10.3-5.2
		c-1.8-5.4-3.8-10.7-5.9-16.7c-14,5.4-27.3,10.3-40.4,15.5c-3.3,1.3-6.2,3.6-10.1,6c-1.6-3.4-3.8-7.7-6.1-12.5
		c-16.1,6.7-31.8,13.2-47.4,19.7c4.8,14.4,9.2,28.1,14,41.6c0.5,1.5,4.1,2.9,6,2.6c7.4-1.5,14.6-3.7,21.8-5.7
		c7.3-2,15.1-2.9,21.5-6.4c6-3.3,11.4-1.4,17-2.3c-1.3,1.3-2.7,2.1-4.1,2.2c-6.2,0.8-7.1,3.8-5.5,9.6c2.8,10,4.8,20.2,6.6,30.5
		c0.7,4.1,2.4,5,6.2,4.4c11.6-2,23.2-3.6,34.7-5.6c12.4-2.2,12.4-2.3,10-14.4c-1.7-8.7-3.4-17.5-5.1-26.2c0.7-0.1,1.3-0.2,2-0.3
		C4303.8,2309.1,4304.8,2310.8,4305,2312.7z M4296,2297.7c-0.3-5.4-0.7-10.7-1.1-17.3C4301,2291,4301.1,2296.5,4296,2297.7z"/>
	<path class="st0" d="M4307.5,2401.5c-13.5,0.9-26.9,1.5-40.4,2.7c-1.7,0.2-4.6,2.9-4.6,4.6c-0.4,11.3-0.4,22.6,0,33.8
		c0.1,1.6,2.5,4.4,4,4.5c13.9,1.2,27.8,1.8,41.7,2.7c3.9,0.3,5.7-1.2,5.6-5.3c-0.1-6.2,0-12.4,0-18.6l0,0c0-6.2-0.2-12.4,0.1-18.6
		C4314.1,2402.7,4312.1,2401.2,4307.5,2401.5z"/>
	<path class="st0" d="M3376,2477.6c0.1,1.4,3.6,3.9,5.2,3.7c13.4-1.4,26.7-3.4,40.1-5c4.7-0.6,6.9-2.3,6.4-7.7
		c-1.2-12.3-1.9-24.7-2.6-37c-0.2-4.1-2.4-4.6-5.7-4.6c-7.1,0.1-14.1,0-21.2,0v0.1c-6.9,0-13.7,0.1-20.6,0c-3.1,0-5.3,0.5-5,4.3
		C3373.7,2446.8,3374.6,2462.2,3376,2477.6z"/>
	<path class="st0" d="M3378.6,2424c6.6-0.1,13.3,0,19.9,0l0,0c7.1,0,14.2,0,21.2,0c3.4,0,5.2-1.1,5.4-5c0.6-11.9,1.4-23.8,2.5-35.7
		c0.5-5.3-1.2-7.6-6.5-8.2c-13.2-1.5-26.3-3.2-39.4-5.1c-4.2-0.6-5.9,1.1-6.1,4.7c-1.1,14.5-1.9,29.1-3,43.7
		C3372.3,2422.8,3374.6,2424,3378.6,2424z"/>
	<path class="st0" d="M3386.6,2539.2c16.8-4.5,31.9-8.5,47-12.5c3.7-1,4-3.5,3.3-6.7c-2.6-12.3-5.2-24.6-7.5-37
		c-0.6-3.3-1.8-4.7-5.2-4.3c-14.5,1.9-28.9,3.6-43.4,5.8c-1.5,0.2-4,2.9-3.8,4C3380,2505,3383.2,2521.5,3386.6,2539.2z"/>
	<path class="st0" d="M4227.7,1898.4c-13.6-10.7-27.7-20.8-42.1-30.5c0,0.1-0.1,0.1-0.1,0.2
		C4199.7,1878.3,4213.4,1888.2,4227.7,1898.4C4227.6,1898.5,4227.7,1898.5,4227.7,1898.4z"/>
	<path class="st0" d="M3419.4,1814.2c1-0.6,2-1.2,3-1.7l-28.6-28.6c6.3,9.7,12.7,19.3,19.3,28.8C3414,1814,3418,1815,3419.4,1814.2z
		"/>
	<path class="st0" d="M3496,1873.9c-3.7-6.3-7.6-12.5-10.9-19c-2.3-4.5-4.7-4.8-8.8-2.1c-11.8,7.8-23.8,15.4-35.8,22.9
		c-4,2.5-4.9,4.8-1.9,8.9c8.1,11.1,16,22.3,23.6,33.8c2.8,4.1,5,3.6,8.6,1.2c8.6-5.9,17.4-11.4,26.2-17c1.3-0.8,2.9-1.2,4.4-1.8
		c0.2,0.4,0.5,0.9,0.7,1.3c-4,2.8-8,5.6-12.3,8.6c8.7,13.7,17.1,26.7,25.3,39.9c2,3.2,3.9,3.5,7,1.6c7.9-4.9,16-9.5,24-14.2
		c3.5-2.1,7.1-4.1,11-6.3c-8.2-15.8-16.1-30.8-24.1-46.1c-6.8,3.4-12.7,6.5-18.6,9.5c-0.4-0.8-0.8-1.6-1.3-2.4
		c13.8-7.3,27.7-14.7,42.2-22.4c-6.9-14.8-13.4-29.1-20.3-43.1c-0.6-1.3-4.3-2.6-5.6-1.9c-14.8,7.3-29.5,15-44.8,22.9
		c5.9,10.6,11.4,20.4,16.8,30.2c-0.6,0.3-1.2,0.7-1.8,1C3498.3,1877.4,3497,1875.7,3496,1873.9z"/>
	<path class="st0" d="M4091.9,1815.9c13.2,6.6,25.8,12.9,38.6,19.1C4117.8,1828.2,4105,1821.9,4091.9,1815.9z"/>
	<path class="st0" d="M4049.2,1802.1c-1.4-0.6-5,1.3-5.8,2.9c-2.4,4.7-3.9,9.9-5.7,14.9c-3.6,9.9-7.1,19.8-10.7,29.9
		c15.3,6.5,29.9,12.6,44.4,18.7c-0.3,0.8-0.6,1.6-0.9,2.4c-6.4-2.4-12.7-4.9-19.6-7.5c-6.2,15-12.1,29.3-18.1,43.5
		c-1.6,3.7,0.4,5,3.4,6.4c10.3,4.6,20.6,9.3,30.7,14.3c3.9,2,5.8,1.4,7.7-2.5c3.4-7,7.3-13.8,11-20.8c0.8,0.4,1.7,0.8,2.5,1.2
		c-4.3,8.7-8.5,17.3-12.8,26.1c12.2,7.2,24,14.2,36,20.9c1.1,0.6,4.4-0.3,5.2-1.5c8.7-13.1,17.1-26.4,25.6-39.8
		c-1.3-1.6-2.4-3.1-3.5-4.5c0.5-0.6,1-1.2,1.4-1.8c5.8,4.4,11.5,8.9,17.3,13.3c-4.1-1.9-8.2-3.9-12.6-6
		c-9.4,14.7-18.6,29.2-27.8,43.7c11.8,8.4,23,16.3,34.1,24.3c2.9,2.1,4.6,1.2,6.5-1.4c5.8-7.8,11.8-15.4,17.7-23.2
		c3.7-4.9,7.4-9.7,11.4-15.1c-5.5-4.1-10.3-7.6-15-11.2c-4.8-3.7-9.6-7.6-14.3-11.3c1.1,0.2,2.4,0.1,3.1,0.7c5.3,4.9,8.1,2,11.3-2.8
		c6-9.1,12.4-17.8,18.5-26.8c2.2-3.2,4.3-6.5,6.9-10.4c-14.8-9.3-28.8-18.1-42.8-27c-3.4-2.2-5.2-0.6-6.8,2.3
		c-3.2,5.6-6.5,11.2-9.7,16.7c-0.7-0.4-1.4-0.8-2-1.2c3.8-7,7.6-13.9,11.9-21.8c-14.2-7.4-28.1-14.3-41.6-21.7
		c-5.4-2.9-8-2.2-10.5,3.5c-4.9,11.6-10.5,23-15.9,34.4c-0.9,2-2.2,3.8-3.4,5.7c-0.6-0.3-1.2-0.6-1.7-0.9
		c7.2-15.7,14.4-31.3,22-47.9C4079.9,1814.5,4064.6,1808.1,4049.2,1802.1z"/>
	<path class="st0" d="M3483.7,2223.7c-8.2,16.6-16.2,32.6-23.8,48.7c-0.5,1.1,1.7,4.6,3.4,5.4c8.6,4,17.5,7.5,26.3,11.1
		c0.3,0.1,0.7,0.3,1,0.4c6.8-16.3,14.7-31.9,23.7-46.8C3504.6,2236.5,3494.5,2230.4,3483.7,2223.7z"/>
	<path class="st0" d="M3346.3,2124.8c8.5-12,16.5-23.1,24.3-34.4c0.8-1.1,0.5-4.2-0.4-4.9c-12.7-10-25.5-19.8-39.4-30.4
		c-10,14.2-19.3,27.6-29,41.5C3317.2,2106.3,3331.7,2115.5,3346.3,2124.8z"/>
	<path class="st0" d="M3345.6,2031.3c-2.2-1.3-4.5-2.4-6.5-4c-11.2-9.2-22.3-18.6-34.3-28.6c-11.4,14.9-22.3,29-33.6,43.7
		c14.9,10.4,28.9,20.3,43.3,30.3c6-8,11.4-15.2,16.8-22.5C3336,2043.9,3340.8,2037.6,3345.6,2031.3z"/>
	<path class="st0" d="M4190.2,2090.6c10.6,13.1,20.7,25.6,31.2,38.5c14.1-10.3,27.8-20.2,42.5-30.9c-9.8-12.1-19-23.7-28.4-35
		c-6.4-7.7-6.5-7.5-14.1-0.7C4211.1,2071.8,4200.8,2081.1,4190.2,2090.6z"/>
	<path class="st0" d="M3404.2,1898.5c14.4-10.4,28.1-20.3,42.2-30.4c-10.7-16.1-20.9-31.6-31.8-48.1c-15.8,11.5-30.6,22.2-45.8,33.3
		C3381.1,1869.1,3392.6,1883.7,3404.2,1898.5z"/>
	<path class="st0" d="M4261.1,2082.2c8.1-5.8,15.9-11.9,23.8-18c4.7-3.6,9.2-7.3,14.2-11.2c-5.9-7.5-11.2-14.4-16.5-21.1
		c14.4-12,28-23.5,42.5-35.6c-12.1-12.9-23.4-25.3-35-37.4c-0.9-0.9-4.1-1.1-4.9-0.3c-11.6,11.2-23,22.6-34.7,34.2
		c6.9,7.5,13.3,14.4,19,20.6c-15.8,10.7-27.7,24.5-41.7,36.2c9.4,11.4,18.2,22.1,27.3,32.6C4256,2083.4,4259.7,2083.2,4261.1,2082.2
		z"/>
	<path class="st0" d="M4197.4,2457.5c-10.3-0.9-20.6-1.6-30.9-2.3c-1.5,17.3-4.3,34.3-8.2,50.7c9.3,2.1,18.5,4.3,27.7,6.9
		c5.7,1.6,7.8-0.4,8.7-5.5c2.3-13.5,4.6-27,6.7-39.8C4199.9,2463.6,4204.6,2458.1,4197.4,2457.5z"/>
	<path class="st0" d="M3841.9,2073.3c0.6-9.2,1.3-18.4,2.2-27.6c0.5-5.6-2.3-7.1-6.9-7.2c-7.1-0.1-14.1,0-21.2,0c0,0.1,0,0.2,0,0.3
		c-7.7,0-15.5-0.1-23.2,0c-3.3,0-5.4,1.4-5.1,5.3c0.8,9.7,1.6,19.4,2.4,29.1c8.5-0.6,17.1-0.9,25.8-0.9
		C3824.6,2072.4,3833.3,2072.7,3841.9,2073.3z"/>
	<path class="st0" d="M4252.4,2347.9c-2.4-11.6-4.9-23.2-7.6-35.6c-16.5,4.4-31.8,8.3-47.1,12.8c-1.5,0.4-3,4.6-2.6,6.7
		c2.1,12.2,5,24.2,7.2,36.4c0.7,3.6,1.9,5,5.6,4.5c13.8-1.9,27.6-3.6,41.5-5.4c4.2-0.5,6.5-2.1,5.2-6.9
		C4253.5,2356.2,4253.2,2352,4252.4,2347.9z"/>
	<path class="st0" d="M3436.3,2454.2c9.5-1,19-1.7,28.6-2.2c-0.7-9.1-1.1-18.3-1.1-27.6c0-8.4,0.3-16.8,0.9-25.1
		c-10.2-0.7-20.3-1.4-30.5-2.3c-4.1-0.4-5.7,1-5.7,5c0.1,7.7,0,15.5,0,23.2h-0.1c0,7.1,0.2,14.2-0.1,21.3
		C3428.2,2452.2,3429.7,2454.9,3436.3,2454.2z"/>
	<path class="st0" d="M4250.3,2369.8c-13.4,1.9-26.7,3.7-40.1,5.3c-5,0.6-6.7,2.8-6.2,7.8c1.1,11.9,2,23.8,2.5,35.7
		c0.2,4.2,2.1,5.3,5.8,5.3c6.9-0.1,13.7,0,20.6,0s13.7-0.1,20.6,0c3.8,0.1,5.9-1.3,5.6-5.4c-1-14.8-1.9-29.6-2.9-44.4
		C4255.9,2370.6,4254,2369.3,4250.3,2369.8z"/>
	<path class="st0" d="M3156,2426.8c-3.7,0-5.9,0.9-5.7,5.2c0.6,14.8,1,29.6,1.5,44.5c0.1,4,1.8,6,6.2,5.6
		c13.9-1.4,27.8-2.6,41.6-3.7c4.1-0.3,5.2-2.2,4.9-6c-0.6-9.9-1-19.9-1.3-29.9c-0.1-2.2,0.3-4.4,0.4-6.6c0.7,0,1.4,0,2,0
		c0.3,4.8,0.6,9.6,1,14.9c16.6-0.8,32.3-1.4,47.9-2.4c1.5-0.1,3.8-3.3,3.9-5.1c0.4-11.5,0-23,0.3-34.5c0.1-4.3-1.4-5.8-5.7-5.9
		c-11.5-0.3-23-1-34.5-1.5c-11-0.5-11-0.5-12.7,10.3c-0.1,0.3-0.5,0.6-1.7,2c0-13.8,0-26.6,0-40.1c-15.1-1.4-29.8-2.5-44.5-4.1
		c-6-0.7-7.9,1.8-8,7.3c-0.3,12.6-1,25.2-1.3,37.8c-0.2,10.1-0.1,10.1,10.1,10.1c10.1,0,20.2,0,30.3,0c0,0.6,0,1.3,0,1.9
		c-2.1,0.1-4.1,0.3-6.2,0.3C3175.1,2426.8,3165.5,2426.9,3156,2426.8z"/>
	<path class="st0" d="M3520.2,3022c12.8,6.5,12.9,6.4,19.1-6.6c5.4-11.3,10.6-22.8,16-34.5c-7.8-3.9-14.9-7.4-21.9-11.1
		c-6.8-3.6-13.5-7.3-20.2-11c0.5-0.8,0.9-1.6,1.4-2.4c5.9,3.1,11.9,6.1,18.5,9.5c8.1-15.6,15.9-30.6,23.9-46.1
		c-12.5-7.3-24.4-14.4-36.5-21.2c-1.1-0.6-4.4,1.1-5.4,2.5c-6.4,9.5-12.5,19.3-18.7,29.1c-2.2,3.5-4.2,7-6.3,10.5
		c3.7,2.8,6.7,5,9.7,7.2c-0.4,0.6-0.8,1.2-1.2,1.8c-7.7-4.9-15.5-9.8-23.1-14.8c-9.8-6.4-9.8-6.5-16.7,3.4
		c-7.7,11-15.4,22-23.7,33.8c14.2,9,27.8,17.3,41.1,26.1c4.8,3.2,7.1,2.1,9.6-2.7c4.9-9.1,10.3-17.9,15.5-26.8
		c0.7,0.4,1.4,0.8,2.2,1.1c-6.1,10.8-12.2,21.7-18.7,33.2C3496.7,3009.7,3508.4,3016,3520.2,3022z"/>
	<path class="st0" d="M4143.9,2991.4c7.4,12.7,5.3,10.9,16.3,4.3c12.2-7.4,24.1-15.4,36.8-23.5c-9.9-14.1-19-27.3-28.5-40.3
		c-0.8-1.1-4.8-1.2-6.4-0.2c-8.2,4.9-16,10.3-24,15.4c-2.5,1.6-5.1,2.9-7.7,4.3c-0.3-0.6-0.7-1.1-1-1.7c4.2-2.9,8.4-5.7,12.9-8.9
		c-8.9-13.9-17.4-27.4-26.2-40.7c-0.7-1.1-3.7-2-4.7-1.4c-12.1,6.8-24,13.9-36.4,21.2c8,15.4,15.9,30.4,24,46
		c5.9-3,11.2-5.7,16.4-8.4c0.4,0.5,0.8,1,1.2,1.6c-2,1.4-3.9,3.1-6,4.3c-9.6,5.1-19.2,10.1-28.9,15c-2.8,1.4-5.1,2.8-3.3,6.5
		c6.3,13.2,12.3,26.5,18.8,39.6c0.6,1.3,3.9,2.6,5.1,2.1c15-7.4,29.9-15.2,45.3-23.2c-6.9-12.2-13.2-23.3-19.5-34.5
		c0.7-0.4,1.4-0.8,2.1-1.2C4134.7,2975.5,4139.3,2983.5,4143.9,2991.4z"/>
	<path class="st0" d="M4189.6,2181.4c13.9-9,27.4-17.7,40.8-26.7c1.1-0.7,1.9-3.8,1.3-4.8c-8.6-12.5-17.5-24.8-26.8-37.8
		c-14.3,11.6-27.7,22.4-41.3,33.5C4172.5,2157.8,4180.9,2169.4,4189.6,2181.4z"/>
	<path class="st0" d="M3790.1,2775.5c-0.8,10.3-1.6,20.5-2.4,30.8c-0.3,3.8,0.9,6,5,6c15.5,0,31,0,46.4,0c4.2,0,5.2-2.4,4.9-6.1
		c-0.8-10.2-1.6-20.4-2.3-30.7c-8.5,0.6-17.2,0.9-25.9,0.9C3807.2,2776.4,3798.6,2776.1,3790.1,2775.5z"/>
	<path class="st0" d="M3678.5,1771.1c91.7-17.7,183.1-18,275.2,0.2c0-0.2,0-0.4,0.1-0.6c-34.1-7.2-69.2-11.7-105-13.5
		c-20.3-0.1-40.7-0.2-61-0.2c-37.3,1.5-73.8,6.1-109.3,13.6C3678.4,1770.7,3678.5,1770.9,3678.5,1771.1z"/>
	<path class="st0" d="M3851.3,3035.1c12.3-1.5,24.7-2.7,37-3.7c4.7-0.4,5.5-2.6,4.9-6.5c-1.9-13.8-3.7-27.6-5.5-41.5
		c-0.5-3.6-2.2-4.7-5.9-4.3c-9.7,1.1-19.4,1.9-29.1,2.9c-10.7,1.1-10.7,1.2-9.2,12c0,11.3,0.2,22.6-0.1,33.9
		C3843.3,3033.8,3845.4,3035.7,3851.3,3035.1z"/>
	<path class="st0" d="M3871.9,2971.9c-1.5-13.4-3-26.8-4.2-40.3c-0.5-5.2-2.9-6.5-7.9-6.1c-11.3,0.8-22.6,1.4-33.8,1.7
		c-6,0.1-9.2,2-8.5,8.6c0.3,2.5-0.3,5.1-0.4,7.7c-0.8,0-1.6,0-2.4,0.1c0-2.8-0.3-5.5,0.1-8.3c0.7-5.8-1.7-7.8-7.5-7.9
		c-11.5-0.2-23-0.7-34.5-1.8c-6.1-0.6-8.3,1.6-8.8,7.3c-1.2,13-2.5,26-4,39c-0.6,5.3,2.6,5.9,6.3,6.1c12.2,0.7,24.3,1.4,36.5,1.9
		c10.7,0.5,10.7,0.4,12.2-10.2c0.1-0.5,0.6-1,1.8-3c0.3,3.6,0.5,5.7,0.6,7.7c0.1,3.7,1.6,5.8,5.7,5.6c14.8-0.8,29.6-1.5,44.4-2.3
		C3871,2977.4,3872.3,2975.6,3871.9,2971.9z"/>
	<path class="st0" d="M3252.8,2399.4c4,0.3,6-0.8,6.3-5.3c0.8-11.7,2.3-23.3,3.2-35c0.1-1.7-1.9-4.8-3.3-5
		c-14.4-2.2-28.9-3.9-43.4-5.8c-3.1-0.4-5,0.5-5.3,4.1c-1.1,13-2.5,26-3.8,39c-0.5,4.5,1.2,6.7,5.8,6.6c7.1-0.1,14.2,0,21.3,0
		c0,0.2,0,0.4,0,0.6C3240,2398.8,3246.4,2399,3252.8,2399.4z"/>
	<path class="st0" d="M3789.6,3008.4c0-6.9,0.3-13.7-0.2-20.6c-0.1-1.8-2.5-4.8-4.1-5c-12.1-1.6-24.2-2.7-36.3-3.6
		c-1.5-0.1-4.4,1.8-4.6,3.1c-2.2,14.7-4.2,29.4-5.8,44.1c-0.2,1.4,2.2,4.4,3.7,4.6c13.2,1.6,26.4,2.7,39.6,4.1
		c4.7,0.5,6.3-1.6,6.2-6.1c-0.2-6.9,0-13.7,0-20.6C3788.6,3008.4,3789.1,3008.4,3789.6,3008.4z"/>
	<path class="st0" d="M3832.1,2982.9c-11.1,0.2-22.1,0.2-33.2,0c-4-0.1-5.6,1.6-5.8,5.4c-0.6,13.7-1.1,27.4-1.8,41.1
		c-0.2,4.5,1.9,5.8,6,5.7c6.2-0.2,12.4,0,18.6,0c6,0,12-0.2,17.9,0.1c4.9,0.2,6.7-1.6,6.4-6.6c-0.8-13.3-1.3-26.5-1.6-39.8
		C3838.6,2984.1,3836.6,2982.8,3832.1,2982.9z"/>
	<path class="st0" d="M4081.6,1811.3c-19.8-8.6-40-16.2-60.8-22.9l0,0C4041.4,1796.2,4061,1803.6,4081.6,1811.3
		C4081.6,1811.4,4081.6,1811.4,4081.6,1811.3z"/>
	<path class="st0" d="M3324.7,2449.9c13.2-1.1,26.5-1.8,39.7-2.5c3.7-0.2,5.1-1.7,5.1-5.3c-0.1-11.1,0.2-22.1-0.2-33.2
		c-0.1-1.7-2.8-4.6-4.5-4.7c-13.4-1.2-26.9-1.7-40.4-2.7c-5-0.4-6.7,1.6-6.5,6.4c0.2,6,0.1,11.9,0.1,17.9l0,0
		c0,5.8,0.2,11.5-0.1,17.2C3317.5,2448.2,3319.3,2450.3,3324.7,2449.9z"/>
	<path class="st0" d="M4298.9,2553.2c3.2-15.2,6.4-30.1,9.1-45c0.2-1.1-2.4-3.7-4-3.9c-14.2-2.5-28.4-4.5-42.6-6.8
		c-4.1-0.7-5.3,1-6,4.8c-1.9,10.2-3.7,20.5-6.6,30.5c-1.8,6.4,0.3,8.3,5.9,9.4c5,1,9.8,2.7,14.7,4.1c-0.2,0.8-0.4,1.6-0.7,2.4
		c-5.4-1.3-10.8-2.5-16-4.1c-4.3-1.3-6.5-0.3-7.7,4.3c-1.9,7.5-4.5,14.8-6.8,22.2c-1.4,4.3-2.9,8.6-4.4,13.1
		c15.1,5.8,29.1,11,43.1,16.5c3.9,1.5,5.8,0.3,7-3.4c2.6-7.8,5.3-15.5,7.8-23.3c1.8-5.6,3.3-11.3,5-17.1c-5.1-1.9-9.2-3.4-13.3-4.9
		c0.2-0.6,0.4-1.2,0.5-1.7C4288.5,2551.2,4293.1,2552.1,4298.9,2553.2z"/>
	<path class="st0" d="M3341.4,2554.7c-6,0.8-6.2,4.3-4.6,9c3.8,11.1,7.2,22.3,11.2,33.3c0.7,1.8,4.1,4.4,5.3,4
		c14.9-5.3,29.7-11,44.7-16.7c-3.8-11.7-7.7-22.6-10.6-33.7c-1.7-6.5-4.6-7.5-10.4-5.5c-5.5,1.8-11.2,2.9-16.8,4.4
		c-0.2-0.7-0.4-1.4-0.7-2c2.1-0.8,4.2-1.8,6.4-2.4c4.7-1.3,9.6-2.1,14-3.9c1.7-0.7,3.9-3.8,3.6-5.4c-2.4-12.6-5.4-25-8.4-38.8
		c-12.4,1.9-24.4,3.9-36.4,5.6c-15.3,2.1-15.3,2.1-12.8,17c0.1,0.4,0.1,0.9,0.2,1.3c2.4,10.7,4.7,21.4,7.2,32.4
		c4.8-0.8,8.5-1.4,12.2-2.1C3344.3,2553.3,3342.9,2554.5,3341.4,2554.7z"/>
	<path class="st0" d="M3329,2347.4c8.3,1.2,16.6,2.6,24.9,3.8c6.9,1,13.9,2,21.1,3c2.8-12.8,5.2-24.9,8.3-36.9
		c1.3-5-0.4-6.9-4.9-7.9c-3.2-0.7-6.2-1.9-9.3-2.9c0.2-0.6,0.4-1.2,0.6-1.8c8.7,3,19.1,0.6,27.5,9.1c-3.9-0.4-6.6-0.7-9.8-1.1
		c-0.7,2.3-1.5,4.3-1.9,6.4c-2.7,13.4-5.2,27-8.1,40.3c-1.1,5,0.5,6.9,5.2,7.5c13.6,1.7,27.2,3.4,40.8,5.3c3.9,0.5,5.4-0.6,6.1-4.6
		c1.9-11.1,4.1-22.2,6.5-33.2c1.9-9,2.1-9-6.7-11.2c-5.9-1.5-11.7-3.2-17.6-4.8c0.2-0.7,0.3-1.4,0.5-2.1c2.1,0.3,4.3,0.5,6.3,1
		c5.4,1.3,10.7,3.1,16.1,4.1c1.5,0.3,4.6-1,5-2.2c4.8-13.7,9.3-27.6,14.1-42.2c-15.8-6.5-31.4-13-47.5-19.7c-2.2,4.7-4.2,9-6.2,13.2
		c-2.3-2.1-3.8-4.2-5.7-5c-13.2-5.3-26.4-10.3-39.6-15.4c-3.3-1.3-5.2-0.9-6.5,2.8c-3.5,10.1-7.5,20.1-11.3,30.2
		c0.9-6.3-0.1-12.4,3-18.8c5.9-11.8,9.7-24.7,14.7-37c1.5-3.6,0.3-5.3-2.9-6.7c-12.4-5.4-24.8-10.8-37.1-16.4
		c-4.1-1.9-6.6-1.3-8.3,3.1c-5,13.3-10,26.5-15.1,39.8c-1.6,4-0.6,6,3.7,7.2c8.9,2.6,17.8,5.5,26.6,8.5c2.3,0.8,4.4,2.2,6.6,3.4
		c-0.3,0.5-0.5,1.1-0.8,1.6c-1.8-0.5-3.7-0.8-5.5-1.4c-9.3-3-18.6-5.8-27.8-9.1c-4.3-1.5-6.4-1-7.6,3.7
		c-3.6,14.2-7.4,28.3-11.4,42.3c-1.2,4.2,0.4,5.7,4,6.4c13.4,2.8,26.9,5.3,40.3,8.4c5.1,1.2,6.9-0.5,7.4-5.2
		c0.2-2.1,1.4-4.2,2.1-6.3c0.6,0.2,1.2,0.3,1.7,0.5c-2.2,11-4.1,22-6.6,32.9C3322.8,2345.3,3324.6,2346.8,3329,2347.4z"/>
	<path class="st0" d="M3255.1,2060.8c0.5-0.9-0.7-3.8-1.9-4.6c-14.3-9.7-28.7-19.1-43.9-29.2c-4.2,7-8.4,13.9-12.5,20.8l41.2,41.2
		c-0.8,1.4-1.6,2.8-2.4,4.2C3242.3,2082.3,3248.8,2071.6,3255.1,2060.8z"/>
	<path class="st0" d="M4434,2170.7c-8.4-20.5-17.9-40.5-28.2-60c0.2,0.6,0.5,1.3,1,2.1c5.2,9.5,9.9,19.3,14.6,29.1
		c2,4.2,3.4,8.7,5.1,13.1c-0.5,0.2-1,0.4-1.5,0.5c-1.7-3-3.3-6-5.4-9.7c-15.1,7.1-29.9,13.9-44.6,21.1c-0.9,0.4-1.2,3.9-0.5,5.5
		c4.9,12.4,10.2,24.5,15,36.9c1.6,4,3.6,4.8,7.5,3.2c8.8-3.5,17.9-6.5,26.8-9.8c5.5-2,10.9-4.2,16.8-6.5
		c-3.8-10.2-7.3-19.5-10.8-28.8c0.7-0.3,1.3-0.6,2-0.8C4432.5,2168,4433.3,2169.3,4434,2170.7z"/>
	<path class="st0" d="M3550.2,1811.4c20.4-7.7,40-15.1,60.7-22.8v-0.1C3590.2,1795.1,3570,1802.7,3550.2,1811.4
		C3550.2,1811.3,3550.2,1811.3,3550.2,1811.4z"/>
	<path class="st0" d="M3781.4,1816.3c-13,1.4-26,2.7-39,3.8c-3.7,0.3-4.4,2.4-4,5.4c1.9,14.3,3.6,28.6,5.8,42.8
		c0.2,1.5,3.5,3.7,5.3,3.6c9.3-0.5,18.5-1.5,27.8-2.4c12.3-1.3,12.3-1.4,10.8-13.7c0-11.1-0.2-22.1,0.1-33.2
		C3788.3,1817.4,3786.2,1815.8,3781.4,1816.3z"/>
	<path class="st0" d="M4205.1,2739.1c9.1-12.8,17.8-24.8,26.2-37c0.8-1.1,0.3-4.6-0.7-5.3c-13.4-9-27-17.7-41-26.9
		c-4.9,6.8-9.5,13.2-14.1,19.6c-0.6-0.4-1.2-0.9-1.9-1.3c8.3-13,16.6-26,25.1-39.4c-14.6-8.4-27.7-16.2-41.1-23.5
		c-1.4-0.8-5.3,0.2-6.3,1.6c-7.3,10.3-14.1,21-21.2,31.4c-2.2,3.1-1.6,5.1,1.2,7.2c3,2.3,5.8,4.9,8.7,7.3c-0.3,0.4-0.6,0.8-0.9,1.2
		c-4.6-2.8-9.2-5.6-15.2-9.2c-2.6,3.3-5.3,6.7-8,10c-0.3-0.3-0.7-0.7-1-1c10.3-14.5,20.5-28.9,31.2-44c-11-6.7-21.3-13-31.4-19.2
		c-9.2,14.8-19.5,28.8-30.8,42c3.4,3,6.8,5.9,10.2,8.8c-0.5,0.6-1.1,1.3-1.6,1.9c-3.5-2.9-7-5.7-10.5-8.5
		c-11.4,13.1-23.7,25.4-36.9,36.7c7.7,9.1,15.7,18.3,23.7,27.7c6.3-5.4,11.7-9.9,17.1-14.5c0.5,0.6,1.1,1.2,1.6,1.8
		c-10.6,9.4-21.3,18.8-32.3,28.5c10.6,13.8,21.1,27.5,32.3,42.1c12.8-11.4,24.7-22.2,36.9-32.8c3.6-3.2,3.4-5.3,0-8.5
		c-8.8-8.5-17.3-17.2-25.9-25.9c-1.3-1.3-2.3-3-3.4-4.4c0.5-0.4,1-0.8,1.5-1.2c11.2,11.1,22.5,22.1,34.1,33.6
		c8.3-8.9,15.9-16.9,23.5-25c0.5,0.4,0.9,0.8,1.4,1.1c-1.2,1.7-2.2,3.5-3.6,5c-4.8,5.5-9.6,11.1-14.8,16.2c-3.7,3.6-3.9,6-0.1,9.6
		c7.6,7.1,14.8,14.7,22.2,22c3.4,3.4,6.8,6.7,10.8,10.7c11.2-12.4,21.7-24,33-36.6c-10.9-8.9-20.9-17-30.8-25.2
		c0.5-0.6,1-1.3,1.5-1.9C4183.9,2722.2,4194.1,2730.3,4205.1,2739.1z"/>
	<path class="st0" d="M3240.4,1972.4c1,0.8,4.1,0.6,4.9-0.3c11.3-13,22.3-26.3,34-40.1c-8.5-8-16.9-15.9-25.3-23.7
		c0.5-0.6,1-1.1,1.6-1.7c8.4,7.6,16.8,15.1,24.4,22c12.9-13.1,25.6-25.9,38.8-39.2c-7-7.6-14.5-15.7-22.3-24.1l-84.8,84.8
		C3221.4,1957.7,3230.9,1965.1,3240.4,1972.4z"/>
	<path class="st0" d="M4020,2028.2c11.4,6.7,22.2,12.8,32.7,19.4c4.1,2.6,6.2,1.6,8.5-2c6.5-10.3,13.2-20.5,19.7-30.7
		c1.7-2.7,3.3-5.5,5.4-9c-14.2-8.2-27.7-16-42.5-24.5C4035.6,1997.7,4027.8,2012.9,4020,2028.2z"/>
	<path class="st0" d="M4274.4,1938.6c0.1,0.1,0.1,0.2,0.2,0.3c5.9,6.3,12.2,12.2,18.4,18.2c3.4,3.3,6.8,8.4,10.3,10.6
		C4294,1957.7,4284.3,1948,4274.4,1938.6z"/>
	<path class="st0" d="M4213.4,1954.3c-0.8,0.9-0.8,3.7,0,4.5c11.4,10.7,23.1,21.1,35.4,32.3c9.1-9.3,18.1-18.5,27.1-27.5
		c9.7-9.7,9.9-9.8-0.2-19.1c-10-9.3-20.1-18.4-30.7-28C4234,1929.6,4223.6,1941.8,4213.4,1954.3z"/>
	<path class="st0" d="M4312.9,1978.2c7.4,8.7,14.7,17.2,22,25.8C4327.8,1995.2,4320.5,1986.6,4312.9,1978.2z"/>
	<path class="st0" d="M4100.1,2077.5c-0.7,0.9,0.1,3.9,1.2,4.9c8.5,8,17.2,15.8,26.1,23.5c1.2,1,4.5,1.3,5.4,0.4
		c11.7-11.1,23.1-22.4,35.3-34.4c-12.7-11.4-24.4-22-36.9-33.3C4120.4,2052,4110.1,2064.7,4100.1,2077.5z"/>
	<path class="st0" d="M4184.9,2018.4c-6,6.2-11.7,12.7-17.5,19.1c-4.7,5.2-9.3,10.5-13.4,15c11.9,11.9,23.3,23.2,35.1,35
		c12-10.8,24.6-22.2,38.4-34.6c-12.7-12.3-24.6-24.1-36.9-35.6C4189.7,2016.5,4186,2017.2,4184.9,2018.4z"/>
	<path class="st0" d="M4226,1980.6c-9.5,10.5-19.1,21-28.7,31.3c-2.6,2.7-2.3,4.6,0.3,7.1c8.4,8.2,16.6,16.6,24.9,24.9
		c1,1,2.3,1.8,3.6,2.8c1-0.7,1.8-1.1,2.5-1.6c10.9-10,22-19.9,32.6-30.2c1-0.9,0.5-5.1-0.7-6.4c-9.1-9.6-18.7-18.8-28-28.3
		C4229.8,1977.5,4228.2,1978.2,4226,1980.6z"/>
	<path class="st0" d="M4326.9,1998.7c-14.3,12.1-27.1,22.9-40.2,33.9c10.5,13.6,20.5,26.7,30.9,40.1c14.5-10.2,28.4-19.9,43.2-30.3
		C4349.2,2027.4,4338.1,2013.2,4326.9,1998.7z"/>
	<path class="st0" d="M4196,2198.5c-8.2-12.6-16.6-25.2-25.2-37.5c-0.8-1.1-4.6-1.7-5.7-0.9c-11.6,8.5-23,17.3-34.3,26.3
		c-1.2,0.9-1.9,4.3-1.2,5.4c7.8,12,16,23.9,24.5,36.4c14-8.1,27.8-16,41.4-24.2C4196.5,2203.4,4196.9,2199.8,4196,2198.5z"/>
	<path class="st0" d="M4267.6,2104.6c-0.8-1.1-4.6-1.6-5.8-0.8c-12,8.3-23.8,17-35.4,25.8c-1.1,0.9-1.8,4.2-1.1,5.3
		c8,12.7,16.3,25.1,24.9,38.2c14.8-8.6,29.5-17,45.6-26.3C4286,2132.1,4277,2118.2,4267.6,2104.6z"/>
	<path class="st0" d="M4330,2096.2c-9.9-14.1-19.2-27.3-29-41.2c-14.4,11.1-27.9,21.4-41.9,32.1c8.4,12.2,16.2,23.7,24.4,34.9
		c0.7,1,4.4,1,5.9,0.1c9.5-5.7,18.7-11.7,28-17.7C4321.5,2101.9,4325.4,2099.2,4330,2096.2z"/>
	<path class="st0" d="M4260.2,2197.5c-8.5-14.7-16.5-28.4-24.8-42.6c-14.5,9.4-28,18.2-41.4,27.2c-1,0.7-1.5,3.7-0.9,4.9
		c6.4,11.3,13.1,22.5,20.2,34.6C4229,2213.5,4244.2,2205.7,4260.2,2197.5z"/>
	<path class="st0" d="M3702.2,2007.1c-0.8-2.9-1.8-5.7-3-9.6c-17.5,5.8-34.1,11.3-51.9,17.2c7.2,17.3,13.7,32.9,20.3,48.7
		c13.9-4.6,27-9.2,40.3-13.3c4.2-1.3,5.1-3.2,4-7.2C3708.5,2031.1,3705.4,2019.1,3702.2,2007.1z"/>
	<path class="st0" d="M3640.8,1973.7c-1.7-4.2-3.3-8.4-5.4-13.7c-15.3,6.8-29.7,13.2-44.9,20c8.3,16.3,16,31.5,23.9,46.9
		c12.9-5.6,25.1-10.7,37-16.4c1.2-0.6,1.8-4.6,1.1-6.5C3648.9,1993.8,3644.8,1983.8,3640.8,1973.7z"/>
	<path class="st0" d="M3583.8,1983.9c-9.4,5.4-18.9,10.7-28.2,16.1c-3.3,1.9-6.5,4.3-10,6.7c9.1,14,17.7,27.4,26.6,40.6
		c0.7,1.1,3.7,2,4.8,1.4c11.5-6.5,22.9-13.3,34.9-20.4c-7.5-14.7-14.7-28.6-21.7-42.6C3588.5,1982.3,3586.6,1982.2,3583.8,1983.9z"
		/>
	<path class="st0" d="M4060.5,2051.8c12,8.7,23.3,16.9,35.4,25.6c11-13.6,21.7-26.8,33-40.8c-13.4-9.7-26.1-18.9-39.8-28.9
		C4079.1,2023.1,4069.9,2037.3,4060.5,2051.8z"/>
	<path class="st0" d="M3668.8,2066.2c4.8,11.8,9,22.2,13.3,32.5c16.1-6.6,32.7-12.1,49.9-16.3c-2.7-11.1-5.3-22.3-8.1-34
		C3705.2,2054.4,3687.5,2060.1,3668.8,2066.2z"/>
	<path class="st0" d="M3503,2036.8c11.5,14.2,22.2,27.3,33.1,40.7c12-8.7,23.4-17,35.3-25.7c-9.4-14.5-18.7-28.7-28.7-44
		C3528.8,2017.9,3516.1,2027.2,3503,2036.8z"/>
	<path class="st0" d="M3985,2020.6c-1.9,4.7-3.9,9.4-5.9,14.1c-4.1,10-8.1,20-12.2,30.1c14.7,7.3,28.7,14.3,43.3,21.5
		c8.2-14.2,16.4-28.1,24.2-42.2c0.6-1.1-0.8-4.7-2.2-5.4c-13.6-7-27.3-13.7-41-20.5C3988.1,2016.6,3986.2,2017.5,3985,2020.6z"/>
	<path class="st0" d="M3448.7,2010.4c-0.9,0.8-0.4,4.6,0.7,5.9c4.4,5.5,9.4,10.6,14.1,15.9c5.8,6.3,11.5,12.7,17.4,19.1
		c13-10.5,25.3-20.5,38.5-31.2c-10.3-14.2-20.3-27.9-31.1-42.8C3474.8,1988.7,3461.6,1999.4,3448.7,2010.4z"/>
	<path class="st0" d="M4135.4,2108.4c-1,1-0.7,4.6,0.4,5.9c7.4,8.8,15.3,17.1,22.8,25.8c2.5,3,4.5,2.7,7.2,0.4
		c8.2-6.8,16.4-13.4,24.7-20.1c3.9-3.2,7.8-6.4,12.5-10.3c-11.1-12.3-21.7-24.1-33-36.7C4157.7,2085.7,4146.4,2096.9,4135.4,2108.4z
		"/>
	<path class="st0" d="M3981.8,2014.7c-15-5.2-30.1-10.3-45.1-15.6c-3.8-1.3-5.1,0.4-6,3.8c-3.5,13.3-7,26.5-10.8,39.7
		c-1.3,4.4-0.2,6.4,4.2,7.7c12.9,4,25.6,8.4,40,13.2c6.5-15.6,13-31.4,19.5-47C3982.8,2015.6,3982.4,2014.9,3981.8,2014.7z"/>
	<path class="st0" d="M3899.9,2082.5c17.1,4.2,33.8,9.7,49.9,16.3c4.3-10.4,8.6-20.9,13.3-32.5c-18.8-6-36.6-11.8-55-17.7
		C3905.2,2060.4,3902.5,2071.5,3899.9,2082.5z"/>
	<path class="st0" d="M4145.8,2220.7c-11.2-15.3-22.2-30.5-33.6-46.1c-9.8,8.4-18.5,15.7-27,23c11.2,13.3,21.5,27.5,30.7,42.4
		c8.7-5.3,17.3-10.6,25.8-15.9C4142.7,2223.5,4143.6,2222.6,4145.8,2220.7z"/>
	<path class="st0" d="M3521.6,2172.3c9.6,8.2,18.6,15.9,27,23c11.4-13.3,23.7-25.7,36.9-37.1c-7.3-8.5-14.9-17.4-23.1-26.9
		C3548.4,2145.4,3535.3,2158.6,3521.6,2172.3z"/>
	<path class="st0" d="M4171.6,2271.9c-1.9-5.4-4.3-10.7-6.9-15.8c-5.4-10.5-11.1-21-17-32c-10.7,6.5-20.5,12.4-30.3,18.4
		c9,14.9,17,30.6,23.7,46.8c9.6-4,19.1-8,28.5-12.1C4170.8,2276.7,4172.1,2273.3,4171.6,2271.9z"/>
	<path class="st0" d="M4079.6,2069.6c-11.8-7.8-23.6-15.7-35.4-23.6c-3.8-2.6-6.1-1.9-8.4,2.2c-6.6,11.8-13.4,23.5-20.3,35.1
		c-2,3.4-1.4,5.4,1.9,7.5c10.3,6.6,20.4,13.4,30.5,20.1c1.3,0.8,2.6,1.6,3.9,2.4c0.6,0.4,1.1,0.8,1.7,1.3c0.8-1.6,1.5-3.3,2.5-4.7
		c8.2-10.8,16.3-21.5,24.7-32.2C4083.4,2074.3,4083.2,2072,4079.6,2069.6z"/>
	<path class="st0" d="M3964.1,2072.3c-4,9.1-7.8,18.3-11.6,27.6c16.2,6.8,31.8,14.8,46.6,23.9c6-9.8,12-19.7,18.5-30.3
		c-16.8-8.3-32.7-16.3-48.8-23.9C3967.8,2069.1,3964.7,2070.9,3964.1,2072.3z"/>
	<path class="st0" d="M3661.3,2070.3c-11.4,5.3-22.7,10.9-33.9,16.6c-4.2,2.1-8.2,4.8-12.7,7.5c6.2,10.1,12.2,19.8,18.1,29.3
		c14.8-9.1,30.4-17.1,46.6-23.9c-3.9-9.5-7.9-18.8-12-28.1C3666.8,2070.6,3662.8,2069.6,3661.3,2070.3z"/>
	<path class="st0" d="M4094.5,2151.1c9.8,11.2,20.1,22.9,30.8,35.1c13.7-10.5,27.1-20.8,41.6-32c-12.3-14-24-27.4-35.6-40.6
		C4118.6,2126.7,4106.7,2138.8,4094.5,2151.1z"/>
	<path class="st0" d="M4069.2,2131.3c-8.1,9.5-15.7,18.4-23,26.9c13.2,11.4,25.5,23.8,36.9,37.1c8.7-7.4,17.7-15.1,27.1-23.2
		C4096.2,2158.2,4083,2145,4069.2,2131.3z"/>
	<path class="st0" d="M3568.6,2127.9c-0.9,0.7-0.4,4.5,0.7,5.9c6.1,7.6,12.4,14.9,18.8,22.3c13.2-11.2,27.1-21.4,41.9-30.6
		c-6-9.7-12-19.5-18.4-30C3596.6,2106.6,3582.4,2117.1,3568.6,2127.9z"/>
	<path class="st0" d="M4061.5,2126.1c-12.3-9-24.7-17.9-37.1-27c-3.7-2.7-5.7-1.4-7.8,2.1c-4.9,8.1-9.8,16.2-14.8,24.3
		c14.7,9.2,28.7,19.4,41.8,30.6c6.2-7.4,12.5-14.7,18.8-22c1-1.1,1.7-2.5,2.7-4.1C4063.9,2128.6,4062.9,2127.1,4061.5,2126.1z"/>
	<path class="st0" d="M4055,2116.2c12.4,10.9,24.2,21.2,35.3,31c12.3-12.2,24.5-24.3,37.7-37.3c-13.3-11.7-26.8-23.5-40.7-35.7
		C4075.9,2088.9,4065.6,2102.4,4055,2116.2z"/>
	<path class="st0" d="M3400.3,2149.6c-0.7,1-0.2,4.2,0.8,4.8c13.5,9.1,27.2,17.9,41.1,27c8.9-12.2,17.2-23.8,25.9-35.8
		c-13.6-11-26.8-21.7-41.3-33.4C3417.6,2125.1,3408.8,2137.3,3400.3,2149.6z"/>
	<path class="st0" d="M3467.8,2141.5c0.9,0.7,3.9,0,4.9-1c8-8.6,15.8-17.4,23.4-26.3c1-1.2,1.5-4.5,0.6-5.4
		c-11.1-11.7-22.4-23.2-34.5-35.5c-11.5,12.7-22.1,24.5-33.4,37C3442.2,2121.2,3454.9,2131.5,3467.8,2141.5z"/>
	<path class="st0" d="M3537.4,2151c-12.2-12.4-24.2-24.4-37-37.4c-11.6,13.3-23.3,26.7-35.5,40.7c14.6,11.2,28,21.5,41.7,32
		C3517.2,2174,3527.5,2162.3,3537.4,2151z"/>
	<path class="st0" d="M3515.9,2240c9.2-14.9,19.4-29.1,30.7-42.4c-8.8-7.5-17.7-15.1-27.1-23.1c-11.5,15.9-22.5,31-34,46.8
		C3496.2,2227.9,3506.2,2234,3515.9,2240z"/>
	<path class="st0" d="M3440.5,2017.9c-4.9,4.1-9.5,8.6-14,13.2c-7.1,7.2-14.1,14.5-21.6,22.3c13.3,12,25.9,23.3,37.9,34.1
		c12.2-11.9,23.5-23,35.4-34.7c-10.6-11.7-21.3-23.8-32.3-35.5C3445.1,2016.4,3441.7,2016.9,3440.5,2017.9z"/>
	<path class="st0" d="M3587.7,2045.8c-11.9,8.1-23.9,16.1-35.8,24.1c-3,2-3.7,3.9-1.3,7c8.6,11,17,22.2,25.5,33.2
		c1,1.3,2.5,2.3,3.8,3.4c1.4-0.9,2.3-1.5,3.3-2.1c10.5-7,21-14.1,31.6-20.9c3.7-2.4,3-4.8,1.3-7.8c-6.7-11.5-13.5-22.9-19.9-34.5
		C3593.8,2044.3,3591.7,2043.2,3587.7,2045.8z"/>
	<path class="st0" d="M3650.9,2030.7c-6-14.5-6.1-14.7-20.3-7.9c-11.7,5.6-23.2,11.6-35.5,17.8c9.1,15.9,17.7,30.7,26.3,45.6
		c13.9-6.7,27.2-13,40.3-19.7c1.2-0.6,2-4.2,1.4-5.8C3659.3,2050.6,3655.1,2040.7,3650.9,2030.7z"/>
	<path class="st0" d="M3504.7,2109.3c13,13.4,24.9,25.7,36.8,37.9c11.3-9.9,22.9-20.1,35.3-31c-10.7-13.9-21.1-27.4-32.3-42
		C3530.3,2086.7,3516.8,2098.5,3504.7,2109.3z"/>
	<path class="st0" d="M3517.4,2059.3c-5.4-6.6-10.8-13.3-16.9-20.7c-12.4,11.2-24.2,21.8-35.4,32c12.6,12.7,24.5,24.8,36.8,37.3
		c9.7-8.6,19.5-17.1,29-26c1-0.9,0.7-4.6-0.4-6C3526.4,2070.2,3521.8,2064.8,3517.4,2059.3z"/>
	<path class="st0" d="M3946.7,3022.1c-3.7-16.8-7.2-32.1-10.4-47.4c-0.7-3.4-2.4-4.3-5.6-3.7c-12.2,2.3-24.4,4.3-36.5,6.7
		c-1.5,0.3-3.8,2.8-3.7,4c1.9,16,4.2,31.9,6.6,49.1C3913.8,3027.8,3929.8,3025.1,3946.7,3022.1z"/>
	<path class="st0" d="M3851.8,2811.6c17.5-2.2,34.9-4.8,53.6-7.4c-3.2-13.2-6.2-25.3-9.1-37c-16.8,3.9-34.1,6.7-51.7,8.1
		c0.9,10.8,1.8,21.6,2.9,32.3C3847.7,2809.1,3850.5,2811.8,3851.8,2811.6z"/>
	<path class="st0" d="M3874.2,2858.4c0.6,4.8,2.1,7.5,7.6,5.9c3.8-1.1,7.8-1.3,11.7-2.1c11.6-2.4,23.2-4.9,35.7-7.6
		c-4.4-16.5-8.3-31.4-12.3-46.4c-1.1-4-3.6-4.2-7.1-3.5c-11.9,2.6-23.8,5.2-35.7,7.2c-4.8,0.8-5.7,2.8-5.1,7
		C3870.9,2832.1,3872.6,2845.3,3874.2,2858.4z"/>
	<path class="st0" d="M3900.1,2917.6c12.7-2.9,25.5-5.6,38.2-8.2c3.4-0.7,5.1-2,4.1-5.8c-3.9-14.1-7.5-28.2-11.6-42.2
		c-0.4-1.4-3.5-3.3-5-3.1c-11.5,2.2-22.9,4.7-34.3,7.4c-1.6,0.4-2.9,2.1-3.8,2.8c2.4,16,4.7,30.6,6.9,45.2
		C3895.1,2916.9,3896.5,2918.4,3900.1,2917.6z"/>
	<path class="st0" d="M3931.8,2963.2c0.4,1.7,2.2,3,3.3,4.5c16.4-4.6,31.8-8.7,47-13.3c1.2-0.4,2.6-3.5,2.2-4.9
		c-4.3-14-8.8-27.9-13.6-41.7c-0.5-1.5-3.8-3.3-5.3-2.9c-13.3,3.3-26.6,6.9-39.7,10.7c-1.4,0.4-3.2,3.2-2.9,4.6
		C3925.6,2934.6,3928.6,2948.9,3931.8,2963.2z"/>
	<path class="st0" d="M3764.8,2866.2c14.6,1,29.1,1.8,43.7,2.9c5.2,0.4,6.4-2,6.3-6.6c-0.3-6.6-0.1-13.3-0.1-19.9l0,0
		c0-7.1,0.3-14.2-0.2-21.2c-0.1-1.7-2.7-4.5-4.4-4.6c-12.1-1.2-24.3-1.6-36.3-2.9c-5.7-0.6-7.9,1.4-8.6,6.9
		c-1.5,13.2-3.2,26.3-5.1,39.4C3759.4,2864.3,3761.1,2865.9,3764.8,2866.2z"/>
	<path class="st0" d="M3699.9,2963.2c3.3-14.2,6.2-28.6,9.6-44.7c-1.2-0.8-2.7-2.7-4.7-3.2c-12.3-3.5-24.8-6.5-37.1-10.1
		c-4.3-1.3-6.1,0-7.3,3.9c-4.2,13.3-8.4,26.6-12.9,39.8c-1.3,3.8-0.1,5.2,3.4,6.1c14.5,3.9,29,8,43.6,11.6
		C3696,2966.9,3699.6,2964.8,3699.9,2963.2z"/>
	<path class="st0" d="M3946.5,3009c2.7,12.2,2.8,12.4,15,9.3c12.1-3.1,24.1-6.5,36.8-10c-5.5-17.5-10.7-33.9-15.9-50.3
		c-14.1,3.7-27.4,7-40.5,10.7c-1.4,0.4-3.1,3.6-2.8,5.2C3941.2,2985.6,3943.9,2997.3,3946.5,3009z"/>
	<path class="st0" d="M3639.4,3009.9c12.6,3.4,25.2,6.6,37.8,10.2c3.9,1.1,5.8,0.2,6.6-3.8c3-14.1,6-28.1,9.2-42.1
		c0.8-3.5-0.2-4.9-3.3-5.8c-13-3.4-26.1-6.8-40.3-10.5c-4.9,15.6-9.7,31-14.6,46.3C3633.5,3008.6,3636.7,3009.1,3639.4,3009.9z"/>
	<path class="st0" d="M3632.3,3002.3c4.5-13.6,8.9-27.4,12.9-41.2c0.4-1.4-0.9-4.5-2.1-5c-12.8-4.9-25.7-9.5-39.3-14.4
		c-6.8,16.3-13.2,31.8-20.2,48.6c15,5.3,29.5,10.5,44.1,15.4C3628.9,3006,3631.8,3003.8,3632.3,3002.3z"/>
	<path class="st0" d="M3757.3,2860.4c1.8-14.2,3.7-28.5,5.8-44.7c-1.1-0.8-2.8-2.9-4.8-3.4c-12.1-2.7-24.2-5-36.3-7.6
		c-4-0.9-6.3,0.1-7.3,4.2c-3.5,13.5-7.1,26.9-10.8,40.3c-1.1,3.8,0,5.8,4,6.5c14.5,2.8,29,5.7,43.5,8.7
		C3755,2865.2,3756.8,2864,3757.3,2860.4z"/>
	<path class="st0" d="M3737.3,2913.6c2.2-14.2,4.5-28.4,6.3-42.7c0.2-1.6-1.7-4.7-3.1-5c-12.5-2.9-25-5.4-38.8-8.3
		c-4.2,15.8-8.5,31.1-12.1,46.6c-0.3,1.3,2.8,4.7,4.8,5.2c12.2,3,24.7,5.3,37,8.1C3735.1,2918.3,3736.8,2917.1,3737.3,2913.6z"/>
	<path class="st0" d="M4245,2776.8c6.2-7.7,12.2-15.6,18.7-23.9c-14.5-10.5-28.3-20.5-42.3-30.7c-10.4,12.9-20.4,25.2-31.1,38.5
		c12.2,11,23.9,21.7,35.9,32.1c1,0.9,4.7,0.3,5.8-0.9C4236.6,2787.1,4240.8,2782,4245,2776.8z"/>
	<path class="st0" d="M4232.2,2871c9.8-9.3,19.2-19,28.8-28.5c2.4-2.4,2.3-4.4-0.3-6.7c-10.7-9.7-21.2-19.5-32-29.1
		c-1.1-0.9-4.4-1-5.4-0.1c-9.9,9.2-19.5,18.6-29.8,28.6c11.7,12.7,22.1,24.2,32.7,35.4C4227.4,2871.8,4231.2,2872,4232.2,2871z"/>
	<path class="st0" d="M4227.4,2876.8c-12.5-13.6-24.1-26.2-35.9-39.1c-8.1,6.9-15.4,13.3-22.9,19.4c-12.2,10-12.3,9.9-2.7,22.6
		c7.3,9.6,14.7,19.2,22.7,29.6C4201.7,2898.3,4214.2,2887.8,4227.4,2876.8z"/>
	<path class="st0" d="M4327.1,2852.7c11.4-14.9,22.3-29,33.6-43.8c-14.1-9.9-27.2-19.2-40.5-28.2c-1-0.7-4.1-0.2-4.9,0.8
		c-9.5,12.2-18.7,24.5-28.5,37.4C4300,2830,4313.2,2841,4327.1,2852.7z"/>
	<path class="st0" d="M4263,2767.3c6,4.2,11.7,8.8,17.5,13.2c6.6,5.1,13.2,10.1,20.6,15.8c9.8-14,19.1-27.2,29.1-41.4
		c-14.6-9.3-28.1-18.1-41.9-26.4c-1.1-0.7-4.8,1-6,2.5c-7,9.4-13.5,19.2-20.4,28.7C4259.6,2762.9,4259.6,2764.9,4263,2767.3z"/>
	<path class="st0" d="M4055.1,2986.3c13.4-5.7,26.5-11.9,41-18.5c-8-15.2-15.2-29.4-22.8-43.3c-0.6-1-3.9-1.6-5.3-1
		c-10.9,4.8-21.6,10.1-32.5,14.9c-3.2,1.4-3.9,3.2-2.6,6.2c5.4,13,10.7,26.2,16.4,39.1C4049.8,2985.2,4053.7,2986.9,4055.1,2986.3z"
		/>
	<path class="st0" d="M4145.1,2940.1c14.3-10.1,27.6-19.4,41.4-29.2c-10.5-13.8-20.2-26.6-30.2-39.3c-0.8-1-4.2-1.2-5.4-0.4
		c-10.5,7-20.8,14.3-31,21.8c-1.2,0.9-2,4.1-1.3,5.3C4127.1,2911.9,4135.8,2925.5,4145.1,2940.1z"/>
	<path class="st0" d="M4072.4,2872.6c-6.7-11.6-6.7-11.5-18.7-5.3c-10.5,5.5-21.2,10.8-32.4,16.5c7.1,16,14.1,31.7,21.6,48.4
		c16.7-8.6,32.7-16.7,49.3-25.2C4085.2,2894.8,4078.8,2883.7,4072.4,2872.6z"/>
	<path class="st0" d="M4004.3,3005.6c14.4-4.8,28.7-10,43.7-15.3c-7-16.8-13.5-32.5-20.2-48.6c-13.6,4.9-26.1,9.3-38.5,14.2
		c-1.5,0.6-3.4,3.7-3,5.1c4.1,14,8.4,28,13.1,41.8C4000,3004.1,4003.2,3006,4004.3,3005.6z"/>
	<path class="st0" d="M4099.8,2901.7c12-7.9,24.1-15.7,36.2-23.5c1.5-1,3.2-1.5,4.8-2.3c-0.6-0.6-1.1-1.2-1.7-1.8
		c-0.4-0.8-0.7-1.6-1.2-2.3c-8.6-11.8-17.1-23.7-25.9-35.3c-0.9-1.2-4.5-1.7-5.8-0.8c-11.3,7-22.3,14.4-33.5,21.6
		c-3.3,2.1-3.2,4.1-1.4,7.1c6.8,11.6,13.6,23.3,20.2,35.1C4093.6,2903.5,4095.8,2904.3,4099.8,2901.7z"/>
	<path class="st0" d="M3540.5,2969.8c11.7,5.3,23.3,10.6,34.9,16.2c4.4,2.1,6.4,0.5,8-3.5c4.9-12.3,10.1-24.5,15.2-36.8
		c0.4-1,0.7-2.1,1.5-4.2c-1.3-1-2.6-2.6-4.3-3.4c-10.3-5-20.8-9.7-31.1-14.8c-3.3-1.6-5.2-1.3-6.9,2c-6.4,12.6-12.9,25.2-19.5,37.7
		C3536.4,2966.5,3537.2,2968.3,3540.5,2969.8z"/>
	<path class="st0" d="M3291.9,2738.1c2.7,4.7,5.8,9.1,9,14c14-8.9,27.3-17.3,40.4-25.9c1.2-0.8,2.2-4,1.5-5.2
		c-6.7-12-13.7-23.7-21-36.3c-14.5,7.5-28.4,14.8-42.4,22c-3.8,2-2.7,4.5-1.2,7.2C3282.7,2721.9,3287.2,2730,3291.9,2738.1z"/>
	<path class="st0" d="M3188.5,2647.2c1.2,3.9,3.5,3.7,6.7,2.5c11.4-4.3,22.9-8.3,34.3-12.5c3-1.1,6-2.4,9-3.6
		c-5.1-16-9.9-31.3-14.9-47.2c-15.6,4.2-30,8.1-44.6,11.9c-3.4,0.9-5.2,2.2-4,6C3179.5,2618.5,3184.1,2632.9,3188.5,2647.2z"/>
	<path class="st0" d="M3252.1,2657.7c16.2-6.7,31.7-13.1,47.9-19.8c-4.9-13.6-9.3-26.3-14.2-38.8c-0.6-1.4-4.2-3-5.9-2.5
		c-13.6,3.9-27.1,8.4-40.6,12.5c-4.2,1.3-4.3,3.7-3,7.1c4.4,11.8,8.6,23.7,13,35.6C3250,2653.7,3251.1,2655.5,3252.1,2657.7z"/>
	<path class="st0" d="M3615.4,1787c1.4,0.4,3.1,0.1,5.2-0.5c15.8-4.5,31.5-8.9,47.5-12.6c2.3-0.5,4-1.3,5.2-2.3
		C3653.7,1775.9,3634.4,1781,3615.4,1787z"/>
	<path class="st0" d="M3200.3,2481.4c-14.3,1-28.7,2.3-43,3.9c-1.5,0.2-4.1,3-3.9,4.3c1.8,15.4,4,30.7,6.4,46
		c0.2,1.3,2.6,3.4,3.7,3.2c15.9-2.5,31.7-5.3,47.9-8c-2.1-16.1-3.9-31.4-6.2-46.7C3205,2482.9,3201.9,2481.3,3200.3,2481.4z"/>
	<path class="st0" d="M3176.8,2595.4c13.9-3.5,27.8-7.4,41.7-11c4-1,4.6-3.1,3.7-6.8c-3.1-13.1-5.7-26.4-8.9-39.5
		c-0.4-1.6-3.2-3.8-4.6-3.6c-14.9,2.3-29.7,4.9-44.4,7.7c-1.4,0.3-2.6,2.1-3.9,3.3c3.9,16.5,7.5,32.3,11.4,47.9
		C3172.1,2594.5,3175.4,2595.8,3176.8,2595.4z"/>
	<path class="st0" d="M3165.2,2309.2c14,2.9,28.2,5.3,44.1,8.1c1.1-1.2,3.7-2.7,4.2-4.7c3.2-13.1,5.9-26.3,9-39.4
		c0.8-3.5,0-5.4-3.6-6.3c-14.1-3.7-28.1-7.7-42.2-11.2c-1.4-0.3-4.6,1.6-5,3c-3.7,15-7.1,30.1-10.1,45.2
		C3161.1,2305.5,3163.5,2308.9,3165.2,2309.2z"/>
	<path class="st0" d="M3253.4,2451.9c-6.6,0.2-13.3,0-19.9,0c0,0.5,0,1,0,1.5c-6.9,0-13.7,0.2-20.6-0.1c-5.5-0.2-6.9,2.2-6.3,7.3
		c1.4,12.5,2.7,25.1,3.6,37.7c0.3,4.3,2.2,5.3,6,4.8c14-1.9,28.1-3.6,42.1-5.8c1.6-0.3,4.1-3.4,4-5.1c-0.8-11.9-2.3-23.8-3.3-35.7
		C3258.7,2452.5,3256.8,2451.8,3253.4,2451.9z"/>
	<path class="st0" d="M3176.6,2230.6c0.3-0.9,0.5-1.7,0.6-2.5c-5,16.4-9.5,33.1-13.2,50c0.2-0.8,0.4-1.6,0.6-2.6
		C3167.9,2260.4,3172.2,2245.4,3176.6,2230.6z"/>
	<path class="st0" d="M3259.6,2351c1.3,0.2,3.9-2.4,4.3-4c2.5-11.9,4.6-23.9,6.5-35.9c0.3-1.7-1.4-5-2.7-5.3
		c-15.6-3.8-31.4-7.2-48.2-10.9c-3,16.7-5.8,32.7-8.7,49.6C3228.1,2346.8,3243.8,2349.1,3259.6,2351z"/>
	<path class="st0" d="M3370.5,2761c-7.2-10.6-14.5-21.2-22.1-31.5c-0.8-1-3.8-1.7-4.9-1c-13.7,8.5-27.3,17.2-41.9,26.6
		c10.1,14.3,19.4,27.6,29.1,41.3c13.9-10.6,26.7-20.4,39.4-30.4C3371.1,2765.2,3371.3,2762.1,3370.5,2761z"/>
	<path class="st0" d="M3267.7,2802.8c0.7,1.1,4.9,1.3,6.3,0.3c11.6-7.7,22.9-16,34.4-23.8c3.9-2.6,3.4-4.7,1.1-8
		c-5.3-7.6-10.3-15.5-15.3-23.4c-2.9-4.6-5.7-9.3-8.7-14.2c-15.4,8.9-30,17.3-45.8,26.5C3249.5,2775.1,3258.4,2789,3267.7,2802.8z"
		/>
	<path class="st0" d="M3475.4,2867.2c-12.1-10.1-23.5-19.6-35.3-29.5c-11.9,13-23.5,25.7-35.8,39c13.1,11,25.6,21.4,38.8,32.5
		C3454.5,2894.6,3464.9,2881,3475.4,2867.2z"/>
	<path class="st0" d="M3371.5,2835.2c-3.1,2.7-3.1,4.9-0.3,7.7c9.3,9.2,18.5,18.4,27.6,27.8c2.6,2.7,4.7,2.6,7.1-0.2
		c9.5-10.5,19.1-20.9,28.7-31.4c0.9-0.9,1.5-2.1,2.2-3.2c-0.6-1-1-1.8-1.6-2.4c-9.1-9.1-18.1-18.2-27.4-27.1
		c-0.9-0.8-4.2-0.3-5.4,0.7C3392,2816.3,3381.9,2825.9,3371.5,2835.2z"/>
	<path class="st0" d="M3539.5,2900.7c8-13.3,15.5-26.8,23.4-40.6c-12.8-8.4-24.8-16.3-36.7-24.4c-3.2-2.2-5-1.3-7,1.5
		c-8.1,11.3-16.4,22.6-24.7,33.9c-1.9,2.6-2.4,4.5,0.7,6.5c12.7,8.1,25.2,16.5,38,24.5C3534.6,2902.9,3538.7,2902,3539.5,2900.7z"/>
	<path class="st0" d="M3551.2,2913c12.2,6.5,24.7,12.5,37.7,19.1c7.4-16.7,14.4-32.3,21.5-48.2c-13.4-6.9-26.2-13.3-38.7-20.3
		c-4.5-2.5-6.5-1.6-8.7,2.6c-5.4,9.9-11.2,19.6-16.8,29.4C3539.8,2906.7,3539.7,2906.9,3551.2,2913z"/>
	<path class="st0" d="M3515.2,2895.4c-12-8.5-23.1-16.5-34.4-24.3c-1.1-0.8-4.3-0.7-5,0.2c-10.1,12.8-20,25.8-30.6,39.7
		c14.1,9.9,27.6,19.3,41.5,29.1C3496.6,2924.5,3505.8,2910.1,3515.2,2895.4z"/>
	<path class="st0" d="M3477.8,2798.8c-12.1-12.1-23.2-23.4-34.9-35.2c-12,10.8-24.4,22-38.3,34.5c13.3,13.2,25.9,25.8,39,38.8
		C3456,2823.1,3467.3,2810.5,3477.8,2798.8z"/>
	<path class="st0" d="M4364.9,2802c8-12.5,15.9-25,24-37.4c2.1-3.3,1.8-5.5-1.9-7.4c-6.6-3.6-13-7.5-19.6-11.3c-7-4-14.1-8-21.2-12
		c-9.2,14.4-17.8,28-26.9,42.4c13.5,9.4,26.4,18.4,39.2,27.4C4361.6,2806,4363.3,2804.5,4364.9,2802z"/>
	<path class="st0" d="M3345.6,2817.5c-5.3-6.1-10.7-12.2-15.8-18.5c-5.2-6.5-10.1-13.3-15.4-20.4c-14.5,10.2-28.5,20-43.3,30.3
		c11.5,14.9,22.3,29,33.9,44.1C3319.1,2840.6,3332.3,2829.1,3345.6,2817.5z"/>
	<path class="st0" d="M3406.6,2792.3c7-6.5,14.1-12.8,21.2-19.2c4.5-4.1,9-8.3,13.7-12.6c-10.6-13.1-20.7-25.6-31.1-38.4
		c-14.1,10.3-27.7,20.2-42.7,31c11.2,13.5,21.7,26.3,32.2,39.1C3402.3,2795.1,3404.2,2794.5,3406.6,2792.3z"/>
	<path class="st0" d="M3317.3,2683.5c1.2-0.6,2.3-3.5,1.8-4.6c-5.7-12.6-11.8-25.1-18.1-38.3c-16,6.6-31.7,13.1-48.7,20.1
		c7.4,15.7,14.3,30.3,21.4,45.6C3289.1,2698.3,3303.3,2691,3317.3,2683.5z"/>
	<path class="st0" d="M4049.1,3049.2c15.4-6,30.7-12.4,47.1-19.1c-5.6-12.2-10.7-23.2-15.8-34.3c-6.4-14-6.4-14-20.3-8.2
		c-0.6,0.3-1.3,0.4-1.9,0.7c-10.3,4.3-20.7,8.6-31.5,13.1c5.7,15.6,11.1,30.6,16.8,45.4C4044.1,3048.3,4047.7,3049.8,4049.1,3049.2z
		"/>
	<path class="st0" d="M4203,2967c10.1-7.2,19.9-14.8,29.7-22.3c3.2-2.5,6.2-5.4,9.7-8.4c-11.5-13.6-22.4-26.6-33.4-39.7
		c-13.6,10.5-26.5,20.4-40,30.7c9.5,13.6,18.6,26.9,28.1,39.9C4197.8,2968.2,4201.6,2968,4203,2967z"/>
	<path class="st0" d="M4282.2,2900.5c1.1-1,1.5-4.5,0.7-5.4c-11.1-11.6-22.5-23-34.2-34.7c-12.3,11.1-23.7,21.2-34.7,31.7
		c-1,0.9-0.9,4.5,0.1,5.9c4.5,6,9.5,11.6,14.4,17.4c5.4,6.4,10.7,12.7,16.7,19.8C4258.1,2923.1,4270.3,2911.9,4282.2,2900.5z"/>
	<path class="st0" d="M4325,2854.9c-14.6-12.3-28.3-23.7-42.5-35.6c5.5-7,11-13.8,16.8-21.1c-14.4-11-28-21.5-41.9-32.1
		c-10.1,12.1-19.7,23.5-29.5,35.3c11.4,10.5,22.2,20.6,33.3,30.4c2.4,2.1,5.9,3,9.4,4.8c-5.7,6.2-12.5,13.6-18.8,20.4
		c12.5,12.6,24.5,24.6,37.1,37.3C4300.6,2881.6,4312.6,2868.5,4325,2854.9z"/>
	<path class="st0" d="M3995.8,3066.6c6.1-1.9,12.4-3.5,18.5-5.5c9.2-3,18.2-6.2,27.8-9.5c-6.1-16.8-11.8-32.5-17.7-48.9
		c-15.4,4.7-30,9-44.5,13.9c-1.3,0.4-2.6,4.2-2.1,6c3.2,13.3,7.1,26.5,10.4,39.8C3989.3,3067.4,3991.7,3067.9,3995.8,3066.6z"/>
	<path class="st0" d="M3932.2,3076.9c0.3,1.6,2.3,2.9,3.5,4.4c16.7-3.9,32.4-7.5,48-11.5c1.1-0.3,2.3-3.6,1.9-5.1
		c-3.5-13.9-7.5-27.8-11.1-41.7c-1-4-3.2-4.6-6.8-3.8c-12.9,3-25.8,6-38.8,8.7c-3.5,0.7-5.1,2.3-4.4,5.9
		C3927.1,3048.2,3929.5,3062.6,3932.2,3076.9z"/>
	<path class="st0" d="M4438.9,2660c1.5-3.6,0.8-5.7-3-7.1c-13.4-4.7-26.6-9.7-40-14.4c-1.5-0.5-4.9,0.3-5.3,1.4
		c-6.1,14.2-11.8,28.5-17.9,43.6c15.7,7.3,31,14.5,46.3,21.6c1.9-2.1,3.2-3.7,4.6-5.2c0.1,0.8,0,1.5,0,2.2c3.6-8,7.1-16,10.5-24.1
		c-0.5-0.2-1.1-0.4-1.6-0.7C4434.6,2671.6,4436.6,2665.8,4438.9,2660z"/>
	<path class="st0" d="M3871.8,2860.3c-1.9-13.6-3.7-27.1-5.3-40.7c-0.6-4.7-2.8-6.2-7.5-5.8c-12.3,1.1-24.7,1.9-37,2.6
		c-3.9,0.2-4.9,2-4.9,5.4c0.1,6.9,0,13.7,0,20.6c0,7.1,0.1,14.1,0,21.2c-0.1,3.9,1.3,5.7,5.4,5.5c15-1,30-1.9,44.9-2.9
		C3871,2865.9,3872.3,2864,3871.8,2860.3z"/>
	<path class="st0" d="M3843.1,2919c0.2,4.5,2.6,5.1,6.1,4.7c11.9-1.3,23.7-3,35.6-3.6c7-0.4,7.9-3.4,6.8-9.3
		c-2.3-12.6-4.4-25.2-6.1-38c-0.7-5.2-3-6.1-7.5-5.6c-9.4,1.2-18.9,2.3-28.3,3.4c-9,1.1-9,1.1-8.9,10
		C3841.6,2893.4,3842.5,2906.2,3843.1,2919z"/>
	<path class="st0" d="M3879.5,2976.6c16.4-2.2,32.7-4.8,50.5-7.5c-3.7-17.4-7-33.4-10.7-49.3c-0.3-1.1-3.6-2.3-5.3-2.1
		c-13.3,1.9-26.6,4.1-39.9,6.5c-1.6,0.3-4.1,3-4,4.4c1.3,14.7,2.8,29.5,4.7,44.1C3875.1,2974.3,3878.1,2976.8,3879.5,2976.6z"/>
	<path class="st0" d="M4481.2,2364.9c-0.1-0.8-0.1-1.5-0.2-2.3C4481.1,2363.4,4481.2,2364.2,4481.2,2364.9z"/>
	<path class="st0" d="M3756.8,3036.2c-15-2.2-30.1-4.1-46.1-6.2c-2.9,17-5.9,33.8-9,51.9c17.4,2.3,33.3,4.5,49.3,6.3
		c1.7,0.2,5.1-2.2,5.3-3.6c1.7-14.7,2.9-29.4,3.9-44.2C3760.4,3039,3758.2,3036.4,3756.8,3036.2z"/>
	<path class="st0" d="M3417.3,2627.2c-5.6-12.8-10.8-24.5-15.7-36.3c-1.6-3.9-4-3.4-6.9-2.3c-9.1,3.5-18.1,7-27.2,10.5
		c-5.5,2.1-10.9,4.3-17.3,6.8c6.8,15.4,13.3,29.8,20.1,45.3C3386.9,2642.8,3402.1,2635,3417.3,2627.2z"/>
	<path class="st0" d="M3148,2411c0,1,0,2.1-0.1,3.1C3148,2413.1,3148,2412.1,3148,2411z"/>
	<path class="st0" d="M4483.4,2398.6c0-0.3,0-0.6,0-0.9C4483.3,2398,4483.3,2398.3,4483.4,2398.6z"/>
	<path class="st0" d="M3851.4,3090.5c5.3-0.3,10.6-0.5,15.9-0.8c3.4-0.2,5.3-1.6,5-5.4c-1.4-15.6-2.7-31.3-4.1-46.7
		c-8,0-15.4-0.1-22.8,0c-7.3,0.1-14.6,0.9-21.9,0.7c-4.9-0.1-6.7,1.5-6.6,6.5c0.3,12.6,0.1,25.3,0.1,37.9c0,2.4,0,4.8,0,7.1
		c-0.6,0-1.1,0.1-1.7,0.1c-0.1-2.2-0.4-4.3-0.4-6.5c0-13.1,0-26.2,0-39.2c0-3,0.1-5.8-4.3-5.8c-15.3,0.1-30.5,0-46.8,0
		c-0.7,7.5-1.7,16.7-2.5,25.8c-0.6,6.4-0.9,12.8-1.6,19.2c-0.5,4.3,1.3,6.1,5.5,6.2c5.1,0.1,10.1,0.4,15.2,1.1
		c-1.7,0.1-3.3,0.2-5,0.3c13.4,0.8,27,1.2,40.6,1.2c14.6,0,29.2-0.5,43.6-1.4C3856.8,3090.9,3854.1,3090.7,3851.4,3090.5z"/>
	<path class="st0" d="M3795.9,2923.8c13.3,0.3,26.5,0.4,39.8,0c1.5,0,4.3-3.2,4.2-4.8c-0.4-14.4-1.4-28.7-2.1-43.1
		c-0.2-3.4-1.6-4.6-5-4.4c-5.5,0.3-11.1,0.1-16.6,0.1c-5.8,0-11.5-0.3-17.3,0.2c-1.8,0.1-4.7,2.1-4.8,3.4
		c-1.1,14.8-1.9,29.6-2.4,44.4C3791.8,2920.9,3794.4,2923.7,3795.9,2923.8z"/>
	<path class="st0" d="M3152.9,2341.8c-2.6,21-4.2,42.2-4.8,63.7C3148.8,2384.3,3150.3,2363,3152.9,2341.8z"/>
	<path class="st0" d="M4475.8,2426.8c-10.4,0.2-20.8,0.1-31.3,0c-2.1,0-4.2-0.2-6.2-0.3c2.1-1.7,4.2-1.9,6.3-1.9
		c10.2,0,20.4-0.2,30.6,0c4.4,0.1,6.5-1.1,6.3-6c-0.7-14.6-1.1-29.2-1.6-43.9c-0.1-4.3-2.1-5.8-6.3-5.4c-13.7,1.3-27.3,2.5-41,3.6
		c-4.3,0.3-5.7,2-5.4,6.3c0.6,8.2,0.9,16.4,1.2,24.6c0.1,2.1-0.4,4.3-0.6,6.4c-0.6,0-1.1-0.1-1.7-0.1c-0.2-1.9,0.1-4.1-0.7-5.7
		c-0.8-1.5-2.7-3.6-4.1-3.5c-14.6,0.4-29.2,1.1-43.8,2.1c-1.6,0.1-4.1,2.7-4.2,4.2c-0.3,12.2-0.4,24.4,0,36.6
		c0.1,1.6,2.8,4.5,4.5,4.6c14.1,1,28.3,1.4,42.5,2c3.6,0.2,5.3-1.2,5.3-5c0-3.2,0.3-6.3,0.5-9.5c0.8,0,1.7,0,2.5,0.1
		c0,2.3,0.1,4.7,0,7c-0.4,9.7-0.7,19.5-1.3,29.2c-0.2,3.7,0.6,5.8,4.8,6.1c13.9,1.1,27.8,2.3,41.7,3.7c4.4,0.4,6.1-1.4,6.2-5.6
		c0.5-14.6,0.9-29.2,1.6-43.9C4481.7,2428.3,4480.1,2426.7,4475.8,2426.8z"/>
	<path class="st0" d="M4481.4,2367.5c0.4,5,0.8,10,1.1,15C4482.2,2377.5,4481.9,2372.5,4481.4,2367.5z"/>
	<path class="st0" d="M4482.6,2382.7c0.2,2.7,0.3,5.3,0.4,8C4482.9,2388,4482.7,2385.3,4482.6,2382.7z"/>
	<path class="st0" d="M3757.3,2971.5c1.4-13.9,2.8-27.8,4.3-41.9c0.8-3.7-1-5.2-4.9-5.7c-12.9-1.9-25.8-4-38.7-6.3
		c-3.9-0.7-5.6,0.6-6.4,4.5c-2.7,13.7-5.6,27.3-8.7,40.9c-1.1,4.5,0.7,6,4.6,6.7c14.4,2.3,28.8,4.6,43.3,7
		C3755.2,2977.5,3756.9,2975.5,3757.3,2971.5z"/>
	<path class="st0" d="M4379.3,2399.4c11-0.7,22.1-1,33.2-1.3c13.8-0.4,13.7,1.1,12.3-13.7c-1.1-10.1-2.5-20.2-3.1-30.4
		c-0.3-5.3-2.6-6.3-7.1-5.7c-13.6,1.9-27.2,3.7-40.8,5.4c-3.6,0.5-4.8,2.1-4.4,5.8c1.3,11.2,2.6,22.4,3.3,33.7
		C4372.9,2398,4374.3,2399.8,4379.3,2399.4z"/>
	<path class="st0" d="M4472,2535.8c2.4-15.3,4.6-30.6,6.4-46c0.2-1.4-2.3-4.3-3.8-4.5c-14.3-1.6-28.6-2.9-43-3.9
		c-1.7-0.1-4.9,1.8-5.1,3.2c-2.2,15.1-4,30.2-6.1,46.2c16.1,2.8,31.6,5.6,47.1,8C4468.8,2539,4471.8,2537,4472,2535.8z"/>
	<path class="st0" d="M3788.7,2918.2c0.5-12.4,1.4-24.7,2.2-37.1c0.4-0.2,0.8-0.4,1.2-0.6c-1.4-3.2-2.4-8.8-4.4-9.1
		c-11.9-2.1-24.1-3.2-36.2-4.1c-1.6-0.1-4.6,2.2-4.8,3.7c-2.6,14.3-4.8,28.7-6.7,43.2c-0.2,1.6,2.3,5,3.8,5.2
		c12.9,1.8,25.9,2.9,38.8,4.4C3787,2924.2,3788.5,2922.5,3788.7,2918.2z"/>
	<path class="st0" d="M4432,2370.1c14.1-1.3,28.2-2.7,42.3-3.8c3.6-0.3,4.6-2.1,4.1-5.2c-2.1-16-4.2-32-6.5-49.5
		c-18,3.1-34.6,6-51.4,8.9c0,1.8-0.1,2.9,0,4c1.8,13.8,3.9,27.6,5.5,41.5C4426.6,2370.2,4429,2370.4,4432,2370.1z"/>
	<path class="st0" d="M4454.8,2229c3.9,14,7.5,28,11.4,42c-3.4-14.3-7.2-28.4-11.5-42.4C4454.7,2228.7,4454.7,2228.8,4454.8,2229z"
		/>
	<path class="st0" d="M4330.8,2640.5c-6.4,13.3-12.4,25.7-18,38.1c-0.5,1.1,0.4,4.1,1.5,4.7c13.4,7.2,27,14.3,40.7,21.1
		c1,0.5,3.8-0.3,4.2-1.3c6.8-13.8,13.4-27.8,20.3-42.4C4362.6,2653.7,4346.9,2647.2,4330.8,2640.5z"/>
	<path class="st0" d="M4395.9,2613.9c0.4-1.1-1.7-4.1-3.1-4.6c-13.6-4.6-27.4-8.9-41.2-13c-1.5-0.5-4.8,0.5-5.3,1.7
		c-5,13-9.6,26.1-14.6,39.8c16,6.7,31.7,13.2,48.7,20.2C4385.8,2643,4391.1,2628.5,4395.9,2613.9z"/>
	<path class="st0" d="M3156.2,2365.9c15,1.6,30,3,45,4c1.3,0.1,3.9-2.1,4.1-3.5c2.2-14.9,4-29.8,6.1-45.9c-16.1-2.8-31.8-5.6-47.5-8
		c-1.2-0.2-4,2-4.2,3.4c-2.4,15.1-4.5,30.2-6.4,45.3C3153.2,2362.7,3155.1,2365.8,3156.2,2365.9z"/>
	<path class="st0" d="M4443.2,2647c4.8-14,9.1-28.2,13.6-42.3c1.1-3.4,0.1-5.4-3.6-6.3c-13.7-3.6-27.3-7.4-41.1-10.8
		c-1.5-0.4-4.8,1.2-5.2,2.6c-4.7,14.2-9,28.6-13.6,43.8c15.2,5.5,29.9,11,44.8,16.1C4439.4,2650.4,4442.7,2648.5,4443.2,2647z"/>
	<path class="st0" d="M4470.3,2547.4c0.3-1.5-2.1-5-3.7-5.3c-13.9-2.8-27.9-5.1-41.8-7.6c-3.6-0.6-5.8,0.2-6.6,4.3
		c-2.7,13-5.5,26-8.6,38.9c-1.1,4.5,0.5,5.9,4.4,6.9c11.8,3,23.5,6.3,35.3,9.4c3.1,0.8,6.3,1.6,10.6,2.6
		C4463.5,2579.8,4467.2,2563.6,4470.3,2547.4z"/>
	<path class="st0" d="M4419.8,2453.4c-11.7,0.2-23.4,0.1-35.1,0.1c0-0.5,0-1,0-1.5c-2.2,0-4.4,0.2-6.6,0c-3.6-0.3-5.1,1-5.4,4.8
		c-1,11.9-2.4,23.7-3.2,35.6c-0.1,1.6,2,4.7,3.4,4.9c14.4,2.2,28.9,4,43.3,5.9c3.1,0.4,5-0.5,5.3-4.1c1.1-13.2,2.4-26.4,3.8-39.6
		C4425.6,2455.3,4424.3,2453.3,4419.8,2453.4z"/>
	<path class="st0" d="M3588.6,3045.9c5.2-13.4,10.1-26.9,14.8-40.5c0.5-1.5-0.8-4.8-2.1-5.4c-12.9-5.7-26-11.2-39.2-16.3
		c-1.5-0.6-5,0.6-5.6,1.9c-7,14.3-13.6,28.8-20.9,44.6c16.5,6.7,32,13.2,47.6,19.2C3584.4,3049.8,3588,3047.6,3588.6,3045.9z"/>
	<path class="st0" d="M3594.2,3053.1c14.2,4.9,28.5,9.4,42.9,13.6c1.6,0.5,5.5-1.3,5.9-2.7c4.2-14.2,7.9-28.5,12.2-44.3
		c-1-0.9-2.4-2.8-4.1-3.4c-13-4.3-26.1-8.4-39.2-12.2c-1.5-0.4-4.8,0.9-5.3,2.2c-5.3,13.6-10.3,27.3-14.9,41.1
		C3591.1,3048.8,3592.8,3052.6,3594.2,3053.1z"/>
	<path class="st0" d="M3699.8,3076.2c2.8-14.1,5-28.3,7.6-42.4c0.7-3.7-0.7-5.1-4.2-5.8c-12.8-2.7-25.5-5.3-38.2-8.5
		c-5.2-1.3-7.1,0.3-8.3,5.1c-2.7,11.2-5.9,22.2-8.8,33.3c-0.9,3.6-1.8,7.1-3,11.8c17.1,3.7,33.5,7.4,49.9,10.5
		C3696.1,3080.5,3699.4,3077.9,3699.8,3076.2z"/>
	<path class="st0" d="M3153.9,2333.8c-0.1,0.7-0.2,1.3-0.3,2C3153.8,2335.1,3153.9,2334.4,3153.9,2333.8z"/>
	<path class="st0" d="M4419.2,2708.4c-16.6-7.8-32.2-15-48.1-22.4c-7.9,15.2-15.5,29.9-23.5,45.2c15.2,8.8,30.1,17.4,45.9,26.5
		C4402.2,2741.1,4410.5,2725.1,4419.2,2708.4z"/>
	<path class="st0" d="M3735.4,3025.5c1.9-14.2,4-28.5,6-42.7c0.5-3.2-0.5-4.8-4-5.4c-12.2-2-24.3-4.5-36.6-6.3
		c-1.6-0.2-4.7,1.7-5.1,3.2c-3.7,15.4-7,31-10.7,47.8c15.9,2.7,30.7,5.3,45.4,7.8C3734.1,3030.6,3735,3028.7,3735.4,3025.5z"/>
	<path class="st0" d="M3462.8,2927.3c-13.5-10.4-26.4-20.3-40-30.8c-11.3,13.5-22.2,26.5-33.7,40.3c14.8,11.4,29,22.2,43.7,33.5
		C3443.1,2955.5,3452.8,2941.6,3462.8,2927.3z"/>
	<path class="st0" d="M3209.3,2701.5c9.5,18.5,19,37,28.9,56.3c15.8-9.2,30.7-17.8,46-26.6c-7.9-15.2-15.5-29.8-23.2-44.7
		c-2.1,0.5-4,1-5.8,1.4c5.7-4.7,2.2-9.2,0.2-13.8c-4.4-10.4-8.8-20.8-12.7-31.4c-1.7-4.6-3.8-5.6-8.4-3.8
		c-12.4,4.8-24.9,9.4-37.5,13.6c-4.8,1.6-5.6,3.9-3.7,8.4c3,7,5.4,14.1,8.1,21.2c-0.5,0.2-1,0.4-1.6,0.6c3,7.2,6.2,14.4,9.5,21.5
		C3209.1,2703.4,3209.1,2702.5,3209.3,2701.5z"/>
	<path class="st0" d="M3346.4,2892.8c11.6-11.2,23.1-22.5,35-34.2c-8-8.6-15.3-16.5-22.7-24.4c0.5-0.5,1-1,1.5-1.4
		c1.7,1.2,3.4,2.4,5.4,3.8c12.9-11.9,25.5-23.5,38.2-35.2c-10.2-12.1-19.7-23.4-29.6-35.2c-14,10.7-27.6,21.2-41.6,31.9
		c2.4,3.2,4.4,5.8,6.2,8.5c2.3,3.6,4.5,7.3,6.7,10.9c1.3,0.9,2.7,1.8,3.3,2.2c-14,11.6-27.6,23-42.3,35.2
		c12.1,13,23.7,25.5,35.4,37.8C3342.7,2893.5,3345.6,2893.6,3346.4,2892.8z"/>
	<path class="st0" d="M3386.6,2935.1c11.2-13.4,21.6-25.7,31.8-38.2c0.7-0.9,0.6-3.7-0.2-4.4c-11.4-10.7-23.1-21.1-35.3-32.2
		c-11.6,11.8-22.9,23.2-34,34.8c-0.8,0.9-0.4,4.4,0.7,5.4C3361.5,2911.9,3373.7,2923.1,3386.6,2935.1z"/>
	<path class="st0" d="M3873.9,3071.5c1,17.4,0.9,17.6,18,15.5c12.4-1.5,24.8-3.4,38.1-5.2c-3.2-18-6.1-34.8-9.1-51.8
		c-15.4,2.1-29.7,4.3-44.2,5.8c-4.9,0.5-5.9,2.4-5.5,6.7C3872.3,3052.1,3873.4,3061.8,3873.9,3071.5z"/>
	<path class="st0" d="M3424.5,1814.6c-2.4,1.5-4.9,2.9-7.3,4.4c8.4,12.7,16,24.4,23.7,36s7.7,11.6,19.9,4.2c4.3-2.6,8.7-5.3,13-7.9
		c6.8-4,13.6-8,21.1-12.4c-0.1-0.1-0.1-0.2-0.2-0.3c-9.9,5.4-19.6,11.1-29.2,17L3424.5,1814.6z"/>
	<path class="st0" d="M3360.1,1842c8.9,11.4,6.5,9.3,16.4,2.1c12-8.6,23.9-17.3,36.3-26.3c-9.1-13.9-18.1-27.5-27.4-41.5l-43.1,43.1
		C3348.4,1827,3354.2,1834.5,3360.1,1842z"/>
	<path class="st0" d="M3322.4,1888.8c14.5-12.4,28.2-24.1,42.2-36.1c-8.2-10.5-16.2-20.7-24.4-31.1l-41.5,41.5
		C3306.6,1871.8,3314.5,1880.3,3322.4,1888.8z"/>
	<path class="st0" d="M3643.6,1788.6c-1-3.9-2.9-5.2-6.6-4.1c-14.3,4.5-28.7,8.9-42.9,13.8c-1.4,0.5-3.3,3.9-2.8,5.2
		c5.1,15,10.6,29.9,16.2,45c15.2-4.6,29.4-9,43.5-13.2c3.4-1,4.5-2.7,3.5-6.4C3650.7,1815.5,3647.1,1802.1,3643.6,1788.6z"/>
	<path class="st0" d="M3201.7,2168.5c-2.9,7.3-5.5,14.7-8.6,22c-1.9,4.5-0.9,6.7,3.8,8.3c12.8,4.4,25.5,9,38.1,13.8
		c4.2,1.6,6,0.3,7.5-3.5c4.8-12.1,9.7-24.2,15-36.2c1.8-4.1,0.8-5.8-3.1-7.6c-12.3-5.5-24.5-11.4-36.8-17.1
		c-1.7-0.8-3.6-1.3-5.4-1.9c-2.2,4-4.1,7.4-6,10.9c-0.6-3.1-0.1-5.7,1-8c5.9-12.2,11.7-24.4,17.9-36.3c0.5-0.9,0.8-1.7,1-2.5
		c-11.3,21.2-21.6,43.2-30.6,65.7c1.2-2.9,2.5-5.8,3.7-8.8C3200,2167.8,3200.9,2168.1,3201.7,2168.5z"/>
	<path class="st0" d="M3207,2025.2c-14.1-9.3-27.8-18.3-42.5-28l-9.2,9.2l39.4,39.4C3198.8,2039,3202.9,2032.1,3207,2025.2z"/>
	<path class="st0" d="M3815.4,1874.5c-1.5-0.8-3.8-3-6-2.9c-15,0.4-30.1,1.2-45.1,2.3c-1.6,0.1-4.4,3.4-4.2,5
		c1.1,13.9,2.8,27.7,4.2,41.6c0.4,4.4,2.4,5.9,6.9,5.6c12.4-0.9,24.7-1.7,37.1-2.1c4.9-0.2,6.7-1.9,6.4-6.8
		c-0.3-5.3-0.1-10.7-0.1-16c1,0,1.9,0,2.9,0c0,5.2,0.2,10.3-0.1,15.4c-0.2,5,1.5,7.1,6.8,7.3c11.7,0.3,23.5,0.9,35.1,2.1
		c5.9,0.6,7.9-1.5,8.4-7c1.2-13,2.6-26,4.1-38.9c0.5-4.2-0.9-6.3-5.2-6.5c-14.1-0.7-28.3-1.6-42.4-2
		C3821.5,1871.5,3818.7,1873.3,3815.4,1874.5z"/>
	<path class="st0" d="M3889,1820.1c-12.6-1.2-25.1-2.6-37.7-3.9c-3.8,0-7.7-0.7-7.8,5.3c-0.3,14-0.9,27.9-1.5,41.8
		c-0.1,3.5,0.8,5.2,4.7,5.5c11.9,0.9,23.8,2.4,35.7,3.2c1.6,0.1,4.7-2,4.9-3.4c2.2-14.4,4-28.9,5.9-43.4
		C3893.7,1821.9,3892.5,1820.4,3889,1820.1z"/>
	<path class="st0" d="M3685.1,1829.2c3.6,16.3,7,31.2,10,46.1c1,5.1,3.2,5.7,7.8,4.7c9.1-2,18.2-3.4,27.4-4.9
		c11.3-1.8,11.4-1.8,10-13.3c-1.7-13.3-3.5-26.6-5.5-41.2C3718,1823.5,3702,1826.3,3685.1,1829.2z"/>
	<path class="st0" d="M3678.8,1831.1c-13.7,3.3-27.4,7-40.9,11c-1.3,0.4-3.2,3.4-2.8,4.6c4.5,15.4,9.4,30.7,14.4,46.6
		c14.3-3.7,27.6-7.1,40.7-10.8c1.3-0.4,3.2-3.2,2.9-4.5c-2.9-14.5-6.1-29-9.5-43.3C3683.1,1833.2,3680.1,1830.8,3678.8,1831.1z"/>
	<path class="st0" d="M3224.3,2292.7c14.2,3.4,28.4,6.5,42.7,9.6c3.5,0.8,5.3-0.6,6.2-4.1c3.2-12.6,6.5-25.2,10.1-38.9
		c-15.6-4.9-30.7-9.8-46-14.3c-1.3-0.4-4.4,1.7-4.9,3.2c-3.9,13.1-7.4,26.4-10.8,39.7C3221.4,2289.3,3223.1,2292.4,3224.3,2292.7z"
		/>
	<path class="st0" d="M3292.1,2594.1c13.9-4.2,27.8-8.7,41.6-13.5c1.5-0.5,3.2-4.2,2.8-5.9c-3.1-12.9-6.6-25.7-10.2-38.4
		c-0.5-1.7-2.1-3.2-3-4.4c-16,3.4-31,6.5-45.8,9.9c-1.2,0.3-2.9,3.4-2.6,4.8c3.8,15,7.8,29.9,12.1,44.8
		C3287.4,2592.8,3290.7,2594.6,3292.1,2594.1z"/>
	<path class="st0" d="M3233.3,2607.8c13-4.1,24.3-7.7,35.7-11.3c14.5-4.6,14.5-4.6,10.5-19.3c-2.6-9.5-5.1-19.1-7.8-29.2
		c-16.3,3.6-31.8,6.9-47.3,10.6c-1.2,0.3-3,2.9-2.8,4C3225.2,2577.4,3229.2,2592.1,3233.3,2607.8z"/>
	<path class="st0" d="M3370.5,2747.2c8.3-5.5,16.3-11.5,24.3-17.4c4.6-3.3,9.1-6.7,13.7-10.2c-9.1-14-17.7-27.3-26.9-41.5
		c-15.2,8.8-29.9,17.3-45.6,26.4c9.7,14.6,18.7,28.5,28.1,42.1C3365,2747.9,3369.1,2748.2,3370.5,2747.2z"/>
	<path class="st0" d="M3331.7,2695.4c2.4,4.9,5,5.1,9.3,2.5c9.5-5.7,19.1-11.1,28.7-16.7c3.4-2,6.6-4,9.9-6
		c-7.5-14.8-14.7-28.7-22.2-43.4c-15.5,6.9-31,13.8-46.6,20.8c0.6,1.9,0.8,3.2,1.3,4.4C3318.7,2669.8,3325.4,2682.5,3331.7,2695.4z"
		/>
	<path class="st0" d="M3259.4,2500.3c-14.7,1.8-29.4,3.9-44,6.2c-1.5,0.2-3.7,3.2-3.5,4.6c2.2,14.8,4.9,29.6,7.6,45.4
		c16.9-3.7,32.5-7.1,47.9-10.8c1.4-0.3,3.3-3.5,3.1-5.1c-1.9-12.5-4.2-24.9-6.7-37.2C3263.5,2502.1,3260.8,2500.1,3259.4,2500.3z"/>
	<path class="st0" d="M3263.4,2476c0.2,5.1,2.3,6.5,7,5.9c13.2-1.5,26.4-2.9,39.6-4.1c4.5-0.4,6.6-2.1,6.3-7.1
		c-0.9-12.8-1.4-25.7-1.8-38.5c-0.1-4.1-1.7-5.5-5.6-5.4c-7.1,0.2-14.2,0-21.3,0l0,0c-6.9,0-13.8,0.2-20.6-0.1
		c-4.6-0.2-6.3,1.4-6,6.2C3262.1,2447.2,3262.9,2461.6,3263.4,2476z"/>
	<path class="st0" d="M3270.1,2366.9c13.9,1.4,27.7,2.9,42.2,4.5c3.5,1.1,4.7-1.1,5.3-4.9c1.9-12.9,4-25.8,6.2-38.6
		c0.6-3.8-0.3-5.6-4.4-6.4c-13.7-2.7-27.3-5.6-40.9-8.7c-4.4-1-6,0.5-6.7,4.6c-2.3,14.4-4.6,28.8-7,43.2
		C3264.2,2365,3266.1,2366.5,3270.1,2366.9z"/>
	<path class="st0" d="M3896.5,1826c-2.3,14.2-4.3,28.4-6,42.7c-0.2,1.6,1.9,4.6,3.3,4.9c12.3,2.6,24.7,4.7,37.2,6.7
		c1.5,0.2,4.5-1.4,4.8-2.7c3.7-15.7,7.1-31.4,10.9-48.4c-15.9-2.7-31-5.3-46.2-7.6C3899.4,1821.4,3896.8,1824.3,3896.5,1826z"/>
	<path class="st0" d="M3261.1,2419c-0.3,4.5,1.6,5.8,5.8,5.7c6.9-0.2,13.7-0.1,20.6-0.1c7.1,0,14.2-0.1,21.3,0
		c3.7,0.1,5.7-1,5.8-5.2c0.4-13.1,1-26.1,1.7-39.1c0.2-4.1-1.1-6.2-5.3-6.7c-13.7-1.3-27.3-2.7-40.9-4.2c-4.6-0.5-6.4,1.2-6.6,5.8
		C3262.8,2389.8,3262.1,2404.4,3261.1,2419z"/>
	<path class="st0" d="M3178,2252.7c14,4,28.1,7.7,42.3,11.2c1.3,0.3,4-1,4.4-2.1c4.7-14.5,9.1-29,13.8-44.4
		c-15.1-5.5-29.6-10.9-44.2-15.9c-1.4-0.5-4.9,1.1-5.4,2.4c-4.9,14.4-9.6,29-13.9,43.6C3174.6,2248.9,3176.6,2252.3,3178,2252.7z"/>
	<path class="st0" d="M3307.4,2645.4c0.5,1.3,4.1,2.8,5.4,2.2c13.3-5.6,26.4-11.4,39.4-17.6c1.4-0.7,2.9-4,2.4-5.5
		c-4.5-12.7-9.4-25.3-14.4-37.8c-0.6-1.5-2.1-2.6-2.9-3.5c-1.8,0.4-2.5,0.5-3.1,0.7c-13.5,4.4-26.9,8.9-40.4,13.2
		c-3.3,1.1-4,3-2.7,6.1C3296.5,2617.4,3301.8,2631.5,3307.4,2645.4z"/>
	<path class="st0" d="M4063,2718.2c-6.7-8.2-13.6-16.3-20.5-24.4c-13.1,11.1-27.1,21.2-41.7,30.2c2.8,4.6,5.7,9.2,8.6,13.9
		c3.4,5.6,6.9,11.1,11.2,17.9c14.6-11,28.5-21.2,42.1-31.8C4063.7,2723.2,4063.9,2719.3,4063,2718.2z"/>
	<path class="st0" d="M3595,2804.3c7.4-12.1,14.5-24.4,21.3-36.8c0.8-1.4,0.2-5.1-1.1-6c-10.7-7.5-21.6-14.8-32.6-21.8
		c-1.3-0.8-4.7-0.6-5.5,0.5c-9.8,12.3-19.3,24.8-29.9,38.6c14.7,9.6,28.3,18.6,42.2,27.3C3590.5,2806.8,3594.2,2805.7,3595,2804.3z"
		/>
	<path class="st0" d="M3969.9,2781.3c6-2.3,11.8-5,17.5-7.9c9.9-5.1,19.6-10.6,29.9-16.1c-6.7-11-13-21.4-19.3-31.5
		c-14.8,8.9-30.3,16.8-46.4,23.6c4.2,10.1,8.4,20.2,12.8,30.2C3964.9,2780.7,3968.4,2781.8,3969.9,2781.3z"/>
	<path class="st0" d="M4043.8,2805.7c12.2-8.1,24.3-16.3,36.5-24.4c3.8-2.5,2.6-4.9,0.5-7.7c-8.3-10.7-16.6-21.3-24.7-32.2
		c-2.6-3.5-4.9-3.4-8.2-1c-9.8,6.8-19.7,13.5-29.8,20c-3.5,2.2-4.5,4.2-2.3,8c7,11.8,13.8,23.8,20.7,35.6c0.8,1.4,2.1,2.5,3.2,3.7
		C4041.4,2806.8,4042.7,2806.4,4043.8,2805.7z"/>
	<path class="st0" d="M3991.7,2832.9c10.7-5.3,21.5-10.4,32.2-15.7c4.1-2,8-4.4,12.6-6.9c-9-15.6-17.6-30.5-26.2-45.4
		c-14.8,7.4-28.9,14.4-43.4,21.5c6.2,15.1,12.2,29.6,18.1,44.1C3986.4,2834.2,3988.4,2834.5,3991.7,2832.9z"/>
	<path class="st0" d="M3667.1,2780.4c4.4-10.3,8.8-20.7,13.1-31.1c-16.1-6.7-31.6-14.6-46.4-23.6c-6.4,10.4-12.8,20.9-19.7,32.1
		c16.9,8.3,33.1,16.3,49.4,24.1C3664.3,2782.4,3666.7,2781.3,3667.1,2780.4z"/>
	<path class="st0" d="M3437.1,2670.1c3.3-2.1,2.8-4.3,1-7.2c-4.7-7.7-9.2-15.6-13.8-23.4c-1.8-3.1-3.7-6.3-5.7-9.7
		c-15.8,8.1-30.9,15.8-46.8,24c8.4,14.5,16.3,28.2,24.6,42.7C3410.7,2687.1,3423.9,2678.6,3437.1,2670.1z"/>
	<path class="st0" d="M3463.1,2694.1c14.2-10.8,27.3-20.9,41-31.4c-8.3-12.7-16.2-25-24.4-36.9c-0.7-1.1-4.9-0.9-6.7,0.1
		c-9.3,5-18.4,10.6-27.6,15.8c-14.9,8.4-12.7,6.3-4.9,19C3447.4,2671.9,3455.2,2682.5,3463.1,2694.1z"/>
	<path class="st0" d="M3537.5,2700.4c-10.2-11.6-20.3-23.2-31.1-35.3c-13.5,10.4-27,20.7-41.8,32.1c12.5,14.1,24.2,27.4,35,39.6
		C3513,2724,3525.2,2712.3,3537.5,2700.4z"/>
	<path class="st0" d="M3576.8,2735.2c-12.4-10.9-24.3-21.3-34.6-30.3c-12.8,12.2-25.2,24.1-38.4,36.6c13.4,11.7,26.8,23.4,40.8,35.7
		C3555.8,2762.4,3566.3,2748.9,3576.8,2735.2z"/>
	<path class="st0" d="M4180.1,1864.7c0.2,0.1,0.5,0.2,0.8,0.2c-14.3-9.3-28.9-18.1-43.9-26.4l0,0
		C4151.8,1847.6,4165.9,1856.3,4180.1,1864.7z"/>
	<path class="st0" d="M4319.1,2371.3c14.5-1.3,29.1-2.9,43.5-4.8c1.6-0.2,4.2-3.5,4-5c-2.1-16.2-4.7-32.3-7.4-50
		c-17.4,3.7-33.4,7.1-49.3,10.7c-1,0.2-2.2,3.2-2,4.7c2,13.6,4.2,27.1,6.7,40.6C4314.8,2369.1,4317.7,2371.4,4319.1,2371.3z"/>
	<path class="st0" d="M4380.6,2193.3c-17,7-32.6,13.5-48.7,20.2c4.9,13.7,9.5,26.9,14.5,39.8c0.4,1.1,3.7,2.1,5.2,1.7
		c13.8-4.1,27.5-8.4,41.2-12.9c1.5-0.5,3.5-3.5,3.2-4.6C4391.1,2222.9,4385.9,2208.4,4380.6,2193.3z"/>
	<path class="st0" d="M4407.5,2292.8c1.2-0.3,2.9-3.4,2.6-4.7c-3.3-13.3-7-26.5-10.5-39.8c-0.8-3.1-2.3-4.4-5.8-3.2
		c-13.7,4.4-27.5,8.5-41.1,13.1c-1.5,0.5-3.4,4.1-3,5.8c2.7,11.6,5.8,23.2,9.1,34.7c0.5,1.8,2.4,3.3,3.2,4.4
		C4378.2,2299.4,4392.9,2296.3,4407.5,2292.8z"/>
	<path class="st0" d="M3946.3,1843.1c-2.8,12.7-5.5,25.3-8.4,38.4c15,4,29.2,7.9,44.4,12c5.2-16.6,10.4-32.9,16-50.5
		c-12.7-3.5-24.4-6.9-36.1-9.8C3949.2,1829.9,3949.2,1830.1,3946.3,1843.1z"/>
	<path class="st0" d="M4172.1,2578.3c0.4-0.9-1.3-3.7-2.6-4.3c-9.7-4.2-19.5-8.3-29.4-12.4c-6.8,16.1-14.9,31.7-23.9,46.5
		c10.3,6.3,20.7,12.7,31.9,19.5C4156.4,2610.7,4164.4,2594.6,4172.1,2578.3z"/>
	<path class="st0" d="M3987.9,1789.2c-3.3,13.3-6.7,26.6-10.6,39.7c-1.3,4.3,0.6,5.5,4,6.5c13.9,4.2,27.9,8.5,42.9,13.2
		c5.5-15.1,11-30,16.1-45c0.5-1.4-1.7-4.9-3.3-5.5c-13.8-4.7-27.7-9-41.6-13.4C3991.1,1783.2,3989,1784.7,3987.9,1789.2z"/>
	<path class="st0" d="M4196.1,2671c11.4,7.2,22.6,14.7,34,22c1.6,1,3.4,1.7,5.7,2.9c8.1-14.1,16-27.6,24.4-42.2
		c-16.4-8.3-31.6-16.1-46.9-23.9c-6.7,11.5-12.8,22.3-19.3,32.8C4191.3,2666.7,4192.5,2668.7,4196.1,2671z"/>
	<path class="st0" d="M4312.2,2529.9c13.7,2.7,27.3,5.5,40.9,8.7c4.4,1,6.1-0.4,6.7-4.5c2.3-14.4,4.6-28.8,7-43.2
		c0.7-4.3-1.1-6.1-5.2-6.5c-13.9-1.4-27.7-2.8-42-4.3c-3.6-1-4.9,0.8-5.5,4.8c-1.9,12.9-4.1,25.8-6.3,38.6
		C4307.2,2527.2,4308.2,2529.1,4312.2,2529.9z"/>
	<path class="st0" d="M4159.4,2622.1c6.1,3.9,12.6,7.4,18.9,11c7.2,4.2,14.4,8.4,22.9,13.3c7.7-16,15-31,22.1-46.2
		c0.5-1.1-0.6-4.1-1.7-4.6c-14.7-6.4-29.6-12.5-44.7-18.7c-7,13.9-13.7,27-20.1,40.3C4156.3,2618.2,4158,2621.2,4159.4,2622.1z"/>
	<path class="st0" d="M4279.1,2611.5c2.2-4.7,0.6-6.6-3.9-8.2c-10.2-3.6-20.2-7.7-30.4-11.5c-12.9-4.8-12.8-4.8-18.3,7.9
		c-3.9,9-8,18-12.2,27.5c15.7,8,30.8,15.7,47.2,24.1C4267.7,2637.3,4273.3,2624.3,4279.1,2611.5z"/>
	<path class="st0" d="M4443,2204.2c-0.5-1.4-3.9-3.3-5.2-2.8c-14.8,5.1-29.5,10.5-44.6,16.1c5.2,16.4,10,31.7,15,47.5
		c15.7-4.1,30.9-8,45.9-12.3c1.3-0.4,3-4,2.6-5.5C4452.4,2232.7,4447.9,2218.4,4443,2204.2z"/>
	<path class="st0" d="M4421,2506.9c-17.2-2.4-32.8-4.7-48.3-6.6c-1.5-0.2-4.5,2.4-4.8,4.2c-2.5,11.9-4.6,23.9-6.5,35.9
		c-0.3,1.6,1.4,4.9,2.7,5.3c15.6,3.8,31.4,7.1,48.1,10.8C4415.2,2539.7,4418,2523.7,4421,2506.9z"/>
	<path class="st0" d="M4356.9,2546.1c0.3-1.2-2.7-4.2-4.5-4.6c-13.5-3.2-27.2-5.7-40.8-8.8c-3.7-0.9-5.3,0.1-6.2,3.6
		c-3.4,13-7.1,26-10.3,39c-0.4,1.5,1.4,4.8,2.8,5.3c14.8,5.1,29.7,9.8,46.2,15.1C4348.6,2578.5,4353,2562.3,4356.9,2546.1z"/>
	<path class="st0" d="M4352.1,2592.9c14.9,5,29.8,9.6,46.4,14.8c4.2-15.6,8.2-30.3,11.8-45c0.3-1.1-1.9-3.9-3.4-4.3
		c-14-3.3-28.1-6.2-42.1-9.4c-3.6-0.8-5.3,0.2-6.2,3.8c-2.9,11.6-6.2,23.1-8.9,34.7C4349.3,2589.1,4350.7,2592.5,4352.1,2592.9z"/>
	<path class="st0" d="M4364.3,2426.7c-13.5,0.2-27,0.2-40.5,0c-4.9-0.1-6.7,1.6-6.6,6.5c0.2,11.5,0.1,23,0.1,34.5
		c-1.3,3.8-3.8,9,2.9,9.8c14.3,1.6,28.6,3.1,42.9,4.2c1.6,0.1,4.8-2.6,4.9-4.1c1.2-14.8,1.9-29.6,2.9-44.4
		C4371.1,2428.2,4369.2,2426.6,4364.3,2426.7z"/>
	<path class="st0" d="M4227.2,2798.2c-13.5-12.2-26.2-23.6-37.6-33.9c-12.3,12-23.7,23.2-35.6,34.7c11,12.1,22.3,24.6,34.4,37.9
		C4201.5,2823.7,4214,2811.3,4227.2,2798.2z"/>
	<path class="st0" d="M4276.9,2633.2c-1.1-0.5-4.1,1.1-4.8,2.5c-6.2,11.7-12.3,23.6-18,35.6c-0.7,1.5,0,5.1,1.2,5.8
		c12.3,7.5,24.8,14.7,37.4,21.6c1.4,0.8,5.2,0,5.9-1.2c7.8-14.4,15.2-28.9,23.3-44.5C4306,2645.9,4291.5,2639.4,4276.9,2633.2z"/>
	<path class="st0" d="M4267.4,2747.1c9.5-13.8,18.7-27.8,28.5-42.5c-16.2-9.3-30.9-17.7-45.7-26.3c-9.2,14.1-17.9,27.5-27,41.4
		c13.1,9.5,25.9,18.9,38.9,28.1C4263.2,2748.5,4266.7,2748.1,4267.4,2747.1z"/>
	<path class="st0" d="M4291.4,2726.6c8.7,6,17.8,11.6,26.8,17.3c4.2,2.7,8.5,5.2,13.4,8.2c8.5-14.8,16.6-28.8,24.9-43.3
		c-16.3-8.5-31.2-16.2-46.5-24.1c-7.4,12.5-14.3,24.1-20.8,35.9C4288.5,2721.9,4289.9,2725.6,4291.4,2726.6z"/>
	<path class="st0" d="M4421,2344.4c-3-16.9-5.8-32.9-8.8-49.6c-16.8,3.7-32.5,7.1-48.2,10.8c-1.3,0.3-3,3.2-2.8,4.7
		c1.9,12.5,4.2,24.9,6.7,37.2c0.3,1.4,2.9,3.6,4.1,3.5C4387.8,2349.1,4403.6,2346.8,4421,2344.4z"/>
	<path class="st0" d="M4340.8,2602.4c0.4-1.2-1.6-4.5-3.1-5.1c-13.1-4.6-26.5-8.7-39.7-13.2c-3.7-1.3-5.6-0.4-6.9,3.4
		c-4.5,12.3-9.4,24.4-13.8,36.6c-0.5,1.5,0.2,4.9,1.2,5.4c14.4,6.7,29,13,45,20.1C4329.6,2633.1,4335.4,2617.8,4340.8,2602.4z"/>
	<path class="st0" d="M4370.8,2417.5c-1.1-14.3-1.9-28.7-2.5-43c-0.2-4.5-2.2-5.6-6.3-5.1c-13.6,1.5-27.2,2.9-40.8,4.2
		c-4.4,0.4-6,2.4-5.7,6.9c0.8,12.8,1.4,25.6,1.7,38.4c0.1,4.4,1.9,5.8,6,5.7c6.8-0.2,13.7,0,20.6,0c6.6,0,13.3-0.3,19.9,0.1
		C4369,2425,4371.2,2423.2,4370.8,2417.5z"/>
	<path class="st0" d="M3875.5,1766.2c-1.7,15-3,29.9-4.1,45c-0.1,1.3,2.2,3.9,3.6,4.1c14.9,2.2,29.8,4,46,6.1
		c3-17.2,5.8-34,8.9-51.9c-17.4-2.3-33.3-4.5-49.3-6.3C3879,1762.9,3875.6,1764.9,3875.5,1766.2z"/>
	<path class="st0" d="M3796.8,1816.2c-4-0.1-5.5,1.6-5.3,5.6c0.7,13.7,1.2,27.4,1.6,41.1c0.1,4.4,2.2,5.3,6.3,5.2
		c11-0.3,22.1-0.2,33.1,0.1c4,0.1,5.8-1.1,6-5c0.5-13.9,1.1-27.8,1.7-41.7c0.2-3.7-1.3-5.3-5-5.2c-6.4,0.1-12.8,0-19.2,0
		C3809.6,1816.2,3803.2,1816.3,3796.8,1816.2z"/>
	<path class="st0" d="M3866.9,1761.5c-14.8-0.5-29.6-1-44.5-1.6c-4.6-0.2-5.7,2-5.6,6c0.2,6.6,0,13.3,0.1,19.9
		c0,7.3,0.1,14.6,0,21.9c-0.1,3.6,1.4,5,5.1,5.1c13.5,0.3,27,0.9,40.5,1.5c3.7,0.2,5.8-0.7,6.1-4.9c1.1-14.1,2.3-28.2,3.6-42.3
		C3872.6,1763.2,3870.8,1761.7,3866.9,1761.5z"/>
	<path class="st0" d="M3808.5,1759.9c-14.4,0.7-28.8,1.2-43.2,1.6c-4.7,0.1-6.2,2-5.7,6.6c1.3,13.7,2.6,27.3,3.6,41
		c0.3,4.3,2.1,5.6,6.3,5.4c13.3-0.7,26.5-1.2,39.8-1.5c4.5-0.1,5.7-1.9,5.6-6c-0.2-6.9-0.1-13.7-0.1-20.6c0-6.6-0.2-13.3,0.1-19.9
		C3815.1,1761.6,3813.5,1759.7,3808.5,1759.9z"/>
	<path class="st0" d="M3739.6,1764.4c-12.2,1.5-24.4,3.3-37.7,5.2c3.1,17.9,6,34.7,9,51.8c14.6-2,28.4-4.4,42.2-5.5
		c6.7-0.6,8.1-3.1,7.4-9.1c-1.1-9-2-18-2.6-27.1C3756.7,1762.5,3756.7,1762.3,3739.6,1764.4z"/>
	<path class="st0" d="M3932.1,1775.1c-2.8,14.1-5,28.2-7.7,42.4c-0.8,4.2,1,5.3,4.7,6.1c10.6,2,21.2,4.3,31.8,6.7
		c12.6,2.8,12.6,2.9,15.9-9.6s6.6-25.1,10.3-39c-17.3-3.7-33.8-7.3-50.4-10.5C3935.4,1770.8,3932.4,1773.5,3932.1,1775.1z"/>
	<path class="st0" d="M4439,2183.3c2.4,6.5,4.9,13,7.2,19.6C4443.9,2196.3,4441.5,2189.8,4439,2183.3z"/>
	<path class="st0" d="M4467.2,2309.1c1.4-0.3,3.5-3.6,3.2-5c-3.1-15.1-6.5-30.2-10.1-45.2c-0.3-1.4-3.6-3.4-4.9-3
		c-14.1,3.5-28.2,7.5-42.3,11.2c-3.6,0.9-4.4,2.7-3.6,6.3c3.1,13.1,5.7,26.3,8.9,39.4c0.5,2,2.6,3.5,3.6,4.8
		C4438.1,2314.6,4452.7,2312.1,4467.2,2309.1z"/>
	<path class="st0" d="M3680.9,1773.6c-11.8,2.4-23.6,5.4-36.2,8.3c4.5,16.7,8.7,32.5,13.2,48.1c0.3,1.2,4,2.3,5.7,2
		c13.2-2.7,26.3-5.8,39.5-8.6c3.5-0.7,4.9-2.1,4.1-5.9c-1.8-9.8-3.2-19.6-5-29.4C3699.1,1770.2,3699,1770,3680.9,1773.6z"/>
	<path class="st0" d="M3968.2,1774.7c14.4,3.7,28.7,7.6,42.9,11.8c2.1,0.6,3.9,0.9,5.2,0.5c-18.6-5.8-37.5-10.9-56.7-15.1
		C3961.3,1773,3963.9,1773.6,3968.2,1774.7z"/>
	<path class="st0" d="M4017.3,2824.4c-12.9,5.6-24.9,10.8-36.7,16.2c-1.2,0.6-2.4,3.7-1.9,5.1c5.1,13.9,10.4,27.7,15.9,41.4
		c0.5,1.3,3.3,2.9,4.2,2.5c14-5.8,27.8-11.9,42.4-18.3C4033,2854.9,4025.3,2839.9,4017.3,2824.4z"/>
	<path class="st0" d="M3598.6,2935.6c12.4,4.6,24.8,9.5,37.2,14.2c1.4,0.6,3,0.9,5.6,1.6c0.9-1.3,2.5-2.7,3.1-4.4
		c4.3-12.8,8.3-25.7,12.7-38.5c1.5-4.2,0.6-6.4-3.7-7.9c-11.9-4.2-23.7-8.7-35.4-13.4c-3.9-1.6-5.5-0.6-7.1,3
		c-5.3,12.2-10.6,24.4-16.3,36.4C3592.4,2931.5,3593.9,2933.8,3598.6,2935.6z"/>
	<path class="st0" d="M3589.6,2866.4c7.5-14.2,14.7-28.6,22.3-43.5c-9.2-5.3-17.5-9.9-25.7-14.7c-12.3-7.2-12.3-7.3-20,4.6
		c-6.8,10.5-13.6,21.1-21,32.6c13.7,7.8,26.7,15.2,39.8,22.4C3586,2868.4,3589,2867.5,3589.6,2866.4z"/>
	<path class="st0" d="M3649.9,2854.2c4.7-12.3,4.7-12.3-7.4-17.5c-9.2-4-18.4-8.1-28.1-12.4c-8,15.7-15.7,30.8-23.9,46.9
		c15.2,6.8,29.6,13.2,45.1,20.1C3640.7,2878.1,3645.3,2866.2,3649.9,2854.2z"/>
	<path class="st0" d="M3712.1,2806.5c0.3-1.3-1.5-4.2-2.9-4.7c-13.5-4.8-27.2-9.2-41.4-13.9c-3.5,8-7,15.9-10.5,23.8
		c-0.7-0.3-1.4-0.6-2.1-0.9c3.2-8,6.4-16,9.7-24.4c-14.5-7.2-28.5-14.2-43.3-21.5c-8.6,14.9-17.2,29.7-26.5,45.9
		c16.7,8.3,32.8,16.2,49.4,24.4c3.1-6.7,5.5-12.2,8-17.6c0.6,0.3,1.2,0.5,1.9,0.8c-2.1,5.6-4.1,11.2-6.6,18
		c17.3,5.8,34.1,11.5,51.8,17.5C3704,2837.2,3708.2,2821.9,3712.1,2806.5z"/>
	<path class="st0" d="M3687,2901.7c3.1-12,6.3-24,9.6-35.9c2.5-9.4,2.6-9.3-6.4-12.1c-10.9-3.4-21.7-7-33.1-10.6
		c-6.3,16.5-12.3,32.3-18.9,49.5c14.7,4.7,28.2,9,41.6,13.4C3683.9,2907.2,3685.9,2905.9,3687,2901.7z"/>
	<path class="st0" d="M3725.8,2794.7c0.4-3.3,1.6-6.4,2.4-9.6c1.5-6.2,2.9-12.4,4.3-18.6c-17-4.1-33.6-9.5-49.5-16
		c-2.6,6.3-5.2,12.6-7.8,18.9c-2,4.8-3.8,9.7-6.3,15.8c16.5,5.3,32,10.1,47.5,15.3C3722.2,2802.4,3725.1,2800.9,3725.8,2794.7z"/>
	<path class="st0" d="M3497,2742.3c0.7-0.8,0.5-3.6-0.3-4.5c-8.7-9.9-17.7-19.7-27-30c-13.5,11-26.8,21.8-41,33.2
		c11.2,12.5,21.8,24.2,33.3,37C3474.2,2765.7,3485.7,2754.1,3497,2742.3z"/>
	<path class="st0" d="M3531.1,2774.8c0.9-1.1,0.7-4.5-0.3-5.5c-8.7-8.2-17.6-16.2-26.6-24c-1.1-0.9-4.5-1-5.5,0
		c-11.5,11-22.8,22.2-34.9,34.2c12.5,11.3,24.2,21.9,36.8,33.2C3511.4,2799.3,3521.4,2787.2,3531.1,2774.8z"/>
	<path class="st0" d="M3448.8,2841c12.9,11,26,21.7,39.6,32.9c10.8-14.9,20.8-28.6,31.1-42.8c-13.4-10.8-25.9-20.9-38.7-31.2
		c-11.1,12.2-21.7,23.8-32,35.6C3447.9,2836.7,3447.9,2840.2,3448.8,2841z"/>
	<path class="st0" d="M3548.9,2834c7.5-11.4,14.8-22.9,22.4-34.6c-11.9-8.6-23.2-16.8-35.3-25.5c-11,13.6-21.7,26.8-32.9,40.7
		c10.6,7.8,20.6,15.5,30.9,22.6C3544.3,2844.2,3542,2844.4,3548.9,2834z"/>
	<path class="st0" d="M4091.8,2841c12.3-8.5,24.5-17.2,37.2-26.3c-11.5-14.1-22.1-27.3-33.1-40.8c-11.9,8.6-23.3,16.9-35.3,25.6
		c9,13.8,17.4,27,26.2,40C4087.5,2840.7,4090.8,2841.7,4091.8,2841z"/>
	<path class="st0" d="M3732.4,2804.5c15,2.6,30.1,5.2,46.9,8.2c1.4-1.4,4.6-2.9,4.8-4.9c1.2-10.8,2.2-21.7,3-32.6
		c-17.7-1.4-35-4.2-51.8-8.1c-2.4,10.1-4.9,20.2-7.5,30.3C3726.9,2801.6,3728.3,2803.8,3732.4,2804.5z"/>
	<path class="st0" d="M3468.1,2705.7c-8.9-12.2-17.3-23.8-26-35.7c-13.9,9.1-27.5,17.8-40.9,26.8c-1,0.7-1.6,4.2-0.8,5.3
		c8.4,12.2,17.1,24.2,26.4,37.1C3441.3,2727.5,3454.6,2716.6,3468.1,2705.7z"/>
	<path class="st0" d="M4182.6,2841.7c3.2-2.7,1.7-4.7-0.5-7.1c-7.5-8.2-14.8-16.5-22.2-24.7c-9-10-9-10-19.4-1.5
		c-9.2,7.5-18.5,15-28.2,22.8c10.3,14.1,20.2,27.9,31.1,42.8C4157,2862.7,4169.8,2852.2,4182.6,2841.7z"/>
	<path class="st0" d="M3992.6,2950.7c15.4-5.5,30.6-11.2,47.2-17.4c-5.5-12.6-10.4-23.7-15.3-34.7c-5.9-13.2-5.9-13.2-19.4-7.8
		c-10.4,4.1-20.9,8.1-32.1,12.4c5,15.6,9.9,30.7,15,45.7C3988.3,2949.9,3991.4,2951.1,3992.6,2950.7z"/>
	<path class="st0" d="M4131.4,2812.6c12.3-11.1,23.9-21.6,36.7-33.1c-12.3-12.1-23.6-23.4-35.2-34.3c-1-0.9-4.6-0.5-5.9,0.6
		c-8.6,7.3-16.8,15.1-25.3,22.5c-2.8,2.4-3.1,4.3-0.7,7.2c5.3,6.3,10.3,12.7,15.5,19.1C4121.3,2800.4,4126,2806.1,4131.4,2812.6z"/>
	<path class="st0" d="M4086.6,2845.2c-9.4-14.4-18.1-27.9-27-41.3c-0.7-1-3.7-1.7-4.8-1.1c-11.5,6.5-22.8,13.2-34.8,20.3
		c8,15.6,15.7,30.8,23.9,46.9C4058.6,2861.5,4072.2,2853.6,4086.6,2845.2z"/>
	<path class="st0" d="M3963,2785c-5.1-12.5-9.6-23.5-14.1-34.5v-0.1c-16,6.5-32.5,11.9-49.5,16c2.8,11.8,5.7,23.8,8.8,36.5
		C3926.7,2796.9,3944.6,2791.1,3963,2785z"/>
	<path class="st0" d="M3930.6,2848.4c1,3.9,2.8,5,6.6,3.7c9.6-3.3,19.4-6.2,29-9.5c5.8-2,11.5-4.3,17.9-6.7
		c-6.8-16.4-13.3-32.1-19.9-48c-14.4,4.8-27.9,9.1-41.2,13.9c-1.6,0.6-3.6,4-3.2,5.6C3923.2,2821,3927.1,2834.6,3930.6,2848.4z"/>
	<path class="st0" d="M3944.6,2901.2c1.2,4.8,3.5,6,8.1,4.5c11.9-4,23.9-7.9,35.8-11.9c1.6-0.5,3-1.5,4.7-2.5
		c-6.3-16.3-12.4-32.1-18.6-48.2c-13.3,4.2-25.5,8.2-37.7,11.9c-3.6,1.1-3.9,3-3.1,5.9C3937.5,2874.4,3941.2,2887.8,3944.6,2901.2z"
		/>
</g>
</svg>
