<!-- Generator: Adobe Illustrator 25.2.0, SVG Export Plug-In  -->
<svg version="1.1" xmlns="http://www.w3.org/2000/svg" xmlns:xlink="http://www.w3.org/1999/xlink" x="0px" y="0px" width="4800px"
	 height="3480px" viewBox="0 0 4800 3480" style="overflow:visible;enable-background:new 0 0 4800 3480;" xml:space="preserve">
<style type="text/css">
	.st0{opacity:0.9;fill:#565053;}
	.st1{fill:none;}
</style>
<defs>
</defs>
<path class="st0" d="M4015,2058.5c-128.5,0-248.5,36.3-350.3,99.1L3585,2078l-230.5,230.5l82.7,82.7
	c-57.3,98.6-90.2,213.1-90.2,335.3c0,368.9,299.1,668,668,668s668-299.1,668-668S4383.9,2058.5,4015,2058.5z M4015,3078.5
	c-194.4,0-352-157.6-352-352s157.6-352,352-352s352,157.6,352,352S4209.4,3078.5,4015,3078.5z"/>
<rect class="st1" width="4800" height="3480"/>
<g>
	<path class="st0" d="M4047.5,2344.4c-1,9.9-1.9,19.8-2.7,29.7c17.8,1.4,35.2,4.2,52.1,8.2c2.8-11,5.5-22.3,8.5-34.6
		c-18.7-2.6-36.1-5.2-53.6-7.3C4050.5,2340.2,4047.7,2342.9,4047.5,2344.4z"/>
	<path class="st0" d="M3978.7,2340.2c-8.5,1.1-17.1,1.9-25.6,3.3c-8.6,1.4-17.1,3.3-26.4,5.2c2.8,11.6,5.4,22.7,8.1,33.7
		c16.9-4,34.4-6.8,52.2-8.2c-0.8-9.7-1.8-19.3-2.4-29C3984.2,2341,3982.5,2339.7,3978.7,2340.2z"/>
	<path class="st0" d="M3957.2,2292c-0.3-1.8-3.4-4.7-4.8-4.5c-16.3,2.8-32.5,6.1-50,9.5c4.5,16.9,8.5,32.3,13,47.5
		c0.4,1.4,4.2,2.9,6,2.6c12.4-2.2,24.7-5.1,37.1-7.2c3.9-0.7,4.7-2.4,4.3-5.8C3961,2320,3959.3,2306,3957.2,2292z"/>
	<path class="st0" d="M3932.2,2234.4c-13,2.5-26,5.3-38.9,8.5c-1.7,0.4-4.1,3.8-3.7,5.3c3.7,15.2,7.9,30.3,12.2,46.1
		c13.7-2.8,26.4-5.4,39.1-8.3c1.2-0.3,3-2.8,2.9-4.1c-2-14.7-4.2-29.4-6.8-44C3936.7,2236.5,3933.6,2234.1,3932.2,2234.4z"/>
	<path class="st0" d="M3839.4,2259.1c0,1.7-0.2,2.4,0,2.9c5.4,14.5,11,28.9,16.4,43.5c1.4,3.7,3.6,2.9,6.3,2
		c8.6-2.9,17.1-5.9,25.8-8.6c14-4.4,11.3-2.2,8.3-14.3c-3.3-13.2-7.1-26.3-10.9-40.4C3869.3,2249.4,3854.2,2254.3,3839.4,2259.1z"/>
	<path class="st0" d="M4074.7,2291.4c-2.2,14.4-4.1,28.9-5.7,43.4c-0.2,1.5,2.1,4.3,3.7,4.6c12.5,2.9,25.1,5.4,37.7,7.6
		c1.9,0.3,5.6-1.3,6-2.7c4.5-15.2,8.4-30.6,12.9-47.5c-17.5-3.4-33.8-6.7-50-9.5C4078,2287.3,4075,2289.9,4074.7,2291.4z"/>
	<path class="st0" d="M4133.7,2292c-0.3,1.2,0.7,3.9,1.6,4.2c12.9,4.3,25.9,8.3,39.4,12.5c6.3-16.4,12.4-32.3,18.9-49.3
		c-16-5.2-31.2-10.1-47.1-15.2C4142,2261,4137.7,2276.5,4133.7,2292z"/>
	<path class="st0" d="M4194.6,2265.1c-5.5,13.5-10.7,27.1-15.7,40.8c-0.5,1.4,0.4,4.7,1.5,5.3c12,5.6,24.1,10.7,37,16.4
		c7.9-15.4,15.6-30.7,24-47c-14.6-6.4-28.3-12.5-42.1-18.2C4198.2,2262,4195.2,2263.7,4194.6,2265.1z"/>
	<path class="st0" d="M4137.5,2242.5c-12.3-2.7-24.7-5.3-37-8.1c-3.7-0.8-5.5,0.3-6,3.9c-2.2,14.4-4.5,28.9-6.4,43.3
		c-0.2,1.4,1.3,4.1,2.4,4.4c12.9,2.9,25.9,5.5,39.5,8.3c4.2-15.6,8.3-30.9,12.4-46.3C4143.4,2244,4140.5,2243.1,4137.5,2242.5z"/>
	<path class="st0" d="M3838.1,2201.7c-13.8,4.9-27.4,10-40.9,15.5c-1.6,0.7-3.5,4.5-3,5.9c5.6,13.5,11.5,26.8,17.7,40.1
		c0.5,1.2,3.4,2.5,4.5,2c13.8-5.2,27.6-10.8,42.4-16.7c-4.9-15.1-9.6-29.9-14.7-44.5C3843.6,2202.7,3839.7,2201.1,3838.1,2201.7z"/>
	<path class="st0" d="M3645.2,2241.1c11.1,14.5,21.4,27.9,32.3,42c13-9.1,25.2-17.6,37.8-26.4c-9.6-15-18.8-29.4-28.6-44.7
		C3672.6,2221.9,3659.1,2231.3,3645.2,2241.1z"/>
	<path class="st0" d="M3552.5,2248.3c-6.5,6-6.4,6.1-0.3,12.2c4.5,4.5,9.1,9,13.6,13.6c5.6,5.9,11,11.9,16.6,18
		c12.8-11.6,24.3-21.9,35.6-32.4c0.9-0.8,1.3-3.6,0.7-4.4c-10.3-12.6-20.8-25.1-31.9-38.4C3574.9,2227.8,3563.6,2238,3552.5,2248.3z
		"/>
	<path class="st0" d="M3539.5,2261.3c-9.5,10.6-19.1,20.9-28.7,31.4c-1.3,1.4-2.1,3.1-3.4,4.9c11.3,9.5,22.2,18.6,32.9,27.8
		c2.1,1.8,3.5,4.3,5.2,6.5c0,0-0.1,0-0.1-0.1c-0.2,2,0.3,4.5-0.7,5.9c-3.7,5.4-8,10.4-12.4,16c13.6,10.3,26.3,20.2,39.3,29.8
		c1,0.7,4.1,0.4,4.9-0.6c9.1-10.6,17.9-21.3,27.1-32.5c-10.8-9.9-21.3-19.7-31.9-29.3c-3.3-3-6.1-7.8-12.3-4.3
		c7-7.5,14-15.1,22-23.6c-11.2-10.9-22.2-21.4-32.9-32.3C3545,2257.2,3542.7,2257.8,3539.5,2261.3z"/>
	<path class="st0" d="M3782.3,2167.4c-0.6-1.3-3.7-2.7-4.9-2.2c-13.6,5.9-27,12.2-41.7,18.9c8,15.3,15.2,29.5,22.8,43.4
		c0.6,1,3.9,1.6,5.4,0.9c10.7-4.7,21.3-9.9,32-14.7c3.2-1.4,4.6-3,3.1-6.5C3793.4,2194,3788.1,2180.6,3782.3,2167.4z"/>
	<path class="st0" d="M3440.3,2392.1c15.4,8.9,30.1,17.4,45,26c1.5-2,2.6-3.3,3.5-4.7c6.9-10.8,13.5-21.8,20.7-32.4
		c2.9-4.2,2-6.2-2-8.9c-9.8-6.5-19.2-13.5-28.9-20.1c-9.7-6.7-8.1-7.4-14.8,2.5c-4.2,6.2-8.3,12.5-12.3,18.9
		C3447.8,2379.3,3444.3,2385.3,3440.3,2392.1z"/>
	<path class="st0" d="M3410.4,2325c16.6,10.9,32.3,21.3,48.1,31.8c10.4-14.4,20.1-28,30.4-42.2c-15-11.8-29.7-23.3-45.3-35.6
		C3432.2,2294.6,3421.6,2309.4,3410.4,2325z"/>
	<path class="st0" d="M3484.6,2237.6c-2.9-2.7-4.5-1.2-6.5,1.1c-6.2,7.2-12.6,14.3-18.7,21.6c-4.5,5.3-8.8,10.8-13.6,16.7
		c15.4,12.1,29.9,23.5,44.7,35c11.2-13.2,21.8-25.6,32.3-37.9c-0.5-1-0.7-1.7-1.2-2.1C3509.3,2260.6,3496.9,2249.2,3484.6,2237.6z"
		/>
	<path class="st0" d="M3632.7,2181.5c-14.9,11.5-29,22.4-43.6,33.6c11.7,14,22.6,27,33.6,40.1c12.9-9.7,25.2-19,37.4-28.5
		c1-0.8,1.4-3.8,0.7-4.9C3651.8,2208.8,3642.6,2195.8,3632.7,2181.5z"/>
	<path class="st0" d="M3734.5,2249.2c-14.3,8.7-28.3,17.8-43.1,27.2c10.6,14.7,20.4,28.2,30.5,42.1c13.3-8.5,25.6-16.2,37.7-24.3
		c1.2-0.8,2-4.5,1.2-5.9c-6.8-12.4-13.9-24.7-21.1-36.8C3738.8,2250.1,3735.4,2248.6,3734.5,2249.2z"/>
	<path class="st0" d="M3759.4,2279.3c6.7,11.6,6.6,11.6,18.6,5.3c10.5-5.5,21.2-10.8,32.4-16.6c-7.1-16-14.1-31.6-21.6-48.3
		c-16.8,8.6-32.8,16.7-49.3,25.2C3746.6,2257.2,3753.1,2268.2,3759.4,2279.3z"/>
	<path class="st0" d="M4221.4,2267.9c14.3,7.5,28,14.7,41.7,21.6c0.9,0.5,3.5-0.5,4.2-1.6c8.2-13.9,16.2-27.9,25-43.1
		c-16.8-8.6-32.7-16.6-49.4-25.1C4235.5,2236.4,4228.5,2252,4221.4,2267.9z"/>
	<path class="st0" d="M4563.6,2348.7c-0.6-0.9-4.5-0.7-6,0.3c-11.4,7.7-22.4,15.8-33.8,23.4c-3.9,2.6-4.1,4.7-1.5,8.5
		c6.6,9.7,12.7,19.7,19.1,29.5c1.6,2.5,3.3,4.9,5.2,7.7c15.2-8.8,29.7-17.2,45.4-26.3C4582.3,2376.9,4573.1,2362.7,4563.6,2348.7z"
		/>
	<path class="st0" d="M4342.1,2592.5c6.5,16.1,11.9,32.8,16.1,50c11.4-2.6,22.9-5.4,35.2-8.3c-6-18.7-11.8-36.7-17.9-55.5
		C4363.6,2583.6,4352.7,2588.1,4342.1,2592.5z"/>
	<path class="st0" d="M3638.2,2505.8c9,5.6,18.3,10.8,27.5,16.2c12.4,7.2,12.3,7.1,20-4.9c5.9-9.2,12.2-18.2,18.6-27.7
		c-13.6-10.4-26.7-20.5-41.5-31.8c-9.6,14.7-18.7,28.5-27.3,42.5C3634.8,2501.1,3636.6,2504.8,3638.2,2505.8z"/>
	<path class="st0" d="M3630.2,2767c2.2,13.5,4.3,27.1,6.8,40.6c0.6,3.5,1.2,7.9,7,6.4c9.8-2.5,19.6-4.9,29.4-7.3
		c-3.9-16.5-6.7-33.4-8.2-50.7c-8.8,0.7-17.6,1.4-26.4,2C3630.2,2758.5,3630.2,2758.3,3630.2,2767z"/>
	<path class="st0" d="M4388.2,2638.8c-9.8,2.1-19.6,4.4-29.3,6.9c3.8,16.6,6.5,33.7,7.8,51.1c10.1-0.7,20.2-1.5,30.3-2.5
		c1.6-0.2,4.4-2.9,4.2-4.2c-2.1-15.8-4.5-31.5-7.3-47.2C4393.6,2641.2,4389.9,2638.5,4388.2,2638.8z"/>
	<path class="st0" d="M4403.2,2749.2c-0.1-7.7,0-15.5,0-23.2c0,0,0,0,0,0c0-8,0-15.9,0-23.9c0-3.2-0.9-5-4.6-4.7
		c-10.5,0.8-21.1,1.6-31.6,2.3c0.6,8.3,0.9,16.7,0.9,25.1c0,9.3-0.4,18.5-1.1,27.7c10.2,0.7,20.4,1.4,30.6,2.2
		C4401.9,2755.2,4403.3,2753.4,4403.2,2749.2z"/>
	<path class="st0" d="M3690.5,2859.6c-6.7-16.1-12.2-32.7-16.4-49.9c-11.5,2.7-23.2,5.5-35.7,8.5c6,18.7,11.8,36.6,17.9,55.5
		C3668.5,2868.8,3679.7,2864.2,3690.5,2859.6z"/>
	<path class="st0" d="M3617.9,2521.8c1-0.7,1.5-0.9,1.7-1.2c4.7-8.2,9.4-16.5,14.2-24.7c6.9-11.6,7-11.6-4.5-19.1
		c-10.7-6.9-21.4-13.8-33.1-21.3c-8.4,14.6-16.3,28.4-24.5,42.8C3588,2506.6,3603.1,2514.3,3617.9,2521.8z"/>
	<path class="st0" d="M3588.5,2373.1c-6.7,8.4-13.3,16.9-20.3,25.9c14.6,10.6,28.3,20.5,42.3,30.7c10.4-12.9,20.4-25.2,31.1-38.5
		c-12.2-11-23.9-21.7-36-32.1c-1-0.9-4.6-0.2-5.8,1C3595.7,2364.1,3592.1,2368.6,3588.5,2373.1z"/>
	<path class="st0" d="M3599.2,2281.3c-9.7,9.1-18.9,18.7-28.4,28c-2.3,2.3-2.8,4.3-0.1,6.7c11.5,10.4,22.9,20.8,34.9,31.8
		c10.2-10.1,19.8-19.5,29.2-29.2c0.9-1,0.9-4.4,0-5.4c-9.5-10.8-19.2-21.5-29.2-31.8C3604.5,2280.2,3600.4,2280.2,3599.2,2281.3z"/>
	<path class="st0" d="M3581.7,2473.7c9.1-14,17.8-27.5,26.9-41.5c-13.1-9.5-25.9-19-39-28c-1.1-0.8-5,0.5-6.1,2
		c-5.6,7.7-10.9,15.6-16.1,23.6c-3.7,5.7-7.1,11.6-10.9,18C3552,2456.6,3566.7,2465.1,3581.7,2473.7z"/>
	<path class="st0" d="M4369,2224.6c13.5,10.4,26.4,20.3,40,30.8c11.4-13.5,22.2-26.5,33.8-40.3c-14.9-11.4-29.1-22.2-43.7-33.5
		C4388.6,2196.5,4378.9,2210.4,4369,2224.6z"/>
	<path class="st0" d="M3512.4,2780.7c-14.3,1.2-28.6,2.9-42.9,4.4c-3.4,0.4-5.2,1.8-4.6,5.6c2.5,14.8,4.8,29.7,7.2,44.5
		c0.6,3.5,2.1,4.9,5.8,4.1c14-3.1,28.1-5.9,42.1-9.1c1.8-0.4,3.2-2.4,4-3c-2.4-15.5-4.4-29.3-6.8-43
		C3516.9,2782.7,3513.9,2780.5,3512.4,2780.7z"/>
	<path class="st0" d="M4457.4,2223.7c-7.2-6.3-14.5-12.5-22-18.6C4442.5,2211.3,4449.8,2217.4,4457.4,2223.7z"/>
	<path class="st0" d="M4542.9,2314.5C4542.9,2314.5,4542.9,2314.5,4542.9,2314.5c10,13.9,19.6,27.1,29.3,40.7
		C4563,2341.3,4553.2,2327.7,4542.9,2314.5z"/>
	<path class="st0" d="M4312.3,2320.8c13.3,10.7,25.8,20.8,38.6,31.1c11-12.2,21.6-23.8,31.9-35.6c1-1.1,0.7-5-0.4-5.9
		c-12.6-10.8-25.5-21.2-39.1-32.5C4332.4,2293,4322.4,2306.9,4312.3,2320.8z"/>
	<path class="st0" d="M4359.2,2287.1c10.5,9,21.3,17.8,32.4,27c11.9-12.9,23.5-25.6,35.7-38.9c-13-10.9-25.5-21.4-38.8-32.6
		c-10.6,13.9-20.4,26.6-30,39.6C4357.9,2283.2,4358.3,2286.2,4359.2,2287.1z"/>
	<path class="st0" d="M3521.9,2467.3c4.4-7.9,8.5-14.9,12.4-22.1c3.2-5.7,9.5-12.4,8.3-17.1c-1.3-4.8-9.9-7.9-15.4-11.5
		c-8.7-5.6-17.4-11-27-17.1c-8.5,14.8-16.6,28.9-25,43.4C3491.3,2451.4,3506.2,2459.2,3521.9,2467.3z"/>
	<path class="st0" d="M4521.8,2499c-8.4-16.4-16.3-32.1-24.7-48.5c-15.5,8.9-30,17.3-44.9,25.9c7,14.1,13.5,27.4,20.3,40.5
		c0.6,1.1,3.5,2.2,4.6,1.8C4491.7,2512.5,4506.2,2505.9,4521.8,2499z"/>
	<path class="st0" d="M4444.1,2560.4c12.1-4.6,24.2-9.3,37.5-14.5c-6.8-15.4-13.3-30-20.1-45.3c-16.3,8.3-31.6,16.1-47.2,24.1
		c4.4,10,8.6,19.2,12.7,28.5C4432.1,2564.9,4432.1,2565,4444.1,2560.4z"/>
	<path class="st0" d="M4531.4,2399.7c-10.7,6.8-20.2,12.8-29.7,18.8c-14.6,9.3-14.6,9.3-6,23.9c2,3.4,4,6.9,6,10.4
		c2.7,4.7,5.3,9.5,8.2,14.6c15.7-8.2,30.6-15.9,46.8-24.3C4548,2428.1,4539.8,2414.1,4531.4,2399.7z"/>
	<path class="st0" d="M4418.3,2540.4c-5.5-11.5-11.5-22.7-17.5-34.6c-15.9,9.2-30.6,17.6-45.4,26.2c7.3,14.6,14.2,28.6,21.4,43.1
		c11.5-4.7,22.5-9.2,33.5-13.8C4425,2555.1,4425.2,2554.9,4418.3,2540.4z"/>
	<path class="st0" d="M3960,2291.4c1.9,13.6,3.6,27.2,5.3,40.8c0.6,4.5,2.2,6.5,7.3,6.1c12.5-1.2,25.2-1.6,37.7-2.9
		c1.6-0.2,4.1-3.1,4.2-4.8c0.5-7,0.2-14.2,0.2-21.2c0-6.9-0.2-13.7,0.1-20.6c0.1-4.3-1.5-6-5.8-5.7c-14.8,1-29.6,1.9-44.4,2.8
		C3961,2286,3959.4,2287.6,3960,2291.4z"/>
	<path class="st0" d="M3988.7,2234.2c-0.2-5.3-2.4-6.4-7-5.9c-11.8,1.4-23.7,2.9-35.6,3.8c-5.9,0.4-7,2.9-6.1,8.1
		c2.3,13.3,4.4,26.6,6.3,39.9c0.6,4.5,3,5.3,6.9,4.8c11.2-1.3,22.4-2.4,33.5-4c1.6-0.2,3.3-2.6,4-4.4c0.7-1.7,0.1-3.9,0.2-5.9
		C3990.2,2258.4,3989.1,2246.3,3988.7,2234.2z"/>
	<path class="st0" d="M3604.4,2275.1c12.3,13.4,24,26.2,35.8,39c12-10.1,23.3-19.5,35.2-29.5c-10.6-13.9-21-27.5-32.2-42
		C3629.9,2253.8,3617.4,2264.2,3604.4,2275.1z"/>
	<path class="st0" d="M4034.8,2227.8c-12.6,0.1-25.2,0.1-37.8,0c-4.4,0-5.6,2.2-5.4,6.3c0.9,13.7,1.7,27.4,2.3,41.1
		c0.2,3.7,1.8,5.1,5.4,5c5.5-0.1,11.1,0,16.6,0c0,0,0,0.1,0,0.1c5.5,0,11.1-0.2,16.6,0.1c3.6,0.2,5.3-0.7,5.4-4.6
		c0.6-13.9,1.4-27.9,2.3-41.8C4040.5,2229.8,4039.1,2227.8,4034.8,2227.8z"/>
	<path class="st0" d="M3957.4,2180.7c-0.4-4.4-2.3-6.3-6.9-5.5c-14.4,2.4-28.7,4.8-43.1,7c-4.3,0.7-5.3,2.6-4.4,6.8
		c3.1,13.6,6,27.2,8.7,40.8c0.8,4,2.6,5.1,6.4,4.4c12.8-2.2,25.7-4.5,38.5-6.3c4.5-0.6,5.7-2.5,4.9-6.8
		C3960.2,2208,3958.7,2194.4,3957.4,2180.7z"/>
	<path class="st0" d="M4178.7,2251.3c11.5,4.1,22.9,8.3,34.1,13.1c4.7,2,6.6,1.2,8.5-3.3c5.1-12,10.6-23.9,15.9-35.8
		c0.6-1.4,1.2-2.9,2.1-5.1c-1.2-0.9-2.4-2.2-3.8-2.8c-13.8-5.4-27.7-10.6-41.5-15.9c-3.4-1.3-5.3-0.6-6.5,3.1
		c-4.2,13.1-8.3,26.2-12.8,39.1C4172.8,2248.3,4174.6,2249.8,4178.7,2251.3z"/>
	<path class="st0" d="M4043.1,2233.3c-0.6,12.6-1.4,25.2-2.3,39c-0.1,7.8-0.2,8.1,3.3,8.6c11.8,1.4,23.7,2.8,35.6,3.8
		c1.7,0.1,4.9-1.8,5.2-3.2c2.6-14.6,4.9-29.2,6.8-43.9c0.2-1.5-2-4.8-3.4-4.9c-13.4-1.7-26.8-3-40.2-4.4
		C4044.4,2227.8,4043.3,2229.7,4043.1,2233.3z"/>
	<path class="st0" d="M4125.1,2182.4c-14.8-2.5-29.6-5-46.3-7.9c-1.2,1.6-3.7,3.4-4,5.6c-1.8,14.2-3.3,28.5-4.5,42.8
		c-0.1,1.5,2.1,4.4,3.6,4.7c13.5,2.5,27,4.7,40.5,6.5c1.7,0.2,4.9-2,5.3-3.6c3.3-14,6.1-28,9.2-42.1
		C4129.7,2185,4128.8,2183,4125.1,2182.4z"/>
	<path class="st0" d="M4017.3,2288c-0.5,7-0.2,14.1-0.2,21.2c0,7.1-0.3,14.2,0.2,21.2c0.1,1.8,2.6,4.7,4.3,4.9
		c12.8,1.2,25.6,1.8,38.3,2.9c4.4,0.4,6-1.6,6.5-5.5c1.8-13.8,3.8-27.6,5.3-41.4c0.2-1.7-2.3-5.1-3.8-5.3
		c-15.4-1.3-30.9-2.3-46.3-2.9C4020.1,2283.2,4017.4,2286.2,4017.3,2288z"/>
	<path class="st0" d="M4169.7,2193.6c-11.3-3.2-22.6-5.9-35.2-9.2c-1,1.6-2.6,3.3-3.1,5.2c-3,13.6-5.6,27.3-8.7,40.8
		c-1,4.2,0.5,5.5,4.1,6.4c12.4,3.2,24.8,6.3,37.1,10c4.3,1.3,6.1,0.1,7.3-3.8c3-9.7,6.3-19.3,9.3-29
		C4185.7,2198.2,4185.7,2198.1,4169.7,2193.6z"/>
	<path class="st0" d="M3825.8,2146.9c-6.6,1.7-13.1,4.1-19.5,6.5c-7.4,2.7-14.7,5.6-22.4,8.6c6.8,16.5,13.3,32,20,48.3
		c14.5-5.3,28.3-10.4,42.8-15.7c-4.9-15.5-9.6-30.7-14.7-45.7C3831.5,2147.6,3827.6,2146.4,3825.8,2146.9z"/>
	<path class="st0" d="M3885.5,2187.5c-13,3.2-25.8,7-39.5,10.7c5.3,16.2,10.1,31.3,15.2,46.3c0.4,1.3,3.1,3.1,4.2,2.8
		c14.5-3.8,28.9-7.9,44.4-12.2c-2.6-12.5-5.3-24.6-7.7-36.7C3899.4,2184.2,3899.4,2184,3885.5,2187.5z"/>
	<path class="st0" d="M3501.1,2511.3c6.3-13.3,12.2-25.4,17.7-37.7c0.6-1.3-0.7-4.7-2-5.5c-12.8-7-25.8-13.7-38.9-20.1
		c-1.3-0.7-4.9,0.4-5.6,1.7c-6.7,13.4-13,27-19.9,41.6C3469.6,2498.4,3485.3,2504.8,3501.1,2511.3z"/>
	<path class="st0" d="M3436.1,2537.3c-0.4,1.4,1.8,4.9,3.5,5.5c13.4,4.6,27,8.5,40.5,12.9c3.7,1.2,5.1-0.1,6.3-3.4
		c3.8-10.9,7.9-21.6,11.8-32.4c0.6-1.8,1-3.6,1.6-5.8c-16-6.6-31.5-13.1-48.5-20.1C3445.9,2509,3440.7,2523.1,3436.1,2537.3z"/>
	<path class="st0" d="M3528.9,2802c13.1-2.2,26.2-4.4,39.3-6.1c5.3-0.7,6.7-2.9,6-7.9c-1.3-9.2-2.4-18.4-3.5-27.6
		c-1.1-9.2-1-9.2-8.1-9c-14.2,0.8-26.5,1.9-38.9,2.2c-5.3,0.2-6.3,2.4-5.8,7c1.4,12.3,2.8,24.6,4,36.9
		C3522.5,2802.1,3525,2802.7,3528.9,2802z"/>
	<path class="st0" d="M3416.3,2444.9c14.7,7.1,29.5,14,44.5,21c7.9-15.1,15.4-29.6,23.5-45.2c-15.2-8.8-30-17.4-46-26.6
		c-8.1,15.7-15.9,30.8-23.4,46C3414.2,2441.3,3415.2,2444.4,3416.3,2444.9z"/>
	<path class="st0" d="M3788.3,2105.2c-0.6-1.4-4.1-3.1-5.4-2.6c-15.6,6-31.1,12.5-47.5,19.2c7.4,15.8,14.2,30.6,21.3,45.3
		c0.5,1,3.5,1.9,4.8,1.4c13.4-5.3,26.7-10.8,39.8-16.6c1.3-0.6,2.6-3.6,2.2-4.9C3798.8,2133,3793.7,2119,3788.3,2105.2z"/>
	<path class="st0" d="M3522.3,2654.5c-1.8,12.9-3,25.9-4.4,38.9c-0.4,3.5,0.7,5.3,4.6,5.5c13,0.6,26.1,1.4,39.1,2.2
		c0.2,0.5,0.5,0.9,0.7,1.4c2.7-1.5,7.4-2.7,7.7-4.5c2-12,3.1-24.1,4.1-36.2c0.1-1.4-2-4.2-3.4-4.5c-14.4-2.5-28.8-4.8-43.3-6.7
		C3525.9,2650.3,3522.5,2652.9,3522.3,2654.5z"/>
	<path class="st0" d="M3704.9,2133.6c1.6-0.7,3.4-1.6,5.6-2.7c11-5.5,22.1-10.8,34-16.5C3731,2120.4,3717.8,2126.8,3704.9,2133.6z"
		/>
	<path class="st0" d="M3535.6,2182.5c-10.6,9.1-10.6,9.2-1.2,19.6c9.4,10.3,18.9,20.4,28.7,31c12.4-10.4,24.3-20.3,35.9-30.5
		c0.8-0.7,0.7-3.9-0.2-5c-10.3-13.5-20.9-26.9-32.3-41.5C3555.8,2165.4,3545.7,2173.9,3535.6,2182.5z"/>
	<path class="st0" d="M3441.3,2277.3c-10.6-8.3-21-16.5-31.6-24.7l-43.2,43.2c13.9,9.2,27.5,18.2,41.5,27.5
		C3419.4,2307.6,3430.2,2292.7,3441.3,2277.3z"/>
	<path class="st0" d="M3484.1,2233.1c13.1,12.1,25.9,24,38.9,35.6c1,0.9,4.7,0.3,5.9-0.9c9.8-9.3,19.3-18.9,28.7-28.6
		c1.1-1.2,1.6-4.9,0.7-5.9c-11.6-13-23.5-25.8-35.5-38.8C3509.8,2207.5,3497.2,2220,3484.1,2233.1z"/>
	<path class="st0" d="M4199.5,2149.5c-4.6,13.6-8.9,27.4-12.9,41.2c-0.4,1.5,1.1,4.8,2.5,5.3c12.6,4.9,25.3,9.3,38.9,14.2
		c6.7-16.3,13.2-31.9,20-48.6c-15-5.3-29.1-10.5-43.3-15.2C4203.4,2146,4200,2148,4199.5,2149.5z"/>
	<path class="st0" d="M3554.7,2518.7c1.1,0.5,4.3-1.4,5.1-3c6.1-11.3,11.7-22.9,17.8-34.1c2.1-3.9,1.2-5.9-2.4-7.9
		c-5.8-3.2-11.5-6.6-17.3-9.9c-7.4-4.3-14.8-8.5-23.2-13.3c-8.4,16.5-16.3,32.1-24.6,48.5C3525.6,2506,3540.1,2512.5,3554.7,2518.7z
		"/>
	<path class="st0" d="M3622.3,2930.1c2.7,5.4,5.9,10.6,9.1,16.4c15.6-9,30.2-17.5,45-26c-7.2-14.6-14.1-28.4-21.3-43.1
		c-15.2,6.2-29.6,12.2-44.2,18.1c-4,1.6-3.1,4.1-1.7,6.9C3613.6,2911.7,3617.8,2921,3622.3,2930.1z"/>
	<path class="st0" d="M3653.7,2874.6c-4.7-14.3-9.1-28-13.9-41.5c-0.5-1.4-3.4-3.3-4.6-3c-15.4,3.8-30.7,8.1-47.5,12.6
		c6,17.7,11.7,34.5,17.6,52C3622.3,2887.6,3637.9,2881.1,3653.7,2874.6z"/>
	<path class="st0" d="M3786.7,2992.2c-13.2-11.3-25.5-23.6-36.9-36.7c-9,7.6-18.3,15.6-28.3,24.2c14.1,14,27.3,27.2,41,40.9
		C3771.2,3010.5,3779.2,3001,3786.7,2992.2z"/>
	<path class="st0" d="M3747.9,2953.2c-11.3-13.2-21.5-27.2-30.8-42c-10.1,6.2-20.5,12.6-31.6,19.4c11.8,16.2,22.8,31.2,34.2,46.7
		C3729.6,2968.8,3738.9,2961,3747.9,2953.2z"/>
	<path class="st0" d="M3657.3,2570.8c5.9-11.4,11.4-23,17.3-34.4c1.8-3.4,1.1-5.1-2.1-6.8c-7.2-3.9-14.2-8.1-21.3-12.2
		c-6.5-3.7-12.9-7.4-20.4-11.6c-8.2,16.6-16,32.4-24.3,49.2c16.2,6.7,30.9,12.9,45.7,18.7
		C3653.3,2574.1,3656.5,2572.3,3657.3,2570.8z"/>
	<path class="st0" d="M3630.4,2689.7c-0.5,3.5,1.1,4.7,4.4,4.9c9.8,0.7,19.6,1.5,30.1,2.3c1.4-17.5,4-34.6,7.9-51.3
		c-9.2-2.2-18.4-4.5-27.5-6.8c-4.8-1.2-7.2,0.3-7.9,5C3635.1,2659.1,3632.8,2674.4,3630.4,2689.7z"/>
	<path class="st0" d="M3588.3,2560.6c11.5,4.4,11.5,4.4,16.3-6.7c4.2-9.6,8.5-19.3,12.9-29.3c-15.7-8-30.8-15.7-47.1-24
		c-6.8,15.3-13.4,29.9-20.2,45.3C3563.6,2551.1,3575.9,2555.9,3588.3,2560.6z"/>
	<path class="st0" d="M3770.1,3025.8c9.4,7,18.7,14.1,28.2,21c4.2,3.1,8.8,5.6,13.7,8.7c6.5-10.6,12.8-20.8,19-30.9
		c-14.6-9-28.6-19.1-41.7-30.2c-6.7,7.8-13.3,15.6-20,23.3C3766.3,3021.1,3766.7,3023.3,3770.1,3025.8z"/>
	<path class="st0" d="M3673.5,2642.6c4.1-17.2,9.5-34,16.1-50.1c-5.3-2.2-10.5-4.3-15.8-6.5c-5.4-2.2-10.9-4.5-17.5-7.3
		c-6.1,19-11.9,36.9-17.9,55.5C3650.8,2637.2,3662.3,2639.9,3673.5,2642.6z"/>
	<path class="st0" d="M3715.5,2908.6c-9.1-14.8-17.1-30.3-23.9-46.4c-10,4.1-19.9,8.3-29.8,12.6c-1.1,0.5-2.4,3.4-1.9,4.5
		c7.6,16.1,15.5,32.1,23.8,49C3694.9,2921.3,3705.3,2915,3715.5,2908.6z"/>
	<path class="st0" d="M4565.4,2461.3c-7.6-15.5-7.7-15.5-23-7.6c-10.3,5.4-20.6,10.9-31,16.4c6.6,14.2,12.9,27.5,19.4,41.3
		c16.2-6.7,31.8-13.2,48.5-20.1C4574.4,2480.8,4570.1,2470.9,4565.4,2461.3z"/>
	<path class="st0" d="M4510,2656.2c-0.4-5.6-3-6.5-7.8-5.7c-12.8,2.2-25.7,4.5-38.6,6.1c-5.9,0.7-6.7,3.2-5.9,8.3
		c1.4,9.4,2.9,18.8,3.2,28.3c0.2,6.7,2.1,9.6,8.2,7.9c13.2-0.8,25.8-1.8,38.4-2.1c5.6-0.1,6.8-2.4,6.3-7.3
		C4512.4,2679.9,4510.9,2668.1,4510,2656.2z"/>
	<path class="st0" d="M4525.2,2507.8c-1.5-3.9-4-4.7-7.9-2.9c-12.5,5.7-25.1,11.1-37.6,16.9c-1.5,0.7-3.4,3.6-2.9,4.7
		c5.2,14.1,10.9,28,16.7,42.8c15.3-5,30.4-9.9,45.4-15.2c1.1-0.4,2.1-4.2,1.5-5.8C4535.6,2534.6,4530.4,2521.2,4525.2,2507.8z"/>
	<path class="st0" d="M4593.6,2394.2c-15.9,9.2-30.8,17.8-46,26.6c8,15.4,15.6,30,23.5,45.2c15.9-7.4,31.4-14.7,48-22.5
		C4610.5,2426.9,4602.2,2410.9,4593.6,2394.2z"/>
	<path class="st0" d="M4580.5,2368c5.1,8.5,10.1,16.7,15.1,25C4590.8,2384.5,4585.7,2376.2,4580.5,2368z"/>
	<path class="st0" d="M4444.7,2837.6c3.4-16,6.9-31.9,9.9-48c0.2-1.3-2.8-4.4-4.6-4.6c-14-2.1-28-3.9-42.1-5.4
		c-1.7-0.2-4.8,2-5.2,3.7c-2.9,12.5-5.3,25.1-8,37.6c-0.8,3.8,0.5,5.8,4.2,6.7c5.4,1.3,10.7,2.8,16,4.2c9.6,2.5,19.1,5,28.3,7.4
		C4444.2,2838.2,4444.7,2838,4444.7,2837.6z"/>
	<path class="st0" d="M4393.4,2818.3c-12.5-3-24.3-5.8-35.8-8.6c-4.2,17.2-9.8,33.9-16.4,49.9c11,4.5,22.1,9,34.3,14
		C4381.5,2855,4387.3,2837.2,4393.4,2818.3z"/>
	<path class="st0" d="M4460.9,2795.3c14.6,2.5,29.3,4.8,43.9,6.7c1.4,0.2,4.3-2,4.5-3.3c1.7-13.4,3.2-26.8,4.2-40.3
		c0.1-1.5-2.7-4.4-4.4-4.6c-12.8-1.1-25.6-1.7-38.4-2.5c-0.2-0.5-0.4-1-0.6-1.5c-2.9,1.5-8.1,2.7-8.4,4.6c-2,12-3.1,24.1-4.1,36.2
		C4457.4,2792.3,4459.5,2795.1,4460.9,2795.3z"/>
	<path class="st0" d="M4442.4,2846.6c1.2-3.7-0.8-4.7-3.7-5.4c-13.7-3.6-27.3-7.4-41-10.8c-1.6-0.4-5,1-5.5,2.3
		c-4.9,13.7-9.3,27.5-14.1,42c15.8,6.6,31.4,13.1,48.6,20.2C4432.2,2878,4437.2,2862.3,4442.4,2846.6z"/>
	<path class="st0" d="M4456.4,2776.3c0.7-9.3,1.5-18.5,2.3-27.8c0.1,0,0.3,0,0.4,0c0-4.6-0.3-9.3,0.1-13.9c0.3-4.9-1.6-6.7-6.5-6.6
		c-13.5,0.1-27-0.1-40.5-0.4c-4.5-0.1-5.5,1.9-5.7,6c-0.5,11.3-1.4,22.5-2.3,33.7c-0.7,8.1-0.1,8.8,8.3,9.8
		c12.3,1.5,24.6,2.9,36.8,4.9C4454.5,2782.8,4456.1,2780.9,4456.4,2776.3z"/>
	<path class="st0" d="M4291.5,2252.8c-6.9,11.3-13.3,22.9-20.1,34.3c-2.1,3.6-1.9,5.7,1.9,8c10.9,6.8,21.4,14.1,32.3,20.8
		c1.5,0.9,5.4,0.6,6.3-0.6c9.3-12.3,18.3-24.9,28.5-38.9c-14.7-9.4-28.6-18.4-42.7-26.9C4296.6,2248.8,4292.6,2251,4291.5,2252.8z"
		/>
	<path class="st0" d="M4505,2613.3c0.5,5.3,2.5,7.2,8.2,5.8c13.3-3.2,26.7-5.8,40.1-8.6c3.5-0.7,4.6-2.5,3.6-6.2
		c-4-14-7.7-28.1-11.4-42.3c-1.2-4.5-3.2-5.4-7.6-3.9c-13.2,4.5-26.6,8.3-39.7,13c-6.1,2.2-8.6,0-10.3-5.2
		c-1.8-5.4-3.8-10.7-5.9-16.7c-14,5.4-27.3,10.3-40.4,15.5c-3.3,1.3-6.2,3.6-10.1,6c-1.6-3.4-3.8-7.7-6.1-12.5
		c-16.1,6.7-31.8,13.2-47.4,19.7c4.8,14.4,9.2,28.1,14,41.6c0.5,1.5,4.1,2.9,6,2.6c7.4-1.5,14.6-3.7,21.8-5.7
		c7.3-2,15.1-2.9,21.5-6.4c6-3.3,11.4-1.4,17-2.3c-1.3,1.3-2.7,2.1-4.1,2.2c-6.2,0.8-7.1,3.8-5.5,9.6c2.8,10,4.8,20.2,6.6,30.5
		c0.7,4.1,2.4,5,6.2,4.4c11.6-2,23.2-3.6,34.7-5.6c12.4-2.2,12.4-2.3,10-14.4c-1.7-8.7-3.4-17.5-5.1-26.2c0.7-0.1,1.3-0.2,2-0.3
		C4503.8,2609.7,4504.8,2611.4,4505,2613.3z M4496,2598.3c-0.3-5.4-0.7-10.7-1.1-17.3C4501,2591.6,4501.1,2597.1,4496,2598.3z"/>
	<path class="st0" d="M4507.5,2702.1c-13.5,0.9-26.9,1.5-40.4,2.7c-1.7,0.2-4.6,2.9-4.6,4.6c-0.4,11.3-0.4,22.6,0,33.8
		c0.1,1.6,2.5,4.4,4,4.5c13.9,1.2,27.8,1.8,41.7,2.7c3.9,0.3,5.7-1.2,5.6-5.3c-0.1-6.2,0-12.4,0-18.6c0,0,0,0,0,0
		c0-6.2-0.2-12.4,0.1-18.6C4514.1,2703.3,4512.1,2701.8,4507.5,2702.1z"/>
	<path class="st0" d="M3576,2778.2c0.1,1.4,3.6,3.9,5.2,3.7c13.4-1.4,26.7-3.4,40.1-5c4.7-0.6,6.9-2.3,6.4-7.7
		c-1.2-12.3-1.9-24.7-2.6-37c-0.2-4.1-2.4-4.6-5.7-4.6c-7.1,0.1-14.1,0-21.2,0c0,0,0,0.1,0,0.1c-6.9,0-13.7,0.1-20.6,0
		c-3.1,0-5.3,0.5-5,4.3C3573.7,2747.4,3574.6,2762.8,3576,2778.2z"/>
	<path class="st0" d="M3578.6,2724.6c6.6-0.1,13.3,0,19.9,0c0,0,0,0,0,0c7.1,0,14.2,0,21.2,0c3.4,0,5.2-1.1,5.4-5
		c0.6-11.9,1.4-23.8,2.5-35.7c0.5-5.3-1.2-7.6-6.5-8.2c-13.2-1.5-26.3-3.2-39.4-5.1c-4.2-0.6-5.9,1.1-6.1,4.7
		c-1.1,14.5-1.9,29.1-3,43.7C3572.3,2723.4,3574.6,2724.6,3578.6,2724.6z"/>
	<path class="st0" d="M3586.6,2839.8c16.8-4.5,31.9-8.5,47-12.5c3.7-1,4-3.5,3.3-6.7c-2.6-12.3-5.2-24.6-7.5-37
		c-0.6-3.3-1.8-4.7-5.2-4.3c-14.5,1.9-28.9,3.6-43.4,5.8c-1.5,0.2-4,2.9-3.8,4C3580,2805.6,3583.2,2822.1,3586.6,2839.8z"/>
	<path class="st0" d="M4427.7,2199c-13.6-10.7-27.7-20.8-42.1-30.5c0,0.1-0.1,0.1-0.1,0.2c14.2,10.2,27.9,20.1,42.2,30.4
		C4427.6,2199.1,4427.7,2199.1,4427.7,2199z"/>
	<path class="st0" d="M3619.4,2114.8c1-0.6,2-1.2,3-1.7l-28.6-28.6c6.3,9.7,12.7,19.3,19.3,28.8
		C3614,2114.6,3618,2115.6,3619.4,2114.8z"/>
	<path class="st0" d="M3696,2174.5c-3.7-6.3-7.6-12.5-10.9-19c-2.3-4.5-4.7-4.8-8.8-2.1c-11.8,7.8-23.8,15.4-35.8,22.9
		c-4,2.5-4.9,4.8-1.9,8.9c8.1,11.1,16,22.3,23.6,33.8c2.8,4.1,5,3.6,8.6,1.2c8.6-5.9,17.4-11.4,26.2-17c1.3-0.8,2.9-1.2,4.4-1.8
		c0.2,0.4,0.5,0.9,0.7,1.3c-4,2.8-8,5.6-12.3,8.6c8.7,13.7,17.1,26.7,25.3,39.9c2,3.2,3.9,3.5,7,1.6c7.9-4.9,16-9.5,24-14.2
		c3.5-2.1,7.1-4.1,11-6.3c-8.2-15.8-16.1-30.8-24.1-46.1c-6.8,3.4-12.7,6.5-18.6,9.5c-0.4-0.8-0.8-1.6-1.3-2.4
		c13.8-7.3,27.7-14.7,42.2-22.4c-6.9-14.8-13.4-29.1-20.3-43.1c-0.6-1.3-4.3-2.6-5.6-1.9c-14.8,7.3-29.5,15-44.8,22.9
		c5.9,10.6,11.4,20.4,16.8,30.2c-0.6,0.3-1.2,0.7-1.8,1C3698.3,2178,3697,2176.3,3696,2174.5z"/>
	<path class="st0" d="M4291.9,2116.5c13.2,6.6,25.8,12.9,38.6,19.1C4317.8,2128.8,4305,2122.5,4291.9,2116.5z"/>
	<path class="st0" d="M4249.2,2102.7c-1.4-0.6-5,1.3-5.8,2.9c-2.4,4.7-3.9,9.9-5.7,14.9c-3.6,9.9-7.1,19.8-10.7,29.9
		c15.3,6.5,29.9,12.6,44.4,18.7c-0.3,0.8-0.6,1.6-0.9,2.4c-6.4-2.4-12.7-4.9-19.6-7.5c-6.2,15-12.1,29.3-18.1,43.5
		c-1.6,3.7,0.4,5,3.4,6.4c10.3,4.6,20.6,9.3,30.7,14.3c3.9,2,5.8,1.4,7.7-2.5c3.4-7,7.3-13.8,11-20.8c0.8,0.4,1.7,0.8,2.5,1.2
		c-4.3,8.7-8.5,17.3-12.8,26.1c12.2,7.2,24,14.2,36,20.9c1.1,0.6,4.4-0.3,5.2-1.5c8.7-13.1,17.1-26.4,25.6-39.8
		c-1.3-1.6-2.4-3.1-3.5-4.5c0.5-0.6,1-1.2,1.4-1.8c5.8,4.4,11.5,8.9,17.3,13.3c-4.1-1.9-8.2-3.9-12.6-6
		c-9.4,14.7-18.6,29.2-27.8,43.7c11.8,8.4,23,16.3,34.1,24.3c2.9,2.1,4.6,1.2,6.5-1.4c5.8-7.8,11.8-15.4,17.7-23.2
		c3.7-4.9,7.4-9.7,11.4-15.1c-5.5-4.1-10.3-7.6-15-11.2c-4.8-3.7-9.6-7.6-14.3-11.3c1.1,0.2,2.4,0.1,3.1,0.7c5.3,4.9,8.1,2,11.3-2.8
		c6-9.1,12.4-17.8,18.5-26.8c2.2-3.2,4.3-6.5,6.9-10.4c-14.8-9.3-28.8-18.1-42.8-27c-3.4-2.2-5.2-0.6-6.8,2.3
		c-3.2,5.6-6.5,11.2-9.7,16.7c-0.7-0.4-1.4-0.8-2-1.2c3.8-7,7.6-13.9,11.9-21.8c-14.2-7.4-28.1-14.3-41.6-21.7
		c-5.4-2.9-8-2.2-10.5,3.5c-4.9,11.6-10.5,23-15.9,34.4c-0.9,2-2.2,3.8-3.4,5.7c-0.6-0.3-1.2-0.6-1.7-0.9
		c7.2-15.7,14.4-31.3,22-47.9C4279.9,2115.1,4264.6,2108.7,4249.2,2102.7z"/>
	<path class="st0" d="M3683.7,2524.3c-8.2,16.6-16.2,32.6-23.8,48.7c-0.5,1.1,1.7,4.6,3.4,5.4c8.6,4,17.5,7.5,26.3,11.1
		c0.3,0.1,0.7,0.3,1,0.4c6.8-16.3,14.7-31.9,23.7-46.8C3704.6,2537.1,3694.5,2531,3683.7,2524.3z"/>
	<path class="st0" d="M3546.3,2425.4c8.5-12,16.5-23.1,24.3-34.4c0.8-1.1,0.5-4.2-0.4-4.9c-12.7-10-25.5-19.8-39.4-30.4
		c-10,14.2-19.3,27.6-29,41.5C3517.2,2406.9,3531.7,2416.1,3546.3,2425.4z"/>
	<path class="st0" d="M3545.6,2331.9c-2.2-1.3-4.5-2.4-6.5-4c-11.2-9.2-22.3-18.6-34.3-28.6c-11.4,14.9-22.3,29-33.6,43.7
		c14.9,10.4,28.9,20.3,43.3,30.3c6-8,11.4-15.2,16.8-22.5C3536,2344.5,3540.8,2338.2,3545.6,2331.9z"/>
	<path class="st0" d="M4390.2,2391.2c10.6,13.1,20.7,25.6,31.2,38.5c14.1-10.3,27.8-20.2,42.5-30.9c-9.8-12.1-19-23.7-28.4-35
		c-6.4-7.7-6.5-7.5-14.1-0.7C4411.1,2372.4,4400.8,2381.7,4390.2,2391.2z"/>
	<path class="st0" d="M3604.2,2199.1c14.4-10.4,28.1-20.3,42.2-30.4c-10.7-16.1-20.9-31.6-31.8-48.1c-15.8,11.5-30.6,22.2-45.8,33.3
		C3581.1,2169.7,3592.6,2184.3,3604.2,2199.1z"/>
	<path class="st0" d="M4461.1,2382.8c8.1-5.8,15.9-11.9,23.8-18c4.7-3.6,9.2-7.3,14.2-11.2c-5.9-7.5-11.2-14.4-16.5-21.1
		c14.4-12,28-23.5,42.5-35.6c-12.1-12.9-23.4-25.3-35-37.4c-0.9-0.9-4.1-1.1-4.9-0.3c-11.6,11.2-23,22.6-34.7,34.2
		c6.9,7.5,13.3,14.4,19,20.6c-15.8,10.7-27.7,24.5-41.7,36.2c9.4,11.4,18.2,22.1,27.3,32.6C4456,2384,4459.7,2383.8,4461.1,2382.8z"
		/>
	<path class="st0" d="M4397.4,2758.1c-10.3-0.9-20.6-1.6-30.9-2.3c-1.5,17.3-4.3,34.3-8.2,50.7c9.3,2.1,18.5,4.3,27.7,6.9
		c5.7,1.6,7.8-0.4,8.7-5.5c2.3-13.5,4.6-27,6.7-39.8C4399.9,2764.2,4404.6,2758.7,4397.4,2758.1z"/>
	<path class="st0" d="M4041.9,2373.9c0.6-9.2,1.3-18.4,2.2-27.6c0.5-5.6-2.3-7.1-6.9-7.2c-7.1-0.1-14.1,0-21.2,0c0,0.1,0,0.2,0,0.3
		c-7.7,0-15.5-0.1-23.2,0c-3.3,0-5.4,1.4-5.1,5.3c0.8,9.7,1.6,19.4,2.4,29.1c8.5-0.6,17.1-0.9,25.8-0.9
		C4024.6,2373,4033.3,2373.3,4041.9,2373.9z"/>
	<path class="st0" d="M4452.4,2648.5c-2.4-11.6-4.9-23.2-7.6-35.6c-16.5,4.4-31.8,8.3-47.1,12.8c-1.5,0.4-3,4.6-2.6,6.7
		c2.1,12.2,5,24.2,7.2,36.4c0.7,3.6,1.9,5,5.6,4.5c13.8-1.9,27.6-3.6,41.5-5.4c4.2-0.5,6.5-2.1,5.2-6.9
		C4453.5,2656.8,4453.2,2652.6,4452.4,2648.5z"/>
	<path class="st0" d="M3636.3,2754.8c9.5-1,19-1.7,28.6-2.2c-0.7-9.1-1.1-18.3-1.1-27.6c0-8.4,0.3-16.8,0.9-25.1
		c-10.2-0.7-20.3-1.4-30.5-2.3c-4.1-0.4-5.7,1-5.7,5c0.1,7.7,0,15.5,0,23.2c0,0-0.1,0-0.1,0c0,7.1,0.2,14.2-0.1,21.3
		C3628.2,2752.8,3629.7,2755.5,3636.3,2754.8z"/>
	<path class="st0" d="M4450.3,2670.4c-13.4,1.9-26.7,3.7-40.1,5.3c-5,0.6-6.7,2.8-6.2,7.8c1.1,11.9,2,23.8,2.5,35.7
		c0.2,4.2,2.1,5.3,5.8,5.3c6.9-0.1,13.7,0,20.6,0c6.9,0,13.7-0.1,20.6,0c3.8,0.1,5.9-1.3,5.6-5.4c-1-14.8-1.9-29.6-2.9-44.4
		C4455.9,2671.2,4454,2669.9,4450.3,2670.4z"/>
	<path class="st0" d="M3356,2727.4c-3.7,0-5.9,0.9-5.7,5.2c0.6,14.8,1,29.6,1.5,44.5c0.1,4,1.8,6,6.2,5.6
		c13.9-1.4,27.8-2.6,41.6-3.7c4.1-0.3,5.2-2.2,4.9-6c-0.6-9.9-1-19.9-1.3-29.9c-0.1-2.2,0.3-4.4,0.4-6.6c0.7,0,1.4,0,2,0
		c0.3,4.8,0.6,9.6,1,14.9c16.6-0.8,32.3-1.4,47.9-2.4c1.5-0.1,3.8-3.3,3.9-5.1c0.4-11.5,0-23,0.3-34.5c0.1-4.3-1.4-5.8-5.7-5.9
		c-11.5-0.3-23-1-34.5-1.5c-11-0.5-11-0.5-12.7,10.3c-0.1,0.3-0.5,0.6-1.7,2c0-13.8,0-26.6,0-40.1c-15.1-1.4-29.8-2.5-44.5-4.1
		c-6-0.7-7.9,1.8-8,7.3c-0.3,12.6-1,25.2-1.3,37.8c-0.2,10.1-0.1,10.1,10.1,10.1c10.1,0,20.2,0,30.3,0c0,0.6,0,1.3,0,1.9
		c-2.1,0.1-4.1,0.3-6.2,0.3C3375.1,2727.4,3365.5,2727.5,3356,2727.4z"/>
	<path class="st0" d="M3720.2,3322.6c12.8,6.5,12.9,6.4,19.1-6.6c5.4-11.3,10.6-22.8,16-34.5c-7.8-3.9-14.9-7.4-21.9-11.1
		c-6.8-3.6-13.5-7.3-20.2-11c0.5-0.8,0.9-1.6,1.4-2.4c5.9,3.1,11.9,6.1,18.5,9.5c8.1-15.6,15.9-30.6,23.9-46.1
		c-12.5-7.3-24.4-14.4-36.5-21.2c-1.1-0.6-4.4,1.1-5.4,2.5c-6.4,9.5-12.5,19.3-18.7,29.1c-2.2,3.5-4.2,7-6.3,10.5
		c3.7,2.8,6.7,5,9.7,7.2c-0.4,0.6-0.8,1.2-1.2,1.8c-7.7-4.9-15.5-9.8-23.1-14.8c-9.8-6.4-9.8-6.5-16.7,3.4
		c-7.7,11-15.4,22-23.7,33.8c14.2,9,27.8,17.3,41.1,26.1c4.8,3.2,7.1,2.1,9.6-2.7c4.9-9.1,10.3-17.9,15.5-26.8
		c0.7,0.4,1.4,0.8,2.2,1.1c-6.1,10.8-12.2,21.7-18.7,33.2C3696.7,3310.3,3708.4,3316.6,3720.2,3322.6z"/>
	<path class="st0" d="M4343.9,3292c7.4,12.7,5.3,10.9,16.3,4.3c12.2-7.4,24.1-15.4,36.8-23.5c-9.9-14.1-19-27.3-28.5-40.3
		c-0.8-1.1-4.8-1.2-6.4-0.2c-8.2,4.9-16,10.3-24,15.4c-2.5,1.6-5.1,2.9-7.7,4.3c-0.3-0.6-0.7-1.1-1-1.7c4.2-2.9,8.4-5.7,12.9-8.9
		c-8.9-13.9-17.4-27.4-26.2-40.7c-0.7-1.1-3.7-2-4.7-1.4c-12.1,6.8-24,13.9-36.4,21.2c8,15.4,15.9,30.4,24,46
		c5.9-3,11.2-5.7,16.4-8.4c0.4,0.5,0.8,1,1.2,1.6c-2,1.4-3.9,3.1-6,4.3c-9.6,5.1-19.2,10.1-28.9,15c-2.8,1.4-5.1,2.8-3.3,6.5
		c6.3,13.2,12.3,26.5,18.8,39.6c0.6,1.3,3.9,2.6,5.1,2.1c15-7.4,29.9-15.2,45.3-23.2c-6.9-12.2-13.2-23.3-19.5-34.5
		c0.7-0.4,1.4-0.8,2.1-1.2C4334.7,3276.1,4339.3,3284.1,4343.9,3292z"/>
	<path class="st0" d="M4389.6,2482c13.9-9,27.4-17.7,40.8-26.7c1.1-0.7,1.9-3.8,1.3-4.8c-8.6-12.5-17.5-24.8-26.8-37.8
		c-14.3,11.6-27.7,22.4-41.3,33.5C4372.5,2458.4,4380.9,2470,4389.6,2482z"/>
	<path class="st0" d="M3990.1,3076.1c-0.8,10.3-1.6,20.5-2.4,30.8c-0.3,3.8,0.9,6,5,6c15.5,0,31,0,46.4,0c4.2,0,5.2-2.4,4.9-6.1
		c-0.8-10.2-1.6-20.4-2.3-30.7c-8.5,0.6-17.2,0.9-25.9,0.9C4007.2,3077,3998.6,3076.7,3990.1,3076.1z"/>
	<path class="st0" d="M3878.5,2071.7c91.7-17.7,183.1-18,275.2,0.2c0-0.2,0-0.4,0.1-0.6c-34.1-7.2-69.2-11.7-105-13.5
		c-20.3-0.1-40.7-0.2-61-0.2c-37.3,1.5-73.8,6.1-109.3,13.6C3878.4,2071.3,3878.5,2071.5,3878.5,2071.7z"/>
	<path class="st0" d="M4051.3,3335.7c12.3-1.5,24.7-2.7,37-3.7c4.7-0.4,5.5-2.6,4.9-6.5c-1.9-13.8-3.7-27.6-5.5-41.5
		c-0.5-3.6-2.2-4.7-5.9-4.3c-9.7,1.1-19.4,1.9-29.1,2.9c-10.7,1.1-10.7,1.2-9.2,12c0,11.3,0.2,22.6-0.1,33.9
		C4043.3,3334.4,4045.4,3336.3,4051.3,3335.7z"/>
	<path class="st0" d="M4071.9,3272.5c-1.5-13.4-3-26.8-4.2-40.3c-0.5-5.2-2.9-6.5-7.9-6.1c-11.3,0.8-22.6,1.4-33.8,1.7
		c-6,0.1-9.2,2-8.5,8.6c0.3,2.5-0.3,5.1-0.4,7.7c-0.8,0-1.6,0-2.4,0.1c0-2.8-0.3-5.5,0.1-8.3c0.7-5.8-1.7-7.8-7.5-7.9
		c-11.5-0.2-23-0.7-34.5-1.8c-6.1-0.6-8.3,1.6-8.8,7.3c-1.2,13-2.5,26-4,39c-0.6,5.3,2.6,5.9,6.3,6.1c12.2,0.7,24.3,1.4,36.5,1.9
		c10.7,0.5,10.7,0.4,12.2-10.2c0.1-0.5,0.6-1,1.8-3c0.3,3.6,0.5,5.7,0.6,7.7c0.1,3.7,1.6,5.8,5.7,5.6c14.8-0.8,29.6-1.5,44.4-2.3
		C4071,3278,4072.3,3276.2,4071.9,3272.5z"/>
	<path class="st0" d="M3452.8,2700c4,0.3,6-0.8,6.3-5.3c0.8-11.7,2.3-23.3,3.2-35c0.1-1.7-1.9-4.8-3.3-5
		c-14.4-2.2-28.9-3.9-43.4-5.8c-3.1-0.4-5,0.5-5.3,4.1c-1.1,13-2.5,26-3.8,39c-0.5,4.5,1.2,6.7,5.8,6.6c7.1-0.1,14.2,0,21.3,0
		c0,0.2,0,0.4,0,0.6C3440,2699.4,3446.4,2699.6,3452.8,2700z"/>
	<path class="st0" d="M3989.6,3309c0-6.9,0.3-13.7-0.2-20.6c-0.1-1.8-2.5-4.8-4.1-5c-12.1-1.6-24.2-2.7-36.3-3.6
		c-1.5-0.1-4.4,1.8-4.6,3.1c-2.2,14.7-4.2,29.4-5.8,44.1c-0.2,1.4,2.2,4.4,3.7,4.6c13.2,1.6,26.4,2.7,39.6,4.1
		c4.7,0.5,6.3-1.6,6.2-6.1c-0.2-6.9,0-13.7,0-20.6C3988.6,3309,3989.1,3309,3989.6,3309z"/>
	<path class="st0" d="M4032.1,3283.5c-11.1,0.2-22.1,0.2-33.2,0c-4-0.1-5.6,1.6-5.8,5.4c-0.6,13.7-1.1,27.4-1.8,41.1
		c-0.2,4.5,1.9,5.8,6,5.7c6.2-0.2,12.4,0,18.6,0c6,0,12-0.2,17.9,0.1c4.9,0.2,6.7-1.6,6.4-6.6c-0.8-13.3-1.3-26.5-1.6-39.8
		C4038.6,3284.7,4036.6,3283.4,4032.1,3283.5z"/>
	<path class="st0" d="M4281.6,2111.9c-19.8-8.6-40-16.2-60.8-22.9c0,0,0,0,0,0C4241.4,2096.8,4261,2104.2,4281.6,2111.9
		C4281.6,2112,4281.6,2112,4281.6,2111.9z"/>
	<path class="st0" d="M3524.7,2750.5c13.2-1.1,26.5-1.8,39.7-2.5c3.7-0.2,5.1-1.7,5.1-5.3c-0.1-11.1,0.2-22.1-0.2-33.2
		c-0.1-1.7-2.8-4.6-4.5-4.7c-13.4-1.2-26.9-1.7-40.4-2.7c-5-0.4-6.7,1.6-6.5,6.4c0.2,6,0.1,11.9,0.1,17.9c0,0,0,0,0,0
		c0,5.8,0.2,11.5-0.1,17.2C3517.5,2748.8,3519.3,2750.9,3524.7,2750.5z"/>
	<path class="st0" d="M4498.9,2853.8c3.2-15.2,6.4-30.1,9.1-45c0.2-1.1-2.4-3.7-4-3.9c-14.2-2.5-28.4-4.5-42.6-6.8
		c-4.1-0.7-5.3,1-6,4.8c-1.9,10.2-3.7,20.5-6.6,30.5c-1.8,6.4,0.3,8.3,5.9,9.4c5,1,9.8,2.7,14.7,4.1c-0.2,0.8-0.4,1.6-0.7,2.4
		c-5.4-1.3-10.8-2.5-16-4.1c-4.3-1.3-6.5-0.3-7.7,4.3c-1.9,7.5-4.5,14.8-6.8,22.2c-1.4,4.3-2.9,8.6-4.4,13.1
		c15.1,5.8,29.1,11,43.1,16.5c3.9,1.5,5.8,0.3,7-3.4c2.6-7.8,5.3-15.5,7.8-23.3c1.8-5.6,3.3-11.3,5-17.1c-5.1-1.9-9.2-3.4-13.3-4.9
		c0.2-0.6,0.4-1.2,0.5-1.7C4488.5,2851.8,4493.1,2852.7,4498.9,2853.8z"/>
	<path class="st0" d="M3541.4,2855.3c-6,0.8-6.2,4.3-4.6,9c3.8,11.1,7.2,22.3,11.2,33.3c0.7,1.8,4.1,4.4,5.3,4
		c14.9-5.3,29.7-11,44.7-16.7c-3.8-11.7-7.7-22.6-10.6-33.7c-1.7-6.5-4.6-7.5-10.4-5.5c-5.5,1.8-11.2,2.9-16.8,4.4
		c-0.2-0.7-0.4-1.4-0.7-2c2.1-0.8,4.2-1.8,6.4-2.4c4.7-1.3,9.6-2.1,14-3.9c1.7-0.7,3.9-3.8,3.6-5.4c-2.4-12.6-5.4-25-8.4-38.8
		c-12.4,1.9-24.4,3.9-36.4,5.6c-15.3,2.1-15.3,2.1-12.8,17c0.1,0.4,0.1,0.9,0.2,1.3c2.4,10.7,4.7,21.4,7.2,32.4
		c4.8-0.8,8.5-1.4,12.2-2.1C3544.3,2853.9,3542.9,2855.1,3541.4,2855.3z"/>
	<path class="st0" d="M3529,2648c8.3,1.2,16.6,2.6,24.9,3.8c6.9,1,13.9,2,21.1,3c2.8-12.8,5.2-24.9,8.3-36.9c1.3-5-0.4-6.9-4.9-7.9
		c-3.2-0.7-6.2-1.9-9.3-2.9c0.2-0.6,0.4-1.2,0.6-1.8c8.7,3,19.1,0.6,27.5,9.1c-3.9-0.4-6.6-0.7-9.8-1.1c-0.7,2.3-1.5,4.3-1.9,6.4
		c-2.7,13.4-5.2,27-8.1,40.3c-1.1,5,0.5,6.9,5.2,7.5c13.6,1.7,27.2,3.4,40.8,5.3c3.9,0.5,5.4-0.6,6.1-4.6
		c1.9-11.1,4.1-22.2,6.5-33.2c1.9-9,2.1-9-6.7-11.2c-5.9-1.5-11.7-3.2-17.6-4.8c0.2-0.7,0.3-1.4,0.5-2.1c2.1,0.3,4.3,0.5,6.3,1
		c5.4,1.3,10.7,3.1,16.1,4.1c1.5,0.3,4.6-1,5-2.2c4.8-13.7,9.3-27.6,14.1-42.2c-15.8-6.5-31.4-13-47.5-19.7c-2.2,4.7-4.2,9-6.2,13.2
		c-2.3-2.1-3.8-4.2-5.7-5c-13.2-5.3-26.4-10.3-39.6-15.4c-3.3-1.3-5.2-0.9-6.5,2.8c-3.5,10.1-7.5,20.1-11.3,30.2
		c0.9-6.3-0.1-12.4,3-18.8c5.9-11.8,9.7-24.7,14.7-37c1.5-3.6,0.3-5.3-2.9-6.7c-12.4-5.4-24.8-10.8-37.1-16.4
		c-4.1-1.9-6.6-1.3-8.3,3.1c-5,13.3-10,26.5-15.1,39.8c-1.6,4-0.6,6,3.7,7.2c8.9,2.6,17.8,5.5,26.6,8.5c2.3,0.8,4.4,2.2,6.6,3.4
		c-0.3,0.5-0.5,1.1-0.8,1.6c-1.8-0.5-3.7-0.8-5.5-1.4c-9.3-3-18.6-5.8-27.8-9.1c-4.3-1.5-6.4-1-7.6,3.7
		c-3.6,14.2-7.4,28.3-11.4,42.3c-1.2,4.2,0.4,5.7,4,6.4c13.4,2.8,26.9,5.3,40.3,8.4c5.1,1.2,6.9-0.5,7.4-5.2
		c0.2-2.1,1.4-4.2,2.1-6.3c0.6,0.2,1.2,0.3,1.7,0.5c-2.2,11-4.1,22-6.6,32.9C3522.8,2645.9,3524.6,2647.4,3529,2648z"/>
	<path class="st0" d="M3455.1,2361.4c0.5-0.9-0.7-3.8-1.9-4.6c-14.3-9.7-28.7-19.1-43.9-29.2c-4.2,7-8.4,13.9-12.5,20.8l41.2,41.2
		c-0.8,1.4-1.6,2.8-2.4,4.2C3442.3,2382.9,3448.8,2372.2,3455.1,2361.4z"/>
	<path class="st0" d="M4634,2471.3c-8.4-20.5-17.9-40.5-28.2-60c0.2,0.6,0.5,1.3,1,2.1c5.2,9.5,9.9,19.3,14.6,29.1
		c2,4.2,3.4,8.7,5.1,13.1c-0.5,0.2-1,0.4-1.5,0.5c-1.7-3-3.3-6-5.4-9.7c-15.1,7.1-29.9,13.9-44.6,21.1c-0.9,0.4-1.2,3.9-0.5,5.5
		c4.9,12.4,10.2,24.5,15,36.9c1.6,4,3.6,4.8,7.5,3.2c8.8-3.5,17.9-6.5,26.8-9.8c5.5-2,10.9-4.2,16.8-6.5
		c-3.8-10.2-7.3-19.5-10.8-28.8c0.7-0.3,1.3-0.6,2-0.8C4632.5,2468.6,4633.3,2469.9,4634,2471.3z"/>
	<path class="st0" d="M3750.2,2112c20.4-7.7,40-15.1,60.7-22.8c0,0,0-0.1,0-0.1C3790.2,2095.7,3770,2103.3,3750.2,2112
		C3750.2,2111.9,3750.2,2111.9,3750.2,2112z"/>
	<path class="st0" d="M3981.4,2116.9c-13,1.4-26,2.7-39,3.8c-3.7,0.3-4.4,2.4-4,5.4c1.9,14.3,3.6,28.6,5.8,42.8
		c0.2,1.5,3.5,3.7,5.3,3.6c9.3-0.5,18.5-1.5,27.8-2.4c12.3-1.3,12.3-1.4,10.8-13.7c0-11.1-0.2-22.1,0.1-33.2
		C3988.3,2118,3986.2,2116.4,3981.4,2116.9z"/>
	<path class="st0" d="M4405.1,3039.7c9.1-12.8,17.8-24.8,26.2-37c0.8-1.1,0.3-4.6-0.7-5.3c-13.4-9-27-17.7-41-26.9
		c-4.9,6.8-9.5,13.2-14.1,19.6c-0.6-0.4-1.2-0.9-1.9-1.3c8.3-13,16.6-26,25.1-39.4c-14.6-8.4-27.7-16.2-41.1-23.5
		c-1.4-0.8-5.3,0.2-6.3,1.6c-7.3,10.3-14.1,21-21.2,31.4c-2.2,3.1-1.6,5.1,1.2,7.2c3,2.3,5.8,4.9,8.7,7.3c-0.3,0.4-0.6,0.8-0.9,1.2
		c-4.6-2.8-9.2-5.6-15.2-9.2c-2.6,3.3-5.3,6.7-8,10c-0.3-0.3-0.7-0.7-1-1c10.3-14.5,20.5-28.9,31.2-44c-11-6.7-21.3-13-31.4-19.2
		c-9.2,14.8-19.5,28.8-30.8,42c3.4,3,6.8,5.9,10.2,8.8c-0.5,0.6-1.1,1.3-1.6,1.9c-3.5-2.9-7-5.7-10.5-8.5
		c-11.4,13.1-23.7,25.4-36.9,36.7c7.7,9.1,15.7,18.3,23.7,27.7c6.3-5.4,11.7-9.9,17.1-14.5c0.5,0.6,1.1,1.2,1.6,1.8
		c-10.6,9.4-21.3,18.8-32.3,28.5c10.6,13.8,21.1,27.5,32.3,42.1c12.8-11.4,24.7-22.2,36.9-32.8c3.6-3.2,3.4-5.3,0-8.5
		c-8.8-8.5-17.3-17.2-25.9-25.9c-1.3-1.3-2.3-3-3.4-4.4c0.5-0.4,1-0.8,1.5-1.2c11.2,11.1,22.5,22.1,34.1,33.6
		c8.3-8.9,15.9-16.9,23.5-25c0.5,0.4,0.9,0.8,1.4,1.1c-1.2,1.7-2.2,3.5-3.6,5c-4.8,5.5-9.6,11.1-14.8,16.2c-3.7,3.6-3.9,6-0.1,9.6
		c7.6,7.1,14.8,14.7,22.2,22c3.4,3.4,6.8,6.7,10.8,10.7c11.2-12.4,21.7-24,33-36.6c-10.9-8.9-20.9-17-30.8-25.2
		c0.5-0.6,1-1.3,1.5-1.9C4383.9,3022.8,4394.1,3030.9,4405.1,3039.7z"/>
	<path class="st0" d="M3440.4,2273c1,0.8,4.1,0.6,4.9-0.3c11.3-13,22.3-26.3,34-40.1c-8.5-8-16.9-15.9-25.3-23.7
		c0.5-0.6,1-1.1,1.6-1.7c8.4,7.6,16.8,15.1,24.4,22c12.9-13.1,25.6-25.9,38.8-39.2c-7-7.6-14.5-15.7-22.3-24.1l-84.8,84.8
		C3421.4,2258.3,3430.9,2265.7,3440.4,2273z"/>
	<path class="st0" d="M4220,2328.8c11.4,6.7,22.2,12.8,32.7,19.4c4.1,2.6,6.2,1.6,8.5-2c6.5-10.3,13.2-20.5,19.7-30.7
		c1.7-2.7,3.3-5.5,5.4-9c-14.2-8.2-27.7-16-42.5-24.5C4235.6,2298.3,4227.8,2313.5,4220,2328.8z"/>
	<path class="st0" d="M4474.4,2239.2c0.1,0.1,0.1,0.2,0.2,0.3c5.9,6.3,12.2,12.2,18.4,18.2c3.4,3.3,6.8,8.4,10.3,10.6
		C4494,2258.3,4484.3,2248.6,4474.4,2239.2z"/>
	<path class="st0" d="M4413.4,2254.9c-0.8,0.9-0.8,3.7,0,4.5c11.4,10.7,23.1,21.1,35.4,32.3c9.1-9.3,18.1-18.5,27.1-27.5
		c9.7-9.7,9.9-9.8-0.2-19.1c-10-9.3-20.1-18.4-30.7-28C4434,2230.2,4423.6,2242.4,4413.4,2254.9z"/>
	<path class="st0" d="M4512.9,2278.8c7.4,8.7,14.7,17.2,22,25.8C4527.8,2295.8,4520.5,2287.2,4512.9,2278.8z"/>
	<path class="st0" d="M4300.1,2378.1c-0.7,0.9,0.1,3.9,1.2,4.9c8.5,8,17.2,15.8,26.1,23.5c1.2,1,4.5,1.3,5.4,0.4
		c11.7-11.1,23.1-22.4,35.3-34.4c-12.7-11.4-24.4-22-36.9-33.3C4320.4,2352.6,4310.1,2365.3,4300.1,2378.1z"/>
	<path class="st0" d="M4384.9,2319c-6,6.2-11.7,12.7-17.5,19.1c-4.7,5.2-9.3,10.5-13.4,15c11.9,11.9,23.3,23.2,35.1,35
		c12-10.8,24.6-22.2,38.4-34.6c-12.7-12.3-24.6-24.1-36.9-35.6C4389.7,2317.1,4386,2317.8,4384.9,2319z"/>
	<path class="st0" d="M4426,2281.2c-9.5,10.5-19.1,21-28.7,31.3c-2.6,2.7-2.3,4.6,0.3,7.1c8.4,8.2,16.6,16.6,24.9,24.9
		c1,1,2.3,1.8,3.6,2.8c1-0.7,1.8-1.1,2.5-1.6c10.9-10,22-19.9,32.6-30.2c1-0.9,0.5-5.1-0.7-6.4c-9.1-9.6-18.7-18.8-28-28.3
		C4429.8,2278.1,4428.2,2278.8,4426,2281.2z"/>
	<path class="st0" d="M4526.9,2299.3c-14.3,12.1-27.1,22.9-40.2,33.9c10.5,13.6,20.5,26.7,30.9,40.1c14.5-10.2,28.4-19.9,43.2-30.3
		C4549.2,2328,4538.1,2313.8,4526.9,2299.3z"/>
	<path class="st0" d="M4396,2499.1c-8.2-12.6-16.6-25.2-25.2-37.5c-0.8-1.1-4.6-1.7-5.7-0.9c-11.6,8.5-23,17.3-34.3,26.3
		c-1.2,0.9-1.9,4.3-1.2,5.4c7.8,12,16,23.9,24.5,36.4c14-8.1,27.8-16,41.4-24.2C4396.5,2504,4396.9,2500.4,4396,2499.1z"/>
	<path class="st0" d="M4467.6,2405.2c-0.8-1.1-4.6-1.6-5.8-0.8c-12,8.3-23.8,17-35.4,25.8c-1.1,0.9-1.8,4.2-1.1,5.3
		c8,12.7,16.3,25.1,24.9,38.2c14.8-8.6,29.5-17,45.6-26.3C4486,2432.7,4477,2418.8,4467.6,2405.2z"/>
	<path class="st0" d="M4530,2396.8c-9.9-14.1-19.2-27.3-29-41.2c-14.4,11.1-27.9,21.4-41.9,32.1c8.4,12.2,16.2,23.7,24.4,34.9
		c0.7,1,4.4,1,5.9,0.1c9.5-5.7,18.7-11.7,28-17.7C4521.5,2402.5,4525.4,2399.8,4530,2396.8z"/>
	<path class="st0" d="M4460.2,2498.1c-8.5-14.7-16.5-28.4-24.8-42.6c-14.5,9.4-28,18.2-41.4,27.2c-1,0.7-1.5,3.7-0.9,4.9
		c6.4,11.3,13.1,22.5,20.2,34.6C4429,2514.1,4444.2,2506.3,4460.2,2498.1z"/>
	<path class="st0" d="M3902.2,2307.7c-0.8-2.9-1.8-5.7-3-9.6c-17.5,5.8-34.1,11.3-51.9,17.2c7.2,17.3,13.7,32.9,20.3,48.7
		c13.9-4.6,27-9.2,40.3-13.3c4.2-1.3,5.1-3.2,4-7.2C3908.5,2331.7,3905.4,2319.7,3902.2,2307.7z"/>
	<path class="st0" d="M3840.8,2274.3c-1.7-4.2-3.3-8.4-5.4-13.7c-15.3,6.8-29.7,13.2-44.9,20c8.3,16.3,16,31.5,23.9,46.9
		c12.9-5.6,25.1-10.7,37-16.4c1.2-0.6,1.8-4.6,1.1-6.5C3848.9,2294.4,3844.8,2284.4,3840.8,2274.3z"/>
	<path class="st0" d="M3783.8,2284.5c-9.4,5.4-18.9,10.7-28.2,16.1c-3.3,1.9-6.5,4.3-10,6.7c9.1,14,17.7,27.4,26.6,40.6
		c0.7,1.1,3.7,2,4.8,1.4c11.5-6.5,22.9-13.3,34.9-20.4c-7.5-14.7-14.7-28.6-21.7-42.6C3788.5,2282.9,3786.6,2282.8,3783.8,2284.5z"
		/>
	<path class="st0" d="M4260.5,2352.4c12,8.7,23.3,16.9,35.4,25.6c11-13.6,21.7-26.8,33-40.8c-13.4-9.7-26.1-18.9-39.8-28.9
		C4279.1,2323.7,4269.9,2337.9,4260.5,2352.4z"/>
	<path class="st0" d="M3868.8,2366.8c4.8,11.8,9,22.2,13.3,32.5c16.1-6.6,32.7-12.1,49.9-16.3c-2.7-11.1-5.3-22.3-8.1-34
		C3905.2,2355,3887.5,2360.7,3868.8,2366.8z"/>
	<path class="st0" d="M3703,2337.4c11.5,14.2,22.2,27.3,33.1,40.7c12-8.7,23.4-17,35.3-25.7c-9.4-14.5-18.7-28.7-28.7-44
		C3728.8,2318.5,3716.1,2327.8,3703,2337.4z"/>
	<path class="st0" d="M4185,2321.2c-1.9,4.7-3.9,9.4-5.9,14.1c-4.1,10-8.1,20-12.2,30.1c14.7,7.3,28.7,14.3,43.3,21.5
		c8.2-14.2,16.4-28.1,24.2-42.2c0.6-1.1-0.8-4.7-2.2-5.4c-13.6-7-27.3-13.7-41-20.5C4188.1,2317.2,4186.2,2318.1,4185,2321.2z"/>
	<path class="st0" d="M3648.7,2311c-0.9,0.8-0.4,4.6,0.7,5.9c4.4,5.5,9.4,10.6,14.1,15.9c5.8,6.3,11.5,12.7,17.4,19.1
		c13-10.5,25.3-20.5,38.5-31.2c-10.3-14.2-20.3-27.9-31.1-42.8C3674.8,2289.3,3661.6,2300,3648.7,2311z"/>
	<path class="st0" d="M4335.4,2409c-1,1-0.7,4.6,0.4,5.9c7.4,8.8,15.3,17.1,22.8,25.8c2.5,3,4.5,2.7,7.2,0.4
		c8.2-6.8,16.4-13.4,24.7-20.1c3.9-3.2,7.8-6.4,12.5-10.3c-11.1-12.3-21.7-24.1-33-36.7C4357.7,2386.3,4346.4,2397.5,4335.4,2409z"
		/>
	<path class="st0" d="M4181.8,2315.3c-15-5.2-30.1-10.3-45.1-15.6c-3.8-1.3-5.1,0.4-6,3.8c-3.5,13.3-7,26.5-10.8,39.7
		c-1.3,4.4-0.2,6.4,4.2,7.7c12.9,4,25.6,8.4,40,13.2c6.5-15.6,13-31.4,19.5-47C4182.8,2316.2,4182.4,2315.5,4181.8,2315.3z"/>
	<path class="st0" d="M4099.9,2383.1c17.1,4.2,33.8,9.7,49.9,16.3c4.3-10.4,8.6-20.9,13.3-32.5c-18.8-6-36.6-11.8-55-17.7
		C4105.2,2361,4102.5,2372.1,4099.9,2383.1z"/>
	<path class="st0" d="M4345.8,2521.3c-11.2-15.3-22.2-30.5-33.6-46.1c-9.8,8.4-18.5,15.7-27,23c11.2,13.3,21.5,27.5,30.7,42.4
		c8.7-5.3,17.3-10.6,25.8-15.9C4342.7,2524.1,4343.6,2523.2,4345.8,2521.3z"/>
	<path class="st0" d="M3721.6,2472.9c9.6,8.2,18.6,15.9,27,23c11.4-13.3,23.7-25.7,36.9-37.1c-7.3-8.5-14.9-17.4-23.1-26.9
		C3748.4,2446,3735.3,2459.2,3721.6,2472.9z"/>
	<path class="st0" d="M4371.6,2572.5c-1.9-5.4-4.3-10.7-6.9-15.8c-5.4-10.5-11.1-21-17-32c-10.7,6.5-20.5,12.4-30.3,18.4
		c9,14.9,17,30.6,23.7,46.8c9.6-4,19.1-8,28.5-12.1C4370.8,2577.3,4372.1,2573.9,4371.6,2572.5z"/>
	<path class="st0" d="M4279.6,2370.2c-11.8-7.8-23.6-15.7-35.4-23.6c-3.8-2.6-6.1-1.9-8.4,2.2c-6.6,11.8-13.4,23.5-20.3,35.1
		c-2,3.4-1.4,5.4,1.9,7.5c10.3,6.6,20.4,13.4,30.5,20.1c1.3,0.8,2.6,1.6,3.9,2.4c0.6,0.4,1.1,0.8,1.7,1.3c0.8-1.6,1.5-3.3,2.5-4.7
		c8.2-10.8,16.3-21.5,24.7-32.2C4283.4,2374.9,4283.2,2372.6,4279.6,2370.2z"/>
	<path class="st0" d="M4164.1,2372.9c-4,9.1-7.8,18.3-11.6,27.6c16.2,6.8,31.8,14.8,46.6,23.9c6-9.8,12-19.7,18.5-30.3
		c-16.8-8.3-32.7-16.3-48.8-23.9C4167.8,2369.7,4164.7,2371.5,4164.1,2372.9z"/>
	<path class="st0" d="M3861.3,2370.9c-11.4,5.3-22.7,10.9-33.9,16.6c-4.2,2.1-8.2,4.8-12.7,7.5c6.2,10.1,12.2,19.8,18.1,29.3
		c14.8-9.1,30.4-17.1,46.6-23.9c-3.9-9.5-7.9-18.8-12-28.1C3866.8,2371.2,3862.8,2370.2,3861.3,2370.9z"/>
	<path class="st0" d="M4294.5,2451.7c9.8,11.2,20.1,22.9,30.8,35.1c13.7-10.5,27.1-20.8,41.6-32c-12.3-14-24-27.4-35.6-40.6
		C4318.6,2427.3,4306.7,2439.4,4294.5,2451.7z"/>
	<path class="st0" d="M4269.2,2431.9c-8.1,9.5-15.7,18.4-23,26.9c13.2,11.4,25.5,23.8,36.9,37.1c8.7-7.4,17.7-15.1,27.1-23.2
		C4296.2,2458.8,4283,2445.6,4269.2,2431.9z"/>
	<path class="st0" d="M3768.6,2428.5c-0.9,0.7-0.4,4.5,0.7,5.9c6.1,7.6,12.4,14.9,18.8,22.3c13.2-11.2,27.1-21.4,41.9-30.6
		c-6-9.7-12-19.5-18.4-30C3796.6,2407.2,3782.4,2417.7,3768.6,2428.5z"/>
	<path class="st0" d="M4261.5,2426.7c-12.3-9-24.7-17.9-37.1-27c-3.7-2.7-5.7-1.4-7.8,2.1c-4.9,8.1-9.8,16.2-14.8,24.3
		c14.7,9.2,28.7,19.4,41.8,30.6c6.2-7.4,12.5-14.7,18.8-22c1-1.1,1.7-2.5,2.7-4.1C4263.9,2429.2,4262.9,2427.7,4261.5,2426.7z"/>
	<path class="st0" d="M4255,2416.8c12.4,10.9,24.2,21.2,35.3,31c12.3-12.2,24.5-24.3,37.7-37.3c-13.3-11.7-26.8-23.5-40.7-35.7
		C4275.9,2389.5,4265.6,2403,4255,2416.8z"/>
	<path class="st0" d="M3600.3,2450.2c-0.7,1-0.2,4.2,0.8,4.8c13.5,9.1,27.2,17.9,41.1,27c8.9-12.2,17.2-23.8,25.9-35.8
		c-13.6-11-26.8-21.7-41.3-33.4C3617.6,2425.7,3608.8,2437.9,3600.3,2450.2z"/>
	<path class="st0" d="M3667.8,2442.1c0.9,0.7,3.9,0,4.9-1c8-8.6,15.8-17.4,23.4-26.3c1-1.2,1.5-4.5,0.6-5.4
		c-11.1-11.7-22.4-23.2-34.5-35.5c-11.5,12.7-22.1,24.5-33.4,37C3642.2,2421.8,3654.9,2432.1,3667.8,2442.1z"/>
	<path class="st0" d="M3737.4,2451.6c-12.2-12.4-24.2-24.4-37-37.4c-11.6,13.3-23.3,26.7-35.5,40.7c14.6,11.2,28,21.5,41.7,32
		C3717.2,2474.6,3727.5,2462.9,3737.4,2451.6z"/>
	<path class="st0" d="M3715.9,2540.6c9.2-14.9,19.4-29.1,30.7-42.4c-8.8-7.5-17.7-15.1-27.1-23.1c-11.5,15.9-22.5,31-34,46.8
		C3696.2,2528.5,3706.2,2534.6,3715.9,2540.6z"/>
	<path class="st0" d="M3640.5,2318.5c-4.9,4.1-9.5,8.6-14,13.2c-7.1,7.2-14.1,14.5-21.6,22.3c13.3,12,25.9,23.3,37.9,34.1
		c12.2-11.9,23.5-23,35.4-34.7c-10.6-11.7-21.3-23.8-32.3-35.5C3645.1,2317,3641.7,2317.5,3640.5,2318.5z"/>
	<path class="st0" d="M3787.7,2346.4c-11.9,8.1-23.9,16.1-35.8,24.1c-3,2-3.7,3.9-1.3,7c8.6,11,17,22.2,25.5,33.2
		c1,1.3,2.5,2.3,3.8,3.4c1.4-0.9,2.3-1.5,3.3-2.1c10.5-7,21-14.1,31.6-20.9c3.7-2.4,3-4.8,1.3-7.8c-6.7-11.5-13.5-22.9-19.9-34.5
		C3793.8,2344.9,3791.7,2343.8,3787.7,2346.4z"/>
	<path class="st0" d="M3850.9,2331.3c-6-14.5-6.1-14.7-20.3-7.9c-11.7,5.6-23.2,11.6-35.5,17.8c9.1,15.9,17.7,30.7,26.3,45.6
		c13.9-6.7,27.2-13,40.3-19.7c1.2-0.6,2-4.2,1.4-5.8C3859.3,2351.2,3855.1,2341.3,3850.9,2331.3z"/>
	<path class="st0" d="M3704.7,2409.9c13,13.4,24.9,25.7,36.8,37.9c11.3-9.9,22.9-20.1,35.3-31c-10.7-13.9-21.1-27.4-32.3-42
		C3730.3,2387.3,3716.8,2399.1,3704.7,2409.9z"/>
	<path class="st0" d="M3717.4,2359.9c-5.4-6.6-10.8-13.3-16.9-20.7c-12.4,11.2-24.2,21.8-35.4,32c12.6,12.7,24.5,24.8,36.8,37.3
		c9.7-8.6,19.5-17.1,29-26c1-0.9,0.7-4.6-0.4-6C3726.4,2370.8,3721.8,2365.4,3717.4,2359.9z"/>
	<path class="st0" d="M4146.7,3322.7c-3.7-16.8-7.2-32.1-10.4-47.4c-0.7-3.4-2.4-4.3-5.6-3.7c-12.2,2.3-24.4,4.3-36.5,6.7
		c-1.5,0.3-3.8,2.8-3.7,4c1.9,16,4.2,31.9,6.6,49.1C4113.8,3328.4,4129.8,3325.7,4146.7,3322.7z"/>
	<path class="st0" d="M4051.8,3112.2c17.5-2.2,34.9-4.8,53.6-7.4c-3.2-13.2-6.2-25.3-9.1-37c-16.8,3.9-34.1,6.7-51.7,8.1
		c0.9,10.8,1.8,21.6,2.9,32.3C4047.7,3109.7,4050.5,3112.4,4051.8,3112.2z"/>
	<path class="st0" d="M4074.2,3159c0.6,4.8,2.1,7.5,7.6,5.9c3.8-1.1,7.8-1.3,11.7-2.1c11.6-2.4,23.2-4.9,35.7-7.6
		c-4.4-16.5-8.3-31.4-12.3-46.4c-1.1-4-3.6-4.2-7.1-3.5c-11.9,2.6-23.8,5.2-35.7,7.2c-4.8,0.8-5.7,2.8-5.1,7
		C4070.9,3132.7,4072.6,3145.9,4074.2,3159z"/>
	<path class="st0" d="M4100.1,3218.2c12.7-2.9,25.5-5.6,38.2-8.2c3.4-0.7,5.1-2,4.1-5.8c-3.9-14.1-7.5-28.2-11.6-42.2
		c-0.4-1.4-3.5-3.3-5-3.1c-11.5,2.2-22.9,4.7-34.3,7.4c-1.6,0.4-2.9,2.1-3.8,2.8c2.4,16,4.7,30.6,6.9,45.2
		C4095.1,3217.5,4096.5,3219,4100.1,3218.2z"/>
	<path class="st0" d="M4131.8,3263.8c0.4,1.7,2.2,3,3.3,4.5c16.4-4.6,31.8-8.7,47-13.3c1.2-0.4,2.6-3.5,2.2-4.9
		c-4.3-14-8.8-27.9-13.6-41.7c-0.5-1.5-3.8-3.3-5.3-2.9c-13.3,3.3-26.6,6.9-39.7,10.7c-1.4,0.4-3.2,3.2-2.9,4.6
		C4125.6,3235.2,4128.6,3249.5,4131.8,3263.8z"/>
	<path class="st0" d="M3964.8,3166.8c14.6,1,29.1,1.8,43.7,2.9c5.2,0.4,6.4-2,6.3-6.6c-0.3-6.6-0.1-13.3-0.1-19.9c0,0,0,0,0,0
		c0-7.1,0.3-14.2-0.2-21.2c-0.1-1.7-2.7-4.5-4.4-4.6c-12.1-1.2-24.3-1.6-36.3-2.9c-5.7-0.6-7.9,1.4-8.6,6.9
		c-1.5,13.2-3.2,26.3-5.1,39.4C3959.4,3164.9,3961.1,3166.5,3964.8,3166.8z"/>
	<path class="st0" d="M3899.9,3263.8c3.3-14.2,6.2-28.6,9.6-44.7c-1.2-0.8-2.7-2.7-4.7-3.2c-12.3-3.5-24.8-6.5-37.1-10.1
		c-4.3-1.3-6.1,0-7.3,3.9c-4.2,13.3-8.4,26.6-12.9,39.8c-1.3,3.8-0.1,5.2,3.4,6.1c14.5,3.9,29,8,43.6,11.6
		C3896,3267.5,3899.6,3265.4,3899.9,3263.8z"/>
	<path class="st0" d="M4146.5,3309.6c2.7,12.2,2.8,12.4,15,9.3c12.1-3.1,24.1-6.5,36.8-10c-5.5-17.5-10.7-33.9-15.9-50.3
		c-14.1,3.7-27.4,7-40.5,10.7c-1.4,0.4-3.1,3.6-2.8,5.2C4141.2,3286.2,4143.9,3297.9,4146.5,3309.6z"/>
	<path class="st0" d="M3839.4,3310.5c12.6,3.4,25.2,6.6,37.8,10.2c3.9,1.1,5.8,0.2,6.6-3.8c3-14.1,6-28.1,9.2-42.1
		c0.8-3.5-0.2-4.9-3.3-5.8c-13-3.4-26.1-6.8-40.3-10.5c-4.9,15.6-9.7,31-14.6,46.3C3833.5,3309.2,3836.7,3309.7,3839.4,3310.5z"/>
	<path class="st0" d="M3832.3,3302.9c4.5-13.6,8.9-27.4,12.9-41.2c0.4-1.4-0.9-4.5-2.1-5c-12.8-4.9-25.7-9.5-39.3-14.4
		c-6.8,16.3-13.2,31.8-20.2,48.6c15,5.3,29.5,10.5,44.1,15.4C3828.9,3306.6,3831.8,3304.4,3832.3,3302.9z"/>
	<path class="st0" d="M3957.3,3161c1.8-14.2,3.7-28.5,5.8-44.7c-1.1-0.8-2.8-2.9-4.8-3.4c-12.1-2.7-24.2-5-36.3-7.6
		c-4-0.9-6.3,0.1-7.3,4.2c-3.5,13.5-7.1,26.9-10.8,40.3c-1.1,3.8,0,5.8,4,6.5c14.5,2.8,29,5.7,43.5,8.7
		C3955,3165.8,3956.8,3164.6,3957.3,3161z"/>
	<path class="st0" d="M3937.3,3214.2c2.2-14.2,4.5-28.4,6.3-42.7c0.2-1.6-1.7-4.7-3.1-5c-12.5-2.9-25-5.4-38.8-8.3
		c-4.2,15.8-8.5,31.1-12.1,46.6c-0.3,1.3,2.8,4.7,4.8,5.2c12.2,3,24.7,5.3,37,8.1C3935.1,3218.9,3936.8,3217.7,3937.3,3214.2z"/>
	<path class="st0" d="M4445,3077.4c6.2-7.7,12.2-15.6,18.7-23.9c-14.5-10.5-28.3-20.5-42.3-30.7c-10.4,12.9-20.4,25.2-31.1,38.5
		c12.2,11,23.9,21.7,35.9,32.1c1,0.9,4.7,0.3,5.8-0.9C4436.6,3087.7,4440.8,3082.6,4445,3077.4z"/>
	<path class="st0" d="M4432.2,3171.6c9.8-9.3,19.2-19,28.8-28.5c2.4-2.4,2.3-4.4-0.3-6.7c-10.7-9.7-21.2-19.5-32-29.1
		c-1.1-0.9-4.4-1-5.4-0.1c-9.9,9.2-19.5,18.6-29.8,28.6c11.7,12.7,22.1,24.2,32.7,35.4C4427.4,3172.4,4431.2,3172.6,4432.2,3171.6z"
		/>
	<path class="st0" d="M4427.4,3177.4c-12.5-13.6-24.1-26.2-35.9-39.1c-8.1,6.9-15.4,13.3-22.9,19.4c-12.2,10-12.3,9.9-2.7,22.6
		c7.3,9.6,14.7,19.2,22.7,29.6C4401.7,3198.9,4414.2,3188.4,4427.4,3177.4z"/>
	<path class="st0" d="M4527.1,3153.3c11.4-14.9,22.3-29,33.6-43.8c-14.1-9.9-27.2-19.2-40.5-28.2c-1-0.7-4.1-0.2-4.9,0.8
		c-9.5,12.2-18.7,24.5-28.5,37.4C4500,3130.6,4513.2,3141.6,4527.1,3153.3z"/>
	<path class="st0" d="M4463,3067.9c6,4.2,11.7,8.8,17.5,13.2c6.6,5.1,13.2,10.1,20.6,15.8c9.8-14,19.1-27.2,29.1-41.4
		c-14.6-9.3-28.1-18.1-41.9-26.4c-1.1-0.7-4.8,1-6,2.5c-7,9.4-13.5,19.2-20.4,28.7C4459.6,3063.5,4459.6,3065.5,4463,3067.9z"/>
	<path class="st0" d="M4255.1,3286.9c13.4-5.7,26.5-11.9,41-18.5c-8-15.2-15.2-29.4-22.8-43.3c-0.6-1-3.9-1.6-5.3-1
		c-10.9,4.8-21.6,10.1-32.5,14.9c-3.2,1.4-3.9,3.2-2.6,6.2c5.4,13,10.7,26.2,16.4,39.1C4249.8,3285.8,4253.7,3287.5,4255.1,3286.9z"
		/>
	<path class="st0" d="M4345.1,3240.7c14.3-10.1,27.6-19.4,41.4-29.2c-10.5-13.8-20.2-26.6-30.2-39.3c-0.8-1-4.2-1.2-5.4-0.4
		c-10.5,7-20.8,14.3-31,21.8c-1.2,0.9-2,4.1-1.3,5.3C4327.1,3212.5,4335.8,3226.1,4345.1,3240.7z"/>
	<path class="st0" d="M4272.4,3173.2c-6.7-11.6-6.7-11.5-18.7-5.3c-10.5,5.5-21.2,10.8-32.4,16.5c7.1,16,14.1,31.7,21.6,48.4
		c16.7-8.6,32.7-16.7,49.3-25.2C4285.2,3195.4,4278.8,3184.3,4272.4,3173.2z"/>
	<path class="st0" d="M4204.3,3306.2c14.4-4.8,28.7-10,43.7-15.3c-7-16.8-13.5-32.5-20.2-48.6c-13.6,4.9-26.1,9.3-38.5,14.2
		c-1.5,0.6-3.4,3.7-3,5.1c4.1,14,8.4,28,13.1,41.8C4200,3304.7,4203.2,3306.6,4204.3,3306.2z"/>
	<path class="st0" d="M4299.8,3202.3c12-7.9,24.1-15.7,36.2-23.5c1.5-1,3.2-1.5,4.8-2.3c-0.6-0.6-1.1-1.2-1.7-1.8
		c-0.4-0.8-0.7-1.6-1.2-2.3c-8.6-11.8-17.1-23.7-25.9-35.3c-0.9-1.2-4.5-1.7-5.8-0.8c-11.3,7-22.3,14.4-33.5,21.6
		c-3.3,2.1-3.2,4.1-1.4,7.1c6.8,11.6,13.6,23.3,20.2,35.1C4293.6,3204.1,4295.8,3204.9,4299.8,3202.3z"/>
	<path class="st0" d="M3740.5,3270.4c11.7,5.3,23.3,10.6,34.9,16.2c4.4,2.1,6.4,0.5,8-3.5c4.9-12.3,10.1-24.5,15.2-36.8
		c0.4-1,0.7-2.1,1.5-4.2c-1.3-1-2.6-2.6-4.3-3.4c-10.3-5-20.8-9.7-31.1-14.8c-3.3-1.6-5.2-1.3-6.9,2c-6.4,12.6-12.9,25.2-19.5,37.7
		C3736.4,3267.1,3737.2,3268.9,3740.5,3270.4z"/>
	<path class="st0" d="M3491.9,3038.7c2.7,4.7,5.8,9.1,9,14c14-8.9,27.3-17.3,40.4-25.9c1.2-0.8,2.2-4,1.5-5.2
		c-6.7-12-13.7-23.7-21-36.3c-14.5,7.5-28.4,14.8-42.4,22c-3.8,2-2.7,4.5-1.2,7.2C3482.7,3022.5,3487.2,3030.6,3491.9,3038.7z"/>
	<path class="st0" d="M3388.5,2947.8c1.2,3.9,3.5,3.7,6.7,2.5c11.4-4.3,22.9-8.3,34.3-12.5c3-1.1,6-2.4,9-3.6
		c-5.1-16-9.9-31.3-14.9-47.2c-15.6,4.2-30,8.1-44.6,11.9c-3.4,0.9-5.2,2.2-4,6C3379.5,2919.1,3384.1,2933.5,3388.5,2947.8z"/>
	<path class="st0" d="M3452.1,2958.3c16.2-6.7,31.7-13.1,47.9-19.8c-4.9-13.6-9.3-26.3-14.2-38.8c-0.6-1.4-4.2-3-5.9-2.5
		c-13.6,3.9-27.1,8.4-40.6,12.5c-4.2,1.3-4.3,3.7-3,7.1c4.4,11.8,8.6,23.7,13,35.6C3450,2954.3,3451.1,2956.1,3452.1,2958.3z"/>
	<path class="st0" d="M3815.4,2087.6c1.4,0.4,3.1,0.1,5.2-0.5c15.8-4.5,31.5-8.9,47.5-12.6c2.3-0.5,4-1.3,5.2-2.3
		C3853.7,2076.5,3834.4,2081.6,3815.4,2087.6z"/>
	<path class="st0" d="M3400.3,2782c-14.3,1-28.7,2.3-43,3.9c-1.5,0.2-4.1,3-3.9,4.3c1.8,15.4,4,30.7,6.4,46c0.2,1.3,2.6,3.4,3.7,3.2
		c15.9-2.5,31.7-5.3,47.9-8c-2.1-16.1-3.9-31.4-6.2-46.7C3405,2783.5,3401.9,2781.9,3400.3,2782z"/>
	<path class="st0" d="M3376.8,2896c13.9-3.5,27.8-7.4,41.7-11c4-1,4.6-3.1,3.7-6.8c-3.1-13.1-5.7-26.4-8.9-39.5
		c-0.4-1.6-3.2-3.8-4.6-3.6c-14.9,2.3-29.7,4.9-44.4,7.7c-1.4,0.3-2.6,2.1-3.9,3.3c3.9,16.5,7.5,32.3,11.4,47.9
		C3372.1,2895.1,3375.4,2896.4,3376.8,2896z"/>
	<path class="st0" d="M3365.2,2609.8c14,2.9,28.2,5.3,44.1,8.1c1.1-1.2,3.7-2.7,4.2-4.7c3.2-13.1,5.9-26.3,9-39.4
		c0.8-3.5,0-5.4-3.6-6.3c-14.1-3.7-28.1-7.7-42.2-11.2c-1.4-0.3-4.6,1.6-5,3c-3.7,15-7.1,30.1-10.1,45.2
		C3361.1,2606.1,3363.5,2609.5,3365.2,2609.8z"/>
	<path class="st0" d="M3453.4,2752.5c-6.6,0.2-13.3,0-19.9,0c0,0.5,0,1,0,1.5c-6.9,0-13.7,0.2-20.6-0.1c-5.5-0.2-6.9,2.2-6.3,7.3
		c1.4,12.5,2.7,25.1,3.6,37.7c0.3,4.3,2.2,5.3,6,4.8c14-1.9,28.1-3.6,42.1-5.8c1.6-0.3,4.1-3.4,4-5.1c-0.8-11.9-2.3-23.8-3.3-35.7
		C3458.7,2753.1,3456.8,2752.4,3453.4,2752.5z"/>
	<path class="st0" d="M3376.6,2531.2c0.3-0.9,0.5-1.7,0.6-2.5c-5,16.4-9.5,33.1-13.2,50c0.2-0.8,0.4-1.6,0.6-2.6
		C3367.9,2561,3372.2,2546,3376.6,2531.2z"/>
	<path class="st0" d="M3459.6,2651.6c1.3,0.2,3.9-2.4,4.3-4c2.5-11.9,4.6-23.9,6.5-35.9c0.3-1.7-1.4-5-2.7-5.3
		c-15.6-3.8-31.4-7.2-48.2-10.9c-3,16.7-5.8,32.7-8.7,49.6C3428.1,2647.4,3443.8,2649.7,3459.6,2651.6z"/>
	<path class="st0" d="M3570.5,3061.6c-7.2-10.6-14.5-21.2-22.1-31.5c-0.8-1-3.8-1.7-4.9-1c-13.7,8.5-27.3,17.2-41.9,26.6
		c10.1,14.3,19.4,27.6,29.1,41.3c13.9-10.6,26.7-20.4,39.4-30.4C3571.1,3065.8,3571.3,3062.7,3570.5,3061.6z"/>
	<path class="st0" d="M3467.7,3103.4c0.7,1.1,4.9,1.3,6.3,0.3c11.6-7.7,22.9-16,34.4-23.8c3.9-2.6,3.4-4.7,1.1-8
		c-5.3-7.6-10.3-15.5-15.3-23.4c-2.9-4.6-5.7-9.3-8.7-14.2c-15.4,8.9-30,17.3-45.8,26.5C3449.5,3075.7,3458.4,3089.6,3467.7,3103.4z
		"/>
	<path class="st0" d="M3675.4,3167.8c-12.1-10.1-23.5-19.6-35.3-29.5c-11.9,13-23.5,25.7-35.8,39c13.1,11,25.6,21.4,38.8,32.5
		C3654.5,3195.2,3664.9,3181.6,3675.4,3167.8z"/>
	<path class="st0" d="M3571.5,3135.8c-3.1,2.7-3.1,4.9-0.3,7.7c9.3,9.2,18.5,18.4,27.6,27.8c2.6,2.7,4.7,2.6,7.1-0.2
		c9.5-10.5,19.1-20.9,28.7-31.4c0.9-0.9,1.5-2.1,2.2-3.2c-0.6-1-1-1.8-1.6-2.4c-9.1-9.1-18.1-18.2-27.4-27.1
		c-0.9-0.8-4.2-0.3-5.4,0.7C3592,3116.9,3581.9,3126.5,3571.5,3135.8z"/>
	<path class="st0" d="M3739.5,3201.3c8-13.3,15.5-26.8,23.4-40.6c-12.8-8.4-24.8-16.3-36.7-24.4c-3.2-2.2-5-1.3-7,1.5
		c-8.1,11.3-16.4,22.6-24.7,33.9c-1.9,2.6-2.4,4.5,0.7,6.5c12.7,8.1,25.2,16.5,38,24.5C3734.6,3203.5,3738.7,3202.6,3739.5,3201.3z"
		/>
	<path class="st0" d="M3751.2,3213.6c12.2,6.5,24.7,12.5,37.7,19.1c7.4-16.7,14.4-32.3,21.5-48.2c-13.4-6.9-26.2-13.3-38.7-20.3
		c-4.5-2.5-6.5-1.6-8.7,2.6c-5.4,9.9-11.2,19.6-16.8,29.4C3739.8,3207.3,3739.7,3207.5,3751.2,3213.6z"/>
	<path class="st0" d="M3715.2,3196c-12-8.5-23.1-16.5-34.4-24.3c-1.1-0.8-4.3-0.7-5,0.2c-10.1,12.8-20,25.8-30.6,39.7
		c14.1,9.9,27.6,19.3,41.5,29.1C3696.6,3225.1,3705.8,3210.7,3715.2,3196z"/>
	<path class="st0" d="M3677.8,3099.4c-12.1-12.1-23.2-23.4-34.9-35.2c-12,10.8-24.4,22-38.3,34.5c13.3,13.2,25.9,25.8,39,38.8
		C3656,3123.7,3667.3,3111.1,3677.8,3099.4z"/>
	<path class="st0" d="M4564.9,3102.6c8-12.5,15.9-25,24-37.4c2.1-3.3,1.8-5.5-1.9-7.4c-6.6-3.6-13-7.5-19.6-11.3
		c-7-4-14.1-8-21.2-12c-9.2,14.4-17.8,28-26.9,42.4c13.5,9.4,26.4,18.4,39.2,27.4C4561.6,3106.6,4563.3,3105.1,4564.9,3102.6z"/>
	<path class="st0" d="M3545.6,3118.1c-5.3-6.1-10.7-12.2-15.8-18.5c-5.2-6.5-10.1-13.3-15.4-20.4c-14.5,10.2-28.5,20-43.3,30.3
		c11.5,14.9,22.3,29,33.9,44.1C3519.1,3141.2,3532.3,3129.7,3545.6,3118.1z"/>
	<path class="st0" d="M3606.6,3092.9c7-6.5,14.1-12.8,21.2-19.2c4.5-4.1,9-8.3,13.7-12.6c-10.6-13.1-20.7-25.6-31.1-38.4
		c-14.1,10.3-27.7,20.2-42.7,31c11.2,13.5,21.7,26.3,32.2,39.1C3602.3,3095.7,3604.2,3095.1,3606.6,3092.9z"/>
	<path class="st0" d="M3517.3,2984.1c1.2-0.6,2.3-3.5,1.8-4.6c-5.7-12.6-11.8-25.1-18.1-38.3c-16,6.6-31.7,13.1-48.7,20.1
		c7.4,15.7,14.3,30.3,21.4,45.6C3489.1,2998.9,3503.3,2991.6,3517.3,2984.1z"/>
	<path class="st0" d="M4249.1,3349.8c15.4-6,30.7-12.4,47.1-19.1c-5.6-12.2-10.7-23.2-15.8-34.3c-6.4-14-6.4-14-20.3-8.2
		c-0.6,0.3-1.3,0.4-1.9,0.7c-10.3,4.3-20.7,8.6-31.5,13.1c5.7,15.6,11.1,30.6,16.8,45.4C4244.1,3348.9,4247.7,3350.4,4249.1,3349.8z
		"/>
	<path class="st0" d="M4403,3267.6c10.1-7.2,19.9-14.8,29.7-22.3c3.2-2.5,6.2-5.4,9.7-8.4c-11.5-13.6-22.4-26.6-33.4-39.7
		c-13.6,10.5-26.5,20.4-40,30.7c9.5,13.6,18.6,26.9,28.1,39.9C4397.8,3268.8,4401.6,3268.6,4403,3267.6z"/>
	<path class="st0" d="M4482.2,3201.1c1.1-1,1.5-4.5,0.7-5.4c-11.1-11.6-22.5-23-34.2-34.7c-12.3,11.1-23.7,21.2-34.7,31.7
		c-1,0.9-0.9,4.5,0.1,5.9c4.5,6,9.5,11.6,14.4,17.4c5.4,6.4,10.7,12.7,16.7,19.8C4458.1,3223.7,4470.3,3212.5,4482.2,3201.1z"/>
	<path class="st0" d="M4525,3155.5c-14.6-12.3-28.3-23.7-42.5-35.6c5.5-7,11-13.8,16.8-21.1c-14.4-11-28-21.5-41.9-32.1
		c-10.1,12.1-19.7,23.5-29.5,35.3c11.4,10.5,22.2,20.6,33.3,30.4c2.4,2.1,5.9,3,9.4,4.8c-5.7,6.2-12.5,13.6-18.8,20.4
		c12.5,12.6,24.5,24.6,37.1,37.3C4500.6,3182.2,4512.6,3169.1,4525,3155.5z"/>
	<path class="st0" d="M4195.8,3367.2c6.1-1.9,12.4-3.5,18.5-5.5c9.2-3,18.2-6.2,27.8-9.5c-6.1-16.8-11.8-32.5-17.7-48.9
		c-15.4,4.7-30,9-44.5,13.9c-1.3,0.4-2.6,4.2-2.1,6c3.2,13.3,7.1,26.5,10.4,39.8C4189.3,3368,4191.7,3368.5,4195.8,3367.2z"/>
	<path class="st0" d="M4132.2,3377.5c0.3,1.6,2.3,2.9,3.5,4.4c16.7-3.9,32.4-7.5,48-11.5c1.1-0.3,2.3-3.6,1.9-5.1
		c-3.5-13.9-7.5-27.8-11.1-41.7c-1-4-3.2-4.6-6.8-3.8c-12.9,3-25.8,6-38.8,8.7c-3.5,0.7-5.1,2.3-4.4,5.9
		C4127.1,3348.8,4129.5,3363.2,4132.2,3377.5z"/>
	<path class="st0" d="M4638.9,2960.6c1.5-3.6,0.8-5.7-3-7.1c-13.4-4.7-26.6-9.7-40-14.4c-1.5-0.5-4.9,0.3-5.3,1.4
		c-6.1,14.2-11.8,28.5-17.9,43.6c15.7,7.3,31,14.5,46.3,21.6c1.9-2.1,3.2-3.7,4.6-5.2c0.1,0.8,0,1.5,0,2.2c3.6-8,7.1-16,10.5-24.1
		c-0.5-0.2-1.1-0.4-1.6-0.7C4634.6,2972.2,4636.6,2966.4,4638.9,2960.6z"/>
	<path class="st0" d="M4071.8,3160.9c-1.9-13.6-3.7-27.1-5.3-40.7c-0.6-4.7-2.8-6.2-7.5-5.8c-12.3,1.1-24.7,1.9-37,2.6
		c-3.9,0.2-4.9,2-4.9,5.4c0.1,6.9,0,13.7,0,20.6c0,7.1,0.1,14.1,0,21.2c-0.1,3.9,1.3,5.7,5.4,5.5c15-1,30-1.9,44.9-2.9
		C4071,3166.5,4072.3,3164.6,4071.8,3160.9z"/>
	<path class="st0" d="M4043.1,3219.6c0.2,4.5,2.6,5.1,6.1,4.7c11.9-1.3,23.7-3,35.6-3.6c7-0.4,7.9-3.4,6.8-9.3
		c-2.3-12.6-4.4-25.2-6.1-38c-0.7-5.2-3-6.1-7.5-5.6c-9.4,1.2-18.9,2.3-28.3,3.4c-9,1.1-9,1.1-8.9,10
		C4041.6,3194,4042.5,3206.8,4043.1,3219.6z"/>
	<path class="st0" d="M4079.5,3277.2c16.4-2.2,32.7-4.8,50.5-7.5c-3.7-17.4-7-33.4-10.7-49.3c-0.3-1.1-3.6-2.3-5.3-2.1
		c-13.3,1.9-26.6,4.1-39.9,6.5c-1.6,0.3-4.1,3-4,4.4c1.3,14.7,2.8,29.5,4.7,44.1C4075.1,3274.9,4078.1,3277.4,4079.5,3277.2z"/>
	<path class="st0" d="M4681.2,2665.5c-0.1-0.8-0.1-1.5-0.2-2.3C4681.1,2664,4681.2,2664.8,4681.2,2665.5z"/>
	<path class="st0" d="M3956.8,3336.8c-15-2.2-30.1-4.1-46.1-6.2c-2.9,17-5.9,33.8-9,51.9c17.4,2.3,33.3,4.5,49.3,6.3
		c1.7,0.2,5.1-2.2,5.3-3.6c1.7-14.7,2.9-29.4,3.9-44.2C3960.4,3339.6,3958.2,3337,3956.8,3336.8z"/>
	<path class="st0" d="M3617.3,2927.8c-5.6-12.8-10.8-24.5-15.7-36.3c-1.6-3.9-4-3.4-6.9-2.3c-9.1,3.5-18.1,7-27.2,10.5
		c-5.5,2.1-10.9,4.3-17.3,6.8c6.8,15.4,13.3,29.8,20.1,45.3C3586.9,2943.4,3602.1,2935.6,3617.3,2927.8z"/>
	<path class="st0" d="M3348,2711.6c0,1,0,2.1-0.1,3.1C3348,2713.7,3348,2712.7,3348,2711.6z"/>
	<path class="st0" d="M4683.4,2699.2c0-0.3,0-0.6,0-0.9C4683.3,2698.6,4683.3,2698.9,4683.4,2699.2z"/>
	<path class="st0" d="M4051.4,3391.1c5.3-0.3,10.6-0.5,15.9-0.8c3.4-0.2,5.3-1.6,5-5.4c-1.4-15.6-2.7-31.3-4.1-46.7
		c-8,0-15.4-0.1-22.8,0c-7.3,0.1-14.6,0.9-21.9,0.7c-4.9-0.1-6.7,1.5-6.6,6.5c0.3,12.6,0.1,25.3,0.1,37.9c0,2.4,0,4.8,0,7.1
		c-0.6,0-1.1,0.1-1.7,0.1c-0.1-2.2-0.4-4.3-0.4-6.5c0-13.1,0-26.2,0-39.2c0-3,0.1-5.8-4.3-5.8c-15.3,0.1-30.5,0-46.8,0
		c-0.7,7.5-1.7,16.7-2.5,25.8c-0.6,6.4-0.9,12.8-1.6,19.2c-0.5,4.3,1.3,6.1,5.5,6.2c5.1,0.1,10.1,0.4,15.2,1.1
		c-1.7,0.1-3.3,0.2-5,0.3c13.4,0.8,27,1.2,40.6,1.2c14.6,0,29.2-0.5,43.6-1.4C4056.8,3391.5,4054.1,3391.3,4051.4,3391.1z"/>
	<path class="st0" d="M3995.9,3224.4c13.3,0.3,26.5,0.4,39.8,0c1.5,0,4.3-3.2,4.2-4.8c-0.4-14.4-1.4-28.7-2.1-43.1
		c-0.2-3.4-1.6-4.6-5-4.4c-5.5,0.3-11.1,0.1-16.6,0.1c-5.8,0-11.5-0.3-17.3,0.2c-1.8,0.1-4.7,2.1-4.8,3.4
		c-1.1,14.8-1.9,29.6-2.4,44.4C3991.8,3221.5,3994.4,3224.3,3995.9,3224.4z"/>
	<path class="st0" d="M3352.9,2642.4c-2.6,21-4.2,42.2-4.8,63.7C3348.8,2684.9,3350.3,2663.6,3352.9,2642.4z"/>
	<path class="st0" d="M4675.8,2727.4c-10.4,0.2-20.8,0.1-31.3,0c-2.1,0-4.2-0.2-6.2-0.3c2.1-1.7,4.2-1.9,6.3-1.9
		c10.2,0,20.4-0.2,30.6,0c4.4,0.1,6.5-1.1,6.3-6c-0.7-14.6-1.1-29.2-1.6-43.9c-0.1-4.3-2.1-5.8-6.3-5.4c-13.7,1.3-27.3,2.5-41,3.6
		c-4.3,0.3-5.7,2-5.4,6.3c0.6,8.2,0.9,16.4,1.2,24.6c0.1,2.1-0.4,4.3-0.6,6.4c-0.6,0-1.1-0.1-1.7-0.1c-0.2-1.9,0.1-4.1-0.7-5.7
		c-0.8-1.5-2.7-3.6-4.1-3.5c-14.6,0.4-29.2,1.1-43.8,2.1c-1.6,0.1-4.1,2.7-4.2,4.2c-0.3,12.2-0.4,24.4,0,36.6
		c0.1,1.6,2.8,4.5,4.5,4.6c14.1,1,28.3,1.4,42.5,2c3.6,0.2,5.3-1.2,5.3-5c0-3.2,0.3-6.3,0.5-9.5c0.8,0,1.7,0,2.5,0.1
		c0,2.3,0.1,4.7,0,7c-0.4,9.7-0.7,19.5-1.3,29.2c-0.2,3.7,0.6,5.8,4.8,6.1c13.9,1.1,27.8,2.3,41.7,3.7c4.4,0.4,6.1-1.4,6.2-5.6
		c0.5-14.6,0.9-29.2,1.6-43.9C4681.7,2728.9,4680.1,2727.3,4675.8,2727.4z"/>
	<path class="st0" d="M4681.4,2668.1c0.4,5,0.8,10,1.1,15C4682.2,2678.1,4681.9,2673.1,4681.4,2668.1z"/>
	<path class="st0" d="M4682.6,2683.3c0.2,2.7,0.3,5.3,0.4,8C4682.9,2688.6,4682.7,2685.9,4682.6,2683.3z"/>
	<path class="st0" d="M3957.3,3272.1c1.4-13.9,2.8-27.8,4.3-41.9c0.8-3.7-1-5.2-4.9-5.7c-12.9-1.9-25.8-4-38.7-6.3
		c-3.9-0.7-5.6,0.6-6.4,4.5c-2.7,13.7-5.6,27.3-8.7,40.9c-1.1,4.5,0.7,6,4.6,6.7c14.4,2.3,28.8,4.6,43.3,7
		C3955.2,3278.1,3956.9,3276.1,3957.3,3272.1z"/>
	<path class="st0" d="M4579.3,2700c11-0.7,22.1-1,33.2-1.3c13.8-0.4,13.7,1.1,12.3-13.7c-1.1-10.1-2.5-20.2-3.1-30.4
		c-0.3-5.3-2.6-6.3-7.1-5.7c-13.6,1.9-27.2,3.7-40.8,5.4c-3.6,0.5-4.8,2.1-4.4,5.8c1.3,11.2,2.6,22.4,3.3,33.7
		C4572.9,2698.6,4574.3,2700.4,4579.3,2700z"/>
	<path class="st0" d="M4672,2836.4c2.4-15.3,4.6-30.6,6.4-46c0.2-1.4-2.3-4.3-3.8-4.5c-14.3-1.6-28.6-2.9-43-3.9
		c-1.7-0.1-4.9,1.8-5.1,3.2c-2.2,15.1-4,30.2-6.1,46.2c16.1,2.8,31.6,5.6,47.1,8C4668.8,2839.6,4671.8,2837.6,4672,2836.4z"/>
	<path class="st0" d="M3988.7,3218.8c0.5-12.4,1.4-24.7,2.2-37.1c0.4-0.2,0.8-0.4,1.2-0.6c-1.4-3.2-2.4-8.8-4.4-9.1
		c-11.9-2.1-24.1-3.2-36.2-4.1c-1.6-0.1-4.6,2.2-4.8,3.7c-2.6,14.3-4.8,28.7-6.7,43.2c-0.2,1.6,2.3,5,3.8,5.2
		c12.9,1.8,25.9,2.9,38.8,4.4C3987,3224.8,3988.5,3223.1,3988.7,3218.8z"/>
	<path class="st0" d="M4632,2670.7c14.1-1.3,28.2-2.7,42.3-3.8c3.6-0.3,4.6-2.1,4.1-5.2c-2.1-16-4.2-32-6.5-49.5
		c-18,3.1-34.6,6-51.4,8.9c0,1.8-0.1,2.9,0,4c1.8,13.8,3.9,27.6,5.5,41.5C4626.6,2670.8,4629,2671,4632,2670.7z"/>
	<path class="st0" d="M4654.8,2529.6c3.9,14,7.5,28,11.4,42c-3.4-14.3-7.2-28.4-11.5-42.4
		C4654.7,2529.3,4654.7,2529.4,4654.8,2529.6z"/>
	<path class="st0" d="M4530.8,2941.1c-6.4,13.3-12.4,25.7-18,38.1c-0.5,1.1,0.4,4.1,1.5,4.7c13.4,7.2,27,14.3,40.7,21.1
		c1,0.5,3.8-0.3,4.2-1.3c6.8-13.8,13.4-27.8,20.3-42.4C4562.6,2954.3,4546.9,2947.8,4530.8,2941.1z"/>
	<path class="st0" d="M4595.9,2914.5c0.4-1.1-1.7-4.1-3.1-4.6c-13.6-4.6-27.4-8.9-41.2-13c-1.5-0.5-4.8,0.5-5.3,1.7
		c-5,13-9.6,26.1-14.6,39.8c16,6.7,31.7,13.2,48.7,20.2C4585.8,2943.6,4591.1,2929.1,4595.9,2914.5z"/>
	<path class="st0" d="M3356.2,2666.5c15,1.6,30,3,45,4c1.3,0.1,3.9-2.1,4.1-3.5c2.2-14.9,4-29.8,6.1-45.9c-16.1-2.8-31.8-5.6-47.5-8
		c-1.2-0.2-4,2-4.2,3.4c-2.4,15.1-4.5,30.2-6.4,45.3C3353.2,2663.3,3355.1,2666.4,3356.2,2666.5z"/>
	<path class="st0" d="M4643.2,2947.6c4.8-14,9.1-28.2,13.6-42.3c1.1-3.4,0.1-5.4-3.6-6.3c-13.7-3.6-27.3-7.4-41.1-10.8
		c-1.5-0.4-4.8,1.2-5.2,2.6c-4.7,14.2-9,28.6-13.6,43.8c15.2,5.5,29.9,11,44.8,16.1C4639.4,2951,4642.7,2949.1,4643.2,2947.6z"/>
	<path class="st0" d="M4670.3,2848c0.3-1.5-2.1-5-3.7-5.3c-13.9-2.8-27.9-5.1-41.8-7.6c-3.6-0.6-5.8,0.2-6.6,4.3
		c-2.7,13-5.5,26-8.6,38.9c-1.1,4.5,0.5,5.9,4.4,6.9c11.8,3,23.5,6.3,35.3,9.4c3.1,0.8,6.3,1.6,10.6,2.6
		C4663.5,2880.4,4667.2,2864.2,4670.3,2848z"/>
	<path class="st0" d="M4619.8,2754c-11.7,0.2-23.4,0.1-35.1,0.1c0-0.5,0-1,0-1.5c-2.2,0-4.4,0.2-6.6,0c-3.6-0.3-5.1,1-5.4,4.8
		c-1,11.9-2.4,23.7-3.2,35.6c-0.1,1.6,2,4.7,3.4,4.9c14.4,2.2,28.9,4,43.3,5.9c3.1,0.4,5-0.5,5.3-4.1c1.1-13.2,2.4-26.4,3.8-39.6
		C4625.6,2755.9,4624.3,2753.9,4619.8,2754z"/>
	<path class="st0" d="M3788.6,3346.5c5.2-13.4,10.1-26.9,14.8-40.5c0.5-1.5-0.8-4.8-2.1-5.4c-12.9-5.7-26-11.2-39.2-16.3
		c-1.5-0.6-5,0.6-5.6,1.9c-7,14.3-13.6,28.8-20.9,44.6c16.5,6.7,32,13.2,47.6,19.2C3784.4,3350.4,3788,3348.2,3788.6,3346.5z"/>
	<path class="st0" d="M3794.2,3353.7c14.2,4.9,28.5,9.4,42.9,13.6c1.6,0.5,5.5-1.3,5.9-2.7c4.2-14.2,7.9-28.5,12.2-44.3
		c-1-0.9-2.4-2.8-4.1-3.4c-13-4.3-26.1-8.4-39.2-12.2c-1.5-0.4-4.8,0.9-5.3,2.2c-5.3,13.6-10.3,27.3-14.9,41.1
		C3791.1,3349.4,3792.8,3353.2,3794.2,3353.7z"/>
	<path class="st0" d="M3899.8,3376.8c2.8-14.1,5-28.3,7.6-42.4c0.7-3.7-0.7-5.1-4.2-5.8c-12.8-2.7-25.5-5.3-38.2-8.5
		c-5.2-1.3-7.1,0.3-8.3,5.1c-2.7,11.2-5.9,22.2-8.8,33.3c-0.9,3.6-1.8,7.1-3,11.8c17.1,3.7,33.5,7.4,49.9,10.5
		C3896.1,3381.1,3899.4,3378.5,3899.8,3376.8z"/>
	<path class="st0" d="M3353.9,2634.4c-0.1,0.7-0.2,1.3-0.3,2C3353.8,2635.7,3353.9,2635,3353.9,2634.4z"/>
	<path class="st0" d="M4619.2,3009c-16.6-7.8-32.2-15-48.1-22.4c-7.9,15.2-15.5,29.9-23.5,45.2c15.2,8.8,30.1,17.4,45.9,26.5
		C4602.2,3041.7,4610.5,3025.7,4619.2,3009z"/>
	<path class="st0" d="M3935.4,3326.1c1.9-14.2,4-28.5,6-42.7c0.5-3.2-0.5-4.8-4-5.4c-12.2-2-24.3-4.5-36.6-6.3
		c-1.6-0.2-4.7,1.7-5.1,3.2c-3.7,15.4-7,31-10.7,47.8c15.9,2.7,30.7,5.3,45.4,7.8C3934.1,3331.2,3935,3329.3,3935.4,3326.1z"/>
	<path class="st0" d="M3662.8,3227.9c-13.5-10.4-26.4-20.3-40-30.8c-11.3,13.5-22.2,26.5-33.7,40.3c14.8,11.4,29,22.2,43.7,33.5
		C3643.1,3256.1,3652.8,3242.2,3662.8,3227.9z"/>
	<path class="st0" d="M3409.3,3002.1c9.5,18.5,19,37,28.9,56.3c15.8-9.2,30.7-17.8,46-26.6c-7.9-15.2-15.5-29.8-23.2-44.7
		c-2.1,0.5-4,1-5.8,1.4c5.7-4.7,2.2-9.2,0.2-13.8c-4.4-10.4-8.8-20.8-12.7-31.4c-1.7-4.6-3.8-5.6-8.4-3.8
		c-12.4,4.8-24.9,9.4-37.5,13.6c-4.8,1.6-5.6,3.9-3.7,8.4c3,7,5.4,14.1,8.1,21.2c-0.5,0.2-1,0.4-1.6,0.6c3,7.2,6.2,14.4,9.5,21.5
		C3409.1,3004,3409.1,3003.1,3409.3,3002.1z"/>
	<path class="st0" d="M3546.4,3193.4c11.6-11.2,23.1-22.5,35-34.2c-8-8.6-15.3-16.5-22.7-24.4c0.5-0.5,1-1,1.5-1.4
		c1.7,1.2,3.4,2.4,5.4,3.8c12.9-11.9,25.5-23.5,38.2-35.2c-10.2-12.1-19.7-23.4-29.6-35.2c-14,10.7-27.6,21.2-41.6,31.9
		c2.4,3.2,4.4,5.8,6.2,8.5c2.3,3.6,4.5,7.3,6.7,10.9c1.3,0.9,2.7,1.8,3.3,2.2c-14,11.6-27.6,23-42.3,35.2
		c12.1,13,23.7,25.5,35.4,37.8C3542.7,3194.1,3545.6,3194.2,3546.4,3193.4z"/>
	<path class="st0" d="M3586.6,3235.7c11.2-13.4,21.6-25.7,31.8-38.2c0.7-0.9,0.6-3.7-0.2-4.4c-11.4-10.7-23.1-21.1-35.3-32.2
		c-11.6,11.8-22.9,23.2-34,34.8c-0.8,0.9-0.4,4.4,0.7,5.4C3561.5,3212.5,3573.7,3223.7,3586.6,3235.7z"/>
	<path class="st0" d="M4073.9,3372.1c1,17.4,0.9,17.6,18,15.5c12.4-1.5,24.8-3.4,38.1-5.2c-3.2-18-6.1-34.8-9.1-51.8
		c-15.4,2.1-29.7,4.3-44.2,5.8c-4.9,0.5-5.9,2.4-5.5,6.7C4072.3,3352.7,4073.4,3362.4,4073.9,3372.1z"/>
	<path class="st0" d="M3624.5,2115.2c-2.4,1.5-4.9,2.9-7.3,4.4c8.4,12.7,16,24.4,23.7,36c7.7,11.6,7.7,11.6,19.9,4.2
		c4.3-2.6,8.7-5.3,13-7.9c6.8-4,13.6-8,21.1-12.4c-0.1-0.1-0.1-0.2-0.2-0.3c-9.9,5.4-19.6,11.1-29.2,17L3624.5,2115.2z"/>
	<path class="st0" d="M3560.1,2142.6c8.9,11.4,6.5,9.3,16.4,2.1c12-8.6,23.9-17.3,36.3-26.3c-9.1-13.9-18.1-27.5-27.4-41.5
		l-43.1,43.1C3548.4,2127.6,3554.2,2135.1,3560.1,2142.6z"/>
	<path class="st0" d="M3522.4,2189.4c14.5-12.4,28.2-24.1,42.2-36.1c-8.2-10.5-16.2-20.7-24.4-31.1l-41.5,41.5
		C3506.6,2172.4,3514.5,2180.9,3522.4,2189.4z"/>
	<path class="st0" d="M3843.6,2089.2c-1-3.9-2.9-5.2-6.6-4.1c-14.3,4.5-28.7,8.9-42.9,13.8c-1.4,0.5-3.3,3.9-2.8,5.2
		c5.1,15,10.6,29.9,16.2,45c15.2-4.6,29.4-9,43.5-13.2c3.4-1,4.5-2.7,3.5-6.4C3850.7,2116.1,3847.1,2102.7,3843.6,2089.2z"/>
	<path class="st0" d="M3401.7,2469.1c-2.9,7.3-5.5,14.7-8.6,22c-1.9,4.5-0.9,6.7,3.8,8.3c12.8,4.4,25.5,9,38.1,13.8
		c4.2,1.6,6,0.3,7.5-3.5c4.8-12.1,9.7-24.2,15-36.2c1.8-4.1,0.8-5.8-3.1-7.6c-12.3-5.5-24.5-11.4-36.8-17.1
		c-1.7-0.8-3.6-1.3-5.4-1.9c-2.2,4-4.1,7.4-6,10.9c-0.6-3.1-0.1-5.7,1-8c5.9-12.2,11.7-24.4,17.9-36.3c0.5-0.9,0.8-1.7,1-2.5
		c-11.3,21.2-21.6,43.2-30.6,65.7c1.2-2.9,2.5-5.8,3.7-8.8C3400,2468.4,3400.9,2468.7,3401.7,2469.1z"/>
	<path class="st0" d="M3407,2325.8c-14.1-9.3-27.8-18.3-42.5-28l-9.2,9.2l39.4,39.4C3398.8,2339.6,3402.9,2332.7,3407,2325.8z"/>
	<path class="st0" d="M4015.4,2175.1c-1.5-0.8-3.8-3-6-2.9c-15,0.4-30.1,1.2-45.1,2.3c-1.6,0.1-4.4,3.4-4.2,5
		c1.1,13.9,2.8,27.7,4.2,41.6c0.4,4.4,2.4,5.9,6.9,5.6c12.4-0.9,24.7-1.7,37.1-2.1c4.9-0.2,6.7-1.9,6.4-6.8
		c-0.3-5.3-0.1-10.7-0.1-16c1,0,1.9,0,2.9,0c0,5.2,0.2,10.3-0.1,15.4c-0.2,5,1.5,7.1,6.8,7.3c11.7,0.3,23.5,0.9,35.1,2.1
		c5.9,0.6,7.9-1.5,8.4-7c1.2-13,2.6-26,4.1-38.9c0.5-4.2-0.9-6.3-5.2-6.5c-14.1-0.7-28.3-1.6-42.4-2
		C4021.5,2172.1,4018.7,2173.9,4015.4,2175.1z"/>
	<path class="st0" d="M4089,2120.7c-12.6-1.2-25.1-2.6-37.7-3.9c-3.8,0-7.7-0.7-7.8,5.3c-0.3,14-0.9,27.9-1.5,41.8
		c-0.1,3.5,0.8,5.2,4.7,5.5c11.9,0.9,23.8,2.4,35.7,3.2c1.6,0.1,4.7-2,4.9-3.4c2.2-14.4,4-28.9,5.9-43.4
		C4093.7,2122.5,4092.5,2121,4089,2120.7z"/>
	<path class="st0" d="M3885.1,2129.8c3.6,16.3,7,31.2,10,46.1c1,5.1,3.2,5.7,7.8,4.7c9.1-2,18.2-3.4,27.4-4.9
		c11.3-1.8,11.4-1.8,10-13.3c-1.7-13.3-3.5-26.6-5.5-41.2C3918,2124.1,3902,2126.9,3885.1,2129.8z"/>
	<path class="st0" d="M3878.8,2131.7c-13.7,3.3-27.4,7-40.9,11c-1.3,0.4-3.2,3.4-2.8,4.6c4.5,15.4,9.4,30.7,14.4,46.6
		c14.3-3.7,27.6-7.1,40.7-10.8c1.3-0.4,3.2-3.2,2.9-4.5c-2.9-14.5-6.1-29-9.5-43.3C3883.1,2133.8,3880.1,2131.4,3878.8,2131.7z"/>
	<path class="st0" d="M3424.3,2593.3c14.2,3.4,28.4,6.5,42.7,9.6c3.5,0.8,5.3-0.6,6.2-4.1c3.2-12.6,6.5-25.2,10.1-38.9
		c-15.6-4.9-30.7-9.8-46-14.3c-1.3-0.4-4.4,1.7-4.9,3.2c-3.9,13.1-7.4,26.4-10.8,39.7C3421.4,2589.9,3423.1,2593,3424.3,2593.3z"/>
	<path class="st0" d="M3492.1,2894.7c13.9-4.2,27.8-8.7,41.6-13.5c1.5-0.5,3.2-4.2,2.8-5.9c-3.1-12.9-6.6-25.7-10.2-38.4
		c-0.5-1.7-2.1-3.2-3-4.4c-16,3.4-31,6.5-45.8,9.9c-1.2,0.3-2.9,3.4-2.6,4.8c3.8,15,7.8,29.9,12.1,44.8
		C3487.4,2893.4,3490.7,2895.2,3492.1,2894.7z"/>
	<path class="st0" d="M3433.3,2908.4c13-4.1,24.3-7.7,35.7-11.3c14.5-4.6,14.5-4.6,10.5-19.3c-2.6-9.5-5.1-19.1-7.8-29.2
		c-16.3,3.6-31.8,6.9-47.3,10.6c-1.2,0.3-3,2.9-2.8,4C3425.2,2878,3429.2,2892.7,3433.3,2908.4z"/>
	<path class="st0" d="M3570.5,3047.8c8.3-5.5,16.3-11.5,24.3-17.4c4.6-3.3,9.1-6.7,13.7-10.2c-9.1-14-17.7-27.3-26.9-41.5
		c-15.2,8.8-29.9,17.3-45.6,26.4c9.7,14.6,18.7,28.5,28.1,42.1C3565,3048.5,3569.1,3048.8,3570.5,3047.8z"/>
	<path class="st0" d="M3531.7,2996c2.4,4.9,5,5.1,9.3,2.5c9.5-5.7,19.1-11.1,28.7-16.7c3.4-2,6.6-4,9.9-6
		c-7.5-14.8-14.7-28.7-22.2-43.4c-15.5,6.9-31,13.8-46.6,20.8c0.6,1.9,0.8,3.2,1.3,4.4C3518.7,2970.4,3525.4,2983.1,3531.7,2996z"/>
	<path class="st0" d="M3459.4,2800.9c-14.7,1.8-29.4,3.9-44,6.2c-1.5,0.2-3.7,3.2-3.5,4.6c2.2,14.8,4.9,29.6,7.6,45.4
		c16.9-3.7,32.5-7.1,47.9-10.8c1.4-0.3,3.3-3.5,3.1-5.1c-1.9-12.5-4.2-24.9-6.7-37.2C3463.5,2802.7,3460.8,2800.7,3459.4,2800.9z"/>
	<path class="st0" d="M3463.4,2776.6c0.2,5.1,2.3,6.5,7,5.9c13.2-1.5,26.4-2.9,39.6-4.1c4.5-0.4,6.6-2.1,6.3-7.1
		c-0.9-12.8-1.4-25.7-1.8-38.5c-0.1-4.1-1.7-5.5-5.6-5.4c-7.1,0.2-14.2,0-21.3,0c0,0,0,0,0,0c-6.9,0-13.8,0.2-20.6-0.1
		c-4.6-0.2-6.3,1.4-6,6.2C3462.1,2747.8,3462.9,2762.2,3463.4,2776.6z"/>
	<path class="st0" d="M3470.1,2667.5c13.9,1.4,27.7,2.9,42.2,4.5c3.5,1.1,4.7-1.1,5.3-4.9c1.9-12.9,4-25.8,6.2-38.6
		c0.6-3.8-0.3-5.6-4.4-6.4c-13.7-2.7-27.3-5.6-40.9-8.7c-4.4-1-6,0.5-6.7,4.6c-2.3,14.4-4.6,28.8-7,43.2
		C3464.2,2665.6,3466.1,2667.1,3470.1,2667.5z"/>
	<path class="st0" d="M4096.5,2126.6c-2.3,14.2-4.3,28.4-6,42.7c-0.2,1.6,1.9,4.6,3.3,4.9c12.3,2.6,24.7,4.7,37.2,6.7
		c1.5,0.2,4.5-1.4,4.8-2.7c3.7-15.7,7.1-31.4,10.9-48.4c-15.9-2.7-31-5.3-46.2-7.6C4099.4,2122,4096.8,2124.9,4096.5,2126.6z"/>
	<path class="st0" d="M3461.1,2719.6c-0.3,4.5,1.6,5.8,5.8,5.7c6.9-0.2,13.7-0.1,20.6-0.1c7.1,0,14.2-0.1,21.3,0
		c3.7,0.1,5.7-1,5.8-5.2c0.4-13.1,1-26.1,1.7-39.1c0.2-4.1-1.1-6.2-5.3-6.7c-13.7-1.3-27.3-2.7-40.9-4.2c-4.6-0.5-6.4,1.2-6.6,5.8
		C3462.8,2690.4,3462.1,2705,3461.1,2719.6z"/>
	<path class="st0" d="M3378,2553.3c14,4,28.1,7.7,42.3,11.2c1.3,0.3,4-1,4.4-2.1c4.7-14.5,9.1-29,13.8-44.4
		c-15.1-5.5-29.6-10.9-44.2-15.9c-1.4-0.5-4.9,1.1-5.4,2.4c-4.9,14.4-9.6,29-13.9,43.6C3374.6,2549.5,3376.6,2552.9,3378,2553.3z"/>
	<path class="st0" d="M3507.4,2946c0.5,1.3,4.1,2.8,5.4,2.2c13.3-5.6,26.4-11.4,39.4-17.6c1.4-0.7,2.9-4,2.4-5.5
		c-4.5-12.7-9.4-25.3-14.4-37.8c-0.6-1.5-2.1-2.6-2.9-3.5c-1.8,0.4-2.5,0.5-3.1,0.7c-13.5,4.4-26.9,8.9-40.4,13.2
		c-3.3,1.1-4,3-2.7,6.1C3496.5,2918,3501.8,2932.1,3507.4,2946z"/>
	<path class="st0" d="M4263,3018.8c-6.7-8.2-13.6-16.3-20.5-24.4c-13.1,11.1-27.1,21.2-41.7,30.2c2.8,4.6,5.7,9.2,8.6,13.9
		c3.4,5.6,6.9,11.1,11.2,17.9c14.6-11,28.5-21.2,42.1-31.8C4263.7,3023.8,4263.9,3019.9,4263,3018.8z"/>
	<path class="st0" d="M3795,3104.9c7.4-12.1,14.5-24.4,21.3-36.8c0.8-1.4,0.2-5.1-1.1-6c-10.7-7.5-21.6-14.8-32.6-21.8
		c-1.3-0.8-4.7-0.6-5.5,0.5c-9.8,12.3-19.3,24.8-29.9,38.6c14.7,9.6,28.3,18.6,42.2,27.3C3790.5,3107.4,3794.2,3106.3,3795,3104.9z"
		/>
	<path class="st0" d="M4169.9,3081.9c6-2.3,11.8-5,17.5-7.9c9.9-5.1,19.6-10.6,29.9-16.1c-6.7-11-13-21.4-19.3-31.5
		c-14.8,8.9-30.3,16.8-46.4,23.6c4.2,10.1,8.4,20.2,12.8,30.2C4164.9,3081.3,4168.4,3082.4,4169.9,3081.9z"/>
	<path class="st0" d="M4243.8,3106.3c12.2-8.1,24.3-16.3,36.5-24.4c3.8-2.5,2.6-4.9,0.5-7.7c-8.3-10.7-16.6-21.3-24.7-32.2
		c-2.6-3.5-4.9-3.4-8.2-1c-9.8,6.8-19.7,13.5-29.8,20c-3.5,2.2-4.5,4.2-2.3,8c7,11.8,13.8,23.8,20.7,35.6c0.8,1.4,2.1,2.5,3.2,3.7
		C4241.4,3107.4,4242.7,3107,4243.8,3106.3z"/>
	<path class="st0" d="M4191.7,3133.5c10.7-5.3,21.5-10.4,32.2-15.7c4.1-2,8-4.4,12.6-6.9c-9-15.6-17.6-30.5-26.2-45.4
		c-14.8,7.4-28.9,14.4-43.4,21.5c6.2,15.1,12.2,29.6,18.1,44.1C4186.4,3134.8,4188.4,3135.1,4191.7,3133.5z"/>
	<path class="st0" d="M3867.1,3081c4.4-10.3,8.8-20.7,13.1-31.1c-16.1-6.7-31.6-14.6-46.4-23.6c-6.4,10.4-12.8,20.9-19.7,32.1
		c16.9,8.3,33.1,16.3,49.4,24.1C3864.3,3083,3866.7,3081.9,3867.1,3081z"/>
	<path class="st0" d="M3637.1,2970.7c3.3-2.1,2.8-4.3,1-7.2c-4.7-7.7-9.2-15.6-13.8-23.4c-1.8-3.1-3.7-6.3-5.7-9.7
		c-15.8,8.1-30.9,15.8-46.8,24c8.4,14.5,16.3,28.2,24.6,42.7C3610.7,2987.7,3623.9,2979.2,3637.1,2970.7z"/>
	<path class="st0" d="M3663.1,2994.7c14.2-10.8,27.3-20.9,41-31.4c-8.3-12.7-16.2-25-24.4-36.9c-0.7-1.1-4.9-0.9-6.7,0.1
		c-9.3,5-18.4,10.6-27.6,15.8c-14.9,8.4-12.7,6.3-4.9,19C3647.4,2972.5,3655.2,2983.1,3663.1,2994.7z"/>
	<path class="st0" d="M3737.5,3001c-10.2-11.6-20.3-23.2-31.1-35.3c-13.5,10.4-27,20.7-41.8,32.1c12.5,14.1,24.2,27.4,35,39.6
		C3713,3024.6,3725.2,3012.9,3737.5,3001z"/>
	<path class="st0" d="M3776.8,3035.8c-12.4-10.9-24.3-21.3-34.6-30.3c-12.8,12.2-25.2,24.1-38.4,36.6c13.4,11.7,26.8,23.4,40.8,35.7
		C3755.8,3063,3766.3,3049.5,3776.8,3035.8z"/>
	<path class="st0" d="M4380.1,2165.3c0.2,0.1,0.5,0.2,0.8,0.2c-14.3-9.3-28.9-18.1-43.9-26.4c0,0,0,0,0,0
		C4351.8,2148.2,4365.9,2156.9,4380.1,2165.3z"/>
	<path class="st0" d="M4519.1,2671.9c14.5-1.3,29.1-2.9,43.5-4.8c1.6-0.2,4.2-3.5,4-5c-2.1-16.2-4.7-32.3-7.4-50
		c-17.4,3.7-33.4,7.1-49.3,10.7c-1,0.2-2.2,3.2-2,4.7c2,13.6,4.2,27.1,6.7,40.6C4514.8,2669.7,4517.7,2672,4519.1,2671.9z"/>
	<path class="st0" d="M4580.6,2493.9c-17,7-32.6,13.5-48.7,20.2c4.9,13.7,9.5,26.9,14.5,39.8c0.4,1.1,3.7,2.1,5.2,1.7
		c13.8-4.1,27.5-8.4,41.2-12.9c1.5-0.5,3.5-3.5,3.2-4.6C4591.1,2523.5,4585.9,2509,4580.6,2493.9z"/>
	<path class="st0" d="M4607.5,2593.4c1.2-0.3,2.9-3.4,2.6-4.7c-3.3-13.3-7-26.5-10.5-39.8c-0.8-3.1-2.3-4.4-5.8-3.2
		c-13.7,4.4-27.5,8.5-41.1,13.1c-1.5,0.5-3.4,4.1-3,5.8c2.7,11.6,5.8,23.2,9.1,34.7c0.5,1.8,2.4,3.3,3.2,4.4
		C4578.2,2600,4592.9,2596.9,4607.5,2593.4z"/>
	<path class="st0" d="M4146.3,2143.7c-2.8,12.7-5.5,25.3-8.4,38.4c15,4,29.2,7.9,44.4,12c5.2-16.6,10.4-32.9,16-50.5
		c-12.7-3.5-24.4-6.9-36.1-9.8C4149.2,2130.5,4149.2,2130.7,4146.3,2143.7z"/>
	<path class="st0" d="M4372.1,2878.9c0.4-0.9-1.3-3.7-2.6-4.3c-9.7-4.2-19.5-8.3-29.4-12.4c-6.8,16.1-14.9,31.7-23.9,46.5
		c10.3,6.3,20.7,12.7,31.9,19.5C4356.4,2911.3,4364.4,2895.2,4372.1,2878.9z"/>
	<path class="st0" d="M4187.9,2089.8c-3.3,13.3-6.7,26.6-10.6,39.7c-1.3,4.3,0.6,5.5,4,6.5c13.9,4.2,27.9,8.5,42.9,13.2
		c5.5-15.1,11-30,16.1-45c0.5-1.4-1.7-4.9-3.3-5.5c-13.8-4.7-27.7-9-41.6-13.4C4191.1,2083.8,4189,2085.3,4187.9,2089.8z"/>
	<path class="st0" d="M4396.1,2971.6c11.4,7.2,22.6,14.7,34,22c1.6,1,3.4,1.7,5.7,2.9c8.1-14.1,16-27.6,24.4-42.2
		c-16.4-8.3-31.6-16.1-46.9-23.9c-6.7,11.5-12.8,22.3-19.3,32.8C4391.3,2967.3,4392.5,2969.3,4396.1,2971.6z"/>
	<path class="st0" d="M4512.2,2830.5c13.7,2.7,27.3,5.5,40.9,8.7c4.4,1,6.1-0.4,6.7-4.5c2.3-14.4,4.6-28.8,7-43.2
		c0.7-4.3-1.1-6.1-5.2-6.5c-13.9-1.4-27.7-2.8-42-4.3c-3.6-1-4.9,0.8-5.5,4.8c-1.9,12.9-4.1,25.8-6.3,38.6
		C4507.2,2827.8,4508.2,2829.7,4512.2,2830.5z"/>
	<path class="st0" d="M4359.4,2922.7c6.1,3.9,12.6,7.4,18.9,11c7.2,4.2,14.4,8.4,22.9,13.3c7.7-16,15-31,22.1-46.2
		c0.5-1.1-0.6-4.1-1.7-4.6c-14.7-6.4-29.6-12.5-44.7-18.7c-7,13.9-13.7,27-20.1,40.3C4356.3,2918.8,4358,2921.8,4359.4,2922.7z"/>
	<path class="st0" d="M4479.1,2912.1c2.2-4.7,0.6-6.6-3.9-8.2c-10.2-3.6-20.2-7.7-30.4-11.5c-12.9-4.8-12.8-4.8-18.3,7.9
		c-3.9,9-8,18-12.2,27.5c15.7,8,30.8,15.7,47.2,24.1C4467.7,2937.9,4473.3,2924.9,4479.1,2912.1z"/>
	<path class="st0" d="M4643,2504.8c-0.5-1.4-3.9-3.3-5.2-2.8c-14.8,5.1-29.5,10.5-44.6,16.1c5.2,16.4,10,31.7,15,47.5
		c15.7-4.1,30.9-8,45.9-12.3c1.3-0.4,3-4,2.6-5.5C4652.4,2533.3,4647.9,2519,4643,2504.8z"/>
	<path class="st0" d="M4621,2807.5c-17.2-2.4-32.8-4.7-48.3-6.6c-1.5-0.2-4.5,2.4-4.8,4.2c-2.5,11.9-4.6,23.9-6.5,35.9
		c-0.3,1.6,1.4,4.9,2.7,5.3c15.6,3.8,31.4,7.1,48.1,10.8C4615.2,2840.3,4618,2824.3,4621,2807.5z"/>
	<path class="st0" d="M4556.9,2846.7c0.3-1.2-2.7-4.2-4.5-4.6c-13.5-3.2-27.2-5.7-40.8-8.8c-3.7-0.9-5.3,0.1-6.2,3.6
		c-3.4,13-7.1,26-10.3,39c-0.4,1.5,1.4,4.8,2.8,5.3c14.8,5.1,29.7,9.8,46.2,15.1C4548.6,2879.1,4553,2862.9,4556.9,2846.7z"/>
	<path class="st0" d="M4552.1,2893.5c14.9,5,29.8,9.6,46.4,14.8c4.2-15.6,8.2-30.3,11.8-45c0.3-1.1-1.9-3.9-3.4-4.3
		c-14-3.3-28.1-6.2-42.1-9.4c-3.6-0.8-5.3,0.2-6.2,3.8c-2.9,11.6-6.2,23.1-8.9,34.7C4549.3,2889.7,4550.7,2893.1,4552.1,2893.5z"/>
	<path class="st0" d="M4564.3,2727.3c-13.5,0.2-27,0.2-40.5,0c-4.9-0.1-6.7,1.6-6.6,6.5c0.2,11.5,0.1,23,0.1,34.5
		c-1.3,3.8-3.8,9,2.9,9.8c14.3,1.6,28.6,3.1,42.9,4.2c1.6,0.1,4.8-2.6,4.9-4.1c1.2-14.8,1.9-29.6,2.9-44.4
		C4571.1,2728.8,4569.2,2727.2,4564.3,2727.3z"/>
	<path class="st0" d="M4427.2,3098.8c-13.5-12.2-26.2-23.6-37.6-33.9c-12.3,12-23.7,23.2-35.6,34.7c11,12.1,22.3,24.6,34.4,37.9
		C4401.5,3124.3,4414,3111.9,4427.2,3098.8z"/>
	<path class="st0" d="M4476.9,2933.8c-1.1-0.5-4.1,1.1-4.8,2.5c-6.2,11.7-12.3,23.6-18,35.6c-0.7,1.5,0,5.1,1.2,5.8
		c12.3,7.5,24.8,14.7,37.4,21.6c1.4,0.8,5.2,0,5.9-1.2c7.8-14.4,15.2-28.9,23.3-44.5C4506,2946.5,4491.5,2940,4476.9,2933.8z"/>
	<path class="st0" d="M4467.4,3047.7c9.5-13.8,18.7-27.8,28.5-42.5c-16.2-9.3-30.9-17.7-45.7-26.3c-9.2,14.1-17.9,27.5-27,41.4
		c13.1,9.5,25.9,18.9,38.9,28.1C4463.2,3049.1,4466.7,3048.7,4467.4,3047.7z"/>
	<path class="st0" d="M4491.4,3027.2c8.7,6,17.8,11.6,26.8,17.3c4.2,2.7,8.5,5.2,13.4,8.2c8.5-14.8,16.6-28.8,24.9-43.3
		c-16.3-8.5-31.2-16.2-46.5-24.1c-7.4,12.5-14.3,24.1-20.8,35.9C4488.5,3022.5,4489.9,3026.2,4491.4,3027.2z"/>
	<path class="st0" d="M4621,2645c-3-16.9-5.8-32.9-8.8-49.6c-16.8,3.7-32.5,7.1-48.2,10.8c-1.3,0.3-3,3.2-2.8,4.7
		c1.9,12.5,4.2,24.9,6.7,37.2c0.3,1.4,2.9,3.6,4.1,3.5C4587.8,2649.7,4603.6,2647.4,4621,2645z"/>
	<path class="st0" d="M4540.8,2903c0.4-1.2-1.6-4.5-3.1-5.1c-13.1-4.6-26.5-8.7-39.7-13.2c-3.7-1.3-5.6-0.4-6.9,3.4
		c-4.5,12.3-9.4,24.4-13.8,36.6c-0.5,1.5,0.2,4.9,1.2,5.4c14.4,6.7,29,13,45,20.1C4529.6,2933.7,4535.4,2918.4,4540.8,2903z"/>
	<path class="st0" d="M4570.8,2718.1c-1.1-14.3-1.9-28.7-2.5-43c-0.2-4.5-2.2-5.6-6.3-5.1c-13.6,1.5-27.2,2.9-40.8,4.2
		c-4.4,0.4-6,2.4-5.7,6.9c0.8,12.8,1.4,25.6,1.7,38.4c0.1,4.4,1.9,5.8,6,5.7c6.8-0.2,13.7,0,20.6,0c6.6,0,13.3-0.3,19.9,0.1
		C4569,2725.6,4571.2,2723.8,4570.8,2718.1z"/>
	<path class="st0" d="M4075.5,2066.8c-1.7,15-3,29.9-4.1,45c-0.1,1.3,2.2,3.9,3.6,4.1c14.9,2.2,29.8,4,46,6.1
		c3-17.2,5.8-34,8.9-51.9c-17.4-2.3-33.3-4.5-49.3-6.3C4079,2063.5,4075.6,2065.5,4075.5,2066.8z"/>
	<path class="st0" d="M3996.8,2116.8c-4-0.1-5.5,1.6-5.3,5.6c0.7,13.7,1.2,27.4,1.6,41.1c0.1,4.4,2.2,5.3,6.3,5.2
		c11-0.3,22.1-0.2,33.1,0.1c4,0.1,5.8-1.1,6-5c0.5-13.9,1.1-27.8,1.7-41.7c0.2-3.7-1.3-5.3-5-5.2c-6.4,0.1-12.8,0-19.2,0
		C4009.6,2116.8,4003.2,2116.9,3996.8,2116.8z"/>
	<path class="st0" d="M4066.9,2062.1c-14.8-0.5-29.6-1-44.5-1.6c-4.6-0.2-5.7,2-5.6,6c0.2,6.6,0,13.3,0.1,19.9
		c0,7.3,0.1,14.6,0,21.9c-0.1,3.6,1.4,5,5.1,5.1c13.5,0.3,27,0.9,40.5,1.5c3.7,0.2,5.8-0.7,6.1-4.9c1.1-14.1,2.3-28.2,3.6-42.3
		C4072.6,2063.8,4070.8,2062.3,4066.9,2062.1z"/>
	<path class="st0" d="M4008.5,2060.5c-14.4,0.7-28.8,1.2-43.2,1.6c-4.7,0.1-6.2,2-5.7,6.6c1.3,13.7,2.6,27.3,3.6,41
		c0.3,4.3,2.1,5.6,6.3,5.4c13.3-0.7,26.5-1.2,39.8-1.5c4.5-0.1,5.7-1.9,5.6-6c-0.2-6.9-0.1-13.7-0.1-20.6c0-6.6-0.2-13.3,0.1-19.9
		C4015.1,2062.2,4013.5,2060.3,4008.5,2060.5z"/>
	<path class="st0" d="M3939.6,2065c-12.2,1.5-24.4,3.3-37.7,5.2c3.1,17.9,6,34.7,9,51.8c14.6-2,28.4-4.4,42.2-5.5
		c6.7-0.6,8.1-3.1,7.4-9.1c-1.1-9-2-18-2.6-27.1C3956.7,2063.1,3956.7,2062.9,3939.6,2065z"/>
	<path class="st0" d="M4132.1,2075.7c-2.8,14.1-5,28.2-7.7,42.4c-0.8,4.2,1,5.3,4.7,6.1c10.6,2,21.2,4.3,31.8,6.7
		c12.6,2.8,12.6,2.9,15.9-9.6c3.3-12.5,6.6-25.1,10.3-39c-17.3-3.7-33.8-7.3-50.4-10.5C4135.4,2071.4,4132.4,2074.1,4132.1,2075.7z"
		/>
	<path class="st0" d="M4639,2483.9c2.4,6.5,4.9,13,7.2,19.6C4643.9,2496.9,4641.5,2490.4,4639,2483.9z"/>
	<path class="st0" d="M4667.2,2609.7c1.4-0.3,3.5-3.6,3.2-5c-3.1-15.1-6.5-30.2-10.1-45.2c-0.3-1.4-3.6-3.4-4.9-3
		c-14.1,3.5-28.2,7.5-42.3,11.2c-3.6,0.9-4.4,2.7-3.6,6.3c3.1,13.1,5.7,26.3,8.9,39.4c0.5,2,2.6,3.5,3.6,4.8
		C4638.1,2615.2,4652.7,2612.7,4667.2,2609.7z"/>
	<path class="st0" d="M3880.9,2074.2c-11.8,2.4-23.6,5.4-36.2,8.3c4.5,16.7,8.7,32.5,13.2,48.1c0.3,1.2,4,2.3,5.7,2
		c13.2-2.7,26.3-5.8,39.5-8.6c3.5-0.7,4.9-2.1,4.1-5.9c-1.8-9.8-3.2-19.6-5-29.4C3899.1,2070.8,3899,2070.6,3880.9,2074.2z"/>
	<path class="st0" d="M4168.2,2075.3c14.4,3.7,28.7,7.6,42.9,11.8c2.1,0.6,3.9,0.9,5.2,0.5c-18.6-5.8-37.5-10.9-56.7-15.1
		C4161.3,2073.6,4163.9,2074.2,4168.2,2075.3z"/>
	<path class="st0" d="M4217.3,3125c-12.9,5.6-24.9,10.8-36.7,16.2c-1.2,0.6-2.4,3.7-1.9,5.1c5.1,13.9,10.4,27.7,15.9,41.4
		c0.5,1.3,3.3,2.9,4.2,2.5c14-5.8,27.8-11.9,42.4-18.3C4233,3155.5,4225.3,3140.5,4217.3,3125z"/>
	<path class="st0" d="M3798.6,3236.2c12.4,4.6,24.8,9.5,37.2,14.2c1.4,0.6,3,0.9,5.6,1.6c0.9-1.3,2.5-2.7,3.1-4.4
		c4.3-12.8,8.3-25.7,12.7-38.5c1.5-4.2,0.6-6.4-3.7-7.9c-11.9-4.2-23.7-8.7-35.4-13.4c-3.9-1.6-5.5-0.6-7.1,3
		c-5.3,12.2-10.6,24.4-16.3,36.4C3792.4,3232.1,3793.9,3234.4,3798.6,3236.2z"/>
	<path class="st0" d="M3789.6,3167c7.5-14.2,14.7-28.6,22.3-43.5c-9.2-5.3-17.5-9.9-25.7-14.7c-12.3-7.2-12.3-7.3-20,4.6
		c-6.8,10.5-13.6,21.1-21,32.6c13.7,7.8,26.7,15.2,39.8,22.4C3786,3169,3789,3168.1,3789.6,3167z"/>
	<path class="st0" d="M3849.9,3154.8c4.7-12.3,4.7-12.3-7.4-17.5c-9.2-4-18.4-8.1-28.1-12.4c-8,15.7-15.7,30.8-23.9,46.9
		c15.2,6.8,29.6,13.2,45.1,20.1C3840.7,3178.7,3845.3,3166.8,3849.9,3154.8z"/>
	<path class="st0" d="M3912.1,3107.1c0.3-1.3-1.5-4.2-2.9-4.7c-13.5-4.8-27.2-9.2-41.4-13.9c-3.5,8-7,15.9-10.5,23.8
		c-0.7-0.3-1.4-0.6-2.1-0.9c3.2-8,6.4-16,9.7-24.4c-14.5-7.2-28.5-14.2-43.3-21.5c-8.6,14.9-17.2,29.7-26.5,45.9
		c16.7,8.3,32.8,16.2,49.4,24.4c3.1-6.7,5.5-12.2,8-17.6c0.6,0.3,1.2,0.5,1.9,0.8c-2.1,5.6-4.1,11.2-6.6,18
		c17.3,5.8,34.1,11.5,51.8,17.5C3904,3137.8,3908.2,3122.5,3912.1,3107.1z"/>
	<path class="st0" d="M3887,3202.3c3.1-12,6.3-24,9.6-35.9c2.5-9.4,2.6-9.3-6.4-12.1c-10.9-3.4-21.7-7-33.1-10.6
		c-6.3,16.5-12.3,32.3-18.9,49.5c14.7,4.7,28.2,9,41.6,13.4C3883.9,3207.8,3885.9,3206.5,3887,3202.3z"/>
	<path class="st0" d="M3925.8,3095.3c0.4-3.3,1.6-6.4,2.4-9.6c1.5-6.2,2.9-12.4,4.3-18.6c-17-4.1-33.6-9.5-49.5-16
		c-2.6,6.3-5.2,12.6-7.8,18.9c-2,4.8-3.8,9.7-6.3,15.8c16.5,5.3,32,10.1,47.5,15.3C3922.2,3103,3925.1,3101.5,3925.8,3095.3z"/>
	<path class="st0" d="M3697,3042.9c0.7-0.8,0.5-3.6-0.3-4.5c-8.7-9.9-17.7-19.7-27-30c-13.5,11-26.8,21.8-41,33.2
		c11.2,12.5,21.8,24.2,33.3,37C3674.2,3066.3,3685.7,3054.7,3697,3042.9z"/>
	<path class="st0" d="M3731.1,3075.4c0.9-1.1,0.7-4.5-0.3-5.5c-8.7-8.2-17.6-16.2-26.6-24c-1.1-0.9-4.5-1-5.5,0
		c-11.5,11-22.8,22.2-34.9,34.2c12.5,11.3,24.2,21.9,36.8,33.2C3711.4,3099.9,3721.4,3087.8,3731.1,3075.4z"/>
	<path class="st0" d="M3648.8,3141.6c12.9,11,26,21.7,39.6,32.9c10.8-14.9,20.8-28.6,31.1-42.8c-13.4-10.8-25.9-20.9-38.7-31.2
		c-11.1,12.2-21.7,23.8-32,35.6C3647.9,3137.3,3647.9,3140.8,3648.8,3141.6z"/>
	<path class="st0" d="M3748.9,3134.6c7.5-11.4,14.8-22.9,22.4-34.6c-11.9-8.6-23.2-16.8-35.3-25.5c-11,13.6-21.7,26.8-32.9,40.7
		c10.6,7.8,20.6,15.5,30.9,22.6C3744.3,3144.8,3742,3145,3748.9,3134.6z"/>
	<path class="st0" d="M4291.8,3141.6c12.3-8.5,24.5-17.2,37.2-26.3c-11.5-14.1-22.1-27.3-33.1-40.8c-11.9,8.6-23.3,16.9-35.3,25.6
		c9,13.8,17.4,27,26.2,40C4287.5,3141.3,4290.8,3142.3,4291.8,3141.6z"/>
	<path class="st0" d="M3932.4,3105.1c15,2.6,30.1,5.2,46.9,8.2c1.4-1.4,4.6-2.9,4.8-4.9c1.2-10.8,2.2-21.7,3-32.6
		c-17.7-1.4-35-4.2-51.8-8.1c-2.4,10.1-4.9,20.2-7.5,30.3C3926.9,3102.2,3928.3,3104.4,3932.4,3105.1z"/>
	<path class="st0" d="M3668.1,3006.3c-8.9-12.2-17.3-23.8-26-35.7c-13.9,9.1-27.5,17.8-40.9,26.8c-1,0.7-1.6,4.2-0.8,5.3
		c8.4,12.2,17.1,24.2,26.4,37.1C3641.3,3028.1,3654.6,3017.2,3668.1,3006.3z"/>
	<path class="st0" d="M4382.6,3142.3c3.2-2.7,1.7-4.7-0.5-7.1c-7.5-8.2-14.8-16.5-22.2-24.7c-9-10-9-10-19.4-1.5
		c-9.2,7.5-18.5,15-28.2,22.8c10.3,14.1,20.2,27.9,31.1,42.8C4357,3163.3,4369.8,3152.8,4382.6,3142.3z"/>
	<path class="st0" d="M4192.6,3251.3c15.4-5.5,30.6-11.2,47.2-17.4c-5.5-12.6-10.4-23.7-15.3-34.7c-5.9-13.2-5.9-13.2-19.4-7.8
		c-10.4,4.1-20.9,8.1-32.1,12.4c5,15.6,9.9,30.7,15,45.7C4188.3,3250.5,4191.4,3251.7,4192.6,3251.3z"/>
	<path class="st0" d="M4331.4,3113.2c12.3-11.1,23.9-21.6,36.7-33.1c-12.3-12.1-23.6-23.4-35.2-34.3c-1-0.9-4.6-0.5-5.9,0.6
		c-8.6,7.3-16.8,15.1-25.3,22.5c-2.8,2.4-3.1,4.3-0.7,7.2c5.3,6.3,10.3,12.7,15.5,19.1C4321.3,3101,4326,3106.7,4331.4,3113.2z"/>
	<path class="st0" d="M4286.6,3145.8c-9.4-14.4-18.1-27.9-27-41.3c-0.7-1-3.7-1.7-4.8-1.1c-11.5,6.5-22.8,13.2-34.8,20.3
		c8,15.6,15.7,30.8,23.9,46.9C4258.6,3162.1,4272.2,3154.2,4286.6,3145.8z"/>
	<path class="st0" d="M4163,3085.6c-5.1-12.5-9.6-23.5-14.1-34.5c0,0,0-0.1,0-0.1c-16,6.5-32.5,11.9-49.5,16
		c2.8,11.8,5.7,23.8,8.8,36.5C4126.7,3097.5,4144.6,3091.7,4163,3085.6z"/>
	<path class="st0" d="M4130.6,3149c1,3.9,2.8,5,6.6,3.7c9.6-3.3,19.4-6.2,29-9.5c5.8-2,11.5-4.3,17.9-6.7
		c-6.8-16.4-13.3-32.1-19.9-48c-14.4,4.8-27.9,9.1-41.2,13.9c-1.6,0.6-3.6,4-3.2,5.6C4123.2,3121.6,4127.1,3135.2,4130.6,3149z"/>
	<path class="st0" d="M4144.6,3201.8c1.2,4.8,3.5,6,8.1,4.5c11.9-4,23.9-7.9,35.8-11.9c1.6-0.5,3-1.5,4.7-2.5
		c-6.3-16.3-12.4-32.1-18.6-48.2c-13.3,4.2-25.5,8.2-37.7,11.9c-3.6,1.1-3.9,3-3.1,5.9C4137.5,3175,4141.2,3188.4,4144.6,3201.8z"/>
</g>
</svg>
