<!-- Generator: Adobe Illustrator 25.2.0, SVG Export Plug-In  -->
<svg version="1.1" xmlns="http://www.w3.org/2000/svg" xmlns:xlink="http://www.w3.org/1999/xlink" x="0px" y="0px" width="4800px"
	 height="3480px" viewBox="0 0 4800 3480" style="overflow:visible;enable-background:new 0 0 4800 3480;" xml:space="preserve">
<style type="text/css">
	.st0{opacity:0.8;fill:#565053;}
	.st1{fill:none;}
</style>
<defs>
</defs>
<path class="st0" d="M4015,2058.5c-128.5,0-248.5,36.3-350.3,99.1L3585,2078l-230.5,230.5l82.7,82.7
	c-57.3,98.6-90.2,213.1-90.2,335.3c0,368.9,299.1,668,668,668s668-299.1,668-668S4383.9,2058.5,4015,2058.5z M4015,3078.5
	c-194.4,0-352-157.6-352-352s157.6-352,352-352s352,157.6,352,352S4209.4,3078.5,4015,3078.5z"/>
<rect class="st1" width="4800" height="3480"/>
</svg>
