<?xml version="1.0" encoding="utf-8"?>
<!-- Generator: Adobe Illustrator 25.4.1, SVG Export Plug-In . SVG Version: 6.00 Build 0)  -->
<svg version="1.1" id="Layer_1" xmlns="http://www.w3.org/2000/svg" xmlns:xlink="http://www.w3.org/1999/xlink" x="0px" y="0px"
	 viewBox="0 0 89.4 41.1" style="enable-background:new 0 0 89.4 41.1;" xml:space="preserve">
<style type="text/css">
	.st0{fill:#1D1D1B;}
	.st1{fill:#001200;}
</style>
<g>
	<g>
		<path d="M49.2,3.7h0.8l2.9,7.2H52l-0.7-1.7h-3.7L47,10.9h-0.8L49.2,3.7z M51.1,8.5l-1.6-4l-1.6,4H51.1z"/>
		<path d="M53.8,3.7h0.7v7.2h-0.7V3.7z"/>
		<path d="M58.6,3.7h0.8v6.5h3.8v0.7h-4.6V3.7z"/>
		<path d="M66.7,3.7h0.8l2.9,7.2h-0.8l-0.7-1.7h-3.7l-0.7,1.7h-0.8L66.7,3.7z M68.7,8.5l-1.6-4l-1.6,4H68.7z"/>
		<path d="M71.3,3.7h3.1c1.6,0,2.3,0.6,2.3,1.7c0,0.8-0.3,1.5-1,1.7c0.8,0.2,1.2,0.8,1.2,1.8c0,1.5-0.9,2-2.5,2h-3V3.7z M74.4,6.8
			c1.2,0,1.5-0.5,1.5-1.3c0-0.7-0.4-1.1-1.5-1.1H72v2.4H74.4z M74.4,10.2c1.2,0,1.7-0.4,1.7-1.4c0-0.9-0.5-1.3-1.7-1.3H72v2.7H74.4z
			"/>
		<path d="M46.4,16.3h2.2v0.3h-1.9v1.1h1.8v0.3h-1.8v1.3h1.9v0.3h-2.2V16.3z"/>
		<path d="M49.3,18.7v-1.5h0.3v1.5c0,0.4,0,0.8,0.7,0.8c0.7,0,0.7-0.3,0.7-0.8v-1.5h0.3v1.5c0,0.7-0.1,1.1-1.1,1.1
			C49.4,19.8,49.3,19.3,49.3,18.7z"/>
		<path d="M52.1,17.2l0.3,0l0,0.3c0.1-0.2,0.4-0.4,0.9-0.4v0.3c-0.6,0-0.8,0.4-0.8,0.8v1.4h-0.3V17.2z"/>
		<path d="M53.5,18.4c0-0.9,0.3-1.3,1.2-1.3c0.9,0,1.2,0.4,1.2,1.3c0,0.9-0.3,1.3-1.2,1.3C53.9,19.8,53.5,19.3,53.5,18.4z
			 M55.6,18.5c0-0.6-0.2-1-0.9-1c-0.6,0-0.9,0.3-0.9,1c0,0.6,0.2,1,0.9,1C55.4,19.4,55.6,19.1,55.6,18.5z"/>
		<path d="M56.5,17.2l0.3,0l0,0.3c0.1-0.2,0.4-0.4,1-0.4c0.8,0,1.1,0.5,1.1,1.3c0,0.8-0.2,1.3-1.1,1.3c-0.5,0-0.8-0.1-0.9-0.3v1
			h-0.3V17.2z M58.5,18.5c0-0.6-0.2-1-0.8-1c-0.6,0-0.9,0.2-0.9,1c0,0.7,0.2,1,0.9,1C58.4,19.4,58.5,19.1,58.5,18.5z"/>
		<path d="M59.3,18.4c0-0.7,0.2-1.3,1.2-1.3c1,0,1,0.7,1,1.4h-1.9c0,0.5,0.2,0.9,0.9,0.9c0.4,0,0.6-0.1,0.8-0.3l0.2,0.2
			c-0.3,0.2-0.5,0.3-1,0.3C59.5,19.8,59.3,19.2,59.3,18.4z M59.7,18.2h1.6c0-0.4-0.1-0.8-0.7-0.8C59.9,17.4,59.7,17.8,59.7,18.2z"/>
		<path d="M62,19c0-0.7,0.4-0.9,1.7-0.9h0.1c0-0.4-0.1-0.6-0.7-0.6c-0.3,0-0.6,0.1-0.8,0.2l-0.2-0.3c0.2-0.1,0.5-0.3,1-0.3
			c0.8,0,1,0.3,1,1v0.9c0,0.3,0,0.3,0.3,0.3v0.3c0,0-0.1,0-0.1,0c-0.3,0-0.4-0.1-0.4-0.3c-0.2,0.2-0.4,0.4-1,0.4
			C62.1,19.8,62,19.4,62,19z M63.8,18.6v-0.2h-0.1c-1.1,0-1.4,0.1-1.4,0.6c0,0.3,0.1,0.5,0.6,0.5C63.5,19.5,63.8,19.2,63.8,18.6z"/>
		<path d="M64.9,17.2l0.3,0l0,0.3c0.1-0.2,0.4-0.3,0.9-0.3c0.8,0,0.9,0.4,0.9,1v1.5h-0.3v-1.5c0-0.4,0-0.8-0.7-0.8
			c-0.7,0-0.8,0.3-0.8,0.8v1.4h-0.3V17.2z"/>
		<path d="M69.9,16.3h0.4l1.4,3.4h-0.4L71,18.9h-1.7l-0.3,0.8h-0.4L69.9,16.3z M70.8,18.6l-0.7-1.9l-0.7,1.9H70.8z"/>
		<path d="M73.5,18.3h-1v1.4h-0.4v-3.4h1.5c0.8,0,1.1,0.3,1.1,1c0,0.6-0.3,0.9-0.9,1l0.8,1.4h-0.4L73.5,18.3z M73.6,18
			c0.5,0,0.8-0.1,0.8-0.7c0-0.5-0.3-0.7-0.8-0.7h-1.1V18H73.6z"/>
		<path d="M76.3,16.7H75v-0.3h2.9v0.3h-1.3v3h-0.4V16.7z"/>
		<path d="M78.3,16.4h0.3v0.5h-0.3V16.4z M78.3,17.2h0.3v2.5h-0.3V17.2z"/>
		<path d="M79.2,17.2h0.5V17c0-0.5,0.2-0.8,0.7-0.8h0.3v0.3h-0.2c-0.4,0-0.4,0.2-0.4,0.5v0.2h0.7v0.3H80v2.2h-0.3v-2.2h-0.5V17.2z
			 M81.1,16.4h0.3v0.5h-0.3V16.4z M81.1,17.2h0.3v2.5h-0.3V17.2z"/>
		<path d="M82,18.4c0-0.8,0.3-1.3,1.2-1.3c0.5,0,0.7,0.2,0.9,0.4l-0.3,0.2c-0.1-0.1-0.3-0.3-0.7-0.3c-0.7,0-0.9,0.4-0.9,1
			c0,0.6,0.2,1,0.9,1c0.3,0,0.5-0.1,0.7-0.3l0.2,0.2c-0.3,0.2-0.5,0.4-0.9,0.4C82.3,19.8,82,19.2,82,18.4z"/>
		<path d="M84.7,16.4h0.3v0.5h-0.3V16.4z M84.7,17.2h0.3v2.5h-0.3V17.2z"/>
		<path d="M85.6,19c0-0.7,0.4-0.9,1.7-0.9h0.2c0-0.4-0.1-0.6-0.7-0.6c-0.3,0-0.6,0.1-0.8,0.2l-0.2-0.3c0.2-0.1,0.5-0.3,1-0.3
			c0.8,0,1,0.3,1,1v0.9c0,0.3,0,0.3,0.3,0.3v0.3c0,0-0.1,0-0.1,0c-0.3,0-0.4-0.1-0.4-0.3c-0.2,0.2-0.4,0.4-1,0.4
			C85.8,19.8,85.6,19.4,85.6,19z M87.5,18.6v-0.2h-0.1c-1.1,0-1.4,0.1-1.4,0.6c0,0.3,0.1,0.5,0.6,0.5C87.2,19.5,87.5,19.2,87.5,18.6
			z"/>
		<path d="M88.6,19.1v-2.9H89v2.9c0,0.2,0,0.3,0.3,0.3c0,0,0.1,0,0.1,0v0.3c0,0-0.1,0-0.2,0C88.7,19.7,88.6,19.5,88.6,19.1z"/>
		<path d="M46.5,21.8h0.4v3.4h-0.4V21.8z"/>
		<path d="M47.6,22.7l0.3,0l0,0.3c0.1-0.2,0.4-0.3,0.9-0.3c0.8,0,0.9,0.4,0.9,1v1.5h-0.3v-1.5c0-0.4,0-0.8-0.7-0.8
			c-0.7,0-0.8,0.3-0.8,0.8v1.4h-0.3V22.7z"/>
		<path d="M50.2,22.7h0.5l0.1-0.8l0.3-0.1v0.8h0.7V23H51v1.5c0,0.2,0,0.4,0.4,0.4h0.3v0.3c0,0-0.3,0-0.4,0c-0.6,0-0.7-0.2-0.7-0.7
			V23h-0.5V22.7z"/>
		<path d="M52.1,23.9c0-0.7,0.2-1.3,1.2-1.3c1,0,1,0.7,1,1.4h-1.9c0,0.5,0.2,0.9,0.9,0.9c0.4,0,0.6-0.1,0.8-0.3l0.2,0.2
			c-0.3,0.2-0.5,0.3-1,0.3C52.2,25.2,52.1,24.6,52.1,23.9z M52.4,23.7h1.6c0-0.4-0.1-0.8-0.7-0.8C52.6,22.9,52.4,23.2,52.4,23.7z"/>
		<path d="M54.9,24.6v-2.9h0.3v2.9c0,0.2,0,0.3,0.3,0.3c0,0,0.1,0,0.1,0v0.3c0,0-0.1,0-0.2,0C55,25.2,54.9,25,54.9,24.6z"/>
		<path d="M56.2,24.6v-2.9h0.3v2.9c0,0.2,0,0.3,0.3,0.3c0,0,0.1,0,0.1,0v0.3c0,0-0.1,0-0.2,0C56.3,25.2,56.2,25,56.2,24.6z"/>
		<path d="M57.6,21.8h0.3v0.5h-0.3V21.8z M57.6,22.7h0.3v2.5h-0.3V22.7z"/>
		<path d="M59.1,24.2c0,0.1-0.1,0.1-0.1,0.2c0,0.2,0.1,0.2,0.5,0.2c0.9,0,1.2,0.1,1.2,0.6c0,0.5-0.3,0.8-1.2,0.8
			c-0.8,0-1.2-0.1-1.2-0.6c0-0.3,0.1-0.5,0.5-0.6c-0.1,0-0.2-0.2-0.2-0.3c0-0.1,0-0.2,0.1-0.3c-0.2-0.1-0.3-0.3-0.3-0.7
			c0-0.6,0.3-0.8,1-0.8c0.1,0,0.2,0,0.2,0l0.9-0.1v0.3h-0.4c0.2,0.1,0.3,0.3,0.3,0.6c0,0.6-0.3,0.8-1,0.8
			C59.4,24.2,59.3,24.2,59.1,24.2z M60.5,25.2c0-0.3-0.2-0.4-0.9-0.4c-0.7,0-0.8,0.2-0.8,0.4c0,0.3,0.3,0.4,0.8,0.4
			C60.3,25.7,60.5,25.5,60.5,25.2z M60.3,23.4c0-0.4-0.2-0.5-0.7-0.5c-0.5,0-0.7,0.2-0.7,0.5c0,0.4,0.2,0.5,0.7,0.5
			C60.1,23.9,60.3,23.8,60.3,23.4z"/>
		<path d="M61.1,23.9c0-0.7,0.2-1.3,1.2-1.3c1,0,1,0.7,1,1.4h-1.9c0,0.5,0.2,0.9,0.9,0.9c0.4,0,0.6-0.1,0.8-0.3l0.2,0.2
			c-0.3,0.2-0.5,0.3-1,0.3C61.3,25.2,61.1,24.6,61.1,23.9z M61.5,23.7H63c0-0.4-0.1-0.8-0.7-0.8C61.7,22.9,61.5,23.2,61.5,23.7z"/>
		<path d="M63.9,22.7l0.3,0l0,0.3c0.1-0.2,0.4-0.3,0.9-0.3c0.8,0,0.9,0.4,0.9,1v1.5h-0.3v-1.5c0-0.4,0-0.8-0.7-0.8
			c-0.7,0-0.8,0.3-0.8,0.8v1.4h-0.3V22.7z"/>
		<path d="M66.6,23.9c0-0.8,0.3-1.3,1.2-1.3c0.5,0,0.7,0.2,0.9,0.4l-0.3,0.2c-0.1-0.1-0.3-0.3-0.7-0.3c-0.7,0-0.9,0.4-0.9,1
			c0,0.6,0.2,1,0.9,1c0.3,0,0.5-0.1,0.7-0.3l0.2,0.2c-0.3,0.2-0.5,0.4-0.9,0.4C66.9,25.2,66.6,24.7,66.6,23.9z"/>
		<path d="M69.1,23.9c0-0.7,0.2-1.3,1.2-1.3c1,0,1,0.7,1,1.4h-1.9c0,0.5,0.2,0.9,0.9,0.9c0.4,0,0.6-0.1,0.8-0.3l0.2,0.2
			c-0.3,0.2-0.5,0.3-1,0.3C69.3,25.2,69.1,24.6,69.1,23.9z M69.4,23.7H71c0-0.4-0.1-0.8-0.7-0.8C69.7,22.9,69.5,23.2,69.4,23.7z"/>
		<path d="M73.1,21.8h0.4v3h1.8v0.3h-2.2V21.8z"/>
		<path d="M75.5,24.5c0-0.7,0.4-0.9,1.7-0.9h0.1c0-0.4-0.1-0.6-0.7-0.6c-0.3,0-0.6,0.1-0.8,0.2l-0.2-0.3c0.2-0.1,0.5-0.3,1-0.3
			c0.8,0,1,0.3,1,1v0.9c0,0.3,0,0.3,0.3,0.3v0.3c0,0-0.1,0-0.1,0c-0.3,0-0.4-0.1-0.4-0.3c-0.2,0.2-0.4,0.4-1,0.4
			C75.7,25.2,75.5,24.9,75.5,24.5z M77.3,24v-0.2h-0.1c-1.1,0-1.4,0.1-1.4,0.6c0,0.3,0.1,0.5,0.6,0.5C77.1,24.9,77.3,24.6,77.3,24z"
			/>
		<path d="M78.8,24.9l-0.1,0.3l-0.2,0v-3.5h0.3v1.3c0.1-0.2,0.4-0.3,1-0.3c0.8,0,1.1,0.5,1.1,1.3c0,0.8-0.2,1.3-1.1,1.3
			C79.2,25.2,78.9,25.1,78.8,24.9z M80.5,23.9c0-0.6-0.2-1-0.8-1c-0.6,0-0.9,0.3-0.9,1c0,0.7,0.2,1,0.9,1
			C80.3,24.9,80.5,24.5,80.5,23.9z"/>
	</g>
	<g>
		<g>
			<path d="M40.9,13.5c-0.1-3.5-0.2-7.1-0.2-7.7c0-1.4-0.5-2.8-1.5-3.8c-1-1-2.3-1.5-3.7-1.5l-0.1,0c-0.8,0-4.3-0.1-7.7-0.2
				c-2.5-0.1-5-0.2-6.5-0.2c-0.2,0-0.4,0-0.5,0C15,0,9.9,2.1,6,6c-8,8-8,21,0,29.1c3.9,3.9,9,6,14.5,6c5.5,0,10.7-2.1,14.5-6
				c4-4,6.2-9.4,6-15.1C41,18.5,40.9,16,40.9,13.5z M34,4.4c0.4-0.4,0.9-0.6,1.3-0.6c0.5,0,1,0.2,1.3,0.6c0.7,0.7,0.7,1.9,0,2.7
				c-0.4,0.4-0.9,0.6-1.3,0.6c-0.5,0-1-0.2-1.3-0.6C33.3,6.3,33.3,5.1,34,4.4z M32.7,32.7c-3.4,3.4-7.7,5-12.1,5
				c-4.4,0-8.8-1.7-12.1-5C1.7,26,1.7,15.1,8.4,8.4c3.4-3.4,7.7-5,12.1-5c4.4,0,8.8,1.7,12.1,5C39.4,15.1,39.4,26,32.7,32.7z"/>
		</g>
	</g>
	<path d="M35.4,5c0.2,0,0.4,0.1,0.5,0.2c0.3,0.3,0.3,0.7,0,1c-0.1,0.1-0.3,0.2-0.5,0.2c-0.2,0-0.4-0.1-0.5-0.2c-0.3-0.3-0.3-0.7,0-1
		C35,5.1,35.2,5,35.4,5"/>
	<path d="M27.6,20.8c-0.1-0.1-0.3-0.2-0.4-0.1l-1.1-3.2c0.1,0,0.2-0.1,0.2-0.2c0.4-0.4,0.4-0.9,0-1.3c-0.4-0.4-0.9-0.4-1.3,0
		c0,0,0,0,0,0.1l-4.6-3.1c0.1-0.2,0-0.5-0.1-0.6c-0.2-0.2-0.6-0.2-0.9,0c-0.2,0.2-0.2,0.5-0.1,0.7l-3.8,2.9c-0.4-0.3-0.9-0.3-1.3,0
		c-0.4,0.4-0.4,0.9,0,1.3c0.1,0.1,0.3,0.2,0.5,0.3l0.4,6.9c-0.1,0-0.1,0.1-0.2,0.1c-0.2,0.2-0.2,0.5,0,0.7c0.2,0.2,0.5,0.2,0.7,0
		c0,0,0-0.1,0.1-0.1l9.1,2.2c0,0.3,0.1,0.5,0.3,0.7c0.4,0.4,0.9,0.4,1.3,0c0.4-0.4,0.4-0.9,0-1.3c-0.1-0.1-0.2-0.2-0.3-0.2l1.3-4.9
		c0.1,0,0.3,0,0.4-0.1C27.8,21.3,27.8,21,27.6,20.8z M25.5,21l-2.4,0l-0.6-1.6l3,1.2L25.5,21z M25.8,20.7l0.8,0.3l-0.8,0L25.8,20.7z
		 M20.2,21c0,0,0-0.1,0-0.1l2.1-1.5l0.7,1.7L20.2,21z M15.5,24.4l2.5-4.6l1,1c-0.1,0.2-0.1,0.4,0,0.6L15.5,24.4z M18.4,16.7
		c-0.1,0.1-0.3,0.2-0.4,0.3c-0.1,0.1-0.2,0.3-0.3,0.4l-2-0.6c0,0,0-0.1,0-0.1L18.4,16.7z M24.9,17.1l-2.5,1.9l-0.6-1.4l3-0.6
		C24.8,17,24.8,17,24.9,17.1z M20,20.7c-0.1-0.1-0.3-0.2-0.4-0.2l-0.3-1.3c0.2-0.1,0.4-0.2,0.5-0.3c0.1-0.1,0.2-0.3,0.3-0.4l1.9,0.7
		L20,20.7z M22.1,19l-1.9-0.7c0-0.1,0-0.3,0-0.4l1.3-0.2L22.1,19z M15.6,17l2,0.6c-0.1,0.4,0,0.9,0.4,1.2c0.1,0.1,0.2,0.1,0.2,0.2
		L18,19.5l-2.5-2.3C15.5,17.1,15.6,17,15.6,17z M18.4,19.1c0.2,0.1,0.4,0.1,0.7,0.1l0.3,1.3c-0.1,0-0.1,0.1-0.1,0.1l-1.1-1
		L18.4,19.1z M22.5,19.1l2.5-1.9c0.2,0.1,0.3,0.2,0.5,0.3l0,2.8L22.5,19.1z M21.7,17.3l-0.2-0.5l2.8,0L21.7,17.3z M21.4,17.3
		l-1.2,0.2c-0.1-0.2-0.2-0.4-0.3-0.6c-0.1-0.1-0.2-0.2-0.4-0.3l1.7,0L21.4,17.3z M19.3,16.5l0.5-3.1c0,0,0.1,0,0.1,0l1.3,3.2
		L19.3,16.5z M19.5,13.3l-0.5,3.2l-3.4,0c0-0.1-0.1-0.2-0.1-0.3l3.8-2.9C19.4,13.2,19.4,13.3,19.5,13.3z M15.3,17.3l2.5,2.4
		l-2.6,4.7c0,0,0,0,0,0l-0.4-6.9C15.1,17.5,15.2,17.4,15.3,17.3z M19.2,21.6c0.2,0.2,0.5,0.2,0.8,0l1.2,1.3l-5.4,1.7L19.2,21.6z
		 M20.2,21.4c0-0.1,0.1-0.1,0.1-0.2l2.8,0l0.4,1l-1.9,0.6L20.2,21.4z M23.5,22.4l1.7,4.2c0,0-0.1,0-0.1,0L21.7,23L23.5,22.4z
		 M25.5,26.5c0,0-0.1,0-0.1,0l-1.7-4.2l1.8-0.5L25.5,26.5z M23.6,22.1l-0.4-0.9l2.3,0l0,0.3L23.6,22.1z M25.8,21.2l0.8,0l-0.8,0.3
		L25.8,21.2z M27,20.7C26.9,20.7,26.9,20.7,27,20.7c-0.1,0.1-0.1,0.1-0.1,0.1l-1.1-0.4l0-2.9c0,0,0,0,0,0L27,20.7z M24.8,16.2
		c0,0.1-0.1,0.2-0.1,0.3l-3.4,0l-1.3-3.3c0,0,0.1,0,0.1-0.1c0,0,0,0,0,0L24.8,16.2z M15.7,24.9C15.7,24.9,15.7,24.8,15.7,24.9
		l5.7-1.8l3.5,3.7c-0.1,0.1-0.1,0.2-0.2,0.3L15.7,24.9z M25.7,26.5l0-4.7l1.1-0.3c0,0,0,0,0,0.1c0,0,0.1,0.1,0.1,0.1L25.7,26.5z"/>
</g>
</svg>
