<svg xmlns="http://www.w3.org/2000/svg" width="156" height="156" style="overflow:visible;enable-background:new 0 0 156 156" viewBox="0 0 156 156">
  <style>
    .st1{fill:#FFFFFF}
  </style>
  <g id="Group_18241_1_" transform="translate(-2758.561 -1757.396)">
    <g id="Group_18239_1_">
      <g id="Group_18238_1_">
        <path id="Path_25946_1_" d="M2893 1833.2c0 30.9-25.1 56-56 56s-56-25.1-56-56 25.1-56 56-56 56 25.1 56 56" style="fill:#FFE401"/>
        <path id="Path_25947_1_" d="M2858.8 1858.1h-43.6c-1.7 0-3.1-1.4-3.1-3.1 0-1.7 1.4-3.1 3.1-3.1h43.6c1.7 0 3.1 1.4 3.1 3.1 0 1.7-1.4 3.1-3.1 3.1"/>
      </g>
      <circle id="Ellipse_6123_1_" cx="2815.5" cy="1813.5" r="8.2"/>
      <circle id="Ellipse_6124_1_" cx="2856.4" cy="1813.5" r="8.2"/>
    </g>
    <g id="Group_18240_1_">
      <path id="Path_25948_1_" d="M2908.5 1763.5v43.8h6.1v-49.8h-49.8v6.1l43.7-.1z" class="st1"/>
      <path id="Path_25949_1_" d="M2764.6 1763.5h43.8v-6.1h-49.8v49.8h6.1l-.1-43.7z" class="st1"/>
      <path id="Path_25950_1_" d="M2764.6 1907.3v-43.8h-6.1v49.9h49.8v-6.1h-43.7z" class="st1"/>
      <path id="Path_25951_1_" d="M2908.5 1907.3h-43.8v6.1h49.8v-49.8h-6.1l.1 43.7z" class="st1"/>
    </g>
  </g>
</svg>