<svg xmlns="http://www.w3.org/2000/svg" width="112.3" height="106" style="overflow:visible;enable-background:new 0 0 112.3 106" viewBox="0 0 112.3 106">
  <path d="M56.159-.009c-31 0-56.1 19.6-56.1 43.7 0 13.6 8 25.8 20.6 33.8-2.5 10.5-7.4 20.3-14.4 28.6 14.2-2.1 27.2-9.2 36.5-20 4.4.8 8.9 1.3 13.3 1.3 31 0 56.1-19.5 56.1-43.7.1-24.1-25-43.7-56-43.7" style="fill:#9C52FF"/>
  <path d="M37.459 43.691c0 3.4-2.8 6.2-6.2 6.2-3.4 0-6.2-2.8-6.2-6.2 0-3.4 2.8-6.2 6.2-6.2 3.4-.1 6.2 2.7 6.2 6.2m49.8 0c.1 3.4-2.7 6.3-6.1 6.4-3.4.1-6.3-2.7-6.4-6.1v-.2c.1-3.4 2.9-6.2 6.4-6.1 3.4-.1 6.1 2.6 6.1 6m-24.9 0c.1 3.4-2.7 6.3-6.1 6.4-3.4.1-6.3-2.7-6.4-6.1v-.2c.1-3.4 2.9-6.2 6.4-6.1 3.3-.1 6 2.6 6.1 6" style="fill:#FF6B31"/>
</svg>