<svg xmlns="http://www.w3.org/2000/svg" xmlns:xlink="http://www.w3.org/1999/xlink" width="108" height="108" style="overflow:visible;enable-background:new 0 0 108 108" viewBox="0 0 108 108">
  <style>
    .st1{fill:#FFFFFF}.st4{clip-path:url(#SVGID_4_)}
  </style>
  <g id="Group_18244_1_" transform="translate(-2757.558 -1692.834)">
    <path id="Path_25952_1_" d="M2757.6 1746.8c0-29.8 24.2-54 54-54s54 24.2 54 54-24.2 54-54 54c-29.9.1-54-24.1-54-54" style="fill:#FF284D"/>
    <path id="Path_25953_1_" d="M2779.2 1725.2c0 2.6-2.1 4.6-4.6 4.6-2.6 0-4.6-2.1-4.6-4.6 0-2.6 2.1-4.6 4.6-4.6 2.5 0 4.6 2.1 4.6 4.6m58.6-15.4c0 2.6-2.1 4.6-4.6 4.6-2.6 0-4.6-2.1-4.6-4.6 0-2.6 2.1-4.6 4.6-4.6 2.5 0 4.6 2 4.6 4.6m-43.2 0c0 2.6-2.1 4.6-4.6 4.6-2.6 0-4.6-2.1-4.6-4.6 0-2.6 2.1-4.6 4.6-4.6 2.5 0 4.6 2 4.6 4.6m21.6-6.2c0 2.6-2.1 4.6-4.6 4.6-2.6 0-4.6-2.1-4.6-4.6 0-2.6 2.1-4.6 4.6-4.6 2.5 0 4.6 2 4.6 4.6" class="st1"/>
    <path id="Path_25954_1_" d="M2853.2 1725.2c0 2.6-2.1 4.6-4.6 4.6-2.6 0-4.6-2.1-4.6-4.6 0-2.6 2.1-4.6 4.6-4.6 2.6 0 4.6 2.1 4.6 4.6" style="fill:#FFE401"/>
    <path id="Path_25955_1_" d="M2773 1746.8c.2 2.6-1.7 4.8-4.3 4.9-2.6.2-4.8-1.7-4.9-4.3v-.4-.2c.1-2.6 2.3-4.5 4.9-4.4 2.3.2 4.2 2.1 4.3 4.4" class="st1"/>
    <path id="Path_25956_1_" d="M2859.4 1746.8c0 2.6-2.1 4.6-4.6 4.6-2.6 0-4.6-2.1-4.6-4.6 0-2.6 2.1-4.6 4.6-4.6 2.5 0 4.6 2.1 4.6 4.6" class="st1"/>
    <path id="Path_25957_1_" d="M2778.6 1746.8c0-18.2 14.7-33 33-33 18.2 0 33 14.7 33 33 0 18.2-14.7 33-33 33-18.2 0-33-14.8-33-33"/>
    <path id="Path_25958_1_" d="M2811.6 1719.9c14.9-.2 27.2 11.7 27.4 26.5.2 14.9-11.7 27.2-26.5 27.4-14.9.2-27.2-11.7-27.4-26.5v-.8c.1-14.6 11.9-26.4 26.5-26.6"/>
    <g id="Group_18243_1_">
      <defs>
        <path id="SVGID_1_" d="M2784.6 1746.8c0 14.9 12.1 27 27 27s27-12.1 27-27-12.1-27-27-27c-14.9.1-27 12.1-27 27"/>
      </defs>
      <clipPath id="SVGID_2_">
        <use style="overflow:visible" xlink:href="#SVGID_1_"/>
      </clipPath>
      <g id="Group_18242_1_" style="clip-path:url(#SVGID_2_)">
        <path id="Path_25959_1_" d="M2813.8 1749.1c-1.2 1.2-3.3 1.2-4.5 0-1.2-1.2-1.2-3.3 0-4.5l15.7-15.7c1.3-1.2 3.3-1.1 4.5.2 1.1 1.2 1.1 3.1 0 4.3l-15.7 15.7z" class="st1"/>
      </g>
    </g>
  </g>
</svg>