<svg xmlns="http://www.w3.org/2000/svg" width="148" height="144" style="overflow:visible;enable-background:new 0 0 148 144" viewBox="0 0 148 144">
  <style>
    .st2{fill:#F538D6}.st3{fill:#FEFEFE}.st4{fill:#050606}
  </style>
  <path style="fill:none" d="M0 0h148v144H0z"/>
  <path d="M128.3 81.5v38.6c0 2.5-.6 4.6-2.4 6.4-1.5 1.4-3.2 2.2-5.3 2.2H26.3c-4 0-7.1-2.2-8-5.7-.2-.9-.3-1.9-.3-2.8V81.6c.1-.3.3-.7.3-1V39.1c0-.4-.2-.7-.3-1.1 0-1.5-.1-3.1.1-4.6.4-4 3.3-6.7 7.3-7.1.2 0 .5-.1.7-.1h94.3c4.2.4 7 2.5 7.8 5.9.3 1.4.3 2.8.3 4.2V38c-.1.4-.2.7-.2 1.1v41.2c-.2.4-.1.8 0 1.2zm-19.9 31.3c4.7-1 7.7-4.6 8-9.4.3-4.8-3.3-9.3-8-10-.4-.1-.8-.2-1.3-.2H38.9c-.4 0-.8.1-1.3.2h-.4c-4.5 1.1-7.5 5-7.5 9.7 0 4.8 3.1 8.6 7.9 9.7 4 .1 7.9.1 11.9.2h47.1c3.9-.1 7.8-.2 11.8-.2zM65.1 59.7c0-10-7.9-17.7-18.1-17.7-9.5 0-17.5 8.1-17.5 17.7 0 9.8 8 17.8 17.8 17.8 10 0 17.9-8 17.8-17.8zm15.8 0c0 9.8 7.8 17.8 17.7 17.9 9.8.1 17.9-8 17.9-17.8S108.5 42 98.7 42c-9.9 0-17.8 7.8-17.8 17.7z" style="fill:#1DCEFE"/>
  <path d="M120.1 26.2H25.8c-1.3-5.9 3.4-11.7 9.5-11.7h75.3c6.1-.1 10.7 5.7 9.5 11.7zM17.8 38c.1.4.3.7.3 1.1v41.5c0 .3-.2.7-.3 1-1.2 0-2.3 0-3.5-.1-2.5 0-4.1-1.6-4.2-4v-4C5 71.2 3 67 2.4 61.9c-.5-4.5.3-8.8 3.2-12.4 1-1.2 2.5-2.1 3.8-3 .5-.3.7-.6.7-1.2v-3.2c.1-2.4 1.7-4 4.2-4.1h3.5zM128.3 81.5c-.1-.4-.2-.7-.2-1.1V39.2c0-.4.1-.7.2-1.1h3.6c2.5.1 4.1 1.7 4.2 4.2v3.3c0 .3.2.7.4.8 3.8 1.6 5.8 4.8 6.8 8.6 1.3 4.8.8 9.5-1.8 13.9-1.1 1.9-2.7 3.4-4.8 4.3-.3.1-.6.7-.6 1-.1 1.4 0 2.8-.2 4.2-.3 1.9-1.8 3.1-3.7 3.2-1.3-.1-2.6-.2-3.9-.1z" class="st2"/>
  <path d="M65.1 59.7c0 9.8-7.9 17.8-17.7 17.8-9.8 0-17.9-8-17.8-17.8 0-9.7 8-17.7 17.5-17.7 10.1 0 18 7.7 18 17.7zm-11.8 0v-9.6c0-2.4-1.6-4.1-4-4.2-1.3-.1-2.6-.1-4 0-2.3.1-3.9 1.7-3.9 3.9v20c0 2.2 1.6 3.7 3.8 3.8h4c2.5 0 4-1.6 4-4.1.1-3.3.1-6.6.1-9.8zM80.9 59.7c0-9.9 7.9-17.7 17.8-17.7 9.8 0 17.8 8 17.8 17.8s-8.1 17.8-17.9 17.8c-9.9-.1-17.8-8.1-17.7-17.9zm23.6.1V50c0-2.4-1.6-4-3.9-4.1-1.4-.1-2.7-.1-4.1 0-2.3.1-3.9 1.7-3.9 3.9v19.9c0 2.2 1.6 3.8 3.8 3.8h3.7c2.8 0 4.3-1.5 4.3-4.3.1-3.1.1-6.2.1-9.4zM69.2 113h-12c.1-.4.2-.8.2-1.1V93.3h11.7V112c-.1.2 0 .6.1 1zM88.9 113h-12c.1-.4.2-.7.2-1.1V93.2h11.7v18.6c-.1.4 0 .8.1 1.2zM49.5 113c-4-.1-7.9-.1-11.9-.2V93.4c.4-.1.8-.2 1.3-.2h10.4v18.7c0 .3.1.7.2 1.1zM96.7 93.2h10.4c.4 0 .8.1 1.3.2v19.4c-4 .1-7.9.1-11.9.2.1-.4.2-.7.2-1.1V93.2z" class="st3"/>
  <path d="M49.5 113c-.1-.4-.2-.7-.2-1.1V93.2h8v18.6c0 .4-.1.8-.2 1.1-2.5.1-5.1.1-7.6.1zM77 93.2v18.7c0 .4-.1.7-.2 1.1h-7.7c-.1-.4-.2-.7-.2-1.1V93.2H77zM96.7 93.2v18.7c0 .4-.1.7-.2 1.1h-7.7c-.1-.4-.2-.7-.2-1.1V93.3c2.8-.1 5.4-.1 8.1-.1zM108.4 112.8V93.4c4.7.7 8.2 5.2 8 10-.3 4.8-3.3 8.4-8 9.4zM37.6 93.4v19.4c-4.8-1.1-7.9-4.9-7.9-9.7 0-4.6 3-8.6 7.5-9.7h.4z" class="st4"/>
  <path d="M53.3 59.7v9.7c0 2.5-1.6 4.1-4 4.1h-4c-2.2-.1-3.8-1.6-3.8-3.8v-20c0-2.2 1.6-3.7 3.9-3.9 1.3-.1 2.6-.1 4 0 2.4.1 3.9 1.8 4 4.2-.1 3.3-.1 6.5-.1 9.7zM104.5 59.8v9.4c0 2.8-1.5 4.3-4.3 4.3h-3.7c-2.2-.1-3.8-1.7-3.8-3.8V49.8c0-2.2 1.6-3.8 3.9-3.9 1.4-.1 2.7-.1 4.1 0 2.4.1 3.9 1.7 3.9 4.1 0 3.3-.1 6.5-.1 9.8z" class="st2"/>
</svg>