<svg id="Layer_1" data-name="Layer 1" xmlns="http://www.w3.org/2000/svg" viewBox="0 0 100 100"><defs><style>.cls-1{fill:none;stroke:#1d1d1b;stroke-miterlimit:10;stroke-width:0.18px;}.cls-2{fill:#1d1d1b;}.cls-3{fill:#1dcfff;}.cls-4{fill:#9c52ff;}.cls-5{fill:#f638d7;}</style></defs><path class="cls-1" d="M40,50.63c0-.21,0-.42,0-.63s0-.42,0-.63c0,.21,0,.42,0,.63S40,50.42,40,50.63Z"/><path class="cls-1" d="M68.73,50.84c0-.28,0-.56,0-.84s0-.56,0-.84c0,.28,0,.56,0,.84S68.73,50.56,68.73,50.84Z"/><path class="cls-2" d="M100,49.37A49.84,49.84,0,0,0,87.93,17.42,50.5,50.5,0,0,0,76.59,7.65,50,50,0,0,0,50,0c-.92,0-1.84,0-2.75.08A49.19,49.19,0,0,0,39,1.21a61.86,61.86,0,0,1,5.87,5.34,62.77,62.77,0,0,1,5.08,6,61.15,61.15,0,0,1,4.31,6.55,63.11,63.11,0,0,1,3.52,7.2,62.28,62.28,0,0,1,2.73,8.25,18.75,18.75,0,0,1,8.18,14.66c0,.28,0,.56,0,.84s0,.56,0,.84A69,69,0,0,1,66,69.19a69.53,69.53,0,0,1-3.52,9.46,69.93,69.93,0,0,1-4.31,7.95,69.54,69.54,0,0,1-5.08,7,69.57,69.57,0,0,1-5.86,6.28c.91,0,1.83.08,2.75.08a49.79,49.79,0,0,0,26.58-7.65A50,50,0,0,0,100,50.63c0-.21,0-.42,0-.63S100,49.58,100,49.37Z"/><path class="cls-3" d="M57.82,73.75A25,25,0,0,1,50.34,75H50a25,25,0,0,1-12.11-3.12,25.45,25.45,0,0,1-5.07-3.72,38.78,38.78,0,0,1-3.52,5.25A38.48,38.48,0,0,1,25,78a37.27,37.27,0,0,1-5.08,3.82,37.07,37.07,0,0,1-5.85,3,50.13,50.13,0,0,0,5.08,4.58,50.87,50.87,0,0,0,5.85,4,49.75,49.75,0,0,0,6.57,3.18A48.25,48.25,0,0,0,39,98.79a49.19,49.19,0,0,0,8.21,1.13,69.57,69.57,0,0,0,5.86-6.28,69.54,69.54,0,0,0,5.08-7,69.93,69.93,0,0,0,4.31-7.95A69.53,69.53,0,0,0,66,69.19,25.09,25.09,0,0,1,57.82,73.75Z"/><path class="cls-4" d="M68.73,49.16A18.75,18.75,0,0,0,60.55,34.5a62.28,62.28,0,0,0-2.73-8.25A25,25,0,0,0,50.34,25H50a25,25,0,0,0-12.11,3.12,25.45,25.45,0,0,0-5.07,3.72,25,25,0,0,0,0,36.32,25.45,25.45,0,0,0,5.07,3.72A25,25,0,0,0,50,75h.34A24.94,24.94,0,0,0,66,69.19a69,69,0,0,0,2.71-18.35c0-.28,0-.56,0-.84S68.73,49.44,68.73,49.16Z"/><path class="cls-5" d="M54.3,19.05A61.15,61.15,0,0,0,50,12.5a62.77,62.77,0,0,0-5.08-5.95A61.86,61.86,0,0,0,39,1.21a48.25,48.25,0,0,0-7.47,2.3A49.75,49.75,0,0,0,25,6.69a50.87,50.87,0,0,0-5.85,4,50.13,50.13,0,0,0-5.08,4.58,50.85,50.85,0,0,0-4.3,5.08,48.18,48.18,0,0,0-3.52,5.48A49.52,49.52,0,0,0,3.5,31.58a51,51,0,0,0-1.95,6A50.33,50.33,0,0,0,.39,43.76a50.12,50.12,0,0,0,0,12.48A50.33,50.33,0,0,0,1.55,62.4a51,51,0,0,0,2,6,49.52,49.52,0,0,0,2.75,5.79,48.18,48.18,0,0,0,3.52,5.48,50.85,50.85,0,0,0,4.3,5.08,37.07,37.07,0,0,0,5.85-3A37.27,37.27,0,0,0,25,78a38.48,38.48,0,0,0,4.3-4.54,38.78,38.78,0,0,0,3.52-5.25,25,25,0,0,1,0-36.32,25.45,25.45,0,0,1,5.07-3.72A25,25,0,0,1,50,25h.34a25,25,0,0,1,7.48,1.25A63.11,63.11,0,0,0,54.3,19.05Z"/></svg>