<svg id="Layer_1" data-name="Layer 1" xmlns="http://www.w3.org/2000/svg" viewBox="0 0 100 100"><defs><style>.cls-1{fill:#ff6b31;}.cls-2{fill:none;stroke:#1d1d1b;stroke-miterlimit:10;stroke-width:0.18px;}.cls-3{fill:#1dcfff;}.cls-4{fill:#fff;}</style></defs><path class="cls-1" d="M100,49.37A49.84,49.84,0,0,0,87.93,17.42,50.5,50.5,0,0,0,76.59,7.65,50,50,0,0,0,50,0c-.92,0-1.84,0-2.75.08a69.57,69.57,0,0,1,5.86,6.28,69.54,69.54,0,0,1,5.08,7,69.93,69.93,0,0,1,4.31,8A69.53,69.53,0,0,1,66,30.81a69,69,0,0,1,2.71,18.35c0,.28,0,.56,0,.84s0,.56,0,.84A69,69,0,0,1,66,69.19a69.53,69.53,0,0,1-3.52,9.46,69.93,69.93,0,0,1-4.31,7.95,69.54,69.54,0,0,1-5.08,7,69.57,69.57,0,0,1-5.86,6.28c.91,0,1.83.08,2.75.08a49.79,49.79,0,0,0,26.58-7.65A50,50,0,0,0,100,50.63c0-.21,0-.42,0-.63S100,49.58,100,49.37Z"/><path class="cls-2" d="M68.73,50.84c0-.28,0-.56,0-.84s0-.56,0-.84c0,.28,0,.56,0,.84S68.73,50.56,68.73,50.84Z"/><path class="cls-3" d="M68.73,49.16A18.76,18.76,0,0,0,53.07,31.5,19.37,19.37,0,0,0,50,31.25a18.3,18.3,0,0,0-3.5.33,18.63,18.63,0,0,0-11,6.47,36.67,36.67,0,0,0-2.73-6.21,24.82,24.82,0,0,0-4.3,5.37,30.94,30.94,0,0,0-3.52-6A31.12,31.12,0,0,0,18.75,50a18.7,18.7,0,0,0-4.3-12A37.19,37.19,0,0,0,12.5,50,12.45,12.45,0,0,1,7.41,60.06,12.42,12.42,0,0,1,1.55,62.4a51,51,0,0,0,2,6,49.52,49.52,0,0,0,2.75,5.79,48.18,48.18,0,0,0,3.52,5.48,50.85,50.85,0,0,0,4.3,5.08,50.13,50.13,0,0,0,5.08,4.58,50.87,50.87,0,0,0,5.85,4,49.75,49.75,0,0,0,6.57,3.18A48.25,48.25,0,0,0,39,98.79a49.19,49.19,0,0,0,8.21,1.13,69.57,69.57,0,0,0,5.86-6.28,69.54,69.54,0,0,0,5.08-7,69.93,69.93,0,0,0,4.31-7.95A69.53,69.53,0,0,0,66,69.19a69,69,0,0,0,2.71-18.35c0-.28,0-.56,0-.84S68.73,49.44,68.73,49.16Z"/><path class="cls-4" d="M66,30.81a69.53,69.53,0,0,0-3.52-9.46,69.93,69.93,0,0,0-4.31-8,69.54,69.54,0,0,0-5.08-7A69.57,69.57,0,0,0,47.25.08,49.19,49.19,0,0,0,39,1.21a48.25,48.25,0,0,0-7.47,2.3A49.75,49.75,0,0,0,25,6.69a50.87,50.87,0,0,0-5.85,4,50.13,50.13,0,0,0-5.08,4.58,50.85,50.85,0,0,0-4.3,5.08,48.18,48.18,0,0,0-3.52,5.48A49.52,49.52,0,0,0,3.5,31.58a51,51,0,0,0-1.95,6A50.33,50.33,0,0,0,.39,43.76a50.12,50.12,0,0,0,0,12.48A50.33,50.33,0,0,0,1.55,62.4a12.42,12.42,0,0,0,5.86-2.34A12.45,12.45,0,0,0,12.5,50a37.19,37.19,0,0,1,1.95-12,18.7,18.7,0,0,1,4.3,12A31.12,31.12,0,0,1,25,31.25a30.94,30.94,0,0,1,3.52,6,24.82,24.82,0,0,1,4.3-5.37,36.67,36.67,0,0,1,2.73,6.21,18.63,18.63,0,0,1,11-6.47,18.3,18.3,0,0,1,3.5-.33,19.37,19.37,0,0,1,3.07.25A18.76,18.76,0,0,1,68.73,49.16,69,69,0,0,0,66,30.81Z"/></svg>