<svg id="Layer_1" data-name="Layer 1" xmlns="http://www.w3.org/2000/svg" viewBox="0 0 100 100"><defs><style>.cls-1{fill:#f638d7;}.cls-2{fill:#1dcfff;}.cls-3{fill:#ffe401;}</style></defs><path class="cls-1" d="M100,49.37A49.84,49.84,0,0,0,87.93,17.42,50.5,50.5,0,0,0,76.59,7.65,49.8,49.8,0,0,0,56.25.39,74.06,74.06,0,0,1,62.11,8a75,75,0,0,1,5.1,8.72,74.91,74.91,0,0,1,4.3,10.66,75.37,75.37,0,0,1,0,45.34,74.91,74.91,0,0,1-4.3,10.66,75,75,0,0,1-5.1,8.72,74.06,74.06,0,0,1-5.86,7.56,49.69,49.69,0,0,0,20.33-7.26A50,50,0,0,0,100,50.63c0-.21,0-.42,0-.63S100,49.58,100,49.37Z"/><path class="cls-2" d="M71.51,27.33a74.91,74.91,0,0,0-4.3-10.66A75,75,0,0,0,62.11,8,74.06,74.06,0,0,0,56.25.39,49.59,49.59,0,0,0,50,0c-.92,0-1.84,0-2.75.08A49.19,49.19,0,0,0,39,1.21a48.25,48.25,0,0,0-7.47,2.3A49.75,49.75,0,0,0,25,6.69a50.87,50.87,0,0,1,5.85,4,50.13,50.13,0,0,1,5.08,4.58,50.85,50.85,0,0,1,4.3,5.08,48.18,48.18,0,0,1,3.52,5.48A24.78,24.78,0,0,1,50,25h.34A25,25,0,0,1,75,50,74.86,74.86,0,0,0,71.51,27.33Z"/><path class="cls-2" d="M66,69.19A24.94,24.94,0,0,1,50.34,75H50a24.78,24.78,0,0,1-6.25-.79,48.18,48.18,0,0,1-3.52,5.48,50.85,50.85,0,0,1-4.3,5.08,50.13,50.13,0,0,1-5.08,4.58,50.87,50.87,0,0,1-5.85,4,49.75,49.75,0,0,0,6.57,3.18A48.25,48.25,0,0,0,39,98.79a49.19,49.19,0,0,0,8.21,1.13c.91,0,1.83.08,2.75.08a49.59,49.59,0,0,0,6.25-.39,74.06,74.06,0,0,0,5.86-7.56,75,75,0,0,0,5.1-8.72,74.91,74.91,0,0,0,4.3-10.66A74.86,74.86,0,0,0,75,50,24.93,24.93,0,0,1,66,69.19Z"/><path class="cls-3" d="M66,30.81A24.94,24.94,0,0,0,50.34,25H50a24.78,24.78,0,0,0-6.25.79,48.18,48.18,0,0,0-3.52-5.48,50.85,50.85,0,0,0-4.3-5.08,50.13,50.13,0,0,0-5.08-4.58,50.87,50.87,0,0,0-5.85-4,50.87,50.87,0,0,0-5.85,4,50.13,50.13,0,0,0-5.08,4.58,50.85,50.85,0,0,0-4.3,5.08,48.18,48.18,0,0,0-3.52,5.48A49.52,49.52,0,0,0,3.5,31.58a51,51,0,0,0-1.95,6A50.33,50.33,0,0,0,.39,43.76a50.12,50.12,0,0,0,0,12.48A50.33,50.33,0,0,0,1.55,62.4a51,51,0,0,0,2,6,49.52,49.52,0,0,0,2.75,5.79,48.18,48.18,0,0,0,3.52,5.48,50.85,50.85,0,0,0,4.3,5.08,50.13,50.13,0,0,0,5.08,4.58,50.87,50.87,0,0,0,5.85,4,50.87,50.87,0,0,0,5.85-4,50.13,50.13,0,0,0,5.08-4.58,50.85,50.85,0,0,0,4.3-5.08,48.18,48.18,0,0,0,3.52-5.48A24.78,24.78,0,0,0,50,75h.34A25,25,0,0,0,66,30.81Z"/></svg>