<svg id="Layer_1" data-name="Layer 1" xmlns="http://www.w3.org/2000/svg" viewBox="0 0 100 100"><defs><style>.cls-1{fill:none;stroke:#1d1d1b;stroke-miterlimit:10;stroke-width:0.18px;}.cls-2{fill:#fff;}.cls-3{fill:#9c52ff;}.cls-4{fill:#1dcfff;}</style></defs><path class="cls-1" d="M81.24,50.82c0-.27,0-.54,0-.82s0-.55,0-.82v1.64Z"/><path class="cls-2" d="M100,49.37A49.84,49.84,0,0,0,87.93,17.42,50.5,50.5,0,0,0,76.59,7.65,49.8,49.8,0,0,0,56.25.39,74.06,74.06,0,0,1,62.11,8a75,75,0,0,1,5.1,8.72,74.91,74.91,0,0,1,4.3,10.66,31.17,31.17,0,0,1,9.73,21.85c0,.27,0,.54,0,.82s0,.55,0,.82A81.2,81.2,0,0,1,77,76a81.48,81.48,0,0,1-5.09,11.85A80.83,80.83,0,0,1,66,97.38a49.41,49.41,0,0,0,10.58-5A50,50,0,0,0,100,50.63c0-.21,0-.42,0-.63S100,49.58,100,49.37Z"/><path class="cls-1" d="M68.73,50.84c0-.28,0-.56,0-.84s0-.56,0-.84c0,.28,0,.56,0,.84S68.73,50.56,68.73,50.84Z"/><path class="cls-3" d="M81.24,49.18a31.17,31.17,0,0,0-9.73-21.85A74.86,74.86,0,0,1,75,50a24.93,24.93,0,0,0-9-19.19,69,69,0,0,1,2.71,18.35c0,.28,0,.56,0,.84s0,.56,0,.84c0-.28,0-.56,0-.84s0-.56,0-.84A18.76,18.76,0,0,0,53.07,31.5,19.37,19.37,0,0,0,50,31.25a18.3,18.3,0,0,0-3.5.33A18.75,18.75,0,0,0,31.25,50a31.17,31.17,0,0,1-2.73,12.79,30.94,30.94,0,0,1-3.52,6,31.12,31.12,0,0,1-4.3,4.66,31.57,31.57,0,0,1-5.07,3.66,32.13,32.13,0,0,1-5.86,2.62,50.85,50.85,0,0,0,4.3,5.08,50.13,50.13,0,0,0,5.08,4.58,50.87,50.87,0,0,0,5.85,4,49.75,49.75,0,0,0,6.57,3.18A48.25,48.25,0,0,0,39,98.79a49.19,49.19,0,0,0,8.21,1.13c.91,0,1.83.08,2.75.08a50.1,50.1,0,0,0,16-2.62,80.83,80.83,0,0,0,5.89-9.49A81.48,81.48,0,0,0,77,76a81.2,81.2,0,0,0,4.26-25.22V49.18Z"/><path class="cls-4" d="M75,50a74.86,74.86,0,0,0-3.49-22.67,74.91,74.91,0,0,0-4.3-10.66A75,75,0,0,0,62.11,8,74.06,74.06,0,0,0,56.25.39,49.59,49.59,0,0,0,50,0c-.92,0-1.84,0-2.75.08A49.19,49.19,0,0,0,39,1.21a48.25,48.25,0,0,0-7.47,2.3A49.75,49.75,0,0,0,25,6.69a50.87,50.87,0,0,0-5.85,4,50.13,50.13,0,0,0-5.08,4.58,50.85,50.85,0,0,0-4.3,5.08,48.18,48.18,0,0,0-3.52,5.48A49.52,49.52,0,0,0,3.5,31.58a51,51,0,0,0-1.95,6A50.33,50.33,0,0,0,.39,43.76a50.12,50.12,0,0,0,0,12.48A50.33,50.33,0,0,0,1.55,62.4a51,51,0,0,0,2,6,49.52,49.52,0,0,0,2.75,5.79,48.18,48.18,0,0,0,3.52,5.48,32.13,32.13,0,0,0,5.86-2.62,31.57,31.57,0,0,0,5.07-3.66A31.12,31.12,0,0,0,25,68.75a30.94,30.94,0,0,0,3.52-6A31.17,31.17,0,0,0,31.25,50a18.7,18.7,0,0,1,4.3-12,18.63,18.63,0,0,1,11-6.47,18.3,18.3,0,0,1,3.5-.33,19.37,19.37,0,0,1,3.07.25A18.76,18.76,0,0,1,68.73,49.16,69,69,0,0,0,66,30.81,24.93,24.93,0,0,1,75,50Z"/></svg>