<!-- Generator: Adobe Illustrator 25.2.0, SVG Export Plug-In  -->
<svg version="1.1" xmlns="http://www.w3.org/2000/svg" xmlns:xlink="http://www.w3.org/1999/xlink" x="0px" y="0px" width="4800px"
	 height="3480px" viewBox="0 0 4800 3480" style="overflow:visible;enable-background:new 0 0 4800 3480;" xml:space="preserve">
<style type="text/css">
	.st0{fill:none;}
	.st1{fill:url(#SVGID_1_);}
	.st2{opacity:0.1;}
	.st3{fill:none;stroke:#000000;stroke-width:3;stroke-miterlimit:10;}
	.st4{fill:url(#SVGID_2_);}
</style>
<defs>
</defs>
<path class="st0" d="M0,0h4800v3480H0V0z"/>
<radialGradient id="SVGID_1_" cx="1402.454" cy="-409.64" r="609.4315" gradientTransform="matrix(1 0 0 1 0 2965.8899)" gradientUnits="userSpaceOnUse">
	<stop  offset="0" style="stop-color:#998675"/>
	<stop  offset="5.000000e-03" style="stop-color:#998675"/>
	<stop  offset="0.671" style="stop-color:#66594F"/>
	<stop  offset="1" style="stop-color:#534741"/>
</radialGradient>
<path class="st1" d="M1984.9,2508.6l-484.3-528.4c-38.4-41.9-103.5-44.7-145.4-6.3l-528.8,484.6c-41.9,38.4-44.7,103.5-6.3,145.4
	l39.7,43.3l0.2-0.1l334.9,365l0.5-0.5l108.9,120.7c38.4,41.9,103.5,44.7,145.4,6.3l528.8-484.6
	C2020.5,2615.6,2023.3,2550.5,1984.9,2508.6L1984.9,2508.6z"/>
<g>
	<g class="st2">
		<path class="st3" d="M1082.3,2722.4c-213.9-425.2,435.2-754,649.5-322.6C1932.2,2827.9,1301.7,3140.3,1082.3,2722.4z M1625,2360.5
			c-0.6-0.4-1.3-0.8-1.8-1c-1.7-28.5,10.5-35.9-15.6-56.7c-2.5-2.6-4.8-2.6-7.4-0.1c-14,13.9-28,27.7-41.7,41.7
			c-2.9,8,9.2,13.2,13.3,18.9c6.8,6.1,18-14.8,25.9-17.5c3.2,26-11.2,39.2,14.1,57.7c5.2,5.1,5.4,5.2,10.6-0.3
			c11.5-11.6,22.9-23,34.3-34.6c9.4-9.5,9.2-7.5,0.4-16.5c-13.2-13.5-9.1-12.8-22.2-0.5C1631.3,2354.5,1628.2,2357.4,1625,2360.5z
			 M1694.9,2416.2c-9.1-16.1-26.6-28.2-46.3-19.2c-13.2,5.1-20.9,15.9-20.8,30c-1.6,27.5,22.1,41.1,15.5,47.8c-0.6,4.6,3,9.9,4,14.5
			c1.1,4,3.3,5.2,7.4,3.8c6.1-4,34.8-7.2,30.5-16c-5.1-10.7-7.3-31-15.6-38.3c-17.1-1.1-5.1,14.4-6.9,23.2
			c-10.9-2.7-13.7-16.6-13.5-26.3c1-11.4,19.9-17.6,27.4-8.8c7.8,8.1,7.4,18.5,7.8,28.9c2.8,4.6,4.9,27.9,12.8,19.3
			C1711.8,2457.8,1703,2435.8,1694.9,2416.2z M1150.9,2393.6c-29.5-8.2-47.4,39.5-46.5,63.2c-1.4,16.6,21.3,24,30.8,10.8
			c10.2-9.5,16.8-33.5,28.1-38.1c5.3,9.6-13.2,26-17.2,34c-1.2,6-15.1,22.6-1.6,21c23.3,1.2,58.4-75.3,29.4-84.5
			c-28.2-8.8-28.8,34.1-48.3,43.8c-2.7-10.3,4.5-17.2,11.2-24.1C1143.1,2412.7,1146.3,2402.6,1150.9,2393.6z M1283.8,2335.2
			c-0.4-0.7-0.6-1.3-1-2c9.6-4.9,19.3-9.8,29.1-14.7c6.6-2.9,3.5-7.9,0.7-12.5c-3.5-6.1-4.3-6.4-10.5-3.1
			c-12.5,5-23.4,17.3-37.1,16.3c5.2-10.6,19-13,28.2-19.6c10.6-5.7,10.8-5.3,3.8-17c-0.8-1.3-4.3-2.2-6.2-1.8
			c-11.7,3.6-25.3,18.3-37.4,16.3c-2.2-4,2.1-4.8,4.4-6.5c9.6-5.4,19.3-10.7,28.9-16.1c5.6-3.2,5.9-4,2.5-9.7
			c-3.5-6-4.9-10.9-12.2-5.7c-17.9,9.8-35.8,19.9-53.7,29.6c-4.7,2.5-5.1,5.2-2.5,9.5C1256.4,2354.8,1236.2,2359.7,1283.8,2335.2z
			 M1430.5,2298.9c-11.1-21.2-25.4-40.2-38.2-60.5c-7.9-6.8-20.4-0.3-29.9-1c-6.4,0.2-9.7,3.1-11.8,9c-8,21.6-18.1,41.7-25.1,63.8
			c10.5-3.1,28.4,2.5,31.7-9.6c0.7-3.7,3.4-5.1,7-5.5C1424.7,2285.8,1372,2307.9,1430.5,2298.9z M1231.9,2371.5
			c-12.2-7.3-21.7-19.7-32.9-28.8c-3.2-2.8-3.8-5.4-0.5-8.5c2.9-2.9,5.7-6.1,8.5-9.2c7.2-7.7,7.2-7.7-0.6-15
			c-6-5.6-6.2-5.6-11.5,0.2c-15,16.1-30,32.3-45,48.5c-9.2,9.9-9.1,9.7,0.9,18.8c7.1,6.7,12.6-8.4,18.2-11.9
			c4.9-5.3,5.7-5.4,10.9-0.4c8.7,8.1,17.5,16.2,26.1,24.5C1214.1,2398.3,1225.1,2375.8,1231.9,2371.5z M1180.9,2753.6
			c0.6,0.4,0.9,0.8,1.5,1.2c-2.9,5.9-7.6,10.7-11.3,16.1c-8.3,11-7.9,8,0.7,17.9c3,3.4,5.1,3.2,7.5-0.5c26-42.6,23.3-14.5,45.3-41.9
			c11.3-13.6-4.6-25.1-13-35c-4.7-5-5.4-5-10.6-0.4c-16.6,15.1-33.1,30.3-49.7,45.4c-3.6,3.2-4,5.7-0.5,9.4c7.1,7.8,7,7.9,14.9,0.6
			C1170.4,2761.8,1175.1,2756.9,1180.9,2753.6z M1585.1,2747.3c11.6,14,27.2,25.6,40.7,38c6.8,5.8,15.3,4.2,21.7-2.9
			c23.5-26.1,18.9-15.4-15.5-48.7c-4.5-2.4-14.5,11.7-13.3,14.3c3.7,6.4,23.9,13.4,21.7,20.6c-3,2.4-6.4,0.4-8.6-2.1
			c-2.4-4.2-42.9-34.3-26-32.7c5.1,3.7,7.1,7.8,12.6,1.3c7-8,7.1-7.8-1.2-14.8C1600.7,2704.4,1575.1,2730.6,1585.1,2747.3z
			 M1164.3,2707.2c-0.1-0.3-0.3-0.6-0.4-0.8c7.5-3.8,15.1-7.6,22.8-11.5c9.6-4.4,8.5-6.1,3.7-14.9c-5.3-11.5-22.9,7-31.1,9.1
			c-10.7,4.2-20.5,14.7-32.2,13.8c3-10,36.1-21.2,46.6-28.7c10.7-5.6,10.8-6.2,4.5-16.5c-2.1-3.4-4.4-3.9-7.6-2.1
			c-16.9,9.3-34.2,18.2-50.9,27.7c-23,11.4-1.3,49.7,20.4,35.8C1148.3,2715.5,1156.2,2711.3,1164.3,2707.2z M1562.3,2782.3
			c-0.5,0.4-1,0.8-1.5,1.3c-9.6-4.5-18.4-24.5-28.8-12.8c-3.1,2.1-1.7,4.7-0.1,7.1c13,19.4,26.1,38.6,39.1,58
			c3.5,5.9,7.8,1.2,11.8-1.3c9.5-6.1-8.6-17.5-8.9-25.5c0.4-0.2,0.8-0.6,1.3-0.8c9,4.1,18.5,24.5,28.1,12.1
			c6.5-6.2-33.5-54.7-38.7-65.6c-3.9-5.8-10.3,2.4-14.3,4.6C1550.7,2767,1558.7,2775.4,1562.3,2782.3z M1507.3,2319.1
			c1.8-5.8,9.8-18.7,0.5-20.8c-8.5-2.2-17.1-4.7-25.5-7.1c-7.2-2.1-7.4-2.4-5.4-9.4c3-10.5,5.8-20.8,8.7-31.3
			c1.9-6.7,1.6-7.5-5.3-9.4c-7-0.1-19.8-10.6-22.4-0.1c-4.9,18.3-9.9,36.6-15.1,54.9c-1.3,4.4,0.5,5.9,4.4,6.9
			C1467.3,2308,1486.8,2314.7,1507.3,2319.1z M1688,2727.4c10.1-10.7,19.8-27,3.6-37.3c-7.2-5.3-15.3-7.3-24.1-5.3
			c-9,1.9-25.1,9.9-29.5-2.1c3-1,8.2-0.2,10.6-1.3c2.2-3.7,8.2-9.2,3.7-13.1c-20-15.7-42.2,16.8-24.6,30.8
			c20.5,21.3,47.6-8.9,56,9.6c-5.8,2.3-9.9-4.1-12.7,3.4C1660.7,2724.1,1677.5,2729.7,1688,2727.4z M1419.9,2805.2
			c-10.1-3.1-20.6-0.7-30.9-1.4c-3.2-0.1-4.5,1.6-4.5,4.6c-0.2,24.2-0.6,48.4-0.7,72.5c2.3,8,23.8,3.1,31.1,4.2c1.4,0,3.6-2,3.9-3.4
			c2.3-10.3,0.4-12.7-9.8-13.1c-9.1,0.5-7.6-8.7-6.5-14.5c3.6-4.4,17.1,1.4,15.6-9c-0.1-8.5,0.2-8.7-8.5-8.9
			c-12.3,1-10.3-18.1,2-15.8C1422.6,2822.5,1418.7,2812.8,1419.9,2805.2z M1346.1,2879.8c13.8-19-10.4-14.8-11.3-22.7
			c-0.6-12.3,5.5-12.2,15.6-10.2c1.3-0.5,3.1-1.1,3.8-2.3c6-10.2-0.1-13.1-9.3-15.3c-7.5-5.2,0.1-16.5,8.4-13.9
			c8.8,1.8,8.8,1.8,10.8-6.7c1.1-3.8,2.1-8-3.2-8.7c-7.2,0.2-29.4-12.2-30.5-1.9c-5.3,22.9-10.8,45.7-16.2,68.5c-1,3.6,0,5.8,4,6.8
			C1327.5,2875.2,1336.7,2878.3,1346.1,2879.8z M1575.9,2283.3c-6.9-2.1-22.8-17.8-28.7-11.3c-9.9,17.2-19.5,34.7-29.4,51.9
			c-4.3,7.7,14.7,11.4,19.1,15.9c3.2,1.9,5.3,1.4,6.9-1.9C1554.7,2319.9,1563.5,2300.3,1575.9,2283.3z M1294.9,2814.4
			c-11.4-6-15.5-6.4-7.5-18.5c11.5-1.8,15.2,12.4,21.9-5c5.4-8.6-17.6-12.6-22.8-17.3c-6.5-3.2-6.7-3.1-9.9,3.1
			c-9.4,18.6-18.8,37.1-28,55.6c-5.8,11.7-6.2,10.3,6.5,16.6c8.5,3.7,11-14.7,15.2-19.8C1278,2811.6,1286.6,2844.4,1294.9,2814.4z
			 M1444,2801.6c-0.6,24.7,10.1,49.9,13.6,74.4c1.3,10.6,25.5-1.3,32.9-1.4c9.8-3.9,2.4-18-7-15.2c-10.6,2-10.6,2-12.7-8.3
			c-3.1-15.4-6.3-30.7-9.6-46.1C1461.1,2795.2,1451.1,2800.8,1444,2801.6z M1700.9,2599c-5.8-9.9,17.1-5.1,13.1-15.1
			c-1.5-4.1-1.4-11.2-7.7-8.6c-11.8,3.4-11.8,3.1-12.2-9.5c-0.2-9.7-14.8-7.7-14,1.5c-0.1,11.8-0.1,11.8-11.6,7.6
			c-1.8-0.7-5.2-1.2-5.5-0.7c-2.3,5.2-7.4,12.2,0.8,15.1c17.4,5.6,3.6,9.1,1.2,19.6c15.8,21.2,14.7-17.2,27.4,3.5
			c3.8,5.1,5,5.4,10,1.6C1710.9,2609.5,1704.9,2604.9,1700.9,2599z M1150.7,2562.9c-5.4-4.8-18.2,6.9-17.6-3.2
			c-0.1-7.3,2.6-15-7.5-13.8c-8.8-1.8-6,8.7-6.7,14.1c-2.5,12-17.8-11.9-20.6,7.6c-1.1,3.7-0.3,5.6,3.3,7.1
			c11.8,4.9,11.9,5.2,4,15.2c-3.3,4.2-1.4,6.3,1.8,8.7c3.2,2.4,5.6,5.1,9.4,0.5c7.7-9.2,7.8-8.9,15.7,0.5
			c7.3,6.9,17.7-3.3,10.2-11.1C1127.9,2571.7,1162.6,2583.1,1150.7,2562.9z M1500.1,2785.6c-7.4,3.4-7.8,3.8-4.6,11.3
			c7.7,18.6,15.4,37,22.9,55.7c5,12.4,4.8,12.3,16.8,6.8c3.6-1.6,4.3-3.7,2.8-7.2c-8.9-21.7-17.8-43.5-26.6-65.2
			C1509.3,2780.3,1504.4,2783.7,1500.1,2785.6z"/>
		<path class="st3" d="M1365,2278.5c3.2-5.1,5.3-24.7,11-17.7C1387.8,2277.8,1383.8,2277,1365,2278.5z"/>
		<path class="st3" d="M1200.6,2744.4c-1.8-0.3-3.5-0.7-5.3-1c0.5-6.2,6.4-11.5,12.6-11.1
			C1209.5,2738.4,1204.5,2739.9,1200.6,2744.4z"/>
	</g>
</g>
</svg>
