<svg xmlns="http://www.w3.org/2000/svg" width="256" height="256" style="overflow:visible;enable-background:new 0 0 256 256" viewBox="0 0 256 256" xml:space="preserve">
  <path d="M207 116.2h256V372H207z" style="fill:#1DCFFF" transform="translate(-207 -116)"/>
  <path d="M212.5 18.9c.4.3.8.5 1.3.5l22.4 2.7c1.4.2 2.6-.8 2.8-2.2.2-1.4-.8-2.6-2.2-2.8l-22.4-2.7c-1.4-.2-2.6.8-2.8 2.2-.1.9.2 1.8.9 2.3zM194.9 19.6c1.1.9 2.7.7 3.5-.4.2-.3.4-.7.5-1.1L202.1 3c.3-1.4-.5-2.7-1.9-3-1.4-.3-2.7.5-3 1.9V2L194 17.1c-.2 1 .1 1.9.9 2.5zM235.8 145c.1-1.4-.9-2.6-2.3-2.7l-17.6-1.5c-1.4-.1-2.6.9-2.7 2.3-.1 1.4.9 2.6 2.3 2.7l17.6 1.5c1.3.2 2.5-.9 2.7-2.3zM228.6 110.3l-2.7 12.9c-.3 1.4.6 2.7 2 3 1.3.3 2.7-.6 3-1.9l2.7-12.9c.3-1.4-.6-2.7-1.9-3-1.5-.3-2.8.5-3.1 1.9zM236.8 94.3c-.7-1.2-2.2-1.6-3.4-.9l-16.1 9.3c-1.2.7-1.6 2.2-.9 3.4.2.3.4.5.6.7.8.7 1.9.7 2.8.2l16.1-9.3c1.1-.7 1.6-2.2.9-3.4zM244.9 70.6c-1.2-.7-2.7-.3-3.4.9L235 82.7c-.7 1.2-.3 2.7.9 3.4 1.2.7 2.7.3 3.4-.9l6.5-11.2c.7-1.2.3-2.7-.9-3.4zM238.2 41.3c-1.4.3-2.2 1.6-1.9 3l3 13.6c.3 1.4 1.7 2.2 3 1.9 1.3-.3 2.2-1.6 1.9-3l-3-13.6c-.3-1.4-1.6-2.2-3-1.9zM229.9 63.2l-13.2 9.3c-1.1.8-1.4 2.4-.6 3.5.1.2.3.4.5.5.9.7 2.1.7 3 .1l13.2-9.3c1.1-.8 1.4-2.4.6-3.5-.8-1.1-2.4-1.4-3.5-.6zM206.8 94.2c.7 1.2 2.3 1.5 3.5.8l12.7-7.8c1.2-.7 1.6-2.3.8-3.5-.7-1.2-2.3-1.6-3.5-.8l-12.7 7.8c-1.2.7-1.5 2.3-.8 3.5zM224.3 49.9l-7.4-6c-1.1-.9-2.7-.7-3.5.4s-.7 2.7.4 3.5l7.4 6c1.1.9 2.7.7 3.5-.4.9-1 .7-2.6-.4-3.5zM192.5 73.1c.4 1.3 1.8 2.1 3.1 1.8l14.3-3.9c1.3-.4 2.1-1.8 1.7-3.1-.4-1.3-1.7-2.1-3.1-1.8L194.2 70c-1.3.4-2.1 1.8-1.7 3.1zM178.8 106c.3.2.6.4.9.5l17.1 4.5c1.3.4 2.7-.4 3.1-1.8.4-1.3-.4-2.7-1.8-3.1l-17.1-4.5c-1.3-.4-2.7.5-3.1 1.8-.2.9.1 1.9.9 2.6zM193.7 147c1.4.1 2.6-.9 2.7-2.3l1.6-21.1c.1-1.4-1-2.6-2.4-2.7-1.4-.1-2.5.9-2.7 2.3l-1.6 21.1c0 1.4 1 2.6 2.4 2.7zM205.6 136.5c.1.1.2.1.3.2 1.2.7 2.7.4 3.5-.8l8.1-13.2c.8-1.2.4-2.7-.8-3.5-1.2-.8-2.7-.4-3.5.8 0 0 0 .1-.1.1l-8.1 13.2c-.6 1-.4 2.4.6 3.2zM226.2 156.7c-.5-1.3-2-1.9-3.3-1.4l-17.9 7c-1.3.5-1.9 2-1.4 3.3s2 1.9 3.3 1.4l17.9-7c1.3-.6 1.9-2 1.4-3.3zM232.9 188c1.1.9 2.7.7 3.5-.4.3-.3.4-.7.5-1.1l3.6-18.6c.2-1.4-.7-2.7-2-2.9-1.3-.2-2.6.6-2.9 2l-3.6 18.6c-.2.9.1 1.8.9 2.4zM246.9 184.7c-1.3-.5-2.7.2-3.2 1.5l-7 19.2c-.5 1.3.2 2.7 1.5 3.2s2.7-.2 3.2-1.5l7-19.2c.5-1.3-.2-2.8-1.5-3.2zM220 188.7c.2-1.4-.7-2.7-2-2.9l-27.1-4.7c-1.4-.2-2.7.7-2.9 2-.2 1.4.7 2.7 2 2.9l27.1 4.7c1.4.3 2.7-.6 2.9-2zM218.2 196.3c-.6-1.2-2.2-1.7-3.4-1.1-1.2.6-1.7 2.1-1.1 3.4.4.7 9.8 17.5 11.7 20.8.2.3.4.5.6.7 1.1.9 2.7.7 3.5-.4.7-.8.7-1.9.2-2.8-4.3-7.9-11.1-20-11.5-20.6zM183.4 67.3c-1.4 0-2.5 1.1-2.5 2.5l-.1 15c0 1.4 1.1 2.5 2.5 2.5s2.5-1.1 2.5-2.5l.1-15c0-1.3-1.1-2.5-2.5-2.5zM237.2 31.7l-16.3 4c-1.4.3-2.2 1.7-1.9 3 .3 1.4 1.7 2.2 3 1.9h.1l16.3-4c1.4-.3 2.2-1.7 1.9-3-.3-1.4-1.6-2.3-3.1-1.9.1 0 .1 0 0 0zM203.9 28.3l-7 23.4c-.3 1 0 2 .8 2.7.3.2.6.4.9.5 1.3.4 2.7-.4 3.1-1.7l7-23.4c.4-1.3-.4-2.7-1.8-3.1-1.2-.5-2.6.3-3 1.6zM182.5 53.9c1.1.8 2.7.6 3.5-.6l7.9-11c.8-1.1.5-2.7-.7-3.5-1.1-.8-2.6-.5-3.4.6l-7.9 11c-.8 1.2-.5 2.7.6 3.5zM209.8 219.7h-13.6c-1.4 0-2.5 1.1-2.5 2.5s1.1 2.5 2.5 2.5h13.6c1.4 0 2.5-1.2 2.5-2.6 0-1.2-1.1-2.3-2.5-2.4zM170 204.7c.2.1.3.2.5.3l15.7 7.1c1.3.6 2.8 0 3.3-1.2.6-1.3 0-2.8-1.2-3.3l-15.7-7.1c-1.3-.6-2.8 0-3.3 1.2-.5 1-.2 2.3.7 3zM197 196.5l-2.7 12.9c-.3 1.4.6 2.7 2 3 1.3.3 2.7-.6 3-1.9l2.7-12.9c.3-1.4-.6-2.7-1.9-3-1.5-.3-2.8.6-3.1 1.9zM181.1 159.2c1.1.9 2.7.7 3.5-.4.4-.5.6-1.1.6-1.7l-.7-20.4c0-1.4-1.2-2.5-2.6-2.5-1.4 0-2.5 1.2-2.5 2.6v.1l.7 20.4c.1.8.4 1.5 1 1.9zM190.2 155.1l-3.6 18.6c-.2 1.4.7 2.7 2 2.9 1.3.2 2.6-.6 2.9-2l3.6-18.6c.3-1.4-.6-2.7-2-3-1.3-.2-2.6.7-2.9 2.1zM61.7 24.8c1.1.9 2.7.7 3.5-.4.4-.5.6-1.2.6-1.8L64.4 6.3c-.1-1.4-1.3-2.4-2.7-2.3-1.4.1-2.4 1.3-2.3 2.7v.1l1.4 16.3c.1.7.4 1.3.9 1.7zM74.5 19.2l10.9 8.9c1.1.9 2.7.7 3.5-.4.8-1.1.7-2.6-.4-3.5l-10.9-8.9c-1.1-.9-2.7-.7-3.5.4-.8 1.1-.7 2.6.4 3.5zM90 12.8c.6.5 1.4.7 2.1.5l17-3.9c1.4-.3 2.2-1.7 1.9-3-.3-1.4-1.7-2.2-3-1.9L91 8.4c-1.4.3-2.2 1.7-1.9 3 .2.6.5 1.1.9 1.4zM113.5 21.1c.8.7 2 .7 2.9.2l14.2-8.7c1.2-.7 1.5-2.3.8-3.5-.7-1.2-2.3-1.5-3.4-.8L113.8 17c-1.2.7-1.6 2.3-.8 3.5.1.2.3.4.5.6zM144.1 30.3c0 .1.1.1.1.2.8 1.2 2.3 1.5 3.5.7l19.7-12.8c1.2-.8 1.5-2.3.7-3.5-.8-1.1-2.3-1.5-3.5-.7L145 27c-1.1.7-1.5 2.1-.9 3.3zM23.1 20.4c.1.1.2.2.3.2l13.2 7.5c1.2.7 2.7.3 3.4-.9.7-1.2.3-2.7-.9-3.4l-13.2-7.5c-1.2-.7-2.7-.3-3.4.9-.6 1.1-.3 2.4.6 3.2zM15 155.7c.6.5 1.4.7 2.1.5l17-3.9c1.4-.3 2.2-1.6 1.9-3-.3-1.4-1.6-2.2-3-1.9h-.1l-17 3.9c-1.4.3-2.2 1.7-1.9 3 .3.6.6 1.1 1 1.4zM29.1 120l-3.2 15.1c-.3 1.4.6 2.7 1.9 3 1.4.3 2.7-.6 3-1.9l3.2-15.1c.3-1.4-.5-2.7-1.9-3-1.4-.4-2.7.5-3 1.9zM14.3 121c1.1.9 2.7.7 3.5-.4.2-.3.4-.7.5-1l3.6-16.3c.3-1.4-.6-2.7-1.9-3-1.4-.3-2.7.6-3 1.9l-3.6 16.3c-.2 1 .1 1.9.9 2.5zM11.2 204c1.1.9 2.7.7 3.5-.4.5-.6.7-1.3.5-2.1l-3.1-15.3c-.3-1.4-1.6-2.3-2.9-2-1.4.2-2.3 1.6-2 2.9v.1l3.1 15.3c.1.6.4 1.2.9 1.5zM25.3 177c.3.3.7.4 1.1.5l16.9 3.1c1.4.3 2.7-.6 3-1.9s-.6-2.7-1.9-3h-.1l-16.9-3.1c-1.4-.3-2.7.6-2.9 2-.2.9.1 1.8.8 2.4zM36.5 202.6l-7.8-16.1c-.6-1.2-2.1-1.7-3.4-1.1-1.2.6-1.7 2.1-1.1 3.3l7.8 16.1c.6 1.2 2.1 1.8 3.4 1.2 1.2-.6 1.7-2.2 1.1-3.4zM53 151.2l-14.2 8.7c-1.2.7-1.6 2.3-.9 3.4.7 1.2 2.3 1.6 3.5.9l14.2-8.7c1.2-.7 1.5-2.3.8-3.5-.7-1.2-2.2-1.5-3.4-.8zM11.7 131.5l3.1 11c.4 1.3 1.8 2.1 3.1 1.7 1.3-.4 2.1-1.8 1.7-3.1l-3.1-11c-.4-1.3-1.8-2.1-3.1-1.7-1.3.4-2.1 1.8-1.7 3.1zM42.5 129.9c-.1 1.4 1 2.6 2.4 2.6l13.4.5c1.4.1 2.6-1 2.6-2.4.1-1.4-1-2.6-2.4-2.6l-13.4-.5c-1.4-.1-2.6 1-2.6 2.4zM45.2 96.4 30 103.5c-1.3.6-1.8 2.1-1.2 3.3.2.3.4.7.7.9.7.6 1.8.7 2.6.3l15.2-7.1c1.3-.6 1.8-2.1 1.2-3.4-.6-1.1-2-1.7-3.3-1.1zM14.7 89.2c.1.1.2.1.3.2 1.2.7 2.7.3 3.4-.9l9.7-16.1c.7-1.2.4-2.7-.8-3.5-1.2-.7-2.7-.4-3.5.8 0 0 0 .1-.1.1L14 85.9c-.5 1.1-.3 2.5.7 3.3zM3.4 49.9l-.5 11.6c0 1.4 1.1 2.5 2.5 2.6 1.3 0 2.5-1 2.6-2.4l.5-11.6c.1-1.4-1-2.6-2.4-2.7-1.4 0-2.6 1-2.7 2.5zM23.6 208.1c-1.4-.3-2.7.6-2.9 2l-3.2 17.2c-.2 1.4.7 2.7 2.1 2.9 1.3.2 2.6-.7 2.9-2l3.2-17.2c.2-1.4-.7-2.7-2.1-2.9zM42.1 196.7c.4.3.8.5 1.2.5l18.1 2.6c1.4.2 2.7-.7 2.9-2.1.2-1.4-.7-2.7-2.1-2.9h-.1L44 192.2c-1.4-.2-2.6.7-2.9 2.1 0 1 .4 1.9 1 2.4zM66.7 177.4 79.9 158c.8-1.1.6-2.7-.5-3.5-1.1-.8-2.7-.6-3.5.5 0 .1-.1.1-.1.2l-13.2 19.4c-.7 1.1-.5 2.5.5 3.4.1 0 .1.1.2.1 1 .8 2.6.5 3.4-.7zM84.9 144.7c.1-1.4-.9-2.6-2.3-2.7l-16.3-1.2c-1.4-.1-2.6.9-2.7 2.3-.1 1.4.9 2.6 2.3 2.7h.1l16.3 1.2c1.3.2 2.5-.9 2.6-2.3zM55.4 118.7c1.3.4 2.7-.4 3.1-1.7l7-23.4c.4-1.3-.4-2.7-1.8-3.1-1.3-.4-2.7.4-3.1 1.7l-7 23.4c-.3 1.3.5 2.7 1.8 3.1zM42.6 66.3l-7.5 19.4c-.5 1.3.1 2.8 1.4 3.3 1.3.5 2.8-.1 3.3-1.4v-.1l7.5-19.4c.5-1.3-.1-2.8-1.4-3.3-1.3-.5-2.7.2-3.3 1.5zM54.1 81.7c.4.4 1 .6 1.6.6h13.6c1.4 0 2.5-1.2 2.5-2.6 0-1.3-1.1-2.4-2.5-2.5H55.7c-1.4 0-2.5 1.1-2.5 2.5-.1.8.3 1.5.9 2zM98.2 106c-.5-1.3-1.9-2-3.2-1.6l-21.6 7.4c-1.3.5-2 1.9-1.6 3.2s1.9 2 3.2 1.6l21.6-7.4c1.3-.5 2-1.9 1.6-3.2zM92.3 119.3c.6-1.3 0-2.8-1.3-3.3-1.2-.5-2.7 0-3.3 1.2L80.8 132c-.5 1-.2 2.3.7 3 .2.1.3.2.5.3 1.3.6 2.8 0 3.3-1.2l7-14.8zM74.8 101.8l.1.1c1.1.8 2.7.5 3.5-.6l15.2-21.4c.8-1.1.5-2.7-.6-3.5-1.1-.8-2.7-.5-3.5.6L74.3 98.4c-.7 1.1-.5 2.6.5 3.4zM41.9 59.6c.6-1.3 0-2.8-1.2-3.3L25 49.2c-1.3-.6-2.8 0-3.3 1.2-.5 1-.2 2.3.7 3 .2.1.3.2.5.3l15.7 7.1c1.2.6 2.7.1 3.3-1.2zM30.8 40.3l-13.2-7.5c-1.2-.7-2.7-.3-3.4.9-.6 1.1-.4 2.4.6 3.2.1.1.2.2.3.2l13.2 7.5c1.2.7 2.7.3 3.4-.9.7-1.2.3-2.8-.9-3.4zM163.5 86.1c-1.3-.4-2.7.4-3.1 1.7-.3 1 .1 2 .8 2.6.3.2.6.4.9.5l11.4 3.2c1.3.4 2.7-.4 3.1-1.7.4-1.3-.4-2.7-1.7-3.1h-.1l-11.3-3.2zM176.5 117.6c0-1.4-1.2-2.5-2.6-2.5l-15.3.3c-1.4 0-2.5 1.2-2.5 2.6 0 1.4 1.2 2.5 2.6 2.5l15.3-.3c1.5-.1 2.6-1.2 2.5-2.6zM165.9 152.4c1.3.3 2.7-.5 3-1.8l5.3-21.4c.3-1.4-.5-2.7-1.9-3-1.3-.3-2.7.5-3 1.8l-5.3 21.4c-.3 1.3.5 2.6 1.9 3zM159.7 129.8c.1-1.4-.9-2.6-2.3-2.7l-17.6-1.5c-1.4-.1-2.6.9-2.7 2.3-.1 1.4.9 2.6 2.3 2.7l17.6 1.5c1.4.1 2.6-.9 2.7-2.3zM145.6 114.7c1.4.3 2.7-.6 3-1.9l2.7-12.9c.3-1.4-.6-2.7-1.9-3s-2.7.6-3 1.9l-2.7 12.9c-.3 1.4.5 2.7 1.9 3zM135 91.2c-1.2.6-1.7 2.2-1 3.4.6 1.2 2.2 1.7 3.4 1 .1 0 .1-.1.2-.1l16.1-9.3c1.2-.6 1.7-2.2 1-3.4-.6-1.2-2.2-1.7-3.4-1-.1 0-.1.1-.2.1L135 91.2zM153.4 74.4c.1.1.2.2.3.2 1.2.7 2.7.3 3.4-.9l6.5-11.2c.7-1.2.3-2.7-.9-3.4-1.2-.7-2.7-.3-3.4.9l-6.5 11.2c-.6 1.1-.3 2.4.6 3.2zM171.8 57.1c1.1.9 2.7.7 3.5-.4.4-.5.6-1.1.6-1.8l-1.4-17.2c-.1-1.4-1.3-2.4-2.7-2.3-1.4.1-2.4 1.3-2.3 2.7v.1l1.4 17.2c0 .7.3 1.3.9 1.7zM54.1 210.9c-.5-1.3-1.9-2-3.2-1.5l-11 4c-1.3.5-2 1.9-1.5 3.2.5 1.3 1.9 2 3.2 1.5l11-4c1.3-.5 2-1.9 1.5-3.2zM73.1 208.2c-.8-1.1-2.4-1.4-3.5-.5l-15.7 11.5c-1.1.8-1.4 2.4-.5 3.5.1.2.3.3.4.5.9.7 2.2.8 3.1.1l15.7-11.5c1-.9 1.3-2.4.5-3.6 0 .1 0 0 0 0zM161.2 52.6c1.1.9 2.7.7 3.5-.4.5-.6.7-1.4.5-2.1l-3-13.6c-.3-1.4-1.7-2.2-3-1.9-1.3.3-2.2 1.6-1.9 3l3 13.6c.2.5.5 1 .9 1.4zM147.7 51.8l-13.2 9.3c-1.1.8-1.4 2.4-.6 3.5.8 1.1 2.4 1.4 3.5.6l13.2-9.3c1.2-.8 1.5-2.3.7-3.5-.8-1.1-2.4-1.4-3.6-.6.1 0 0 0 0 0zM124.6 82.8c.7 1.2 2.3 1.5 3.5.8l12.7-7.8c1.2-.7 1.6-2.2.9-3.4-.7-1.2-2.2-1.6-3.4-.9h-.1l-12.7 7.8c-1.3.7-1.6 2.3-.9 3.5zM87.1 230.6c1.1.9 2.7.7 3.5-.4.3-.4.5-.9.6-1.5l.5-11.6c.1-1.4-1-2.6-2.4-2.6-1.4-.1-2.6 1-2.6 2.4l-.5 11.6c-.1.8.3 1.6.9 2.1zM131.2 32.8c-.9 1.1-.7 2.7.4 3.5l7.4 6c1.1.9 2.6.8 3.5-.3.9-1.1.8-2.6-.3-3.5h-.1l-7.4-6c-1.1-.9-2.6-.7-3.5.3zM126.4 54.7l-14.3 3.9c-1.3.4-2.1 1.7-1.8 3.1.4 1.3 1.7 2.1 3.1 1.8l14.3-3.9c1.3-.4 2.1-1.7 1.8-3.1-.4-1.4-1.8-2.2-3.1-1.8zM119.6 97.7c.4-1.3-.4-2.7-1.8-3.1l-17.1-4.5c-1.3-.4-2.7.4-3.1 1.8-.4 1.3.4 2.7 1.8 3.1l17.1 4.5c1.4.4 2.8-.4 3.1-1.8zM110.9 111.8l-1.6 21.1c-.1 1.4.9 2.6 2.3 2.7 1.4.1 2.6-.9 2.7-2.3v-.1l1.6-21.1c.1-1.4-.9-2.6-2.3-2.7-1.4-.1-2.6.9-2.7 2.4zM123.4 125.1c.1.1.2.1.3.2 1.2.7 2.7.4 3.5-.8l8.1-13.2c.7-1.2.4-2.7-.8-3.5-1.2-.7-2.7-.4-3.5.8l-8.1 13.2c-.7 1.1-.5 2.5.5 3.3zM121.4 154.1c.5 1.3 2 1.9 3.3 1.4l17.9-7c1.3-.5 1.9-2 1.4-3.3-.5-1.3-1.9-1.9-3.2-1.4l-17.9 7c-1.4.6-2 2-1.5 3.3zM150.7 176.6c1.1.9 2.7.7 3.5-.4.3-.3.4-.7.5-1.1l3.6-18.6c.2-1.4-.7-2.7-2-2.9-1.3-.2-2.6.6-2.9 2l-3.6 18.6c-.2.9.2 1.8.9 2.4zM174.5 172.5c-1.4 0-2.5 1.2-2.4 2.6l.7 20.4c0 1.4 1.2 2.5 2.6 2.5 1.4 0 2.5-1.2 2.5-2.6v-.1l-.7-20.4c-.1-1.4-1.3-2.5-2.7-2.4zM115.7 215.1 100 208c-1.3-.6-2.8 0-3.3 1.2-.5 1-.2 2.3.7 3 .2.1.3.2.5.3l15.7 7.1c1.3.6 2.8.1 3.4-1.2.6-1.2.1-2.8-1.2-3.4l-.1.1zM130.2 166.6c.2-1.4-.7-2.7-2-2.9L101 159c-1.4-.2-2.7.7-2.9 2.1-.2 1.3.7 2.6 2 2.8l27.1 4.7c1.4.3 2.7-.6 3-2zM143.9 208.6c1.1.9 2.7.7 3.5-.4.7-.8.7-1.9.2-2.8-4.5-7.9-11.3-19.9-11.7-20.6-.6-1.2-2.2-1.7-3.4-1.1-1.2.6-1.7 2.2-1.1 3.4.4.7 9.8 17.5 11.7 20.8.4.3.6.6.8.7zM154.4 217.1c1.1.9 2.7.7 3.5-.4.2-.3.4-.6.5-.9 4.3-14.6 6.4-22.7 6.4-24-.1-1.4-1.2-2.5-2.6-2.4-1.3.1-2.4 1.1-2.4 2.4-.2 1.6-3.3 12.6-6.2 22.5-.3 1.2 0 2.2.8 2.8zM147.6 239.7c.9.7 2.2.7 3.2 0l17.5-14.1c1.1-.8 1.3-2.4.5-3.5s-2.4-1.3-3.5-.5c0 0-.1 0-.1.1l-17.5 14.1c-1.1.9-1.3 2.5-.4 3.5 0 .1.1.2.3.4zM106.9 177.1c-1.4.1-2.5 1.2-2.4 2.6l.7 15.2c.1 1.4 1.2 2.5 2.6 2.4 1.4-.1 2.5-1.2 2.4-2.6l-.7-15.2c0-1.4-1.2-2.5-2.6-2.4zM94.1 146.1c.1.1.2.2.3.2l13.2 7.5c1.2.7 2.7.2 3.4-1 .7-1.2.2-2.7-.9-3.4L97 142c-1.2-.7-2.7-.3-3.4.9-.7 1.1-.4 2.5.5 3.2zM93.4 176.3 82 173.1c-1.3-.4-2.7.4-3.1 1.7-.4 1.3.4 2.7 1.7 3.1l11.4 3.2c1.3.4 2.7-.4 3.1-1.7.4-1.3-.3-2.7-1.7-3.1zM92.4 195l-15.3.3c-1.4 0-2.5 1.1-2.5 2.5s1.1 2.5 2.5 2.5h.1l15.3-.3c1.4 0 2.5-1.2 2.5-2.6s-1.2-2.4-2.6-2.4zM128.9 226.3c1.1.9 2.7.7 3.5-.4.2-.3.4-.7.5-1.1l2.7-12.9c.3-1.4-.6-2.7-1.9-3-1.4-.3-2.7.6-3 1.9l-2.7 12.9c-.2 1.1.2 2 .9 2.6zM120.4 27l-16.1 9.3c-1.2.6-1.7 2.2-1 3.4.6 1.2 2.2 1.7 3.4 1 .1 0 .1-.1.2-.1l16.1-9.3c1.2-.6 1.7-2.2 1-3.4-.6-1.2-2.2-1.7-3.4-1-.1 0-.2 0-.2.1zM77.2 82.6c1.1.9 2.7.7 3.5-.4.2-.3.4-.7.5-1l3.6-16.3c.3-1.4-.6-2.7-1.9-3s-2.7.6-3 1.9l-3.6 16.3c-.2.9.2 1.9.9 2.5zM56 56.5c.8.7 1.9.7 2.8.2l16-9.2c1.2-.7 1.5-2.3.8-3.5-.7-1.1-2.1-1.5-3.3-.9l-16 9.2c-1.2.7-1.6 2.2-.9 3.4.2.4.4.6.6.8zM47.6 53.1c1.1.9 2.7.7 3.5-.4.3-.4.5-.9.6-1.4l1.2-15.1c.1-1.4-1-2.6-2.4-2.7-1.4-.1-2.5.9-2.7 2.3l-1.2 15.1c0 .9.4 1.7 1 2.2zM93.8 53.5c.6 1.3 2.1 1.8 3.3 1.2l15.2-7.1c1.2-.6 1.8-2.1 1.1-3.4-.6-1.2-2-1.7-3.3-1.2l-15.2 7.1c-1.2.6-1.7 2.1-1.1 3.4zM94.5 31.8c-1.2-.7-2.7-.3-3.4.9l-9.7 16.1c-.6 1.1-.4 2.5.6 3.2.1.1.2.1.3.2 1.2.7 2.7.3 3.4-.9l9.7-16.1c.7-1.1.3-2.6-.9-3.4 0 .1 0 .1 0 0zM77.6 34c-.1-1.4-1.2-2.5-2.6-2.4l-11.3.6c-1.4.1-2.5 1.2-2.4 2.6.1 1.4 1.2 2.5 2.6 2.4l11.3-.6c1.4 0 2.4-1.2 2.4-2.6zM222.8 222.2c-.3-1.4-1.6-2.3-2.9-2-1.4.3-2.3 1.6-2 2.9v.1l3.1 15.3c.3 1.4 1.6 2.2 3 2 1.4-.3 2.2-1.6 2-3l-3.2-15.3zM202.7 231.7l-19.9 3.7c-1.4.3-2.3 1.6-2 2.9.3 1.4 1.6 2.3 2.9 2l19.9-3.7c1.4-.2 2.3-1.5 2.1-2.9-.2-1.3-1.5-2.3-3-2 .1 0 0 0 0 0zM215.3 241.4c-1.4-.1-2.6 1-2.6 2.4l-.5 9.5c-.1 1.4 1 2.6 2.4 2.6 1.4.1 2.5-1 2.6-2.3l.5-9.5c.1-1.4-1-2.6-2.4-2.7zM60.9 241.1l.3.3c1 .8 2.3.7 3.3-.1l11.9-10.6c1-.9 1.1-2.5.2-3.5-.9-1-2.5-1.1-3.5-.2l-11.9 10.6c-1.1.9-1.2 2.5-.3 3.5zM77.4 248.7l-15.6-.2c-1.4 0-2.5 1.1-2.5 2.5 0 1.3 1.1 2.4 2.4 2.5l15.6.2c1.4 0 2.5-1.1 2.5-2.5.1-1.3-1-2.5-2.4-2.5zM107 231c-1.4-.3-2.7.6-3 1.9l-3.2 15.1c-.3 1.4.6 2.7 2 2.9 1.3.3 2.6-.6 2.9-1.9l3.3-15c.3-1.4-.6-2.7-2-3zM133.5 240.9l-13.4-.5c-1.4 0-2.6 1-2.6 2.4s1 2.5 2.4 2.6l13.4.5c1.4.1 2.6-1 2.6-2.4.1-1.4-1-2.5-2.4-2.6zM173.7 232.2c-1.3-.6-2.8 0-3.3 1.2l-6.9 14.8c-.5 1-.2 2.3.7 3 .2.1.3.2.5.3 1.3.6 2.8 0 3.3-1.2l6.9-14.8c.6-1.2 0-2.7-1.2-3.3zM26.7 227.1c-1.4.1-2.4 1.3-2.3 2.7l1.4 17.2c.1 1.4 1.3 2.4 2.7 2.3 1.4-.1 2.4-1.3 2.3-2.7v-.1l-1.4-17.2c-.1-1.3-1.3-2.3-2.7-2.2zM49.1 229.8l-11 4c-1.3.5-2 1.9-1.5 3.2.5 1.3 1.9 2 3.2 1.5l11-4c1.3-.5 2-1.9 1.5-3.2-.5-1.3-1.9-1.9-3.2-1.5zM119.4 188.2l-3.6 16.3c-.3 1.4.6 2.7 1.9 3s2.7-.6 3-1.9l3.6-16.3c.3-1.4-.6-2.7-1.9-3-1.3-.3-2.7.6-3 1.9zM107.3 82.4c1.1.9 2.7.7 3.5-.4.5-.6.7-1.5.5-2.3l-3.1-11c-.4-1.3-1.8-2.1-3.1-1.7-1.3.4-2.1 1.8-1.8 3.1l3.1 11c.2.5.5 1 .9 1.3zM232.5 3.3c1.1.9 2.7.7 3.5-.4.3-.3.4-.7.5-1.1l.3-1.6h-5.1l-.1.7c-.2.9.2 1.8.9 2.4zM181.9 24.2c1.1.9 2.7.7 3.5-.4.4-.5.6-1 .6-1.6l-.1-22h-5l.1 22.1c-.1.7.3 1.4.9 1.9zM255.8 11.2 250.5.3h-5.6l6.4 13.1c.6 1.2 2.1 1.8 3.3 1.2.7-.3 1.2-.9 1.3-1.7v-1.3c.1-.1 0-.3-.1-.4zM90.6.9c1.1.9 2.7.7 3.5-.4.1-.1.2-.2.2-.4H90c.2.4.4.6.6.8zM139.5 2.5c.4.3.9.5 1.4.6l16.3 1.2c1.4.1 2.6-.9 2.7-2.3 0-.6-.1-1.2-.5-1.7h-20.8v.1c-.1.8.2 1.6.9 2.1zM1.6 31.3 17.7 22c1.2-.6 1.7-2.2 1-3.4-.6-1.2-2.2-1.7-3.4-1-.1 0-.1.1-.2.1L-.1 26.4v5.2c.6 0 1.2-.1 1.7-.3zM6.9 7c1.1.9 2.7.7 3.5-.4.1-.1.2-.2.2-.3L14.1.2H8.3l-2 3.5c-.6 1.1-.4 2.5.6 3.3zM40.4 10.6c1.1.9 2.7.7 3.5-.4.5-.6.7-1.3.5-2.1l-1.6-8h-5.1l1.8 9c.1.7.5 1.2.9 1.5zM1.6 114.2c-.4-.5-1-.7-1.6-.8v5.6l1.4-1.2c1-1 1.1-2.5.2-3.6zM4.9 138.4c0-1.4-1.1-2.5-2.5-2.5H0v5h2.4c1.3 0 2.5-1.2 2.5-2.5zM5.6 163.6 0 159.1v6.5l2.4 2c1.1.9 2.7.7 3.5-.4.9-1.2.7-2.7-.3-3.6zM8.3 90.7c-.7-1.2-2.2-1.6-3.4-.9L.1 92.6v5.8l7.3-4.2c1.2-.8 1.6-2.3.9-3.5zM10 76.8c-.1-1.4-1.2-2.5-2.6-2.4l-7.4.4v5l7.6-.4c1.4-.1 2.5-1.2 2.4-2.6zM.1 213.3H0v14.5c1.1-.2 1.9-1.2 2-2.3l.5-9.5c.1-1.5-1-2.7-2.4-2.7zM237.7 237.5c-1.4-.3-2.7.7-2.9 2l-3 16.5h5.1l2.9-15.6c.1-1.3-.8-2.6-2.1-2.9zM183.3 253.4c-1.4 0-2.5 1.1-2.5 2.5h5v-.1c0-1.3-1.1-2.4-2.5-2.4zM244.6 249.7c-1.2.6-1.8 2.1-1.2 3.4l1.4 2.9h5.6l-2.5-5.1c-.5-1.3-2-1.8-3.3-1.2zM198.8 256h1.7c-.1 0-.2-.1-.3-.1-.5-.1-1-.1-1.4.1zM91.5 243c-.4-1.3-1.8-2.1-3.1-1.7-1.3.4-2.1 1.8-1.8 3.1l3.1 11c.1.2.1.4.2.6h4.4c.3-.6.4-1.3.2-1.9l-3-11.1zM157.5 255l-16.3-1.2c-1.3-.1-2.5.9-2.7 2.2h20.8c-.4-.6-1-1-1.8-1zM16.2 247.5c-1.2-.7-2.7-.3-3.4.9L8.4 256h5.8l3-5.1c.6-1.2.2-2.7-1-3.4zM38.4 246.7c-1.4.3-2.2 1.6-2 3l1.3 6.4h5.1l-1.5-7.3c-.2-1.5-1.5-2.4-2.9-2.1zM254.1 30.3c.4.7 1.1 1.1 1.9 1.2v-5.2l-.9.5c-1.3.8-1.7 2.3-1 3.5zM254 114l-11.9 10.6c-1 .9-1.1 2.5-.2 3.5l.3.3c1 .8 2.3.7 3.3-.1L256 119v-5.6c-.7-.1-1.4.1-2 .6zM240.3 138.2c0 1.4 1.1 2.5 2.5 2.5l13.3.1v-5l-13.2-.1c-1.5 0-2.6 1.1-2.6 2.5zM247.1 155.1c-.9 1.1-.7 2.7.4 3.5l8.5 6.9V159l-5.3-4.3c-1.1-.8-2.7-.7-3.6.4zM243.9 102.4c.2.3.4.5.6.7.8.7 1.9.7 2.8.2l8.7-5v-5.8l-11.2 6.4c-1.2.8-1.6 2.3-.9 3.5zM249.7 77.6c.1 1.4 1.2 2.5 2.6 2.4l3.6-.2v-5l-3.9.2c-1.3 0-2.3 1.2-2.3 2.6zM253.5 215.6l-.5 9.5c-.1 1.4.9 2.5 2.3 2.6.2 0 .5 0 .7-.1v-14.5c-1.3.2-2.5 1.2-2.5 2.5z"/>
</svg>