<svg xmlns="http://www.w3.org/2000/svg" width="47" height="47" style="overflow:visible;enable-background:new 0 0 47 47" xml:space="preserve"><style>.st0{fill:#fff}</style><path class="st0" d="M4.6 39.9V28.3c-.9 0-1.6 0-2.4-.1C.7 28 0 27.3 0 25.7V2.3C0 .8.8 0 2.3 0h33c1.4 0 2.1.7 2.3 2.1v23.1c0 2.3-.8 3.1-3.1 3.1H17.3c-.7 0-1.2.2-1.6.7-3.4 3.3-6.8 6.7-10.1 10-.3.3-.5.5-1 .9zm4.7-23.5c1.4 0 2.4-.9 2.4-2.3.1-1.3-1-2.4-2.3-2.4C8 11.7 7 12.7 7 14c0 1.4 1 2.4 2.3 2.4zm7.2-2.3c0 1.4 1 2.3 2.3 2.3 1.4 0 2.4-1 2.4-2.4 0-1.3-1-2.3-2.4-2.3s-2.4 1-2.3 2.4zm11.7 2.3c1.3 0 2.3-1 2.3-2.3 0-1.4-1-2.3-2.3-2.3-1.4 0-2.3 1-2.3 2.4 0 1.3 1 2.2 2.3 2.2z"/><path class="st0" d="M42.3 21.1c1 0 1.8-.1 2.7 0 1.2.1 2 1.2 2 2.5v13.9c0 1.3-1.1 2.4-2.3 2.4h-2.3v7c-.5-.3-.8-.5-1-.7-2.6-1.9-5.2-3.9-7.8-5.8-.4-.3-1-.5-1.5-.5H21.8c-2.1 0-2.9-.8-2.9-2.8v-4.3h20.5c2.5 0 3.1-.7 3.2-3.2v-7.4c-.3-.3-.3-.6-.3-1.1z"/></svg>