<svg xmlns="http://www.w3.org/2000/svg" width="256" height="256" style="overflow:visible;enable-background:new 0 0 256 256" viewBox="0 0 256 256" xml:space="preserve">
  <style>
    .st1{fill:#FFE401}
  </style>
  <path d="M0 0h256v256H0z" style="fill:#FF6B31"/>
  <g id="Group_12342_2_">
    <g id="Group_12341_2_" transform="translate(-596.383 -369.265)">
      <g id="Path_17101_2_">
        <path d="M684.8 396.5c-.8-1.4-1.7-2.6-2.8-3.7-2.1-6.2-8.5-9.9-14.9-8.6-2.2-2.9-5.5-4.8-9.1-5.2-2.8-6.6-10.5-9.7-17.1-6.8-3.5 1.5-6.2 4.5-7.3 8.1-5.3.4-10.1 3.2-13 7.6-1-.2-2-.3-3-.3-9.6 0-17.4 7.8-17.4 17.4 0 9.6 7.8 17.4 17.4 17.4.5 0 1 0 1.4-.1.3 0 .6.1.9.1h62.8c7.2 0 13-5.8 13-13 0-6.4-4.6-11.8-10.9-12.9z" class="st1"/>
        <path d="M682.6 422.9h-62.9c-.3 0-.7 0-1-.1-.4 0-.9.1-1.4.1-9.9 0-17.9-8-17.9-17.9 0-9.9 8-17.9 17.9-17.9.9 0 1.8.1 2.8.2 3-4.3 7.7-7 12.9-7.5 1.2-3.6 3.9-6.6 7.5-8.1 3.3-1.4 7-1.5 10.4-.1 3.3 1.3 5.9 3.8 7.3 7 3.6.4 6.8 2.3 9 5.1 6.5-1.2 13 2.6 15.1 8.9 1 1.1 2 2.3 2.7 3.5 6.4 1.2 11.1 6.7 11.1 13.3.1 7.4-6 13.5-13.5 13.5zm-63.8-1c.4 0 .7.1 1 .1h62.9c6.9 0 12.5-5.6 12.5-12.6 0-6.2-4.4-11.4-10.5-12.4h-.2l-.1-.2c-.7-1.3-1.7-2.5-2.7-3.6l-.1-.2c-2-6-8.2-9.5-14.4-8.3l-.3.1-.2-.2c-2.1-2.8-5.3-4.6-8.8-5h-.3l-.1-.3c-1.3-3.1-3.8-5.5-6.9-6.7-3.1-1.2-6.5-1.2-9.6.1-3.4 1.5-6 4.3-7 7.8l-.1.3h-.3c-5.2.4-9.8 3.1-12.7 7.4l-.2.3-.3-.1c-1-.2-1.9-.2-2.9-.2-9.3 0-16.9 7.6-16.9 16.9 0 9.3 7.6 16.9 16.9 16.9.4 0 .8-.1 1.3-.1z"/>
      </g>
      <g id="Path_17102_2_">
        <path d="M812 396c-.8-1.4-1.7-2.6-2.8-3.7-2.1-6.2-8.5-9.9-15-8.6-2.2-2.9-5.5-4.8-9.2-5.2-2.9-6.6-10.6-9.7-17.2-6.8-3.5 1.5-6.2 4.5-7.4 8.1-5.3.4-10.1 3.2-13.1 7.6-1-.2-2-.3-3-.3-9.7 0-17.5 7.8-17.5 17.4 0 9.6 7.8 17.4 17.5 17.4.5 0 1 0 1.4-.1.3 0 .6.1.9.1h63.1c7.2 0 13.1-5.8 13.1-13 .2-6.4-4.5-11.8-10.8-12.9z" class="st1"/>
        <path d="M809.9 422.4h-63.2c-.3 0-.7 0-1-.1-.4 0-.9.1-1.4.1-9.9 0-18-8-18-17.9s8.1-17.9 18-17.9c.9 0 1.9.1 2.8.2 3-4.3 7.7-7 13-7.5 1.2-3.6 4-6.6 7.5-8.1 6.8-2.9 14.7.2 17.7 6.8 3.6.4 6.8 2.3 9.1 5.1 6.5-1.2 13 2.6 15.2 8.9 1 1.1 2 2.3 2.7 3.5 6.5 1.2 11.2 6.7 11.2 13.3-.1 7.6-6.1 13.6-13.6 13.6zm-64.2-1c.4 0 .7.1 1 .1h63.2c6.9 0 12.6-5.6 12.6-12.6 0-6.2-4.4-11.4-10.6-12.4h-.2l-.1-.2c-.7-1.3-1.7-2.5-2.8-3.6l-.1-.2c-2-6-8.2-9.5-14.5-8.3l-.3.1-.2-.2c-2.1-2.8-5.3-4.6-8.8-5h-.3l-.1-.3c-2.7-6.4-10.2-9.3-16.6-6.6-3.4 1.5-6 4.3-7.1 7.8l-.1.3h-.3c-5.2.4-9.8 3.1-12.7 7.4l-.2.3-.3-.1c-1-.2-1.9-.2-2.9-.2-9.4 0-17 7.6-17 16.9s7.6 16.9 17 16.9c.5 0 .9 0 1.4-.1z"/>
      </g>
      <g id="Path_17103_2_">
        <path d="M811 460.7c-2.1-3.7-5.3-6.5-9.2-8.1 0-.4.1-.8.1-1.3 0-7.6-6.1-13.7-13.7-13.7-2.8 0-5.5.9-7.8 2.4-3.7-6.6-12.1-9-18.7-5.3-3.4 1.9-5.9 5.2-6.7 9.1-5.9 1.2-10.8 5.1-13.2 10.6-8.3 1-14.8 8.1-14.8 16.7 0 8.1 5.8 14.9 13.5 16.5.7.2 1.5.3 2.2.3h66.1c7.6 0 13.7-6.1 13.7-13.7.1-6.7-4.9-12.4-11.5-13.5z" class="st1"/>
        <path d="M808.8 488.5h-66.2c-.8 0-1.6-.1-2.4-.3-8-1.6-13.8-8.7-13.8-16.9 0-8.6 6.4-16 14.9-17.1 2.5-5.4 7.4-9.4 13.2-10.6.9-3.9 3.4-7.2 6.9-9.1 3.3-1.9 7.1-2.3 10.8-1.3 3.5 1 6.4 3.2 8.3 6.3 2.3-1.5 4.9-2.2 7.7-2.2 7.8 0 14.2 6.4 14.2 14.2v1c3.8 1.6 7 4.4 9 7.9 6.8 1.2 11.7 7.1 11.7 14 0 3.8-1.5 7.4-4.2 10.1-2.7 2.5-6.3 4-10.1 4zm-40.5-54.9c-2.2 0-4.5.6-6.5 1.7-3.3 1.9-5.7 5.1-6.5 8.8l-.1.3-.3.1c-5.7 1.1-10.6 5-12.9 10.4v.1h-.3c-8.2 1-14.4 7.9-14.4 16.2 0 7.7 5.5 14.5 13.1 16 .7.2 1.4.3 2.1.3h66.2c7.3 0 13.2-5.9 13.2-13.2 0-6.5-4.7-12-11.1-13.1h-.2l-.1-.2c-2-3.6-5.2-6.3-9-7.8l-.3-.1v-.4c0-.4.1-.8.1-1.2 0-7.3-5.9-13.2-13.2-13.3-2.7 0-5.3.8-7.5 2.4l-.4.3-.3-.5c-1.7-3.1-4.6-5.3-8-6.3-1.1-.4-2.4-.5-3.6-.5z"/>
      </g>
      <g id="Path_17104_2_">
        <path d="M684.1 460.7c-1-1.7-2.2-3.3-3.7-4.6 3.5-6.3 1.2-14.2-5.1-17.7-6.2-3.4-14-1.3-17.6 4.9-.6-.1-1.2-.1-1.8-.1-2.4-6.8-9.9-10.4-16.6-8-4.3 1.5-7.5 5.1-8.4 9.6-2.6.5-5.1 1.6-7.2 3.3-1.5-.4-3.1-.6-4.6-.6-10.8 0-19.6 8.8-19.6 19.6s8.8 19.6 19.6 19.6h63c7.2 0 13-5.8 13-13-.1-6.5-4.7-11.9-11-13z" class="st1"/>
        <path d="M682 487.1h-63c-11.1 0-20-9-20-20s9-20 20-20c1.5 0 3 .2 4.5.5 2-1.5 4.4-2.6 6.9-3.2 1.1-4.4 4.3-8.1 8.6-9.6 6.9-2.4 14.5 1.1 17.1 7.9.4 0 .8 0 1.2.1 3.8-6.2 11.6-8.3 18-4.8 6.4 3.5 8.8 11.6 5.5 18 1.4 1.2 2.5 2.7 3.4 4.3 6.4 1.2 11.1 6.7 11.1 13.3.2 7.4-5.9 13.5-13.3 13.5zm-63-.9h63c6.9 0 12.5-5.6 12.5-12.6 0-6.2-4.4-11.4-10.5-12.4h-.2l-.1-.2c-1-1.7-2.2-3.2-3.6-4.5l-.3-.3.2-.3c3.3-6.1 1.1-13.7-5-17.1-6-3.3-13.4-1.3-16.9 4.7l-.2.3h-.3c-.6-.1-1.1-.1-1.7-.1h-.3l-.2-.3c-2.3-6.5-9.5-10-16-7.7-4.1 1.4-7.2 5-8.1 9.2l-.1.3-.3.1c-2.5.5-5 1.6-7 3.2l-.2.1-.2-.1c-1.5-.4-3-.5-4.5-.5-10.5 0-19.1 8.6-19.1 19.1s8.6 19.1 19.1 19.1z"/>
      </g>
      <g id="Path_17109_2_">
        <path d="M684.1 523.1c-.8-1.4-1.7-2.6-2.8-3.7-2.1-6.2-8.5-9.9-14.9-8.6-2.2-2.9-5.5-4.8-9.1-5.2-2.8-6.6-10.5-9.7-17.1-6.8-3.5 1.5-6.2 4.5-7.3 8.1-5.3.4-10.1 3.2-13 7.6-1-.2-2-.3-3-.3-9.6 0-17.4 7.8-17.4 17.4s7.8 17.4 17.4 17.4c.5 0 1 0 1.4-.1.3 0 .6.1.9.1H682c7.2 0 13-5.8 13-13 0-6.4-4.6-11.8-10.9-12.9z" class="st1"/>
        <path d="M682 549.5h-62.9c-.3 0-.7 0-1-.1-.4 0-.9.1-1.4.1-9.9 0-17.9-8-17.9-17.9 0-9.9 8-17.9 17.9-17.9.9 0 1.8.1 2.8.2 3-4.3 7.7-7 12.9-7.5 1.2-3.6 3.9-6.6 7.5-8.1 3.3-1.4 7-1.5 10.4-.1 3.3 1.3 5.9 3.8 7.3 7 3.6.4 6.8 2.3 9 5.1 6.5-1.2 13 2.6 15.1 8.9 1 1.1 2 2.3 2.7 3.5 6.4 1.2 11.1 6.7 11.1 13.3 0 7.5-6.1 13.5-13.5 13.5zm-63.9-1c.4 0 .7.1 1 .1H682c6.9 0 12.6-5.6 12.6-12.6 0-6.2-4.4-11.4-10.5-12.4h-.2l-.1-.2c-.7-1.3-1.7-2.5-2.7-3.6l-.1-.2c-2-6-8.2-9.5-14.4-8.3l-.3.1-.2-.2c-2.1-2.8-5.3-4.6-8.8-5h-.3l-.1-.3c-1.3-3.1-3.8-5.5-6.9-6.7-3.1-1.2-6.5-1.2-9.6.1-3.4 1.5-6 4.3-7 7.8l-.1.3h-.3c-5.2.4-9.8 3.1-12.7 7.4l-.2.3-.3-.1c-1-.2-1.9-.2-2.9-.2-9.3 0-16.9 7.6-16.9 16.9 0 9.3 7.6 16.9 16.9 16.9.3 0 .8 0 1.2-.1z"/>
      </g>
      <g id="Path_17110_2_">
        <path d="M811.6 523.1c-.8-1.4-1.7-2.6-2.8-3.7-1.8-5.3-6.8-8.8-12.3-8.8-.9 0-1.7.1-2.6.3-2.2-2.9-5.5-4.8-9.1-5.2-2.8-6.6-10.5-9.7-17.1-6.8-3.5 1.5-6.2 4.5-7.3 8.1-5.3.4-10.1 3.2-13 7.6-1-.2-2-.3-3-.3-9.6 0-17.4 7.8-17.4 17.4 0 9.6 7.8 17.4 17.4 17.4.5 0 1 0 1.4-.1.3 0 .6.1.9.1h62.8c7.2 0 13-5.8 13-13 .1-6.5-4.6-11.9-10.9-13z" class="st1"/>
        <path d="M809.5 549.5h-62.9c-.3 0-.7 0-1-.1-.4 0-.9.1-1.4.1-9.9 0-17.9-8-17.9-17.9 0-9.9 8-17.9 17.9-17.9.9 0 1.8.1 2.8.2 3-4.3 7.7-7 12.9-7.5 1.2-3.6 3.9-6.6 7.5-8.1 6.8-2.9 14.6.2 17.7 6.8 3.6.4 6.8 2.3 9 5.1.8-.1 1.6-.2 2.4-.2 5.8 0 10.9 3.6 12.8 9.1 1 1.1 2 2.3 2.7 3.5 6.4 1.2 11.1 6.7 11.1 13.3-.1 7.6-6.1 13.6-13.6 13.6zm-63.8-1c.4 0 .7.1 1 .1h62.9c6.9 0 12.6-5.6 12.6-12.6 0-6.2-4.4-11.4-10.5-12.4h-.2l-.1-.2c-.7-1.3-1.7-2.5-2.7-3.6l-.1-.2c-1.7-5.1-6.5-8.5-11.9-8.5-.8 0-1.7.1-2.5.2l-.3.1-.2-.2c-2.1-2.8-5.3-4.6-8.8-5h-.3l-.1-.3c-2.7-6.4-10.1-9.3-16.5-6.6-3.4 1.5-6 4.3-7 7.8l-.1.3h-.3c-5.2.4-9.8 3.1-12.7 7.4l-.2.3-.3-.1c-1-.2-1.9-.2-2.9-.2-9.3 0-16.9 7.6-16.9 16.9 0 9.3 7.6 16.9 16.9 16.9.3 0 .7 0 1.2-.1z"/>
      </g>
      <g id="Path_17111_2_">
        <path d="M811 587.4c-2.1-3.7-5.3-6.5-9.2-8.1 0-.4.1-.8.1-1.3 0-7.6-6.1-13.7-13.7-13.7-2.8 0-5.5.9-7.8 2.4-3.7-6.6-12.1-9-18.7-5.3-3.4 1.9-5.9 5.2-6.7 9.1-5.9 1.2-10.8 5.1-13.2 10.6-8.3 1-14.8 8.1-14.8 16.7 0 8.1 5.8 14.9 13.5 16.4.7.2 1.5.3 2.2.3h66.1c7.6 0 13.7-6.1 13.7-13.7.1-6.7-4.9-12.4-11.5-13.4z" class="st1"/>
        <path d="M808.8 615.1h-66.2c-.8 0-1.6-.1-2.4-.3-8-1.6-13.8-8.7-13.8-16.9 0-8.6 6.4-16 14.9-17.1 2.5-5.4 7.4-9.4 13.2-10.6.9-3.9 3.4-7.2 6.9-9.1 3.3-1.9 7.1-2.3 10.8-1.3 3.5 1 6.4 3.2 8.3 6.3 2.3-1.5 4.9-2.2 7.7-2.2 7.8 0 14.2 6.4 14.2 14.2v1c3.8 1.6 7 4.4 9 7.9 6.8 1.2 11.7 7.1 11.7 14 0 3.8-1.5 7.4-4.2 10.1-2.7 2.5-6.3 4-10.1 4zm-40.5-54.9c-2.2 0-4.5.6-6.5 1.7-3.3 1.9-5.7 5.1-6.5 8.8l-.1.3h-.2c-5.7 1.1-10.6 5-12.9 10.4l-.1.3h-.3c-8.2 1-14.4 7.9-14.4 16.2 0 7.7 5.5 14.5 13.1 16 .7.2 1.4.3 2.1.3h66.2c3.5 0 6.9-1.4 9.4-3.9s3.9-5.8 3.9-9.4c0-6.5-4.7-12-11.1-13.1h-.2l-.1-.2c-2-3.6-5.2-6.3-9-7.9l-.3-.1v-.4c0-.4.1-.8.1-1.2 0-3.5-1.4-6.9-3.9-9.4s-5.8-3.9-9.4-3.9c-2.7 0-5.3.8-7.5 2.4l-.4.3-.3-.5c-1.7-3.1-4.6-5.3-8-6.3-1.1-.2-2.4-.4-3.6-.4z"/>
      </g>
      <g id="Path_17112_2_">
        <path d="M684.1 587.3c-1-1.7-2.2-3.3-3.7-4.6 3.5-6.3 1.2-14.2-5.1-17.7-6.2-3.4-14-1.3-17.6 4.9-.6-.1-1.2-.1-1.8-.1-2.4-6.8-9.9-10.4-16.6-8-4.3 1.5-7.5 5.1-8.4 9.6-2.6.5-5.1 1.6-7.2 3.3-1.5-.4-3.1-.6-4.6-.6-10.8 0-19.6 8.8-19.6 19.6s8.8 19.6 19.6 19.6h63c7.2 0 13-5.8 13-13-.1-6.5-4.7-11.9-11-13z" class="st1"/>
        <path d="M682 613.7h-63c-11.1 0-20-9-20-20 0-11.1 9-20 20-20 1.5 0 3 .2 4.5.5 2-1.5 4.4-2.6 6.9-3.2 1.1-4.4 4.3-8.1 8.6-9.6 3.4-1.2 7.1-1 10.3.5 3.2 1.5 5.6 4.1 6.8 7.4.4 0 .8 0 1.2.1 3.8-6.2 11.6-8.3 18-4.8 3.2 1.7 5.5 4.6 6.5 8.1 1 3.3.6 6.9-1 9.9 1.4 1.2 2.5 2.7 3.4 4.3 6.4 1.2 11.1 6.7 11.1 13.3.2 7.5-5.9 13.5-13.3 13.5zm-63-.9h62.9c6.9 0 12.6-5.6 12.6-12.6 0-6.2-4.4-11.4-10.5-12.4h-.2l-.1-.2c-1-1.7-2.2-3.2-3.6-4.5l-.3-.3.2-.3c1.6-2.9 2-6.3 1.1-9.6-.9-3.2-3.1-5.9-6-7.5-6-3.3-13.4-1.3-16.9 4.7l-.2.3h-.3c-.6-.1-1.1-.1-1.7-.1h-.3l-.2-.3c-1.1-3.2-3.4-5.7-6.4-7.1s-6.4-1.6-9.6-.5c-4.1 1.4-7.2 5-8.1 9.2l-.1.3-.3.1c-2.5.5-5 1.6-7 3.2l-.2.1-.2-.1c-1.5-.4-3-.5-4.5-.5-10.5 0-19.1 8.6-19.1 19.1 0 10.5 8.6 19.1 19.1 19.1l-.1-.1z"/>
      </g>
    </g>
  </g>
</svg>