<svg xmlns="http://www.w3.org/2000/svg" xmlns:xlink="http://www.w3.org/1999/xlink" width="44.3" height="44.3" style="overflow:visible;enable-background:new 0 0 44.3 44.3" viewBox="0 0 44.3 44.3">
  <style>
    .st1{fill:#FFFFFF}.st4{clip-path:url(#SVGID_4_)}
  </style>
  <g id="Group_18244_1_" transform="translate(-2757.558 -1692.834)">
    <path id="Path_25952_1_" d="M2757.6 1715c0-12.2 9.9-22.2 22.2-22.1 12.2 0 22.2 9.9 22.1 22.2 0 12.2-9.9 22.1-22.2 22.1-12.2-.1-22.1-10-22.1-22.2" style="fill:#FF284D"/>
    <path id="Path_25953_1_" d="M2766.4 1706.1c0 1-.9 1.9-1.9 1.9-1 0-1.9-.9-1.9-1.9 0-1 .9-1.9 1.9-1.9 1.1 0 1.9.9 1.9 1.9m24.1-6.3c0 1-.9 1.9-1.9 1.9-1 0-1.9-.9-1.9-1.9 0-1 .9-1.9 1.9-1.9 1 0 1.9.8 1.9 1.9m-17.7 0c0 1-.9 1.9-1.9 1.9-1 0-1.9-.9-1.9-1.9 0-1 .8-1.9 1.9-1.9 1 0 1.9.8 1.9 1.9m8.8-2.5c0 1-.9 1.9-1.9 1.9-1 0-1.9-.9-1.9-1.9 0-1 .9-1.9 1.9-1.9 1.1 0 1.9.8 1.9 1.9 0-.1 0 0 0 0" class="st1"/>
    <path id="Path_25954_1_" d="M2796.8 1706.1c0 1-.9 1.9-1.9 1.9-1 0-1.9-.9-1.9-1.9 0-1 .9-1.9 1.9-1.9 1 0 1.9.9 1.9 1.9" style="fill:#FFE401"/>
    <path id="Path_25955_1_" d="M2763.9 1715c.1 1-.7 2-1.8 2-1 .1-2-.7-2-1.8v-.2-.1c.1-1 .9-1.9 2-1.8 1 .1 1.7.9 1.8 1.9" class="st1"/>
    <path id="Path_25956_1_" d="M2799.3 1715c0 1-.9 1.9-1.9 1.9-1 0-1.9-.9-1.9-1.9 0-1 .9-1.9 1.9-1.9 1.1 0 1.9.8 1.9 1.9" class="st1"/>
    <path id="Path_25957_1_" d="M2766.2 1715c0-7.5 6-13.5 13.5-13.5s13.5 6 13.5 13.5-6 13.5-13.5 13.5-13.5-6.1-13.5-13.5"/>
    <path id="Path_25958_1_" d="M2779.7 1703.9c6.1-.1 11.1 4.8 11.2 10.9.1 6.1-4.8 11.1-10.9 11.2-6.1.1-11.1-4.8-11.2-10.9v-.3c.1-6 4.9-10.8 10.9-10.9"/>
    <g id="Group_18243_1_">
      <defs>
        <path id="SVGID_1_" d="M2768.7 1715c0 6.1 5 11.1 11.1 11.1s11.1-5 11.1-11.1-5-11.1-11.1-11.1c-6.2 0-11.1 5-11.1 11.1"/>
      </defs>
      <clipPath id="SVGID_2_">
        <use style="overflow:visible" xlink:href="#SVGID_1_"/>
      </clipPath>
      <g id="Group_18242_1_" style="clip-path:url(#SVGID_2_)">
        <path id="Path_25959_1_" d="M2780.6 1715.9c-.5.5-1.3.5-1.8 0s-.5-1.3 0-1.8l6.5-6.4c.5-.5 1.4-.5 1.8.1.5.5.5 1.3 0 1.8l-6.5 6.3z" class="st1"/>
      </g>
    </g>
  </g>
</svg>