<?xml version="1.0" encoding="utf-8"?>
<!-- Generator: Adobe Illustrator 25.4.1, SVG Export Plug-In . SVG Version: 6.00 Build 0)  -->
<svg version="1.1" id="Layer_1" xmlns="http://www.w3.org/2000/svg" xmlns:xlink="http://www.w3.org/1999/xlink" x="0px" y="0px"
	 viewBox="0 0 164.2 32.5" style="enable-background:new 0 0 164.2 32.5;" xml:space="preserve">
<style type="text/css">
	.st0{fill:#1D1D1B;}
	.st1{fill:#001200;}
</style>
<g>
	<g>
		<path class="st0" d="M54.5,7.2V2.1h-1.6V1.4h4v0.7h-1.6v5.1H54.5z"/>
		<path class="st0" d="M60.4,7.2V4.5c0-0.6-0.1-1-0.7-1c-0.4,0-0.8,0.2-1.2,0.6v3h-0.7V1.4h0.7v2.1c0.5-0.5,0.9-0.6,1.4-0.6
			c0.5,0,0.8,0.1,1,0.4c0.2,0.2,0.2,0.6,0.2,1.1v2.7H60.4z"/>
		<path class="st0" d="M63.9,7.3c-1.1,0-1.8-0.8-1.8-2.2c0-1.3,0.7-2.2,1.8-2.2c1.1,0,1.7,0.8,1.7,2c0,0.1,0,0.1,0,0.2h-2.8
			c0,0.9,0.4,1.5,1.1,1.5c0.5,0,0.9-0.2,1.1-0.7l0.5,0.3C65.2,7,64.5,7.3,63.9,7.3z M62.8,4.7h2.1c0-0.7-0.4-1.2-1-1.2
			S62.9,4,62.8,4.7z"/>
		<path class="st0" d="M68.5,7.2V1.4H72v0.7h-2.7v1.8h1.9v0.7h-1.9v2h2.8v0.7H68.5z"/>
		<path class="st0" d="M75.5,7.2V6.6c-0.4,0.4-0.9,0.7-1.4,0.7c-0.4,0-0.8-0.2-0.9-0.4c-0.2-0.2-0.2-0.5-0.2-1V3h0.7v2.8
			c0,0.6,0.2,0.8,0.7,0.8c0.4,0,0.7-0.2,1.2-0.6V3h0.7v4.1H75.5z"/>
		<path class="st0" d="M77.4,7.2V3h0.6v0.8c0.4-0.6,0.8-0.9,1.3-0.9c0,0,0.1,0,0.1,0v0.7c-0.1,0-0.1,0-0.2,0c-0.6,0-1,0.4-1.2,1v2.6
			H77.4z"/>
		<path class="st0" d="M80,5.1c0-1.4,0.7-2.2,1.8-2.2s1.8,0.8,1.8,2.2c0,1.3-0.7,2.2-1.8,2.2S80,6.4,80,5.1z M82.9,5.1
			c0-1-0.3-1.6-1.1-1.6s-1.1,0.7-1.1,1.6s0.4,1.6,1.1,1.6S82.9,6.1,82.9,5.1z"/>
		<path class="st0" d="M84.6,8.5V3h0.6v0.6c0.4-0.4,0.7-0.7,1.3-0.7c1,0,1.6,0.8,1.6,2.1c0,1.3-0.6,2.2-1.7,2.2
			c-0.5,0-0.8-0.2-1.2-0.5v1.8H84.6z M85.3,6c0.3,0.4,0.7,0.6,1.1,0.6c0.7,0,1.1-0.6,1.1-1.6c0-1-0.4-1.5-1.1-1.5
			c-0.3,0-0.8,0.2-1.1,0.7V6z"/>
		<path class="st0" d="M90.7,7.3c-1.1,0-1.8-0.8-1.8-2.2c0-1.3,0.7-2.2,1.8-2.2c1.1,0,1.7,0.8,1.7,2c0,0.1,0,0.1,0,0.2h-2.8
			c0,0.9,0.4,1.5,1.1,1.5c0.5,0,0.9-0.2,1.1-0.7l0.5,0.3C92,7,91.4,7.3,90.7,7.3z M89.6,4.7h2.1c0-0.7-0.4-1.2-1-1.2
			S89.7,4,89.6,4.7z"/>
		<path class="st0" d="M95.8,7.2l-0.1-0.5c-0.4,0.4-0.9,0.6-1.4,0.6c-0.7,0-1.2-0.4-1.2-1.1c0-0.5,0.2-0.9,0.7-1.1
			c0.4-0.2,1.1-0.4,1.9-0.6c0.1-0.7-0.2-1-0.8-1c-0.5,0-0.8,0.2-1.1,0.6l-0.5-0.3c0.4-0.6,0.9-0.9,1.6-0.9c1,0,1.5,0.4,1.5,1.4v2.2
			l0.1,0.6H95.8z M95.8,4.9c-0.8,0.2-1.2,0.3-1.5,0.4c-0.2,0.1-0.4,0.4-0.4,0.7c0,0.4,0.2,0.6,0.6,0.6c0.4,0,0.9-0.2,1.2-0.6V4.9z"
			/>
		<path class="st0" d="M100.2,7.2V4.3c0-0.6-0.2-0.8-0.7-0.8c-0.4,0-0.7,0.2-1.2,0.6v3h-0.7V3h0.6v0.6c0.5-0.5,0.9-0.7,1.4-0.7
			c0.4,0,0.8,0.1,0.9,0.4c0.2,0.2,0.2,0.5,0.2,1v2.8H100.2z"/>
		<path class="st0" d="M107.3,7.2l-0.5-1.7h-2.1l-0.5,1.7h-0.8l1.8-5.7h1.1l1.8,5.7H107.3z M105,4.8h1.7l-0.8-2.7h0L105,4.8z"/>
		<path class="st0" d="M112.4,7.2l-1.2-2.5h-1.3v2.5h-0.8V1.4h1.8c1.5,0,2.1,0.6,2.1,1.6c0,0.8-0.4,1.3-1.1,1.5l1.4,2.7H112.4z
			 M110.9,4c0.5,0,1.4-0.1,1.4-1c0-0.9-0.7-1-1.3-1h-1.1V4H110.9z"/>
		<path class="st0" d="M115.5,7.2V2.1h-1.6V1.4h4v0.7h-1.6v5.1H115.5z"/>
		<path class="st0" d="M118.8,2.2V1.4h0.8v0.8H118.8z M118.8,7.2V3h0.7v4.1H118.8z"/>
		<path class="st0" d="M121.1,7.2V3.6h-0.7V3h0.7V2.5c0-0.8,0.3-1.2,1.1-1.2c0.1,0,0.3,0,0.4,0v0.6c-0.1,0-0.2,0-0.3,0
			c-0.4,0-0.6,0.1-0.6,0.6V3h0.9v0.6h-0.9v3.6H121.1z M123.3,2.2V1.4h0.8v0.8H123.3z M123.3,7.2V3h0.7v4.1H123.3z"/>
		<path class="st0" d="M128.5,6.2c-0.4,0.7-0.9,1.1-1.7,1.1c-1.1,0-1.8-0.8-1.8-2.2c0-1.4,0.7-2.2,1.8-2.2c0.8,0,1.3,0.3,1.6,1.1
			l-0.6,0.2c-0.2-0.5-0.5-0.8-1-0.8c-0.7,0-1.2,0.6-1.2,1.6c0,1,0.4,1.6,1.2,1.6c0.5,0,0.8-0.2,1.1-0.8L128.5,6.2z"/>
		<path class="st0" d="M129.4,2.2V1.4h0.8v0.8H129.4z M129.5,7.2V3h0.7v4.1H129.5z"/>
		<path class="st0" d="M133.8,7.2l-0.1-0.5c-0.4,0.4-0.9,0.6-1.4,0.6c-0.7,0-1.2-0.4-1.2-1.1c0-0.5,0.2-0.9,0.7-1.1
			c0.4-0.2,1.1-0.4,1.9-0.6c0.1-0.7-0.2-1-0.8-1c-0.5,0-0.8,0.2-1.1,0.6l-0.5-0.3c0.4-0.6,0.9-0.9,1.6-0.9c1,0,1.5,0.4,1.5,1.4v2.2
			l0.1,0.6H133.8z M133.7,4.9c-0.8,0.2-1.2,0.3-1.5,0.4c-0.2,0.1-0.4,0.4-0.4,0.7c0,0.4,0.2,0.6,0.6,0.6c0.4,0,0.9-0.2,1.2-0.6V4.9z
			"/>
		<path class="st0" d="M135.6,7.2V1.4h0.7v5.7H135.6z"/>
		<path class="st0" d="M53.4,15.2V9.4h0.8v5.7H53.4z"/>
		<path class="st0" d="M58.1,15.2v-2.8c0-0.6-0.2-0.8-0.7-0.8c-0.4,0-0.7,0.2-1.2,0.6v3h-0.7V11h0.6v0.6c0.5-0.5,0.9-0.7,1.4-0.7
			c0.4,0,0.8,0.1,0.9,0.4c0.2,0.2,0.2,0.5,0.2,1v2.8H58.1z"/>
		<path class="st0" d="M61.8,15.2c-0.2,0-0.4,0.1-0.6,0.1c-0.7,0-0.9-0.3-0.9-1.1v-2.6h-0.6V11h0.6V9.7h0.7V11h0.9v0.6h-0.9v2.5
			c0,0.4,0.1,0.5,0.4,0.5c0.2,0,0.3,0,0.5-0.1V15.2z"/>
		<path class="st0" d="M64.1,15.3c-1.1,0-1.8-0.8-1.8-2.2c0-1.3,0.7-2.2,1.8-2.2c1.1,0,1.7,0.8,1.7,2c0,0.1,0,0.1,0,0.2h-2.8
			c0,0.9,0.4,1.5,1.1,1.5c0.5,0,0.9-0.2,1.1-0.7l0.5,0.3C65.4,15,64.8,15.3,64.1,15.3z M63.1,12.7h2.1c0-0.7-0.4-1.2-1-1.2
			S63.2,12,63.1,12.7z"/>
		<path class="st0" d="M66.9,15.2V9.4h0.7v5.7H66.9z"/>
		<path class="st0" d="M68.8,15.2V9.4h0.7v5.7H68.8z"/>
		<path class="st0" d="M70.8,10.2V9.4h0.8v0.8H70.8z M70.8,15.2V11h0.7v4.1H70.8z"/>
		<path class="st0" d="M74.1,13.8c-0.2,0-0.5,0-0.7-0.1c-0.2,0.1-0.3,0.2-0.3,0.3c0,0.7,3-0.2,3,1.4c0,0.9-0.9,1.2-2,1.2
			c-1.1,0-1.8-0.3-1.8-1c0-0.4,0.2-0.7,0.7-0.8v0c-0.3-0.1-0.5-0.3-0.5-0.6s0.2-0.5,0.6-0.8c-0.3-0.2-0.5-0.6-0.5-1.1
			c0-0.8,0.6-1.4,1.6-1.4c0.4,0,0.8,0.1,1.1,0.3c0.2-0.2,0.5-0.4,0.9-0.4v0.6c-0.2,0-0.4,0-0.6,0.1c0.1,0.2,0.2,0.5,0.2,0.7
			C75.7,13.2,75.1,13.8,74.1,13.8z M73.9,14.9C73.4,15,73,15.2,73,15.5c0,0.4,0.5,0.6,1.2,0.6c0.7,0,1.3-0.2,1.3-0.6
			C75.5,15,74.9,14.9,73.9,14.9z M74.1,11.4c-0.6,0-1,0.4-1,0.9c0,0.6,0.4,0.9,1,0.9s1-0.3,1-0.9C75.1,11.8,74.7,11.4,74.1,11.4z"/>
		<path class="st0" d="M78.4,15.3c-1.1,0-1.8-0.8-1.8-2.2c0-1.3,0.7-2.2,1.8-2.2c1.1,0,1.7,0.8,1.7,2c0,0.1,0,0.1,0,0.2h-2.8
			c0,0.9,0.4,1.5,1.1,1.5c0.5,0,0.9-0.2,1.1-0.7l0.5,0.3C79.7,15,79.1,15.3,78.4,15.3z M77.3,12.7h2.1c0-0.7-0.4-1.2-1-1.2
			S77.4,12,77.3,12.7z"/>
		<path class="st0" d="M83.7,15.2v-2.8c0-0.6-0.2-0.8-0.7-0.8c-0.4,0-0.7,0.2-1.2,0.6v3h-0.7V11h0.6v0.6c0.5-0.5,0.9-0.7,1.4-0.7
			c0.4,0,0.8,0.1,0.9,0.4c0.2,0.2,0.2,0.5,0.2,1v2.8H83.7z"/>
		<path class="st0" d="M88.9,14.2c-0.4,0.7-0.9,1.1-1.7,1.1c-1.1,0-1.8-0.8-1.8-2.2c0-1.4,0.7-2.2,1.8-2.2c0.8,0,1.3,0.3,1.6,1.1
			l-0.6,0.2c-0.2-0.5-0.5-0.8-1-0.8c-0.7,0-1.2,0.6-1.2,1.6c0,1,0.4,1.6,1.2,1.6c0.5,0,0.8-0.2,1.1-0.8L88.9,14.2z"/>
		<path class="st0" d="M91.3,15.3c-1.1,0-1.8-0.8-1.8-2.2c0-1.3,0.7-2.2,1.8-2.2c1.1,0,1.7,0.8,1.7,2c0,0.1,0,0.1,0,0.2h-2.8
			c0,0.9,0.4,1.5,1.1,1.5c0.5,0,0.9-0.2,1.1-0.7l0.5,0.3C92.6,15,92,15.3,91.3,15.3z M90.3,12.7h2.1c0-0.7-0.4-1.2-1-1.2
			S90.3,12,90.3,12.7z"/>
		<path class="st0" d="M96,15.2V9.4h0.8v5.1h2.5v0.7H96z"/>
		<path class="st0" d="M102.6,15.2l-0.1-0.5c-0.4,0.4-0.9,0.6-1.4,0.6c-0.7,0-1.2-0.4-1.2-1.1c0-0.5,0.2-0.9,0.7-1.1
			c0.4-0.2,1.1-0.4,1.9-0.6c0.1-0.7-0.2-1-0.8-1c-0.5,0-0.8,0.2-1.1,0.6l-0.5-0.3c0.4-0.6,0.9-0.9,1.6-0.9c1,0,1.5,0.4,1.5,1.4v2.2
			l0.1,0.6H102.6z M102.5,12.9c-0.8,0.2-1.2,0.3-1.5,0.4c-0.2,0.1-0.4,0.4-0.4,0.7c0,0.4,0.2,0.6,0.6,0.6c0.4,0,0.9-0.2,1.2-0.6
			V12.9z"/>
		<path class="st0" d="M104.4,15.2V9.4h0.7v2.1c0.4-0.4,0.7-0.6,1.2-0.6c1,0,1.7,0.8,1.7,2.2c0,1.3-0.6,2.1-1.6,2.1
			c-0.6,0-0.9-0.2-1.3-0.6l-0.1,0.5H104.4z M105.1,14c0.2,0.4,0.7,0.6,1.1,0.6c0.7,0,1.1-0.6,1.1-1.6c0-1-0.4-1.6-1.1-1.6
			c-0.4,0-0.8,0.2-1.1,0.6V14z"/>
		<path class="st0" d="M110.7,10.2V9.4h0.8v0.8H110.7z M110.8,15.2V11h0.7v4.1H110.8z"/>
		<path class="st0" d="M114.8,12c-0.3-0.4-0.6-0.5-1-0.5c-0.4,0-0.7,0.2-0.7,0.6c0,0.9,2.3,0.3,2.3,2c0,0.8-0.6,1.2-1.5,1.2
			c-0.7,0-1.2-0.3-1.6-0.8l0.5-0.4c0.3,0.5,0.6,0.6,1.1,0.6c0.5,0,0.8-0.2,0.8-0.6c0-1.1-2.3-0.4-2.3-2c0-0.7,0.6-1.2,1.4-1.2
			c0.7,0,1.1,0.2,1.4,0.8L114.8,12z"/>
		<path class="st0" d="M121.4,14.2c-0.4,0.7-0.9,1.1-1.7,1.1c-1.1,0-1.8-0.8-1.8-2.2c0-1.4,0.7-2.2,1.8-2.2c0.8,0,1.3,0.3,1.6,1.1
			l-0.6,0.2c-0.2-0.5-0.5-0.8-1-0.8c-0.7,0-1.2,0.6-1.2,1.6c0,1,0.4,1.6,1.2,1.6c0.5,0,0.8-0.2,1.1-0.8L121.4,14.2z"/>
		<path class="st0" d="M122.1,13.1c0-1.4,0.7-2.2,1.8-2.2s1.8,0.8,1.8,2.2c0,1.3-0.7,2.2-1.8,2.2S122.1,14.4,122.1,13.1z
			 M124.9,13.1c0-1-0.3-1.6-1.1-1.6s-1.1,0.7-1.1,1.6s0.4,1.6,1.1,1.6S124.9,14.1,124.9,13.1z"/>
		<path class="st0" d="M126.5,13.4v-0.7h2v0.7H126.5z"/>
		<path class="st0" d="M129.8,15.2v-3.6h-0.7V11h0.7v-0.5c0-0.8,0.3-1.2,1.1-1.2c0.1,0,0.3,0,0.4,0v0.6c-0.1,0-0.2,0-0.3,0
			c-0.4,0-0.6,0.1-0.6,0.6V11h0.9v0.6h-0.9v3.6H129.8z"/>
		<path class="st0" d="M134.7,15.2v-0.6c-0.4,0.4-0.9,0.7-1.4,0.7c-0.4,0-0.8-0.2-0.9-0.4c-0.2-0.2-0.2-0.5-0.2-1V11h0.7v2.8
			c0,0.6,0.2,0.8,0.7,0.8c0.4,0,0.7-0.2,1.2-0.6v-3h0.7v4.1H134.7z"/>
		<path class="st0" d="M139.1,15.2v-2.8c0-0.6-0.2-0.8-0.7-0.8c-0.4,0-0.7,0.2-1.2,0.6v3h-0.7V11h0.6v0.6c0.5-0.5,0.9-0.7,1.4-0.7
			c0.4,0,0.8,0.1,0.9,0.4c0.2,0.2,0.2,0.5,0.2,1v2.8H139.1z"/>
		<path class="st0" d="M143.9,15.2l-0.1-0.5c-0.4,0.4-0.8,0.6-1.3,0.6c-1,0-1.6-0.9-1.6-2.1c0-1.3,0.7-2.2,1.7-2.2
			c0.5,0,0.8,0.2,1.2,0.5V9.4h0.7v5.7H143.9z M143.7,12.2c-0.3-0.4-0.7-0.6-1.1-0.6c-0.7,0-1.1,0.6-1.1,1.6c0,1,0.4,1.5,1.1,1.5
			c0.4,0,0.8-0.2,1.1-0.6V12.2z"/>
		<path class="st0" d="M147.2,15.3c-1.1,0-1.8-0.8-1.8-2.2c0-1.3,0.7-2.2,1.8-2.2c1.1,0,1.7,0.8,1.7,2c0,0.1,0,0.1,0,0.2h-2.8
			c0,0.9,0.4,1.5,1.1,1.5c0.5,0,0.9-0.2,1.1-0.7l0.5,0.3C148.5,15,147.9,15.3,147.2,15.3z M146.1,12.7h2.1c0-0.7-0.4-1.2-1-1.2
			S146.2,12,146.1,12.7z"/>
		<path class="st0" d="M152.7,15.2l-0.1-0.5c-0.4,0.4-0.8,0.6-1.3,0.6c-1,0-1.6-0.9-1.6-2.1c0-1.3,0.7-2.2,1.7-2.2
			c0.5,0,0.8,0.2,1.2,0.5V9.4h0.7v5.7H152.7z M152.6,12.2c-0.3-0.4-0.7-0.6-1.1-0.6c-0.7,0-1.1,0.6-1.1,1.6c0,1,0.4,1.5,1.1,1.5
			c0.4,0,0.8-0.2,1.1-0.6V12.2z"/>
		<path class="st0" d="M156.3,15.2V9.4h0.7v2.1c0.4-0.4,0.7-0.6,1.2-0.6c1,0,1.7,0.8,1.7,2.2c0,1.3-0.6,2.1-1.6,2.1
			c-0.6,0-0.9-0.2-1.3-0.6l-0.1,0.5H156.3z M157,14c0.2,0.4,0.7,0.6,1.1,0.6c0.7,0,1.1-0.6,1.1-1.6c0-1-0.4-1.6-1.1-1.6
			c-0.4,0-0.8,0.2-1.1,0.6V14z"/>
		<path class="st0" d="M161,16.6c-0.2,0-0.4,0-0.6,0V16c0.2,0,0.3,0,0.5,0c0.4,0,0.6-0.2,0.8-0.8l0.1-0.2l-1.5-4.1h0.8l1,3.1h0
			l1-3.1h0.7l-1.4,4C162.1,16.3,161.8,16.6,161,16.6z"/>
		<path class="st0" d="M55,23.2c-0.2,0-0.4,0.1-0.6,0.1c-0.7,0-0.9-0.3-0.9-1.1v-2.6h-0.6V19h0.6v-1.4h0.7V19H55v0.6h-0.9v2.5
			c0,0.4,0.1,0.5,0.4,0.5c0.2,0,0.3,0,0.5-0.1V23.2z"/>
		<path class="st0" d="M58.5,23.2v-2.7c0-0.6-0.1-1-0.7-1c-0.4,0-0.8,0.2-1.2,0.6v3h-0.7v-5.7h0.7v2.1c0.5-0.5,0.9-0.6,1.4-0.6
			c0.5,0,0.8,0.1,1,0.4c0.2,0.2,0.2,0.6,0.2,1.1v2.7H58.5z"/>
		<path class="st0" d="M61.9,23.3c-1.1,0-1.8-0.8-1.8-2.2c0-1.3,0.7-2.2,1.8-2.2c1.1,0,1.7,0.8,1.7,2c0,0.1,0,0.1,0,0.2h-2.8
			c0,0.9,0.4,1.5,1.1,1.5c0.5,0,0.9-0.2,1.1-0.7l0.5,0.3C63.3,23,62.6,23.3,61.9,23.3z M60.9,20.7H63c0-0.7-0.4-1.2-1-1.2
			S61,20,60.9,20.7z"/>
		<path class="st0" d="M70.6,21.5c-0.4,1.3-1.1,1.8-2.1,1.8c-1.5,0-2.2-1.1-2.2-3c0-1.9,0.9-2.9,2.3-2.9c1.1,0,1.7,0.5,2,1.7
			l-0.7,0.1c-0.2-0.8-0.7-1.2-1.3-1.2c-0.9,0-1.5,0.8-1.5,2.3c0,1.5,0.5,2.3,1.5,2.3c0.7,0,1.2-0.4,1.4-1.2L70.6,21.5z"/>
		<path class="st0" d="M71.5,23.2V19h0.6v0.8c0.4-0.6,0.8-0.9,1.3-0.9c0,0,0.1,0,0.1,0v0.7c-0.1,0-0.1,0-0.2,0c-0.6,0-1,0.4-1.2,1
			v2.6H71.5z"/>
		<path class="st0" d="M75.9,23.3c-1.1,0-1.8-0.8-1.8-2.2c0-1.3,0.7-2.2,1.8-2.2c1.1,0,1.7,0.8,1.7,2c0,0.1,0,0.1,0,0.2h-2.8
			c0,0.9,0.4,1.5,1.1,1.5c0.5,0,0.9-0.2,1.1-0.7l0.5,0.3C77.2,23,76.5,23.3,75.9,23.3z M74.8,20.7h2.1c0-0.7-0.4-1.2-1-1.2
			S74.9,20,74.8,20.7z"/>
		<path class="st0" d="M81,23.2L81,22.7c-0.4,0.4-0.9,0.6-1.4,0.6c-0.7,0-1.2-0.4-1.2-1.1c0-0.5,0.2-0.9,0.7-1.1
			c0.4-0.2,1.1-0.4,1.9-0.6c0.1-0.7-0.2-1-0.8-1c-0.5,0-0.8,0.2-1.1,0.6l-0.5-0.3c0.4-0.6,0.9-0.9,1.6-0.9c1,0,1.5,0.4,1.5,1.4v2.2
			l0.1,0.6H81z M80.9,20.9c-0.8,0.2-1.2,0.3-1.5,0.4c-0.2,0.1-0.4,0.4-0.4,0.7c0,0.4,0.2,0.6,0.6,0.6c0.4,0,0.9-0.2,1.2-0.6V20.9z"
			/>
		<path class="st0" d="M84.6,23.2c-0.2,0-0.4,0.1-0.6,0.1c-0.7,0-0.9-0.3-0.9-1.1v-2.6h-0.6V19H83v-1.4h0.7V19h0.9v0.6h-0.9v2.5
			c0,0.4,0.1,0.5,0.4,0.5c0.2,0,0.3,0,0.5-0.1V23.2z"/>
		<path class="st0" d="M85.5,18.2v-0.8h0.8v0.8H85.5z M85.5,23.2V19h0.7v4.1H85.5z"/>
		<path class="st0" d="M88.4,23.2L87,19h0.7l1,3.2h0l1.1-3.2h0.7l-1.4,4.1H88.4z"/>
		<path class="st0" d="M92.7,23.3c-1.1,0-1.8-0.8-1.8-2.2c0-1.3,0.7-2.2,1.8-2.2c1.1,0,1.7,0.8,1.7,2c0,0.1,0,0.1,0,0.2h-2.8
			c0,0.9,0.4,1.5,1.1,1.5c0.5,0,0.9-0.2,1.1-0.7l0.5,0.3C94,23,93.4,23.3,92.7,23.3z M91.7,20.7h2.1c0-0.7-0.4-1.2-1-1.2
			S91.7,20,91.7,20.7z"/>
		<path class="st0" d="M97.4,23.2v-5.7h3.5v0.7h-2.7v1.8h1.9v0.7h-1.9v2h2.8v0.7H97.4z"/>
		<path class="st0" d="M104.4,23.2v-0.6c-0.4,0.4-0.9,0.7-1.4,0.7c-0.4,0-0.8-0.2-0.9-0.4c-0.2-0.2-0.2-0.5-0.2-1V19h0.7v2.8
			c0,0.6,0.2,0.8,0.7,0.8c0.4,0,0.7-0.2,1.2-0.6v-3h0.7v4.1H104.4z"/>
		<path class="st0" d="M106.3,23.2V19h0.6v0.8c0.4-0.6,0.8-0.9,1.3-0.9c0,0,0.1,0,0.1,0v0.7c-0.1,0-0.1,0-0.2,0c-0.6,0-1,0.4-1.2,1
			v2.6H106.3z"/>
		<path class="st0" d="M108.9,21.1c0-1.4,0.7-2.2,1.8-2.2s1.8,0.8,1.8,2.2c0,1.3-0.7,2.2-1.8,2.2S108.9,22.4,108.9,21.1z
			 M111.7,21.1c0-1-0.3-1.6-1.1-1.6s-1.1,0.7-1.1,1.6s0.4,1.6,1.1,1.6S111.7,22.1,111.7,21.1z"/>
		<path class="st0" d="M113.4,24.5V19h0.6v0.6c0.4-0.4,0.7-0.7,1.3-0.7c1,0,1.6,0.8,1.6,2.1c0,1.3-0.6,2.2-1.7,2.2
			c-0.5,0-0.8-0.2-1.2-0.5v1.8H113.4z M114.1,22c0.3,0.4,0.7,0.6,1.1,0.6c0.7,0,1.1-0.6,1.1-1.6c0-1-0.4-1.5-1.1-1.5
			c-0.3,0-0.8,0.2-1.1,0.7V22z"/>
		<path class="st0" d="M119.5,23.3c-1.1,0-1.8-0.8-1.8-2.2c0-1.3,0.7-2.2,1.8-2.2c1.1,0,1.7,0.8,1.7,2c0,0.1,0,0.1,0,0.2h-2.8
			c0,0.9,0.4,1.5,1.1,1.5c0.5,0,0.9-0.2,1.1-0.7l0.5,0.3C120.8,23,120.2,23.3,119.5,23.3z M118.5,20.7h2.1c0-0.7-0.4-1.2-1-1.2
			S118.6,20,118.5,20.7z"/>
		<path class="st0" d="M124.2,23.2v-5.7h1.8c1.4,0,2.1,0.5,2.1,1.7c0,1.2-0.7,1.7-2.2,1.7h-0.9v2.4H124.2z M125.9,20.1
			c0.6,0,1.4-0.1,1.4-1c0-0.7-0.4-1-1.3-1h-1.1v2H125.9z"/>
		<path class="st0" d="M129,23.2V19h0.6v0.8c0.4-0.6,0.8-0.9,1.3-0.9c0,0,0.1,0,0.1,0v0.7c-0.1,0-0.1,0-0.2,0c-0.6,0-1,0.4-1.2,1
			v2.6H129z"/>
		<path class="st0" d="M131.6,21.1c0-1.4,0.7-2.2,1.8-2.2s1.8,0.8,1.8,2.2c0,1.3-0.7,2.2-1.8,2.2S131.6,22.4,131.6,21.1z
			 M134.5,21.1c0-1-0.3-1.6-1.1-1.6s-1.1,0.7-1.1,1.6s0.4,1.6,1.1,1.6S134.5,22.1,134.5,21.1z"/>
		<path class="st0" d="M137.6,21.8c-0.2,0-0.5,0-0.7-0.1c-0.2,0.1-0.3,0.2-0.3,0.3c0,0.7,3-0.2,3,1.4c0,0.9-0.9,1.2-2,1.2
			c-1.1,0-1.8-0.3-1.8-1c0-0.4,0.2-0.7,0.7-0.8v0c-0.3-0.1-0.5-0.3-0.5-0.6s0.2-0.5,0.6-0.8c-0.3-0.2-0.5-0.6-0.5-1.1
			c0-0.8,0.6-1.4,1.6-1.4c0.4,0,0.8,0.1,1.1,0.3c0.2-0.2,0.5-0.4,0.9-0.4v0.6c-0.2,0-0.4,0-0.6,0.1c0.1,0.2,0.2,0.5,0.2,0.7
			C139.1,21.2,138.5,21.8,137.6,21.8z M137.3,22.9c-0.5,0.1-0.9,0.3-0.9,0.6c0,0.4,0.5,0.6,1.2,0.6c0.7,0,1.3-0.2,1.3-0.6
			C138.9,23,138.3,22.9,137.3,22.9z M137.6,19.4c-0.6,0-1,0.4-1,0.9c0,0.6,0.4,0.9,1,0.9s1-0.3,1-0.9
			C138.5,19.8,138.2,19.4,137.6,19.4z"/>
		<path class="st0" d="M140.4,23.2V19h0.6v0.8c0.4-0.6,0.8-0.9,1.3-0.9c0,0,0.1,0,0.1,0v0.7c-0.1,0-0.1,0-0.2,0c-0.6,0-1,0.4-1.2,1
			v2.6H140.4z"/>
		<path class="st0" d="M145.7,23.2l-0.1-0.5c-0.4,0.4-0.9,0.6-1.4,0.6c-0.7,0-1.2-0.4-1.2-1.1c0-0.5,0.2-0.9,0.7-1.1
			c0.4-0.2,1.1-0.4,1.9-0.6c0.1-0.7-0.2-1-0.8-1c-0.5,0-0.8,0.2-1.1,0.6l-0.5-0.3c0.4-0.6,0.9-0.9,1.6-0.9c1,0,1.5,0.4,1.5,1.4v2.2
			l0.1,0.6H145.7z M145.6,20.9c-0.8,0.2-1.2,0.3-1.5,0.4c-0.2,0.1-0.4,0.4-0.4,0.7c0,0.4,0.2,0.6,0.6,0.6c0.4,0,0.9-0.2,1.2-0.6
			V20.9z"/>
		<path class="st0" d="M152.3,23.2v-2.9c0-0.6-0.3-0.7-0.6-0.7c-0.4,0-0.7,0.2-1.1,0.6v3h-0.7v-2.8c0-0.5-0.2-0.8-0.6-0.8
			c-0.4,0-0.8,0.2-1.1,0.6v3h-0.7V19h0.6v0.6c0.4-0.4,0.9-0.7,1.3-0.7c0.6,0,0.9,0.2,1,0.7c0.5-0.5,0.8-0.7,1.4-0.7
			c0.8,0,1.1,0.4,1.1,1.3v2.9H152.3z"/>
		<path class="st0" d="M159,23.2v-2.9c0-0.6-0.3-0.7-0.6-0.7c-0.4,0-0.7,0.2-1.1,0.6v3h-0.7v-2.8c0-0.5-0.2-0.8-0.6-0.8
			c-0.4,0-0.8,0.2-1.1,0.6v3h-0.7V19h0.6v0.6c0.4-0.4,0.9-0.7,1.3-0.7c0.6,0,0.9,0.2,1,0.7c0.5-0.5,0.8-0.7,1.4-0.7
			c0.8,0,1.1,0.4,1.1,1.3v2.9H159z"/>
		<path class="st0" d="M162.5,23.3c-1.1,0-1.8-0.8-1.8-2.2c0-1.3,0.7-2.2,1.8-2.2c1.1,0,1.7,0.8,1.7,2c0,0.1,0,0.1,0,0.2h-2.8
			c0,0.9,0.4,1.5,1.1,1.5c0.5,0,0.9-0.2,1.1-0.7l0.5,0.3C163.8,23,163.2,23.3,162.5,23.3z M161.4,20.7h2.1c0-0.7-0.4-1.2-1-1.2
			S161.5,20,161.4,20.7z"/>
		<path class="st0" d="M53,29.1c0-1.4,0.7-2.2,1.8-2.2s1.8,0.8,1.8,2.2c0,1.3-0.7,2.2-1.8,2.2S53,30.4,53,29.1z M55.9,29.1
			c0-1-0.3-1.6-1.1-1.6s-1.1,0.7-1.1,1.6s0.4,1.6,1.1,1.6S55.9,30.1,55.9,29.1z"/>
		<path class="st0" d="M57.8,31.2v-3.6h-0.7V27h0.7v-0.5c0-0.8,0.3-1.2,1.1-1.2c0.1,0,0.3,0,0.4,0v0.6c-0.1,0-0.2,0-0.3,0
			c-0.4,0-0.6,0.1-0.6,0.6V27h0.9v0.6h-0.9v3.6H57.8z"/>
		<path class="st0" d="M63.5,31.2c-0.2,0-0.4,0.1-0.6,0.1c-0.7,0-0.9-0.3-0.9-1.1v-2.6h-0.6V27H62v-1.4h0.7V27h0.9v0.6h-0.9v2.5
			c0,0.4,0.1,0.5,0.4,0.5c0.2,0,0.3,0,0.5-0.1V31.2z"/>
		<path class="st0" d="M67,31.2v-2.7c0-0.6-0.1-1-0.7-1c-0.4,0-0.8,0.2-1.2,0.6v3h-0.7v-5.7h0.7v2.1c0.5-0.5,0.9-0.6,1.4-0.6
			c0.5,0,0.8,0.1,1,0.4c0.2,0.2,0.2,0.6,0.2,1.1v2.7H67z"/>
		<path class="st0" d="M70.5,31.3c-1.1,0-1.8-0.8-1.8-2.2c0-1.3,0.7-2.2,1.8-2.2c1.1,0,1.7,0.8,1.7,2c0,0.1,0,0.1,0,0.2h-2.8
			c0,0.9,0.4,1.5,1.1,1.5c0.5,0,0.9-0.2,1.1-0.7l0.5,0.3C71.8,31,71.2,31.3,70.5,31.3z M69.4,28.7h2.1c0-0.7-0.4-1.2-1-1.2
			S69.5,28,69.4,28.7z"/>
		<path class="st0" d="M75.1,31.2v-5.7h3.5v0.7h-2.7v1.8h1.9v0.7h-1.9v2h2.8v0.7H75.1z"/>
		<path class="st0" d="M82.1,31.2v-0.6c-0.4,0.4-0.9,0.7-1.4,0.7c-0.4,0-0.8-0.2-0.9-0.4c-0.2-0.2-0.2-0.5-0.2-1V27h0.7v2.8
			c0,0.6,0.2,0.8,0.7,0.8c0.4,0,0.7-0.2,1.2-0.6v-3h0.7v4.1H82.1z"/>
		<path class="st0" d="M84,31.2V27h0.6v0.8c0.4-0.6,0.8-0.9,1.3-0.9c0,0,0.1,0,0.1,0v0.7c-0.1,0-0.1,0-0.2,0c-0.6,0-1,0.4-1.2,1v2.6
			H84z"/>
		<path class="st0" d="M86.6,29.1c0-1.4,0.7-2.2,1.8-2.2s1.8,0.8,1.8,2.2c0,1.3-0.7,2.2-1.8,2.2S86.6,30.4,86.6,29.1z M89.5,29.1
			c0-1-0.3-1.6-1.1-1.6s-1.1,0.7-1.1,1.6s0.4,1.6,1.1,1.6S89.5,30.1,89.5,29.1z"/>
		<path class="st0" d="M91.2,32.5V27h0.6v0.6c0.4-0.4,0.7-0.7,1.3-0.7c1,0,1.6,0.8,1.6,2.1c0,1.3-0.6,2.2-1.7,2.2
			c-0.5,0-0.8-0.2-1.2-0.5v1.8H91.2z M91.9,30c0.3,0.4,0.7,0.6,1.1,0.6c0.7,0,1.1-0.6,1.1-1.6c0-1-0.4-1.5-1.1-1.5
			c-0.3,0-0.8,0.2-1.1,0.7V30z"/>
		<path class="st0" d="M97.3,31.3c-1.1,0-1.8-0.8-1.8-2.2c0-1.3,0.7-2.2,1.8-2.2c1.1,0,1.7,0.8,1.7,2c0,0.1,0,0.1,0,0.2h-2.8
			c0,0.9,0.4,1.5,1.1,1.5c0.5,0,0.9-0.2,1.1-0.7l0.5,0.3C98.6,31,98,31.3,97.3,31.3z M96.2,28.7h2.1c0-0.7-0.4-1.2-1-1.2
			S96.3,28,96.2,28.7z"/>
		<path class="st0" d="M102.4,31.2l-0.1-0.5c-0.4,0.4-0.9,0.6-1.4,0.6c-0.7,0-1.2-0.4-1.2-1.1c0-0.5,0.2-0.9,0.7-1.1
			c0.4-0.2,1.1-0.4,1.9-0.6c0.1-0.7-0.2-1-0.8-1c-0.5,0-0.8,0.2-1.1,0.6l-0.5-0.3c0.4-0.6,0.9-0.9,1.6-0.9c1,0,1.5,0.4,1.5,1.4v2.2
			l0.1,0.6H102.4z M102.4,28.9c-0.8,0.2-1.2,0.3-1.5,0.4c-0.2,0.1-0.4,0.4-0.4,0.7c0,0.4,0.2,0.6,0.6,0.6c0.4,0,0.9-0.2,1.2-0.6
			V28.9z"/>
		<path class="st0" d="M106.8,31.2v-2.8c0-0.6-0.2-0.8-0.7-0.8c-0.4,0-0.7,0.2-1.2,0.6v3h-0.7V27h0.6v0.6c0.5-0.5,0.9-0.7,1.4-0.7
			c0.4,0,0.8,0.1,0.9,0.4c0.2,0.2,0.2,0.5,0.2,1v2.8H106.8z"/>
		<path class="st0" d="M114.2,25.4h0.8v3.5c0,1.5-0.6,2.3-2.2,2.3c-1.6,0-2.1-0.9-2.1-2.3v-3.5h0.8V29c0,1,0.4,1.5,1.3,1.5
			c0.9,0,1.4-0.5,1.4-1.5V25.4z"/>
		<path class="st0" d="M118.8,31.2v-2.8c0-0.6-0.2-0.8-0.7-0.8c-0.4,0-0.7,0.2-1.2,0.6v3h-0.7V27h0.6v0.6c0.5-0.5,0.9-0.7,1.4-0.7
			c0.4,0,0.8,0.1,0.9,0.4c0.2,0.2,0.2,0.5,0.2,1v2.8H118.8z"/>
		<path class="st0" d="M120.7,26.2v-0.8h0.8v0.8H120.7z M120.7,31.2V27h0.7v4.1H120.7z"/>
		<path class="st0" d="M122.4,29.1c0-1.4,0.7-2.2,1.8-2.2s1.8,0.8,1.8,2.2c0,1.3-0.7,2.2-1.8,2.2S122.4,30.4,122.4,29.1z
			 M125.3,29.1c0-1-0.3-1.6-1.1-1.6s-1.1,0.7-1.1,1.6s0.4,1.6,1.1,1.6S125.3,30.1,125.3,29.1z"/>
		<path class="st0" d="M129.5,31.2v-2.8c0-0.6-0.2-0.8-0.7-0.8c-0.4,0-0.7,0.2-1.2,0.6v3H127V27h0.6v0.6c0.5-0.5,0.9-0.7,1.4-0.7
			c0.4,0,0.8,0.1,0.9,0.4c0.2,0.2,0.2,0.5,0.2,1v2.8H129.5z"/>
		<path class="st0" d="M131.4,31.2v-0.9h0.9v0.9H131.4z"/>
	</g>
	<path class="st1" d="M0,0v31.6h46.9V0H0z M32.2,8.8l0.5,1.3l1.5,0L33,10.9l0.4,1.3l-1.2-0.8L31,12.2l0.4-1.3l-1.2-0.8l1.5,0
		L32.2,8.8z M28.1,6.4l0.5-1.3L29,6.4l1.5,0l-1.2,0.8l0.4,1.3l-1.2-0.8l-1.2,0.8l0.4-1.3l-1.2-0.8L28.1,6.4z M14.1,10l0.5-1.3L15,10
		l1.5,0l-1.2,0.8l0.4,1.3l-1.2-0.8l-1.2,0.8l0.4-1.3L12.7,10L14.1,10z M11.3,15.2l1.5,0l0.5-1.3l0.5,1.3l1.5,0L13.9,16l0.4,1.3
		l-1.2-0.8L12,17.3l0.4-1.3L11.3,15.2z M14.5,21.6l-1.2,0.8l0.4-1.3l-1.2-0.8l1.5,0l0.5-1.3l0.5,1.3l1.5,0l-1.2,0.8l0.4,1.3
		L14.5,21.6z M19.4,26l-1.2-0.8L17.1,26l0.4-1.3l-1.2-0.8l1.5,0l0.5-1.3l0.5,1.3l1.5,0L19,24.7L19.4,26z M19,7.2l0.4,1.3l-1.2-0.8
		l-1.2,0.8l0.4-1.3l-1.2-0.8l1.5,0l0.5-1.3l0.5,1.3l1.5,0L19,7.2z M24.5,27.4l-1.2-0.8l-1.2,0.8l0.4-1.3l-1.2-0.8l1.5,0l0.5-1.3
		l0.5,1.3l1.5,0l-1.2,0.8L24.5,27.4z M24.1,5.9l0.4,1.3l-1.2-0.8l-1.2,0.8l0.4-1.3L21.5,5l1.5,0l0.5-1.3L23.8,5l1.5,0L24.1,5.9z
		 M29.6,26.1l-1.2-0.8l-1.2,0.8l0.4-1.3l-1.2-0.8l1.5,0l0.5-1.3l0.5,1.3l1.5,0l-1.2,0.8L29.6,26.1z M33.4,22.4l-1.2-0.8L31,22.4
		l0.4-1.3l-1.2-0.8l1.5,0l0.5-1.3l0.5,1.3l1.5,0L33,21.1L33.4,22.4z M34.7,17.3l-1.2-0.8l-1.2,0.8l0.4-1.3l-1.2-0.8l1.5,0l0.5-1.3
		l0.5,1.3l1.5,0L34.3,16L34.7,17.3z"/>
</g>
</svg>
