<svg xmlns="http://www.w3.org/2000/svg" xml:space="preserve" width="52" height="52" style="overflow:visible;enable-background:new 0 0 52 52" viewBox="0 0 52 52">
  <ellipse cx="26.1" cy="26.4" rx="24.7" ry="25" style="fill:#E0E21B"/>
  <path d="M0 25.3C1.8-9 51.4-8.1 52 26.2c-1.1 35-52 34.1-52-.9zm34.5 23.1c11.4-4.6 17.7-17.2 14.1-29C45.8 9.5 36.4 2.3 26.2 2.3c-1.7 0-3.6.2-5.3.6C8.7 5.3.1 18.4 2.9 30.8c2.7 14.5 18.2 22.9 31.6 17.6z"/>
  <path d="M41.1 15.8c.5-.2 1.1-.5 1.7-.5.4.7.6 1.5.7 2.2 1.1 3.7 1 7.9.2 11.7-3 15.1-20 22.8-30.9 9.9-5.2-6.3-6.3-15.6-3.7-23.2.4-.3.2-1.4.8-1.3.9.3 1.6.7 2.5 1 .3.4-.8 2-.7 2.8-2.2 7.5.1 16.8 6.5 21.6 9.4 6.8 19.7-.3 22.4-10.3.6-3 .9-6.1.5-9.1-.3-.9-.3-1.9-.7-2.8-.3-1.4-.8-1.5.7-2z"/>
  <path d="M33.9 16c1.5 4.7-5 7.2-6.8 2.5-1.3-4.5 4.8-6.8 6.8-2.5zM18.3 17.9c-1.1-5.1 6.4-6.2 7-1.2.5 4.6-5.8 5.6-7 1.2 0 .1 0 0 0 0z"/>
</svg>