<svg xmlns="http://www.w3.org/2000/svg" width="43.4" height="43.4" style="overflow:visible;enable-background:new 0 0 43.4 43.4" viewBox="0 0 43.4 43.4" xml:space="preserve">
  <g transform="translate(-2758.561 -1757.396)">
    <path d="M2795.9 1778.5c0 8.6-7 15.6-15.6 15.6s-15.6-7-15.6-15.6 7-15.6 15.6-15.6c8.7 0 15.6 7 15.6 15.6" style="fill:#FFE401"/>
    <path d="M2786.4 1785.4h-12.1c-.5 0-.9-.4-.9-.9s.4-.9.9-.9h12.1c.5 0 .9.4.9.9s-.4.9-.9.9"/>
    <circle cx="2774.3" cy="1773" r="2.3"/>
    <circle cx="2785.7" cy="1773" r="2.3"/>
  </g>
  <path d="M41.739 1.704v12.2h1.7V.004h-13.9v1.7h12.2zM1.739 1.704h12.2v-1.7H.039v13.9h1.7v-12.2zM1.739 41.704v-12.2h-1.7v13.9h13.9v-1.7h-12.2zM41.739 41.704h-12.2v1.7h13.9v-13.9h-1.7v12.2z"/>
</svg>