<svg xmlns="http://www.w3.org/2000/svg" xml:space="preserve" width="52" height="52" style="overflow:visible;enable-background:new 0 0 52 52" viewBox="0 0 52 52">
  <path d="M0 25.3V25c.1-2 .4-4 .9-6C2.1 14.9 4.1 11.3 7 8.2c2.1-2.2 4.4-4 7.1-5.4 2.3-1.2 4.7-2 7.3-2.5C23.3.1 25.1-.1 27 0c3.6.1 7.1 1 10.3 2.6C39.8 3.8 42 5.3 44 7.2c2.1 2 3.8 4.2 5.1 6.7 1.1 2.1 1.9 4.3 2.4 6.7.4 1.8.6 3.7.6 5.6-.1 5.9-1.9 11.2-5.6 15.9-2.5 3.1-5.5 5.6-9.1 7.3-2.3 1.1-4.7 1.9-7.2 2.3-1.2.2-2.3.3-3.5.3H25.2c-1.2 0-2.4-.1-3.6-.3-2.6-.4-5-1.2-7.3-2.4-2.7-1.4-5.1-3.1-7.2-5.4C4 40.6 1.9 36.8.7 32.4.4 30.6.1 28.8 0 27v-1.7zm34.5 22.8s0 .1 0 0c.2 0 .3-.1.4-.2 1.2-.6 2.3-1.2 3.5-1.8 0 0 .1 0 .1-.1 0-.2.2-.2.3-.2.2-.1.3-.2.5-.3l.1-.1.1-.1c.1-.1.3-.2.4-.3 0 0 .1 0 .1-.1s.2-.2.3-.2c.1-.1.2-.1.2-.1 0-.2.2-.2.3-.3.1 0 .2-.1.2-.1 0-.2.2-.2.3-.3l.1-.1c.1-.1.1-.1.1-.2.2-.1.3-.3.5-.4 0-.1.1-.1.2-.2.2-.1.3-.2.4-.4l.2-.2c.1-.1.2-.2.2-.3.1-.1.2-.3.4-.4l.3-.3c.1-.1.2-.2.3-.4l.3-.3c0-.2.2-.2.2-.3l.3-.3c.1-.1.1-.2.2-.3.1-.1.2-.2.2-.3.1-.1.1-.2.2-.3.1-.1.1-.2.2-.3.1-.1.1-.2.2-.3 0 0 .1-.1.1-.2.1-.1.1-.3.2-.3.1-.1.2-.3.3-.5.1-.1.1-.2.2-.3.1-.2.2-.4.3-.7 0-.1.1-.1.1-.2.1-.1.1-.2.2-.3.1-.1.1-.3.2-.4 0-.1.1-.2.1-.2.1-.2.1-.3.2-.5.1-.3.2-.6.3-.8.1-.1.1-.3.1-.4 0-.1.1-.3.1-.4 0-.2 0-.3.1-.4 0-.2 0-.3.1-.4v-.4c.1-.2.1-.4.2-.6 0-.1.1-.2 0-.2 0-.1 0-.2.1-.4 0-.1.1-.3.1-.4v-.3c.1-.2 0-.4.1-.6v-4.3c.1-.1 0-.3 0-.4 0-.1 0-.2-.1-.4 0-.2-.1-.4 0-.7 0-.2-.1-.3-.1-.5v-.1c.1-.2-.1-.3 0-.5 0-.1-.1-.2-.1-.4s-.1-.4-.1-.5c0-.2-.1-.4-.1-.6.1-.1 0-.2 0-.3-.1-.3-.2-.5-.2-.8V20c0-.1-.1-.2-.1-.4s-.1-.3-.1-.4c0-.1-.2-.2-.1-.3 0-.2 0-.3-.1-.4l-.3-.6V17.6c-.4-.9-.8-1.7-1.3-2.6-.2-.5-.4-.9-.8-1.4-.3-.3-.4-.7-.6-1-.2-.1-.2-.4-.4-.5-.2-.1-.2-.4-.4-.5-.2-.1-.2-.4-.4-.5-.1-.1-.1-.2-.2-.3l-.1-.1-.1-.1-.1-.1c-.2 0-.2-.2-.2-.3-.2 0-.2-.2-.2-.2l-.1-.1c-.1 0-.2-.1-.2-.2 0 0 0-.1-.1-.1-.1-.1-.3-.2-.4-.3-.1-.1-.2-.2-.3-.4-.1-.1-.3-.2-.4-.3-.1-.1-.3-.2-.4-.4-.1-.1-.2-.1-.3-.2l-.3-.3c-.1-.1-.2-.1-.3-.2.1-.4 0-.5-.1-.5l-.2-.2c-.1-.1-.2-.1-.3-.2-.2-.1-.3-.2-.5-.3-.1-.1-.2-.2-.3-.2-.2 0-.3-.2-.5-.3-.1 0-.2-.1-.3-.2-.1-.1-.2-.1-.3-.2-.1 0-.1-.1-.2-.1s-.2-.1-.2-.1c-.2 0-.3-.2-.5-.2-.1 0-.1 0-.2-.1-.1-.2-.3-.2-.5-.2-.1-.1-.3-.1-.4-.1-.1 0-.2-.1-.3-.2-.2-.1-.5-.2-.7-.2-.1 0-.1 0-.2-.1-.2-.1-.3-.2-.4-.2-.2-.1-.4-.1-.6-.2-.2-.1-.4-.1-.6-.2h-.5c-.2-.1-.4-.1-.6-.2H31c-.2-.3-.3-.3-.5-.3h-.2c-.2-.1-.4-.1-.6-.1h-.3c-.2-.1-.5-.1-.7-.1h-1c-.2 0-.4-.1-.5-.1H27c-.2.1-.4-.1-.7 0-.1-.1-.2 0-.4 0-.1-.1-.3 0-.5.1H24c-.1 0-.2.1-.2.1h-.4c-.2 0-.4.1-.5.1h-.2c-.2 0-.4.1-.5.1H22c-.2.1-.5 0-.7.2-.1-.1-.2 0-.4.1H20.6c-.1 0-.2.1-.3.1h-.1c-.1-.1-.1 0-.2 0s-.2.1-.4.1c-.1 0-.2 0-.3.1-.1.1-.3.2-.4.1-.2 0-.3.1-.4.1-.5 0-.6.1-.7.1H17.5c-.6.3-1.1.5-1.7.8H15.5c-.1.1-.3.2-.4.3-.5.3-1 .5-1.5.8 0 0-.1 0-.1.1s-.2.2-.3.2l-.6.3s-.1 0-.1.1l-.1.1c-.1.3-.3.3-.4.4 0 0-.1 0-.1.1s-.1.2-.2.2c-.1.1-.2.1-.3.2-.1.2-.3.2-.4.3 0 0-.1 0-.1.1s-.1.2-.2.2-.1.1-.2.1c0 .2-.2.2-.3.3 0 0-.1 0-.1.1 0 .2-.2.2-.2.2s-.1 0-.1.1c-.1.1-.3.2-.4.4-.1.1-.3.2-.4.3 0 .2-.3.2-.3.4l-.3.3c-.1.1-.1.2-.2.3l-.3.3c-.1.1-.1.2-.2.3l-.3.3c-.3.4-.4.5-.4.6l-.3.3v.1c-.1.1-.2.2-.2.4 0 0 0 .1-.1.1-.1.2-.2.3-.3.5-.1.1-.2.2-.2.3-.1.2-.2.3-.3.5 0 .1-.1.1-.1.2-.1.1-.2.2-.2.3 0 .2-.2.3-.3.5-.1.1-.1.2-.2.3-.1.1-.1.3-.2.4-.1.2-.2.3-.2.5 0 .1 0 .2-.1.2-.2.1-.1.3-.2.5 0 0-.1.2-.1.3v.1c0 .1 0 .2-.1.2v.1c0 .1-.1.3-.1.4 0 .1-.1.3-.2.4 0 .1-.1.3-.1.4 0 .1 0 .3-.1.4 0 .2 0 .3-.1.4v.1c.1.1 0 .2-.1.4v.4c-.1.2-.1.4-.2.6 0 .1 0 .3-.1.4 0 .1-.1.3-.1.4 0 .3-.1.5-.1.8 0 .2-.1.4 0 .6v.3c0 .1-.1.2 0 .4v.1c-.1.2 0 .4-.1.6V26.8c0 .1.1.3 0 .4v.3c0 .1-.1.3 0 .4 0 .1.1.2.1.4 0 .1.1.2 0 .4 0 .2 0 .3.1.5v.1c-.1.1 0 .2 0 .3v.1c-.1.2 0 .4.1.6 0 .2 0 .5.2.7-.1.1 0 .2.1.3 0 .2.1.4.1.5-.1.1 0 .2 0 .3 0 .1.1.2.1.3 0 .1 0 .2.1.3 0 .1.1.2.1.3V33.3c0 .1.2.3.2.4 0 .2.1.3.1.4.1.2.1.3.2.4v.1c0 .1 0 .2.1.3.6 1.2 1.2 2.5 1.9 3.7l.1.1c.1.1.2.2.2.3.1.2.2.3.3.5 0 .1.1.1.1.1l.1.1c-.1.1 0 .3.1.4 0 0 0 .1.1.1s.2.2.2.2c.1.1.1.2.2.3.2.1.2.2.3.3l.1.1c.2 0 .2.2.3.3l.1.1s.1.1.2.1c.1.1.1.2.2.2.2.1.3.3.4.4.2.1.3.3.4.5.1 0 .1.1.2.1.1.1.2.3.4.4.1.1.2.1.2.2.1.1.2.2.3.2.2.1.2.2.4.3.1.1.3.2.3.3.1.1.2.1.3.2l.3.3c.1.1.2.1.3.2.1.1.2.2.3.2l.2.2c.1.1.2.1.3.2 0 0 .1 0 .1.1.1.1.3.2.4.3.2.1.4.2.5.3.2.1.3.2.5.2.1 0 .1.1.2.1.2.1.4.3.7.4.2.1.4.2.7.3.1 0 .1 0 .2.1s.3.1.4.2c.2.1.4.2.7.3.2.1.4.2.7.3.2.1.4.1.6.2.1 0 .3.1.4.1.1 0 .3.1.4.1.2 0 .4.1.5.1.2 0 .3.1.4.1.1 0 .3 0 .4.1.1 0 .3.1.4.1.2 0 .3.2.5.1h.1c.1 0 .2 0 .3.1h.1c.2 0 .3.1.5.1h.4c.1 0 .3 0 .4.1.1.1.2 0 .3 0 .2.1.3 0 .5 0h.7c.1 0 .2-.1.3 0h1c.1 0 .3-.1.4 0H28.4c.2 0 .4-.1.5-.1.1.1.2 0 .2 0h.4c.2-.1.5 0 .6-.2.1.1.2 0 .2 0s.1-.1.1 0c.2.1.3-.1.4-.1h.1c.1.1.2 0 .4-.1 0 0 .1-.1.1 0 .2.1.3 0 .4-.1H32.1c.1 0 .2-.1.3-.1.2 0 .3 0 .4-.1.1 0 .2-.1.3-.1.2 0 .3 0 .4-.1.1-.1.3-.1.4-.2.4.1.5.1.6 0z"/>
  <path d="M34.5 48.1C18.9 54.2 2 42.3 2.4 25.6 2.8 7.7 22.6-3.4 38 5.8 54.9 16 52.8 40.7 34.5 48.1c0 .1 0 0 0 0z" style="fill:#E0E21B"/>
  <path d="M24.2 14.3h-.1c-1.6.6-1.4.1-1.5 1.9-.2 1.8-1.1 2.6-2 2.5-.9.1-1.8-.6-2-2.5-.1-1.7.1-1.3-1.5-1.9H17c-1.1-.5-.7 1.4-.7 2.2.2 3.1 2.2 4.5 4.2 4.5 2 .1 4-1.4 4.2-4.5.2-.8.6-2.7-.5-2.2zM34.9 14.3h-.1c-1.6.6-1.4.1-1.5 1.9-.2 1.8-1.1 2.6-2 2.5-.9.1-1.8-.6-2-2.5-.1-1.7.1-1.3-1.5-1.9h-.1c-1.1-.5-.7 1.4-.7 2.2.2 3.1 2.2 4.5 4.2 4.5 2 .1 4-1.4 4.2-4.5.2-.8.6-2.7-.5-2.2z"/>
  <g>
    <path d="M41 23.2c0 2.1-.2 4.2-.7 6.2v.1c-2.7 9.7-12.8 16.5-22 10-5-3.7-7.4-10.1-7.1-16.3 0-.4-.3-.8-.7-.9L9.2 22c-.5-.1-1 .3-1 .8-.3 5.7 1.3 11.5 4.9 15.8 10.6 12.6 27.3 5.1 30.3-9.6.4-2 .6-4.1.6-6.1 0-.5-.5-.9-1-.8l-1.3.2c-.4.2-.7.5-.7.9z"/>
  </g>
</svg>