<?xml version="1.0" encoding="utf-8"?>
<!-- Generator: Adobe Illustrator 25.2.0, SVG Export Plug-In . SVG Version: 6.00 Build 0)  -->
<svg version="1.1" id="Layer_1" xmlns="http://www.w3.org/2000/svg" xmlns:xlink="http://www.w3.org/1999/xlink" x="0px" y="0px"
	 viewBox="0 0 600 600" style="enable-background:new 0 0 600 600;" xml:space="preserve">
<style type="text/css">
	.st0{fill:#191918;}
	.st1{fill:#E0E21B;}
</style>
<ellipse class="st0" cx="301.2" cy="304.5" rx="285.1" ry="288.6"/>
<path class="st1" d="M-0.1,291.8c20.8-395.9,593.3-385.5,600.2,10.4C587.4,706.2-0.1,695.8-0.1,291.8z M398.1,558.4
	c131.6-53.1,204.3-198.5,162.7-334.7C528.5,109.4,420,26.3,302.3,26.3c-19.6,0-41.6,2.3-61.2,6.9C100.3,60.9,1,212.1,33.4,355.3
	C64.5,522.6,243.4,619.6,398.1,558.4z"/>
<path class="st1" d="M474.3,182.1c5.8-2.3,12.7-5.8,19.6-5.8c4.6,8.1,6.9,17.3,8.1,25.4c12.7,42.7,11.5,91.2,2.3,135
	C469.7,511.1,273.5,600,147.6,451.1c-60-72.7-72.7-180.1-42.7-267.8c4.6-3.5,2.3-16.2,9.2-15c10.4,3.5,18.5,8.1,28.9,11.5
	c3.5,4.6-9.2,23.1-8.1,32.3c-25.4,86.6,1.2,193.9,75,249.3C318.5,540,437.4,458,468.5,342.6c6.9-34.6,10.4-70.4,5.8-105
	c-3.5-10.4-3.5-21.9-8.1-32.3C462.7,189.1,457,187.9,474.3,182.1z"/>
<path class="st1" d="M391.2,184.4c17.3,54.2-57.7,83.1-78.5,28.9C297.7,161.4,368.1,134.8,391.2,184.4z M211.1,206.4
	c-12.7-58.9,73.9-71.6,80.8-13.9C297.7,245.6,225,257.2,211.1,206.4C211.1,207.5,211.1,206.4,211.1,206.4z"/>
</svg>
