<svg xmlns="http://www.w3.org/2000/svg" width="341.7" height="256.8" style="overflow:visible;enable-background:new 0 0 341.7 256.8" viewBox="0 0 341.7 256.8" xml:space="preserve">
  <path d="M165.4 130.2c9.3 1.5 18.6 2.9 26.3 4.4 32.5 4.4 64.9 10.2 97.4 14.6 4.6 0 7.7 2.9 7.7 5.8 15.5 30.6 29.4 61.1 44.8 91.7v10.2h-10.8c-64.9-24.7-128.3-48-191.7-72.8-38.7-14.6-75.8-29.1-114.4-42.2-6.2-2.9-12.4-4.4-18.6-7.3-3.1-1.5-6.2-4.4-6.2-7.3 0-2.9 4.6-5.8 7.7-7.3C49.5 104 91.2 89.4 133 73.4c64.9-23.3 131.4-48 196.4-72.8 3.1-1.5 7.7 0 10.8 0 0 4.4 1.5 7.3 0 11.6-13.9 30.6-27.8 59.7-41.7 90.2-3.1 7.3-10.8 7.3-17 7.3-34 5.8-68 10.2-102 14.6-4.6 0-9.3 1.5-13.9 1.5-.2 0-.2 4.4-.2 4.4z" style="fill:#FFFFFF"/>
</svg>