<svg xmlns="http://www.w3.org/2000/svg" width="256" height="256" style="overflow:visible;enable-background:new 0 0 256 256" viewBox="0 0 256 256" xml:space="preserve">
  <style>
    .st1{fill:#FF284D}.st2{fill:#F638D7}
  </style>
  <path d="M0 0h256v256H0z" style="fill:#1DCFFF"/>
  <g id="Group_8937_10_">
    <g id="Group_8935_10_">
      <g id="Group_8933_10_">
        <g id="Group_8932_10_">
          <g id="Group_8911_10_">
            <g id="Group_8910_10_">
              <path id="Path_10727_10_" d="M85.6 65.8c1.5-.3 2.8-1.1 3.8-2.1.9-1 1.6-2.2 1.8-3.5.1-.7.1-1.3 0-2-.1-.3-.1-.7-.2-1-.1-.3-.2-.6-.4-1-.2-.3-.3-.6-.5-.9-.2-.3-.4-.6-.7-.8-.5-.6-1.2-1-1.8-1.4-.7-.4-1.5-.8-2.3-1-.8-.3-1.7-.4-2.5-.5-1.8-.2-3.6-.1-5.4.1l-4.5.6c.4 3.4-.1 6.8-1.5 10l4.2 1.9c1.6.8 3.3 1.4 5.1 1.8.9.2 1.7.3 2.6.3.6-.2 1.5-.3 2.3-.5z" class="st1"/>
              <path id="Path_10728_10_" d="M83.1 66.5c-.9 0-1.8-.1-2.7-.3-1.8-.4-3.6-1-5.2-1.8L71 62.5c-.2-.1-.3-.3-.2-.5 1.4-3 1.9-6.4 1.5-9.7 0-.2.1-.4.3-.4l4.5-.6c1.8-.3 3.6-.3 5.5-.1.9.1 1.8.3 2.6.5.8.3 1.6.6 2.4 1 .7.4 1.3.9 1.9 1.5.3.3.5.6.7.9l.6.9c.2.3.3.7.4 1 .1.3.2.7.2 1 .1.7.1 1.4 0 2.1-.2 1.4-.9 2.7-1.9 3.8-1.1 1.1-2.5 1.9-4 2.2-.7.3-1.5.4-2.4.4zM71.7 62l3.8 1.8c1.6.8 3.3 1.4 5 1.7.8.2 1.7.2 2.5.3.8 0 1.6-.1 2.4-.3 1.4-.3 2.7-1 3.7-2 .9-.9 1.5-2.1 1.6-3.3.1-.6.1-1.2 0-1.9-.1-.3-.1-.6-.2-.9-.1-.3-.2-.6-.4-.9-.2-.3-.3-.6-.5-.9-.2-.3-.4-.5-.7-.8-.5-.5-1.1-1-1.7-1.4-.7-.4-1.4-.7-2.2-1-.8-.2-1.6-.4-2.5-.5-1.8-.2-3.5-.1-5.3.1l-4.2.5c.5 3.3 0 6.5-1.3 9.5z"/>
            </g>
          </g>
          <g id="Group_8913_10_">
            <g id="Group_8912_10_">
              <path id="Path_10729_10_" d="M74.5 80.9c.7.3 1.5.4 2.3.5.7 0 1.4 0 2.1-.2.7-.2 1.3-.4 1.9-.8.3-.2.6-.4.8-.6.3-.2.5-.4.7-.7.2-.2.4-.5.6-.8.2-.3.3-.6.5-.9.3-.6.4-1.3.5-2 .1-.7 0-1.4-.1-2.1-.1-.8-.4-1.5-.8-2.2-.2-.4-.4-.7-.6-1.1-.2-.4-.5-.7-.8-1-.6-.7-1.2-1.3-1.8-1.8-1.4-1.1-2.9-2.1-4.6-2.8l-4.1-2c-1.5 3.1-3.8 5.7-6.7 7.6l2.5 3.9c.9 1.5 2.1 3 3.4 4.2.6.6 1.3 1.1 2 1.6.4.2.7.4 1.1.6.3.3.7.4 1.1.6z" class="st1"/>
              <path id="Path_10730_10_" d="M77.3 81.7h-.5c-.8 0-1.6-.2-2.4-.5-.4-.1-.8-.3-1.2-.5-.4-.2-.8-.4-1.1-.7-.7-.5-1.4-1-2.1-1.7-1.3-1.3-2.5-2.7-3.4-4.3l-2.5-3.8c-.1 0-.1-.2-.1-.3 0-.1.1-.2.2-.2 2.8-1.8 5.1-4.4 6.5-7.4 0-.1.1-.2.2-.2h.3l4.1 2c1.7.8 3.2 1.7 4.7 2.9.7.6 1.3 1.2 1.9 1.9.3.3.5.7.8 1.1.2.4.5.7.6 1.1.4.7.6 1.5.8 2.3.1.7.2 1.5.1 2.2-.1.7-.3 1.4-.5 2.1-.1.3-.3.6-.5.9-.2.3-.4.6-.6.8-.2.3-.5.5-.7.7l-.9.6c-.6.4-1.3.6-2 .8-.6.2-1.2.2-1.7.2zm-2.7-1.2c.7.2 1.4.4 2.2.4.7 0 1.3 0 2-.2.6-.1 1.2-.4 1.8-.7.3-.2.5-.3.8-.5.2-.2.5-.4.7-.6.2-.2.4-.5.6-.7.2-.3.3-.5.4-.8.3-.6.4-1.2.5-1.8.1-.7 0-1.4-.1-2-.1-.7-.4-1.4-.7-2.1-.2-.4-.4-.7-.6-1-.2-.3-.5-.7-.7-1-.5-.6-1.1-1.2-1.8-1.8-1.4-1.1-2.9-2-4.5-2.8l-4-1.9c-1.5 2.9-3.6 5.4-6.3 7.2l2.3 3.5c.9 1.5 2 2.9 3.3 4.2.6.6 1.3 1.1 2 1.6.3.2.7.4 1.1.6.3.1.7.3 1 .4z"/>
            </g>
          </g>
          <g id="Group_8915_10_">
            <g id="Group_8914_10_">
              <path id="Path_10731_10_" d="M57.1 87.5c.5.6 1 1.1 1.6 1.6.6.4 1.2.8 1.9 1 1.9.7 4 .4 5.7-.7.6-.4 1.1-.8 1.5-1.4.4-.6.8-1.2 1.1-1.9.3-.7.5-1.5.6-2.3.1-.8.1-1.7 0-2.5-.1-.9-.3-1.7-.6-2.5-.6-1.7-1.4-3.3-2.3-4.8l-2.4-3.9c-.4.2-.7.4-1.1.6-.4.2-.8.4-1.1.5l-2.4.9-.6.2c-.2.1-.4.1-.6.1-.4.1-.8.1-1.3.2-.8.1-1.7.2-2.6.2v4.6c0 1.8.1 3.6.5 5.4.3 1.8 1 3.4 2.1 4.7z" class="st1"/>
              <path id="Path_10732_10_" d="M62.8 90.9c-.8 0-1.6-.1-2.3-.4-.7-.3-1.4-.6-2-1.1-.6-.5-1.2-1-1.7-1.7-1.1-1.4-1.8-3-2.2-4.8-.4-1.8-.6-3.6-.6-5.5v-4.6c0-.2.2-.4.4-.4.8 0 1.7-.1 2.5-.2.1 0 .3 0 .4-.1.3 0 .5-.1.8-.1.1 0 .2 0 .3-.1.1 0 .2 0 .3-.1l.6-.2c.8-.2 1.6-.5 2.3-.8.2-.1.4-.2.7-.3.1-.1.3-.1.4-.2.1-.1.3-.2.4-.2.2-.1.4-.2.6-.4.2-.1.4-.1.5.1l2.4 3.9c1 1.5 1.8 3.2 2.4 4.9.3.8.5 1.7.6 2.6.1.9.1 1.7 0 2.6-.1.8-.3 1.6-.6 2.4-.3.7-.7 1.4-1.1 1.9-.5.6-1 1.1-1.6 1.5-.6.4-1.2.7-1.9.9-.3.3-1 .4-1.6.4zm-5.4-3.6c.5.6 1 1.1 1.6 1.5.5.4 1.1.7 1.8.9 1.8.6 3.8.4 5.4-.7.5-.4 1-.8 1.4-1.3.4-.5.8-1.1 1-1.8.3-.7.4-1.4.5-2.2.1-.8.1-1.6 0-2.4-.1-.8-.3-1.6-.6-2.4-.6-1.7-1.3-3.3-2.3-4.8L64 70.7c-.1.1-.2.1-.4.2s-.3.1-.4.2c-.1.1-.3.1-.4.2-.2.1-.5.2-.7.3-.8.4-1.6.6-2.4.9l-.6.2c-.1 0-.3.1-.4.1h-.2c-.5.2-.8.2-1 .3-.1 0-.3 0-.4.1-.7.1-1.5.2-2.2.2v4.2c0 1.8.1 3.6.5 5.3.3 1.5 1 3.1 2 4.4z"/>
            </g>
          </g>
          <g id="Group_8917_10_">
            <g id="Group_8916_10_">
              <path id="Path_10733_10_" d="M38.8 83.7c.1 1.5.7 2.9 1.6 4.1.4.5.9 1 1.5 1.4.5.4 1.1.7 1.8.9.3.1.6.2 1 .2.3 0 .7.1 1 .1.3 0 .7 0 1-.1.3-.1.7-.2 1-.3.3-.1.7-.2 1-.4l.9-.6c.3-.2.6-.5.9-.7.3-.3.6-.6.8-.9 1.1-1.3 1.8-2.9 2.2-4.6.4-1.7.6-3.5.6-5.3l.1-4.6c-3.4-.1-6.8-1.1-9.6-2.9L42 73.9c-1 1.5-1.8 3.1-2.5 4.8-.3.8-.5 1.7-.6 2.5-.1.8-.2 1.7-.1 2.5z" class="st1"/>
              <path id="Path_10734_10_" d="M45.4 90.7c-.3 0-.6 0-.9-.1-.3-.1-.7-.1-1-.2-.7-.2-1.3-.5-1.9-.9-.6-.4-1.1-.9-1.6-1.5-.9-1.3-1.5-2.7-1.6-4.3-.1-.9-.1-1.8.1-2.6.1-.9.4-1.7.6-2.6.6-1.7 1.5-3.4 2.5-4.9l2.5-3.8c.1-.2.3-.2.5-.1 2.8 1.8 6.1 2.8 9.4 2.9.2 0 .4.2.4.4l-.1 4.6c0 1.8-.2 3.6-.7 5.4-.4 1.7-1.2 3.3-2.3 4.7-.3.3-.5.6-.8.9-.3.3-.6.5-.9.8-.3.2-.6.4-1 .6-.3.2-.7.3-1 .4-.3.1-.7.2-1.1.3-.4.1-.7.1-1.1.1v-.1zm-.8-20.2L42.3 74c-1 1.5-1.8 3.1-2.4 4.7-.3.8-.5 1.6-.6 2.5-.1.8-.2 1.6-.1 2.4.1 1.4.6 2.8 1.5 3.9.4.5.9.9 1.4 1.3.5.4 1.1.6 1.7.8.3.1.6.2.9.2.6.1 1.3.1 1.9 0 .3-.1.6-.1.9-.2.3-.1.6-.2.9-.4.3-.2.6-.3.9-.5.3-.2.6-.4.8-.7l.8-.8c1-1.3 1.7-2.8 2.1-4.4.4-1.7.6-3.5.6-5.2l.1-4.2c-3.2-.2-6.4-1.2-9.1-2.9z"/>
            </g>
          </g>
          <g id="Group_8919_10_">
            <g id="Group_8918_10_">
              <path id="Path_10735_10_" d="M25.5 70.6c-.2.4-.3.7-.5 1.1-.1.4-.2.7-.3 1.1-.2.7-.2 1.4-.1 2.1 0 .3.1.7.2 1 .1.3.2.6.3 1 .1.3.3.6.5.9.2.3.4.5.6.8.2.3.4.5.7.7.3.2.5.4.8.6.6.4 1.2.6 1.9.8 1.5.3 3 .3 4.4-.2.4-.1.8-.3 1.2-.5.4-.2.8-.4 1.1-.6.7-.5 1.4-1 2.1-1.6 1.3-1.2 2.5-2.6 3.4-4.1l2.5-3.8c-2.8-1.9-5.1-4.6-6.5-7.7L33.5 64c-1.7.7-3.2 1.6-4.7 2.7-1.4 1.1-2.5 2.4-3.3 3.9z" class="st1"/>
              <path id="Path_10736_10_" d="M31.2 81.3c-.6 0-1.2-.1-1.8-.2-.7-.2-1.4-.5-2-.8-.3-.2-.6-.4-.8-.6-.3-.2-.5-.5-.7-.7-.5-.5-.8-1.1-1.1-1.8-.1-.3-.3-.7-.3-1-.1-.4-.1-.7-.2-1.1-.1-.7 0-1.5.1-2.2.1-.4.2-.8.3-1.1.1-.4.3-.8.5-1.1.8-1.6 2-2.9 3.4-4 1.5-1.1 3.1-2 4.8-2.8l4.2-1.9h.3c.1 0 .2.1.2.2 1.4 3 3.6 5.6 6.4 7.5.2.1.2.4.1.5L42 73.9c-1 1.5-2.2 3-3.5 4.2-.7.6-1.4 1.1-2.1 1.6l-1.2.6c-.4.2-.8.3-1.2.5-.9.3-1.8.5-2.8.5zm6.3-18.6-3.8 1.7c-1.7.7-3.2 1.6-4.7 2.7-1.3 1-2.4 2.3-3.2 3.7-.2.3-.3.7-.5 1-.1.3-.2.7-.3 1-.1.7-.2 1.3-.1 2 0 .3.1.6.2 1l.3.9c.1.3.3.6.4.8.2.3.4.5.6.7.2.2.4.5.6.7.2.2.5.4.8.5.5.3 1.1.6 1.8.7 1.4.3 2.8.2 4.2-.2.4-.1.8-.3 1.1-.4.4-.2.7-.4 1.1-.6.7-.4 1.4-1 2-1.5 1.3-1.2 2.4-2.6 3.4-4.1l2.3-3.5c-2.7-1.7-4.8-4.2-6.2-7.1zm-12 7.9z"/>
            </g>
          </g>
          <g id="Group_8921_10_">
            <g id="Group_8920_10_">
              <path id="Path_10737_10_" d="M21.3 52.4c-.7.4-1.3.9-1.8 1.4-.5.5-.9 1.1-1.3 1.7-.3.6-.5 1.2-.6 1.9-.2 1.3 0 2.7.5 3.9.3.6.7 1.2 1.1 1.7.5.5 1.1 1 1.7 1.3.7.4 1.4.7 2.2.9.8.2 1.7.3 2.5.3.9 0 1.7-.1 2.6-.2 1.8-.3 3.5-.9 5.1-1.6l4.2-1.8c-1.4-3.1-1.8-6.6-1.3-10l-4.5-.7c-1.8-.3-3.6-.4-5.4-.2-.9.1-1.7.2-2.6.5-.8.2-1.6.5-2.4.9z" class="st1"/>
              <path id="Path_10738_10_" d="M25.8 65.9h-.2c-.9 0-1.7-.1-2.6-.3-.8-.2-1.5-.5-2.2-.9-.6-.4-1.2-.8-1.8-1.4-.5-.5-.9-1.1-1.2-1.8-.6-1.3-.8-2.7-.6-4.1.1-.7.4-1.4.7-2 .4-.7.8-1.3 1.3-1.8.6-.6 1.2-1.1 1.9-1.5.8-.4 1.6-.8 2.4-1 .9-.2 1.7-.4 2.6-.5 1.8-.1 3.7-.1 5.5.2l4.5.7c.2 0 .4.2.3.4-.5 3.3 0 6.7 1.3 9.8.1.2 0 .4-.2.5L33.3 64c-1.7.8-3.4 1.3-5.2 1.7-.6.1-1.4.2-2.3.2zm-4.3-13.1c-.6.4-1.2.8-1.8 1.3-.5.5-.9 1-1.2 1.6-.3.6-.5 1.2-.6 1.8-.2 1.2 0 2.5.5 3.6.3.6.6 1.1 1.1 1.6.5.5 1 .9 1.6 1.3.6.4 1.3.6 2.1.8.8.2 1.6.3 2.4.3.8 0 1.7-.1 2.5-.2 1.7-.3 3.4-.9 5-1.6l3.8-1.7c-1.2-3-1.7-6.3-1.3-9.5l-4.2-.6c-1.8-.3-3.5-.4-5.3-.2-.8.1-1.7.2-2.5.5-.6.3-1.3.6-2.1 1z"/>
            </g>
          </g>
          <g id="Group_8923_10_">
            <g id="Group_8922_10_">
              <path id="Path_10739_10_" d="M27.7 34.9c-1.5-.1-3 .2-4.3 1-.6.3-1.1.8-1.6 1.3-.2.2-.4.5-.6.8-.2.3-.3.6-.5.9-.3.6-.5 1.2-.5 1.9 0 .3-.1.7-.1 1 0 .3.1.7.1 1 .1.7.4 1.4.7 2 .2.3.4.7.6 1 .2.3.5.6.8.9 1.2 1.2 2.6 2.2 4.2 2.8 1.7.7 3.4 1.1 5.2 1.4l4.5.7c.6-3.4 2-6.5 4.3-9.1l-3.5-3c-1.3-1.2-2.8-2.3-4.4-3.1-.8-.4-1.6-.7-2.4-1l-1.2-.3c-.4-.1-.9-.2-1.3-.2z" class="st1"/>
              <path id="Path_10740_10_" d="m36.2 51.9-4.6-.7c-1.8-.3-3.6-.7-5.3-1.4-1.6-.7-3.1-1.7-4.3-2.9-.3-.3-.5-.6-.8-1-.2-.3-.4-.7-.6-1-.4-.7-.6-1.4-.7-2.1-.1-.4-.1-.7-.1-1.1 0-.4 0-.7.1-1.1 0-.3.1-.7.2-1 .1-.3.2-.7.4-1 .1-.3.3-.6.5-.9.2-.3.4-.6.7-.8.5-.5 1-1 1.7-1.3 1.4-.8 2.9-1.1 4.5-1 .4 0 .9.1 1.3.1.4.1.9.2 1.3.3.9.3 1.7.6 2.5 1 1.6.9 3.1 1.9 4.5 3.2l3.5 3c.2.1.2.4 0 .5-2.2 2.5-3.6 5.6-4.2 8.9 0 .1-.1.2-.2.3h-.4zm-8.9-16.6c-1.3 0-2.5.3-3.6.9-.6.3-1.1.7-1.5 1.2-.2.2-.4.5-.6.7-.2.3-.3.5-.4.8l-.3.9c-.1.3-.1.6-.2.9 0 .3-.1.6-.1.9 0 .3.1.7.1 1 .1.7.3 1.3.7 1.9.2.3.3.6.6.9.2.3.5.6.7.9 1.1 1.2 2.5 2.1 4.1 2.7 1.6.7 3.3 1.1 5.1 1.4l4.1.7c.6-3.2 2-6.2 4.1-8.6l-3.2-2.7c-1.3-1.2-2.8-2.2-4.3-3.1-.7-.4-1.5-.7-2.3-1l-1.2-.3c-.4-.1-.8-.1-1.2-.1h-.6z"/>
            </g>
          </g>
          <g id="Group_8925_10_">
            <g id="Group_8924_10_">
              <path id="Path_10741_10_" d="M42.6 23.6c-.3-.2-.7-.4-1-.6-.3-.2-.7-.3-1-.5-.3-.1-.7-.2-1-.3-.3-.1-.7-.1-1-.1h-1c-.3 0-.7.1-1 .2l-.9.3c-.3.1-.6.3-.9.5-.6.4-1.1.8-1.5 1.3-.4.5-.8 1.1-1 1.7-.5 1.4-.7 2.9-.4 4.4.1.8.4 1.6.7 2.4.4.8.8 1.5 1.3 2.3 1 1.5 2.2 2.8 3.6 4l3.4 3.1c2.3-2.5 5.2-4.4 8.5-5.4L48 32.4c-.5-1.7-1.1-3.4-2-5-.9-1.5-2-2.8-3.4-3.8z" class="st1"/>
              <path id="Path_10742_10_" d="M40.7 42.6c-.1 0-.2 0-.3-.1L37 39.4c-1.4-1.2-2.6-2.6-3.7-4.1-.5-.7-.9-1.5-1.3-2.3-.4-.8-.6-1.6-.8-2.5-.3-1.5-.2-3.1.4-4.6.3-.7.6-1.3 1.1-1.8.4-.5 1-1 1.6-1.4.3-.2.6-.3.9-.5.3-.1.7-.3 1-.3.3-.1.7-.2 1-.2h1.1c.4 0 .7.1 1.1.1.4.1.7.2 1.1.3.4.1.7.3 1.1.5.4.2.7.4 1.1.7 1.4 1.1 2.6 2.4 3.5 4 .9 1.6 1.6 3.3 2.1 5.1l1.3 4.4c.1.2-.1.4-.3.5-3.2.9-6.1 2.8-8.3 5.3-.1-.1-.2 0-.3 0zm-2.6-20.2h-.6c-.6.1-1.2.2-1.8.5-.3.1-.6.3-.8.4-.5.3-1 .7-1.4 1.2-.4.5-.7 1-1 1.6-.5 1.3-.6 2.8-.4 4.2.1.8.4 1.6.7 2.3.3.8.8 1.5 1.2 2.2 1 1.4 2.2 2.8 3.5 3.9l3.1 2.8c2.2-2.4 5-4.1 8.1-5.1l-1.2-4c-.5-1.7-1.1-3.4-2-4.9-.8-1.5-1.9-2.7-3.2-3.7-.3-.2-.6-.4-1-.6-.3-.2-.6-.3-1-.4-.3-.1-.7-.2-1-.3-.3-.1-.7-.1-1-.1h-.2z"/>
            </g>
          </g>
          <g id="Group_8927_10_">
            <g id="Group_8926_10_">
              <path id="Path_10743_10_" d="M61.2 22.1c-.3-.7-.7-1.4-1.1-2-.4-.6-.9-1.1-1.5-1.5-.6-.4-1.2-.7-1.8-.9-1.9-.6-4.1-.3-5.7.9-.6.4-1.1.9-1.5 1.5-.5.6-.9 1.3-1.2 2-.6 1.6-.9 3.3-.8 5 .1 1.8.4 3.6.9 5.3l1.2 4.4c.8-.2 1.7-.4 2.5-.5.4 0 .9-.1 1.3-.1h1.2c.8 0 1.7.1 2.5.2.4 0 .8.2 1.3.2l1.2.3 1.3-4.4c.6-1.7.9-3.5 1-5.3 0-.9 0-1.7-.1-2.6-.2-.9-.4-1.7-.7-2.5z" class="st1"/>
              <path id="Path_10744_10_" d="M59.6 37.2h-.1c-.2-.1-.5-.2-.7-.2-.2 0-.3-.1-.5-.1s-.3-.1-.5-.1c-.3-.1-.5-.1-.7-.1-.8-.1-1.7-.2-2.5-.2h-1.3c-.3 0-.5 0-.8.1h-.4c-.8.1-1.6.3-2.4.5h-.3c-.1-.1-.2-.1-.2-.2L48 32.4c-.5-1.8-.8-3.6-.9-5.4-.1-1.8.2-3.5.9-5.2.3-.7.7-1.4 1.2-2.1.5-.6 1-1.1 1.6-1.6 1.8-1.3 4-1.6 6.1-.9.7.2 1.3.6 1.9 1 .6.4 1.2 1 1.6 1.6.5.6.9 1.4 1.2 2.1.3.8.5 1.7.7 2.5.1.9.2 1.8.1 2.7-.1 1.8-.5 3.7-1 5.4L60 36.9c0 .1-.1.2-.2.2 0 .1-.1.1-.2.1zm-2.4-1.3c.3 0 .5.1.8.1.2 0 .3.1.5.1s.3.1.5.1.3.1.4.1l1.2-4c.5-1.7.9-3.5 1-5.2 0-.8 0-1.7-.1-2.5s-.3-1.6-.6-2.4c-.3-.7-.6-1.3-1.1-1.9-.4-.5-.9-1-1.4-1.4-.5-.4-1.1-.7-1.7-.9-.6-.2-1.2-.3-1.8-.3-1.3 0-2.5.4-3.5 1.1-.6.4-1 .9-1.5 1.4-.5.6-.8 1.2-1.1 1.9-.6 1.5-.9 3.2-.8 4.9.1 1.8.4 3.5.9 5.2l1.1 4c.7-.2 1.4-.3 2.2-.4h.4c.3 0 .6-.1.9-.1H54.7c.8 0 1.6.1 2.5.2z"/>
            </g>
          </g>
          <g id="Group_8929_10_">
            <g id="Group_8928_10_">
              <path id="Path_10745_10_" d="M77.6 30.9c.2-.8.2-1.5.1-2.3-.1-.7-.2-1.4-.5-2.1-.2-.6-.6-1.2-1-1.7-.2-.3-.4-.5-.7-.7-.2-.2-.5-.4-.8-.6-.3-.2-.6-.3-.9-.5l-.9-.3c-.7-.2-1.3-.3-2-.2-.7 0-1.4.2-2.1.4-.7.3-1.4.6-2.1 1.1-.3.2-.7.5-1 .8l-.9.9c-.6.6-1.1 1.3-1.5 2.1-.9 1.6-1.6 3.2-2.1 4.9l-1.4 4.4c3.3 1 6.2 3 8.4 5.5l3.5-3c1.4-1.2 2.6-2.5 3.7-3.9.5-.7.9-1.5 1.3-2.2.2-.4.3-.8.5-1.2.3-.6.4-1 .4-1.4z" class="st1"/>
              <path id="Path_10746_10_" d="M68.4 42.8c-.1 0-.2-.1-.3-.1-2.2-2.5-5.1-4.4-8.3-5.4-.2-.1-.3-.3-.3-.5l1.4-4.4c.5-1.8 1.2-3.4 2.2-5 .5-.8 1-1.5 1.6-2.1l.9-.9c.3-.3.7-.6 1-.8.7-.5 1.4-.8 2.2-1.1.7-.3 1.5-.4 2.2-.4.7 0 1.4 0 2.1.2.3.1.7.2 1 .3.3.1.6.3.9.5.3.2.6.4.8.6.3.2.5.5.7.8.5.6.8 1.2 1.1 1.8.3.7.4 1.4.5 2.2.1.8 0 1.6-.1 2.4-.1.4-.2.8-.3 1.3-.1.4-.3.8-.5 1.2-.4.8-.8 1.6-1.3 2.3-1.1 1.5-2.4 2.8-3.8 4l-3.5 3c0 .1-.1.1-.2.1zm-8-6.1c3.1 1 5.8 2.9 8 5.2l3.2-2.7c1.4-1.1 2.6-2.4 3.7-3.9.5-.7.9-1.4 1.3-2.2.2-.4.3-.8.5-1.1l.3-1.2c.1-.7.2-1.5.1-2.2 0-.7-.2-1.3-.4-2-.2-.6-.6-1.1-1-1.6-.2-.2-.4-.5-.6-.7-.2-.2-.5-.4-.7-.6-.3-.2-.5-.3-.8-.4l-.9-.3c-.6-.2-1.3-.2-1.9-.2-.7 0-1.3.2-2 .4s-1.4.6-2 1c-.3.2-.6.5-.9.7l-.9.9c-.6.6-1.1 1.3-1.5 2-.9 1.5-1.6 3.2-2.1 4.8l-1.4 4.1zm17.2-5.8z"/>
            </g>
          </g>
          <g id="Group_8931_10_">
            <g id="Group_8930_10_">
              <path id="Path_10747_10_" d="M86.7 47.2c.5-.6 1-1.2 1.4-1.9.2-.3.3-.7.4-1 .1-.3.2-.7.3-1 .1-.3.1-.7.1-1v-1c-.1-.7-.2-1.3-.5-1.9-.6-1.2-1.5-2.3-2.7-2.9-1.3-.7-2.8-1.1-4.3-1-.8 0-1.7.2-2.5.4s-1.6.5-2.4.9c-1.6.8-3.1 1.8-4.5 3l-3.5 2.9c2.2 2.6 3.6 5.8 4.1 9.2l4.5-.6c1.8-.2 3.6-.7 5.2-1.3.8-.3 1.6-.7 2.3-1.2.9-.5 1.6-1 2.1-1.6z" class="st1"/>
              <path id="Path_10748_10_" d="M72.7 52.3c-.1 0-.2 0-.2-.1-.1-.1-.1-.2-.2-.3-.5-3.3-1.9-6.4-4-9-.1-.2-.1-.4 0-.5l3.5-2.9c1.4-1.2 2.9-2.2 4.5-3.1.8-.4 1.6-.7 2.5-1 .8-.2 1.7-.4 2.6-.4 1.6-.1 3.1.3 4.5 1.1 1.2.7 2.2 1.8 2.8 3.1.3.6.5 1.3.6 2 0 .3.1.7 0 1.1 0 .4-.1.7-.1 1.1-.1.4-.2.7-.3 1.1-.1.4-.3.7-.5 1-.4.7-.9 1.4-1.4 2-.6.6-1.3 1.2-2 1.6-.8.5-1.6.9-2.4 1.2-1.7.7-3.5 1.1-5.3 1.3l-4.6.7zm-3.6-9.6c2 2.5 3.4 5.5 3.9 8.7l4.2-.6c1.8-.2 3.5-.6 5.2-1.3.8-.3 1.5-.7 2.3-1.1.7-.4 1.3-1 1.9-1.5.5-.5 1-1.1 1.3-1.8.2-.3.3-.6.4-.9.1-.3.2-.6.3-1 .1-.3.1-.6.1-1v-.9c-.1-.6-.2-1.2-.5-1.8-.5-1.2-1.4-2.1-2.5-2.8-1.2-.7-2.7-1-4.1-1-.8 0-1.6.2-2.4.4-.8.2-1.6.5-2.3.9-1.6.8-3 1.8-4.4 3l-3.4 2.7z"/>
            </g>
          </g>
        </g>
      </g>
      <g id="Group_8934_10_">
        <circle id="Ellipse_4009_10_" cx="54.7" cy="54.6" r="18.7" class="st2"/>
        <path id="Path_10749_10_" d="M54.7 73.7c-10.6 0-19.1-8.6-19.1-19.1 0-10.6 8.6-19.1 19.1-19.1 10.6 0 19.1 8.6 19.1 19.1 0 9.6-7.1 17.7-16.6 18.9-.8.2-1.7.2-2.5.2zM36.6 57.1c1.3 10 10.6 17.1 20.6 15.7 10-1.3 17.1-10.6 15.7-20.6S62.3 35.1 52.3 36.5c-4.8.6-9.2 3.2-12.1 7-3 3.9-4.3 8.7-3.6 13.6z"/>
      </g>
    </g>
    <g id="Group_8936_10_">
      <path id="Path_10750_10_" d="M43.9 62.5z"/>
    </g>
  </g>
  <g id="Group_8937_9_">
    <g id="Group_8935_9_">
      <g id="Group_8933_9_">
        <g id="Group_8932_9_">
          <g id="Group_8911_9_">
            <g id="Group_8910_9_">
              <path id="Path_10727_9_" d="M89.4 211.3c1.5-.3 2.8-1.1 3.8-2.1.9-1 1.6-2.2 1.8-3.5.1-.7.1-1.3 0-2-.1-.3-.1-.7-.2-1-.1-.3-.2-.6-.4-1-.2-.3-.3-.6-.5-.9-.2-.3-.4-.6-.7-.8-.5-.6-1.2-1-1.8-1.4-.7-.4-1.5-.8-2.3-1-.8-.3-1.7-.4-2.5-.5-1.8-.2-3.6-.1-5.4.1l-4.5.6c.4 3.4-.1 6.8-1.5 10l4.2 1.9c1.6.8 3.3 1.4 5.1 1.8.9.2 1.7.3 2.6.3.6-.2 1.4-.3 2.3-.5z" class="st1"/>
              <path id="Path_10728_9_" d="M86.9 212c-.9 0-1.8-.1-2.7-.3-1.8-.4-3.6-1-5.2-1.8l-4.2-1.9c-.2-.1-.3-.3-.2-.5 1.4-3 1.9-6.4 1.5-9.7 0-.2.1-.4.3-.4l4.5-.6c1.8-.3 3.6-.3 5.5-.1.9.1 1.8.3 2.6.5.8.3 1.6.6 2.4 1 .7.4 1.3.9 1.9 1.5.3.3.5.6.7.9l.6.9c.2.3.3.7.4 1 .1.3.2.7.2 1 .1.7.1 1.4 0 2.1-.2 1.4-.9 2.7-1.9 3.8-1.1 1.1-2.5 1.9-4 2.2-.7.3-1.5.4-2.4.4zm-11.4-4.5 3.8 1.8c1.6.8 3.3 1.4 5 1.7.8.2 1.7.2 2.5.3.8 0 1.6-.1 2.4-.3 1.4-.3 2.7-1 3.7-2 .9-.9 1.5-2.1 1.6-3.3.1-.6.1-1.2 0-1.9-.1-.3-.1-.6-.2-.9-.1-.3-.2-.6-.4-.9-.2-.3-.3-.6-.5-.9-.2-.3-.4-.5-.7-.8-.5-.5-1.1-1-1.7-1.4-.7-.4-1.4-.7-2.2-1-.8-.2-1.6-.4-2.5-.5-1.8-.2-3.5-.1-5.3.1l-4.2.5c.5 3.2 0 6.5-1.3 9.5z"/>
            </g>
          </g>
          <g id="Group_8913_9_">
            <g id="Group_8912_9_">
              <path id="Path_10729_9_" d="M78.3 226.3c.7.3 1.5.4 2.3.5.7 0 1.4 0 2.1-.2.7-.2 1.3-.4 1.9-.8.3-.2.6-.4.8-.6.3-.2.5-.4.7-.7.2-.2.4-.5.6-.8.2-.3.3-.6.5-.9.3-.6.4-1.3.5-2 .1-.7 0-1.4-.1-2.1-.1-.8-.4-1.5-.8-2.2-.2-.4-.4-.7-.6-1.1-.2-.4-.5-.7-.8-1-.6-.7-1.2-1.3-1.8-1.8-1.4-1.1-2.9-2.1-4.6-2.8l-4.1-2c-1.5 3.1-3.8 5.7-6.7 7.6l2.5 3.9c.9 1.5 2.1 3 3.4 4.2.6.6 1.3 1.1 2 1.6.4.2.7.4 1.1.6.3.3.7.5 1.1.6z" class="st1"/>
              <path id="Path_10730_9_" d="M81.1 227.2h-.5c-.8 0-1.6-.2-2.4-.5-.4-.1-.8-.3-1.2-.5-.4-.2-.8-.4-1.1-.7-.7-.5-1.4-1-2.1-1.7-1.3-1.3-2.5-2.7-3.4-4.3l-2.5-3.8c-.1-.1-.1-.2-.1-.3 0-.1.1-.2.2-.2 2.8-1.8 5.1-4.4 6.5-7.4 0-.1.1-.2.2-.2h.3l4.1 2c1.7.8 3.2 1.7 4.7 2.9.7.6 1.3 1.2 1.9 1.9.3.3.5.7.8 1.1.2.4.5.7.6 1.1.4.7.6 1.5.8 2.3.1.7.2 1.5.1 2.2-.1.7-.3 1.4-.5 2.1-.1.3-.3.6-.5.9-.2.3-.4.6-.6.8-.2.3-.5.5-.7.7l-.9.6c-.6.4-1.3.6-2 .8-.6.1-1.2.2-1.7.2zm-2.7-1.2c.7.2 1.4.4 2.2.4.7 0 1.3 0 2-.2.6-.1 1.2-.4 1.8-.7.3-.2.5-.3.8-.5.2-.2.5-.4.7-.6.2-.2.4-.5.6-.7.2-.3.3-.5.4-.8.3-.6.4-1.2.5-1.8.1-.7 0-1.4-.1-2-.1-.7-.4-1.4-.7-2.1-.2-.4-.4-.7-.6-1-.2-.3-.5-.7-.7-1-.5-.6-1.1-1.2-1.8-1.8-1.4-1.1-2.9-2-4.5-2.8l-3.8-1.8c-1.5 2.9-3.6 5.4-6.3 7.2l2.3 3.5c.9 1.5 2 2.9 3.3 4.2.6.6 1.3 1.1 2 1.6.3.2.7.4 1.1.6.1 0 .5.1.8.3z"/>
            </g>
          </g>
          <g id="Group_8915_9_">
            <g id="Group_8914_9_">
              <path id="Path_10731_9_" d="M60.9 233c.5.6 1 1.1 1.6 1.6.6.4 1.2.8 1.9 1 1.9.7 4 .4 5.7-.7.6-.4 1.1-.8 1.5-1.4.4-.6.8-1.2 1.1-1.9.3-.7.5-1.5.6-2.3.1-.8.1-1.7 0-2.5-.1-.9-.3-1.7-.6-2.5-.6-1.7-1.4-3.3-2.3-4.8l-2.4-3.9c-.4.2-.7.4-1.1.6-.4.2-.8.4-1.1.5l-2.4.9-.6.2c-.2.1-.4.1-.6.1-.4.1-.8.1-1.3.2-.8.1-1.7.2-2.6.2v4.6c0 1.8.1 3.6.5 5.4.3 1.8 1 3.3 2.1 4.7z" class="st1"/>
              <path id="Path_10732_9_" d="M66.6 236.4c-.8 0-1.6-.1-2.3-.4-.7-.3-1.4-.6-2-1.1-.6-.5-1.2-1-1.7-1.7-1.1-1.4-1.8-3-2.2-4.8-.4-1.8-.6-3.6-.6-5.5v-4.6c0-.2.2-.4.4-.4.8 0 1.7-.1 2.5-.2.1 0 .3 0 .4-.1.3 0 .5-.1.8-.1.1 0 .2 0 .3-.1.1 0 .2 0 .3-.1l.6-.2c.8-.2 1.6-.5 2.3-.8.2-.1.4-.2.7-.3.1-.1.3-.1.4-.2.1-.1.3-.2.4-.2.2-.1.4-.2.6-.4.2-.1.4-.1.5.1l2.4 3.9c1 1.5 1.8 3.2 2.4 4.9.3.8.5 1.7.6 2.6.1.9.1 1.7 0 2.6-.1.8-.3 1.6-.6 2.4-.3.7-.7 1.4-1.1 1.9-.5.6-1 1.1-1.6 1.5-.6.4-1.2.7-1.9.9-.4.3-1 .4-1.6.4zm-5.4-3.6c.5.6 1 1.1 1.6 1.5.5.4 1.1.7 1.8.9 1.8.6 3.8.4 5.4-.7.5-.4 1-.8 1.4-1.3.4-.5.8-1.1 1-1.8.3-.7.4-1.4.5-2.2.1-.8.1-1.6 0-2.4-.1-.8-.3-1.6-.6-2.4-.6-1.7-1.3-3.3-2.3-4.8l-2.2-3.6c-.1.1-.2.1-.4.2s-.3.1-.4.2c-.1.1-.3.1-.4.2-.2.1-.5.2-.7.3-.8.4-1.6.6-2.4.9l-.6.2c-.1 0-.3.1-.4.1h-.2c-.3.1-.6.1-.8.2-.1 0-.3 0-.4.1-.7.1-1.5.2-2.2.2v4.2c0 1.8.1 3.6.5 5.3.1 1.8.8 3.3 1.8 4.7z"/>
            </g>
          </g>
          <g id="Group_8917_9_">
            <g id="Group_8916_9_">
              <path id="Path_10733_9_" d="M42.6 229.2c.1 1.5.7 2.9 1.6 4.1.4.5.9 1 1.5 1.4.5.4 1.1.7 1.8.9.3.1.6.2 1 .2.3 0 .7.1 1 .1.3 0 .7 0 1-.1.3-.1.7-.2 1-.3.3-.1.7-.2 1-.4l.9-.6c.3-.2.6-.5.9-.7.3-.3.6-.6.8-.9 1.1-1.3 1.8-2.9 2.2-4.6.4-1.7.6-3.5.6-5.3l.1-4.6c-3.4-.1-6.8-1.1-9.6-2.9l-2.5 3.8c-1 1.5-1.8 3.1-2.5 4.8-.3.8-.5 1.7-.6 2.5-.3.9-.3 1.8-.2 2.6z" class="st1"/>
              <path id="Path_10734_9_" d="M49.2 236.2c-.3 0-.6 0-.9-.1-.3-.1-.7-.1-1-.2-.7-.2-1.3-.5-1.9-.9-.6-.4-1.1-.9-1.6-1.5-.9-1.3-1.5-2.7-1.6-4.3-.1-.9-.1-1.8.1-2.6.1-.9.4-1.7.6-2.6.6-1.7 1.5-3.4 2.5-4.9l2.5-3.8c.1-.2.3-.2.5-.1 2.8 1.8 6.1 2.8 9.4 2.9.2 0 .4.2.4.4l-.1 4.6c0 1.8-.2 3.6-.7 5.4-.4 1.7-1.2 3.3-2.3 4.7-.3.3-.5.6-.8.9-.3.3-.6.5-.9.8-.3.2-.6.4-1 .6-.3.2-.7.3-1 .4-.3.1-.7.2-1.1.3-.4.1-.7.1-1.1.1v-.1zm-.8-20.2-2.3 3.5c-1 1.5-1.8 3.1-2.4 4.7-.3.8-.5 1.6-.6 2.5-.1.8-.2 1.6-.1 2.4.1 1.4.6 2.8 1.5 3.9.4.5.9.9 1.4 1.3.5.4 1.1.6 1.7.8.3.1.6.2.9.2.6.1 1.3.1 1.9 0 .3-.1.6-.1.9-.2.3-.1.6-.2.9-.4.3-.2.6-.3.9-.5.3-.2.6-.4.8-.7l.8-.8c1-1.3 1.7-2.8 2.1-4.4.4-1.7.6-3.5.6-5.2l.1-4.2c-3.2-.2-6.4-1.2-9.1-2.9z"/>
            </g>
          </g>
          <g id="Group_8919_9_">
            <g id="Group_8918_9_">
              <path id="Path_10735_9_" d="M29.3 216.1c-.2.4-.3.7-.5 1.1-.1.4-.2.7-.3 1.1-.2.7-.2 1.4-.1 2.1 0 .3.1.7.2 1 .1.3.2.6.3 1 .1.3.3.6.5.9.2.3.4.5.6.8.2.3.4.5.7.7.3.2.5.4.8.6.6.4 1.2.6 1.9.8 1.5.3 3 .3 4.4-.2.4-.1.8-.3 1.2-.5.4-.2.8-.4 1.1-.6.7-.5 1.4-1 2.1-1.6 1.3-1.2 2.5-2.6 3.4-4.1l2.5-3.8c-2.8-1.9-5.1-4.6-6.5-7.7l-4.2 1.9c-1.7.7-3.2 1.6-4.7 2.7-1.5 1-2.6 2.3-3.4 3.8z" class="st1"/>
              <path id="Path_10736_9_" d="M35 226.7c-.6 0-1.2-.1-1.8-.2-.7-.2-1.4-.5-2-.8-.3-.2-.6-.4-.8-.6-.3-.2-.5-.5-.7-.7-.5-.5-.8-1.1-1.1-1.8-.1-.3-.3-.7-.3-1-.1-.4-.1-.7-.2-1.1-.1-.7 0-1.5.1-2.2.1-.4.2-.8.3-1.1.1-.4.3-.8.5-1.1.8-1.6 2-2.9 3.4-4 1.5-1.1 3.1-2 4.8-2.8l4.2-1.9h.3c.1 0 .2.1.2.2 1.4 3 3.6 5.6 6.4 7.5.2.1.2.4.1.5l-2.5 3.8c-1 1.5-2.2 3-3.5 4.2-.7.6-1.4 1.1-2.1 1.6l-1.2.6c-.4.2-.8.3-1.2.5-1 .3-1.9.4-2.9.4zm6.2-18.6-3.8 1.7c-1.6.7-3.2 1.6-4.6 2.7-1.3 1-2.4 2.3-3.2 3.7-.2.3-.3.7-.5 1-.1.3-.2.7-.3 1-.1.7-.2 1.3-.1 2 0 .3.1.6.2 1l.3.9c.1.3.3.6.4.8.2.3.4.5.6.7.2.2.4.5.6.7.2.2.5.4.8.5.5.3 1.1.6 1.8.7 1.4.3 2.8.2 4.2-.2.4-.1.8-.3 1.1-.4.4-.2.7-.4 1.1-.6.7-.4 1.4-1 2-1.5 1.3-1.2 2.4-2.6 3.4-4.1l2.3-3.5c-2.7-1.6-4.8-4.1-6.3-7.1zm-11.9 8z"/>
            </g>
          </g>
          <g id="Group_8921_9_">
            <g id="Group_8920_9_">
              <path id="Path_10737_9_" d="M25.1 197.9c-.7.4-1.3.9-1.8 1.4-.5.5-.9 1.1-1.3 1.7-.3.6-.5 1.2-.6 1.9-.2 1.3 0 2.7.5 3.9.3.6.7 1.2 1.1 1.7.5.5 1.1 1 1.7 1.3.7.4 1.4.7 2.2.9.8.2 1.7.3 2.5.3.9 0 1.7-.1 2.6-.2 1.8-.3 3.5-.9 5.1-1.6l4.2-1.8c-1.4-3.1-1.8-6.6-1.3-10l-4.5-.7c-1.8-.3-3.6-.4-5.4-.2-.9.1-1.7.2-2.6.5-.8.2-1.6.5-2.4.9z" class="st1"/>
              <path id="Path_10738_9_" d="M29.6 211.4h-.2c-.9 0-1.7-.1-2.6-.3-.8-.2-1.5-.5-2.2-.9-.6-.4-1.2-.8-1.8-1.4-.5-.5-.9-1.1-1.2-1.8-.6-1.3-.8-2.7-.6-4.1.1-.7.4-1.4.7-2 .4-.7.8-1.3 1.3-1.8.6-.6 1.2-1.1 1.9-1.5.8-.4 1.6-.8 2.4-1 .9-.2 1.7-.4 2.6-.5 1.8-.1 3.7-.1 5.5.2l4.6.7c.2 0 .4.2.3.4-.5 3.3 0 6.7 1.3 9.8.1.2 0 .4-.2.5l-4.2 1.8c-1.7.8-3.4 1.3-5.2 1.7-.7.1-1.6.2-2.4.2zm-4.3-13.1c-.6.4-1.2.8-1.8 1.3-.5.5-.9 1-1.2 1.6-.3.6-.5 1.2-.6 1.8-.2 1.2 0 2.5.5 3.6.3.6.6 1.1 1.1 1.6.5.5 1 .9 1.6 1.3.6.4 1.3.6 2.1.8.8.2 1.6.3 2.4.3.8 0 1.7-.1 2.5-.2 1.7-.3 3.4-.9 5-1.6l3.8-1.7c-1.2-3-1.7-6.3-1.3-9.5l-4.2-.6c-1.8-.3-3.5-.4-5.3-.2-.8.1-1.7.2-2.5.5-.6.2-1.4.5-2.1 1z"/>
            </g>
          </g>
          <g id="Group_8923_9_">
            <g id="Group_8922_9_">
              <path id="Path_10739_9_" d="M31.5 180.4c-1.5-.1-3 .2-4.3 1-.6.3-1.1.8-1.6 1.3-.2.2-.4.5-.6.8-.2.3-.3.6-.5.9-.3.6-.5 1.2-.5 1.9 0 .3-.1.7-.1 1 0 .3.1.7.1 1 .1.7.4 1.4.7 2 .2.3.4.7.6 1 .2.3.5.6.8.9 1.2 1.2 2.6 2.2 4.2 2.8 1.7.7 3.4 1.1 5.2 1.4l4.5.6c.6-3.4 2-6.5 4.3-9.1l-3.5-3c-1.3-1.2-2.8-2.3-4.4-3.1-.8-.4-1.6-.7-2.4-1l-1.2-.3c-.4-.1-.9-.1-1.3-.1z" class="st1"/>
              <path id="Path_10740_9_" d="m40 197.4-4.6-.7c-1.8-.3-3.6-.7-5.3-1.4-1.6-.7-3.1-1.7-4.3-2.9-.3-.3-.5-.6-.8-1-.2-.3-.4-.7-.6-1-.4-.7-.6-1.4-.7-2.1-.1-.4-.1-.7-.1-1.1 0-.4 0-.7.1-1.1 0-.3.1-.7.2-1 .1-.3.2-.7.4-1 .1-.3.3-.6.5-.9.2-.3.4-.6.7-.8.5-.5 1-1 1.7-1.3 1.4-.8 2.9-1.1 4.5-1 .4 0 .9.1 1.3.1.4.1.9.2 1.3.3.9.3 1.7.6 2.5 1 1.6.9 3.1 1.9 4.5 3.2l3.5 3c.2.1.2.4 0 .5-2.2 2.5-3.6 5.6-4.2 8.9 0 .1-.1.2-.2.3H40zm-8.9-16.7c-1.3 0-2.5.3-3.6.9-.6.3-1.1.7-1.5 1.2-.2.2-.4.5-.6.7-.2.3-.3.5-.4.8l-.3.9c-.1.3-.1.6-.2.9 0 .3-.1.6-.1.9 0 .3.1.7.1 1 .1.7.3 1.3.7 1.9.2.3.3.6.6.9.2.3.5.6.7.9 1.1 1.2 2.5 2.1 4.1 2.7 1.6.7 3.3 1.1 5.1 1.4l4.1.7c.6-3.2 2-6.2 4.1-8.6l-3.2-2.7c-1.3-1.2-2.8-2.2-4.3-3.1-.7-.4-1.5-.7-2.3-1l-1.2-.3c-.4-.1-.8-.1-1.2-.1h-.6z"/>
            </g>
          </g>
          <g id="Group_8925_9_">
            <g id="Group_8924_9_">
              <path id="Path_10741_9_" d="M46.4 169c-.3-.2-.7-.4-1-.6-.3-.2-.7-.3-1-.5-.3-.1-.7-.2-1-.3-.3-.1-.7-.1-1-.1h-1c-.3 0-.7.1-1 .2l-.9.3c-.3.1-.6.3-.9.5-.6.4-1.1.8-1.5 1.3-.4.5-.8 1.1-1 1.7-.5 1.4-.7 2.9-.4 4.4.1.8.4 1.6.7 2.4.4.8.8 1.5 1.3 2.3 1 1.5 2.2 2.8 3.6 4l3.4 3.1c2.3-2.5 5.2-4.4 8.5-5.4l-1.3-4.4c-.5-1.7-1.1-3.4-2-5-1-1.5-2.2-2.8-3.5-3.9z" class="st1"/>
              <path id="Path_10742_9_" d="M44.5 188c-.1 0-.2 0-.3-.1l-3.4-3.1c-1.4-1.2-2.6-2.6-3.7-4.1-.5-.7-.9-1.5-1.3-2.3-.4-.8-.6-1.6-.8-2.5-.3-1.5-.2-3.1.4-4.6.3-.7.6-1.3 1.1-1.8.4-.5 1-1 1.6-1.4.3-.2.6-.3.9-.5.3-.1.7-.3 1-.3.3-.1.7-.2 1-.2h1.1c.4 0 .7.1 1.1.1.4.1.7.2 1.1.3.4.1.7.3 1.1.5.4.2.7.4 1.1.7 1.4 1.1 2.6 2.4 3.5 4 .9 1.6 1.6 3.3 2.1 5.1l1.3 4.4c.1.2-.1.4-.3.5-3.2.9-6.1 2.8-8.3 5.3h-.3zm-2.6-20.1h-.6c-.6.1-1.2.2-1.8.5-.3.1-.6.3-.8.4-.5.3-1 .7-1.4 1.2-.4.5-.7 1-1 1.6-.5 1.3-.6 2.8-.4 4.2.1.8.4 1.6.7 2.3.3.8.8 1.5 1.2 2.2 1 1.4 2.2 2.8 3.5 3.9l3.1 2.8c2.2-2.4 5-4.1 8.1-5.1l-1.2-4c-.5-1.7-1.1-3.4-2-4.9-.8-1.5-1.9-2.7-3.2-3.7-.3-.2-.6-.4-1-.6-.3-.2-.6-.3-1-.4-.3-.1-.7-.2-1-.3-.3-.1-.7-.1-1-.1h-.2z"/>
            </g>
          </g>
          <g id="Group_8927_9_">
            <g id="Group_8926_9_">
              <path id="Path_10743_9_" d="M65 167.5c-.3-.7-.7-1.4-1.1-2-.4-.6-.9-1.1-1.5-1.5-.6-.4-1.2-.7-1.8-.9-1.9-.6-4.1-.3-5.7.9-.6.4-1.1.9-1.5 1.5-.5.6-.9 1.3-1.2 2-.6 1.6-.9 3.3-.8 5 .1 1.8.4 3.6.9 5.3l1.2 4.4c.8-.2 1.7-.4 2.5-.5.4 0 .9-.1 1.3-.1h1.2c.8 0 1.7.1 2.5.2.4 0 .8.2 1.3.2l1.2.3 1.3-4.4c.6-1.7.9-3.5 1-5.3 0-.9 0-1.7-.1-2.6-.2-.8-.4-1.7-.7-2.5z" class="st1"/>
              <path id="Path_10744_9_" d="M63.4 182.7h-.1c-.2-.1-.5-.1-.7-.2-.2 0-.3-.1-.5-.1s-.3-.1-.5-.1c-.3-.1-.5-.1-.7-.1-.8-.1-1.7-.2-2.5-.2h-1.3c-.3 0-.5 0-.8.1h-.4c-.8.1-1.6.3-2.4.5h-.3c-.1-.1-.2-.1-.2-.2l-1.2-4.4c-.5-1.8-.8-3.6-.9-5.4-.1-1.8.2-3.5.9-5.2.3-.7.7-1.4 1.2-2.1.5-.6 1-1.1 1.6-1.6 1.8-1.3 4-1.6 6.1-.9.7.2 1.3.6 1.9 1 .6.4 1.2 1 1.6 1.6.5.6.9 1.4 1.2 2.1.3.8.5 1.7.7 2.5.1.9.2 1.8.1 2.7-.1 1.8-.5 3.7-1 5.4l-1.3 4.4c0 .1-.1.2-.2.2h-.3zm-2.4-1.3c.3 0 .5.1.8.1.2 0 .3.1.5.1s.3.1.5.1.3.1.4.1l1.2-4c.5-1.7.9-3.5 1-5.2 0-.8 0-1.7-.1-2.5s-.3-1.6-.6-2.4c-.3-.7-.6-1.3-1.1-1.9-.4-.5-.9-1-1.4-1.4-.5-.4-1.1-.7-1.7-.9-.6-.2-1.2-.3-1.8-.3-1.3 0-2.5.4-3.5 1.1-.6.4-1 .9-1.5 1.4-.5.6-.8 1.2-1.1 1.9-.6 1.5-.9 3.2-.8 4.9.1 1.8.4 3.5.9 5.2l1.1 4c.7-.2 1.4-.3 2.2-.4h.4c.3 0 .6-.1.9-.1H58.5c.8 0 1.6 0 2.5.2z"/>
            </g>
          </g>
          <g id="Group_8929_9_">
            <g id="Group_8928_9_">
              <path id="Path_10745_9_" d="M81.4 176.3c.2-.8.2-1.5.1-2.3-.1-.7-.2-1.4-.5-2.1-.2-.6-.6-1.2-1-1.7-.2-.3-.4-.5-.7-.7-.2-.2-.5-.4-.8-.6-.3-.2-.6-.3-.9-.5l-.9-.3c-.7-.2-1.3-.3-2-.2-.7 0-1.4.2-2.1.4-.7.3-1.4.6-2.1 1.1-.3.2-.7.5-1 .8l-.9.9c-.6.6-1.1 1.3-1.5 2.1-.9 1.6-1.6 3.2-2.1 4.9l-1.4 4.4c3.3 1 6.2 3 8.4 5.5l3.5-3c1.4-1.2 2.6-2.5 3.7-3.9.5-.7.9-1.5 1.3-2.2.2-.4.3-.8.5-1.2.3-.5.4-.9.4-1.4z" class="st1"/>
              <path id="Path_10746_9_" d="M72.2 188.3c-.1 0-.2-.1-.3-.1-2.2-2.5-5.1-4.4-8.3-5.4-.2-.1-.3-.3-.3-.5l1.4-4.4c.5-1.8 1.2-3.4 2.2-5 .5-.8 1-1.5 1.6-2.1l.9-.9c.3-.3.7-.6 1-.8.7-.5 1.4-.8 2.2-1.1.7-.3 1.5-.4 2.2-.4.7 0 1.4 0 2.1.2.3.1.7.2 1 .3.3.1.6.3.9.5.3.2.6.4.8.6.3.2.5.5.7.8.5.6.8 1.2 1.1 1.8.3.7.4 1.4.5 2.2.1.8 0 1.6-.1 2.4-.1.4-.2.8-.3 1.3-.1.4-.3.8-.5 1.2-.4.8-.8 1.6-1.3 2.3-1.1 1.5-2.4 2.8-3.8 4l-3.5 3c-.1.1-.1.1-.2.1zm-8-6.2c3.1 1 5.8 2.9 8 5.2l3.2-2.7c1.4-1.1 2.6-2.4 3.7-3.9.5-.7.9-1.4 1.3-2.2.2-.4.3-.8.5-1.1l.3-1.2c.1-.7.2-1.5.1-2.2 0-.7-.2-1.3-.4-2-.2-.6-.6-1.1-1-1.6-.2-.2-.4-.5-.6-.7-.2-.2-.5-.4-.7-.6-.3-.2-.5-.3-.8-.4l-.9-.3c-.6-.2-1.3-.2-1.9-.2-.7 0-1.3.2-2 .4s-1.4.6-2 1c-.3.2-.6.5-.9.7l-.9.9c-.6.6-1.1 1.3-1.5 2-.9 1.5-1.6 3.2-2.1 4.8l-1.4 4.1zm17.2-5.8z"/>
            </g>
          </g>
          <g id="Group_8931_9_">
            <g id="Group_8930_9_">
              <path id="Path_10747_9_" d="M90.5 192.7c.5-.6 1-1.2 1.4-1.9.2-.3.3-.7.4-1 .1-.3.2-.7.3-1 .1-.3.1-.7.1-1v-1c-.1-.7-.2-1.3-.5-1.9-.6-1.2-1.5-2.3-2.7-2.9-1.3-.7-2.8-1.1-4.3-1-.8 0-1.7.2-2.5.4s-1.6.5-2.4.9c-1.6.8-3.1 1.8-4.5 3l-3.5 2.9c2.2 2.6 3.6 5.8 4.1 9.2l4.5-.6c1.8-.2 3.6-.7 5.2-1.3.8-.3 1.6-.7 2.3-1.2.9-.5 1.5-1 2.1-1.6z" class="st1"/>
              <path id="Path_10748_9_" d="M76.5 197.8c-.1 0-.2 0-.2-.1-.1-.1-.1-.2-.2-.3-.5-3.3-1.9-6.4-4-9-.1-.2-.1-.4 0-.5l3.5-2.9c1.4-1.2 2.9-2.2 4.5-3.1.8-.4 1.6-.7 2.5-1 .8-.2 1.7-.4 2.6-.4 1.6-.1 3.1.3 4.5 1.1 1.2.7 2.2 1.8 2.8 3.1.3.6.5 1.3.6 2 0 .3.1.7 0 1.1 0 .4-.1.7-.1 1.1-.1.4-.2.7-.3 1.1-.1.4-.3.7-.5 1-.4.7-.9 1.4-1.4 2-.6.6-1.3 1.2-2 1.6-.8.5-1.6.9-2.4 1.2-1.7.7-3.5 1.1-5.3 1.3l-4.6.7zm-3.6-9.6c2 2.5 3.4 5.5 3.9 8.7l4.2-.6c1.8-.2 3.5-.6 5.2-1.3.8-.3 1.5-.7 2.3-1.1.7-.4 1.3-1 1.9-1.5.5-.5 1-1.1 1.3-1.8.2-.3.3-.6.4-.9.1-.3.2-.6.3-1 .1-.3.1-.6.1-1v-.9c-.1-.6-.2-1.2-.5-1.8-.5-1.2-1.4-2.1-2.5-2.8-1.2-.7-2.7-1-4.1-1-.8 0-1.6.2-2.4.4-.8.2-1.6.5-2.3.9-1.6.8-3 1.8-4.4 3l-3.4 2.7z"/>
            </g>
          </g>
        </g>
      </g>
      <g id="Group_8934_9_">
        <circle id="Ellipse_4009_9_" cx="58.5" cy="200.1" r="18.7" class="st2"/>
        <path id="Path_10749_9_" d="M58.5 219.2c-10.6 0-19.1-8.6-19.1-19.1 0-10.6 8.6-19.1 19.1-19.1 10.6 0 19.1 8.6 19.1 19.1 0 9.6-7.1 17.7-16.6 18.9-.8.1-1.7.2-2.5.2zm-18.1-16.7c1.3 10 10.6 17.1 20.6 15.7 10-1.3 17.1-10.6 15.7-20.6s-10.6-17-20.6-15.6c-4.8.6-9.2 3.2-12.1 7-3 3.8-4.3 8.7-3.6 13.5z"/>
      </g>
    </g>
    <g id="Group_8936_9_">
      <path id="Path_10750_9_" d="M47.7 208z"/>
    </g>
  </g>
  <g id="Group_8937_8_">
    <g id="Group_8935_8_">
      <g id="Group_8933_8_">
        <g id="Group_8932_8_">
          <g id="Group_8911_8_">
            <g id="Group_8910_8_">
              <path id="Path_10727_8_" d="M234.2 211.5c1.5-.3 2.8-1.1 3.8-2.1.9-1 1.6-2.2 1.8-3.5.1-.7.1-1.3 0-2-.1-.3-.1-.7-.2-1-.1-.3-.2-.6-.4-1-.2-.3-.3-.6-.5-.9-.2-.3-.4-.6-.7-.8-.5-.6-1.2-1-1.8-1.4-.7-.4-1.5-.8-2.3-1-.8-.3-1.7-.4-2.5-.5-1.8-.2-3.6-.1-5.4.1l-4.5.6c.4 3.4-.1 6.8-1.5 10l4.2 1.9c1.6.8 3.3 1.4 5.1 1.8.9.2 1.7.3 2.6.3.7-.2 1.5-.3 2.3-.5z" class="st1"/>
              <path id="Path_10728_8_" d="M231.8 212.2c-.9 0-1.8-.1-2.7-.3-1.8-.4-3.6-1-5.2-1.8l-4.2-1.9c-.2-.1-.3-.3-.2-.5 1.4-3 1.9-6.4 1.5-9.7 0-.2.1-.4.3-.4l4.5-.6c1.8-.3 3.6-.3 5.5-.1.9.1 1.8.3 2.6.5.8.3 1.6.6 2.4 1 .7.4 1.3.9 1.9 1.5.3.3.5.6.7.9l.6.9c.2.3.3.7.4 1 .1.3.2.7.2 1 .1.7.1 1.4 0 2.1-.2 1.4-.9 2.7-1.9 3.8-1.1 1.1-2.5 1.9-4 2.2-.7.3-1.6.4-2.4.4zm-11.4-4.5 3.8 1.8c1.6.8 3.3 1.4 5 1.7.8.2 1.7.2 2.5.3.8 0 1.6-.1 2.4-.3 1.4-.3 2.7-1 3.7-2 .9-.9 1.5-2.1 1.6-3.3.1-.6.1-1.2 0-1.9-.1-.3-.1-.6-.2-.9-.1-.3-.2-.6-.4-.9-.2-.3-.3-.6-.5-.9-.2-.3-.4-.5-.7-.8-.5-.5-1.1-1-1.7-1.4-.7-.4-1.4-.7-2.2-1-.8-.2-1.6-.4-2.5-.5-1.8-.2-3.5-.1-5.3.1l-4.2.5c.4 3.3 0 6.5-1.3 9.5z"/>
            </g>
          </g>
          <g id="Group_8913_8_">
            <g id="Group_8912_8_">
              <path id="Path_10729_8_" d="M223.2 226.5c.7.3 1.5.4 2.3.5.7 0 1.4 0 2.1-.2.7-.2 1.3-.4 1.9-.8.3-.2.6-.4.8-.6.3-.2.5-.4.7-.7.2-.2.4-.5.6-.8.2-.3.3-.6.5-.9.3-.6.4-1.3.5-2 .1-.7 0-1.4-.1-2.1-.1-.8-.4-1.5-.8-2.2-.2-.4-.4-.7-.6-1.1-.2-.4-.5-.7-.8-1-.6-.7-1.2-1.3-1.8-1.8-1.4-1.1-2.9-2.1-4.6-2.8l-4.1-2c-1.5 3.1-3.8 5.7-6.7 7.6l2.5 3.9c.9 1.5 2.1 3 3.4 4.2.6.6 1.3 1.1 2 1.6.4.2.7.4 1.1.6.3.3.7.5 1.1.6z" class="st1"/>
              <path id="Path_10730_8_" d="M225.9 227.4h-.5c-.8 0-1.6-.2-2.4-.5-.4-.1-.8-.3-1.2-.5-.4-.2-.8-.4-1.1-.7-.7-.5-1.4-1-2.1-1.7-1.3-1.3-2.5-2.7-3.4-4.3l-2.5-3.8c-.1-.1-.1-.2-.1-.3 0-.1.1-.2.2-.2 2.8-1.8 5.1-4.4 6.5-7.4 0-.1.1-.2.2-.2h.3l4.1 2c1.7.8 3.2 1.7 4.7 2.9.7.6 1.3 1.2 1.9 1.9.3.3.5.7.8 1.1.2.4.5.7.6 1.1.4.7.6 1.5.8 2.3.1.7.2 1.5.1 2.2-.1.7-.3 1.4-.5 2.1-.1.3-.3.6-.5.9-.2.3-.4.6-.6.8-.2.3-.5.5-.7.7l-.9.6c-.6.4-1.3.6-2 .8-.5.1-1.1.2-1.7.2zm-2.6-1.2c.7.2 1.4.4 2.2.4.7 0 1.3 0 2-.2.6-.1 1.2-.4 1.8-.7.3-.2.5-.3.8-.5.2-.2.5-.4.7-.6.2-.2.4-.5.6-.7.2-.3.3-.5.4-.8.3-.6.4-1.2.5-1.8.1-.7 0-1.4-.1-2-.1-.7-.4-1.4-.7-2.1-.2-.4-.4-.7-.6-1-.2-.3-.5-.7-.7-1-.5-.6-1.1-1.2-1.8-1.8-1.4-1.1-2.9-2-4.5-2.8l-3.8-1.8c-1.5 2.9-3.6 5.4-6.3 7.2l2.3 3.5c.9 1.5 2 2.9 3.3 4.2.6.6 1.3 1.1 2 1.6.3.2.7.4 1.1.6.1 0 .4.1.8.3z"/>
            </g>
          </g>
          <g id="Group_8915_8_">
            <g id="Group_8914_8_">
              <path id="Path_10731_8_" d="M205.7 233.2c.5.6 1 1.1 1.6 1.6.6.4 1.2.8 1.9 1 1.9.7 4 .4 5.7-.7.6-.4 1.1-.8 1.5-1.4.4-.6.8-1.2 1.1-1.9.3-.7.5-1.5.6-2.3.1-.8.1-1.7 0-2.5-.1-.9-.3-1.7-.6-2.5-.6-1.7-1.4-3.3-2.3-4.8l-2.4-3.9c-.4.2-.7.4-1.1.6-.4.2-.8.4-1.1.5l-2.4.9-.6.2c-.2.1-.4.1-.6.1-.4.1-.8.1-1.3.2-.8.1-1.7.2-2.6.2v4.6c0 1.8.1 3.6.5 5.4.4 1.8 1.1 3.3 2.1 4.7z" class="st1"/>
              <path id="Path_10732_8_" d="M211.5 236.6c-.8 0-1.6-.1-2.3-.4-.7-.3-1.4-.6-2-1.1-.6-.5-1.2-1-1.7-1.7-1.1-1.4-1.8-3-2.2-4.8-.4-1.8-.6-3.6-.6-5.5v-4.6c0-.2.2-.4.4-.4.8 0 1.7-.1 2.5-.2.1 0 .3 0 .4-.1.3 0 .5-.1.8-.1.1 0 .2 0 .3-.1.1 0 .2 0 .3-.1l.6-.2c.8-.2 1.6-.5 2.3-.8.2-.1.4-.2.7-.3.1-.1.3-.1.4-.2.1-.1.3-.2.4-.2.2-.1.4-.2.6-.4.2-.1.4-.1.5.1l2.4 3.9c1 1.5 1.8 3.2 2.4 4.9.3.8.5 1.7.6 2.6.1.9.1 1.7 0 2.6-.1.8-.3 1.6-.6 2.4-.3.7-.7 1.4-1.1 1.9-.5.6-1 1.1-1.6 1.5-.6.4-1.2.7-1.9.9-.4.3-1 .4-1.6.4zm-5.4-3.6c.5.6 1 1.1 1.6 1.5.5.4 1.1.7 1.8.9 1.8.6 3.8.4 5.4-.7.5-.4 1-.8 1.4-1.3.4-.5.8-1.1 1-1.8.3-.7.4-1.4.5-2.2.1-.8.1-1.6 0-2.4-.1-.8-.3-1.6-.6-2.4-.6-1.7-1.3-3.3-2.3-4.8l-2.2-3.6c-.1.1-.2.1-.4.2-.1.1-.3.1-.4.2-.1.1-.3.1-.4.2-.2.1-.5.2-.7.3-.8.4-1.6.6-2.4.9l-.6.2c-.1 0-.3.1-.4.1h-.2c-.3.1-.6.1-.8.2-.1 0-.3 0-.4.1-.7.1-1.5.2-2.2.2v4.2c0 1.8.1 3.6.5 5.3 0 1.8.8 3.3 1.8 4.7z"/>
            </g>
          </g>
          <g id="Group_8917_8_">
            <g id="Group_8916_8_">
              <path id="Path_10733_8_" d="M187.5 229.4c.1 1.5.7 2.9 1.6 4.1.4.5.9 1 1.5 1.4.5.4 1.1.7 1.8.9.3.1.6.2 1 .2.3 0 .7.1 1 .1.3 0 .7 0 1-.1.3-.1.7-.2 1-.3.3-.1.7-.2 1-.4l.9-.6c.3-.2.6-.5.9-.7.3-.3.6-.6.8-.9 1.1-1.3 1.8-2.9 2.2-4.6.4-1.7.6-3.5.6-5.3l.1-4.6c-3.4-.1-6.8-1.1-9.6-2.9l-2.5 3.8c-1 1.5-1.8 3.1-2.5 4.8-.3.8-.5 1.7-.6 2.5-.3.9-.3 1.8-.2 2.6z" class="st1"/>
              <path id="Path_10734_8_" d="M194.1 236.4c-.3 0-.6 0-.9-.1-.3-.1-.7-.1-1-.2-.7-.2-1.3-.5-1.9-.9-.6-.4-1.1-.9-1.6-1.5-.9-1.3-1.5-2.7-1.6-4.3-.1-.9-.1-1.8.1-2.6.1-.9.4-1.7.6-2.6.6-1.7 1.5-3.4 2.5-4.9l2.5-3.8c.1-.2.3-.2.5-.1 2.8 1.8 6.1 2.8 9.4 2.9.2 0 .4.2.4.4l-.1 4.6c0 1.8-.2 3.6-.7 5.4-.4 1.7-1.2 3.3-2.3 4.7-.3.3-.5.6-.8.9-.3.3-.6.5-.9.8-.3.2-.6.4-1 .6-.3.2-.7.3-1 .4-.3.1-.7.2-1.1.3-.4.1-.7.1-1.1.1v-.1zm-.9-20.2-2.3 3.5c-1 1.5-1.8 3.1-2.4 4.7-.3.8-.5 1.6-.6 2.5-.1.8-.2 1.6-.1 2.4.1 1.4.6 2.8 1.5 3.9.4.5.9.9 1.4 1.3.5.4 1.1.6 1.7.8.3.1.6.2.9.2.6.1 1.3.1 1.9 0 .3-.1.6-.1.9-.2.3-.1.6-.2.9-.4.3-.2.6-.3.9-.5.3-.2.6-.4.8-.7l.8-.8c1-1.3 1.7-2.8 2.1-4.4.4-1.7.6-3.5.6-5.2l.1-4.2c-3.2-.2-6.3-1.2-9.1-2.9z"/>
            </g>
          </g>
          <g id="Group_8919_8_">
            <g id="Group_8918_8_">
              <path id="Path_10735_8_" d="M174.1 216.3c-.2.4-.3.7-.5 1.1-.1.4-.2.7-.3 1.1-.2.7-.2 1.4-.1 2.1 0 .3.1.7.2 1 .1.3.2.6.3 1 .1.3.3.6.5.9.2.3.4.5.6.8.2.3.4.5.7.7.3.2.5.4.8.6.6.4 1.2.6 1.9.8 1.5.3 3 .3 4.4-.2.4-.1.8-.3 1.2-.5.4-.2.8-.4 1.1-.6.7-.5 1.4-1 2.1-1.6 1.3-1.2 2.5-2.6 3.4-4.1l2.5-3.8c-2.8-1.9-5.1-4.6-6.5-7.7l-4.2 1.9c-1.7.7-3.2 1.6-4.7 2.7-1.4 1-2.5 2.3-3.4 3.8z" class="st1"/>
              <path id="Path_10736_8_" d="M179.9 226.9c-.6 0-1.2-.1-1.8-.2-.7-.2-1.4-.5-2-.8-.3-.2-.6-.4-.8-.6-.3-.2-.5-.5-.7-.7-.5-.5-.8-1.1-1.1-1.8-.1-.3-.3-.7-.3-1-.1-.4-.1-.7-.2-1.1-.1-.7 0-1.5.1-2.2.1-.4.2-.8.3-1.1.1-.4.3-.8.5-1.1.8-1.6 2-2.9 3.4-4 1.5-1.1 3.1-2 4.8-2.8l4.2-1.9h.3c.1 0 .2.1.2.2 1.4 3 3.6 5.6 6.4 7.5.2.1.2.4.1.5l-2.5 3.8c-1 1.5-2.2 3-3.5 4.2-.7.6-1.4 1.1-2.1 1.6l-1.2.6c-.4.2-.8.3-1.2.5-1 .3-2 .4-2.9.4zm6.2-18.5-3.8 1.7c-1.6.7-3.2 1.6-4.6 2.7-1.3 1-2.4 2.3-3.2 3.7-.2.3-.3.7-.5 1-.1.3-.2.7-.3 1-.1.7-.2 1.3-.1 2 0 .3.1.6.2 1l.3.9c.1.3.3.6.4.8.2.3.4.5.6.7.2.2.4.5.6.7.2.2.5.4.8.5.5.3 1.1.6 1.8.7 1.4.3 2.8.2 4.2-.2.4-.1.8-.3 1.1-.4.4-.2.7-.4 1.1-.6.7-.4 1.4-1 2-1.5 1.3-1.2 2.4-2.6 3.4-4.1l2.3-3.5c-2.7-1.7-4.9-4.2-6.3-7.1zm-12 7.9z"/>
            </g>
          </g>
          <g id="Group_8921_8_">
            <g id="Group_8920_8_">
              <path id="Path_10737_8_" d="M170 198.1c-.7.4-1.3.9-1.8 1.4-.5.5-.9 1.1-1.3 1.7-.3.6-.5 1.2-.6 1.9-.2 1.3 0 2.7.5 3.9.3.6.7 1.2 1.1 1.7.5.5 1.1 1 1.7 1.3.7.4 1.4.7 2.2.9.8.2 1.7.3 2.5.3.9 0 1.7-.1 2.6-.2 1.8-.3 3.5-.9 5.1-1.6l4.2-1.8c-1.4-3.1-1.8-6.6-1.3-10l-4.5-.7c-1.8-.3-3.6-.4-5.4-.2-.9.1-1.7.2-2.6.5-.9.2-1.7.5-2.4.9z" class="st1"/>
              <path id="Path_10738_8_" d="M174.5 211.6h-.2c-.9 0-1.7-.1-2.6-.3-.8-.2-1.5-.5-2.2-.9-.6-.4-1.2-.8-1.8-1.4-.5-.5-.9-1.1-1.2-1.8-.6-1.3-.8-2.7-.6-4.1.1-.7.4-1.4.7-2 .4-.7.8-1.3 1.3-1.8.6-.6 1.2-1.1 1.9-1.5.8-.4 1.6-.8 2.4-1 .9-.2 1.7-.4 2.6-.5 1.8-.1 3.7-.1 5.5.2l4.5.7c.2 0 .4.2.3.4-.5 3.3 0 6.7 1.3 9.8.1.2 0 .4-.2.5l-4.2 1.8c-1.7.8-3.4 1.3-5.2 1.7-.7.1-1.5.2-2.3.2zm-4.3-13.1c-.6.4-1.2.8-1.8 1.3-.5.5-.9 1-1.2 1.6-.3.6-.5 1.2-.6 1.8-.2 1.2 0 2.5.5 3.6.3.6.6 1.1 1.1 1.6.5.5 1 .9 1.6 1.3.6.4 1.3.6 2.1.8.8.2 1.6.3 2.4.3.8 0 1.7-.1 2.5-.2 1.7-.3 3.4-.9 5-1.6l3.8-1.7c-1.2-3-1.7-6.3-1.3-9.5l-4.2-.6c-1.8-.3-3.5-.4-5.3-.2-.8.1-1.7.2-2.5.5-.6.2-1.4.6-2.1 1z"/>
            </g>
          </g>
          <g id="Group_8923_8_">
            <g id="Group_8922_8_">
              <path id="Path_10739_8_" d="M176.4 180.6c-1.5-.1-3 .2-4.3 1-.6.3-1.1.8-1.6 1.3-.2.2-.4.5-.6.8-.2.3-.3.6-.5.9-.3.6-.5 1.2-.5 1.9 0 .3-.1.7-.1 1 0 .3.1.7.1 1 .1.7.4 1.4.7 2 .2.3.4.7.6 1 .2.3.5.6.8.9 1.2 1.2 2.6 2.2 4.2 2.8 1.7.7 3.4 1.1 5.2 1.4l4.5.7c.6-3.4 2-6.5 4.3-9.1l-3.5-3c-1.3-1.2-2.8-2.3-4.4-3.1-.8-.4-1.6-.7-2.4-1l-1.2-.3c-.5-.2-.9-.2-1.3-.2z" class="st1"/>
              <path id="Path_10740_8_" d="M184.9 197.6s-.1 0 0 0l-4.6-.7c-1.8-.3-3.6-.7-5.3-1.4-1.6-.7-3.1-1.7-4.3-2.9-.3-.3-.5-.6-.8-1-.2-.3-.4-.7-.6-1-.4-.7-.6-1.4-.7-2.1-.1-.4-.1-.7-.1-1.1 0-.4 0-.7.1-1.1 0-.3.1-.7.2-1 .1-.3.2-.7.4-1 .1-.3.3-.6.5-.9.2-.3.4-.6.7-.8.5-.5 1-1 1.7-1.3 1.4-.8 2.9-1.1 4.5-1 .4 0 .9.1 1.3.1.4.1.9.2 1.3.3.9.3 1.7.6 2.5 1 1.6.9 3.1 1.9 4.5 3.2l3.5 3c.2.1.2.4 0 .5-2.2 2.5-3.6 5.6-4.2 8.9 0 .1-.1.2-.2.3h-.4zm-9-16.7c-1.3 0-2.5.3-3.6.9-.6.3-1.1.7-1.5 1.2-.2.2-.4.5-.6.7-.2.3-.3.5-.4.8l-.3.9c-.1.3-.1.6-.2.9 0 .3-.1.6-.1.9 0 .3.1.7.1 1 .1.7.3 1.3.7 1.9.2.3.3.6.6.9.2.3.5.6.7.9 1.1 1.2 2.5 2.1 4.1 2.7 1.6.7 3.3 1.1 5.1 1.4l4.1.7c.6-3.2 2-6.2 4.1-8.6l-3.2-2.7c-1.3-1.2-2.8-2.2-4.3-3.1-.7-.4-1.5-.7-2.3-1l-1.2-.3c-.4-.1-.8-.1-1.2-.1h-.6z"/>
            </g>
          </g>
          <g id="Group_8925_8_">
            <g id="Group_8924_8_">
              <path id="Path_10741_8_" d="M191.2 169.2c-.3-.2-.7-.4-1-.6-.3-.2-.7-.3-1-.5-.3-.1-.7-.2-1-.3-.3-.1-.7-.1-1-.1h-1c-.3 0-.7.1-1 .2l-.9.3c-.3.1-.6.3-.9.5-.6.4-1.1.8-1.5 1.3-.4.5-.8 1.1-1 1.7-.5 1.4-.7 2.9-.4 4.4.1.8.4 1.6.7 2.4.4.8.8 1.5 1.3 2.3 1 1.5 2.2 2.8 3.6 4l3.4 3.1c2.3-2.5 5.2-4.4 8.5-5.4l-1.3-4.4c-.5-1.7-1.1-3.4-2-5-.9-1.5-2.1-2.8-3.5-3.9z" class="st1"/>
              <path id="Path_10742_8_" d="M189.4 188.3c-.1 0-.2 0-.3-.1l-3.4-3.1c-1.4-1.2-2.6-2.6-3.7-4.1-.5-.7-.9-1.5-1.3-2.3-.4-.8-.6-1.6-.8-2.5-.3-1.5-.2-3.1.4-4.6.3-.7.6-1.3 1.1-1.8.4-.5 1-1 1.6-1.4.3-.2.6-.3.9-.5.3-.1.7-.3 1-.3.3-.1.7-.2 1-.2h1.1c.4 0 .7.1 1.1.1.4.1.7.2 1.1.3.4.1.7.3 1.1.5.4.2.7.4 1.1.7 1.4 1.1 2.6 2.4 3.5 4 .9 1.6 1.6 3.3 2.1 5.1l1.3 4.4c.1.2-.1.4-.3.5-3.2.9-6.1 2.8-8.3 5.3-.1-.1-.2-.1-.3 0zm-2.7-20.2h-.6c-.6.1-1.2.2-1.8.5-.3.1-.6.3-.8.4-.5.3-1 .7-1.4 1.2-.4.5-.7 1-1 1.6-.5 1.3-.6 2.8-.4 4.2.1.8.4 1.6.7 2.3.3.8.8 1.5 1.2 2.2 1 1.4 2.2 2.8 3.5 3.9l3.1 2.8c2.2-2.4 5-4.1 8.1-5.1l-1.2-4c-.5-1.7-1.1-3.4-2-4.9-.8-1.5-1.9-2.7-3.2-3.7-.3-.2-.6-.4-1-.6-.3-.2-.6-.3-1-.4-.3-.1-.7-.2-1-.3-.3-.1-.7-.1-1-.1h-.2z"/>
            </g>
          </g>
          <g id="Group_8927_8_">
            <g id="Group_8926_8_">
              <path id="Path_10743_8_" d="M209.8 167.7c-.3-.7-.7-1.4-1.1-2-.4-.6-.9-1.1-1.5-1.5-.6-.4-1.2-.7-1.8-.9-1.9-.6-4.1-.3-5.7.9-.6.4-1.1.9-1.5 1.5-.5.6-.9 1.3-1.2 2-.6 1.6-.9 3.3-.8 5 .1 1.8.4 3.6.9 5.3l1.2 4.4c.8-.2 1.7-.4 2.5-.5.4 0 .9-.1 1.3-.1h1.2c.8 0 1.7.1 2.5.2.4 0 .8.2 1.3.2l1.2.3 1.3-4.4c.6-1.7.9-3.5 1-5.3 0-.9 0-1.7-.1-2.6-.1-.8-.3-1.7-.7-2.5z" class="st1"/>
              <path id="Path_10744_8_" d="M208.3 182.9h-.1c-.2-.1-.5-.1-.7-.2-.2 0-.3-.1-.5-.1s-.3-.1-.5-.1c-.3-.1-.5-.1-.7-.1-.8-.1-1.7-.2-2.5-.2H202c-.3 0-.5 0-.8.1h-.4c-.8.1-1.6.3-2.4.5h-.3c-.1-.1-.2-.1-.2-.2l-1.2-4.4c-.5-1.8-.8-3.6-.9-5.4-.1-1.8.2-3.5.9-5.2.3-.7.7-1.4 1.2-2.1.5-.6 1-1.1 1.6-1.6 1.8-1.3 4-1.6 6.1-.9.7.2 1.3.6 1.9 1 .6.4 1.2 1 1.6 1.6.5.6.9 1.4 1.2 2.1.3.8.5 1.7.7 2.5.1.9.2 1.8.1 2.7-.1 1.8-.5 3.7-1 5.4l-1.3 4.4c0 .1-.1.2-.2.2h-.3zm-2.4-1.3c.3 0 .5.1.8.1.2 0 .3.1.5.1s.3.1.5.1.3.1.4.1l1.2-4c.5-1.7.9-3.5 1-5.2 0-.8 0-1.7-.1-2.5s-.3-1.6-.6-2.4c-.3-.7-.6-1.3-1.1-1.9-.4-.5-.9-1-1.4-1.4-.5-.4-1.1-.7-1.7-.9-.6-.2-1.2-.3-1.8-.3-1.3 0-2.5.4-3.5 1.1-.6.4-1 .9-1.5 1.4-.5.6-.8 1.2-1.1 1.9-.6 1.5-.9 3.2-.8 4.9.1 1.8.4 3.5.9 5.2l1.1 4c.7-.2 1.4-.3 2.2-.4h.4c.3 0 .6-.1.9-.1H203.4c.7 0 1.6 0 2.5.2z"/>
            </g>
          </g>
          <g id="Group_8929_8_">
            <g id="Group_8928_8_">
              <path id="Path_10745_8_" d="M226.3 176.6c.2-.8.2-1.5.1-2.3-.1-.7-.2-1.4-.5-2.1-.2-.6-.6-1.2-1-1.7-.2-.3-.4-.5-.7-.7-.2-.2-.5-.4-.8-.6-.3-.2-.6-.3-.9-.5l-.9-.3c-.7-.2-1.3-.3-2-.2-.7 0-1.4.2-2.1.4-.7.3-1.4.6-2.1 1.1-.3.2-.7.5-1 .8l-.9.9c-.6.6-1.1 1.3-1.5 2.1-.9 1.6-1.6 3.2-2.1 4.9l-1.4 4.4c3.3 1 6.2 3 8.4 5.5l3.5-3c1.4-1.2 2.6-2.5 3.7-3.9.5-.7.9-1.5 1.3-2.2.2-.4.3-.8.5-1.2.2-.6.3-1 .4-1.4z" class="st1"/>
              <path id="Path_10746_8_" d="M217 188.5c-.1 0-.2-.1-.3-.1-2.2-2.5-5.1-4.4-8.3-5.4-.2-.1-.3-.3-.3-.5l1.4-4.4c.5-1.8 1.2-3.4 2.2-5 .5-.8 1-1.5 1.6-2.1l.9-.9c.3-.3.7-.6 1-.8.7-.5 1.4-.8 2.2-1.1.7-.3 1.5-.4 2.2-.4.7 0 1.4 0 2.1.2.3.1.7.2 1 .3.3.1.6.3.9.5.3.2.6.4.8.6.3.2.5.5.7.8.5.6.8 1.2 1.1 1.8.3.7.4 1.4.5 2.2.1.8 0 1.6-.1 2.4-.1.4-.2.8-.3 1.3-.1.4-.3.8-.5 1.2-.4.8-.8 1.6-1.3 2.3-1.1 1.5-2.4 2.8-3.8 4l-3.5 3c0 .1-.1.1-.2.1zm-7.9-6.2c3.1 1 5.8 2.9 8 5.2l3.2-2.7c1.4-1.1 2.6-2.4 3.7-3.9.5-.7.9-1.4 1.3-2.2.2-.4.3-.8.5-1.1l.3-1.2c.1-.7.2-1.5.1-2.2 0-.7-.2-1.3-.4-2-.2-.6-.6-1.1-1-1.6-.2-.2-.4-.5-.6-.7-.2-.2-.5-.4-.7-.6-.3-.2-.5-.3-.8-.4l-.9-.3c-.6-.2-1.3-.2-1.9-.2-.7 0-1.3.2-2 .4s-1.4.6-2 1c-.3.2-.6.5-.9.7l-.9.9c-.6.6-1.1 1.3-1.5 2-.9 1.5-1.6 3.2-2.1 4.8l-1.4 4.1zm17.2-5.8z"/>
            </g>
          </g>
          <g id="Group_8931_8_">
            <g id="Group_8930_8_">
              <path id="Path_10747_8_" d="M235.4 192.9c.5-.6 1-1.2 1.4-1.9.2-.3.3-.7.4-1 .1-.3.2-.7.3-1 .1-.3.1-.7.1-1v-1c-.1-.7-.2-1.3-.5-1.9-.6-1.2-1.5-2.3-2.7-2.9-1.3-.7-2.8-1.1-4.3-1-.8 0-1.7.2-2.5.4s-1.6.5-2.4.9c-1.6.8-3.1 1.8-4.5 3l-3.5 2.9c2.2 2.6 3.6 5.8 4.1 9.2l4.5-.6c1.8-.2 3.6-.7 5.2-1.3.8-.3 1.6-.7 2.3-1.2.9-.5 1.5-1 2.1-1.6z" class="st1"/>
              <path id="Path_10748_8_" d="M221.3 198c-.1 0-.2 0-.2-.1-.1-.1-.1-.2-.2-.3-.5-3.3-1.9-6.4-4-9-.1-.2-.1-.4 0-.5l3.5-2.9c1.4-1.2 2.9-2.2 4.5-3.1.8-.4 1.6-.7 2.5-1 .8-.2 1.7-.4 2.6-.4 1.6-.1 3.1.3 4.5 1.1 1.2.7 2.2 1.8 2.8 3.1.3.6.5 1.3.6 2 0 .3.1.7 0 1.1 0 .4-.1.7-.1 1.1-.1.4-.2.7-.3 1.1-.1.4-.3.7-.5 1-.4.7-.9 1.4-1.4 2-.6.6-1.3 1.2-2 1.6-.8.5-1.6.9-2.4 1.2-1.7.7-3.5 1.1-5.3 1.3l-4.6.7zm-3.5-9.6c2 2.5 3.4 5.5 3.9 8.7l4.2-.6c1.8-.2 3.5-.6 5.2-1.3.8-.3 1.5-.7 2.3-1.1.7-.4 1.3-1 1.9-1.5.5-.5 1-1.1 1.3-1.8.2-.3.3-.6.4-.9.1-.3.2-.6.3-1 .1-.3.1-.6.1-1v-.9c-.1-.6-.2-1.2-.5-1.8-.5-1.2-1.4-2.1-2.5-2.8-1.2-.7-2.7-1-4.1-1-.8 0-1.6.2-2.4.4-.8.2-1.6.5-2.3.9-1.6.8-3 1.8-4.4 3l-3.4 2.7z"/>
            </g>
          </g>
        </g>
      </g>
      <g id="Group_8934_8_">
        <circle id="Ellipse_4009_8_" cx="203.4" cy="200.3" r="18.7" class="st2"/>
        <path id="Path_10749_8_" d="M203.3 219.4c-10.6 0-19.1-8.6-19.1-19.1 0-10.6 8.6-19.1 19.1-19.1 10.6 0 19.1 8.6 19.1 19.1 0 9.6-7.1 17.7-16.6 18.9-.7.1-1.6.2-2.5.2zm-18.1-16.7c1.3 10 10.6 17.1 20.6 15.7 10-1.3 17.1-10.6 15.7-20.6-1.3-10-10.6-17.1-20.6-15.7-4.8.6-9.2 3.2-12.1 7-2.9 4-4.2 8.8-3.6 13.6z"/>
      </g>
    </g>
    <g id="Group_8936_8_">
      <path id="Path_10750_8_" d="M192.6 208.2z"/>
    </g>
  </g>
  <g id="Group_8937_7_">
    <g id="Group_8935_7_">
      <g id="Group_8933_7_">
        <g id="Group_8932_7_">
          <g id="Group_8911_7_">
            <g id="Group_8910_7_">
              <path id="Path_10727_7_" d="M231.2 66.5c1.5-.3 2.8-1.1 3.8-2.1.9-1 1.6-2.2 1.8-3.5.1-.7.1-1.3 0-2-.1-.3-.1-.7-.2-1-.1-.3-.2-.6-.4-1-.2-.3-.3-.6-.5-.9-.2-.3-.4-.6-.7-.8-.5-.6-1.2-1-1.8-1.4-.7-.4-1.5-.8-2.3-1-.8-.3-1.7-.4-2.5-.5-1.8-.2-3.6-.1-5.4.1l-4.5.6c.4 3.4-.1 6.8-1.5 10l4.2 1.9c1.6.8 3.3 1.4 5.1 1.8.9.2 1.7.3 2.6.3.6-.2 1.4-.3 2.3-.5z" class="st1"/>
              <path id="Path_10728_7_" d="M228.7 67.1c-.9 0-1.8-.1-2.7-.3-1.8-.4-3.6-1-5.2-1.8l-4.2-1.9c-.2-.1-.3-.3-.2-.5 1.4-3 1.9-6.4 1.5-9.7 0-.2.1-.4.3-.4l4.5-.6c1.8-.3 3.6-.3 5.5-.1.9.1 1.8.3 2.6.5.8.3 1.6.6 2.4 1 .7.4 1.3.9 1.9 1.5.3.3.5.6.7.9l.6.9c.2.3.3.7.4 1 .1.3.2.7.2 1 .1.7.1 1.4 0 2.1-.2 1.4-.9 2.7-1.9 3.8-1.1 1.1-2.5 1.9-4 2.2-.7.4-1.5.5-2.4.4zm-11.4-4.5 3.8 1.8c1.6.8 3.3 1.4 5 1.7.8.2 1.7.2 2.5.3.8 0 1.6-.1 2.4-.3 1.4-.3 2.7-1 3.7-2 .9-.9 1.5-2.1 1.7-3.3.1-.6.1-1.2 0-1.9-.1-.3-.1-.6-.2-.9-.1-.3-.2-.6-.4-.9-.2-.3-.3-.6-.5-.9-.2-.3-.4-.5-.7-.8-.5-.5-1.1-1-1.7-1.4-.7-.4-1.4-.7-2.2-1-.8-.2-1.6-.4-2.5-.5-1.8-.2-3.5-.1-5.3.1l-4.2.5c.4 3.3-.1 6.6-1.4 9.5z"/>
            </g>
          </g>
          <g id="Group_8913_7_">
            <g id="Group_8912_7_">
              <path id="Path_10729_7_" d="M220.1 81.5c.7.3 1.5.4 2.3.5.7 0 1.4 0 2.1-.2.7-.2 1.3-.4 1.9-.8.3-.2.6-.4.8-.6.3-.2.5-.4.7-.7.2-.2.4-.5.6-.8.2-.3.3-.6.5-.9.3-.6.4-1.3.5-2 .1-.7 0-1.4-.1-2.1-.1-.8-.4-1.5-.8-2.2-.2-.4-.4-.7-.6-1.1-.2-.4-.5-.7-.8-1-.6-.7-1.2-1.3-1.8-1.8-1.4-1.1-2.9-2.1-4.6-2.8l-4.1-2c-1.5 3.1-3.8 5.7-6.7 7.6l2.5 3.9c.9 1.5 2.1 3 3.4 4.2.6.6 1.3 1.1 2 1.6.4.2.7.4 1.1.6.3.3.7.5 1.1.6z" class="st1"/>
              <path id="Path_10730_7_" d="M222.9 82.4h-.5c-.8 0-1.6-.2-2.4-.5-.4-.1-.8-.3-1.2-.5-.4-.2-.8-.4-1.1-.7-.7-.5-1.4-1-2.1-1.7-1.3-1.3-2.5-2.7-3.4-4.3l-2.5-3.8c-.1-.1-.1-.2-.1-.3 0-.1.1-.2.2-.2 2.8-1.8 5.1-4.4 6.5-7.4 0-.1.1-.2.2-.2h.3l4.1 2c1.7.8 3.2 1.7 4.7 2.9.7.6 1.3 1.2 1.9 1.9.3.3.5.7.8 1.1.2.4.5.7.6 1.1.4.7.6 1.5.8 2.3.1.7.2 1.5.1 2.2-.1.7-.3 1.4-.5 2.1-.1.3-.3.6-.5.9-.2.3-.4.6-.6.8-.2.3-.5.5-.7.7l-.9.6c-.6.4-1.3.6-2 .8-.6.1-1.2.2-1.7.2zm-2.7-1.3c.7.2 1.4.4 2.2.4.7 0 1.3 0 2-.2.6-.1 1.2-.4 1.8-.7.3-.2.5-.3.8-.5.2-.2.5-.4.7-.6.2-.2.4-.5.6-.7.2-.3.3-.5.4-.8.3-.6.4-1.2.5-1.8.1-.7 0-1.4-.1-2-.1-.7-.4-1.4-.7-2.1-.2-.4-.4-.7-.6-1-.2-.3-.5-.7-.7-1-.5-.6-1.1-1.2-1.8-1.8-1.4-1.1-2.9-2-4.5-2.8l-3.8-1.8c-1.5 2.9-3.6 5.4-6.3 7.2l2.3 3.5c.9 1.5 2 2.9 3.3 4.2.6.6 1.3 1.1 2 1.6.3.2.7.4 1.1.6.1.1.5.2.8.3z"/>
            </g>
          </g>
          <g id="Group_8915_7_">
            <g id="Group_8914_7_">
              <path id="Path_10731_7_" d="M202.7 88.2c.5.6 1 1.1 1.6 1.6.6.4 1.2.8 1.9 1 1.9.7 4 .4 5.7-.7.6-.4 1.1-.8 1.5-1.4.4-.6.8-1.2 1.1-1.9.3-.7.5-1.5.6-2.3.1-.8.1-1.7 0-2.5-.1-.9-.3-1.7-.6-2.5-.6-1.7-1.4-3.3-2.3-4.8l-2.4-3.9c-.4.2-.7.4-1.1.6-.4.2-.8.4-1.1.5l-2.4.9-.6.2c-.2.1-.4.1-.6.1-.4.1-.8.1-1.3.2-.8.1-1.7.2-2.6.2v4.6c0 1.8.1 3.6.5 5.4.3 1.7 1 3.3 2.1 4.7z" class="st1"/>
              <path id="Path_10732_7_" d="M208.4 91.6c-.8 0-1.6-.1-2.3-.4-.7-.3-1.4-.6-2-1.1-.6-.5-1.2-1-1.7-1.7-1.1-1.4-1.8-3-2.2-4.8-.4-1.8-.6-3.6-.6-5.5v-4.6c0-.2.2-.4.4-.4.8 0 1.7-.1 2.5-.2.1 0 .3 0 .4-.1.3 0 .5-.1.8-.1.1 0 .2 0 .3-.1.1 0 .2 0 .3-.1l.6-.2c.8-.2 1.6-.5 2.3-.8.2-.1.4-.2.7-.3.1-.1.3-.1.4-.2.1-.1.3-.2.4-.2.2-.1.4-.2.6-.4.2-.1.4-.1.5.1l2.4 3.9c1 1.5 1.8 3.2 2.4 4.9.3.8.5 1.7.6 2.6.1.9.1 1.7 0 2.6-.1.8-.3 1.6-.6 2.4-.3.7-.7 1.4-1.1 1.9-.5.6-1 1.1-1.6 1.5-.6.4-1.2.7-1.9.9-.4.3-1 .4-1.6.4zM203 88c.5.6 1 1.1 1.6 1.5.5.4 1.1.7 1.8.9 1.8.6 3.8.4 5.4-.7.5-.4 1-.8 1.4-1.3.4-.5.8-1.1 1-1.8.3-.7.4-1.4.5-2.2.1-.8.1-1.6 0-2.4-.1-.8-.3-1.6-.6-2.4-.6-1.7-1.3-3.3-2.3-4.8l-2.2-3.6c-.1.1-.2.1-.4.2-.1.1-.3.1-.4.2-.1.1-.3.1-.4.2-.2.1-.5.2-.7.3-.8.4-1.6.6-2.4.9l-.6.2c-.1 0-.3.1-.4.1h-.2c-.3.1-.6.1-.8.2-.1 0-.3 0-.4.1-.7.1-1.5.2-2.2.2V78c0 1.8.1 3.6.5 5.3.1 1.8.8 3.3 1.8 4.7z"/>
            </g>
          </g>
          <g id="Group_8917_7_">
            <g id="Group_8916_7_">
              <path id="Path_10733_7_" d="M184.4 84.4c.1 1.5.7 2.9 1.6 4.1.4.5.9 1 1.5 1.4.5.4 1.1.7 1.8.9.3.1.6.2 1 .2.3 0 .7.1 1 .1.3 0 .7 0 1-.1.3-.1.7-.2 1-.3.3-.1.7-.2 1-.4l.9-.6c.3-.2.6-.5.9-.7.3-.3.6-.6.8-.9 1.1-1.3 1.8-2.9 2.2-4.6.4-1.7.6-3.5.6-5.3l.1-4.6c-3.4-.1-6.8-1.1-9.6-2.9l-2.5 3.8c-1 1.5-1.8 3.1-2.5 4.8-.3.8-.5 1.7-.6 2.5-.3.9-.3 1.7-.2 2.6z" class="st1"/>
              <path id="Path_10734_7_" d="M191 91.4c-.3 0-.6 0-.9-.1-.3-.1-.7-.1-1-.2-.7-.2-1.3-.5-1.9-.9-.6-.4-1.1-.9-1.6-1.5-.9-1.3-1.5-2.7-1.6-4.3-.1-.9-.1-1.8.1-2.6.1-.9.4-1.7.6-2.6.6-1.7 1.5-3.4 2.5-4.9l2.5-3.8c.1-.2.3-.2.5-.1 2.8 1.8 6.1 2.8 9.4 2.9.2 0 .4.2.4.4l-.1 4.6c0 1.8-.2 3.6-.7 5.4-.4 1.7-1.2 3.3-2.3 4.7-.3.3-.5.6-.8.9-.3.3-.6.5-.9.8-.3.2-.6.4-1 .6-.3.2-.7.3-1 .4-.3.1-.7.2-1.1.3-.4.1-.7.1-1.1.1v-.1zm-.8-20.2-2.3 3.5c-1 1.5-1.8 3.1-2.4 4.7-.3.8-.5 1.6-.6 2.5-.1.8-.2 1.6-.1 2.4.1 1.4.6 2.8 1.5 3.9.4.5.9.9 1.4 1.3.5.4 1.1.6 1.7.8.3.1.6.2.9.2.6.1 1.3.1 1.9 0 .3-.1.6-.1.9-.2.3-.1.6-.2.9-.4.3-.2.6-.3.9-.5.3-.2.6-.4.8-.7l.8-.8c1-1.3 1.7-2.8 2.1-4.4.4-1.7.6-3.5.6-5.2l.1-4.2c-3.3-.2-6.4-1.2-9.1-2.9z"/>
            </g>
          </g>
          <g id="Group_8919_7_">
            <g id="Group_8918_7_">
              <path id="Path_10735_7_" d="M171.1 71.3c-.2.4-.3.7-.5 1.1-.1.4-.2.7-.3 1.1-.2.7-.2 1.4-.1 2.1 0 .3.1.7.2 1 .1.3.2.6.3 1 .1.3.3.6.5.9.2.3.4.5.6.8.2.3.4.5.7.7.3.2.5.4.8.6.6.4 1.2.6 1.9.8 1.5.3 3 .3 4.4-.2.4-.1.8-.3 1.2-.5.4-.2.8-.4 1.1-.6.7-.5 1.4-1 2.1-1.6 1.3-1.2 2.5-2.6 3.4-4.1l2.5-3.8c-2.8-1.9-5.1-4.6-6.5-7.7l-4.2 1.9c-1.7.7-3.2 1.6-4.7 2.7-1.5 1-2.6 2.3-3.4 3.8z" class="st1"/>
              <path id="Path_10736_7_" d="M176.8 81.9c-.6 0-1.2-.1-1.8-.2-.7-.2-1.4-.5-2-.8-.3-.2-.6-.4-.8-.6-.3-.2-.5-.5-.7-.7-.5-.5-.8-1.1-1.1-1.8-.1-.3-.3-.7-.3-1-.1-.4-.1-.7-.2-1.1-.1-.7 0-1.5.1-2.2.1-.4.2-.8.3-1.1.1-.4.3-.8.5-1.1.8-1.6 2-2.9 3.4-4 1.5-1.1 3.1-2 4.8-2.8l4.2-1.9h.3c.1 0 .2.1.2.2 1.4 3 3.6 5.6 6.4 7.5.2.1.2.4.1.5l-2.5 3.8c-1 1.5-2.2 3-3.5 4.2-.7.6-1.4 1.1-2.1 1.6l-1.2.6c-.4.2-.8.3-1.2.5-1 .3-1.9.4-2.9.4zm6.2-18.6-3.8 1.7c-1.6.7-3.2 1.6-4.6 2.7-1.3 1-2.4 2.3-3.2 3.7-.2.3-.3.7-.5 1-.1.3-.2.7-.3 1-.1.7-.2 1.3-.1 2 0 .3.1.6.2 1l.3.9c.1.3.3.6.4.8.2.3.4.5.6.7.2.2.4.5.6.7.2.2.5.4.8.5.5.3 1.1.6 1.8.7 1.4.3 2.8.2 4.2-.2.4-.1.8-.3 1.1-.4.4-.2.7-.4 1.1-.6.7-.4 1.4-1 2-1.5 1.3-1.2 2.4-2.6 3.4-4.1l2.3-3.5c-2.7-1.7-4.8-4.2-6.3-7.1zm-11.9 8z"/>
            </g>
          </g>
          <g id="Group_8921_7_">
            <g id="Group_8920_7_">
              <path id="Path_10737_7_" d="M166.9 53.1c-.7.4-1.3.9-1.8 1.4-.5.5-.9 1.1-1.3 1.7-.3.6-.5 1.2-.6 1.9-.2 1.3 0 2.7.5 3.9.3.6.7 1.2 1.1 1.7.5.5 1.1 1 1.7 1.3.7.4 1.4.7 2.2.9.8.2 1.7.3 2.5.3.9 0 1.7-.1 2.6-.2 1.8-.3 3.5-.9 5.1-1.6l4.2-1.8c-1.4-3.1-1.8-6.6-1.3-10l-4.5-.7c-1.8-.3-3.6-.4-5.4-.2-.9.1-1.7.2-2.6.5-.9.2-1.6.5-2.4.9z" class="st1"/>
              <path id="Path_10738_7_" d="M171.4 66.6h-.2c-.9 0-1.7-.1-2.6-.3-.8-.2-1.5-.5-2.2-.9-.6-.4-1.2-.8-1.8-1.4-.5-.5-.9-1.1-1.2-1.8-.6-1.3-.8-2.7-.6-4.1.1-.7.4-1.4.7-2 .4-.7.8-1.3 1.3-1.8.6-.6 1.2-1.1 1.9-1.5.8-.4 1.6-.8 2.4-1 .9-.2 1.7-.4 2.6-.5 1.8-.1 3.7-.1 5.5.2l4.5.7c.2 0 .4.2.3.4-.5 3.3 0 6.7 1.3 9.8.1.2 0 .4-.2.5l-4.2 1.8c-1.7.8-3.4 1.3-5.2 1.7-.7.1-1.5.2-2.3.2zm-4.3-13.2c-.6.4-1.2.8-1.8 1.3-.5.5-.9 1-1.2 1.6-.3.6-.5 1.2-.6 1.8-.2 1.2 0 2.5.5 3.6.3.6.6 1.1 1.1 1.6.5.5 1 .9 1.6 1.3.6.4 1.3.6 2.1.8.8.2 1.6.3 2.4.3.8 0 1.7-.1 2.5-.2 1.7-.3 3.4-.9 5-1.6l3.8-1.7c-1.2-3-1.7-6.3-1.3-9.5l-4.2-.6c-1.8-.3-3.5-.4-5.3-.2-.8.1-1.7.2-2.5.5-.6.3-1.4.6-2.1 1z"/>
            </g>
          </g>
          <g id="Group_8923_7_">
            <g id="Group_8922_7_">
              <path id="Path_10739_7_" d="M173.3 35.5c-1.5-.1-3 .2-4.3 1-.6.3-1.1.8-1.6 1.3-.2.2-.4.5-.6.8-.2.3-.3.6-.5.9-.3.6-.5 1.2-.5 1.9 0 .3-.1.7-.1 1 0 .3.1.7.1 1 .1.7.4 1.4.7 2 .2.3.4.7.6 1 .2.3.5.6.8.9 1.2 1.2 2.6 2.2 4.2 2.8 1.7.7 3.4 1.1 5.2 1.4l4.5.7c.6-3.4 2-6.5 4.3-9.1l-3.5-3c-1.3-1.2-2.8-2.3-4.4-3.1-.8-.4-1.6-.7-2.4-1l-1.2-.3c-.5-.1-.9-.1-1.3-.2z" class="st1"/>
              <path id="Path_10740_7_" d="m181.8 52.6-4.6-.7c-1.8-.3-3.6-.7-5.3-1.4-1.6-.7-3.1-1.7-4.3-2.9-.3-.3-.5-.6-.8-1-.2-.3-.4-.7-.6-1-.4-.7-.6-1.4-.7-2.1-.1-.4-.1-.7-.1-1.1 0-.4 0-.7.1-1.1 0-.3.1-.7.2-1 .1-.3.2-.7.4-1 .1-.3.3-.6.5-.9.2-.3.4-.6.7-.8.5-.5 1-1 1.7-1.3 1.4-.8 2.9-1.1 4.5-1 .4 0 .9.1 1.3.1.4.1.9.2 1.3.3.9.3 1.7.6 2.5 1 1.6.9 3.1 1.9 4.5 3.2l3.5 3c.2.1.2.4 0 .5-2.2 2.5-3.6 5.6-4.2 8.9 0 .1-.1.2-.2.3h-.4zm-9-16.7c-1.3 0-2.5.3-3.6.9-.6.3-1.1.7-1.5 1.2-.2.2-.4.5-.6.7-.2.3-.3.5-.4.8l-.3.9c-.1.3-.1.6-.2.9 0 .3-.1.6-.1.9 0 .3.1.7.1 1 .1.7.3 1.3.7 1.9.2.3.3.6.6.9.2.3.5.6.7.9 1.1 1.2 2.5 2.1 4.1 2.7 1.6.7 3.3 1.1 5.1 1.4l4.1.7c.6-3.2 2-6.2 4.1-8.6l-3.2-2.7c-1.3-1.2-2.8-2.2-4.3-3.1-.7-.4-1.5-.7-2.3-1l-1.2-.3c-.4-.1-.8-.1-1.2-.1h-.6z"/>
            </g>
          </g>
          <g id="Group_8925_7_">
            <g id="Group_8924_7_">
              <path id="Path_10741_7_" d="M188.2 24.2c-.3-.2-.7-.4-1-.6-.3-.2-.7-.3-1-.5-.3-.1-.7-.2-1-.3-.3-.1-.7-.1-1-.1h-1c-.3 0-.7.1-1 .2l-.9.3c-.3.1-.6.3-.9.5-.6.4-1.1.8-1.5 1.3-.4.5-.8 1.1-1 1.7-.5 1.4-.7 2.9-.4 4.4.1.8.4 1.6.7 2.4.4.8.8 1.5 1.3 2.3 1 1.5 2.2 2.8 3.6 4l3.4 3.1c2.3-2.5 5.2-4.4 8.5-5.4l-1.3-4.4c-.5-1.7-1.1-3.4-2-5-1-1.5-2.2-2.9-3.5-3.9z" class="st1"/>
              <path id="Path_10742_7_" d="M186.3 43.2c-.1 0-.2 0-.3-.1l-3.4-3.1c-1.4-1.2-2.6-2.6-3.7-4.1-.5-.7-.9-1.5-1.3-2.3-.4-.8-.6-1.6-.8-2.5-.3-1.5-.2-3.1.4-4.6.3-.7.6-1.3 1.1-1.8.4-.5 1-1 1.6-1.4.3-.2.6-.3.9-.5.3-.1.7-.3 1-.3.3-.1.7-.2 1-.2h1.1c.4 0 .7.1 1.1.1.4.1.7.2 1.1.3.4.1.7.3 1.1.5.4.2.7.4 1.1.7 1.4 1.1 2.6 2.4 3.5 4 .9 1.6 1.6 3.3 2.1 5.1l1.3 4.4c.1.2-.1.4-.3.5-3.2.9-6.1 2.8-8.3 5.3h-.3zm-2.6-20.1h-.6c-.6.1-1.2.2-1.8.5-.3.1-.6.3-.8.4-.5.3-1 .7-1.4 1.2-.4.5-.7 1-1 1.6-.5 1.3-.6 2.8-.4 4.2.1.8.4 1.6.7 2.3.3.8.8 1.5 1.2 2.2 1 1.4 2.2 2.8 3.5 3.9l3.1 2.8c2.2-2.4 5-4.1 8.1-5.1l-1.2-4c-.5-1.7-1.1-3.4-2-4.9-.8-1.5-1.9-2.7-3.2-3.7-.3-.2-.6-.4-1-.6-.3-.2-.6-.3-1-.4-.3-.1-.7-.2-1-.3-.3-.1-.7-.1-1-.1h-.2z"/>
            </g>
          </g>
          <g id="Group_8927_7_">
            <g id="Group_8926_7_">
              <path id="Path_10743_7_" d="M206.8 22.7c-.3-.7-.7-1.4-1.1-2-.4-.6-.9-1.1-1.5-1.5-.6-.4-1.2-.7-1.8-.9-1.9-.6-4.1-.3-5.7.9-.6.4-1.1.9-1.5 1.5-.5.6-.9 1.3-1.2 2-.6 1.6-.9 3.3-.8 5 .1 1.8.4 3.6.9 5.3l1.2 4.4c.8-.2 1.7-.4 2.5-.5.4 0 .9-.1 1.3-.1h1.2c.8 0 1.7.1 2.5.2.4 0 .8.2 1.3.2l1.2.3 1.3-4.4c.6-1.7.9-3.5 1-5.3 0-.9 0-1.7-.1-2.6-.2-.9-.4-1.7-.7-2.5z" class="st1"/>
              <path id="Path_10744_7_" d="M205.2 37.9h-.1c-.2-.1-.5-.1-.7-.2-.2 0-.3-.1-.5-.1s-.3-.1-.5-.1c-.3-.1-.5-.1-.7-.1-.8-.1-1.7-.2-2.5-.2h-1.3c-.3 0-.5 0-.8.1h-.4c-.8.1-1.6.3-2.4.5h-.3c-.1-.1-.2-.1-.2-.2l-1.2-4.4c-.5-1.8-.8-3.6-.9-5.4-.1-1.8.2-3.5.9-5.2.3-.7.7-1.4 1.2-2.1.5-.6 1-1.1 1.6-1.6 1.8-1.3 4-1.6 6.1-.9.7.2 1.3.6 1.9 1 .6.4 1.2 1 1.6 1.6.5.6.9 1.4 1.2 2.1.3.8.5 1.7.7 2.5.1.9.2 1.8.1 2.7-.1 1.8-.5 3.7-1 5.4l-1.3 4.4c0 .1-.1.2-.2.2-.2-.1-.2 0-.3 0zm-2.4-1.4c.3 0 .5.1.8.1.2 0 .3.1.5.1s.3.1.5.1.3.1.4.1l1.2-4c.5-1.7.9-3.5 1-5.2 0-.8 0-1.7-.1-2.5s-.3-1.6-.6-2.4c-.3-.7-.6-1.3-1.1-1.9-.4-.5-.9-1-1.4-1.4-.5-.4-1.1-.7-1.7-.9-.6-.2-1.2-.3-1.8-.3-1.3 0-2.5.4-3.5 1.1-.6.4-1 .9-1.5 1.4-.5.6-.8 1.2-1.1 1.9-.6 1.5-.9 3.2-.8 4.9.1 1.8.4 3.5.9 5.2l1.1 4c.7-.2 1.4-.3 2.2-.4h.4c.3 0 .6-.1.9-.1H200.3c.8.1 1.6.1 2.5.2z"/>
            </g>
          </g>
          <g id="Group_8929_7_">
            <g id="Group_8928_7_">
              <path id="Path_10745_7_" d="M223.2 31.5c.2-.8.2-1.5.1-2.3-.1-.7-.2-1.4-.5-2.1-.2-.6-.6-1.2-1-1.7-.2-.3-.4-.5-.7-.7-.2-.2-.5-.4-.8-.6-.3-.2-.6-.3-.9-.5l-.9-.3c-.7-.2-1.3-.3-2-.2-.7 0-1.4.2-2.1.4-.7.3-1.4.6-2.1 1.1-.3.2-.7.5-1 .8l-.9.9c-.6.6-1.1 1.3-1.5 2.1-.9 1.6-1.6 3.2-2.1 4.9l-1.4 4.4c3.3 1 6.2 3 8.4 5.5l3.5-3c1.4-1.2 2.6-2.5 3.7-3.9.5-.7.9-1.5 1.3-2.2.2-.4.3-.8.5-1.2.2-.6.3-1 .4-1.4z" class="st1"/>
              <path id="Path_10746_7_" d="M214 43.5c-.1 0-.2-.1-.3-.1-2.2-2.5-5.1-4.4-8.3-5.4-.2-.1-.3-.3-.3-.5l1.4-4.4c.5-1.8 1.2-3.4 2.2-5 .5-.8 1-1.5 1.6-2.1l.9-.9c.3-.3.7-.6 1-.8.7-.5 1.4-.8 2.2-1.1.7-.3 1.5-.4 2.2-.4.7 0 1.4 0 2.1.2.3.1.7.2 1 .3.3.1.6.3.9.5.3.2.6.4.8.6.3.2.5.5.7.8.5.6.8 1.2 1.1 1.8.3.7.4 1.4.5 2.2.1.8 0 1.6-.1 2.4-.1.4-.2.8-.3 1.3-.1.4-.3.8-.5 1.2-.4.8-.8 1.6-1.3 2.3-1.1 1.5-2.4 2.8-3.8 4l-3.5 3c-.1.1-.1.1-.2.1zm-8-6.2c3.1 1 5.8 2.9 8 5.2l3.2-2.7c1.4-1.1 2.6-2.4 3.7-3.9.5-.7.9-1.4 1.3-2.2.2-.4.3-.8.5-1.1l.3-1.2c.1-.7.2-1.5.1-2.2 0-.7-.2-1.3-.4-2-.2-.6-.6-1.1-1-1.6-.2-.2-.4-.5-.6-.7-.2-.2-.5-.4-.7-.6-.3-.2-.5-.3-.8-.4l-.9-.3c-.6-.2-1.3-.2-1.9-.2-.7 0-1.3.2-2 .4s-1.4.6-2 1c-.3.2-.6.5-.9.7l-.9.9c-.6.6-1.1 1.3-1.5 2-.9 1.5-1.6 3.2-2.1 4.8l-1.4 4.1zm17.2-5.8z"/>
            </g>
          </g>
          <g id="Group_8931_7_">
            <g id="Group_8930_7_">
              <path id="Path_10747_7_" d="M232.3 47.8c.5-.6 1-1.2 1.4-1.9.2-.3.3-.7.4-1 .1-.3.2-.7.3-1 .1-.3.1-.7.1-1v-1c-.1-.7-.2-1.3-.5-1.9-.6-1.2-1.5-2.3-2.7-2.9-1.3-.7-2.8-1.1-4.3-1-.8 0-1.7.2-2.5.4s-1.6.5-2.4.9c-1.6.8-3.1 1.8-4.5 3l-3.5 2.9c2.2 2.6 3.6 5.8 4.1 9.2l4.5-.6c1.8-.2 3.6-.7 5.2-1.3.8-.3 1.6-.7 2.3-1.2.9-.4 1.5-1 2.1-1.6z" class="st1"/>
              <path id="Path_10748_7_" d="M218.3 52.9c-.1 0-.2 0-.2-.1-.1-.1-.1-.2-.2-.3-.5-3.3-1.9-6.4-4-9-.1-.2-.1-.4 0-.5l3.5-2.9c1.4-1.2 2.9-2.2 4.5-3.1.8-.4 1.6-.7 2.5-1 .8-.2 1.7-.4 2.6-.4 1.6-.1 3.1.3 4.5 1.1 1.2.7 2.2 1.8 2.8 3.1.3.6.5 1.3.6 2 0 .3.1.7 0 1.1 0 .4-.1.7-.1 1.1-.1.4-.2.7-.3 1.1-.1.4-.3.7-.5 1-.4.7-.9 1.4-1.4 2-.6.6-1.3 1.2-2 1.6-.8.5-1.6.9-2.4 1.2-1.7.7-3.5 1.1-5.3 1.3l-4.6.7zm-3.6-9.5c2 2.5 3.4 5.5 3.9 8.7l4.2-.6c1.8-.2 3.5-.6 5.2-1.3.8-.3 1.5-.7 2.3-1.1.7-.4 1.3-1 1.9-1.5.5-.5 1-1.1 1.3-1.8.2-.3.3-.6.4-.9.1-.3.2-.6.3-1 .1-.3.1-.6.1-1V42c-.1-.6-.2-1.2-.5-1.8-.5-1.2-1.4-2.1-2.5-2.8-1.2-.7-2.7-1-4.1-1-.8 0-1.6.2-2.4.4-.8.2-1.6.5-2.3.9-1.6.8-3 1.8-4.4 3l-3.4 2.7z"/>
            </g>
          </g>
        </g>
      </g>
      <g id="Group_8934_7_">
        <circle id="Ellipse_4009_7_" cx="200.3" cy="55.3" r="18.7" class="st2"/>
        <path id="Path_10749_7_" d="M200.3 74.4c-10.6 0-19.1-8.6-19.1-19.1 0-10.6 8.6-19.1 19.1-19.1 10.6 0 19.1 8.6 19.1 19.1 0 9.6-7.1 17.7-16.6 18.9-.8.1-1.7.2-2.5.2zm-18.1-16.7c1.3 10 10.6 17.1 20.6 15.7 10-1.3 17.1-10.6 15.7-20.6-1.3-10-10.6-17.1-20.6-15.7-4.8.6-9.2 3.2-12.1 7-3 3.9-4.3 8.8-3.6 13.6z"/>
      </g>
    </g>
    <g id="Group_8936_7_">
      <path id="Path_10750_7_" d="M189.5 63.2z"/>
    </g>
  </g>
  <g id="Group_8937_6_">
    <g id="Group_8935_6_">
      <g id="Group_8933_6_">
        <g id="Group_8932_6_">
          <g id="Group_8911_6_">
            <g id="Group_8910_6_">
              <path id="Path_10727_6_" d="M159 135.1c1.5-.3 2.8-1.1 3.8-2.1.9-1 1.6-2.2 1.8-3.5.1-.7.1-1.3 0-2-.1-.3-.1-.7-.2-1-.1-.3-.2-.6-.4-1-.2-.3-.3-.6-.5-.9-.2-.3-.4-.6-.7-.8-.5-.6-1.2-1-1.8-1.4-.7-.4-1.5-.8-2.3-1-.8-.3-1.7-.4-2.5-.5-1.8-.2-3.6-.1-5.4.1l-4.5.6c.4 3.4-.1 6.8-1.5 10l4.2 1.9c1.6.8 3.3 1.4 5.1 1.8.9.2 1.7.3 2.6.3.6-.2 1.5-.3 2.3-.5z" class="st1"/>
              <path id="Path_10728_6_" d="M156.5 135.7c-.9 0-1.8-.1-2.7-.3-1.8-.4-3.6-1-5.2-1.8l-4.2-1.9c-.2-.1-.3-.3-.2-.5 1.4-3 1.9-6.4 1.5-9.7 0-.2.1-.4.3-.4l4.5-.6c1.8-.3 3.6-.3 5.5-.1.9.1 1.8.3 2.6.5.8.3 1.6.6 2.4 1 .7.4 1.3.9 1.9 1.5.3.3.5.6.7.9l.6.9c.2.3.3.7.4 1 .1.3.2.7.2 1 .1.7.1 1.4 0 2.1-.2 1.4-.9 2.7-1.9 3.8-1.1 1.1-2.5 1.9-4 2.2-.6.4-1.5.5-2.4.4zm-11.4-4.5 3.8 1.8c1.6.8 3.3 1.4 5 1.7.8.2 1.7.2 2.5.3.8 0 1.6-.1 2.4-.3 1.4-.3 2.7-1 3.7-2 .9-.9 1.5-2.1 1.6-3.3.1-.6.1-1.2 0-1.9-.1-.3-.1-.6-.2-.9-.1-.3-.2-.6-.4-.9-.2-.3-.3-.6-.5-.9-.2-.3-.4-.5-.7-.8-.5-.5-1.1-1-1.7-1.4-.7-.4-1.4-.7-2.2-1-.8-.2-1.6-.4-2.5-.5-1.8-.2-3.5-.1-5.3.1l-4.2.5c.5 3.3 0 6.6-1.3 9.5z"/>
            </g>
          </g>
          <g id="Group_8913_6_">
            <g id="Group_8912_6_">
              <path id="Path_10729_6_" d="M148 150.1c.7.3 1.5.4 2.3.5.7 0 1.4 0 2.1-.2.7-.2 1.3-.4 1.9-.8.3-.2.6-.4.8-.6.3-.2.5-.4.7-.7.2-.2.4-.5.6-.8.2-.3.3-.6.5-.9.3-.6.4-1.3.5-2 .1-.7 0-1.4-.1-2.1-.1-.8-.4-1.5-.8-2.2-.2-.4-.4-.7-.6-1.1-.2-.4-.5-.7-.8-1-.6-.7-1.2-1.3-1.8-1.8-1.4-1.1-2.9-2.1-4.6-2.8l-4.1-2c-1.5 3.1-3.8 5.7-6.7 7.6l2.5 3.9c.9 1.5 2.1 3 3.4 4.2.6.6 1.3 1.1 2 1.6.4.2.7.4 1.1.6.3.3.7.5 1.1.6z" class="st1"/>
              <path id="Path_10730_6_" d="M150.7 151h-.5c-.8 0-1.6-.2-2.4-.5-.4-.1-.8-.3-1.2-.5-.4-.2-.8-.4-1.1-.7-.7-.5-1.4-1-2.1-1.7-1.3-1.3-2.5-2.7-3.4-4.3l-2.5-3.8c-.1-.1-.1-.2-.1-.3 0-.1.1-.2.2-.2 2.8-1.8 5.1-4.4 6.5-7.4 0-.1.1-.2.2-.2h.3l4.1 2c1.7.8 3.2 1.7 4.7 2.9.7.6 1.3 1.2 1.9 1.9.3.3.5.7.8 1.1.2.4.5.7.6 1.1.4.7.6 1.5.8 2.3.1.7.2 1.5.1 2.2-.1.7-.3 1.4-.5 2.1-.1.3-.3.6-.5.9-.2.3-.4.6-.6.8-.2.3-.5.5-.7.7l-.9.6c-.6.4-1.3.6-2 .8-.5.1-1.1.2-1.7.2zm-2.6-1.3c.7.2 1.4.4 2.2.4.7 0 1.3 0 2-.2.6-.1 1.2-.4 1.8-.7.3-.2.5-.3.8-.5.2-.2.5-.4.7-.6.2-.2.4-.5.6-.7.2-.3.3-.5.4-.8.3-.6.4-1.2.5-1.8.1-.7 0-1.4-.1-2-.1-.7-.4-1.4-.7-2.1-.2-.4-.4-.7-.6-1-.2-.3-.5-.7-.7-1-.5-.6-1.1-1.2-1.8-1.8-1.4-1.1-2.9-2-4.5-2.8l-3.8-1.8c-1.5 2.9-3.6 5.4-6.3 7.2l2.3 3.5c.9 1.5 2 2.9 3.3 4.2.6.6 1.3 1.1 2 1.6.3.2.7.4 1.1.6 0 .1.4.2.8.3z"/>
            </g>
          </g>
          <g id="Group_8915_6_">
            <g id="Group_8914_6_">
              <path id="Path_10731_6_" d="M130.5 156.8c.5.6 1 1.1 1.6 1.6.6.4 1.2.8 1.9 1 1.9.7 4 .4 5.7-.7.6-.4 1.1-.8 1.5-1.4.4-.6.8-1.2 1.1-1.9.3-.7.5-1.5.6-2.3.1-.8.1-1.7 0-2.5-.1-.9-.3-1.7-.6-2.5-.6-1.7-1.4-3.3-2.3-4.8l-2.4-3.9c-.4.2-.7.4-1.1.6-.4.2-.8.4-1.1.5l-2.4.9-.6.2c-.2.1-.4.1-.6.1-.4.1-.8.1-1.3.2-.8.1-1.7.2-2.6.2v4.6c0 1.8.1 3.6.5 5.4.4 1.7 1.1 3.3 2.1 4.7z" class="st1"/>
              <path id="Path_10732_6_" d="M136.2 160.2c-.8 0-1.6-.1-2.3-.4-.7-.3-1.4-.6-2-1.1-.6-.5-1.2-1-1.7-1.7-1.1-1.4-1.8-3-2.2-4.8-.4-1.8-.6-3.6-.6-5.5v-4.6c0-.2.2-.4.4-.4.8 0 1.7-.1 2.5-.2.1 0 .3 0 .4-.1.3 0 .5-.1.8-.1.1 0 .2 0 .3-.1.1 0 .2 0 .3-.1l.6-.2c.8-.2 1.6-.5 2.3-.8.2-.1.4-.2.7-.3.1-.1.3-.1.4-.2s.3-.2.4-.2c.2-.1.4-.2.6-.4.2-.1.4-.1.5.1l2.4 3.9c1 1.5 1.8 3.2 2.4 4.9.3.8.5 1.7.6 2.6.1.9.1 1.7 0 2.6-.1.8-.3 1.6-.6 2.4-.3.7-.7 1.4-1.1 1.9-.5.6-1 1.1-1.6 1.5-.6.4-1.2.7-1.9.9-.3.3-.9.4-1.6.4zm-5.4-3.6c.5.6 1 1.1 1.6 1.5.5.4 1.1.7 1.8.9 1.8.6 3.8.4 5.4-.7.5-.4 1-.8 1.4-1.3.4-.5.8-1.1 1-1.8.3-.7.4-1.4.5-2.2.1-.8.1-1.6 0-2.4-.1-.8-.3-1.6-.6-2.4-.6-1.7-1.3-3.3-2.3-4.8l-2.2-3.6c-.1.1-.2.1-.4.2-.1.1-.3.1-.4.2-.1.1-.3.1-.4.2-.2.1-.5.2-.7.3-.8.4-1.6.6-2.4.9l-.6.2c-.1 0-.3.1-.4.1h-.2c-.3.1-.6.1-.8.2-.1 0-.3 0-.4.1-.7.1-1.5.2-2.2.2v4.2c0 1.8.1 3.6.5 5.3.1 1.8.8 3.3 1.8 4.7z"/>
            </g>
          </g>
          <g id="Group_8917_6_">
            <g id="Group_8916_6_">
              <path id="Path_10733_6_" d="M112.2 153c.1 1.5.7 2.9 1.6 4.1.4.5.9 1 1.5 1.4.5.4 1.1.7 1.8.9.3.1.6.2 1 .2.3 0 .7.1 1 .1.3 0 .7 0 1-.1.3-.1.7-.2 1-.3.3-.1.7-.2 1-.4l.9-.6c.3-.2.6-.5.9-.7.3-.3.6-.6.8-.9 1.1-1.3 1.8-2.9 2.2-4.6.4-1.7.6-3.5.6-5.3l.1-4.6c-3.4-.1-6.8-1.1-9.6-2.9l-2.5 3.8c-1 1.5-1.8 3.1-2.5 4.8-.3.8-.5 1.7-.6 2.5-.2.9-.2 1.7-.2 2.6z" class="st1"/>
              <path id="Path_10734_6_" d="M118.9 160c-.3 0-.6 0-.9-.1-.3-.1-.7-.1-1-.2-.7-.2-1.3-.5-1.9-.9-.6-.4-1.1-.9-1.6-1.5-.9-1.3-1.5-2.7-1.6-4.3-.1-.9-.1-1.8.1-2.6.1-.9.4-1.7.6-2.6.6-1.7 1.5-3.4 2.5-4.9l2.5-3.8c.1-.2.3-.2.5-.1 2.8 1.8 6.1 2.8 9.4 2.9.2 0 .4.2.4.4l-.1 4.6c0 1.8-.2 3.6-.7 5.4-.4 1.7-1.2 3.3-2.3 4.7-.3.3-.5.6-.8.9-.3.3-.6.5-.9.8-.3.2-.6.4-1 .6-.3.2-.7.3-1 .4-.3.1-.7.2-1.1.3-.4.1-.7.1-1.1.1v-.1zm-.9-20.2-2.3 3.5c-1 1.5-1.8 3.1-2.4 4.7-.3.8-.5 1.6-.6 2.5-.1.8-.2 1.6-.1 2.4.1 1.4.6 2.8 1.5 3.9.4.5.9.9 1.4 1.3.5.4 1.1.6 1.7.8.3.1.6.2.9.2.6.1 1.3.1 1.9 0 .3-.1.6-.1.9-.2.3-.1.6-.2.9-.4.3-.2.6-.3.9-.5.3-.2.6-.4.8-.7l.8-.8c1-1.3 1.7-2.8 2.1-4.4.4-1.7.6-3.5.6-5.2l.1-4.2c-3.2-.2-6.3-1.2-9.1-2.9z"/>
            </g>
          </g>
          <g id="Group_8919_6_">
            <g id="Group_8918_6_">
              <path id="Path_10735_6_" d="M98.9 139.9c-.2.4-.3.7-.5 1.1-.1.4-.2.7-.3 1.1-.2.7-.2 1.4-.1 2.1 0 .3.1.7.2 1 .1.3.2.6.3 1 .1.3.3.6.5.9.2.3.4.5.6.8.2.3.4.5.7.7.3.2.5.4.8.6.6.4 1.2.6 1.9.8 1.5.3 3 .3 4.4-.2.4-.1.8-.3 1.2-.5.4-.2.8-.4 1.1-.6.7-.5 1.4-1 2.1-1.6 1.3-1.2 2.5-2.6 3.4-4.1l2.5-3.8c-2.8-1.9-5.1-4.6-6.5-7.7l-4.2 1.9c-1.7.7-3.2 1.6-4.7 2.7-1.4 1-2.6 2.3-3.4 3.8z" class="st1"/>
              <path id="Path_10736_6_" d="M104.7 150.5c-.6 0-1.2-.1-1.8-.2-.7-.2-1.4-.5-2-.8-.3-.2-.6-.4-.8-.6-.3-.2-.5-.5-.7-.7-.5-.5-.8-1.1-1.1-1.8-.1-.3-.3-.7-.3-1-.1-.4-.1-.7-.2-1.1-.1-.7 0-1.5.1-2.2.1-.4.2-.8.3-1.1.1-.4.3-.8.5-1.1.8-1.6 2-2.9 3.4-4 1.5-1.1 3.1-2 4.8-2.8l4.2-1.9h.3c.1 0 .2.1.2.2 1.4 3 3.6 5.6 6.4 7.5.2.1.2.4.1.5l-2.5 3.8c-1 1.5-2.2 3-3.5 4.2-.7.6-1.4 1.1-2.1 1.6l-1.2.6c-.4.2-.8.3-1.2.5-1 .3-2 .4-2.9.4zm6.2-18.6-3.8 1.7c-1.6.7-3.2 1.6-4.6 2.7-1.3 1-2.4 2.3-3.2 3.7-.2.3-.3.7-.5 1-.1.3-.2.7-.3 1-.1.7-.2 1.3-.1 2 0 .3.1.6.2 1l.3.9c.1.3.3.6.4.8.2.3.4.5.6.7.2.2.4.5.6.7.2.2.5.4.8.5.5.3 1.1.6 1.8.7 1.4.3 2.8.2 4.2-.2.4-.1.8-.3 1.1-.4.4-.2.7-.4 1.1-.6.7-.4 1.4-1 2-1.5 1.3-1.2 2.4-2.6 3.4-4.1l2.3-3.5c-2.8-1.7-4.9-4.2-6.3-7.1zm-12 8z"/>
            </g>
          </g>
          <g id="Group_8921_6_">
            <g id="Group_8920_6_">
              <path id="Path_10737_6_" d="M94.8 121.7c-.7.4-1.3.9-1.8 1.4-.5.5-.9 1.1-1.3 1.7-.3.6-.5 1.2-.6 1.9-.2 1.3 0 2.7.5 3.9.3.6.7 1.2 1.1 1.7.5.5 1.1 1 1.7 1.3.7.4 1.4.7 2.2.9.8.2 1.7.3 2.5.3.9 0 1.7-.1 2.6-.2 1.8-.3 3.5-.9 5.1-1.6l4.2-1.8c-1.4-3.1-1.8-6.6-1.3-10l-4.5-.7c-1.8-.3-3.6-.4-5.4-.2-.9.1-1.7.2-2.6.5-.9.2-1.7.5-2.4.9z" class="st1"/>
              <path id="Path_10738_6_" d="M99.3 135.2h-.2c-.9 0-1.7-.1-2.6-.3-.8-.2-1.5-.5-2.2-.9-.6-.4-1.2-.8-1.8-1.4-.5-.5-.9-1.1-1.2-1.8-.6-1.3-.8-2.7-.6-4.1.1-.7.4-1.4.7-2 .4-.7.8-1.3 1.3-1.8.6-.6 1.2-1.1 1.9-1.5.8-.4 1.6-.8 2.4-1 .9-.2 1.7-.4 2.6-.5 1.8-.1 3.7-.1 5.5.2l4.5.7c.2 0 .4.2.3.4-.5 3.3 0 6.7 1.3 9.8.1.2 0 .4-.2.5l-4.2 1.8c-1.7.8-3.4 1.3-5.2 1.7-.7.1-1.5.2-2.3.2zM95 122c-.6.4-1.2.8-1.8 1.3-.5.5-.9 1-1.2 1.6-.3.6-.5 1.2-.6 1.8-.2 1.2 0 2.5.5 3.6.3.6.6 1.1 1.1 1.6.5.5 1 .9 1.6 1.3.6.4 1.3.6 2.1.8.8.2 1.6.3 2.4.3.8 0 1.7-.1 2.5-.2 1.7-.3 3.4-.9 5-1.6l3.8-1.7c-1.2-3-1.7-6.3-1.3-9.5l-4.2-.6c-1.8-.3-3.5-.4-5.3-.2-.8.1-1.7.2-2.5.5-.7.3-1.4.6-2.1 1z"/>
            </g>
          </g>
          <g id="Group_8923_6_">
            <g id="Group_8922_6_">
              <path id="Path_10739_6_" d="M101.2 104.1c-1.5-.1-3 .2-4.3 1-.6.3-1.1.8-1.6 1.3-.2.2-.4.5-.6.8-.2.3-.3.6-.5.9-.3.6-.5 1.2-.5 1.9 0 .3-.1.7-.1 1 0 .3.1.7.1 1 .1.7.4 1.4.7 2 .2.3.4.7.6 1 .2.3.5.6.8.9 1.2 1.2 2.6 2.2 4.2 2.8 1.7.7 3.4 1.1 5.2 1.4l4.5.7c.6-3.4 2-6.5 4.3-9.1l-3.5-3c-1.3-1.2-2.8-2.3-4.4-3.1-.8-.4-1.6-.7-2.4-1l-1.2-.3c-.5-.1-.9-.1-1.3-.2z" class="st1"/>
              <path id="Path_10740_6_" d="M109.7 121.2c-.1 0-.1 0 0 0l-4.6-.7c-1.8-.3-3.6-.7-5.3-1.4-1.6-.7-3.1-1.7-4.3-2.9-.3-.3-.5-.6-.8-1-.2-.3-.4-.7-.6-1-.4-.7-.6-1.4-.7-2.1-.1-.4-.1-.7-.1-1.1 0-.4 0-.7.1-1.1 0-.3.1-.7.2-1 .1-.3.2-.7.4-1 .1-.3.3-.6.5-.9.2-.3.4-.6.7-.8.5-.5 1-1 1.7-1.3 1.4-.8 2.9-1.1 4.5-1 .4 0 .9.1 1.3.1.4.1.9.2 1.3.3.9.3 1.7.6 2.5 1 1.6.9 3.1 1.9 4.5 3.2l3.5 3c.2.1.2.4 0 .5-2.2 2.5-3.6 5.6-4.2 8.9 0 .1-.1.2-.2.3h-.4zm-9-16.7c-1.3 0-2.5.3-3.6.9-.6.3-1.1.7-1.5 1.2-.2.2-.4.5-.6.7-.2.3-.3.5-.4.8l-.3.9c-.1.3-.1.6-.2.9 0 .3-.1.6-.1.9 0 .3.1.7.1 1 .1.7.3 1.3.7 1.9.2.3.3.6.6.9.2.3.5.6.7.9 1.1 1.2 2.5 2.1 4.1 2.7 1.6.7 3.3 1.1 5.1 1.4l4.1.7c.6-3.2 2-6.2 4.1-8.6l-3.2-2.7c-1.3-1.2-2.8-2.2-4.3-3.1-.7-.4-1.5-.7-2.3-1l-1.2-.3c-.4-.1-.8-.1-1.2-.1h-.6z"/>
            </g>
          </g>
          <g id="Group_8925_6_">
            <g id="Group_8924_6_">
              <path id="Path_10741_6_" d="M116 92.8c-.3-.2-.7-.4-1-.6-.3-.2-.7-.3-1-.5-.3-.1-.7-.2-1-.3-.3-.1-.7-.1-1-.1h-1c-.3 0-.7.1-1 .2l-.9.3c-.3.1-.6.3-.9.5-.6.4-1.1.8-1.5 1.3-.4.5-.8 1.1-1 1.7-.5 1.4-.7 2.9-.4 4.4.1.8.4 1.6.7 2.4.4.8.8 1.5 1.3 2.3 1 1.5 2.2 2.8 3.6 4l3.4 3.1c2.3-2.5 5.2-4.4 8.5-5.4l-1.3-4.4c-.5-1.7-1.1-3.4-2-5-1-1.5-2.1-2.9-3.5-3.9z" class="st1"/>
              <path id="Path_10742_6_" d="M114.2 111.8c-.1 0-.2 0-.3-.1l-3.4-3.1c-1.4-1.2-2.6-2.6-3.7-4.1-.5-.7-.9-1.5-1.3-2.3-.4-.8-.6-1.6-.8-2.5-.3-1.5-.2-3.1.4-4.6.3-.7.6-1.3 1.1-1.8.4-.5 1-1 1.6-1.4.3-.2.6-.3.9-.5.3-.1.7-.3 1-.3.3-.1.7-.2 1-.2h1.1c.4 0 .7.1 1.1.1.4.1.7.2 1.1.3.4.1.7.3 1.1.5.4.2.7.4 1.1.7 1.4 1.1 2.6 2.4 3.5 4 .9 1.6 1.6 3.3 2.1 5.1l1.3 4.4c.1.2-.1.4-.3.5-3.2.9-6.1 2.8-8.3 5.3h-.3zm-2.7-20.1h-.6c-.6.1-1.2.2-1.8.5-.3.1-.6.3-.8.4-.5.3-1 .7-1.4 1.2-.4.5-.7 1-1 1.6-.5 1.3-.6 2.8-.4 4.2.1.8.4 1.6.7 2.3.3.8.8 1.5 1.2 2.2 1 1.4 2.2 2.8 3.5 3.9l3.1 2.8c2.2-2.4 5-4.1 8.1-5.1l-1.2-4c-.5-1.7-1.1-3.4-2-4.9-.8-1.5-1.9-2.7-3.2-3.7-.3-.2-.6-.4-1-.6-.3-.2-.6-.3-1-.4-.3-.1-.7-.2-1-.3-.3-.1-.7-.1-1-.1h-.2z"/>
            </g>
          </g>
          <g id="Group_8927_6_">
            <g id="Group_8926_6_">
              <path id="Path_10743_6_" d="M134.6 91.3c-.3-.7-.7-1.4-1.1-2-.4-.6-.9-1.1-1.5-1.5-.6-.4-1.2-.7-1.8-.9-1.9-.6-4.1-.3-5.7.9-.6.4-1.1.9-1.5 1.5-.5.6-.9 1.3-1.2 2-.6 1.6-.9 3.3-.8 5 .1 1.8.4 3.6.9 5.3l1.2 4.4c.8-.2 1.7-.4 2.5-.5.4 0 .9-.1 1.3-.1h1.2c.8 0 1.7.1 2.5.2.4 0 .8.2 1.3.2l1.2.3 1.3-4.4c.6-1.7.9-3.5 1-5.3 0-.9 0-1.7-.1-2.6-.2-.9-.4-1.7-.7-2.5z" class="st1"/>
              <path id="Path_10744_6_" d="M133.1 106.5h-.1c-.2-.1-.5-.1-.7-.2-.2 0-.3-.1-.5-.1s-.3-.1-.5-.1c-.3-.1-.5-.1-.7-.1-.8-.1-1.7-.2-2.5-.2h-1.3c-.3 0-.5 0-.8.1h-.4c-.8.1-1.6.3-2.4.5h-.3c-.1-.1-.2-.1-.2-.2l-1.2-4.4c-.5-1.8-.8-3.6-.9-5.4-.1-1.8.2-3.5.9-5.2.3-.7.7-1.4 1.2-2.1.5-.6 1-1.1 1.6-1.6 1.8-1.3 4-1.6 6.1-.9.7.2 1.3.6 1.9 1 .6.4 1.2 1 1.6 1.6.5.6.9 1.4 1.2 2.1.3.8.5 1.7.7 2.5.1.9.2 1.8.1 2.7-.1 1.8-.5 3.7-1 5.4l-1.3 4.4c0 .1-.1.2-.2.2h-.3zm-2.5-1.4c.3 0 .5.1.8.1.2 0 .3.1.5.1s.3.1.5.1.3.1.4.1l1.2-4c.5-1.7.9-3.5 1-5.2 0-.8 0-1.7-.1-2.5s-.3-1.6-.6-2.4c-.3-.7-.6-1.3-1.1-1.9-.4-.5-.9-1-1.4-1.4-.5-.4-1.1-.7-1.7-.9-.6-.2-1.2-.3-1.8-.3-1.3 0-2.5.4-3.5 1.1-.6.4-1 .9-1.5 1.4-.5.6-.8 1.2-1.1 1.9-.6 1.5-.9 3.2-.8 4.9.1 1.8.4 3.5.9 5.2l1.1 4c.7-.2 1.4-.3 2.2-.4h.4c.3 0 .6-.1.9-.1H128.1c.8.1 1.7.1 2.5.2z"/>
            </g>
          </g>
          <g id="Group_8929_6_">
            <g id="Group_8928_6_">
              <path id="Path_10745_6_" d="M151.1 100.1c.2-.8.2-1.5.1-2.3-.1-.7-.2-1.4-.5-2.1-.2-.6-.6-1.2-1-1.7-.2-.3-.4-.5-.7-.7-.2-.2-.5-.4-.8-.6-.3-.2-.6-.3-.9-.5l-.9-.3c-.7-.2-1.3-.3-2-.2-.7 0-1.4.2-2.1.4-.7.3-1.4.6-2.1 1.1-.3.2-.7.5-1 .8l-.9.9c-.6.6-1.1 1.3-1.5 2.1-.9 1.6-1.6 3.2-2.1 4.9l-1.4 4.4c3.3 1 6.2 3 8.4 5.5l3.5-3c1.4-1.2 2.6-2.5 3.7-3.9.5-.7.9-1.5 1.3-2.2.2-.4.3-.8.5-1.2.2-.6.3-1 .4-1.4z" class="st1"/>
              <path id="Path_10746_6_" d="M141.8 112.1c-.1 0-.2-.1-.3-.1-2.2-2.5-5.1-4.4-8.3-5.4-.2-.1-.3-.3-.3-.5l1.4-4.4c.5-1.8 1.2-3.4 2.2-5 .5-.8 1-1.5 1.6-2.1l.9-.9c.3-.3.7-.6 1-.8.7-.5 1.4-.8 2.2-1.1.7-.3 1.5-.4 2.2-.4.7 0 1.4 0 2.1.2.3.1.7.2 1 .3.3.1.6.3.9.5.3.2.6.4.8.6.3.2.5.5.7.8.5.6.8 1.2 1.1 1.8.3.7.4 1.4.5 2.2.1.8 0 1.6-.1 2.4-.1.4-.2.8-.3 1.3-.1.4-.3.8-.5 1.2-.4.8-.8 1.6-1.3 2.3-1.1 1.5-2.4 2.8-3.8 4l-3.5 3c0 .1-.1.1-.2.1zm-7.9-6.2c3.1 1 5.8 2.9 8 5.2l3.2-2.7c1.4-1.1 2.6-2.4 3.7-3.9.5-.7.9-1.4 1.3-2.2.2-.4.3-.8.5-1.1l.3-1.2c.1-.7.2-1.5.1-2.2 0-.7-.2-1.3-.4-2-.2-.6-.6-1.1-1-1.6-.2-.2-.4-.5-.6-.7-.2-.2-.5-.4-.7-.6-.3-.2-.5-.3-.8-.4l-.9-.3c-.6-.2-1.3-.2-1.9-.2-.7 0-1.3.2-2 .4s-1.4.6-2 1c-.3.2-.6.5-.9.7l-.9.9c-.6.6-1.1 1.3-1.5 2-.9 1.5-1.6 3.2-2.1 4.8l-1.4 4.1zm17.2-5.8z"/>
            </g>
          </g>
          <g id="Group_8931_6_">
            <g id="Group_8930_6_">
              <path id="Path_10747_6_" d="M160.2 116.4c.5-.6 1-1.2 1.4-1.9.2-.3.3-.7.4-1 .1-.3.2-.7.3-1 .1-.3.1-.7.1-1v-1c-.1-.7-.2-1.3-.5-1.9-.6-1.2-1.5-2.3-2.7-2.9-1.3-.7-2.8-1.1-4.3-1-.8 0-1.7.2-2.5.4s-1.6.5-2.4.9c-1.6.8-3.1 1.8-4.5 3l-3.5 3c2.2 2.6 3.6 5.8 4.1 9.2l4.5-.6c1.8-.2 3.6-.7 5.2-1.3.8-.3 1.6-.7 2.3-1.2.8-.5 1.5-1.1 2.1-1.7z" class="st1"/>
              <path id="Path_10748_6_" d="M146.1 121.5c-.1 0-.2 0-.2-.1-.1-.1-.1-.2-.2-.3-.5-3.3-1.9-6.4-4-9-.1-.2-.1-.4 0-.5l3.5-2.9c1.4-1.2 2.9-2.2 4.5-3.1.8-.4 1.6-.7 2.5-1 .8-.2 1.7-.4 2.6-.4 1.6-.1 3.1.3 4.5 1.1 1.2.7 2.2 1.8 2.8 3.1.3.6.5 1.3.6 2 0 .3.1.7 0 1.1 0 .4-.1.7-.1 1.1-.1.4-.2.7-.3 1.1-.1.4-.3.7-.5 1-.4.7-.9 1.4-1.4 2-.6.6-1.3 1.2-2 1.6-.8.5-1.6.9-2.4 1.2-1.7.7-3.5 1.1-5.3 1.3l-4.6.7zm-3.5-9.5c2 2.5 3.4 5.5 3.9 8.7l4.2-.6c1.8-.2 3.5-.6 5.2-1.3.8-.3 1.5-.7 2.3-1.1.7-.4 1.3-1 1.9-1.5.5-.5 1-1.1 1.3-1.8.2-.3.3-.6.4-.9.1-.3.2-.6.3-1 .1-.3.1-.6.1-1v-.9c-.1-.6-.2-1.2-.5-1.8-.5-1.2-1.4-2.1-2.5-2.8-1.2-.7-2.7-1-4.1-1-.8 0-1.6.2-2.4.4-.8.2-1.6.5-2.3.9-1.6.8-3 1.8-4.4 3l-3.4 2.7z"/>
            </g>
          </g>
        </g>
      </g>
      <g id="Group_8934_6_">
        <circle id="Ellipse_4009_6_" cx="128.2" cy="123.9" r="18.7" class="st2"/>
        <path id="Path_10749_6_" d="M128.1 143c-10.6 0-19.1-8.6-19.1-19.1 0-10.6 8.6-19.1 19.1-19.1 10.6 0 19.1 8.6 19.1 19.1 0 9.6-7.1 17.7-16.6 18.9-.8.1-1.6.2-2.5.2zM110 126.3c1.3 10 10.6 17.1 20.6 15.7 10-1.3 17.1-10.6 15.7-20.6-1.3-10-10.6-17.1-20.6-15.7-4.8.6-9.2 3.2-12.1 7-3 3.9-4.3 8.8-3.6 13.6z"/>
      </g>
    </g>
    <g id="Group_8936_6_">
      <path id="Path_10750_6_" d="M117.3 131.8z"/>
    </g>
  </g>
</svg>