<svg xmlns="http://www.w3.org/2000/svg" width="27.3" height="30" style="overflow:visible;enable-background:new 0 0 27.3 30" xml:space="preserve"><style>.st1{fill:#ff3852}</style><path style="fill:#fff" d="M5 3.8h17.9v16.7H5z"/><path class="st1" d="M27.3 5.5v12.9c0 .1 0 .1-.1.2-.1 1-.4 2-1 2.8-1 1.4-2.4 2.3-4.1 2.4-.7.1-1.3 0-2 0-.3 0-.4.1-.6.3-1.9 1.9-3.7 3.8-5.6 5.6l-.2.2-.2-.2L7.8 24c-.1-.1-.3-.2-.4-.2-.8 0-1.6 0-2.3-.1-2.4-.3-4.3-2.1-4.8-4.4-.1-.3-.1-.7-.2-1v-13c-.1 0 0-.2 0-.3C.5 2.6 2.3.6 4.7.2c.3-.1.5-.2.8-.2h16.3c.2 0 .4.1.5.1 2.4.4 4.2 2.1 4.8 4.4.1.3.1.7.2 1zM13.6 19.9c.1 0 .1 0 0 0 1.5-1.2 2.9-2.4 4.3-3.6 1.1-.9 2-2 2.8-3.2.7-1.1 1.1-2.2.9-3.5-.2-1.3-.6-2.5-1.6-3.4-1-1-2.2-1.4-3.7-1.1-1.1.2-1.9.9-2.6 1.7-.1.1-.1.2-.2.2-.2-.2-.4-.5-.7-.7-.2-.2-.5-.4-.7-.6-1.5-1-3.3-.9-4.7.2-1.8 1.4-2.3 4-1.7 5.7.4 1.1 1 2 1.7 2.8 1.9 2.1 4.1 3.8 6.2 5.5z"/><path class="st1" d="M6.5 9.5C6.4 8 7.5 6.4 9 6.1h.6c.1 0 .1.1.2.1-.1 0-.2.1-.2.1-.8 0-1.5.4-2 1-.6.7-.9 1.5-.8 2.4 0 .2.1.5.1.7 0 .1.1.2-.1.3-.1 0-.2-.1-.2-.2 0-.3-.1-.6-.1-1z"/></svg>