<svg xmlns="http://www.w3.org/2000/svg" width="50.3" height="50.3" style="overflow:visible;enable-background:new 0 0 50.3 50.3" viewBox="0 0 50.3 50.3">
  <circle cx="25.2" cy="25.2" r="25.2" style="fill:#FFFFFF"/>
  <path d="M25.1 47.3C12.9 47.3 3 37.4 3 25.2 3.1 12.9 13 3.1 25.2 3.1S47.3 13 47.3 25.2c0 12.2-9.9 22.1-22.2 22.1zm-3.3-8.6c.3 0 .6-.1.9-.1 3.2-.5 5.5-2.2 7.3-4.8.2-.3.4-.6.5-1 .1-.4.2-.9-.3-1.1-.2-.1-.7.2-.9.5-.8.8-1.5 1.6-2.3 2.4-.3.3-.8.7-1.2.4-.5-.4-.1-.8.1-1.2 1.1-2.9 2.3-5.8 3.4-8.8.4-1.1.6-2.3.7-3.5.1-1.1-.6-1.9-1.6-2.1-.6-.1-1.3-.2-1.9-.1-3.2.4-5.5 2.1-7.4 4.6-.2.3-.5.7-.5 1.1 0 .4.2.8.3 1.1.3-.2.6-.3.9-.5.3-.3.5-.6.8-.9.5-.5 1.1-1.1 1.7-1.6.3-.2.8-.2 1.2-.4 0 .4 0 .8-.1 1.2l-3 7.5c-.5 1.3-.9 2.8-1.1 4.2-.3 1.4.4 2.5 1.6 2.8.2.2.6.3.9.3zm6.9-20.8c1.8 0 3.3-1.5 3.3-3.2 0-1.6-1.4-3-2.9-3-1.8 0-3.3 1.6-3.3 3.4 0 1.6 1.3 2.8 2.9 2.8z" style="fill:#1DCFFF"/>
</svg>