<!-- Generator: Adobe Illustrator 25.2.0, SVG Export Plug-In  -->
<svg version="1.1" xmlns="http://www.w3.org/2000/svg" xmlns:xlink="http://www.w3.org/1999/xlink" x="0px" y="0px" width="462.8px"
	 height="462.9px" viewBox="0 0 462.8 462.9" style="overflow:visible;enable-background:new 0 0 462.8 462.9;"
	 xml:space="preserve">
<style type="text/css">
	.st0{fill:#191918;}
	.st1{fill:#E0E21B;}
	.st2{fill:#E0E21B;stroke:#191918;stroke-width:3;stroke-miterlimit:10;}
</style>
<defs>
</defs>
<path class="st0" d="M0,231.7C-0.3,102.3,105.8-2.2,235.9,0c125.5,2.1,228.9,105.6,226.9,235.4c-1.9,124.8-102.9,226.3-229.4,227.4
	C103.2,464,0.2,359,0,231.7z M382.9,225.9c-2.2-84-68.9-148-150.9-147.3C147.9,79.4,81.6,148,83.9,232
	c2.3,82.9,69.3,146.6,151.4,145.5C318.2,376.5,384.3,308.1,382.9,225.9z M413.4,182.2c-0.2-0.4-0.5-0.8-0.7-1.1
	c0.5-1.1,0.9-2.3,1.5-3.3c3.1-5.4,6.3-10.7,9.3-16.2c0.7-1.3,1.1-3.2,0.8-4.5c-1.1-4.3-2.8-8.6-4.1-12.8c-0.7-2.2-2-2.9-4.2-2.2
	c-12,3.9-23.9,7.7-35.8,11.7c-0.8,0.3-1.8,2.2-1.6,3.1c1,3.9,2.4,7.7,3.7,11.5c0.7,2.1,2.2,2.3,4.2,1.7c3.7-1.2,7.5-2.4,11.2-3.5
	c1.1-0.3,2.3-0.4,4.4-0.7c-0.9,2.2-1.4,3.7-2.2,5c-2.5,4.3-4.8,8.7-7.6,12.8c-2.6,3.8-3.5,7.5-1.3,11.9c1.1,2.3,1.6,4.8,2.5,7.2
	c1.5,4.4,1.6,4.5,6.1,2.9c9.9-3.3,19.7-6.5,29.5-9.8c8.1-2.7,7.4-1.6,5-9.3c-3.6-11.5-1.5-9.9-12.5-6.7
	C418.7,180.6,416.1,181.4,413.4,182.2z M437.1,234.1c-0.4-2.2-0.7-5.7-1.6-9c-2.6-9.1-9.2-14.3-19.2-15.3c-9-0.9-16.5,3-20.5,11.1
	c-3.9,7.9-5.1,16.2-3.4,24.9c0.5,2.6,1.8,5.1-1.6,6.8c-0.6,0.3-0.8,1.6-0.9,2.5c-0.4,2.3-0.6,4.6-1,6.9c-0.5,2.6,0.4,3.9,3.1,4.3
	c6.2,0.8,12.3,1.6,18.5,2.5c2.2,0.3,3.2-0.7,3.5-2.8c1.1-7.8,2.2-15.5,3.2-23.3c0.1-1-0.3-2.5-1-3c-3.5-2.8-7.6-1-8.2,3.3
	c-0.2,1.6-0.3,3.2-0.7,4.8c-0.3,1.1-1.1,2-1.7,3.1c-0.9-1-2.2-1.8-2.5-2.9c-1.2-5.6-0.5-11.1,2.4-16c2.3-3.8,6.2-4,10.2-3.3
	c3.8,0.7,7,2.1,7.9,6.2c1.2,5.4,0.6,10.5-2.4,15.3c-0.7,1-1.3,2.2-1.5,3.4c-0.7,4-1.2,8-1.7,12c-0.3,2.9,0.6,3.6,3.4,2.7
	c5.1-1.7,8.2-5.5,10.5-10C435.6,251,436.6,243.3,437.1,234.1z M133.9,64.3c-3.7-4-8.3-5.3-14-3.5c-13.8,4.4-24.3,13-30.7,26.1
	c-2.2,4.4-2.2,9,1.6,12.8c3.7,3.8,8.3,4,12.8,2.2c3.9-1.6,7.6-3.9,11.2-6.1c4.2-2.5,8.2-5.2,12.3-7.6c0.8-0.5,2.3,0.1,3.5,0.1
	c-0.1,1,0.2,2.4-0.3,2.8c-3.8,2.9-7.5,6.3-11.8,8c-2.7,1-5.3,1.8-7.5,3.6c-2.6,2.1-5.2,4.2-7.8,6.3c-3,2.5-2.8,3.8,0.8,5.2
	c4.8,1.9,9.9,1.5,14.1-1c6.5-3.8,12.9-8,18.6-13c4.1-3.5,7.2-8.3,10-13c2.5-4.2,1.6-8.7-1.6-12.6c-3.2-3.8-7.3-4.6-11.9-3.3
	c-2.1,0.6-4.1,1.5-6,2.7c-5.6,3.5-10.9,7.3-16.6,10.7c-1.5,0.9-3.7,0.6-5.6,0.9c0.8-1.7,1.2-3.9,2.5-5.1c3-2.9,6.9-3.9,10.8-5.4
	C124,72.9,128.7,68.1,133.9,64.3z M226.4,69.4c0-0.5,0-0.9,0-1.4c6.9,0,13.8,0,20.8,0c3.1,0,4.5-1.4,4.1-4.5
	c-0.1-0.8-0.1-1.6-0.1-2.4c-0.2-4.5-0.6-4.9-5.1-4.8c-7.4,0.2-14.8,0.6-22.1,0.6c-1.2,0-2.4-1.3-3.7-2c1.2-0.8,2.4-2.1,3.7-2.2
	c6-0.4,12-0.6,18-0.8c7.7-0.2,7.7,0.1,7.1-8.6c-0.1-1-1.8-2.5-3-2.8c-2.1-0.4-4.4,0-6.5,0c-5.1,0.2-10.1,0.5-15.2,0.4
	c-1.5,0-4.3-1.2-4.3-1.9c-0.1-2.9,2.6-2.1,4.4-2.4c0.7-0.1,1.4-0.1,2.1-0.1c6.3-0.2,12.7-0.5,19-0.7c4.1-0.2,4.5-0.6,4.2-4.8
	c0-0.7-0.1-1.4-0.1-2.1c-0.3-4.5-0.6-4.9-5.2-4.7c-13,0.4-26.1,1-39.1,1.4c-3.4,0.1-4.4,1.5-4.2,4.7c0.5,11.6,0.9,23.3,1.3,34.9
	c0.1,3,1.3,4,4.3,4C213.1,69.3,219.7,69.4,226.4,69.4z M320.4,91c0.1-1.6,0.3-2.4,0.2-3.2c-1.4-14.1-2.8-28.2-4.5-42.3
	c-0.2-1.4-1.8-3.2-3.2-3.8c-4.4-2-9.1-3.4-13.5-5.4c-3.7-1.7-6.4-1-9.3,1.7c-9.8,8.7-19.8,17.2-29.7,25.9c-0.9,0.8-1.6,1.7-3,3.2
	c4.8,1.9,9,3.3,13.1,5.1c3,1.3,5.5,1.4,7.7-1.4c1.5-1.9,3.4-1.9,5.6-1.1c4.7,1.9,9.4,3.7,14.2,5.4c3,1,4.6,2.6,4.6,6
	c0,1.3,0.9,3.2,1.9,3.7C309.5,86.9,314.7,88.8,320.4,91z M186.4,75.1c-0.5-0.5-0.9-1-1.4-1.5c-0.3-1-0.6-2-1-3
	c-2.7-7.1-5.3-14.3-8-21.4c-1-2.5-0.6-4.2,2.2-5c2.5-0.8,5-1.8,7.5-2.8c6.3-2.3,6.3-2.3,4-8.7c-1.8-4.9-1.9-5-6.6-3.2
	c-13.2,4.8-26.4,9.7-39.6,14.6c-8.1,3-8,2.9-4.9,11c1,2.6,2.3,3,4.7,1.9c3-1.3,6-2.3,9.1-3.4c4.3-1.6,4.8-1.4,6.3,2.9
	c2.6,7.1,5.3,14.3,7.8,21.5c0.9,2.6,2.3,3.5,5,2.5c3.9-1.5,7.8-2.9,11.7-4.3C184.2,75.9,185.3,75.5,186.4,75.1z M47.1,277.9
	c0.2,0.4,0.3,0.7,0.5,1.1c-0.9,0.6-1.7,1.3-2.7,1.8c-2.8,1.4-5.6,2.7-8.4,4.1c-7.9,3.9-6.8,2.3-4.8,10.4c0.7,2.8,2,3.3,4.4,1.9
	c5.1-2.7,10.2-5.4,15.4-8c1.2-0.6,3-1.2,4.2-0.7c6.5,2.5,12.5,0.8,18.3-2.1c5.3-2.7,7.1-6.5,5.7-12.3c-0.9-3.8-1.9-7.6-3-11.4
	c-1.2-4.2-1.6-4.4-5.9-3.3c-13.8,3.8-27.6,7.7-41.4,11.5c-3,0.8-3.9,2.1-3,5.2c1.8,6.5,1.7,6.5,8.3,4.6c3-0.9,6-1.7,9-2.5
	C44.9,278.1,46,278.1,47.1,277.9z M279.1,390.9c0.1,0.6,0.1,1.9,0.5,3.1c3.8,10.1,7.5,20.3,11.7,30.3c2.2,5.3,7.5,6.8,13.2,4.6
	c4-1.5,7.9-3.3,12-4.8c2.1-0.8,2.9-2,2-4.2c-2.7-7.2-5.3-14.5-8-21.7c-0.2-0.5-0.4-1.2-0.8-1.5c-2.7-2.2-5,0.3-7.3,1
	c-1.7,0.5-4.6,2.4-4.4,3.3c0.5,2.6,2.1,4.9,3.3,7.3c1.4,2.8,2.9,5.6,4.1,8.5c0.2,0.5-0.5,2.1-1,2.2c-0.8,0.2-2.1-0.1-2.7-0.7
	c-0.8-0.7-1.2-1.9-1.6-3c-2.2-6.1-4.4-12.1-6.6-18.2c-0.8-2.2-1.6-4.3-2.1-6.6c-0.2-0.7,0.4-2,1-2.2c0.6-0.2,1.7,0.4,2.3,0.9
	c0.5,0.4,0.8,1.2,0.9,1.8c0.8,3.6,2.7,3.8,5.9,2.6c6.3-2.5,6.3-2.4,3.6-8.8c-2.5-5.9-7.2-8.4-13.3-7.2
	C284,379.1,279.1,384,279.1,390.9z M51.1,246.7c0-0.2,0-0.4,0-0.6c5.4,0,10.8,0,16.3,0c6.3,0,6.6-0.3,6.4-6.7c0-0.2,0-0.5,0-0.7
	c0.1-3-1.3-4.4-4.4-4.3c-5.3,0.2-10.6,0.4-15.9,0.5c-6.5,0.2-12.9,0.3-19.4,0.3c-1,0-1.9-1.1-2.9-1.7c0.9-0.7,1.7-1.6,2.7-2.1
	c0.7-0.3,1.6-0.2,2.4-0.2c9.9-0.2,19.8-0.4,29.7-0.6c7.7-0.1,7.9-0.4,7.3-8.1c-0.2-2.5-1.4-3.5-3.7-3.4c-12.3,0.4-24.7,0.5-37,1.1
	c-7.8,0.4-12,5.6-11.6,13.4c0.3,8.5,4.6,12.8,12.9,12.9C39.6,246.8,45.3,246.7,51.1,246.7z M256,404.3c-0.4,0.1-0.8,0.2-1.2,0.3
	c-0.6-1.3-1.4-2.5-1.9-3.9c-1.3-3.3-2.5-6.7-3.9-10c-1.5-3.5-4.5-2-6.9-1.7c-2.4,0.3-2.3,2.2-2.1,4c1.8,14.8,3.7,29.5,5.5,44.3
	c0.3,2.5,1.6,3.5,4,3.1c1-0.2,2-0.4,3.1-0.4c2.6-0.2,3.6-1.4,3.2-4.1c-0.6-3.4-0.9-6.9-1.2-10.3c-0.1-0.9,0.2-1.8,0.3-2.7
	c0.3,0,0.6-0.1,1-0.1c0.6,1.1,1.2,2.1,1.6,3.2c1.4,3.4,2.6,6.9,4,10.3c1.5,3.5,4.5,2.2,6.9,1.5c1-0.3,2.3-2.3,2.2-3.5
	c-1.6-15-3.4-30-5.3-45c-0.1-0.8-0.7-2.3-1.1-2.3c-2.8,0-5.7,0.1-8.4,0.8c-0.6,0.2-0.9,2.8-0.8,4.3
	C255.1,396.2,255.6,400.2,256,404.3z M358.3,124.7c0.8-0.6,1.6-1.1,2.2-1.7c1.4-1.5,2.7-3.2,4.2-4.6c2-1.9,2-3.5-0.1-5.4
	c-4.2-3.7-8.4-7.6-12.5-11.4c-3.5-3.3-3.5-3.5-0.4-6.9c4.7-5.1,9.3-10.2,14-15.3c3-3.3,3.1-3.8-0.3-6.9c-2.4-2.2-4.9-4.2-7.1-6.6
	c-2.1-2.2-3.6-2.2-5.6,0.1c-8.1,9-16.2,18-24.4,26.9c-2,2.1-1.4,3.5,0.5,5.2c9,8.2,18,16.5,27.1,24.8
	C356.4,123.4,357.3,124,358.3,124.7z M343.4,409.3c3.1-1.5,6.6-2.7,9.4-4.7c5.8-4.2,6.6-9.1,3.4-15.5c-2.6-5.1-6.6-8.6-12.2-10
	c-3.2-0.8-6.7-1-9.8-2.1c-2.3-0.8-4.4-2.4-6.2-4c-0.6-0.6-0.2-2.4-0.2-3.6c1.1,0.4,2.2,0.7,3.3,1.1c1.1,0.4,2.4,1.6,3.1,1.2
	c2.1-0.9,4-2.3,5.8-3.7c0.5-0.4,0.5-2,0.1-2.7c-3.1-6-9.6-8.5-15.2-5.9c-7.1,3.3-10.4,9.8-7.7,16.3c2.6,6.2,6.8,10.9,14,12.2
	c3.1,0.5,6.2,0.9,9.1,2c2.2,0.8,4.1,2.4,5.8,4c0.6,0.6,0.2,2.2,0.2,3.4c-1.1-0.4-2.6-0.5-3.1-1.2c-1.6-2.5-3.2-2.1-5.1-0.5
	c-1.1,0.9-2.4,1.5-3.4,2.4c-0.6,0.5-1.2,1.6-1.1,2.3C333.9,403.9,339.4,408.5,343.4,409.3z M168.3,376.2c-1-0.9-1.6-1.7-2.4-2.2
	c-4.9-2.6-9.9-5-14.8-7.5c-1.8-1-3-0.4-3.9,1.3c-7.1,13.7-14.3,27.4-21.3,41.1c-0.4,0.8,0.2,2.9,0.9,3.3c5.1,2.9,10.3,5.6,15.6,8.1
	c0.8,0.4,2.6-0.1,3.2-0.8c4.3-5.2,3.9-7.1-1.8-10.3c-1.3-0.7-3.2-2.4-3-3.2c0.6-2.5,1.8-5.1,3.5-6.9c0.6-0.7,3.6,0.3,5.2,1.1
	c2.8,1.5,4.7,1.7,6.3-1.7c2.4-4.9,2.6-4.9-2.3-7.5c-0.8-0.4-1.8-0.8-2.3-1.4c-0.5-0.6-1-1.6-0.9-2.3c0.8-5.8,3.9-7.3,8.9-4.7
	c0.8,0.4,1.6,1,2.5,1.2c0.7,0.2,2,0.4,2.2,0C165.3,381.5,166.7,379,168.3,376.2z M104.8,397.4c0.5-0.2,0.9-0.3,1.2-0.5
	c5.1-2.6,5.6-7.3,1.3-10.8c-0.7-0.6-1.6-1.1-2-1.9c-0.4-0.9-0.7-2.2-0.4-3c3-5.9,5.3-6.4,10.4-2.3c0.4,0.4,0.9,0.9,1.4,1
	c0.9,0.1,2.1,0.3,2.8-0.2c5-3.6,5.1-6,0.6-10c-0.5-0.5-1.2-0.8-1.5-1.4c-0.4-0.6-0.8-1.5-0.7-2.2c0.9-4.6,5.8-6.3,9.5-3.3
	c4.5,3.6,4.5,3.6,8.1-0.7c0.4-0.4,0.7-0.9,1.1-1.3c1.6-1.7,1.5-3.1-0.4-4.6c-4.1-3.4-8.1-6.8-12-10.4c-1.9-1.7-3.2-1.4-4.8,0.5
	c-9.6,11.5-19.3,22.9-29,34.3c-1.6,1.8-1.7,3.3,0.3,5c4.1,3.4,8,6.9,12.1,10.3C103.3,396.6,104.1,397,104.8,397.4z M407.7,124.1
	c-0.3-0.4-0.7-0.8-1-1.1c-0.2-0.4-0.3-0.9-0.5-1.3c-2.7-4-5.3-8.1-8.2-12c-0.5-0.6-2.6-0.8-3.4-0.3c-10.6,6.9-21.1,14.1-31.7,21.1
	c-1.7,1.1-2,2.3-0.8,4c2.4,3.5,4.8,7,7.1,10.6c1.3,2,2.6,2.3,4.5,0.9c10.3-7,20.7-13.8,31.1-20.7
	C405.6,124.8,406.7,124.5,407.7,124.1z M94.5,345.4c-1.3-1.9-2.4-3.4-3.4-5c-0.6-0.9-1.5-2.6-1.2-3c1.7-1.8,3.5-3.7,5.7-4.7
	c0.7-0.3,2.9,1.4,3.8,2.6c4.2,5.3,4.1,5.4,9.5,1.3c0.2-0.1,0.4-0.3,0.6-0.4c2.1-1.4,2.3-2.8,0.7-4.8c-3-3.8-5.8-7.7-8.7-11.6
	c-2.8-3.7-2.9-3.7-6.5-1.1c-10.7,7.9-21.4,15.7-32,23.6c-6.7,5-6.5,4.1-1.1,11.3c1.3,1.7,2.7,1.9,4.4,0.6c3.3-2.5,6.7-5,10-7.5
	c3.7-2.8,4.1-2.7,6.9,0.9c3.4,4.3,3.4,4.3,7.8,1C92.1,347.6,93.2,346.5,94.5,345.4z M183.1,381.1c-0.7,0.9-1.9,1.8-2.2,2.9
	c-3.9,14.5-7.7,29-11.5,43.4c-0.6,2.3,0,3.8,2.4,4.4c5.6,1.4,11.1,3,16.7,4.3c1,0.2,2.5,0,3.1-0.6c3.6-3.5,2.1-8.7-2.7-10.1
	c-6.6-1.9-6.6-1.9-4.8-8.4c0-0.1,0.1-0.2,0.1-0.3c2.6-9.6,5.2-19.1,7.7-28.7c0.4-1.6,1.6-3.7-1.1-4.7
	C188.5,382.6,186.2,382,183.1,381.1z M387.8,339.9c-0.3-2.4,0.9-3.1,3.1-2.9c1.7,0.2,3.4,0.4,5.1,0.7c2.1,0.4,3.3-0.5,3.6-2.6
	c0.2-1.1,0.3-2.3,0.7-3.4c0.7-2.4-0.4-3.3-2.6-3.7c-7.7-1.5-7.6-1.6-4.2-8.9c0.5-1,0.8-2.6,0.3-3.4c-2.3-3.8-6.7-3.6-8.7,0.2
	c-3.5,6.7-3.5,6.7-8.8,1c-0.8-0.9-2.6-2.2-2.9-2c-2,1.4-4,3.1-5.4,5.1c-0.4,0.6,0.7,2.7,1.5,3.7c5,5.8,5,5.8-2,9.1
	c-1.2,0.6-3.1,1.8-3,2.4c0.5,2.3,1.4,4.6,2.7,6.5c0.4,0.5,2.9-0.2,4.3-0.7c6.4-2.8,6.4-2.8,7.6,4.1c0.7,4,1.3,4.5,5.2,3.8
	c4.4-0.7,4.7-1.1,4-5.7C388.2,342.2,388,341,387.8,339.9z M85,160.6c-0.5-0.5-1.5-1.7-2.8-2.3c-1.3-0.6-2.9-0.6-4.4-0.8
	c-2.4-0.4-3.3-1.5-1.9-3.8c0.9-1.6,1.7-3.3,2.6-4.9c1.8-3.3-1-3.9-2.9-5.1c-2-1.3-3.8-1.7-5.1,0.9c-0.9,1.8-1.8,3.5-2.8,5.2
	c-1,1.8-2.2,1.8-3.6,0.4c-0.7-0.7-1.3-1.3-1.9-2c-4.1-4.6-4.1-4.5-8.4,0c-1.7,1.8-1.8,3.1-0.2,5c5.3,6.2,5.3,6.4-2.1,9.8
	c-3.1,1.4-2.6,3.2-1.5,5.5c1.1,2.3,1.7,4.5,5.2,3c7-3,7-2.8,8.8,4.8c0.3,1.1,1.3,2.7,2.3,2.9c5.1,1.2,7.5-1.1,6.7-6.3
	c-0.2-1-0.3-2.1-0.5-3.1c-0.3-2.1,0.5-3.1,2.6-2.9c1,0.1,2.1,0.2,3.1,0.3C83.7,168,84.5,167.3,85,160.6z M219.6,388.2
	c-5.2-0.2-5.5-0.1-5.9,5.1c-1,12.8-1.9,25.5-3,38.3c-0.7,8.5-0.8,8.4,7.6,8.7c2.5,0.1,3.5-0.9,3.7-3.3c1.2-14.9,2.4-29.9,3.7-44.8
	c0.2-2.7-0.6-3.9-3.3-3.9C221.5,388.4,220.5,388.3,219.6,388.2z"/>
<g>
	<g>
		<path class="st1" d="M233.4,377.6c-81.8,0-147.6-64.1-149.9-146c-1.1-40.7,13.6-79.1,41.6-108.1c28.1-29.1,66-45.3,106.9-45.7
			c0.5,0,0.9,0,1.4,0c39.6,0,76.8,15.1,104.8,42.4c28.1,27.5,44.1,64.9,45.2,105.3c0.7,39.9-14.3,77.7-42.3,106.5
			c-28,28.9-65.6,45-105.7,45.5C234.7,377.6,234,377.6,233.4,377.6z M232.5,90.3c-36.9,0.3-71.3,14.8-97,40.8
			c-25.6,25.9-39.6,60.2-39.6,96.7c0,36.7,14.3,71.2,40.2,97.1c25.9,26,60.4,40.3,97.1,40.3h0.2c37.5,0,72.6-14.8,98.6-41.5
			c25.8-26.5,39.6-61.7,38.8-99.1c-0.8-36.3-15.5-70.2-41.2-95.4c-25.7-25.1-59.7-38.9-95.8-38.9C233.2,90.3,232.9,90.3,232.5,90.3z
			"/>
	</g>
	<g>
		<path class="st0" d="M233.3,79.3c39.2,0,76,14.9,103.7,42c27.8,27.2,43.7,64.3,44.8,104.2c0.3,19.9-3.3,39.4-10.7,57.8
			c-7.2,17.8-17.7,33.8-31.1,47.7c-27.7,28.6-64.9,44.6-104.7,45.1c-0.6,0-1.3,0-1.9,0c-39.1,0-75.9-14.8-103.6-41.6
			C102,307.5,86.1,271,85,231.6c-1.1-40.3,13.5-78.3,41.2-107C154,95.7,191.6,79.7,232,79.3C232.5,79.3,232.9,79.3,233.3,79.3
			L233.3,79.3 M233.1,366.7h0.2c19.1,0,37.5-3.8,54.9-11.2c16.9-7.2,32-17.5,44.8-30.7c26.1-26.8,40.1-62.3,39.2-100.2
			c-0.8-36.7-15.6-71-41.7-96.4c-26-25.4-60.4-39.4-96.9-39.4c-0.4,0-0.8,0-1.2,0c-37.3,0.3-72.1,15-98,41.2
			c-25.8,26.2-40.1,60.9-40.1,97.8c0,37.1,14.4,71.9,40.6,98.2C161.2,352.2,196.1,366.7,233.1,366.7 M233.3,76.3c-0.5,0-0.9,0-1.4,0
			c-85.1,0.7-152.4,70.2-150,155.3c2.3,83.3,69.1,147.4,151.4,147.4c0.6,0,1.3,0,2,0c83.9-1,150.9-70.3,149.5-153.6
			C382.6,140.9,315.8,76.3,233.3,76.3L233.3,76.3z M233.1,363.7c-75,0-135.8-60.9-135.8-135.9c0-74.4,59.5-135.4,135.1-136
			c0.4,0,0.8,0,1.2,0c73.7,0,133.9,58.4,135.6,132.9c1.7,77.8-60.5,138.9-135.9,139C233.3,363.7,233.2,363.7,233.1,363.7
			L233.1,363.7z"/>
	</g>
</g>
<path class="st1" d="M413.4,181.8c2.7-0.8,5.4-1.6,8-2.4c10.9-3.3,8.9-4.9,12.5,6.7c2.4,7.7,3.2,6.6-5,9.3
	c-9.8,3.3-19.7,6.6-29.5,9.8c-4.6,1.5-4.7,1.5-6.1-2.9c-0.8-2.4-1.3-4.9-2.5-7.2c-2.2-4.4-1.3-8,1.3-11.9c2.8-4.1,5.1-8.5,7.6-12.8
	c0.8-1.3,1.2-2.8,2.2-5c-2,0.3-3.2,0.4-4.4,0.7c-3.8,1.1-7.5,2.3-11.2,3.5c-1.9,0.6-3.4,0.5-4.2-1.7c-1.3-3.8-2.7-7.6-3.7-11.5
	c-0.2-0.9,0.8-2.8,1.6-3.1c11.9-4,23.9-7.8,35.8-11.7c2.2-0.7,3.5,0,4.2,2.2c1.4,4.3,3,8.5,4.1,12.8c0.4,1.4-0.1,3.2-0.8,4.5
	c-3,5.5-6.2,10.8-9.3,16.2c-0.6,1.1-1,2.2-1.5,3.3C412.9,181.1,413.1,181.5,413.4,181.8z"/>
<path class="st1" d="M437.1,233.8c-0.5,9.1-1.5,16.9-5.2,24c-2.3,4.6-5.4,8.3-10.5,10c-2.8,0.9-3.7,0.2-3.4-2.7c0.5-4,1-8,1.7-12
	c0.2-1.2,0.8-2.4,1.5-3.4c3-4.8,3.7-9.9,2.4-15.3c-0.9-4.1-4.2-5.5-7.9-6.2c-4-0.7-7.9-0.5-10.2,3.3c-3,4.9-3.6,10.4-2.4,16
	c0.2,1.1,1.6,2,2.5,2.9c0.6-1,1.4-2,1.7-3.1c0.4-1.5,0.5-3.2,0.7-4.8c0.6-4.4,4.8-6.1,8.2-3.3c0.7,0.6,1.1,2,1,3
	c-1,7.8-2.1,15.5-3.2,23.3c-0.3,2.1-1.4,3.1-3.5,2.8c-6.2-0.9-12.3-1.7-18.5-2.5c-2.7-0.3-3.5-1.7-3.1-4.3c0.4-2.3,0.6-4.6,1-6.9
	c0.1-0.9,0.3-2.2,0.9-2.5c3.4-1.7,2.1-4.2,1.6-6.8c-1.8-8.7-0.5-17,3.4-24.9c4-8.1,11.5-12,20.5-11.1c10,1,16.7,6.2,19.2,15.3
	C436.5,228.1,436.8,231.5,437.1,233.8z"/>
<path class="st1" d="M133.9,63.9c-5.2,3.8-10,8.6-15.7,10.8c-3.9,1.5-7.8,2.5-10.8,5.4c-1.3,1.2-1.7,3.4-2.5,5.1
	c1.9-0.3,4.1,0,5.6-0.9c5.6-3.4,11-7.2,16.6-10.7c1.8-1.1,3.9-2,6-2.7c4.6-1.3,8.7-0.5,11.9,3.3c3.2,3.8,4.1,8.4,1.6,12.6
	c-2.8,4.7-6,9.5-10,13c-5.7,5-12.1,9.2-18.6,13c-4.2,2.5-9.3,2.9-14.1,1c-3.6-1.4-3.8-2.7-0.8-5.2c2.6-2.1,5.2-4.2,7.8-6.3
	c2.2-1.8,4.9-2.6,7.5-3.6c4.3-1.7,8-5.1,11.8-8c0.5-0.4,0.2-1.9,0.3-2.8c-1.2-0.1-2.6-0.6-3.5-0.1c-4.2,2.4-8.2,5.2-12.3,7.6
	c-3.7,2.2-7.3,4.5-11.2,6.1c-4.5,1.9-9.1,1.7-12.8-2.2c-3.7-3.8-3.7-8.4-1.6-12.8c6.4-13.1,16.9-21.7,30.7-26.1
	C125.6,58.6,130.2,59.9,133.9,63.9z"/>
<path class="st1" d="M226.4,69c-6.7,0-13.4-0.1-20.1,0c-2.9,0.1-4.2-1-4.3-4c-0.3-11.6-0.7-23.3-1.3-34.9c-0.1-3.2,0.9-4.6,4.2-4.7
	c13-0.4,26.1-0.9,39.1-1.4c4.6-0.2,4.9,0.2,5.2,4.7c0,0.7,0.1,1.4,0.1,2.1c0.2,4.2-0.1,4.6-4.2,4.8c-6.3,0.3-12.7,0.5-19,0.7
	c-0.7,0-1.4,0-2.1,0.1c-1.8,0.3-4.5-0.5-4.4,2.4c0,0.7,2.8,1.9,4.3,1.9c5.1,0.1,10.1-0.3,15.2-0.4c2.2-0.1,4.4-0.5,6.5,0
	c1.2,0.2,2.9,1.7,3,2.8c0.7,8.8,0.7,8.4-7.1,8.6c-6,0.1-12,0.3-18,0.8c-1.3,0.1-2.4,1.4-3.7,2.2c1.2,0.7,2.5,2,3.7,2
	c7.4,0,14.8-0.4,22.1-0.6c4.6-0.1,5,0.3,5.1,4.8c0,0.8,0,1.6,0.1,2.4c0.4,3.1-0.9,4.5-4.1,4.5c-6.9-0.1-13.8,0-20.8,0
	C226.4,68.1,226.4,68.6,226.4,69z"/>
<path class="st1" d="M320.4,90.6c-5.7-2.2-10.9-4-15.9-6.3c-1-0.4-1.9-2.4-1.9-3.7c0-3.3-1.7-4.9-4.6-6c-4.8-1.6-9.5-3.5-14.2-5.4
	c-2.2-0.9-4.1-0.8-5.6,1.1c-2.2,2.8-4.7,2.7-7.7,1.4c-4.1-1.8-8.3-3.3-13.1-5.1c1.3-1.5,2.1-2.4,3-3.2c9.9-8.6,19.9-17.1,29.7-25.9
	c2.9-2.6,5.6-3.4,9.3-1.7c4.4,2,9.1,3.4,13.5,5.4c1.4,0.7,3.1,2.4,3.2,3.8c1.7,14.1,3,28.2,4.5,42.3
	C320.7,88.1,320.6,88.9,320.4,90.6z M289,60.5c3.9,1.5,6.8,2.8,9.8,3.7c0.5,0.2,2.1-1.3,2.2-2c0.1-2.9-0.3-5.7-0.5-8.6
	c-0.2-1.9-1.3-2.5-2.8-1.1C295,54.8,292.5,57.2,289,60.5z"/>
<path class="st1" d="M186.4,74.8c-1.1,0.4-2.2,0.7-3.3,1.1c-3.9,1.4-7.8,2.8-11.7,4.3c-2.7,1-4.1,0-5-2.5
	c-2.5-7.2-5.2-14.3-7.8-21.5c-1.6-4.3-2-4.5-6.3-2.9c-3,1.1-6.1,2.1-9.1,3.4c-2.4,1-3.7,0.7-4.7-1.9c-3.1-8.1-3.2-8,4.9-11
	c13.2-4.8,26.4-9.8,39.6-14.6c4.8-1.7,4.9-1.6,6.6,3.2c2.3,6.4,2.3,6.4-4,8.7c-2.5,0.9-4.9,2-7.5,2.8c-2.8,0.9-3.2,2.5-2.2,5
	c2.7,7.1,5.4,14.3,8,21.4c0.4,1,0.6,2,1,3C185.5,73.8,186,74.3,186.4,74.8z"/>
<path class="st1" d="M47.1,277.5c-1.1,0.2-2.2,0.2-3.2,0.5c-3,0.8-6,1.6-9,2.5c-6.7,1.9-6.5,1.9-8.3-4.6c-0.9-3.1,0-4.4,3-5.2
	c13.8-3.7,27.6-7.7,41.4-11.5c4.3-1.2,4.6-1,5.9,3.3c1.1,3.8,2.2,7.5,3,11.4c1.3,5.8-0.4,9.6-5.7,12.3c-5.8,2.9-11.8,4.6-18.3,2.1
	c-1.2-0.4-3,0.1-4.2,0.7c-5.2,2.5-10.3,5.2-15.4,8c-2.5,1.3-3.7,0.9-4.4-1.9c-2-8.1-3.1-6.5,4.8-10.4c2.8-1.4,5.6-2.7,8.4-4.1
	c0.9-0.5,1.8-1.2,2.7-1.8C47.4,278.3,47.3,277.9,47.1,277.5z M61,278.3c2.4-0.8,4.4-1.2,6.2-2.1c0.8-0.4,1-1.8,1.5-2.8
	c-1-0.3-2-1.1-2.9-1c-1.8,0.2-3.6,0.6-5.3,1.3c-0.9,0.4-1.5,1.6-2.2,2.4C59.2,276.9,60.1,277.6,61,278.3z"/>
<path class="st1" d="M279.1,390.5c0-6.9,4.8-11.8,12.5-13.3c6.1-1.2,10.8,1.3,13.3,7.2c2.7,6.4,2.7,6.2-3.6,8.8
	c-3.1,1.2-5.1,1-5.9-2.6c-0.1-0.7-0.4-1.4-0.9-1.8c-0.6-0.5-1.7-1.1-2.3-0.9c-0.5,0.2-1.1,1.5-1,2.2c0.5,2.2,1.3,4.4,2.1,6.6
	c2.2,6.1,4.4,12.1,6.6,18.2c0.4,1.1,0.8,2.3,1.6,3c0.6,0.6,1.9,0.9,2.7,0.7c0.5-0.2,1.2-1.7,1-2.2c-1.2-2.9-2.7-5.7-4.1-8.5
	c-1.2-2.4-2.9-4.8-3.3-7.3c-0.1-0.8,2.7-2.7,4.4-3.3c2.3-0.7,4.6-3.2,7.3-1c0.4,0.3,0.6,1,0.8,1.5c2.7,7.2,5.3,14.5,8,21.7
	c0.9,2.3,0.1,3.4-2,4.2c-4,1.6-7.9,3.3-12,4.8c-5.7,2.2-11,0.6-13.2-4.6c-4.2-10-7.9-20.2-11.7-30.3
	C279.2,392.4,279.2,391.1,279.1,390.5z"/>
<path class="st1" d="M51.1,246.3c-5.8,0-11.5,0-17.3,0c-8.3-0.1-12.6-4.4-12.9-12.9c-0.3-7.8,3.8-13,11.6-13.4
	c12.3-0.7,24.7-0.8,37-1.1c2.4-0.1,3.5,0.9,3.7,3.4c0.6,7.7,0.4,8-7.3,8.1c-9.9,0.2-19.8,0.4-29.7,0.6c-0.8,0-1.7-0.2-2.4,0.2
	c-1,0.5-1.8,1.4-2.7,2.1c1,0.6,1.9,1.7,2.9,1.7c6.5,0,12.9-0.1,19.4-0.3c5.3-0.1,10.6-0.3,15.9-0.5c3.1-0.1,4.5,1.2,4.4,4.3
	c0,0.2,0,0.5,0,0.7c0.2,6.4-0.1,6.7-6.4,6.7c-5.4,0-10.8,0-16.3,0C51.1,245.9,51.1,246.1,51.1,246.3z"/>
<path class="st1" d="M256,403.9c-0.4-4.1-0.9-8.1-1.2-12.2c-0.1-1.5,0.2-4.1,0.8-4.3c2.7-0.7,5.6-0.8,8.4-0.8c0.4,0,1,1.5,1.1,2.3
	c1.8,15,3.6,30,5.3,45c0.1,1.1-1.2,3.2-2.2,3.5c-2.4,0.7-5.4,2-6.9-1.5c-1.4-3.4-2.7-6.9-4-10.3c-0.4-1.1-1.1-2.1-1.6-3.2
	c-0.3,0-0.6,0.1-1,0.1c-0.1,0.9-0.4,1.8-0.3,2.7c0.3,3.4,0.7,6.9,1.2,10.3c0.5,2.7-0.5,3.9-3.2,4.1c-1,0.1-2.1,0.3-3.1,0.4
	c-2.4,0.4-3.7-0.6-4-3.1c-1.8-14.8-3.7-29.5-5.5-44.3c-0.2-1.8-0.2-3.7,2.1-4c2.5-0.3,5.4-1.8,6.9,1.7c1.4,3.3,2.6,6.7,3.9,10
	c0.5,1.3,1.3,2.6,1.9,3.9C255.2,404.1,255.6,404,256,403.9z"/>
<path class="st1" d="M358.3,124.3c-1-0.7-1.9-1.3-2.6-2c-9-8.2-18-16.5-27.1-24.8c-1.8-1.7-2.5-3-0.5-5.2
	c8.2-8.9,16.4-17.8,24.4-26.9c2-2.3,3.6-2.3,5.6-0.1c2.2,2.3,4.8,4.4,7.1,6.6c3.4,3.2,3.4,3.6,0.3,6.9c-4.7,5.1-9.3,10.2-14,15.3
	c-3.1,3.4-3.1,3.7,0.4,6.9c4.1,3.8,8.3,7.7,12.5,11.4c2.2,1.9,2.2,3.5,0.1,5.4c-1.5,1.4-2.8,3.1-4.2,4.6
	C359.9,123.3,359.1,123.7,358.3,124.3z"/>
<path class="st1" d="M343.4,408.9c-4-0.8-9.4-5.4-9.7-8.9c-0.1-0.7,0.5-1.7,1.1-2.3c1-0.9,2.3-1.5,3.4-2.4c1.9-1.6,3.5-2,5.1,0.5
	c0.5,0.8,2,0.8,3.1,1.2c0-1.2,0.4-2.8-0.2-3.4c-1.7-1.6-3.6-3.2-5.8-4c-2.9-1.1-6-1.5-9.1-2c-7.1-1.2-11.4-5.9-14-12.2
	c-2.7-6.5,0.6-13,7.7-16.3c5.6-2.6,12-0.1,15.2,5.9c0.4,0.7,0.3,2.3-0.1,2.7c-1.8,1.5-3.7,2.8-5.8,3.7c-0.7,0.3-2.1-0.8-3.1-1.2
	c-1.1-0.4-2.2-0.7-3.3-1.1c0,1.2-0.4,3,0.2,3.6c1.8,1.6,3.9,3.2,6.2,4c3.1,1.1,6.5,1.3,9.8,2.1c5.6,1.4,9.6,4.8,12.2,10
	c3.2,6.4,2.4,11.3-3.4,15.5C350,406.3,346.5,407.4,343.4,408.9z"/>
<path class="st1" d="M168.3,375.8c-1.6,2.8-3,5.3-4.5,7.7c-0.2,0.3-1.5,0.2-2.2,0c-0.9-0.2-1.7-0.8-2.5-1.2c-5-2.7-8.1-1.1-8.9,4.7
	c-0.1,0.7,0.4,1.7,0.9,2.3c0.6,0.6,1.5,1,2.3,1.4c4.9,2.7,4.7,2.7,2.3,7.5c-1.6,3.3-3.5,3.2-6.3,1.7c-1.6-0.8-4.5-1.8-5.2-1.1
	c-1.7,1.8-2.9,4.4-3.5,6.9c-0.2,0.8,1.7,2.5,3,3.2c5.7,3.3,6.1,5.2,1.8,10.3c-0.6,0.7-2.4,1.1-3.2,0.8c-5.3-2.5-10.5-5.2-15.6-8.1
	c-0.7-0.4-1.3-2.5-0.9-3.3c7-13.8,14.2-27.4,21.3-41.1c0.9-1.7,2.1-2.3,3.9-1.3c4.9,2.5,9.9,5,14.8,7.5
	C166.7,374.1,167.3,375,168.3,375.8z"/>
<path class="st1" d="M104.8,397c-0.7-0.4-1.5-0.8-2.2-1.4c-4.1-3.4-8-6.9-12.1-10.3c-2-1.6-1.8-3.1-0.3-5
	c9.7-11.4,19.4-22.8,29-34.3c1.6-1.9,2.9-2.2,4.8-0.5c3.9,3.5,8,7,12,10.4c1.8,1.5,2,2.9,0.4,4.6c-0.4,0.4-0.7,0.9-1.1,1.3
	c-3.6,4.3-3.6,4.3-8.1,0.7c-3.6-3-8.6-1.3-9.5,3.3c-0.1,0.7,0.3,1.5,0.7,2.2c0.3,0.6,1,0.9,1.5,1.4c4.5,4,4.4,6.4-0.6,10
	c-0.7,0.5-1.9,0.3-2.8,0.2c-0.5-0.1-0.9-0.6-1.4-1c-5.1-4.1-7.4-3.7-10.4,2.3c-0.4,0.8-0.1,2.1,0.4,3c0.4,0.8,1.3,1.3,2,1.9
	c4.3,3.6,3.8,8.2-1.3,10.8C105.7,396.7,105.4,396.8,104.8,397z"/>
<path class="st1" d="M407.7,123.7c-1,0.4-2,0.7-2.9,1.3c-10.4,6.9-20.8,13.8-31.1,20.7c-2,1.3-3.3,1.1-4.5-0.9
	c-2.3-3.6-4.7-7.1-7.1-10.6c-1.2-1.7-0.8-2.9,0.8-4c10.6-7,21.1-14.2,31.7-21.1c0.8-0.5,2.9-0.3,3.4,0.3c2.9,3.9,5.5,8,8.2,12
	c0.2,0.4,0.4,0.8,0.5,1.3C407,122.9,407.3,123.3,407.7,123.7z"/>
<path class="st1" d="M94.5,345c-1.3,1.1-2.4,2.2-3.6,3.2c-4.4,3.4-4.4,3.4-7.8-1c-2.8-3.6-3.2-3.7-6.9-0.9c-3.3,2.5-6.7,4.9-10,7.5
	c-1.7,1.3-3.1,1.2-4.4-0.6c-5.4-7.2-5.6-6.3,1.1-11.3c10.7-7.9,21.3-15.8,32-23.6c3.6-2.6,3.7-2.6,6.5,1.1c2.9,3.9,5.7,7.8,8.7,11.6
	c1.6,2,1.4,3.5-0.7,4.8c-0.2,0.1-0.4,0.3-0.6,0.4c-5.4,4.1-5.3,4.1-9.5-1.3c-0.9-1.2-3.1-2.9-3.8-2.6c-2.2,1.1-4,2.9-5.7,4.7
	c-0.3,0.3,0.6,2,1.2,3C92.1,341.6,93.2,343.1,94.5,345z"/>
<path class="st1" d="M183.1,380.8c3.1,0.9,5.5,1.4,7.7,2.2c2.7,0.9,1.5,3,1.1,4.7c-2.5,9.6-5.1,19.1-7.7,28.7c0,0.1-0.1,0.2-0.1,0.3
	c-1.8,6.5-1.8,6.5,4.8,8.4c4.8,1.4,6.3,6.6,2.7,10.1c-0.6,0.6-2.2,0.8-3.1,0.6c-5.6-1.3-11.2-2.9-16.7-4.3c-2.4-0.6-3-2.1-2.4-4.4
	c3.8-14.5,7.6-29,11.5-43.4C181.1,382.5,182.4,381.6,183.1,380.8z"/>
<path class="st1" d="M387.8,339.5c0.2,1.1,0.3,2.3,0.5,3.4c0.7,4.6,0.4,5-4,5.7c-3.9,0.6-4.5,0.2-5.2-3.8c-1.2-7-1.2-6.9-7.6-4.1
	c-1.4,0.6-3.9,1.3-4.3,0.7c-1.3-1.9-2.2-4.2-2.7-6.5c-0.1-0.6,1.8-1.8,3-2.4c7-3.3,7-3.3,2-9.1c-0.9-1-2-3.1-1.5-3.7
	c1.4-2,3.4-3.7,5.4-5.1c0.3-0.2,2.1,1.1,2.9,2c5.3,5.7,5.3,5.7,8.8-1c2-3.8,6.5-4,8.7-0.2c0.5,0.8,0.1,2.4-0.3,3.4
	c-3.4,7.3-3.5,7.4,4.2,8.9c2.2,0.4,3.4,1.3,2.6,3.7c-0.3,1.1-0.5,2.3-0.7,3.4c-0.3,2.1-1.5,3-3.6,2.6c-1.7-0.3-3.4-0.5-5.1-0.7
	C388.8,336.4,387.5,337.1,387.8,339.5z"/>
<path class="st1" d="M85,160.3c-0.5,6.7-1.3,7.4-6.7,6.7c-1-0.1-2.1-0.2-3.1-0.3c-2.2-0.2-3,0.8-2.6,2.9c0.2,1,0.3,2.1,0.5,3.1
	c0.8,5.2-1.5,7.5-6.7,6.3c-1-0.2-2-1.8-2.3-2.9c-1.9-7.6-1.9-7.8-8.8-4.8c-3.5,1.5-4.1-0.8-5.2-3c-1.1-2.3-1.7-4.1,1.5-5.5
	c7.4-3.4,7.4-3.5,2.1-9.8c-1.6-1.9-1.5-3.2,0.2-5c4.4-4.5,4.3-4.6,8.4,0c0.6,0.7,1.2,1.4,1.9,2c1.4,1.4,2.6,1.3,3.6-0.4
	c1-1.7,1.9-3.4,2.8-5.2c1.3-2.7,3.2-2.2,5.1-0.9c1.8,1.2,4.7,1.8,2.9,5.1c-0.9,1.6-1.7,3.3-2.6,4.9c-1.3,2.3-0.5,3.4,1.9,3.8
	c1.5,0.2,3.1,0.2,4.4,0.8C83.5,158.5,84.5,159.8,85,160.3z"/>
<path class="st1" d="M219.6,387.9c0.9,0,1.8,0.1,2.8,0.1c2.7-0.1,3.6,1.2,3.3,3.9c-1.3,14.9-2.5,29.9-3.7,44.8
	c-0.2,2.5-1.2,3.4-3.7,3.3c-8.4-0.3-8.3-0.3-7.6-8.7c1.1-12.8,1.9-25.5,3-38.3C214.1,387.8,214.4,387.6,219.6,387.9z"/>
<path class="st0" d="M97.3,227.8c0-74.4,59.5-135.4,135.1-136c74.2-0.6,135.1,58,136.8,132.9c1.7,77.8-60.5,138.9-135.9,139
	C158.2,363.8,97.3,302.8,97.3,227.8z M133.1,232.3c0.1,12.1,1.8,24.9,6.2,37.3c11.2,31.6,32.2,53,65.5,60.8
	c27.2,6.4,52.4,0.3,75.6-14c34.4-21.1,54.4-52.5,62.7-91.6c1.7-8.1,1.5-8.1-6.7-9c-0.5-0.1-0.9-0.1-1.4-0.2c-5.7-0.7-5.7-0.6-6.8,5
	c-5.3,28-18,51.9-39.6,70.8c-17.2,15.1-36.8,24.6-60,25.6c-27.2,1.1-48.7-9.4-64.2-31.7c-14.2-20.4-17.6-43.2-14.6-67.3
	c3.4-27.4,15.6-50.7,34.6-70.5c2.1-2.2,5.7-4.4,5.7-6.6c-0.1-2.5-3.3-5-5.3-7.5c-3.4-4.2-3.7-4.2-7.5-0.4
	C149.3,160,134.5,192.7,133.1,232.3z M215.8,172.4c-0.1,10.4,8.7,19.2,19.2,19.2c10.4,0,19.1-8.8,19.2-19.3
	c0.1-10.3-8.7-19-19.3-19.1C224.4,153.1,215.9,161.6,215.8,172.4z M259.1,195.3c0,11,8.3,19.3,19.3,19.3c10.4,0,18.7-8.2,18.8-18.6
	c0.1-10.9-8.1-19.4-18.7-19.5C267.5,176.4,259.1,184.6,259.1,195.3z"/>
<path class="st0" d="M289,60.5c3.5-3.2,6-5.7,8.6-8c1.5-1.3,2.6-0.8,2.8,1.1c0.3,2.9,0.6,5.7,0.5,8.6c0,0.7-1.6,2.1-2.2,2
	C295.8,63.2,292.9,62,289,60.5z"/>
<path class="st0" d="M61,278.3c-0.9-0.7-1.8-1.4-2.7-2.1c0.7-0.8,1.3-2,2.2-2.4c1.7-0.7,3.5-1.2,5.3-1.3c0.9-0.1,1.9,0.6,2.9,1
	c-0.5,1-0.7,2.4-1.5,2.8C65.4,277.1,63.4,277.5,61,278.3z"/>
<g>
	<path class="st1" d="M226.2,331.4c-7,0-14.1-0.8-21.1-2.5c-31.3-7.3-53-27.5-64.4-59.8c-4-11.3-6-23.6-6.1-36.8
		c1.4-39,15.6-71.1,43.5-98.1c0.8-0.8,2.4-2.3,2.8-2.3c0.4,0.1,1.7,1.7,2.5,2.6c0.6,0.7,1.2,1.4,1.9,2.1c1.4,1.5,3,3.2,3.1,4.5
		c0,0.8-1.8,2.4-3.1,3.5c-0.7,0.6-1.5,1.3-2.2,2c-19.9,20.8-31.7,44.8-35,71.3c-3.3,26.8,1.6,49.2,14.9,68.3
		c15,21.5,35.7,32.4,61.5,32.4c1.3,0,2.7,0,4-0.1c22.1-0.9,42.1-9.4,61-26c21.1-18.5,34.6-42.6,40.1-71.7c0.8-4.1,0.8-4.1,2.1-4.1
		c0.7,0,1.8,0.1,3.1,0.3c0,0,1.1,0.1,1.4,0.2c3.1,0.3,5.6,0.6,6.1,1.3c0.5,0.6-0.1,3.2-0.7,6c-8.5,40.1-29.3,70.6-62,90.6
		C262,325.9,244,331.4,226.2,331.4z"/>
	<g>
		<path class="st0" d="M180.8,133.7c0.5,0.5,1.1,1.3,1.4,1.7c0.6,0.8,1.3,1.5,2,2.2c0.9,0.9,2.4,2.5,2.6,3.3
			c-0.4,0.6-1.7,1.8-2.5,2.5c-0.8,0.7-1.6,1.4-2.3,2.1c-20.2,21.1-32.1,45.4-35.4,72.2c-3.3,27.2,1.6,49.9,15.2,69.4
			c15.3,22,36.4,33.1,62.7,33.1c1.3,0,2.7,0,4.1-0.1c22.5-0.9,42.7-9.6,61.9-26.4c21.3-18.7,35-43.1,40.6-72.5
			c0.2-1,0.4-2.2,0.6-2.9c0.7,0,1.7,0.1,2.9,0.3l0.5,0.1c0.3,0,0.6,0.1,0.9,0.1c2,0.2,4,0.4,4.9,0.7c0,1-0.5,3.1-0.8,4.7
			c-4.1,19.5-11.2,36.8-21.1,51.5c-10.2,15.2-23.8,28.1-40.2,38.1c-17.4,10.6-35.1,16-52.6,16c-6.9,0-13.8-0.8-20.7-2.4
			c-15.7-3.7-29.1-10.7-39.6-20.7c-10.2-9.7-18.2-22.5-23.7-38.2c-3.9-11.1-5.9-23.3-6-36.2c1.4-38.6,15.5-70.4,43-97.1
			C179.5,134.9,180.3,134.2,180.8,133.7 M180.9,130.3c-1,0-2,0.9-3.9,2.8c-27.7,26.9-42.5,59.6-43.9,99.2
			c0.1,12.1,1.8,24.9,6.2,37.3c11.2,31.6,32.2,53,65.5,60.8c7.3,1.7,14.4,2.5,21.4,2.5c19.1,0,37.2-6.1,54.2-16.5
			c34.4-21.1,54.4-52.5,62.7-91.6c1.7-8.1,1.5-8.1-6.7-9c-0.5-0.1-0.9-0.1-1.4-0.2c-1.4-0.2-2.5-0.3-3.3-0.3c-2.5,0-2.7,1.1-3.5,5.3
			c-5.3,28-18,51.9-39.6,70.8c-17.2,15.1-36.8,24.6-60,25.6c-1.3,0.1-2.6,0.1-3.9,0.1c-25.3,0-45.5-10.6-60.2-31.8
			c-14.2-20.4-17.6-43.2-14.6-67.3c3.4-27.4,15.6-50.7,34.6-70.5c2.1-2.2,5.7-4.4,5.7-6.6c-0.1-2.5-3.3-5-5.3-7.5
			C182.8,131.4,181.9,130.3,180.9,130.3L180.9,130.3z"/>
	</g>
</g>
<path class="st2" d="M216.1,173.1c0.1-10.6,8.5-19.1,18.8-19c10.5,0.1,19.1,8.7,19.1,18.9c-0.1,10.3-8.7,19.1-19,19.1
	C224.7,192.1,216,183.4,216.1,173.1z"/>
<path class="st2" d="M258.8,195.7c0-10.5,8.3-18.6,19.1-18.6c10.5,0,18.6,8.5,18.5,19.2c-0.1,10.3-8.2,18.4-18.5,18.4
	C266.9,214.7,258.8,206.5,258.8,195.7z"/>
</svg>
