<svg xmlns="http://www.w3.org/2000/svg" width="453.2" height="457.3" style="overflow:visible;enable-background:new 0 0 453.2 457.3" xml:space="preserve"><style>.st1{fill:#191918}</style><circle cx="226.4" cy="228.7" r="221.7" style="fill:#e0e21b"/><path class="st1" d="M226.5 457.3c-301.9-6.6-302-451.2 0-457.3 302.1 8.6 302.6 448.2 0 457.3zm-1.4-438.2c-276.6 9.8-274.8 411.5 1.4 419.4 278-7.9 276.8-413.9-1.4-419.4z"/><path class="st1" d="M200.1 145.4c.9-38.7 56.9-37.4 57.8-.2-1.2 38.1-57 38.3-57.8.2zM265.2 179.9c0-37.4 58.1-37.3 57.4.9-.4 37.6-58.1 36.3-57.4-.9z"/><path class="st1" d="M215.5 386.9c-80.9 2-141.5-70.3-139.7-151.2 2.1-59.5 23.8-108.5 66.4-149.6 1.2-1.2 3.7-3.5 4.3-3.5 3 3.2 10.3 9.8 11.4 14C15.1 226.5 137.1 463.4 312 327.5c32.2-28.2 52.8-65 61.2-109.4 1.6-9.2 2.1-5.8 7.9-5.8 3.4.5 11.2 1.1 11.4 2.3-11.1 90.3-87.9 170.2-177 172.3z"/></svg>