<!-- Generator: Adobe Illustrator 25.2.0, SVG Export Plug-In  -->
<svg version="1.1" xmlns="http://www.w3.org/2000/svg" xmlns:xlink="http://www.w3.org/1999/xlink" x="0px" y="0px" width="399.9px"
	 height="404px" viewBox="0 0 399.9 404" style="overflow:visible;enable-background:new 0 0 399.9 404;" xml:space="preserve">
<style type="text/css">
	.st0{fill:#191918;}
	.st1{fill:#E0E21B;}
	.st2{fill:none;stroke:#E0E21B;stroke-width:7;stroke-miterlimit:10;}
</style>
<defs>
</defs>
<ellipse class="st0" cx="200.2" cy="202.1" rx="198.6" ry="201"/>
<g>
	<path class="st1" d="M197.3,355.3c-38.5,0-74.1-18-102.9-52.1c-19.9-24.1-33.1-54.7-38.1-88.6c-4.8-32.6-1.9-66,8.6-96.5
		c0.4-1,0.7-2.2,1-3.5c0.9-3.5,1.6-6,3.3-6c0.1,0,0.2,0,0.3,0c3.5,1.2,6.7,2.6,9.8,3.9c2.8,1.2,5.8,2.5,9,3.7
		c-0.3,1.5-1.1,3.9-1.8,6.3c-1.5,4.9-3.3,10.9-3.7,14.9c-7.8,30.7-7.4,64.6,1.1,95.6c9.2,33.6,27.1,61.1,51.8,79.5
		c20.1,14.5,41.4,21.9,63.3,21.9c0,0,0,0,0,0c26.4,0,52.1-10.6,74.2-30.7c21.1-19.2,37.1-45.8,44.9-74.8c5.6-28.1,6.9-52.2,4.1-73.8
		l0-0.1l0-0.1c-1-3-1.6-6.2-2.2-9.5c-0.8-4.3-1.6-8.8-3.4-13c-0.5-2.5-1.2-4.5-1.6-6.1c-1.6-5.3-1.7-5.5,6.3-8.1
		c0.7-0.3,1.4-0.6,2.1-0.9c3.2-1.3,6.7-2.8,10.2-3c2.4,4.5,4.1,10,5,16.4l0,0.1l0,0.1c8,27,8.6,60.1,1.6,93.3
		c-7.4,37.2-26.1,70.8-52.8,94.7C261.3,342.4,229.3,355.3,197.3,355.3C197.3,355.3,197.3,355.3,197.3,355.3z"/>
	<path class="st0" d="M69.2,110.2C69.2,110.2,69.2,110.2,69.2,110.2c3.4,1.1,6.4,2.4,9.5,3.8c2.5,1.1,5,2.2,7.8,3.2
		c-0.4,1.4-0.9,3.3-1.4,4.9c-1.5,4.9-3.3,10.9-3.7,15.1c-7.9,30.9-7.5,65.1,1.1,96.3c9.3,33.9,27.4,61.7,52.3,80.3l0,0l0,0
		c20.3,14.7,41.9,22.2,64.2,22.2c13.6,0,27.1-2.8,40.1-8.3c12.5-5.3,24.3-12.9,35.1-22.8c21.3-19.4,37.5-46.2,45.4-75.5l0-0.1l0-0.1
		c5.6-28.1,7-52.4,4.1-74.1l0-0.3l-0.1-0.3c-1-2.9-1.5-6-2.1-9.3c-0.8-4.4-1.6-8.9-3.5-13.2c-0.5-2.5-1.2-4.4-1.6-6
		c-0.4-1.4-1-3.1-0.9-3.5c0.2-0.3,1.3-1.1,6.2-2.8l0.1,0l0.1,0c0.7-0.3,1.4-0.6,2.1-0.9c2.8-1.2,5.8-2.4,8.8-2.8
		c2.1,4.2,3.6,9.2,4.4,15l0,0.2l0.1,0.2c7.9,26.7,8.5,59.6,1.5,92.6c-7.3,36.8-25.9,70.2-52.3,93.9c-25.8,23.1-57.4,35.9-89.1,35.9
		c-38.1,0-73.3-17.8-101.7-51.5c-19.7-23.9-32.8-54.3-37.7-87.9C53,182,56,149,66.3,118.7c0.4-1.1,0.8-2.4,1.1-3.7
		C67.7,113.7,68.5,110.5,69.2,110.2C69.2,110.2,69.2,110.2,69.2,110.2 M69.2,107.2c-4.2,0-4.3,7-5.7,10.5
		c-20.9,61.1-12.1,135.9,29.7,186.5c30.9,36.6,68,52.6,104,52.6c66.1,0,128.8-53.6,144.4-132.2c6.4-30.6,7.2-64.3-1.6-94.1
		c-0.8-5.6-2.4-12.1-5.6-17.7c-4.8,0-9.6,2.4-13.7,4c-12.1,4-8,4.8-5.6,16.1c3.2,7.2,3.2,15.3,5.6,22.5c3.2,24.1,0.8,49-4,73.2
		C301,287,253.1,333,199.1,333c-20.4,0-41.7-6.6-62.4-21.6C85.2,272.8,69,198,84.4,137.8C85,131,90,118,90,115.3
		c-7.2-2.4-12.9-5.6-20.1-8C69.7,107.2,69.4,107.2,69.2,107.2L69.2,107.2z"/>
</g>
<ellipse class="st2" cx="200" cy="202" rx="196.5" ry="198.5"/>
<path class="st1" d="M261.1,118.9c10.1,31.7-33.7,48.5-45.8,16.8C206.5,105.4,247.6,89.9,261.1,118.9z"/>
<path class="st1" d="M138,131.7c-7.4-34.4,43.1-41.8,47.2-8.1C188.5,154.6,146.1,161.3,138,131.7C138,132.4,138,131.7,138,131.7z"/>
</svg>
