<svg xmlns="http://www.w3.org/2000/svg" width="1778.5" height="1061.5" style="overflow:visible;enable-background:new 0 0 1778.5 1061.5" xml:space="preserve"><style>.st16{fill:none;stroke:#00b140;stroke-width:.5;stroke-miterlimit:10}.st18{fill:#fff}</style><path style="opacity:.15;fill:#05db4c;enable-background:new" d="M356.2 177.2h1066v707h-1066z"/><radialGradient id="SVGID_1_" cx="1433.25" cy="828.74" r="226" gradientTransform="matrix(1 0 0 -1 0 1059.99)" gradientUnits="userSpaceOnUse"><stop offset="0" style="stop-color:#000"/><stop offset="1" style="stop-color:#000;stop-opacity:0"/></radialGradient><circle cx="1433.2" cy="231.2" r="226" style="fill:url(#SVGID_1_)"/><radialGradient id="SVGID_2_" cx="1530.25" cy="577.74" r="226" gradientTransform="matrix(1 0 0 -1 0 1059.99)" gradientUnits="userSpaceOnUse"><stop offset="0" style="stop-color:#000"/><stop offset="1" style="stop-color:#000;stop-opacity:0"/></radialGradient><circle cx="1530.2" cy="482.2" r="226" style="fill:url(#SVGID_2_)"/><radialGradient id="SVGID_3_" cx="1493.25" cy="302.74" r="226" gradientTransform="matrix(1 0 0 -1 0 1059.99)" gradientUnits="userSpaceOnUse"><stop offset="0" style="stop-color:#000"/><stop offset="1" style="stop-color:#000;stop-opacity:0"/></radialGradient><circle cx="1493.2" cy="757.2" r="226" style="fill:url(#SVGID_3_)"/><radialGradient id="SVGID_4_" cx="1411.25" cy="224.74" r="226" gradientTransform="matrix(1 0 0 -1 0 1059.99)" gradientUnits="userSpaceOnUse"><stop offset="0" style="stop-color:#000"/><stop offset="1" style="stop-color:#000;stop-opacity:0"/></radialGradient><circle cx="1411.2" cy="835.2" r="226" style="fill:url(#SVGID_4_)"/><radialGradient id="SVGID_5_" cx="356.25" cy="234.74" r="226" gradientTransform="matrix(1 0 0 -1 0 1059.99)" gradientUnits="userSpaceOnUse"><stop offset="0" style="stop-color:#000"/><stop offset="1" style="stop-color:#000;stop-opacity:0"/></radialGradient><circle cx="356.2" cy="825.2" r="226" style="fill:url(#SVGID_5_)"/><radialGradient id="SVGID_6_" cx="258.25" cy="505.74" r="226" gradientTransform="matrix(1 0 0 -1 0 1059.99)" gradientUnits="userSpaceOnUse"><stop offset="0" style="stop-color:#000"/><stop offset="1" style="stop-color:#000;stop-opacity:0"/></radialGradient><circle cx="258.2" cy="554.2" r="226" style="fill:url(#SVGID_6_)"/><radialGradient id="SVGID_7_" cx="258.25" cy="833.74" r="226" gradientTransform="matrix(1 0 0 -1 0 1059.99)" gradientUnits="userSpaceOnUse"><stop offset="0" style="stop-color:#000"/><stop offset="1" style="stop-color:#000;stop-opacity:0"/></radialGradient><circle cx="258.2" cy="226.2" r="226" style="fill:url(#SVGID_7_)"/><radialGradient id="SVGID_8_" cx="548.25" cy="899.74" r="160" gradientTransform="matrix(1 0 0 -1 0 1059.99)" gradientUnits="userSpaceOnUse"><stop offset="0" style="stop-color:#000"/><stop offset="1" style="stop-color:#000;stop-opacity:0"/></radialGradient><circle cx="548.2" cy="160.2" r="160" style="fill:url(#SVGID_8_)"/><radialGradient id="SVGID_9_" cx="1224.85" cy="921.14" r="138.5" gradientTransform="matrix(1 0 0 -1 0 1059.99)" gradientUnits="userSpaceOnUse"><stop offset="0" style="stop-color:#000"/><stop offset="1" style="stop-color:#000;stop-opacity:0"/></radialGradient><circle cx="1224.9" cy="138.9" r="138.5" style="fill:url(#SVGID_9_)"/><radialGradient id="SVGID_10_" cx="993.85" cy="921.14" r="138.5" gradientTransform="matrix(1 0 0 -1 0 1059.99)" gradientUnits="userSpaceOnUse"><stop offset="0" style="stop-color:#000"/><stop offset="1" style="stop-color:#000;stop-opacity:0"/></radialGradient><circle cx="993.8" cy="138.9" r="138.5" style="fill:url(#SVGID_10_)"/><radialGradient id="SVGID_11_" cx="814.85" cy="921.14" r="138.5" gradientTransform="matrix(1 0 0 -1 0 1059.99)" gradientUnits="userSpaceOnUse"><stop offset="0" style="stop-color:#000"/><stop offset="1" style="stop-color:#000;stop-opacity:0"/></radialGradient><circle cx="814.8" cy="138.9" r="138.5" style="fill:url(#SVGID_11_)"/><radialGradient id="SVGID_12_" cx="599.25" cy="131.74" r="133" gradientTransform="matrix(1 0 0 -1 0 1059.99)" gradientUnits="userSpaceOnUse"><stop offset="0" style="stop-color:#000"/><stop offset="1" style="stop-color:#000;stop-opacity:0"/></radialGradient><circle cx="599.2" cy="928.2" r="133" style="fill:url(#SVGID_12_)"/><radialGradient id="SVGID_13_" cx="795.25" cy="131.74" r="133" gradientTransform="matrix(1 0 0 -1 0 1059.99)" gradientUnits="userSpaceOnUse"><stop offset="0" style="stop-color:#000"/><stop offset="1" style="stop-color:#000;stop-opacity:0"/></radialGradient><circle cx="795.2" cy="928.2" r="133" style="fill:url(#SVGID_13_)"/><radialGradient id="SVGID_14_" cx="948.25" cy="131.74" r="133" gradientTransform="matrix(1 0 0 -1 0 1059.99)" gradientUnits="userSpaceOnUse"><stop offset="0" style="stop-color:#000"/><stop offset="1" style="stop-color:#000;stop-opacity:0"/></radialGradient><circle cx="948.2" cy="928.2" r="133" style="fill:url(#SVGID_14_)"/><radialGradient id="SVGID_15_" cx="1088.25" cy="131.74" r="133" gradientTransform="matrix(1 0 0 -1 0 1059.99)" gradientUnits="userSpaceOnUse"><stop offset="0" style="stop-color:#000"/><stop offset="1" style="stop-color:#000;stop-opacity:0"/></radialGradient><circle cx="1088.2" cy="928.2" r="133" style="fill:url(#SVGID_15_)"/><g><path class="st16" d="M.2.2h1778v1061H.2zM1778.2 59.2H.2M1778.2 118.2H.2M1778.2 177.2H.2M1778.2 236.1H.2M1778.2 295H.2M1778.2 353.9H.2M1778.2 412.9H.2M1778.2 471.8H.2M1778.2 530.8H.2M1778.2 589.8H.2M1778.2 648.6H.2M1778.2 707.6H.2M1778.2 766.5H.2M1778.2 825.5H.2M1778.2 884.5H.2M1778.2 943.5H.2M1778.2 1002.3H.2M59.5 1061.2V.2M118.9 1061.2V.2M178.2 1061.2V.2M237.4 1061.2V.2M296.6 1061.2V.2M355.9 1061.2V.2M415.1 1061.2V.2M474.4 1061.2V.2M533.8 1061.2V.2M593 1061.2V.2M652.2 1061.2V.2M711.5 1061.2V.2M770.8 1061.2V.2M830 1061.2V.2M889.2 1061.2V.2M948.5 1061.2V.2M1007.8 1061.2V.2M1067.2 1061.2V.2M1126.4 1061.2V.2M1185.7 1061.2V.2M1244.9 1061.2V.2M1304.2 1061.2V.2M1363.5 1061.2V.2M1422.8 1061.2V.2M1482 1061.2V.2M1541.2 1061.2V.2M1600.5 1061.2V.2M1659.8 1061.2V.2M1719.1 1061.2V.2"/></g><path style="fill:#00b140;stroke:#00b140;stroke-width:.5;stroke-miterlimit:10" d="M533.2 354.2h712v353h-712z"/><g><path class="st18" d="M587.1 448.3v-42.2h15.2c12.1 0 17.2 3.7 17.2 10.7 0 4-2.1 7.4-6.4 9.2v.1c4.5 1.4 7.7 3.9 7.7 9.9 0 9.8-8.7 12.3-18.3 12.3h-15.4zm15.7-25.8c2.7 0 5.2-.9 5.2-4 0-2.7-2.3-3.3-5.5-3.3h-4.4v7.3h4.7zm-.1 16.7c5.2 0 6.7-1.8 6.7-4.4 0-3.4-3-4.1-6.2-4.1h-5.1v8.4l4.6.1zM626.1 448.3v-42.2h11.3v42.2h-11.3zM668.1 448.3l-2.2-9.2h-11.3l-2.2 9.2H641l12-42.2h15l12 42.2h-11.9zm-11.3-18.5h6.9l-3.4-14.3h-.1l-3.4 14.3zM702.4 418.8c-1.2-3.2-3.5-4.7-6.5-4.7-2.3 0-4.3 1.3-4.3 3.4 0 7.2 21.1 2 21.1 18.1 0 8.8-6.8 13.5-16.7 13.5-8.3 0-14.2-3-16.7-11.6l10.4-3.2c.6 3.5 3 5.9 7 5.9 3 0 5.4-1.2 5.4-3.7 0-7.6-21.7-2.3-21.7-18.9 0-7.1 6.4-12 15.1-12 7.9 0 13.3 2.7 16.1 10l-9.2 3.2zM584.5 480.1c0-9.4 4.1-21.8 18.8-21.8 14.7 0 18.8 12.4 18.8 21.8 0 12.7-6.3 21.8-18.8 21.8-12.6 0-18.8-9.1-18.8-21.8zm26.1 0c0-8.2-2.2-13-7.4-13-5.3 0-7.4 4.9-7.4 13s2 12.8 7.4 12.8c5.4.1 7.4-4.7 7.4-12.8zM651.9 501.2 638 476.6h-.1v24.7h-10.5V459h12.7l12.4 23.1h.1V459h10.5v42.2h-11.2zM670.3 501.2V459h11.3v32.8h16.7v9.3l-28 .1zM702.6 501.2V459h11.3v42.2h-11.3zM745.6 501.2l-13.9-24.7h-.1v24.7h-10.5V459h12.7l12.4 23.1h.1V459h10.5v42.2h-11.2zM764 501.2V459h29.2v9.3h-17.9v6.8H788v9h-12.7v7.7h18.3v9.3l-29.6.1z"/></g><linearGradient id="SVGID_16_" gradientUnits="userSpaceOnUse" x1="889.25" y1="1059.74" x2="889.25" y2="861.74" gradientTransform="matrix(1 0 0 -1 0 1059.99)"><stop offset="0" style="stop-color:#000;stop-opacity:.6"/><stop offset="1" style="stop-color:#000;stop-opacity:0"/></linearGradient><path style="fill:url(#SVGID_16_)" d="M.2.2h1778v198H.2z"/><linearGradient id="SVGID_17_" gradientUnits="userSpaceOnUse" x1="2071.35" y1="16.64" x2="2071.35" y2="-181.36" gradientTransform="matrix(-1 0 0 1 2960.6 1044.61)"><stop offset="0" style="stop-color:#000;stop-opacity:.6"/><stop offset="1" style="stop-color:#000;stop-opacity:0"/></linearGradient><path style="fill:url(#SVGID_17_)" d="M.2 863.2h1778v198H.2z"/><linearGradient id="SVGID_18_" gradientUnits="userSpaceOnUse" x1="1617.75" y1="718.673" x2="1617.75" y2="520.673" gradientTransform="matrix(0 1 1 0 1059.577 -1087)"><stop offset="0" style="stop-color:#000;stop-opacity:.6"/><stop offset="1" style="stop-color:#000;stop-opacity:0"/></linearGradient><path style="fill:url(#SVGID_18_)" d="M1580.2 1061.2V.2h198v1061z"/><linearGradient id="SVGID_19_" gradientUnits="userSpaceOnUse" x1="1835.85" y1="754.773" x2="1835.85" y2="556.773" gradientTransform="matrix(0 -1 -1 0 755.023 2366.6)"><stop offset="0" style="stop-color:#000;stop-opacity:.6"/><stop offset="1" style="stop-color:#000;stop-opacity:0"/></linearGradient><path style="fill:url(#SVGID_19_)" d="M198.2.2v1061H.2V.2z"/><g><path class="st18" d="m591.1 660-.9.7-1.5-2.4-1.6 2.4-.9-.7 1.8-2.2-2.8-.7.4-1.1 2.6 1-.2-2.8h1.1l-.2 2.8 2.6-1 .3 1.1-2.8.7 2.1 2.2zM600.2 669.6h-.8v-15.1h1.2v5.6c.9-1.1 2-1.6 3.3-1.6 1.3 0 2.4.5 3.2 1.5.8 1 1.2 2.4 1.2 4.2 0 1.7-.4 3-1.1 4-.8 1-1.8 1.5-3.1 1.5-.7 0-1.4-.1-1.9-.4s-1.1-.6-1.7-1.2l-.3 1.5zm.4-7.9v5.1c.4.6.8 1.1 1.4 1.5.6.4 1.2.5 1.8.5 1 0 1.8-.4 2.4-1.2s.9-1.9.9-3.3-.3-2.5-.9-3.4c-.6-.8-1.4-1.3-2.4-1.3-1.3 0-2.3.7-3.2 2.1zM619.1 669.6h-1.2v-1.7c-1.2 1.3-2.4 1.9-3.8 1.9-1.1 0-1.9-.3-2.4-.9-.4-.5-.7-1.4-.7-2.6v-7.6h1.2v7.6c0 .8.2 1.5.5 1.8s.8.6 1.5.6c.6 0 1.2-.2 1.7-.5s1.2-.8 1.9-1.6v-8h1.2v11zM624.1 656.4h-1.5v-1.8h1.5v1.8zm-.2 13.2h-1.2v-10.9h1.2v10.9zM628.8 669.6h-1.2v-15.1h1.2v15.1zM636.4 668.6v1.1c-.5.1-1 .1-1.5.1-.8 0-1.4-.2-1.7-.5-.3-.4-.5-1-.5-1.9v-7.5h-1.6v-1h1.6v-3.5h1.2v3.5h2.4v1h-2.4v7.5c0 1 .4 1.4 1.2 1.4.4-.1.9-.2 1.3-.2zM647.5 668.6v1.1c-.5.1-1 .1-1.5.1-.8 0-1.4-.2-1.7-.5-.3-.4-.5-1-.5-1.9v-7.5h-1.6v-1h1.6v-3.5h1.2v3.5h2.4v1H645v7.5c0 1 .4 1.4 1.2 1.4.5-.1.9-.2 1.3-.2zM658.2 669.6H657v-7.1c0-.5 0-.9-.1-1.2 0-.3-.1-.6-.3-.9-.1-.3-.3-.5-.6-.7-.3-.1-.7-.2-1.1-.2-1.1 0-2.3.7-3.6 2.1v8h-1.2v-15.1h1.2v5.9c1.3-1.3 2.5-1.9 3.7-1.9 1.1 0 2 .3 2.5.9.4.5.7 1.6.7 3.1v7.1zM663.1 656.4h-1.5v-1.8h1.5v1.8zm-.2 13.2h-1.2v-10.9h1.2v10.9zM672.8 660.4l-1 .7c-.7-1.1-1.6-1.6-2.8-1.6-.6 0-1.1.2-1.5.5-.4.3-.5.8-.5 1.3 0 .4.2.8.5 1.1.3.3.7.5 1.2.6.5.1 1 .3 1.5.5l1.5.6c.5.2.8.5 1.2 1 .3.5.5 1 .5 1.7 0 .9-.4 1.7-1 2.2-.7.6-1.6.8-2.8.8-1.8 0-3.1-.7-4-2.2l1-.7c.4.7.9 1.1 1.4 1.4.5.3 1.1.4 1.8.4.8 0 1.4-.2 1.9-.5.4-.4.7-.8.7-1.5 0-.6-.2-1-.6-1.4-.4-.3-.9-.6-1.6-.8-.6-.2-1.2-.3-1.8-.5s-1.1-.5-1.6-1c-.4-.5-.6-1.1-.6-1.8 0-.8.3-1.5.9-2.1s1.4-.8 2.4-.8c1.3.2 2.5.8 3.3 2.1zM689.5 669.6h-1.2l-2.5-8.8-2.4 8.8H682l-3.1-10.9h1.3l2.4 8.9 2.5-8.9h1.2l2.4 8.9 2.5-8.9h1.3l-3 10.9zM702.3 669.6H701l-.1-1.4c-1.2 1.1-2.5 1.6-3.9 1.6-1 0-1.7-.3-2.3-.8s-.8-1.2-.8-2.1c0-1.3.6-2.3 1.8-3 .9-.5 2.6-1 5.1-1.5.1-1.1-.1-1.9-.5-2.3s-1.1-.7-2-.7c-.7 0-1.3.1-1.8.4s-.9.8-1.4 1.4l-.9-.5c1-1.6 2.3-2.3 4.1-2.3 1.3 0 2.2.3 2.8.8.6.5.9 1.4.9 2.5v6.3l.3 1.6zm-1.5-2.7v-3.4c-2.2.5-3.8.9-4.6 1.4-.7.4-1.1 1.1-1.1 2 0 .6.2 1 .5 1.4s.8.5 1.4.5c.7 0 1.4-.2 2.1-.5s1.3-.8 1.7-1.4zM709.1 669.3c-.6 1.6-1.1 2.7-1.6 3.3-.5.6-1.2.8-2.1.8-.4 0-.9 0-1.3-.1v-1.1c.4.1.8.1 1.2.1.6 0 1-.2 1.3-.5.3-.3.6-.9.9-1.8l.2-.7-3.8-10.7h1.4l3.1 8.9 3-8.9h1.3l-3.6 10.7z"/></g></svg>