<!-- Generator: Adobe Illustrator 25.2.0, SVG Export Plug-In  -->
<svg version="1.1" xmlns="http://www.w3.org/2000/svg" xmlns:xlink="http://www.w3.org/1999/xlink" x="0px" y="0px"
	 width="1778.5px" height="1061.5px" viewBox="0 0 1778.5 1061.5"
	 style="overflow:visible;enable-background:new 0 0 1778.5 1061.5;" xml:space="preserve">
<style type="text/css">
	.st0{opacity:0.15;fill:#05DB4C;}
	.st1{fill:url(#SVGID_1_);}
	.st2{fill:url(#SVGID_2_);}
	.st3{fill:url(#SVGID_3_);}
	.st4{fill:url(#SVGID_4_);}
	.st5{fill:url(#SVGID_5_);}
	.st6{fill:url(#SVGID_6_);}
	.st7{fill:url(#SVGID_7_);}
	.st8{fill:url(#SVGID_8_);}
	.st9{fill:url(#SVGID_9_);}
	.st10{fill:url(#SVGID_10_);}
	.st11{fill:url(#SVGID_11_);}
	.st12{fill:url(#SVGID_12_);}
	.st13{fill:url(#SVGID_13_);}
	.st14{fill:url(#SVGID_14_);}
	.st15{fill:url(#SVGID_15_);}
	.st16{fill:none;stroke:#00B140;stroke-width:0.5;stroke-miterlimit:10;}
	.st17{fill:#05DB4C;}
	.st18{fill:#FFFFFF;}
	.st19{fill:url(#SVGID_16_);}
	.st20{fill:url(#SVGID_17_);}
	.st21{fill:url(#SVGID_18_);}
	.st22{fill:url(#SVGID_19_);}
	.st23{fill:url(#SVGID_20_);}
	.st24{fill:url(#SVGID_21_);}
	.st25{fill:url(#SVGID_22_);}
	.st26{fill:url(#SVGID_23_);}
	.st27{fill:url(#SVGID_24_);}
	.st28{fill:url(#SVGID_25_);}
	.st29{fill:url(#SVGID_26_);}
	.st30{fill:url(#SVGID_27_);}
	.st31{fill:url(#SVGID_28_);}
	.st32{fill:url(#SVGID_29_);}
	.st33{fill:url(#SVGID_30_);}
	.st34{fill:url(#SVGID_31_);}
	.st35{fill:url(#SVGID_32_);}
	.st36{fill:url(#SVGID_33_);}
	.st37{fill:url(#SVGID_34_);}
	.st38{fill:url(#SVGID_35_);}
	.st39{fill:url(#SVGID_36_);}
	.st40{fill:url(#SVGID_37_);}
	.st41{fill:url(#SVGID_38_);}
</style>
<defs>
</defs>
<g>
	<rect x="356.2" y="177.2" class="st0" width="1066" height="707"/>
	<radialGradient id="SVGID_1_" cx="1433.25" cy="231.25" r="226" gradientUnits="userSpaceOnUse">
		<stop  offset="0" style="stop-color:#000000"/>
		<stop  offset="0.9996" style="stop-color:#000000;stop-opacity:0"/>
	</radialGradient>
	<circle class="st1" cx="1433.2" cy="231.2" r="226"/>
	<radialGradient id="SVGID_2_" cx="1530.25" cy="482.25" r="226" gradientUnits="userSpaceOnUse">
		<stop  offset="0" style="stop-color:#000000"/>
		<stop  offset="0.9996" style="stop-color:#000000;stop-opacity:0"/>
	</radialGradient>
	<circle class="st2" cx="1530.2" cy="482.2" r="226"/>
	<radialGradient id="SVGID_3_" cx="1493.25" cy="757.25" r="226" gradientUnits="userSpaceOnUse">
		<stop  offset="0" style="stop-color:#000000"/>
		<stop  offset="0.9996" style="stop-color:#000000;stop-opacity:0"/>
	</radialGradient>
	<circle class="st3" cx="1493.2" cy="757.2" r="226"/>
	<radialGradient id="SVGID_4_" cx="1411.25" cy="835.25" r="226" gradientUnits="userSpaceOnUse">
		<stop  offset="0" style="stop-color:#000000"/>
		<stop  offset="0.9996" style="stop-color:#000000;stop-opacity:0"/>
	</radialGradient>
	<circle class="st4" cx="1411.2" cy="835.2" r="226"/>
	<radialGradient id="SVGID_5_" cx="356.25" cy="825.25" r="226" gradientUnits="userSpaceOnUse">
		<stop  offset="0" style="stop-color:#000000"/>
		<stop  offset="0.9996" style="stop-color:#000000;stop-opacity:0"/>
	</radialGradient>
	<circle class="st5" cx="356.2" cy="825.2" r="226"/>
	<radialGradient id="SVGID_6_" cx="258.25" cy="554.25" r="226" gradientUnits="userSpaceOnUse">
		<stop  offset="0" style="stop-color:#000000"/>
		<stop  offset="0.9996" style="stop-color:#000000;stop-opacity:0"/>
	</radialGradient>
	<circle class="st6" cx="258.2" cy="554.2" r="226"/>
	<radialGradient id="SVGID_7_" cx="258.25" cy="226.25" r="226" gradientUnits="userSpaceOnUse">
		<stop  offset="0" style="stop-color:#000000"/>
		<stop  offset="0.9996" style="stop-color:#000000;stop-opacity:0"/>
	</radialGradient>
	<circle class="st7" cx="258.2" cy="226.2" r="226"/>
	<radialGradient id="SVGID_8_" cx="548.25" cy="160.25" r="160" gradientUnits="userSpaceOnUse">
		<stop  offset="0" style="stop-color:#000000"/>
		<stop  offset="0.9996" style="stop-color:#000000;stop-opacity:0"/>
	</radialGradient>
	<circle class="st8" cx="548.2" cy="160.2" r="160"/>
	<radialGradient id="SVGID_9_" cx="1224.75" cy="138.75" r="138.5" gradientUnits="userSpaceOnUse">
		<stop  offset="0" style="stop-color:#000000"/>
		<stop  offset="0.9996" style="stop-color:#000000;stop-opacity:0"/>
	</radialGradient>
	<circle class="st9" cx="1224.8" cy="138.8" r="138.5"/>
	<radialGradient id="SVGID_10_" cx="993.75" cy="138.75" r="138.5" gradientUnits="userSpaceOnUse">
		<stop  offset="0" style="stop-color:#000000"/>
		<stop  offset="0.9996" style="stop-color:#000000;stop-opacity:0"/>
	</radialGradient>
	<circle class="st10" cx="993.8" cy="138.8" r="138.5"/>
	<radialGradient id="SVGID_11_" cx="814.75" cy="138.75" r="138.5" gradientUnits="userSpaceOnUse">
		<stop  offset="0" style="stop-color:#000000"/>
		<stop  offset="0.9996" style="stop-color:#000000;stop-opacity:0"/>
	</radialGradient>
	<circle class="st11" cx="814.8" cy="138.8" r="138.5"/>
	<radialGradient id="SVGID_12_" cx="599.25" cy="928.25" r="133" gradientUnits="userSpaceOnUse">
		<stop  offset="0" style="stop-color:#000000"/>
		<stop  offset="0.9996" style="stop-color:#000000;stop-opacity:0"/>
	</radialGradient>
	<circle class="st12" cx="599.2" cy="928.2" r="133"/>
	<radialGradient id="SVGID_13_" cx="795.25" cy="928.25" r="133" gradientUnits="userSpaceOnUse">
		<stop  offset="0" style="stop-color:#000000"/>
		<stop  offset="0.9996" style="stop-color:#000000;stop-opacity:0"/>
	</radialGradient>
	<circle class="st13" cx="795.2" cy="928.2" r="133"/>
	<radialGradient id="SVGID_14_" cx="948.25" cy="928.25" r="133" gradientUnits="userSpaceOnUse">
		<stop  offset="0" style="stop-color:#000000"/>
		<stop  offset="0.9996" style="stop-color:#000000;stop-opacity:0"/>
	</radialGradient>
	<circle class="st14" cx="948.2" cy="928.2" r="133"/>
	<radialGradient id="SVGID_15_" cx="1088.25" cy="928.25" r="133" gradientUnits="userSpaceOnUse">
		<stop  offset="0" style="stop-color:#000000"/>
		<stop  offset="0.9996" style="stop-color:#000000;stop-opacity:0"/>
	</radialGradient>
	<circle class="st15" cx="1088.2" cy="928.2" r="133"/>
</g>
<g>
	<rect x="0.2" y="0.2" class="st16" width="1778" height="1061"/>
	<line class="st16" x1="1778.2" y1="59.2" x2="0.2" y2="59.2"/>
	<line class="st16" x1="1778.2" y1="118.1" x2="0.2" y2="118.1"/>
	<line class="st16" x1="1778.2" y1="177.1" x2="0.2" y2="177.1"/>
	<line class="st16" x1="1778.2" y1="236" x2="0.2" y2="236"/>
	<line class="st16" x1="1778.2" y1="295" x2="0.2" y2="295"/>
	<line class="st16" x1="1778.2" y1="353.9" x2="0.2" y2="353.9"/>
	<line class="st16" x1="1778.2" y1="412.9" x2="0.2" y2="412.9"/>
	<line class="st16" x1="1778.2" y1="471.8" x2="0.2" y2="471.8"/>
	<line class="st16" x1="1778.2" y1="530.8" x2="0.2" y2="530.8"/>
	<line class="st16" x1="1778.2" y1="589.7" x2="0.2" y2="589.7"/>
	<line class="st16" x1="1778.2" y1="648.6" x2="0.2" y2="648.6"/>
	<line class="st16" x1="1778.2" y1="707.6" x2="0.2" y2="707.6"/>
	<line class="st16" x1="1778.2" y1="766.5" x2="0.2" y2="766.5"/>
	<line class="st16" x1="1778.2" y1="825.5" x2="0.2" y2="825.5"/>
	<line class="st16" x1="1778.2" y1="884.4" x2="0.2" y2="884.4"/>
	<line class="st16" x1="1778.2" y1="943.4" x2="0.2" y2="943.4"/>
	<line class="st16" x1="1778.2" y1="1002.3" x2="0.2" y2="1002.3"/>
	<line class="st16" x1="59.5" y1="1061.2" x2="59.5" y2="0.2"/>
	<line class="st16" x1="118.8" y1="1061.2" x2="118.8" y2="0.2"/>
	<line class="st16" x1="178.1" y1="1061.2" x2="178.1" y2="0.2"/>
	<line class="st16" x1="237.3" y1="1061.2" x2="237.3" y2="0.2"/>
	<line class="st16" x1="296.6" y1="1061.2" x2="296.6" y2="0.2"/>
	<line class="st16" x1="355.9" y1="1061.2" x2="355.9" y2="0.2"/>
	<line class="st16" x1="415.1" y1="1061.2" x2="415.1" y2="0.2"/>
	<line class="st16" x1="474.4" y1="1061.2" x2="474.4" y2="0.2"/>
	<line class="st16" x1="533.7" y1="1061.2" x2="533.7" y2="0.2"/>
	<line class="st16" x1="592.9" y1="1061.2" x2="592.9" y2="0.2"/>
	<line class="st16" x1="652.2" y1="1061.2" x2="652.2" y2="0.2"/>
	<line class="st16" x1="711.5" y1="1061.2" x2="711.5" y2="0.2"/>
	<line class="st16" x1="770.7" y1="1061.2" x2="770.7" y2="0.2"/>
	<line class="st16" x1="830" y1="1061.2" x2="830" y2="0.2"/>
	<line class="st16" x1="889.2" y1="1061.2" x2="889.2" y2="0.2"/>
	<line class="st16" x1="948.5" y1="1061.2" x2="948.5" y2="0.2"/>
	<line class="st16" x1="1007.8" y1="1061.2" x2="1007.8" y2="0.2"/>
	<line class="st16" x1="1067.1" y1="1061.2" x2="1067.1" y2="0.2"/>
	<line class="st16" x1="1126.3" y1="1061.2" x2="1126.3" y2="0.2"/>
	<line class="st16" x1="1185.6" y1="1061.2" x2="1185.6" y2="0.2"/>
	<line class="st16" x1="1244.8" y1="1061.2" x2="1244.8" y2="0.2"/>
	<line class="st16" x1="1304.1" y1="1061.2" x2="1304.1" y2="0.2"/>
	<line class="st16" x1="1363.4" y1="1061.2" x2="1363.4" y2="0.2"/>
	<line class="st16" x1="1422.7" y1="1061.2" x2="1422.7" y2="0.2"/>
	<line class="st16" x1="1481.9" y1="1061.2" x2="1481.9" y2="0.2"/>
	<line class="st16" x1="1541.2" y1="1061.2" x2="1541.2" y2="0.2"/>
	<line class="st16" x1="1600.4" y1="1061.2" x2="1600.4" y2="0.2"/>
	<line class="st16" x1="1659.7" y1="1061.2" x2="1659.7" y2="0.2"/>
	<line class="st16" x1="1719" y1="1061.2" x2="1719" y2="0.2"/>
</g>
<rect x="533.2" y="354.2" class="st17" width="712" height="353"/>
<g>
	<path class="st18" d="M585.5,516.4V407.1h39.3c31.4,0,44.5,9.7,44.5,27.7c0,10.4-5.4,19.3-16.5,23.8v0.3c11.7,3.5,20,10.2,20,25.6
		c0,25.3-22.6,32-47.5,32H585.5z M626.4,449.7c7.1,0,13.4-2.4,13.4-10.4c0-7-6-8.5-14.3-8.5h-11.4v18.9H626.4z M626.1,492.8
		c13.5,0,17.3-4.7,17.3-11.3c0-8.8-7.7-10.7-16.1-10.7h-13.2v21.9H626.1z"/>
	<path class="st18" d="M686.6,516.4V407.1h29.3v109.3H686.6z"/>
	<path class="st18" d="M795.6,516.4l-5.7-23.8h-29.2l-5.6,23.8h-29.6l31-109.3h38.7l31,109.3H795.6z M766.3,468.6h17.9l-8.7-37.1
		h-0.3L766.3,468.6z"/>
	<path class="st18" d="M890.1,440c-3.2-8.2-9.2-12.3-16.8-12.3c-6,0-11.1,3.3-11.1,8.7c0,18.6,54.7,5.3,54.7,46.9
		c0,22.8-17.7,35-43.2,35c-21.5,0-36.7-7.9-43.2-30l26.9-8.4c1.5,9.1,7.8,15.4,18.2,15.4c7.8,0,14-3.2,14-9.7
		c0-19.6-56.2-5.9-56.2-49c0-18.3,16.5-31.2,39.1-31.2c20.6,0,34.4,7,41.8,26L890.1,440z"/>
	<path class="st18" d="M584.4,599c0-24.4,10.5-56.5,48.6-56.5c38.1,0,48.6,32.1,48.6,56.5c0,32.9-16.2,56.5-48.6,56.5
		C600.6,655.5,584.4,631.9,584.4,599z M652.2,599c0-21.2-5.6-33.8-19.3-33.8c-13.7,0-19.3,12.6-19.3,33.8c0,20.9,5.3,33.2,19.3,33.2
		C647,632.2,652.2,619.9,652.2,599z"/>
	<path class="st18" d="M759.2,653.7l-35.9-63.9h-0.3v63.9h-27.2V544.3h32.8l32.2,60h0.3v-60h27.2v109.3H759.2z"/>
	<path class="st18" d="M806.8,653.7V544.3h29.3v85.1h43.3v24.2H806.8z"/>
	<path class="st18" d="M890.6,653.7V544.3h29.3v109.3H890.6z"/>
	<path class="st18" d="M1002,653.7l-35.9-63.9h-0.3v63.9h-27.2V544.3h32.8l32.2,60h0.3v-60h27.2v109.3H1002z"/>
	<path class="st18" d="M1049.7,653.7V544.3h75.8v24.2H1079v17.5h32.9v23.4H1079v19.9h47.4v24.2H1049.7z"/>
</g>
<linearGradient id="SVGID_16_" gradientUnits="userSpaceOnUse" x1="889.25" y1="0.25" x2="889.25" y2="198.25">
	<stop  offset="0" style="stop-color:#000000;stop-opacity:0.6"/>
	<stop  offset="0.9996" style="stop-color:#000000;stop-opacity:0"/>
</linearGradient>
<rect x="0.2" y="0.2" class="st19" width="1778" height="198"/>
<linearGradient id="SVGID_17_" gradientUnits="userSpaceOnUse" x1="889.25" y1="825.25" x2="889.25" y2="1023.25" gradientTransform="matrix(-1 0 0 -1 1778.5 1886.5)">
	<stop  offset="0" style="stop-color:#000000;stop-opacity:0.6"/>
	<stop  offset="0.9996" style="stop-color:#000000;stop-opacity:0"/>
</linearGradient>
<polygon class="st20" points="0.2,863.2 1778.2,863.2 1778.2,1061.2 0.2,1061.2 "/>
<linearGradient id="SVGID_18_" gradientUnits="userSpaceOnUse" x1="1135.7499" y1="-358.7828" x2="1135.7499" y2="-160.7828" gradientTransform="matrix(6.123234e-17 1 -1 6.123234e-17 1419.4672 -604.9998)">
	<stop  offset="0" style="stop-color:#000000;stop-opacity:0.6"/>
	<stop  offset="0.9996" style="stop-color:#000000;stop-opacity:0"/>
</linearGradient>
<polygon class="st21" points="1580.2,1061.2 1580.2,0.2 1778.2,0.2 1778.2,1061.2 "/>
<linearGradient id="SVGID_19_" gradientUnits="userSpaceOnUse" x1="1135.7499" y1="787.2172" x2="1135.7499" y2="985.2172" gradientTransform="matrix(-6.123234e-17 -1 1 -6.123234e-17 -786.9672 1666.4999)">
	<stop  offset="0" style="stop-color:#000000;stop-opacity:0.6"/>
	<stop  offset="0.9996" style="stop-color:#000000;stop-opacity:0"/>
</linearGradient>
<polygon class="st22" points="198.2,0.2 198.2,1061.2 0.2,1061.2 0.2,0.2 "/>
</svg>
