<svg xmlns="http://www.w3.org/2000/svg" width="1778.2" height="1061.2" style="overflow:visible;enable-background:new 0 0 1778.2 1061.2" xml:space="preserve"><style>.st22{fill:none;stroke:#fff;stroke-miterlimit:10}.st23{fill:#fff}</style><path d="M356 177h1066v707H356V177z" style="opacity:.15;fill:#05db4c;enable-background:new"/><radialGradient id="SVGID_1_" cx="1433" cy="-316.99" r="226" gradientTransform="translate(0 547.99)" gradientUnits="userSpaceOnUse"><stop offset="0" style="stop-color:#000"/><stop offset="1" style="stop-color:#000;stop-opacity:0"/></radialGradient><circle cx="1433" cy="231" r="226" style="fill:url(#SVGID_1_)"/><radialGradient id="SVGID_2_" cx="1530" cy="-65.99" r="226" gradientTransform="translate(0 547.99)" gradientUnits="userSpaceOnUse"><stop offset="0" style="stop-color:#000"/><stop offset="1" style="stop-color:#000;stop-opacity:0"/></radialGradient><circle cx="1530" cy="482" r="226" style="fill:url(#SVGID_2_)"/><radialGradient id="SVGID_3_" cx="1493" cy="209.01" r="226" gradientTransform="translate(0 547.99)" gradientUnits="userSpaceOnUse"><stop offset="0" style="stop-color:#000"/><stop offset="1" style="stop-color:#000;stop-opacity:0"/></radialGradient><circle cx="1493" cy="757" r="226" style="fill:url(#SVGID_3_)"/><radialGradient id="SVGID_4_" cx="1411" cy="287.01" r="226" gradientTransform="translate(0 547.99)" gradientUnits="userSpaceOnUse"><stop offset="0" style="stop-color:#000"/><stop offset="1" style="stop-color:#000;stop-opacity:0"/></radialGradient><circle cx="1411" cy="835" r="226" style="fill:url(#SVGID_4_)"/><radialGradient id="SVGID_5_" cx="356" cy="277.01" r="226" gradientTransform="translate(0 547.99)" gradientUnits="userSpaceOnUse"><stop offset="0" style="stop-color:#000"/><stop offset="1" style="stop-color:#000;stop-opacity:0"/></radialGradient><circle cx="356" cy="825" r="226" style="fill:url(#SVGID_5_)"/><radialGradient id="SVGID_6_" cx="258" cy="6.01" r="226" gradientTransform="translate(0 547.99)" gradientUnits="userSpaceOnUse"><stop offset="0" style="stop-color:#000"/><stop offset="1" style="stop-color:#000;stop-opacity:0"/></radialGradient><circle cx="258" cy="554" r="226" style="fill:url(#SVGID_6_)"/><radialGradient id="SVGID_7_" cx="307" cy="-316.99" r="177" gradientTransform="translate(0 547.99)" gradientUnits="userSpaceOnUse"><stop offset="0" style="stop-color:#000"/><stop offset="1" style="stop-color:#000;stop-opacity:0"/></radialGradient><circle cx="307" cy="231" r="177" style="fill:url(#SVGID_7_)"/><radialGradient id="SVGID_8_" cx="548" cy="-387.99" r="160" gradientTransform="translate(0 547.99)" gradientUnits="userSpaceOnUse"><stop offset="0" style="stop-color:#000"/><stop offset="1" style="stop-color:#000;stop-opacity:0"/></radialGradient><circle cx="548" cy="160" r="160" style="fill:url(#SVGID_8_)"/><radialGradient id="SVGID_9_" cx="1224.7" cy="-409.29" r="138.5" gradientTransform="translate(0 547.99)" gradientUnits="userSpaceOnUse"><stop offset="0" style="stop-color:#000"/><stop offset="1" style="stop-color:#000;stop-opacity:0"/></radialGradient><circle cx="1224.7" cy="138.7" r="138.5" style="fill:url(#SVGID_9_)"/><radialGradient id="SVGID_10_" cx="993.6" cy="-409.29" r="138.5" gradientTransform="translate(0 547.99)" gradientUnits="userSpaceOnUse"><stop offset="0" style="stop-color:#000"/><stop offset="1" style="stop-color:#000;stop-opacity:0"/></radialGradient><circle cx="993.6" cy="138.7" r="138.5" style="fill:url(#SVGID_10_)"/><radialGradient id="SVGID_11_" cx="814.6" cy="-409.29" r="138.5" gradientTransform="translate(0 547.99)" gradientUnits="userSpaceOnUse"><stop offset="0" style="stop-color:#000"/><stop offset="1" style="stop-color:#000;stop-opacity:0"/></radialGradient><circle cx="814.6" cy="138.7" r="138.5" style="fill:url(#SVGID_11_)"/><radialGradient id="SVGID_12_" cx="599" cy="380.01" r="133" gradientTransform="translate(0 547.99)" gradientUnits="userSpaceOnUse"><stop offset="0" style="stop-color:#000"/><stop offset="1" style="stop-color:#000;stop-opacity:0"/></radialGradient><circle cx="599" cy="928" r="133" style="fill:url(#SVGID_12_)"/><radialGradient id="SVGID_13_" cx="795" cy="380.01" r="133" gradientTransform="translate(0 547.99)" gradientUnits="userSpaceOnUse"><stop offset="0" style="stop-color:#000"/><stop offset="1" style="stop-color:#000;stop-opacity:0"/></radialGradient><circle cx="795" cy="928" r="133" style="fill:url(#SVGID_13_)"/><radialGradient id="SVGID_14_" cx="948" cy="380.01" r="133" gradientTransform="translate(0 547.99)" gradientUnits="userSpaceOnUse"><stop offset="0" style="stop-color:#000"/><stop offset="1" style="stop-color:#000;stop-opacity:0"/></radialGradient><circle cx="948" cy="928" r="133" style="fill:url(#SVGID_14_)"/><radialGradient id="SVGID_15_" cx="1088" cy="380.01" r="133" gradientTransform="translate(0 547.99)" gradientUnits="userSpaceOnUse"><stop offset="0" style="stop-color:#000"/><stop offset="1" style="stop-color:#000;stop-opacity:0"/></radialGradient><circle cx="1088" cy="928" r="133" style="fill:url(#SVGID_15_)"/><path d="M1778 0v1061H0M1778 59H178.1M1778 118H178.1M1778 177H0m1778 58.9H0m1778 58.9H0m1778 58.9H0m1778 59H0m1778 58.9H0m1778 59H0m1778 59H0m1778 58.8H0m1778 59H0m1778 58.9H0m1778 59H0m1778 59H0m1778 59H0m1778 58.8H0m59.3 58.9V177.5m59.4 883.5V177.5M178 1061V0m59.2 1061V0m59.2 1061V0m59.3 1061V0m59.2 1061V0m59.3 1061V0m59.4 1061V0m59.2 1061V0M652 1061V0m59.3 1061V0m59.3 1061V0m59.2 1061V0M889 1061V0m59.3 1061V0m59.3 1061V0m59.4 1061V0m59.2 1061V0m59.3 1061V0m59.2 1061V0m59.3 1061V0m59.3 1061V0m59.3 1061V0m59.2 1061V0m59.2 1061V0m59.3 1061V0m59.3 1061V0m59.3 1061V0" style="fill:none;stroke:#00b140;stroke-width:.5;stroke-miterlimit:10"/><linearGradient id="SVGID_16_" gradientUnits="userSpaceOnUse" x1="978.059" y1="-547.99" x2="978.059" y2="-349.99" gradientTransform="translate(0 547.99)"><stop offset="0" style="stop-color:#000;stop-opacity:.6"/><stop offset="1" style="stop-color:#000;stop-opacity:0"/></linearGradient><path d="M178.1 0H1778v198H178.1V0z" style="fill:url(#SVGID_16_)"/><linearGradient id="SVGID_17_" gradientUnits="userSpaceOnUse" x1="3337.2" y1="1045.21" x2="3337.2" y2="1243.21" gradientTransform="rotate(180 2113.1 1053.105)"><stop offset="0" style="stop-color:#000;stop-opacity:.6"/><stop offset="1" style="stop-color:#000;stop-opacity:0"/></linearGradient><path d="M0 863h1778v198H0V863z" style="fill:url(#SVGID_17_)"/><linearGradient id="SVGID_18_" gradientUnits="userSpaceOnUse" x1="1975.5" y1="701.177" x2="1975.5" y2="899.177" gradientTransform="rotate(90 1962.089 517.089)"><stop offset="0" style="stop-color:#000;stop-opacity:.6"/><stop offset="1" style="stop-color:#000;stop-opacity:0"/></linearGradient><path d="M1580 1061V0h198v1061h-198z" style="fill:url(#SVGID_18_)"/><linearGradient id="SVGID_19_" gradientUnits="userSpaceOnUse" x1="2654.975" y1="-601.023" x2="2654.975" y2="-403.023" gradientTransform="rotate(-90 1937.612 1336.589)"><stop offset="0" style="stop-color:#000;stop-opacity:.6"/><stop offset="1" style="stop-color:#000;stop-opacity:0"/></linearGradient><path d="M198 177.5V1061H0V177.5h198z" style="fill:url(#SVGID_19_)"/><path d="M414.6 236.2h948.7v470.4H414.6V236.2z" style="fill:#00b140;stroke:#00b140;stroke-width:.5;stroke-miterlimit:10"/><g><path class="st22" d="M457.9 471.6V423h-15.7v-13.8h48.3V423h-15.7v48.6h-16.9zM530.3 471.6V447h-18.9v24.5h-17.1V409h17.1v23.1h18.9V409h17v62.5h-17zM552.9 471.6v-62.5h17v62.5h-17zM607.9 427.9c-1.8-4.7-5.3-7-9.7-7-3.5 0-6.4 1.9-6.4 5 0 10.6 31.7 3 31.7 26.8 0 13.1-10.3 20-25 20-12.4 0-21.2-4.5-25-17.1l15.6-4.8c.9 5.2 4.5 8.8 10.5 8.8 4.5 0 8.1-1.8 8.1-5.6 0-11.2-32.5-3.4-32.5-28 0-10.4 9.6-17.8 22.6-17.8 11.9 0 19.9 4 24.2 14.9l-14.1 4.8z"/></g><g><path class="st22" d="m494.1 541.8-6.8-35.2h-.2l-7 35.2H463l-15.7-62.5h18.4l6.4 38h.2l7.1-38h16.9l6 37.4h.2l7.4-37.4H527l-16.2 62.5h-16.7zM555.4 541.8l-3.3-13.6h-16.9l-3.2 13.6h-17.1l17.9-62.5h22.4l17.9 62.5h-17.7zm-17-27.3h10.4l-5-21.2h-.2l-5.2 21.2zM578.4 541.8v-23.5l-19.9-39h17.9l10.5 22.4h.2l11.1-22.4h17.5l-20.3 39v23.5h-17z"/></g><g><path class="st22" d="M444.5 401.8v-62.5h22.7c18.2 0 25.8 5.6 25.8 15.8 0 5.9-3.1 11-9.6 13.6v.2c6.8 2 11.6 5.8 11.6 14.6 0 14.4-13.1 18.3-27.5 18.3h-23zm23.6-38.1c4.1 0 7.7-1.4 7.7-5.9 0-4-3.5-4.9-8.3-4.9H461v10.8h7.1zm-.2 24.6c7.8 0 10-2.7 10-6.4 0-5-4.4-6.1-9.3-6.1H461v12.5h6.9zM534.5 339.4h17v36.1c0 17.5-8 27.4-27.2 27.4s-25.9-9.9-25.9-27.4v-36.1h17.1v39.4c0 6.7 3 10.4 9.2 10.4 6.1 0 9.9-3.7 9.9-10.4v-39.4zM556.3 401.8v-62.5h17v62.5h-17zM578.7 401.8v-62.5h17V388h25.1v13.8h-42.1zM626.5 401.8v-48.6h-15.7v-13.8h48.3v13.8h-15.7v48.6h-16.9z"/></g><g><path class="st23" d="M444.5 332v-62.5h22.7c18.2 0 25.8 5.6 25.8 15.8 0 5.9-3.1 11-9.6 13.6v.2c6.8 2 11.6 5.8 11.6 14.6 0 14.4-13.1 18.3-27.5 18.3h-23zm23.6-38.1c4.1 0 7.7-1.4 7.7-5.9 0-4-3.5-4.9-8.3-4.9H461v10.8h7.1zm-.2 24.6c7.8 0 10-2.7 10-6.4 0-5-4.4-6.1-9.3-6.1H461v12.5h6.9zM498 332v-62.5h17V332h-17zM558.4 332l-3.3-13.6h-16.9L535 332h-17.1l17.9-62.5h22.4l17.9 62.5h-17.7zm-16.9-27.3h10.4l-5-21.2h-.2l-5.2 21.2zM609.9 288.3c-1.8-4.7-5.3-7-9.7-7-3.5 0-6.4 1.9-6.4 5 0 10.6 31.7 3 31.7 26.8 0 13.1-10.3 20-25 20-12.4 0-21.2-4.5-25-17.1l15.6-4.8c.9 5.2 4.5 8.8 10.5 8.8 4.5 0 8.1-1.8 8.1-5.6 0-11.2-32.5-3.4-32.5-28 0-10.4 9.6-17.8 22.6-17.8 11.9 0 19.9 4 24.2 14.9l-14.1 4.8zM635.4 306.2v-15.6h16.3v15.6h-16.3zm0 25.8v-15.6h16.3V332h-16.3z"/></g><g><path class="st23" d="M449.4 673.5v-4.3c0-3.8 2.7-6.8 5.8-9.1 4.2-3.1 9-5.3 9-9.3 0-2.4-1.3-3.7-3.4-3.7-2 0-3.5 1-4.2 4.2l-6.9-1.4c.9-6 5.1-9.3 11.9-9.3 7.3 0 10.8 3.8 10.8 9.6 0 7.6-7.8 11.1-11.5 14-1 .8-1.6 1.9-1.7 2.7h13.5v6.6h-23.3zM474.9 673.5v-4.3c0-3.8 2.7-6.8 5.8-9.1 4.2-3.1 9-5.3 9-9.3 0-2.4-1.3-3.7-3.4-3.7-2 0-3.5 1-4.2 4.2l-6.9-1.4c.9-6 5.1-9.3 11.9-9.3 7.3 0 10.8 3.8 10.8 9.6 0 7.6-7.8 11.1-11.5 14-1 .8-1.6 1.9-1.7 2.7h13.5v6.6h-23.3zM500.7 673.5v-8.1h8.4v8.1h-8.4zM515.5 673.5v-6.4h5v-18.7l-6 .8V644l8.9-2.9h5.4v26h5.2v6.4h-18.5zM537.3 657.5c0-10.6 4-16.9 12.2-16.9s12.2 6.4 12.2 16.9c0 11.2-4.5 16.5-12.2 16.5-7.7 0-12.2-5.3-12.2-16.5zm16 0c0-7.7-1-10.6-3.8-10.6s-3.8 2.9-3.8 10.6c0 7.1 1 10.1 3.8 10.1s3.8-3 3.8-10.1zM563.5 673.5v-8.1h8.4v8.1h-8.4zM574.9 673.5v-4.3c0-3.8 2.7-6.8 5.8-9.1 4.2-3.1 9-5.3 9-9.3 0-2.4-1.3-3.7-3.4-3.7-2 0-3.5 1-4.2 4.2l-6.9-1.4c.9-6 5.1-9.3 11.9-9.3 7.3 0 10.8 3.8 10.8 9.6 0 7.6-7.8 11.1-11.5 14-1 .8-1.6 1.9-1.7 2.7h13.5v6.6h-23.3zM603.8 673.5v-6.4h5v-18.7l-6 .8V644l8.9-2.9h5.4v26h5.2v6.4h-18.5zM625.5 663v-3.1H654v3.1h-28.5zM666.4 674c-5.2 0-9.4-.8-12.6-6.4l6.4-3.6c1.6 2.8 3.3 3.4 5.6 3.4 2.8 0 4.9-1.4 4.9-3.9 0-3-2.6-4-7.1-4h-1.8v-6.1h1.7c4.5 0 6.4-1.2 6.4-3.3 0-1.8-1.3-3-4-3-1.9 0-3.7.5-5.3 2.7l-5.5-4.1c3.2-3.8 6.9-5.1 11.9-5.1 6.6 0 11.1 3.1 11.1 8.5 0 3.2-2.1 6.1-6.1 7.2v.1c4.2 1.1 6.8 3.6 6.8 7.9.1 6.2-5.1 9.7-12.4 9.7zM684.4 673.5v-6.4h5v-18.7l-6 .8V644l8.9-2.9h5.4v26h5.2v6.4h-18.5zM706.8 673.5v-8.1h8.4v8.1h-8.4zM717.9 657.5c0-10.6 4-16.9 12.2-16.9s12.2 6.4 12.2 16.9c0 11.2-4.5 16.5-12.2 16.5-7.8 0-12.2-5.3-12.2-16.5zm15.9 0c0-7.7-1-10.6-3.8-10.6s-3.8 2.9-3.8 10.6c0 7.1 1 10.1 3.8 10.1s3.8-3 3.8-10.1zM747.1 673.5v-6.4h5v-18.7l-6 .8V644l8.9-2.9h5.4v26h5.2v6.4h-18.5zM769.6 673.5v-8.1h8.4v8.1h-8.4zM781 673.5v-4.3c0-3.8 2.7-6.8 5.8-9.1 4.2-3.1 9-5.3 9-9.3 0-2.4-1.3-3.7-3.4-3.7-2 0-3.5 1-4.2 4.2l-6.9-1.4c.9-6 5.1-9.3 11.9-9.3 7.3 0 10.8 3.8 10.8 9.6 0 7.6-7.8 11.1-11.5 14-1 .8-1.6 1.9-1.7 2.7h13.5v6.6H781zM806.5 673.5v-4.3c0-3.8 2.7-6.8 5.8-9.1 4.2-3.1 9-5.3 9-9.3 0-2.4-1.3-3.7-3.4-3.7-2 0-3.5 1-4.2 4.2l-6.9-1.4c.9-6 5.1-9.3 11.9-9.3 7.3 0 10.8 3.8 10.8 9.6 0 7.6-7.8 11.1-11.5 14-1 .8-1.6 1.9-1.7 2.7h13.5v6.6h-23.3z"/></g></svg>