<svg xmlns="http://www.w3.org/2000/svg" width="103" height="89" style="overflow:visible;enable-background:new 0 0 103.1 89" viewBox="0 0 103.1 89">
  <path d="M0 44.1c3.8-.6 7.6-1.2 11.3-1.9 4.1-.7 8.3-1.2 12.4-2.1 5-1 8.6-4 11.7-8 8.3-10.8 24-10.8 32.1 0 3.9 5.1 8.7 7.7 14.9 8.6 6.4.9 12.9 2.1 19.3 3.1.4.1.9.2 1.3.8-2.3.4-4.6.8-6.8 1.2-6.2 1.1-12.4 2.2-18.6 3.4-3.2.6-5.7 2.5-7.8 4.9-1.4 1.7-2.7 3.5-4.3 5-8.4 8.1-22.7 7.5-29.5-1.8-4.5-6-10.2-8.7-17.3-9.6-6.2-.8-12.4-2-18.7-3.1v-.5zm51.6 13.3c7.2-.1 13-6 12.9-13.2 0-6.8-6.2-12.9-13-12.7-8.7.3-12.8 7.1-12.9 12.8-.1 7.3 5.8 13.2 13 13.1z"/>
  <path d="M50.1 76c-10.4-.6-19.4-5.5-25.6-15.4-.7-1.2-1.3-2.4.2-3.3 1.5-1 2.3.2 3 1.3 6 9.4 14.5 14 25.6 13.5 6.6-.3 12.3-3 17.2-7.4 1.1-1 2.2-2.7 3.8-1.1 1.7 1.8-.2 2.9-1.3 3.9-6.1 5.7-13.4 8.4-22.9 8.5zM53.8 13c11.5 1.1 20.2 6.8 25.8 17.2.6 1.2.6 2.2-.6 2.9-1.4.8-2.1-.2-2.7-1.2-2.8-5.3-6.9-9.4-12.2-12.2-3.6-1.8-7.5-2.7-11.5-3-.6 0-1.3 0-1.7-.3-.5-.5-1.1-1.3-1-1.9.1-.6.9-1.3 1.5-1.5.6-.2 1.4 0 2.4 0zM18.2 14.8c-4.1 0-7.4-3.2-7.4-7.3 0-4.2 3.3-7.5 7.4-7.5 4 0 7.4 3.4 7.3 7.4 0 4.1-3.2 7.4-7.3 7.4zm-.1-11c-2 0-3.6 1.7-3.5 3.8.1 1.9 1.7 3.5 3.6 3.6 2 0 3.7-1.7 3.7-3.7-.1-2.2-1.8-3.8-3.8-3.7zM26.2 31.5c-2 0-2.7-1.6-1.7-3.3C27 24 30.3 20.5 34.4 18c2.1-1.3 4.5-2.2 6.8-3.3 1.2-.6 2.3-.3 2.7 1.1.4 1.3-.4 2-1.5 2.4-6.4 2.2-11.3 6.2-14.8 12-.3.6-1 1-1.4 1.3zM90.4 77.8c3 0 5.6 2.5 5.6 5.5 0 3.1-2.4 5.6-5.5 5.6-3 0-5.6-2.5-5.6-5.5s2.5-5.5 5.5-5.6zm0 8.1c.9-1.1 1.9-1.8 1.8-2.4-.1-.7-1.1-1.3-1.7-2-.6.6-1.6 1.1-1.7 1.8-.1.7.8 1.4 1.6 2.6zM18.2 66.7c2 0 3.6 1.6 3.7 3.7 0 2.1-1.7 3.8-3.8 3.8-2-.1-3.6-1.7-3.6-3.8 0-2.1 1.6-3.7 3.7-3.7zM81.3 55.7c-1.4 2.4-2.7 4.7-4.2 6.8-.2.3-1.6.3-2.1-.1s-.8-1.5-.5-2c.9-2 1.9-3.9 3.1-5.8.3-.5 1.5-.8 2.2-.7.5.2.9 1.1 1.5 1.8zM59 7.3V3.8h3.5v3.5H59zM73.7.1v3.5h-3.5V.1h3.5zM66.5 7.5h3.4V11h-3.4V7.5zM29.2 74.3v3.3h-3.5v-3.3h3.5zM51.5 53.8c-5 0-9.3-4.3-9.3-9.3 0-5 4.3-9.3 9.3-9.3 5 0 9.3 4.3 9.3 9.3 0 5-4.2 9.3-9.3 9.3z"/>
</svg>