<svg xmlns="http://www.w3.org/2000/svg" width="74" height="74" style="overflow:visible;enable-background:new 0 0 74.7 75" viewBox="0 0 74.7 75">
  <path d="M18.6 68.6V48.5c-1.6 1-3.1 2-4.7 2.8-3.5 1.8-7.2 2-11 1.8C1.2 53 0 51.6 0 50s1.1-2.8 2.8-3c.9-.1 1.8-.1 2.7-.1 3.6 0 6.7-1.2 9.3-3.8l4.2-4.2c1.9-1.8 3.5-1.8 5.3 0l4 4c5.3 5.3 12.5 5.3 17.8 0l4.1-4.1c1.7-1.7 3.4-1.7 5.2 0 1.5 1.4 2.9 2.8 4.3 4.3 2.6 2.6 5.7 3.8 9.3 3.8 1 0 2.1 0 3.1.2 1.5.2 2.5 1.4 2.5 2.9 0 1.4-.9 2.9-2.4 3-2.4.2-4.8.1-7.2-.2-3-.4-5.7-1.8-8.1-3.7-.2-.2-.4-.3-.6-.5H56v20.2h2.7c1.4.1 2.6.6 3.1 2 .5 1.2.4 2.4-.7 3.3-.6.5-1.5 1-2.3 1-4.1.1-8.1.1-12.2 0-1.8 0-3.1-1.3-3.3-2.9-.1-1.5 1-2.9 2.7-3.2 1.1-.2 2.2-.2 3.4-.2V48.5c-3.6 3.1-7.6 4.8-12.3 4.8-4.7 0-8.8-1.6-12.4-4.9v20.3c1.2.1 2.4.1 3.6.3 1.5.3 2.6 1.8 2.5 3.2-.1 1.6-1.4 2.8-3 2.9-2.8.1-5.6 0-8.4 0h-3.9c-1.8 0-3.1-1.2-3.2-2.8-.1-1.8.8-3.1 2.7-3.4 1.3-.3 2.4-.2 3.6-.3zM24.9 15.5V6.4c0-3.8 2.6-6.4 6.5-6.4h11.9c3.9 0 6.5 2.6 6.5 6.5v18.1c0 3.8-2.5 6.5-6.3 6.6-4.1.1-8.1.1-12.2 0-3.9-.1-6.4-2.8-6.4-6.7v-9zm6.4-9.2v18.6h12.2V6.3H31.3z"/>
</svg>