<svg xmlns="http://www.w3.org/2000/svg" xml:space="preserve" width="47" height="47" style="overflow:visible;enable-background:new 0 0 47 47" viewBox="0 0 47 47">
  <style>
    .st0{fill:#FFFFFF}
  </style>
  <path d="M0 24.5c-.6-12 8.4-23 21-24.3 13.5-1.4 24.7 8.5 25.9 20.9 1.4 13.6-8.7 24.6-20.9 25.8C12.2 48.3.5 37.8 0 24.5zM44.6 22C44.2 11.1 34.2 2.5 24.9 2.5V6H22V2.4C11.6 2.8 2.7 12 2.4 22.1H6V25H2.4c.5 10.9 10.2 19.4 19.7 19.6v-3.5H25v3.5c10.5-.3 19.5-9.9 19.6-19.6h-3.5v-2.9c1.1-.1 2.3-.1 3.5-.1z" class="st0"/>
  <path d="M14.6 35.8c.4-2.4.9-4.8 1.3-7.3.4-2.3.9-4.6 1.3-6.9.2-1 .6-1.8 1.4-2.5 3.5-3 7-6 10.6-9 .2-.2.4-.4.7-.5.6-.4 1.4-.6 1.9-.1.4.4.7 1.2.7 1.8-.3 2.4-.8 4.8-1.3 7.2-.4 2.3-.9 4.6-1.3 6.9-.2 1-.5 1.8-1.3 2.4-3.6 3-7.1 6.1-10.7 9.2-.3.2-.5.4-.8.6-1.4.6-2.6-.2-2.5-1.8zm11.2-12.3c0-1.3-1-2.3-2.3-2.4-1.3 0-2.3 1-2.4 2.3 0 1.3 1 2.4 2.3 2.4 1.4 0 2.4-1 2.4-2.3z" class="st0"/>
</svg>