<svg xmlns="http://www.w3.org/2000/svg" width="47.1" height="47" style="overflow:visible;enable-background:new 0 0 47.1 47" xml:space="preserve"><path d="M0 24.4c-.6-12 8.4-23 21-24.3C34.5-1.3 45.7 8.6 46.9 21c1.4 13.6-8.7 24.6-20.9 25.8C12.2 48.2.5 37.7 0 24.4zm44.6-2.5C44.2 11 34.2 2.4 24.9 2.4v3.5H22V2.3C11.6 2.7 2.7 11.9 2.4 22H6v2.9H2.4c.5 10.9 10.2 19.4 19.7 19.6V41H25v3.5c10.5-.3 19.5-9.9 19.6-19.6h-3.5V22c1.1-.1 2.3-.1 3.5-.1z" style="fill:none"/><path d="m25.9 24.3 7.2-7.2c.7-.7.7-1.9 0-2.7-.7-.7-1.9-.7-2.7 0l-7.2 7.2-7.2-7.2c-.7-.7-1.9-.7-2.7 0-.7.7-.7 1.9 0 2.7l7.2 7.2-7.2 7.2c-.7.7-.7 1.9 0 2.7s1.9.7 2.7 0l7.2-7.2 7.2 7.2c.7.7 1.9.7 2.7 0 .7-.7.7-1.9 0-2.7l-7.2-7.2z" style="fill:#fff"/></svg>