<svg xmlns="http://www.w3.org/2000/svg" xml:space="preserve" width="23.8" height="23.8" style="overflow:visible;enable-background:new 0 0 23.8 23.8" viewBox="0 0 23.8 23.8">
  <style>
    .st0{fill:#FFFFFF}
  </style>
  <path d="M0 12.4C-.3 6.3 4.2.7 10.6.1c6.8-.7 12.5 4.3 13.1 10.6.7 6.9-4.4 12.4-10.6 13.1C6.2 24.4.2 19.1 0 12.4zm22.5-1.3c-.2-5.5-5.2-9.9-9.9-9.9V3h-1.5V1.2c-5.3.2-9.8 4.9-9.9 9.9H3v1.5H1.2c.3 5.5 5.2 9.8 9.9 9.9v-1.8h1.5v1.8c5.3-.1 9.9-5 9.9-9.9h-1.8v-1.4c.6-.1 1.2-.1 1.8-.1z" class="st0"/>
  <path d="M7.4 18.1c.2-1.2.4-2.4.7-3.7.2-1.2.4-2.3.6-3.5.1-.5.3-.9.7-1.2 1.8-1.5 3.6-3 5.3-4.6l.3-.3c.3-.2.7-.3 1 0 .2.2.4.6.3.9l-.6 3.6c-.2 1.2-.4 2.3-.6 3.5-.1.5-.3.9-.7 1.2-1.8 1.5-3.6 3.1-5.4 4.6-.1.1-.3.2-.4.3-.6.4-1.3 0-1.2-.8zm5.7-6.2c0-.7-.5-1.2-1.2-1.2s-1.2.5-1.2 1.2.5 1.2 1.2 1.2c.6 0 1.1-.5 1.2-1.2z" class="st0"/>
</svg>