<!-- Generator: Adobe Illustrator 25.2.0, SVG Export Plug-In  -->
<svg version="1.1" xmlns="http://www.w3.org/2000/svg" xmlns:xlink="http://www.w3.org/1999/xlink" x="0px" y="0px" width="256px"
	 height="256px" viewBox="0 0 256 256" style="overflow:visible;enable-background:new 0 0 256 256;" xml:space="preserve">
<style type="text/css">
	.st0{fill:#FF6B31;}
	.st1{fill:#9C52FF;}
</style>
<defs>
</defs>
<rect class="st0" width="256" height="256"/>
<g>
	<path class="st1" d="M0,251.8v4.2h4.3C3.4,254.3,2,252.7,0,251.8z"/>
</g>
<path class="st1" d="M252.1,251.1c-1.7,0-3.1-1.3-3.1-3c0-1.7,1.3-3.1,3-3.1c0.1,0,0.2,0,0.4,0c1.3,0,2.6,0.1,3.7,0.4v-82.7
	c-1-0.8-2.1-1.6-3.3-2.3c-1.5-0.9-1.9-2.8-1.1-4.2c0.9-1.5,2.8-1.9,4.2-1.1c0,0,0.1,0.1,0.1,0.1v-22.4c-1.8-0.8-3.8-1.8-5.7-3.1
	c-8.1-5.6-11.6-13.5-9.9-22.8c0.3-1.7,1.9-2.8,3.6-2.5c1.7,0.3,2.8,1.9,2.5,3.6c-1.7,9.6,4.1,15.1,9.5,18.1V61.2
	c-1.8,1.9-4.3,3.5-7.7,4.5c-0.3,0.1-0.6,0.1-0.8,0.1c-1.3,0-2.6-0.9-3-2.2c-0.5-1.6,0.5-3.3,2.1-3.8c10.6-3,7.5-16.1,7.4-16.6
	c-0.4-1.5,0.5-3.1,1.9-3.6V0h-43.6c-0.4,0.7-0.8,1.3-1.2,2c-0.6,0.9-1.6,1.4-2.6,1.4c-0.6,0-1.2-0.2-1.7-0.5c-1-0.7-1.5-1.8-1.4-2.9
	h-30c0.1,0.4,0.1,0.8,0.1,1.2c-0.2,1.7-1.8,2.9-3.4,2.6c-14-1.8-17,16.7-17.2,17.5c-0.2,1.5-1.5,2.6-3,2.6c-0.2,0-0.3,0-0.5,0
	c-1.7-0.3-2.8-1.8-2.6-3.5c0.9-6.2,4.5-15.9,12.2-20.4h-37.1c3,3.5,5.8,4.5,7.5,4.9c1.6,0.3,2.5,2.2,2.7,3.7
	c0.2,1.2-0.2,2.4-1.4,2.8c-1.9,0.6-5-1.1-6.4-1.7c-4.1-1.9-7.2-5.2-9.6-8.9c-0.2-0.2-0.3-0.5-0.4-0.7H98.6c0.2,0.9,0.4,1.9,0.8,3
	c0.5,1.6-0.4,3.3-2,3.9C97.1,7,96.8,7,96.5,7c-1.3,0-2.5-0.8-2.9-2.1C93,3.1,92.6,1.5,92.4,0H69.2c2.8,10.7,10.3,10.5,11.2,10.4
	c1.7-0.2,3.2,1.1,3.3,2.8c0.2,1.7-1.1,3.2-2.8,3.4c0,0-0.2,0-0.6,0c-2.8,0-14.1-1-17.5-16.6H34.6c3.7,1.9,6.8,0.8,7.3,0.5
	c1.6-0.7,3.4,0,4,1.6c0.7,1.6,0,3.4-1.6,4.1c-0.1,0-2.2,0.9-5.4,0.9c-3.8,0-9-1.3-13.6-7.1H11c0.8,2.3,1.3,4.7,1.3,6.5
	c0.1,1.7-1.2,3.1-2.9,3.2c-0.1,0-0.1,0-0.2,0c-1.6,0-3-1.3-3.1-2.9c0-0.6-0.3-3.9-1.9-6.8H0v39.6c0.1,0,0.2-0.1,0.3-0.1
	C2,39.1,3.6,40.1,4,41.7c1.2,5,1.4,13.8-4,19.5v64.6c3.9,2.2,7.6,3,7.9,3.1c1.7,0.4,2.7,2,2.4,3.6c-0.3,1.4-1.6,2.4-3,2.4
	c-0.2,0-0.4,0-0.6-0.1c-0.2,0-3-0.7-6.6-2.3v22.4c6.2,3.8,10.1,8.7,11.5,14.6c2.4,9.9-3,18.7-3.3,19.1c-0.6,0.9-1.6,1.5-2.6,1.5
	c-0.6,0-1.1-0.1-1.6-0.5c-1.4-0.9-1.9-2.8-1-4.2c0.1-0.1,4.3-7.2,2.5-14.5c-0.8-3.2-2.7-6.1-5.6-8.5v82.7c6,1.4,9.3,6.1,11,10.7
	h14.3c-1.2-1.6-2.4-3.4-3.6-5.7c-0.7-1.5-0.1-3.4,1.4-4.1c1.5-0.7,3.4-0.1,4.1,1.4c2.3,4.8,4.9,7.2,7.3,8.4h28.3
	c-0.2-0.8-0.3-1.6-0.5-2.5c-0.2-1.7,0.9-3.2,2.6-3.5c1.7-0.2,3.2,0.9,3.5,2.6c0.2,1.2,0.4,2.4,0.7,3.4h23.2c-0.7-5.3,0.6-8.8,2-11
	c1-1.6,3.3-1.7,4.4-0.2l0.5,0.7c0.6,0.8,0.7,2,0.2,2.9c-0.8,1.3-1.6,3.7-0.9,7.6h17.7c-0.2-0.3-0.3-0.5-0.5-0.8
	c-0.9-1.5-0.4-3.3,1.1-4.2c1.5-0.9,3.3-0.4,4.2,1.1c0.9,1.6,1.8,2.8,2.7,3.9H161c3.2-1.9,7.1-2.9,11.9-2.3c1.3,0.2,2.3,1.1,2.6,2.3
	h30c0.1-0.5,0.2-0.9,0.5-1.3c5.4-8.4,0.8-12.2,0.3-12.7c-1.4-1-1.7-2.9-0.7-4.3c1-1.4,2.9-1.7,4.3-0.7c3.3,2.3,7.7,9.2,2.5,18.9H256
	v-4.2c-1.1-0.5-2.3-0.7-3.7-0.7C252.2,251.1,252.1,251.1,252.1,251.1z M246.4,140c1.2-1.2,3.1-1.2,4.3,0c1.2,1.2,1.2,3.1,0,4.3
	c-4.6,4.6-9,6.1-12.6,6.1c-3.7,0-6.6-1.5-8.2-3c-1.2-1.1-1.3-3.1-0.2-4.3c1.1-1.2,3.1-1.3,4.3-0.2
	C234.6,143.4,239.4,147.1,246.4,140z M202.1,169.7c-1.1-1.2-1.2-3-0.1-4.2c1.2-1.4,3.3-1.4,4.6,0c7.5,8.2,8.2,15.1,7.6,19.2
	c-0.3,2.1-2.6,3.3-4.5,2.2l-0.1,0c-1.1-0.6-1.7-1.8-1.5-3.1C208.3,181.1,207.9,176.1,202.1,169.7z M208.7,131.3
	c0.2-1.7,1.7-2.9,3.4-2.8c1.7,0.2,2.9,1.7,2.8,3.4c-1.7,17.5,7.1,21.8,7.4,22c1.6,0.7,2.2,2.5,1.6,4c-0.5,1.2-1.6,1.8-2.8,1.8
	c-0.4,0-0.8-0.1-1.2-0.3C219.3,159.3,206.6,153.5,208.7,131.3z M219.3,86.7c-1.7-0.4-2.7-2-2.3-3.7c0.4-1.7,2-2.7,3.7-2.3
	c4.2,0.9,11.6,6,9.4,18.8c-0.3,1.5-1.6,2.5-3,2.5c-0.2,0-0.4,0-0.5,0c-1.7-0.3-2.8-1.9-2.5-3.6C225.7,88.6,219.9,86.8,219.3,86.7z
	 M221.5,120.2c-1.5-0.6-2.4-2.2-2-3.7c0.5-1.8,2.4-2.7,4.1-2.1c9,3.5,12.5,8.6,13.8,12.2c0.8,2.1-0.8,4.3-3,4.1
	c-1.2-0.1-2.3-0.8-2.7-2C230.8,126.6,228.5,122.9,221.5,120.2z M226.7,172.6c5.7-8.3,15.7-4.8,20.3-1.9c1.4,0.9,1.8,2.8,0.9,4.3
	c-0.9,1.4-2.8,1.8-4.2,0.9c-0.3-0.2-8.1-5.2-11.8,0.2c-0.6,0.9-1.6,1.3-2.5,1.3c-0.6,0-1.2-0.2-1.7-0.5
	C226,175.9,225.7,174,226.7,172.6z M244.4,75.8c1.7-0.3,3.3,0.8,3.6,2.5c0.3,1.7-0.8,3.3-2.5,3.6c-1.6,0.3-3.1,0.4-4.5,0.4
	c-9.5,0-13.5-6.1-14.3-9.8c-0.4-1.7,0.7-3.3,2.3-3.7c1.6-0.4,3.3,0.7,3.7,2.3C232.9,71.8,234.6,77.5,244.4,75.8z M241.6,7.6
	c0.8-1.5,2.6-2.1,4.1-1.3c1.5,0.8,2.1,2.6,1.3,4.1c-7.7,14.9-1.4,21.9-1.2,22.2c1.2,1.2,1.2,3.1,0,4.3c-0.6,0.6-1.4,0.9-2.2,0.9
	c-0.8,0-1.6-0.3-2.2-0.9C241.1,36.5,231.8,26.8,241.6,7.6z M236.1,53.2c-0.5,1.6-2.1,2.6-3.8,2.1c-0.5-0.1-12.4-3.2-14.9,5.3
	c-0.4,1.3-1.6,2.2-2.9,2.2c-0.3,0-0.6,0-0.9-0.1c-1.6-0.5-2.6-2.2-2.1-3.8c3.4-11.5,16.2-11.2,22.4-9.5
	C235.6,49.8,236.5,51.5,236.1,53.2z M227.9,8.4c1.5-0.4,3,0.5,3.4,2c0.4,1.5-0.5,3-2,3.4c-0.8,0.2-18.7,5.1-15.3,20.2
	c0.3,1.5-0.6,3-2.1,3.3c-0.2,0-0.4,0.1-0.6,0.1c-1.3,0-2.4-0.9-2.7-2.1C205,18.9,219.6,10.6,227.9,8.4z M204,74.3
	c1.2,1.2,1.3,3.1,0.1,4.3c-6.3,6.7,1.1,14.5,1.9,15.4c1.2,1.2,1.2,3.1,0,4.3c-0.6,0.6-1.4,0.9-2.2,0.9c-0.8,0-1.6-0.3-2.2-0.9
	c-4.4-4.4-10.5-15-2.1-24C200.9,73.2,202.8,73.1,204,74.3z M201.5,50.6c-0.3,0.6-0.8,1-1.4,1.1c-1.7,0.5-4.2-0.6-5.6-1.2
	c-3.8-1.7-6.7-4.9-8.9-8.4c-0.9-1.4-0.5-3.3,0.9-4.2c1.4-0.9,3.3-0.5,4.2,0.9c3,4.8,6,6.3,7.9,6.7C200.6,45.9,202.4,48.8,201.5,50.6
	z M185.7,157.3c-0.3-1.7,0.8-3.3,2.5-3.6c1.7-0.3,3.3,0.8,3.6,2.5c0,0.2,2.7,15.5-17.4,20.1c-0.2,0.1-0.5,0.1-0.7,0.1
	c-1.4,0-2.7-1-3-2.4c-0.4-1.7,0.6-3.3,2.3-3.7C186.9,167.1,185.9,158.3,185.7,157.3z M172.9,115.1c-0.5,1.2-1.6,1.9-2.8,1.9
	c-0.4,0-0.8-0.1-1.2-0.2c-1.6-0.6-2.3-2.4-1.7-4c4.9-12,13.9-12.4,17.9-11c1.6,0.6,2.4,2.3,1.9,3.9c-0.6,1.6-2.3,2.4-3.9,1.9
	C182.5,107.4,176.7,105.8,172.9,115.1z M152.5,218.1c1.3,1,1.6,3,0.6,4.3c-0.6,0.8-1.5,1.2-2.4,1.2c-0.7,0-1.3-0.2-1.9-0.6
	c-7.6-5.8-3.8-15.2-0.8-19.3c1-1.4,2.9-1.7,4.3-0.6c1.4,1,1.7,2.9,0.7,4.3C152.8,207.6,147.8,214.5,152.5,218.1z M151.8,166.9
	c-1.4,0.9-3.3,0.5-4.2-0.9c-0.9-1.4-0.5-3.3,0.9-4.2c0.5-0.3,5.1-3.2,10.4-2c3.3,0.7,6.1,2.8,8.2,6.2c0.9,1.4,0.5,3.3-1,4.2
	c-0.5,0.3-1.1,0.5-1.6,0.5c-1,0-2-0.5-2.6-1.4c-1.2-2-2.7-3.1-4.3-3.5C154.7,165.1,151.8,166.8,151.8,166.9z M162,143.4
	c1.5,0.7,2.2,2.5,1.5,4.1c-0.5,1.1-1.6,1.8-2.8,1.8c-0.4,0-0.9-0.1-1.3-0.3c-5.9-2.7-15.8-10.7-11.1-21.7c0.7-1.6,2.5-2.3,4-1.6
	c1.6,0.7,2.3,2.5,1.6,4C150.5,138,161.5,143.2,162,143.4z M152.9,99.3c0,0-0.1,0.1-0.1,0.1c-5.2,5.3-5.3,13.4-5.3,13.5
	c0,1.7-1.4,3.1-3.1,3.1s-3.1-1.4-3.1-3.1c0-0.4,0-10.7,7.1-17.8c0.1-0.1,0.1-0.1,0.2-0.2c4.4-4.3,10.3-6.5,17.7-6.4
	c1.7,0,3.1,1.4,3,3.1c0,0.8-0.3,1.6-0.9,2.1c-0.6,0.6-1.4,0.9-2.2,0.9C160.5,94.6,156,96.2,152.9,99.3z M176,80.6
	c-3.1,0-5.2-0.8-5.3-0.8c-1.6-0.6-2.3-2.4-1.7-4c0.6-1.6,2.4-2.3,4-1.7c1,0.4,10,3.2,16.2-10.6c0.7-1.5,2.5-2.2,4.1-1.6
	c1.5,0.7,2.2,2.5,1.6,4.1C189.2,78.3,181.2,80.6,176,80.6z M172.1,22.1c0-0.1,4.3-14.7,23.9-10.2c1.7,0.4,2.7,2,2.3,3.7
	c-0.4,1.7-2,2.7-3.7,2.3c-13.9-3.2-16.5,5.5-16.6,5.9c-0.4,1.4-1.6,2.3-3,2.3c-0.3,0-0.5,0-0.8-0.1
	C172.6,25.4,171.6,23.7,172.1,22.1z M163.1,39.2c0.9-1.4,2.8-1.8,4.3-0.9c1.4,0.9,1.8,2.8,0.9,4.3c-3.3,5,3.6,9.9,3.9,10.1
	c1.4,1,1.7,2.9,0.8,4.3c-0.6,0.9-1.6,1.3-2.5,1.3c-0.6,0-1.2-0.2-1.7-0.5C164.4,54.8,157.8,47.2,163.1,39.2z M159.5,68.6
	c1.5,0.7,2.2,2.5,1.5,4.1c-0.7,1.5-2.5,2.2-4.1,1.5c-0.1,0-4-1.7-7.6-0.4c-2.1,0.8-3.7,2.5-4.9,5.2c-0.5,1.1-1.6,1.8-2.8,1.8
	c-0.4,0-0.8-0.1-1.2-0.3c-1.6-0.7-2.2-2.5-1.6-4.1c1.9-4.2,4.7-7.1,8.4-8.5C153.3,65.8,159.3,68.5,159.5,68.6z M38.9,100.7
	c-1.6-1.4-3.4-2-3.4-2c-1.5-0.4-2.5-2.1-2.3-3.7c0.2-1.6,1.6-2.5,3.1-2.1c0.5,0.1,5.3,1.6,8.2,6.2c0.2,0.4,0.5,0.8,0.7,1.1
	c1.3,2.6,1.8,5.6,1.3,8.8c-0.2,1.6-1.6,2.5-3.1,2.1c-1.5-0.4-2.5-2.1-2.3-3.7C41.5,104.6,40.8,102.3,38.9,100.7z M39.8,163.4
	c1.4-0.9,3.3-0.4,4.2,1c0.9,1.4,0.4,3.3-1,4.2c-2.2,1.4-5.8,2.8-9.5,2.8c-3.5,0-7.1-1.3-9.6-5.3c-0.9-1.4-0.5-3.3,0.9-4.2
	c1.4-0.9,3.3-0.5,4.2,0.9C32.3,167.9,39.5,163.6,39.8,163.4z M45.4,124c0.2-0.4,0.4-0.8,0.7-1.1c0.8-0.8,2.1-1.2,3.3-0.7
	c1.6,0.6,2.4,2.4,1.8,3.9c-4.7,12.9,0.9,17.9,1.2,18.1c1.3,1,1.5,3,0.5,4.3c-1.1,1.3-3,1.5-4.3,0.5C48.1,148.7,39,141.3,45.4,124z
	 M50.1,89.6c-6.5,0-12.7-4.2-16-7.5c-1.2-1.2-1.2-3.2,0-4.3c1.2-1.2,3.1-1.2,4.3,0c0.4,0.4,10.2,10.1,17.6,3.1
	c1.2-1.2,3.2-1.1,4.3,0.1c1.2,1.2,1.1,3.2-0.1,4.3C57,88.4,53.5,89.6,50.1,89.6z M39.9,64.6c0.3-1.5,1.9-2.7,3.5-2.6
	c2.9,0.2,5.1-0.7,6.7-2.6c1.3-1.7,1.7-3.5,1.7-3.5c0.3-1.5,1.9-2.7,3.5-2.6c1.6,0.1,2.6,1.4,2.3,2.9c-0.1,0.5-1.2,5.4-5.6,8.6
	c-0.4,0.3-0.7,0.5-1.1,0.7c-2.5,1.5-5.4,2.2-8.7,1.9C40.6,67.4,39.6,66.1,39.9,64.6z M60.2,104.7c-1.1-1.3-0.9-3.2,0.4-4.3
	c1.3-1.1,3.2-0.9,4.3,0.4c2.6,3.1,3.7,6.3,3.4,9.7c-0.5,5.4-4.6,8.9-5.1,9.3c-0.6,0.5-1.3,0.7-1.9,0.7c-0.9,0-1.8-0.4-2.4-1.1
	c-1.1-1.3-0.9-3.2,0.4-4.3c0.1,0,1.6-1.4,2.4-3.3C62.6,109.4,62.1,107.1,60.2,104.7z M57.1,171.1c0.1,0,2.1-1.3,3.7-3.5
	c1.9-2.7,2.4-5.8,1.5-9.4c-0.5-2,0.5-4.4,2.2-5.4c1.7-1,3.5-0.2,4,1.8c1.2,4.7,0.9,9.3-0.8,13.5c-2.7,6.8-8.1,10-8.7,10.4
	c-0.7,0.4-1.5,0.5-2.1,0.3c-0.8-0.3-1.5-1-1.8-2.2C54.4,174.5,55.4,172.1,57.1,171.1z M65,136.6c-1.4-1-1.8-2.9-0.8-4.3
	c1-1.4,2.8-1.8,4.2-0.8c0.5,0.3,10.3,6.4,26.6-6.2c1.3-1,3.3-0.8,4.3,0.6c1,1.3,0.8,3.3-0.6,4.3c-9.4,7.2-17.2,9.2-23,9.2
	C69.2,139.4,65.3,136.8,65,136.6z M85.9,115c0.5,1.6-0.5,3.3-2.1,3.8c-0.3,0.1-0.5,0.1-0.8,0.1c-1.3,0-2.6-0.9-3-2.3
	c-2.5-8.9-2.9-27,13.2-31.8c1.6-0.5,3.3,0.4,3.8,2.1c0.5,1.6-0.4,3.3-2.1,3.8c-6,1.8-9.2,6.1-9.9,13.3C84.4,109.8,85.8,115,85.9,115
	z M83.5,156.4c0.5-0.3,5.1-3.2,10.4-2c3.3,0.7,6.1,2.8,8.2,6.2c0.9,1.4,0.5,3.3-1,4.2c-0.5,0.3-1.1,0.5-1.6,0.5c-1,0-2-0.5-2.6-1.4
	c-1.2-2-2.7-3.1-4.3-3.5c-2.9-0.6-5.7,1.1-5.8,1.1c-1.4,0.9-3.3,0.5-4.2-0.9C81.7,159.2,82.1,157.3,83.5,156.4z M133.9,67.3
	c-0.5,1.1-1.6,1.7-2.8,1.7c-0.5,0-0.9-0.1-1.3-0.3c-1.5-0.7-2.2-2.6-1.4-4.1c4.4-9-0.7-12.2-1.3-12.6c-1.5-0.8-2-2.7-1.2-4.2
	c0.8-1.5,2.7-2,4.2-1.2C133.8,48.6,139.5,55.6,133.9,67.3z M136.6,130c0.6,1.6-0.2,3.4-1.8,3.9c-0.3,0.1-0.7,0.2-1,0.2
	c-1.3,0-2.4-0.8-2.9-2c-4.9-13.5-13.5-11.4-14.5-11.1c-1.6,0.5-3.3-0.4-3.8-2c-0.5-1.6,0.4-3.3,2-3.9
	C114.7,115.1,129.6,110.6,136.6,130z M128.9,92.2c1.6,0.5,2.5,2.2,2,3.8c-0.5,1.6-2.2,2.5-3.8,2c-1.2-0.4-11.6-3.2-14.5,5.5
	c-0.4,1.3-1.6,2.1-2.9,2.1c-0.3,0-0.7-0.1-1-0.2c-1.6-0.5-2.5-2.3-1.9-3.9C110.8,90,123,90.4,128.9,92.2z M112.2,67.3
	c-6,2.7-2.4,11.2-2.3,11.6c0.7,1.6,0,3.4-1.6,4c-0.4,0.2-0.8,0.3-1.2,0.3c-1.2,0-2.3-0.7-2.8-1.9c-2.2-5-3.8-15.4,5.3-19.6
	c1.5-0.7,3.4,0,4.1,1.5C114.4,64.7,113.7,66.6,112.2,67.3z M115.5,171.4c1.7,0,3,1.4,3,3.1c0,1.7-1.4,3.1-3.1,3c-0.2,0-0.4,0-0.6,0
	c-14.6,0-15.8,9.1-15.9,10.2c-0.1,1.6-1.4,2.9-3.1,2.9c-0.1,0-0.1,0-0.2,0c-1.7-0.1-3-1.6-2.9-3.3C92.8,187.2,94,171.1,115.5,171.4z
	 M109.2,146.2c-1,0-1.9-0.1-2.7-0.3c-2-0.4-3-2.7-1.8-4.4l0.2-0.4c0.6-0.9,1.7-1.4,2.8-1.2c1.8,0.3,5.2,0.1,9.9-3.3
	c1.3-0.9,3.1-0.9,4.2,0.3c1.3,1.4,1,3.5-0.4,4.6C116.5,145.2,112.3,146.2,109.2,146.2z M119.5,159.9c0.4-1.6,2.1-2.6,3.7-2.2
	c0.1,0,3.9,1,7-0.8c1.8-1.1,3-2.9,3.6-5.5c0.4-1.6,2.1-2.6,3.7-2.2c1.6,0.4,2.6,2.1,2.2,3.7c-1.1,4.3-3.3,7.4-6.5,9.3
	c-2.6,1.5-5.4,1.9-7.6,1.9c-2.3,0-3.9-0.4-4-0.5C120,163.3,119.1,161.6,119.5,159.9z M113.2,35c0.3-0.3,7.7-7.5,17.7-7.5
	c0.1,0,0.1,0,0.2,0c6.1,0.1,11.8,2.8,17,8.1c1.2,1.2,1.1,3.2-0.1,4.3c-0.6,0.6-1.4,0.9-2.1,0.9c-0.8,0-1.6-0.3-2.2-0.9
	c-3.9-4-8.1-6.1-12.6-6.2c-0.1,0-0.1,0-0.2,0c-7.4,0-13.3,5.7-13.4,5.7c-1.2,1.2-3.2,1.2-4.3,0C112,38.1,112,36.2,113.2,35z
	 M91.5,17.6c1.1-1.3,3-1.5,4.3-0.5c2.4,1.9,4.7,2.4,7,1.4c2-0.9,3.3-2.4,3.3-2.5c1.1-1.3,3-1.5,4.3-0.5c1.3,1.1,1.5,3,0.5,4.3
	c-0.4,0.5-3.8,4.6-9.2,5.2c-0.4,0-0.9,0.1-1.3,0.1c-2.9,0-5.8-1.1-8.5-3.3C90.6,20.9,90.4,18.9,91.5,17.6z M78.5,37.4
	c0.1-1.7,1.5-3,3.2-2.9c1.7,0.1,3,1.5,2.9,3.2c-0.2,3.5,0.6,6.3,2.5,8.3c3.1,3.5,8.4,3.8,8.4,3.8c1.7,0.1,3,1.5,2.9,3.2
	c-0.1,1.6-1.4,2.9-3.1,2.9c0,0-0.1,0-0.1,0c-0.3,0-7.8-0.4-12.7-5.7C79.6,47,78.3,42.6,78.5,37.4z M84.1,67.4
	c1.2,1.2,1.3,3.1,0.2,4.3c-1.1,1.2-3.1,1.3-4.3,0.2c-0.1,0-1.6-1.4-3.6-1.9c-2.5-0.6-4.7,0.2-6.7,2.5c-0.6,0.7-1.4,1-2.3,1
	c-0.7,0-1.5-0.3-2.1-0.8c-1.3-1.1-1.4-3.1-0.2-4.3c2.7-3,5.8-4.6,9.2-4.7C79.6,63.4,83.7,67,84.1,67.4z M68.9,44.4
	c0.2,0.4,0.4,0.8,0.5,1.2c0.2,1.2-0.3,2.4-1.3,3c-1.4,0.9-3.3,0.5-4.3-0.9c-7.5-11.5-14.9-9.9-15.2-9.8c-1.6,0.5-3.3-0.5-3.8-2.2
	c-0.4-1.6,0.5-3.3,2.2-3.8C47.5,31.9,58.8,29,68.9,44.4z M35.8,19c0.2-0.2,5.1-5.9,12.3-6.5c4.4-0.3,8.7,1.2,12.6,4.7
	c1.3,1.1,1.4,3.1,0.3,4.3C60,22.9,58,23,56.7,21.9c-2.7-2.3-5.4-3.4-8.1-3.2C44,19,40.5,23,40.5,23c-0.6,0.7-1.5,1.1-2.3,1.1
	c-0.7,0-1.4-0.2-2-0.7C34.9,22.2,34.7,20.3,35.8,19z M32.2,44c0.4-1.6,2.1-2.6,3.8-2.2c1.6,0.4,2.6,2.1,2.2,3.8
	c-1.2,4.4-3.8,7.2-6.9,8.8c-5,2.6-11.4,2.3-15.3,1.3c-1.6-0.4-2.6-2.1-2.2-3.7c0.4-1.6,2.1-2.6,3.7-2.2C17.9,49.8,29.8,52.6,32.2,44
	z M6.3,22.4C6.5,21,7.7,20,9.1,20.2c6.1,0.9,10.5,3.2,13,7.1c3.5,5.3,2,11.4,1.9,11.6c-0.3,1.1-1.3,1.9-2.4,1.9
	c-0.2,0-0.4,0-0.6-0.1c-1.3-0.4-2.2-1.7-1.8-3.1c0-0.1,1-4.2-1.3-7.6c-1.7-2.5-4.9-4.2-9.5-4.8C7,25,6.1,23.8,6.3,22.4z M6.1,99.3
	c-7.7-12.1,2.6-23.6,9.2-27.9c1.4-0.9,3.3-0.6,4.3,0.9c0.9,1.4,0.6,3.3-0.9,4.3c-0.6,0.4-13.8,9.4-7.4,19.5c0.9,1.4,0.5,3.3-0.9,4.2
	c-0.5,0.3-1.1,0.5-1.6,0.5C7.6,100.7,6.6,100.2,6.1,99.3z M10.3,117.2c-1.6-0.4-2.6-2.1-2.2-3.7c2.4-9.3,12.5-9.5,17.5-8.3
	c1.7,0.4,2.7,2.1,2.3,3.7c-0.4,1.6-2,2.7-3.7,2.3c-0.4-0.1-8.6-1.9-10.1,3.8c-0.4,1.4-1.6,2.3-3,2.3
	C10.8,117.3,10.6,117.2,10.3,117.2z M11,151c-0.6-1.6,0.2-3.4,1.8-3.9c4.7-1.7,7.9-4.4,9.5-7.9c2.8-6.1,0.3-13,0.3-13.1
	c-0.6-1.6,0.2-3.4,1.8-4c1.6-0.6,3.3,0.2,4,1.8c0.1,0.4,3.5,9.3-0.4,17.7c-2.3,5.1-6.7,8.9-13.1,11.2c-0.3,0.1-0.7,0.2-1.1,0.2
	C12.6,153,11.5,152.2,11,151z M26.2,215.1c-0.2,9.9-5,17-13.7,20.7c-0.4,0.2-0.8,0.2-1.2,0.2c-1.2,0-2.3-0.7-2.8-1.9
	c-0.7-1.6,0.1-3.4,1.6-4c15.5-6.5,8.5-25.4,8.2-26.2c-0.6-1.6,0.2-3.4,1.8-4c1.6-0.6,3.4,0.2,4,1.8C24.1,202,26.4,208,26.2,215.1z
	 M28.3,189.8c-1.7,0.1-3.2-1.2-3.3-2.9c-0.1-1.7,1.2-3.2,2.9-3.3c0.2,0,17.6-0.9,20.1,22.3c0.2,1.7-1,3.2-2.7,3.4
	c-0.1,0-0.2,0-0.3,0c-1.6,0-2.9-1.2-3.1-2.7C40,189.3,28.7,189.8,28.3,189.8z M44.6,244.5c0.1,1.7-1.2,3.2-2.8,3.3
	c-0.1,0-0.2,0-0.2,0c-1.6,0-2.9-1.2-3.1-2.9c-0.9-11.8,4.4-21.2,15.3-27.1c7.9-4.3,15.9-5.1,16.3-5.2c1.7-0.2,3.2,1,3.4,2.7
	c0.2,1.7-1,3.2-2.7,3.4C69.6,218.9,43,222,44.6,244.5z M82.1,229.5c-0.3,0.3-7.1,6.5-2.9,11.5c1.1,1.3,0.9,3.2-0.3,4.3
	c-0.6,0.5-1.3,0.7-2,0.7c-0.9,0-1.7-0.4-2.3-1.1c-6.5-7.7-0.6-16.5,3.5-20c1.3-1.1,3.2-1,4.3,0.3C83.5,226.5,83.4,228.4,82.1,229.5z
	 M68.1,203.6c-0.3,0.1-0.6,0.1-0.9,0.1c-1.3,0-2.5-0.8-2.9-2.1c-0.5-1.6,0.4-3.3,2-3.9c15.1-4.8,10.1-23.2,9.9-23.9
	c-0.5-1.6,0.5-3.3,2.1-3.8c1.6-0.5,3.3,0.5,3.8,2.1C84.4,180.7,84.7,198.2,68.1,203.6z M90.4,215.5c-1.7,0-3.4-0.4-5.3-1.2
	c-1.5-0.7-2.2-2.5-1.5-4.1c0.7-1.5,2.5-2.2,4.1-1.5c6.6,3,10.9-6,11.1-6.4c0.7-1.5,2.6-2.2,4.1-1.4s2.2,2.6,1.4,4.1
	C102.4,209.2,97.3,215.5,90.4,215.5z M117.5,242.8c-0.8,0.1-1.6,0.1-2.4,0.1c-13.7,0-19.3-13.3-20.3-20.7c-0.2-1.7,0.9-3.2,2.6-3.5
	c1.7-0.2,3.2,0.9,3.5,2.6c0.1,0.7,2.6,16.8,16,15.3c1.7-0.2,3.2,1,3.4,2.7C120.5,241.1,119.2,242.6,117.5,242.8z M127.9,213.2
	c-1.2,0.2-2.3-0.3-3-1.2c-1.1-1.5-3.6-3.7-9.2-4.6c-1.6-0.2-2.8-1.6-2.8-3.2c0.1-1.9,1.7-3.2,3.5-2.9c7.7,1.1,11.6,4.4,13.5,7.2
	C131.1,210.3,130.1,212.8,127.9,213.2z M130.4,184.5l-0.2-1c-0.4-1.7,0.9-3.3,2.7-3.1c4,0.3,11,2.5,17.2,12.6
	c0.8,1.4,0.6,3.2-0.7,4.1c-0.6,0.4-1.2,0.6-1.8,0.6c-1,0-2-0.5-2.6-1.5c-4.8-7.9-9.7-9.5-12.3-9.8
	C131.6,186.4,130.7,185.6,130.4,184.5z M164.8,241.7c-4.1,3.1-8.3,4.4-12.3,4.4c-8.9,0-16.6-6.2-20.4-10.8c-1.1-1.3-0.9-3.3,0.5-4.3
	c1.3-1.1,3.2-0.9,4.3,0.5c0.5,0.6,12.1,14.6,24.2,5.4c1.4-1,3.3-0.8,4.3,0.6C166.4,238.8,166.1,240.7,164.8,241.7z M174.1,199.5
	c-0.6,0.9-1.6,1.3-2.5,1.3c-0.6,0-1.2-0.2-1.7-0.5c-4.2-2.9-10.8-10.5-5.6-18.5c0.9-1.4,2.8-1.8,4.3-0.9c1.4,0.9,1.8,2.8,0.9,4.3
	c-3.3,5,3.6,9.9,3.9,10.1C174.7,196.2,175.1,198.1,174.1,199.5z M188.7,250.9c-0.3,1.4-1.6,2.3-3,2.3c-0.2,0-0.5,0-0.7-0.1
	c-1.6-0.4-2.6-2.1-2.2-3.7c3.2-12.9-2.6-17.7-2.7-17.7c-1.4-1-1.7-2.9-0.7-4.3c1-1.4,2.9-1.7,4.3-0.7
	C184.1,227.1,193,233.9,188.7,250.9z M180.5,216.6c-0.5,0.2-0.9,0.4-0.9,0.4c-1.6,0.5-3.4-0.3-3.9-1.9c-0.5-1.6,0.3-3.3,1.9-3.9
	c0.5-0.2,11.7-4.6,11.4-26c0-1.7,1.3-3.1,3-3.1c1.7,0,3.1,1.3,3.1,3C195.4,207.9,183.9,215,180.5,216.6z M196.1,145.7
	c-0.2,1.5-1.5,2.6-3,2.6c-0.2,0-0.3,0-0.5,0c-14.2-2.3-16.9-11.8-16.3-16.5c0.2-1.7,1.7-2.9,3.4-2.7c1.7,0.2,2.9,1.7,2.7,3.4
	c-0.1,0.8-0.3,8,11.2,9.8C195.3,142.4,196.4,144,196.1,145.7z M197.4,130.1c-0.2,0-0.4,0.1-0.6,0.1c-1.4,0-2.7-1-3-2.5
	c0-0.3-1.2-6.4,2.3-11.5c2.1-3.1,5.4-5,9.8-5.8c1.7-0.3,3.3,0.8,3.6,2.5c0.3,1.7-0.8,3.3-2.5,3.6c-2.7,0.5-4.6,1.5-5.8,3.2
	c-2,2.9-1.4,6.9-1.3,6.9C200.2,128.1,199.1,129.7,197.4,130.1z M221.3,219.6c-0.6,1.6-2.4,2.4-4,1.8c-9.3-3.5-12.1,1.8-12.4,2.4
	c-0.5,1.2-1.6,1.9-2.8,1.9c-0.4,0-0.8-0.1-1.2-0.2c-1.6-0.7-2.3-2.5-1.6-4.1c1.7-4,8.1-10.3,20.2-5.7
	C221.1,216.2,221.9,218,221.3,219.6z M226.6,208.4c0.2-0.5,3.8-12.4-5.7-15.9c-1.6-0.6-2.4-2.3-1.8-3.9c0.6-1.6,2.3-2.4,3.9-1.8
	c12.1,4.4,11.5,17.3,9.5,23.5c-0.4,1.3-1.6,2.1-2.9,2.1c-0.3,0-0.6,0-1-0.2C226.9,211.7,226,210,226.6,208.4z M246.7,227.3
	c-0.6,0.3-15.4,7.2-10.2,19.6c0.6,1.6-0.1,3.4-1.7,4c-0.4,0.2-0.8,0.2-1.2,0.2c-1.2,0-2.4-0.7-2.8-1.9c-5.9-14.4,6.1-24.3,13.4-27.6
	c1.5-0.7,3.4,0,4.1,1.5C248.9,224.8,248.2,226.6,246.7,227.3z M246.4,200.2c-1.7-1.3-3.7-1.7-3.7-1.7c-1.7-0.3-2.8-1.9-2.4-3.6
	c0.3-1.7,1.9-2.8,3.6-2.5c0.6,0.1,5.9,1.2,9,5.7c1.9,2.8,2.5,6.2,1.8,10.2c-0.3,1.5-1.6,2.5-3,2.5c-0.2,0-0.4,0-0.6-0.1
	c-1.7-0.3-2.8-1.9-2.4-3.6C249.1,204,248.4,201.8,246.4,200.2z"/>
</svg>
