<svg xmlns="http://www.w3.org/2000/svg" width="128.5" height="128.5" style="overflow:visible;enable-background:new 0 0 128.5 128.5" viewBox="0 0 128.5 128.5">
  <circle cx="64.2" cy="64.2" r="60.2" style="fill:#FFFFFF"/>
  <path d="M64.2 128.5C28.8 128.5 0 99.7 0 64.2S28.8 0 64.2 0s64.2 28.8 64.2 64.2-28.7 64.3-64.2 64.3zM64.2 8C33.2 8 8 33.2 8 64.2s25.2 56.2 56.2 56.2 56.2-25.2 56.2-56.2S95.3 8 64.2 8z"/>
  <g>
    <path d="M71 65.8l18-18c1.8-1.8 1.8-4.8 0-6.7-1.8-1.8-4.8-1.8-6.7 0l-18 18-18-18c-1.8-1.8-4.8-1.8-6.7 0-1.8 1.8-1.8 4.8 0 6.7l18 18-18 18c-1.8 1.8-1.8 4.8 0 6.7s4.8 1.8 6.7 0l18-18 18 18c1.8 1.8 4.8 1.8 6.7 0 1.8-1.8 1.8-4.8 0-6.7l-18-18z"/>
  </g>
</svg>