<svg xmlns="http://www.w3.org/2000/svg" width="128.5" height="128.5" style="overflow:visible;enable-background:new 0 0 128.5 128.5" viewBox="0 0 128.5 128.5">
  <circle cx="64.2" cy="64.2" r="60.2" style="fill:#FFFFFF"/>
  <path d="M64.2 128.5C28.8 128.5 0 99.7 0 64.2S28.8 0 64.2 0s64.2 28.8 64.2 64.2-28.7 64.3-64.2 64.3zM64.2 8C33.2 8 8 33.2 8 64.2s25.2 56.2 56.2 56.2 56.2-25.2 56.2-56.2S95.3 8 64.2 8z"/>
  <g>
    <path d="M94.4 46.4H34.1c-2.6 0-4.7-2.1-4.7-4.7s2.1-4.7 4.7-4.7h60.3c2.6 0 4.7 2.1 4.7 4.7s-2.1 4.7-4.7 4.7zM94.4 91.6H34.1c-2.6 0-4.7-2.1-4.7-4.7s2.1-4.7 4.7-4.7h60.3c2.6 0 4.7 2.1 4.7 4.7 0 2.5-2.1 4.7-4.7 4.7zM94.4 69H34.1c-2.6 0-4.7-2.1-4.7-4.7s2.1-4.7 4.7-4.7h60.3c2.6 0 4.7 2.1 4.7 4.7 0 2.5-2.1 4.7-4.7 4.7z"/>
  </g>
</svg>