<svg xmlns="http://www.w3.org/2000/svg" width="120.5" height="120.5" style="overflow:visible;enable-background:new 0 0 120.5 120.5" viewBox="0 0 120.5 120.5">
  <circle cx="60.2" cy="60.2" r="60.2" style="fill:#FFFFFF"/>
  <path d="M90.4 42.4H30.1c-2.6 0-4.7-2.1-4.7-4.7s2.1-4.7 4.7-4.7h60.3c2.6 0 4.7 2.1 4.7 4.7s-2.1 4.7-4.7 4.7zM90.4 87.6H30.1c-2.6 0-4.7-2.1-4.7-4.7s2.1-4.7 4.7-4.7h60.3c2.6 0 4.7 2.1 4.7 4.7 0 2.5-2.1 4.7-4.7 4.7zM90.4 65H30.1c-2.6 0-4.7-2.1-4.7-4.7s2.1-4.7 4.7-4.7h60.3c2.6 0 4.7 2.1 4.7 4.7 0 2.5-2.1 4.7-4.7 4.7z"/>
</svg>