<svg xmlns="http://www.w3.org/2000/svg" width="16.4" height="20" style="overflow:visible;enable-background:new 0 0 16.4 20" viewBox="0 0 16.4 20" xml:space="preserve">
  <style>
    .st0{fill:#88888C}
  </style>
  <path d="M13.6 8.6v4c0 1 .5 1.5 1.5 1.7.4.1.7.4.7.8s-.3.7-.8.7H.8c-.5-.1-.8-.4-.8-.8s.3-.7.7-.8c1-.1 1.4-.6 1.4-1.6v-4c0-2.4 1.1-4.2 3.3-5.2.2-.1.3-.2.3-.4V2c0-1.1 1-2 2.2-2C9 0 10 .9 10 2c0 .8.1 1.5 1 1.7.1 0 .2.1.3.2-1.4 2.1-.1 4.7 2.3 4.7z" class="st0"/>
  <path d="M13.6 8.6C11.2 8.6 9.9 6 11.3 4c1.2-1.4 3-1.4 4.1-.5.9.7 1.3 2 .9 3.1s-1.4 1.9-2.6 2h-.1z" style="fill:#FF284D"/>
  <path d="M5 17.1h5.7c0 1-.4 1.7-1.2 2.3-.9.7-2.2.7-3.2.1C5.5 19 5 18.2 5 17.1z" class="st0"/>
</svg>