<svg xmlns="http://www.w3.org/2000/svg" width="51" height="51" style="overflow:visible;enable-background:new 0 0 51 51" viewBox="0 0 51 51">
  <circle cx="25.5" cy="25.5" r="25" style="fill:#FFE401"/>
  <path d="M25.5 51C11.4 51 0 39.6 0 25.5S11.4 0 25.5 0 51 11.4 51 25.5 39.6 51 25.5 51zm0-50C12 1 1 12 1 25.5S12 50 25.5 50 50 39 50 25.5 39 1 25.5 1z"/>
  <g>
    <path d="M16.97 13.3c-4.5 0-8.1 3.6-8.1 8.1s3.6 8.1 8.1 8.1v8.1l4.9-9.7 3.2-6.5c0-4.4-3.6-8.1-8.1-8.1z"/>
    <path d="M16.97 37.8v-8.2c-4.5 0-8.1-3.7-8.1-8.2 0-4.5 3.7-8.2 8.2-8.2s8.2 3.7 8.2 8.2l-8.3 16.4zm0-24.4c-4.5 0-8.1 3.6-8.1 8.1s3.6 8.1 8.1 8.1v8l8-16.1c.1-4.5-3.5-8.1-8-8.1z"/>
    <g>
      <path d="M33.97 13.3c-4.5 0-8.1 3.6-8.1 8.1s3.6 8.1 8.1 8.1v8.1l4.9-9.7 3.2-6.5c.1-4.4-3.6-8.1-8.1-8.1z"/>
      <path d="M33.97 37.8v-8.2c-4.5 0-8.1-3.7-8.1-8.2 0-4.5 3.7-8.2 8.2-8.2 4.5 0 8.2 3.7 8.2 8.2l-8.3 16.4zm0-24.5c-4.5 0-8.1 3.7-8.1 8.1s3.6 8.1 8.1 8.1v8l8-16.1c.1-4.4-3.5-8-8-8.1z"/>
    </g>
  </g>
</svg>