<svg xmlns="http://www.w3.org/2000/svg" width="37" height="36" style="overflow:visible;enable-background:new 0 0 37 36" viewBox="0 0 37 36">
  <style>
    .st2{fill:#F538D6}.st3{fill:#FEFEFE}.st4{fill:#050606}
  </style>
  <path style="fill:none" d="M0 0h37v36H0z"/>
  <path d="M32.1 20.4v9.7c0 .6-.2 1.2-.6 1.6-.4.4-.8.5-1.3.6H6.6c-1 0-1.8-.5-2-1.4-.1-.2-.1-.5-.1-.7v-9.7c0-.1.1-.2.1-.3V9.8c0-.1-.1-.2-.1-.3V8.4c.1-1 .8-1.7 1.8-1.8H30c1.1 0 1.8.6 2 1.4 0 .4 0 .7.1 1.1v11c-.1.1-.1.2 0 .3zm-5 7.8c1.2-.3 1.9-1.1 2-2.3.1-1.2-.8-2.3-2-2.5-.1 0-.2-.1-.3-.1h-17c-.1 0-.2 0-.3.1h-.1c-1.1.3-1.9 1.3-1.9 2.4 0 1.2.8 2.1 2 2.4h17.6zM16.3 14.9c0-2.5-2-4.4-4.5-4.4-2.4 0-4.4 2-4.4 4.4 0 2.4 2 4.5 4.5 4.5 2.4 0 4.4-2 4.4-4.5zm3.9 0c0 2.5 2 4.5 4.4 4.5 2.4 0 4.5-2 4.5-4.4 0-2.4-2-4.4-4.4-4.4-2.5-.1-4.5 1.9-4.5 4.3z" style="fill:#1DCEFE"/>
  <path d="M30 6.5H6.5c-.3-1.4.8-2.9 2.3-2.9h18.8c1.6 0 2.7 1.5 2.4 2.9zM4.4 9.5c0 .1.1.2.1.3v10.4c0 .1-.1.2-.1.3h-.9c-.6 0-1-.4-1-1v-1C1.2 17.9.7 16.9.6 15.6c-.1-1.1.1-2.2.8-3.1.2-.3.6-.5 1-.7.1-.1.2-.2.2-.3v-.8c0-.6.4-1 1-1 .3-.2.6-.2.8-.2zM32.1 20.4v-.3V9.8v-.3h.9c.6 0 1 .4 1 1v.8c0 .1.1.2.1.2 1 .4 1.4 1.2 1.7 2.1.3 1.2.2 2.4-.4 3.5-.3.5-.7.8-1.2 1.1-.1 0-.1.2-.2.3v1c-.1.5-.5.8-.9.8-.4.1-.7.1-1 .1z" class="st2"/>
  <path d="M16.3 14.9c0 2.5-2 4.4-4.4 4.5-2.5 0-4.5-2-4.5-4.5 0-2.4 2-4.4 4.4-4.4 2.5 0 4.5 1.9 4.5 4.4zm-3 0v-2.4c0-.6-.4-1-1-1h-1c-.6 0-1 .4-1 1v5c0 .5.4.9 1 .9h1c.6 0 1-.4 1-1v-2.5zM20.2 14.9c0-2.5 2-4.4 4.4-4.4 2.5 0 4.4 2 4.4 4.4 0 2.4-2 4.5-4.5 4.4-2.3.1-4.3-1.9-4.3-4.4zm5.9.1v-2.5c0-.6-.4-1-1-1h-1c-.6 0-1 .4-1 1v5c0 .5.4.9.9 1h.9c.7 0 1.1-.4 1.1-1.1.1-.9.1-1.7.1-2.4zM17.3 28.2h-3v-.3-4.7h2.9v4.7c0 .2.1.2.1.3zM22.2 28.2h-3v-.3-4.7h2.9v4.7c.1.2.1.2.1.3zM12.4 28.2h-3v-4.8c.1 0 .2-.1.3-.1h2.6V28c0 .1.1.1.1.2zM24.2 23.3h2.6c.1 0 .2 0 .3.1v4.8h-3v-.3c.1-1.5.1-3 .1-4.6z" class="st3"/>
  <path d="M12.4 28.2v-.3-4.7h2v5h-2zM19.3 23.3v5h-1.9V28v-4.7h1.9zM24.2 23.3v5h-1.9V28v-4.7h1.9zM27.1 28.2v-4.8c1.2.2 2.1 1.3 2 2.5-.1 1.2-.8 2-2 2.3zM9.4 23.3v4.8c-1.2-.3-2-1.2-2-2.4s.8-2.1 1.9-2.4c0 .1.1.1.1 0z" class="st4"/>
  <path d="M13.3 14.9v2.4c0 .6-.4 1-1 1h-1c-.6 0-1-.4-1-.9v-5c0-.5.4-.9 1-1h1c.6 0 1 .4 1 1v2.5zM26.1 15v2.4c0 .7-.4 1.1-1.1 1.1h-.9c-.5 0-.9-.4-.9-1v-5c0-.5.4-.9 1-1h1c.6 0 1 .4 1 1-.1.8-.1 1.6-.1 2.5z" class="st2"/>
</svg>