<svg xmlns="http://www.w3.org/2000/svg" xmlns:xlink="http://www.w3.org/1999/xlink" width="55.2" height="44.5" style="overflow:visible;enable-background:new 0 0 55.2 44.5" viewBox="0 0 55.2 44.5">
  <style>
    .st0{fill:#F638D7}.st5{clip-path:url(#SVGID_4_)}
  </style>
  <g id="Group_18235_2_" transform="translate(-2748.796 -1629.273)">
    <path id="Path_25936_1_" d="M2756.5 1646.9c0 3-1.7 5.4-3.8 5.4s-3.8-2.4-3.8-5.4 1.7-5.4 3.8-5.4 3.8 2.4 3.8 5.4m47.5 0c0 3-1.7 5.4-3.8 5.4s-3.8-2.4-3.8-5.4 1.7-5.4 3.8-5.4 3.8 2.4 3.8 5.4" class="st0"/>
    <path id="Path_25937_1_" d="M2759.5 1653.8c0 .8-.7 1.5-1.5 1.5h-4.6c-.8 0-1.5-.7-1.5-1.5V1640c0-.8.7-1.5 1.5-1.5h4.6c.8 0 1.5.7 1.5 1.5v13.8zm41.4 0c0 .8-.7 1.5-1.5 1.5h-4.6c-.8 0-1.5-.7-1.5-1.5V1640c0-.8.7-1.5 1.5-1.5h4.6c.8 0 1.5.7 1.5 1.5v13.8z" class="st0"/>
    <path id="Path_25938_1_" d="M2794.8 1633.1c0 2.1-1.7 2.3-3.8 2.3h-29.1c-2.1 0-3.8-.2-3.8-2.3 0-2.1 1.7-3.8 3.8-3.8h29.1c2.1 0 3.8 1.7 3.8 3.8" class="st0"/>
    <path id="Path_25939_2_" d="M2797.9 1670.7c0 1.7-1.4 3.1-3.1 3.1H2758c-1.7 0-3.1-1.4-3.1-3.1V1637c0-1.7 1.4-3.1 3.1-3.1h36.8c1.7 0 3.1 1.4 3.1 3.1v33.7z" style="fill:#1DCFFF"/>
    <path id="Path_25940_2_" d="M2793.3 1646.9c0 3.8-3.1 6.9-6.9 6.9-3.8 0-6.9-3.1-6.9-6.9 0-3.8 3.1-6.9 6.9-6.9 3.8 0 6.9 3.1 6.9 6.9m-20 0c0 3.8-3.1 6.9-6.9 6.9-3.8 0-6.9-3.1-6.9-6.9 0-3.8 3.1-6.9 6.9-6.9 3.8 0 6.9 3.1 6.9 6.9" style="fill:#FFFFFF"/>
    <path id="Path_25941_2_" d="M2768.7 1650.7c0 .8-.7 1.5-1.5 1.5h-1.5c-.8 0-1.5-.7-1.5-1.5v-7.7c0-.8.7-1.5 1.5-1.5h1.5c.8 0 1.5.7 1.5 1.5v7.7zm20 0c0 .8-.7 1.5-1.5 1.5h-1.5c-.8 0-1.5-.7-1.5-1.5v-7.7c0-.8.7-1.5 1.5-1.5h1.5c.8 0 1.5.7 1.5 1.5v7.7z" class="st0"/>
    <path id="Path_25942_2_" d="M2793.3 1663.8c0 2.1-1.7 3.8-3.8 3.8h-26.1c-2.1 0-3.8-1.7-3.8-3.9 0-2.1 1.7-3.8 3.8-3.8h26.1c2.1 0 3.8 1.8 3.8 3.9" style="fill:#F5F8FA"/>
    <path id="Path_25943_2_" d="M2785.6 1667.6h-3.1v-7.7h3.1v7.7zm-15.3 0h-3.1v-7.7h3.1v7.7zm7.6 0h-3.1v-7.7h3.1v7.7z"/>
    <g id="Group_18234_2_">
      <defs>
        <path id="SVGID_1_" d="M2763.4 1660c-2.1 0-3.8 1.7-3.8 3.8 0 2.1 1.7 3.8 3.8 3.8h26.1c2.1 0 3.8-1.7 3.8-3.8s-1.7-3.8-3.8-3.8h-26.1z"/>
      </defs>
      <clipPath id="SVGID_2_">
        <use style="overflow:visible" xlink:href="#SVGID_1_"/>
      </clipPath>
      <g id="Group_18233_2_" style="clip-path:url(#SVGID_2_)">
        <path id="Path_25944_2_" d="M2793.3 1667.6h-3.1v-7.7h3.1v7.7zm-30.7 0h-3.1v-7.7h3.1v7.7z"/>
      </g>
    </g>
  </g>
</svg>