<svg xmlns="http://www.w3.org/2000/svg" width="222.1" height="107.5" style="overflow:visible;enable-background:new 0 0 222.1 107.5" viewBox="0 0 222.1 107.5" xml:space="preserve">
  <style>
    .st0{fill:#1D1D1B}.st1{fill:#FFFFFF}
  </style>
  <path id="Path_1413_1_" d="M53.8 0C24.1 0 0 24.1 0 53.8s24.1 53.8 53.8 53.8 53.8-24.1 53.8-53.8C107.5 24.1 83.5 0 53.8 0" class="st0"/>
  <path id="Path_1415_1_" d="M114.6 107.5h107.5V0H114.6v107.5z" class="st0"/>
  <path d="M173.9 62.5h-6.1V43.2h-3.9v22.7h10zM161.9 62.5h-6.2V43.2h-3.9v22.7h10.1zM187 62.5h-7v-6.7h5.1v-3.4H180v-5.8h6.6v-3.4h-10.5v22.7H187zM206.6 65.9h3.9v-9.4l4.8-13.3h-4l-2.6 8.6h-.1l-2.7-8.6h-4l4.7 13.3zM193.2 56.6c.7 0 1.3 0 2-.1l2.8 9.4h4l-3.3-10.3c1.3-.6 2.7-2.1 2.7-5.7 0-4.9-2.2-6.7-6.6-6.7h-5.5v22.7h3.9v-9.3zm0-10.2h1.4c2.1 0 2.9.8 2.9 3.5s-.8 3.5-2.9 3.5h-1.4v-7zM140.9 60.9h4.3l.7 5h3.8l-4.2-22.7h-4.9l-4.2 22.7h3.8l.7-5zm2.1-13.2 1.6 9.8h-3.1l1.5-9.8zM127.7 66.2c1.6.1 3.1-.7 3.9-2l.7 1.7h1.9V54.4h-6.4v3.1h2.5v2.2c0 2.3-.6 3.1-2.1 3.1-1.4 0-1.8-.9-1.8-2.4V48.7c0-1.9.8-2.5 1.7-2.5 1.5 0 2.2.9 2.2 4.3h3.7v-1.4c0-3.4-1.9-6.2-5.9-6.2-3.8 0-5.7 2.6-5.7 5.8v11.7c.1 3.6 2.2 5.8 5.3 5.8zM17 61.1c-.1 1.1-1.2 1.9-2.3 1.7-1.3 0-2.2-1.1-2.3-3.4l-3.7.5c.2 3.4 2.2 6.3 5.9 6.3 3.6 0 6.2-2.1 6.2-5.8 0-6.2-7.9-8-7.9-11.9 0-1.4.7-2.2 1.9-2.2.9 0 1.9.6 2.1 2.5l3.7-.4c-.3-3.2-2.2-5.5-5.4-5.5-3.8 0-6 2-6 5.7 0 6.5 7.9 7.7 7.9 12.2-.1.1-.1.2-.1.3zM29.1 66.2c3.9 0 5.8-2.6 5.8-5.8v-2.6H31v2.7c0 1.5-.5 2.3-1.9 2.3-1.6 0-2.1-.8-2.1-2.5V48.8c0-1.7.5-2.5 2.1-2.5 1 0 1.9.8 1.9 2.7v1.8h3.9v-1.7c0-3.4-1.9-6.2-5.8-6.2-4.1 0-6 2.6-6 5.8v11.7c0 3.2 1.9 5.8 6 5.8zM62 51.7h.1l5 14.2h3.4V43.2h-3.6v13l-4.8-13h-3.6v22.7H62zM56.2 62.5h-7v-6.7h5v-3.4h-5v-5.8h6.5v-3.4H45.3v22.7h10.9zM79.4 66.2c3.9 0 5.8-2.6 5.8-5.8v-2.6h-3.9v2.7c0 1.5-.5 2.3-1.9 2.3-1.6 0-2.1-.8-2.1-2.5V48.8c0-1.7.5-2.5 2.1-2.5 1 0 1.9.8 1.9 2.7v1.8h3.9v-1.7c0-3.4-1.9-6.2-5.8-6.2-4.1 0-6 2.6-6 5.8v11.7c0 3.2 1.9 5.8 6 5.8zM98.8 62.5h-7v-6.7h5v-3.4h-5v-5.8h6.6v-3.4H87.9v22.7h10.9zM37.9 43.2h3.9v22.7h-3.9z" class="st1"/>
</svg>