<?xml version="1.0" encoding="utf-8"?>
<!-- Generator: Adobe Illustrator 25.4.1, SVG Export Plug-In . SVG Version: 6.00 Build 0)  -->
<svg version="1.1" id="Layer_1" xmlns="http://www.w3.org/2000/svg" xmlns:xlink="http://www.w3.org/1999/xlink" x="0px" y="0px"
	 viewBox="0 0 251.8 41.7" style="enable-background:new 0 0 251.8 41.7;" xml:space="preserve">
<style type="text/css">
	.st0{fill:#1D1D1B;}
	.st1{fill:#001200;}
</style>
<g>
	<g>
		<g>
			<path class="st0" d="M20.7,0C9.3,0,0,9.3,0,20.7c0,11.4,9.3,20.7,20.7,20.7c11.4,0,20.7-9.3,20.7-20.7C41.4,9.3,32.1,0,20.7,0
				 M5.6,25.5c-1.4,0-2.2-1.1-2.3-2.4l1.4-0.2c0.1,0.9,0.4,1.3,0.9,1.3c0.4,0.1,0.8-0.2,0.9-0.7c0,0,0-0.1,0-0.1
				c0-1.7-3.1-2.2-3.1-4.7c0-1.4,0.8-2.2,2.3-2.2c1.2,0,2,0.9,2.1,2.1l-1.4,0.2c-0.1-0.8-0.5-1-0.8-1c-0.5,0-0.8,0.3-0.8,0.9
				c0,1.5,3.1,2.2,3.1,4.6C8,24.7,7,25.5,5.6,25.5 M13.4,19.6h-1.5v-0.7c0-0.7-0.3-1.1-0.7-1.1c-0.6,0-0.8,0.3-0.8,1v4.4
				c0,0.7,0.2,1,0.8,1c0.5,0,0.7-0.3,0.7-0.9v-1.1h1.5v1c0,1.2-0.7,2.2-2.2,2.2c-1.6,0-2.3-1-2.3-2.2v-4.5c0-1.2,0.7-2.2,2.3-2.2
				c1.5,0,2.2,1.1,2.2,2.4V19.6z M16.1,25.4h-1.5v-8.8h1.5V25.4z M21.6,25.4h-4.2v-8.8h4v1.3H19v2.3h1.9v1.3H19v2.6h2.7V25.4z
				 M27.1,25.4h-1.3l-1.9-5.5h0v5.5h-1.4v-8.8h1.4l1.8,5h0v-5h1.4V25.4z M32.8,19.6h-1.5v-0.7c0-0.7-0.3-1.1-0.7-1.1
				c-0.6,0-0.8,0.3-0.8,1v4.4c0,0.7,0.2,1,0.8,1c0.5,0,0.7-0.3,0.7-0.9v-1.1h1.5v1c0,1.2-0.7,2.2-2.2,2.2c-1.6,0-2.3-1-2.3-2.2v-4.5
				c0-1.2,0.7-2.2,2.3-2.2c1.5,0,2.2,1.1,2.2,2.4V19.6z M37.3,20.2v1.3h-1.9v2.6h2.7v1.3h-4.2v-8.8h4v1.3h-2.5v2.3H37.3z"/>
			<path class="st0" d="M75,17.9h-0.5v2.7H75c0.8,0,1.1-0.3,1.1-1.3C76.1,18.2,75.8,17.9,75,17.9"/>
			<path class="st0" d="M44.1,41.4h41.4V0L44.1,0V41.4z M51.7,25.4H51l-0.3-0.7c-0.3,0.5-0.9,0.8-1.5,0.8c-1.2,0-2-0.8-2-2.2v-4.5
				c0-1.2,0.7-2.2,2.2-2.2c1.5,0,2.3,1.1,2.3,2.4v0.6h-1.4c0-1.3-0.3-1.6-0.9-1.6c-0.4,0-0.7,0.2-0.7,1v4.5c0,0.6,0.2,0.9,0.7,0.9
				c0.6,0,0.8-0.3,0.8-1.2v-0.8h-1v-1.2h2.5V25.4z M56.2,25.4l-0.3-1.9h-1.6L54,25.4h-1.5l1.6-8.8H56l1.6,8.8H56.2z M62.4,25.4h-3.9
				v-8.8H60v7.4h2.4V25.4z M67,25.4h-3.9v-8.8h1.5v7.4H67V25.4z M72,25.4h-4.2v-8.8h4v1.3h-2.5v2.3h1.9v1.3h-1.9v2.6H72V25.4z
				 M76.3,25.4l-1.1-3.6c-0.3,0-0.5,0-0.8,0v3.6h-1.5v-8.8H75c1.7,0,2.5,0.7,2.5,2.6c0,1.4-0.5,2-1.1,2.2l1.3,4H76.3z M81.1,21.7
				v3.6h-1.5v-3.6l-1.8-5.1h1.5l1.1,3.3h0l1-3.3h1.5L81.1,21.7z"/>
			<polygon class="st0" points="55.1,18.4 54.5,22.1 55.7,22.1 55.1,18.4 			"/>
		</g>
		<g>
			<path class="st0" d="M137.8,17.8c0-1.6,0.8-2.5,2.1-2.5c0.7,0,1.1,0.1,1.4,0.3v0.8h-0.6c-0.1-0.5-0.3-0.8-0.8-0.8
				c-0.7,0-1.1,0.5-1.1,2c0,1.6,0.5,2,1.1,2c0.5,0,0.7-0.2,0.8-0.8h0.6v0.8c-0.3,0.2-0.8,0.4-1.4,0.4
				C138.5,20.2,137.8,19.3,137.8,17.8"/>
			<path class="st0" d="M143.3,17c-0.5,0-0.7,0.4-0.7,1.4c0,1,0.2,1.4,0.8,1.4c0.5,0,0.7-0.5,0.7-1.4C144.1,17.4,143.8,17,143.3,17
				 M143.3,20.2c-1,0-1.6-0.6-1.6-1.8c0-1.1,0.7-1.8,1.6-1.8c1,0,1.6,0.7,1.6,1.8C145,19.6,144.2,20.2,143.3,20.2"/>
			<path class="st0" d="M146.6,19.3c0,0.4,0.1,0.5,0.5,0.5v0.3h-1.7v-0.3c0.4,0,0.5-0.1,0.5-0.5v-3.2c0-0.5-0.1-0.6-0.5-0.6v-0.3
				l1.1-0.2h0.1c0,0.1,0.1,0.3,0.1,0.7V19.3z"/>
			<path class="st0" d="M149,18.4c-0.6,0-0.9,0.2-0.9,0.7c0,0.4,0.2,0.6,0.5,0.6c0.2,0,0.5-0.2,0.6-0.4l0-0.8
				C149.2,18.4,149.1,18.4,149,18.4 M148,16.1l1.2-1.1l0.4,0.7l-1.5,0.7L148,16.1z M150.5,19.7V20c-0.1,0.1-0.3,0.1-0.6,0.1
				c-0.4,0-0.6-0.2-0.7-0.5c-0.1,0.2-0.4,0.5-0.9,0.5c-0.6,0-1.1-0.3-1.1-1c0-0.8,0.6-1.1,1.7-1.1c0.1,0,0.2,0,0.3,0v-0.3
				c0-0.5-0.1-0.8-0.5-0.8c-0.5,0-0.6,0.3-0.7,0.6h-0.6V17c0.3-0.2,0.9-0.4,1.4-0.4c0.8,0,1.2,0.3,1.2,1.1c0,0.2,0,0.8,0,1.4
				C150.1,19.6,150.1,19.7,150.5,19.7"/>
			<path class="st0" d="M151.5,16.2c-0.3,0-0.5-0.2-0.5-0.5c0-0.3,0.2-0.5,0.5-0.5c0.3,0,0.5,0.2,0.5,0.5
				C152.1,16,151.8,16.2,151.5,16.2 M150.7,20.1v-0.3c0.4,0,0.4-0.1,0.4-0.5v-1.6c0-0.5-0.1-0.6-0.5-0.6v-0.3l1.1-0.2h0.1v2.7
				c0,0.4,0.1,0.5,0.4,0.5v0.3H150.7z"/>
			<path class="st0" d="M152.7,19.9v-0.7h0.6c0.1,0.5,0.3,0.6,0.7,0.6c0.4,0,0.6-0.1,0.6-0.5c0-0.3-0.2-0.4-0.5-0.5l-0.5-0.1
				c-0.5-0.1-0.9-0.4-0.9-1c0-0.7,0.6-1.1,1.3-1.1c0.6,0,0.9,0.2,1.1,0.2v0.7h-0.5c-0.1-0.4-0.3-0.5-0.6-0.5c-0.3,0-0.5,0.2-0.5,0.5
				c0,0.2,0.1,0.4,0.5,0.5l0.4,0.1c0.7,0.2,1,0.5,1,1c0,0.7-0.5,1.1-1.4,1.1C153.3,20.2,152.9,20,152.7,19.9"/>
			<path class="st0" d="M157.5,17.2h-0.7v1.9c0,0.5,0.1,0.7,0.4,0.7c0.1,0,0.2,0,0.4-0.1l0.1,0.3c-0.2,0.1-0.5,0.2-0.8,0.2
				c-0.6,0-0.9-0.2-0.9-0.9v-2.1h-0.4v-0.3l0.4-0.2c0-0.3,0.1-0.7,0.3-0.9l0.5-0.1c0,0.2-0.1,0.7-0.1,1h0.8L157.5,17.2z"/>
			<path class="st0" d="M158.7,18.1h1.2c0-0.8-0.2-1.1-0.6-1.1C159,17,158.8,17.2,158.7,18.1 M160.6,19.4l0.1,0.3
				c-0.3,0.3-0.8,0.5-1.3,0.5c-1,0-1.6-0.7-1.6-1.8c0-1.1,0.6-1.8,1.5-1.8c1,0,1.4,0.6,1.4,1.6v0.2h-2.1c0,0.9,0.3,1.2,1,1.2
				C160,19.6,160.3,19.5,160.6,19.4"/>
			<path class="st0" d="M165.9,19.3c0,0.4,0.1,0.5,0.4,0.5v0.3h-1.7v-0.3c0.4,0,0.4-0.1,0.4-0.4v-1.6c0-0.4-0.2-0.6-0.5-0.6
				c-0.3,0-0.6,0.1-0.8,0.3v1.8c0,0.3,0.1,0.4,0.4,0.4v0.3h-1.7v-0.3c0.4,0,0.4-0.1,0.4-0.5v-1.6c0-0.5-0.1-0.6-0.4-0.6v-0.3l1-0.3
				h0.1c0,0.1,0.1,0.3,0.2,0.6c0.3-0.3,0.6-0.6,1.2-0.6c0.5,0,0.9,0.3,0.9,1V19.3z"/>
			<path class="st0" d="M168.3,18.4c-0.6,0-0.9,0.2-0.9,0.7c0,0.4,0.2,0.6,0.5,0.6c0.2,0,0.5-0.2,0.6-0.4l0-0.8
				C168.5,18.4,168.4,18.4,168.3,18.4 M169.8,19.7V20c-0.1,0.1-0.3,0.1-0.6,0.1c-0.4,0-0.6-0.2-0.7-0.5c-0.1,0.2-0.4,0.5-0.9,0.5
				c-0.6,0-1.1-0.3-1.1-1c0-0.8,0.6-1.1,1.7-1.1c0.1,0,0.2,0,0.3,0v-0.3c0-0.5-0.1-0.8-0.5-0.8c-0.5,0-0.6,0.3-0.7,0.6h-0.6V17
				c0.3-0.2,0.9-0.4,1.4-0.4c0.8,0,1.2,0.3,1.2,1.1c0,0.2,0,0.8,0,1.4C169.4,19.6,169.4,19.7,169.8,19.7"/>
			<path class="st0" d="M175,15.4l0.1,1.2h-0.4c-0.1-0.6-0.2-0.7-0.6-0.7h-0.4v3.5c0,0.4,0.1,0.5,0.6,0.5v0.3h-2v-0.3
				c0.4,0,0.6-0.1,0.6-0.5v-3.5h-0.4c-0.4,0-0.5,0.2-0.6,0.7h-0.4l0.1-1.2H175z"/>
			<path class="st0" d="M177.2,16.6c0.1,0,0.2,0,0.2,0l-0.2,0.9c-0.1,0-0.2,0-0.3,0c-0.5,0-0.7,0.2-0.7,0.8v1.1
				c0,0.4,0.1,0.5,0.6,0.5v0.3h-1.8v-0.3c0.4,0,0.4-0.1,0.4-0.5v-1.6c0-0.5-0.1-0.6-0.5-0.6v-0.3l1-0.3h0.1c0,0.1,0.2,0.4,0.2,0.8
				C176.5,16.9,176.9,16.6,177.2,16.6"/>
			<path class="st0" d="M177.6,16.1l1.2-1.1l0.4,0.7l-1.5,0.7L177.6,16.1z M177.6,20.1v-0.3c0.4,0,0.4-0.1,0.4-0.5v-1.6
				c0-0.5-0.1-0.6-0.5-0.6v-0.3l1.1-0.2h0.1v2.7c0,0.4,0.1,0.5,0.4,0.5v0.3H177.6z"/>
			<path class="st0" d="M181.2,17c-0.5,0-0.7,0.4-0.7,1.4c0,1,0.2,1.4,0.8,1.4c0.5,0,0.7-0.5,0.7-1.4C182,17.4,181.7,17,181.2,17
				 M181.2,20.2c-1,0-1.6-0.6-1.6-1.8c0-1.1,0.7-1.8,1.6-1.8c1,0,1.6,0.7,1.6,1.8C182.9,19.6,182.1,20.2,181.2,20.2"/>
			<path class="st0" d="M186.5,19.3c0,0.4,0.1,0.5,0.4,0.5v0.3h-1.7v-0.3c0.4,0,0.4-0.1,0.4-0.4v-1.6c0-0.4-0.2-0.6-0.5-0.6
				c-0.3,0-0.6,0.1-0.8,0.3v1.8c0,0.3,0.1,0.4,0.4,0.4v0.3h-1.7v-0.3c0.4,0,0.4-0.1,0.4-0.5v-1.6c0-0.5-0.1-0.6-0.4-0.6v-0.3l1-0.3
				h0.1c0,0.1,0.1,0.3,0.2,0.6c0.3-0.3,0.6-0.6,1.2-0.6c0.5,0,0.9,0.3,0.9,1V19.3z"/>
			<path class="st0" d="M188.9,17c-0.5,0-0.7,0.4-0.7,1.4c0,1,0.2,1.4,0.8,1.4c0.5,0,0.7-0.5,0.7-1.4C189.6,17.4,189.4,17,188.9,17
				 M188.1,16.1l1.2-1.1l0.4,0.7l-1.5,0.7L188.1,16.1z M188.9,20.2c-1,0-1.6-0.6-1.6-1.8c0-1.1,0.7-1.8,1.6-1.8c1,0,1.6,0.7,1.6,1.8
				C190.5,19.6,189.8,20.2,188.9,20.2"/>
			<path class="st0" d="M191.7,16.2c-0.3,0-0.5-0.2-0.5-0.5c0-0.3,0.2-0.5,0.5-0.5c0.3,0,0.5,0.2,0.5,0.5
				C192.2,16,192,16.2,191.7,16.2 M190.9,20.1v-0.3c0.4,0,0.4-0.1,0.4-0.5v-1.6c0-0.5-0.1-0.6-0.5-0.6v-0.3l1.1-0.2h0.1v2.7
				c0,0.4,0.1,0.5,0.4,0.5v0.3H190.9z"/>
			<path class="st0" d="M194.5,19.6c0.3,0,0.5-0.1,0.7-0.4v-1.8c-0.2-0.2-0.4-0.3-0.7-0.3c-0.4,0-0.7,0.2-0.7,1.2
				C193.8,19.3,194,19.6,194.5,19.6 M194.2,20.1c-0.7,0-1.3-0.5-1.3-1.7c0-1.2,0.6-1.8,1.5-1.8c0.3,0,0.7,0.1,0.9,0.4v-0.8
				c0-0.5-0.1-0.6-0.5-0.6v-0.3l1.1-0.2h0.2v3.9c0,0.5,0.1,0.6,0.5,0.6v0.2l-1,0.2h-0.1c0,0-0.1-0.3-0.2-0.6
				C195,19.9,194.6,20.1,194.2,20.1"/>
			<path class="st0" d="M197.7,18.1h1.2c0-0.8-0.2-1.1-0.6-1.1C197.9,17,197.7,17.2,197.7,18.1 M199.5,19.4l0.1,0.3
				c-0.3,0.3-0.8,0.5-1.3,0.5c-1,0-1.6-0.7-1.6-1.8c0-1.1,0.6-1.8,1.5-1.8c1,0,1.4,0.6,1.4,1.6v0.2h-2.1c0,0.9,0.3,1.2,1,1.2
				C198.9,19.6,199.3,19.5,199.5,19.4"/>
			<path class="st0" d="M200.3,21.1l-0.2-0.2c0.4-0.1,0.7-0.3,0.7-0.5c0-0.1-0.1-0.2-0.2-0.2c-0.1-0.1-0.3-0.2-0.3-0.4
				c0-0.3,0.2-0.5,0.5-0.5c0.4,0,0.6,0.3,0.6,0.7C201.4,20.4,201,20.9,200.3,21.1"/>
			<path class="st0" d="M205.2,19.7c0.6,0,0.8-0.2,0.8-0.9c0-0.6-0.2-0.9-0.9-0.9h-0.6v1.8H205.2z M205.1,17.5
				c0.6,0,0.8-0.2,0.8-0.8c0-0.6-0.2-0.8-0.8-0.8h-0.5v1.6H205.1z M203.2,19.8c0.4,0,0.5-0.1,0.5-0.5v-3.1c0-0.4-0.1-0.5-0.5-0.5
				v-0.3h1.9c1.1,0,1.6,0.4,1.6,1.2c0,0.6-0.3,0.9-0.9,1v0c0.8,0.1,1.1,0.5,1.1,1.2c0,0.8-0.6,1.2-1.6,1.2h-2.2V19.8z"/>
			<path class="st0" d="M209.1,18.4c-0.6,0-0.9,0.2-0.9,0.7c0,0.4,0.2,0.6,0.5,0.6c0.2,0,0.5-0.2,0.6-0.4l0-0.8
				C209.3,18.4,209.2,18.4,209.1,18.4 M210.6,19.7V20c-0.1,0.1-0.3,0.1-0.6,0.1c-0.4,0-0.6-0.2-0.7-0.5c-0.1,0.2-0.4,0.5-0.9,0.5
				c-0.6,0-1.1-0.3-1.1-1c0-0.8,0.6-1.1,1.7-1.1c0.1,0,0.2,0,0.3,0v-0.3c0-0.5-0.1-0.8-0.5-0.8c-0.5,0-0.6,0.3-0.7,0.6h-0.6V17
				c0.3-0.2,0.9-0.4,1.4-0.4c0.8,0,1.2,0.3,1.2,1.1c0,0.2,0,0.8,0,1.4C210.2,19.6,210.2,19.7,210.6,19.7"/>
			<path class="st0" d="M211.6,16.2c-0.3,0-0.5-0.2-0.5-0.5c0-0.3,0.2-0.5,0.5-0.5s0.5,0.2,0.5,0.5C212.1,16,211.9,16.2,211.6,16.2
				 M210.8,20.1v-0.3c0.4,0,0.4-0.1,0.4-0.5v-1.6c0-0.5-0.1-0.6-0.5-0.6v-0.3l1.1-0.2h0.1v2.7c0,0.4,0.1,0.5,0.4,0.5v0.3H210.8z"/>
			<path class="st0" d="M214,19.3c0,0.4,0.1,0.5,0.5,0.5v0.3h-1.7v-0.3c0.4,0,0.5-0.1,0.5-0.5v-3.2c0-0.5-0.1-0.6-0.5-0.6v-0.3
				l1.1-0.2h0.1c0,0.1,0.1,0.3,0.1,0.7V19.3z"/>
			<path class="st0" d="M215.7,18.1h1.2c0-0.8-0.2-1.1-0.6-1.1C215.9,17,215.7,17.2,215.7,18.1 M217.5,19.4l0.1,0.3
				c-0.3,0.3-0.8,0.5-1.3,0.5c-1,0-1.6-0.7-1.6-1.8c0-1.1,0.6-1.8,1.5-1.8c1,0,1.4,0.6,1.4,1.6v0.2h-2.1c0,0.9,0.3,1.2,1,1.2
				C216.9,19.6,217.3,19.5,217.5,19.4"/>
			<path class="st0" d="M220.6,15l1.3-1l0.4,0.8l-1.5,0.5L220.6,15z M220.6,18.3h1.2l-0.3-1.1c-0.1-0.5-0.2-0.8-0.3-1h0
				c0,0.2-0.1,0.5-0.3,1L220.6,18.3z M222,18.7h-1.5l-0.2,0.6c0,0.1,0,0.2,0,0.2c0,0.2,0.1,0.2,0.5,0.2v0.3h-1.5v-0.3
				c0.3,0,0.4-0.1,0.5-0.5l1.3-3.9h0.7l1.3,3.9c0.1,0.3,0.2,0.5,0.5,0.5v0.3h-1.8v-0.3c0.3,0,0.4-0.1,0.4-0.2c0-0.1,0-0.1,0-0.2
				L222,18.7z"/>
			<path class="st0" d="M225.4,17.2h-0.7v1.9c0,0.5,0.1,0.7,0.4,0.7c0.1,0,0.2,0,0.4-0.1l0.1,0.3c-0.2,0.1-0.5,0.2-0.8,0.2
				c-0.6,0-0.9-0.2-0.9-0.9v-2.1h-0.4v-0.3l0.4-0.2c0-0.3,0.1-0.7,0.3-0.9l0.5-0.1c0,0.2-0.1,0.7-0.1,1h0.8L225.4,17.2z"/>
			<path class="st0" d="M227,17.2c0.3-0.3,0.6-0.6,1.1-0.6c0.5,0,0.9,0.3,0.9,1v1.7c0,0.4,0.1,0.5,0.4,0.5v0.3h-1.7v-0.3
				c0.4,0,0.4-0.1,0.4-0.4v-1.6c0-0.4-0.2-0.6-0.5-0.6c-0.3,0-0.6,0.1-0.8,0.3v1.8c0,0.3,0.1,0.4,0.4,0.4v0.3h-1.7v-0.3
				c0.4,0,0.4-0.1,0.4-0.5v-3.2c0-0.5-0.1-0.6-0.5-0.6v-0.3l1.1-0.2h0.1c0.1,0.1,0.1,0.3,0.1,0.7V17.2z"/>
			<path class="st0" d="M231.5,18.4c-0.6,0-0.9,0.2-0.9,0.7c0,0.4,0.2,0.6,0.5,0.6c0.2,0,0.5-0.2,0.6-0.4l0-0.8
				C231.7,18.4,231.6,18.4,231.5,18.4 M233,19.7V20c-0.1,0.1-0.3,0.1-0.6,0.1c-0.4,0-0.6-0.2-0.7-0.5c-0.1,0.2-0.4,0.5-0.9,0.5
				c-0.6,0-1.1-0.3-1.1-1c0-0.8,0.6-1.1,1.7-1.1c0.1,0,0.2,0,0.3,0v-0.3c0-0.5-0.1-0.8-0.5-0.8c-0.5,0-0.6,0.3-0.7,0.6H230V17
				c0.3-0.2,0.9-0.4,1.4-0.4c0.8,0,1.2,0.3,1.2,1.1c0,0.2,0,0.8,0,1.4C232.5,19.6,232.6,19.7,233,19.7"/>
			<path class="st0" d="M234.6,17.8c0-1.6,0.8-2.5,2.1-2.5c0.7,0,1.1,0.1,1.4,0.3v0.8h-0.6c-0.1-0.5-0.3-0.8-0.8-0.8
				c-0.7,0-1.1,0.5-1.1,2c0,1.6,0.5,2,1.1,2c0.5,0,0.7-0.2,0.8-0.8h0.6v0.8c-0.3,0.2-0.7,0.4-1.4,0.4
				C235.3,20.2,234.6,19.3,234.6,17.8"/>
			<path class="st0" d="M239.7,19.3c0,0.4,0.1,0.5,0.5,0.5v0.3h-1.7v-0.3c0.4,0,0.5-0.1,0.5-0.5v-3.2c0-0.5-0.1-0.6-0.5-0.6v-0.3
				l1.1-0.2h0.1c0,0.1,0.1,0.3,0.1,0.7V19.3z"/>
			<path class="st0" d="M241.2,16.2c-0.3,0-0.5-0.2-0.5-0.5c0-0.3,0.2-0.5,0.5-0.5c0.3,0,0.5,0.2,0.5,0.5
				C241.8,16,241.5,16.2,241.2,16.2 M240.4,20.1v-0.3c0.4,0,0.4-0.1,0.4-0.5v-1.6c0-0.5-0.1-0.6-0.5-0.6v-0.3l1.1-0.2h0.1v2.7
				c0,0.4,0.1,0.5,0.4,0.5v0.3H240.4z"/>
			<path class="st0" d="M244.1,18.4c-0.6,0-0.9,0.2-0.9,0.7c0,0.4,0.2,0.6,0.5,0.6c0.2,0,0.5-0.2,0.6-0.4l0-0.8
				C244.3,18.4,244.2,18.4,244.1,18.4 M245.6,19.7V20c-0.1,0.1-0.3,0.1-0.6,0.1c-0.4,0-0.6-0.2-0.7-0.5c-0.1,0.2-0.4,0.5-0.9,0.5
				c-0.6,0-1.1-0.3-1.1-1c0-0.8,0.6-1.1,1.7-1.1c0.1,0,0.2,0,0.3,0v-0.3c0-0.5-0.1-0.8-0.5-0.8c-0.5,0-0.6,0.3-0.7,0.6h-0.6V17
				c0.3-0.2,0.9-0.4,1.4-0.4c0.8,0,1.2,0.3,1.2,1.1c0,0.2,0,0.8,0,1.4C245.2,19.6,245.2,19.7,245.6,19.7"/>
			<path class="st0" d="M247.7,17.2H247v1.9c0,0.5,0.1,0.7,0.4,0.7c0.1,0,0.2,0,0.4-0.1l0.1,0.3c-0.2,0.1-0.5,0.2-0.8,0.2
				c-0.6,0-0.9-0.2-0.9-0.9v-2.1h-0.4v-0.3l0.4-0.2c0-0.3,0.1-0.7,0.3-0.9l0.5-0.1c0,0.2-0.1,0.7-0.1,1h0.8L247.7,17.2z"/>
			<path class="st0" d="M249.3,17.2c0.3-0.3,0.6-0.6,1.1-0.6c0.5,0,0.9,0.3,0.9,1v1.7c0,0.4,0.1,0.5,0.4,0.5v0.3h-1.7v-0.3
				c0.4,0,0.4-0.1,0.4-0.4v-1.6c0-0.4-0.2-0.6-0.5-0.6c-0.3,0-0.6,0.1-0.8,0.3v1.8c0,0.3,0.1,0.4,0.4,0.4v0.3H248v-0.3
				c0.4,0,0.4-0.1,0.4-0.5v-3.2c0-0.5-0.1-0.6-0.5-0.6v-0.3l1.1-0.2h0.1c0.1,0.1,0.1,0.3,0.1,0.7V17.2z"/>
			<path class="st0" d="M142.9,2.5l0.1,1.9h-0.7c-0.2-1-0.3-1.3-1-1.3h-0.7V9c0,0.7,0.2,0.8,1,0.8v0.5h-3.4V9.9
				c0.7,0,0.9-0.1,0.9-0.8V3.2h-0.7c-0.7,0-0.8,0.3-1,1.3h-0.7l0.1-1.9L142.9,2.5z"/>
			<path class="st0" d="M146.9,4.5c0.1,0,0.3,0,0.4,0.1L147,6c-0.1-0.1-0.3-0.1-0.5-0.1c-0.9,0-1.2,0.3-1.2,1.3v1.9
				c0,0.6,0.1,0.8,0.9,0.8v0.5h-3.1V9.9c0.6,0,0.7-0.1,0.7-0.8V6.4c0-0.8-0.1-0.9-0.8-1V5l1.7-0.5h0.2c0.1,0.2,0.3,0.7,0.3,1.4
				C145.7,5,146.3,4.5,146.9,4.5"/>
			<path class="st0" d="M149.2,3.9c-0.5,0-0.9-0.4-0.9-0.9c0-0.5,0.4-0.9,0.9-0.9c0.5,0,0.9,0.4,0.9,0.9
				C150.1,3.5,149.7,3.9,149.2,3.9 M147.8,10.3V9.9c0.6,0,0.7-0.1,0.7-0.8V6.4c0-0.8-0.1-0.9-0.8-1V5l1.9-0.4h0.2v4.5
				c0,0.6,0.1,0.8,0.7,0.8v0.5H147.8z"/>
			<path class="st0" d="M157.1,9.1c0,0.6,0.1,0.8,0.7,0.8v0.5h-2.8V9.9c0.6,0,0.7-0.2,0.7-0.7V6.5c0-0.7-0.3-0.9-0.8-0.9
				c-0.6,0-1,0.2-1.3,0.6v3c0,0.6,0.1,0.7,0.7,0.7v0.5h-2.9V9.9c0.6,0,0.7-0.1,0.7-0.8V6.4c0-0.8-0.1-0.9-0.8-1V5l1.7-0.5h0.2
				c0.1,0.1,0.2,0.6,0.3,1c0.5-0.5,1.1-1,2-1c0.9,0,1.6,0.5,1.6,1.6V9.1z"/>
			<path class="st0" d="M159.8,3.9c-0.5,0-0.9-0.4-0.9-0.9c0-0.5,0.4-0.9,0.9-0.9c0.5,0,0.9,0.4,0.9,0.9
				C160.7,3.5,160.3,3.9,159.8,3.9 M158.5,10.3V9.9c0.6,0,0.7-0.1,0.7-0.8V6.4c0-0.8-0.1-0.9-0.8-1V5l1.9-0.4h0.2v4.5
				c0,0.6,0.1,0.8,0.7,0.8v0.5H158.5z"/>
			<path class="st0" d="M165.2,5.4h-1.2v3.2c0,0.8,0.1,1.1,0.7,1.1c0.2,0,0.4,0,0.6-0.1l0.1,0.5c-0.4,0.2-0.8,0.4-1.3,0.4
				c-1,0-1.5-0.4-1.5-1.6V5.4H162V4.9l0.8-0.3c0.1-0.5,0.2-1.1,0.5-1.5l0.9-0.1c-0.1,0.4-0.1,1.1-0.1,1.7h1.4L165.2,5.4z"/>
			<path class="st0" d="M166.6,11.8c0.9-0.2,1.7-0.4,2-1.5l-0.5,0.1c-0.1-0.6-0.3-1.1-0.6-2l-0.9-2.4c-0.2-0.6-0.4-0.7-0.8-0.8V4.7
				h2.8v0.5c-0.5,0-0.7,0.1-0.7,0.3c0,0.1,0,0.2,0.1,0.3l0.8,2.4c0.2,0.6,0.3,1,0.3,1.2h0c0-0.1,0.1-0.6,0.3-1.1l0.8-2.5
				c0-0.1,0.1-0.2,0.1-0.2c0-0.3-0.1-0.3-0.7-0.4V4.7h2.3v0.5c-0.5,0.1-0.6,0.2-0.8,0.7l-1.6,4.5c-0.5,1.3-1.1,2.1-2.3,2.3
				L166.6,11.8z"/>
			<path class="st0" d="M175.1,6.5c0-2.8,1.4-4.1,3.5-4.1c1.2,0,1.9,0.2,2.3,0.5v1.4h-1c-0.2-0.9-0.5-1.3-1.3-1.3
				c-1.2,0-1.9,0.8-1.9,3.4c0,2.7,0.8,3.4,1.9,3.4c0.9,0,1.2-0.4,1.4-1.3h1v1.4c-0.4,0.3-1.3,0.6-2.4,0.6
				C176.3,10.5,175.1,9,175.1,6.5"/>
			<path class="st0" d="M184.8,5.1c-0.9,0-1.2,0.7-1.2,2.3c0,1.6,0.3,2.4,1.3,2.4c0.8,0,1.2-0.8,1.2-2.4
				C186,5.8,185.6,5.1,184.8,5.1 M184.8,10.5c-1.7,0-2.7-1.1-2.7-3c0-1.8,1.1-3,2.8-3c1.7,0,2.7,1.1,2.7,3
				C187.5,9.5,186.3,10.5,184.8,10.5"/>
			<path class="st0" d="M190.5,9.1c0,0.7,0.1,0.8,0.8,0.8v0.5h-2.9V9.9c0.6,0,0.8-0.1,0.8-0.8V3.8c0-0.8-0.2-0.9-0.8-1V2.4l1.9-0.3
				h0.2c0.1,0.2,0.2,0.5,0.2,1.1V9.1z"/>
			<path class="st0" d="M194.2,9.1c0,0.7,0.1,0.8,0.8,0.8v0.5H192V9.9c0.6,0,0.8-0.1,0.8-0.8V3.8c0-0.8-0.2-0.9-0.8-1V2.4l1.9-0.3
				h0.2c0.1,0.2,0.2,0.5,0.2,1.1V9.1z"/>
			<path class="st0" d="M197.2,7h2.1c0-1.4-0.3-1.8-1-1.8C197.7,5.1,197.3,5.6,197.2,7 M200.4,9.2l0.2,0.4c-0.6,0.5-1.3,0.8-2.2,0.8
				c-1.7,0-2.7-1.1-2.7-3c0-1.9,1.1-3,2.6-3c1.6,0,2.4,1,2.4,2.8v0.4h-3.5c0,1.4,0.5,2,1.7,2C199.4,9.6,199.9,9.4,200.4,9.2"/>
			<path class="st0" d="M205,6.4c0-0.9-0.3-1.3-0.9-1.3c-0.6,0-0.9,0.4-0.9,1.2c0,0.8,0.3,1.2,0.9,1.2C204.7,7.6,205,7.2,205,6.4
				 M201.6,11.3c0-0.4,0.3-0.7,0.6-0.8l0.8,0c-0.1,0.1-0.1,0.3-0.1,0.6c0,0.6,0.3,0.9,1.3,0.9c1.1,0,1.4-0.4,1.4-1
				c0-0.6-0.3-0.8-1.6-0.8c-0.4,0-1,0-1.2-0.1c-0.6-0.1-0.8-0.5-0.8-0.9c0-0.5,0.5-0.9,1.2-1.1c-0.9-0.2-1.4-0.8-1.4-1.6
				c0-1.2,0.9-1.9,2.3-1.9c0.4,0,0.7,0.1,1,0.2c0.3,0.1,0.5,0.1,0.7,0.1c0.4,0,0.7-0.2,1-0.5l0.5,0.9c-0.3,0.2-0.5,0.3-0.9,0.3
				c-0.2,0-0.5-0.1-0.8-0.2c0.3,0.2,0.6,0.6,0.6,1.1c0,1.3-1.3,1.7-2.4,1.7h-0.1c-0.3,0.1-0.5,0.3-0.5,0.5c0,0.2,0.1,0.3,0.4,0.3
				l1.1,0c1.4,0,2.2,0.4,2.2,1.6c0,1.3-1.2,1.9-2.7,1.9C202.6,12.5,201.6,12,201.6,11.3"/>
			<path class="st0" d="M209.2,7h2.1c0-1.4-0.3-1.8-1-1.8C209.6,5.1,209.3,5.6,209.2,7 M212.3,9.2l0.2,0.4c-0.6,0.5-1.3,0.8-2.2,0.8
				c-1.7,0-2.7-1.1-2.7-3c0-1.9,1.1-3,2.6-3c1.6,0,2.4,1,2.4,2.8v0.4h-3.5c0,1.4,0.5,2,1.7,2C211.3,9.6,211.9,9.4,212.3,9.2"/>
			<path class="st0" d="M219.3,9.7c1.5,0,2.2-0.6,2.2-3.1c0-2.6-0.7-3.4-2.2-3.4h-0.8v6.5H219.3z M216.3,9.9c0.7,0,0.8-0.2,0.8-0.8
				V3.8c0-0.6-0.2-0.8-0.8-0.8V2.5h3.1c2.3,0,3.8,1.2,3.8,3.9c0,2.4-1.1,3.9-3.8,3.9h-3.1V9.9z"/>
			<path class="st0" d="M229.5,8.7c0,0.8,0.1,0.9,0.8,1v0.4l-1.6,0.4h-0.2c-0.1-0.2-0.2-0.5-0.3-1c-0.5,0.6-1,1-1.9,1
				c-0.9,0-1.6-0.5-1.6-1.6V6.4c0-0.8-0.1-0.9-0.7-1V5l1.8-0.4h0.3v4.1c0,0.7,0.2,0.9,0.8,0.9c0.5,0,0.8-0.2,1.2-0.6V6.4
				c0-0.8-0.1-0.9-0.7-1V5l1.8-0.4h0.3V8.7z"/>
			<path class="st0" d="M234.2,5.5c-0.5,0-1,0.3-1.2,0.6v3c0.3,0.3,0.6,0.5,1.2,0.5c0.8,0,1.2-0.5,1.2-2.1
				C235.4,5.9,235,5.5,234.2,5.5 M232.4,10.3h-0.9c0.1-0.3,0.1-0.6,0.1-1.3V3.8c0-0.8-0.2-0.9-0.8-1V2.4l1.8-0.3h0.2
				c0.1,0.2,0.2,0.6,0.2,1.1v2.2c0.3-0.5,0.9-0.9,1.7-0.9c1.3,0,2.2,0.9,2.2,2.9c0,2-1,3-2.4,3c-0.9,0-1.4-0.4-1.7-0.8
				C232.7,9.8,232.5,10.2,232.4,10.3"/>
			<path class="st0" d="M239.9,9.1c0,0.7,0.1,0.8,0.8,0.8v0.5h-2.9V9.9c0.6,0,0.8-0.1,0.8-0.8V3.8c0-0.8-0.2-0.9-0.8-1V2.4l1.9-0.3
				h0.2c0.1,0.2,0.2,0.5,0.2,1.1V9.1z"/>
			<path class="st0" d="M242.7,3.9c-0.5,0-0.9-0.4-0.9-0.9c0-0.5,0.4-0.9,0.9-0.9c0.5,0,0.9,0.4,0.9,0.9
				C243.6,3.5,243.2,3.9,242.7,3.9 M241.4,10.3V9.9c0.6,0,0.7-0.1,0.7-0.8V6.4c0-0.8-0.1-0.9-0.8-1V5l1.9-0.4h0.2v4.5
				c0,0.6,0.1,0.8,0.7,0.8v0.5H241.4z"/>
			<path class="st0" d="M250.6,9.1c0,0.6,0.1,0.8,0.7,0.8v0.5h-2.8V9.9c0.6,0,0.7-0.2,0.7-0.7V6.5c0-0.7-0.3-0.9-0.8-0.9
				c-0.6,0-1,0.2-1.3,0.6v3c0,0.6,0.1,0.7,0.7,0.7v0.5H245V9.9c0.6,0,0.7-0.1,0.7-0.8V6.4c0-0.8-0.1-0.9-0.8-1V5l1.7-0.5h0.2
				c0.1,0.1,0.2,0.6,0.3,1c0.5-0.5,1.1-1,2-1c0.9,0,1.6,0.5,1.6,1.6V9.1z"/>
			<polygon class="st0" points="139.4,25.6 138,25.6 138,25.1 141.4,25.1 141.4,25.6 140,25.6 140,29.8 139.4,29.8 			"/>
			<path class="st0" d="M142.2,24.7h0.6v1.4l0,0.7c0.3-0.3,0.7-0.6,1.2-0.6c0.7,0,1.1,0.5,1.1,1.4v2.2h-0.6v-2.1
				c0-0.6-0.2-0.9-0.7-0.9c-0.4,0-0.6,0.2-0.9,0.5v2.5h-0.6V24.7z"/>
			<path class="st0" d="M148.2,27.8c0-0.7-0.3-1.1-0.9-1.1c-0.5,0-0.9,0.4-1,1.1H148.2z M147.4,26.3c0.9,0,1.4,0.6,1.4,1.6
				c0,0.1,0,0.2,0,0.3h-2.3c0,0.7,0.5,1.2,1.2,1.2c0.3,0,0.6-0.1,0.9-0.3l0.2,0.4c-0.3,0.2-0.7,0.4-1.1,0.4c-0.9,0-1.7-0.7-1.7-1.8
				C145.8,26.9,146.6,26.3,147.4,26.3"/>
			<path class="st0" d="M151.1,25.1h0.6v2.8c0,1.1,0.5,1.5,1.1,1.5c0.6,0,1.1-0.4,1.1-1.5v-2.8h0.6v2.7c0,1.5-0.7,2-1.7,2
				c-1,0-1.7-0.5-1.7-2V25.1z"/>
			<path class="st0" d="M155.7,26.3h0.5l0,0.5h0c0.3-0.3,0.7-0.6,1.2-0.6c0.7,0,1.1,0.5,1.1,1.4v2.2h-0.6v-2.1
				c0-0.6-0.2-0.9-0.7-0.9c-0.4,0-0.6,0.2-0.9,0.5v2.5h-0.6V26.3z"/>
			<path class="st0" d="M159.6,26.3h0.6v3.5h-0.6V26.3z M159.4,25.2c0-0.2,0.2-0.4,0.4-0.4c0.2,0,0.4,0.1,0.4,0.4
				c0,0.2-0.2,0.4-0.4,0.4C159.6,25.6,159.4,25.5,159.4,25.2"/>
			<path class="st0" d="M160.8,26.3h0.6l0.7,2c0.1,0.3,0.2,0.7,0.3,1h0c0.1-0.3,0.2-0.7,0.3-1l0.7-2h0.6l-1.2,3.5h-0.7L160.8,26.3z"
				/>
			<path class="st0" d="M166.8,27.8c0-0.7-0.3-1.1-0.9-1.1c-0.5,0-0.9,0.4-1,1.1H166.8z M165.9,26.3c0.9,0,1.4,0.6,1.4,1.6
				c0,0.1,0,0.2,0,0.3h-2.3c0,0.7,0.5,1.2,1.2,1.2c0.3,0,0.6-0.1,0.9-0.3l0.2,0.4c-0.3,0.2-0.7,0.4-1.1,0.4c-0.9,0-1.7-0.7-1.7-1.8
				C164.4,26.9,165.1,26.3,165.9,26.3"/>
			<path class="st0" d="M168.1,26.3h0.5l0,0.6h0c0.2-0.4,0.6-0.7,1-0.7c0.1,0,0.3,0,0.4,0.1l-0.1,0.5c-0.1,0-0.2-0.1-0.3-0.1
				c-0.3,0-0.6,0.2-0.9,0.8v2.2h-0.6V26.3z"/>
			<path class="st0" d="M170.5,29c0.3,0.2,0.6,0.4,1,0.4c0.5,0,0.7-0.2,0.7-0.5c0-0.4-0.4-0.5-0.8-0.7c-0.5-0.2-1-0.4-1-1
				c0-0.6,0.4-1,1.2-1c0.4,0,0.8,0.2,1.1,0.4l-0.3,0.4c-0.2-0.2-0.5-0.3-0.8-0.3c-0.4,0-0.6,0.2-0.6,0.5c0,0.3,0.4,0.4,0.8,0.6
				c0.5,0.2,1.1,0.4,1.1,1c0,0.6-0.5,1-1.3,1c-0.5,0-1-0.2-1.3-0.5L170.5,29z"/>
			<path class="st0" d="M173.5,26.3h0.6v3.5h-0.6V26.3z M173.4,25.2c0-0.2,0.2-0.4,0.4-0.4c0.2,0,0.4,0.1,0.4,0.4
				c0,0.2-0.2,0.4-0.4,0.4C173.6,25.6,173.4,25.5,173.4,25.2"/>
			<path class="st0" d="M175.4,26.8h-0.5v-0.4l0.5,0l0.1-1h0.5v1h0.9v0.5H176v1.9c0,0.4,0.1,0.7,0.5,0.7c0.1,0,0.3,0,0.4-0.1
				l0.1,0.4c-0.2,0.1-0.4,0.1-0.6,0.1c-0.7,0-1-0.5-1-1.2V26.8z"/>
			<path class="st0" d="M177.7,30.8c0.4,0,0.6-0.3,0.8-0.7l0.1-0.3l-1.4-3.5h0.6l0.7,1.9c0.1,0.3,0.2,0.7,0.3,1h0
				c0.1-0.3,0.2-0.7,0.3-1l0.6-1.9h0.6l-1.3,3.8c-0.2,0.7-0.6,1.2-1.3,1.2c-0.2,0-0.3,0-0.4-0.1l0.1-0.5
				C177.5,30.8,177.6,30.8,177.7,30.8"/>
			<path class="st0" d="M183.8,29.4c0.6,0,1-0.5,1-1.3c0-0.8-0.4-1.3-1-1.3c-0.6,0-1,0.5-1,1.3C182.8,28.9,183.2,29.4,183.8,29.4
				 M183.8,26.3c0.8,0,1.6,0.7,1.6,1.8c0,1.1-0.8,1.8-1.6,1.8c-0.8,0-1.6-0.7-1.6-1.8C182.2,26.9,183,26.3,183.8,26.3"/>
			<path class="st0" d="M187.9,25.2c-0.1-0.1-0.3-0.1-0.4-0.1c-0.3,0-0.5,0.2-0.5,0.7v0.5h0.7v0.5H187v3h-0.6v-3H186v-0.4l0.5,0
				v-0.5c0-0.7,0.3-1.1,1-1.1c0.2,0,0.4,0.1,0.6,0.1L187.9,25.2z"/>
			<path class="st0" d="M191,29.3c1.1,0,1.6-0.7,1.6-1.9c0-1.2-0.5-1.8-1.6-1.8h-0.5v3.7H191z M189.9,25.1h1.2
				c1.4,0,2.2,0.8,2.2,2.3c0,1.5-0.8,2.4-2.2,2.4h-1.2V25.1z"/>
			<path class="st0" d="M194.2,26.3h0.6v2.1c0,0.6,0.2,0.9,0.6,0.9c0.4,0,0.6-0.2,0.9-0.6v-2.5h0.6v3.5h-0.5l-0.1-0.5h0
				c-0.3,0.4-0.7,0.6-1.1,0.6c-0.7,0-1.1-0.5-1.1-1.4V26.3z"/>
			<path class="st0" d="M199.6,29.4c0.6,0,1-0.5,1-1.4c0-0.8-0.3-1.3-0.9-1.3c-0.3,0-0.6,0.2-0.9,0.5V29
				C199,29.3,199.3,29.4,199.6,29.4 M198.1,24.7h0.6v1.4l0,0.6c0.3-0.3,0.7-0.5,1.1-0.5c0.9,0,1.4,0.7,1.4,1.8
				c0,1.2-0.7,1.9-1.5,1.9c-0.3,0-0.7-0.2-1-0.4h0l0,0.3h-0.5V24.7z"/>
			<path class="st0" d="M202.1,24.7h0.6v4.4c0,0.2,0.1,0.3,0.2,0.3c0,0,0.1,0,0.1,0l0.1,0.4c-0.1,0-0.2,0.1-0.3,0.1
				c-0.4,0-0.6-0.3-0.6-0.8V24.7z"/>
			<path class="st0" d="M203.9,26.3h0.6v3.5h-0.6V26.3z M203.8,25.2c0-0.2,0.2-0.4,0.4-0.4c0.2,0,0.4,0.1,0.4,0.4
				c0,0.2-0.2,0.4-0.4,0.4C204,25.6,203.8,25.5,203.8,25.2"/>
			<path class="st0" d="M205.7,26.3h0.5l0,0.5h0c0.3-0.3,0.7-0.6,1.2-0.6c0.7,0,1.1,0.5,1.1,1.4v2.2h-0.6v-2.1
				c0-0.6-0.2-0.9-0.7-0.9c-0.4,0-0.6,0.2-0.9,0.5v2.5h-0.6V26.3z"/>
			<path class="st0" d="M97.7,1.7v23.8c0,12.5,14.6,15.4,15.6,15.6c1-0.2,15.6-3.1,15.6-15.6V1.7c-1.3-0.2-7.5-0.8-15.6-0.8
				C105.2,0.9,99,1.6,97.7,1.7 M113.3,41.7L113.3,41.7c-0.2,0-16.2-2.8-16.2-16.2V1.2l0.3,0c0.1,0,6.7-0.8,15.9-0.8
				c9.2,0,15.8,0.8,15.9,0.8l0.3,0v24.3C129.5,38.9,113.5,41.7,113.3,41.7L113.3,41.7z"/>
			<path class="st0" d="M102.6,4.8c-0.6,0.2-0.8-0.6-1-0.7C102,4,102.2,4.8,102.6,4.8 M101.7,4.6c0.1,0.2,0.3,0.5,0.7,0.5
				c0.4,0,0.7-0.2,0.9-0.4c-0.4,0.1-0.7-0.2-0.8-0.3c-0.2-0.2-0.4-0.5-0.7-0.5c-0.1,0-0.4,0-0.6,0.2C101.4,4.1,101.6,4.4,101.7,4.6"
				/>
			<path class="st0" d="M108.8,3.8c0.4,0.3,1.3,0.3,1.7-0.1c0.3,0.3,1,0.3,1.4,0c0.3,0.1,0.9,0.4,1.5-0.3c-0.3,0-0.6-0.2-0.8-0.3
				c-0.3-0.2-0.6-0.4-1.1-0.1c-0.5-0.3-0.9-0.3-1.5,0c-0.6-0.4-1.3-0.2-1.5,0c-0.4-0.2-1.2-0.2-1.7,0.2c-0.3,0.3-0.6,0.8-0.6,1.2
				c0,0.8,0.5,1.5,1.5,1.6c0.5,0,1.3-0.1,2.1-0.2c0.8-0.1,1.5,0,2,0.1c0.7,0.3,0.8,1.1,0.2,1.2c-0.5,0.2-1.8-0.4-2.4,0.1
				c-0.6-0.8-2.4,0-3.2-0.1c-0.1,0.2-0.3,0.5-0.6,0.4c0.3,0.4,0.2,1.3-0.6,1.4c-0.2,0.5-0.6,0.7-1,0.4c-0.1,0.5-0.8,0.8-1.1,0.5
				c-0.2,0.2-0.3,0.5-0.2,0.7c-0.2,0.1-0.3,0.3-0.6,0.4c0-0.2,0-0.4-0.1-0.5c-0.1-0.1-0.3-0.1-0.4,0l-0.4,0l0.3,0.1
				c0,0,0,0.1-0.1,0.1c0.1-0.1,0.3,0,0.4,0.1l0,0c-0.4-0.1-0.6,0.1-0.6,0.3l-0.3,0.3l0.3-0.1c0,0.1,0.1,0.1,0.2,0.1
				c0.1,0,0.3,0,0.3-0.1c0-0.1-0.1-0.1-0.1-0.1c0.1,0,0.1,0,0.2,0c0,0,0,0.2-0.1,0.2c-0.2,0.1-0.3,0-0.4,0c-0.2,0.3,0,0.6,0.2,0.6
				l0.1,0.4l0.1-0.4c0.2,0,0.3-0.2,0.3-0.3c0.1,0,0.1,0,0.2,0.1l0.1,0.3l0.1-0.3c0,0,0,0,0.1,0c0.2-0.1,0.2-0.3,0.1-0.4
				c0.2,0,0.4-0.1,0.5-0.3c0.3,0.2,0.6,0.1,0.9-0.1l-0.2-0.2c0,0,0.5,0,0.7-0.2l-0.2-0.2c0,0,0.6-0.2,0.7-0.3c0,0-0.2-0.1-0.2-0.1
				s0.4-0.2,0.6-0.7c0.9,0,1.6-1.1,2.5-1.2C108.2,8,108,7.9,108,7.9l0.1-0.2c0.6,0.1,0.8,0.4,1,0.8c0.2,0.5,0.5,0.8,1,0.9
				s0.8,0,0.9,0c0.5,0,0.8,0.3,0.8,0.8c0,0.2-0.1,0.4-0.1,0.5c-0.2,0-0.5-0.3-0.8-0.2c0,0-0.1,0.1-0.1,0.1l-0.3,0.1l0.3,0.1
				c0,0.1,0,0.2,0,0.2c0.3-0.1,0.4-0.1,0.5-0.1l0,0.1c-0.2,0-0.7,0-0.7,0.5c0,0.1,0,0.2,0.1,0.2l-0.1,0.4l0.3-0.3
				c0.1,0,0.3,0,0.5-0.1c0.1,0.2,0.3,0.3,0.6,0.3l0.3,0.3l0-0.4c0.2-0.1,0.3-0.3,0.1-0.7c0.1,0,0.2,0,0.2,0l0.2,0.2l-0.1-0.3
				c0.1-0.1,0.1-0.3,0-0.5c0.2-0.1,0.3-0.3,0.3-0.4c-0.1,0-0.3,0-0.3,0s0.3-0.3,0.3-0.4c-0.2-0.1-0.4-0.2-0.4-0.4h0
				c0.2,0,0.3-0.1,0.3-0.3c0-0.1-0.1-0.3-0.3-0.3c0-0.2-0.1-0.3-0.3-0.3c-0.1,0-0.3,0.1-0.3,0.3h-0.3c0.2-0.3-0.2-1.4-1.4-1
				l-0.1-0.2c0.6-0.4,1.3-0.1,1.9-0.1c0.6,0,1-0.4,1-1c0-0.2-0.1-0.7-0.6-1.1c0.3-0.5-0.2-0.8-0.4-0.9c0,0.4-0.2,0.6-0.4,0.7
				c0-0.2-0.3-0.6-0.6-0.7c0,0.3-0.2,0.6-0.4,0.7c0-0.1-0.2-0.5-0.6-0.6c0,0.3-0.2,0.6-0.4,0.7c0-0.2-0.3-0.5-0.6-0.7
				c-0.1,0.3-0.4,0.7-0.9,0.7c-0.6,0-1.1-0.5-1.1-1.1c0-0.2,0.1-0.5,0.2-0.7c0,0-0.1-0.1-0.1-0.1l0.2-0.1
				C107.6,4,108.2,4.1,108.8,3.8"/>
			<path class="st0" d="M109.1,9.3c-0.2-0.1-0.5-0.5-0.6-0.9c-0.1,0-0.3,0-0.5,0.1c-0.1,0.1-0.3,0.6-0.3,0.6s-0.4,0-0.5,0.6l0.2-0.1
				c-0.1,0.4,0,0.8,0.2,1c-0.2,0.1-0.4,0.2-0.5,0.3c-0.1,0-0.1-0.3-0.3-0.4c-0.1-0.1-0.2-0.1-0.4,0l-0.3,0l0.3,0.1c0,0,0,0.1,0,0.1
				c0.1,0,0.3,0.1,0.3,0.2l-0.1,0.1c-0.4-0.2-0.7-0.1-0.8,0.2c0,0,0,0,0,0.1l-0.3,0.3l0.3-0.1c0,0.1,0.1,0.1,0.2,0.1
				c-0.3,0.3-0.1,0.6,0.2,0.7l0.2,0.4l0-0.4c0.3,0,0.3-0.3,0.4-0.4c0.1,0,0.1,0.1,0.2,0.1l0.1,0.3l0.1-0.3c0,0,0,0,0.1,0
				c0.2-0.1,0.1-0.4,0.1-0.4s0.3,0,0.5-0.2c0.2,0,0.4,0,0.7,0c0,0-0.2-0.2-0.2-0.2s0.4,0,0.5-0.1c-0.1-0.2-0.1-0.3-0.1-0.4h0.1
				c0.2,0,0.3-0.1,0.3-0.3c0-0.1-0.1-0.3-0.3-0.3h-0.1C108.7,9.8,108.9,9.5,109.1,9.3"/>
			<path class="st0" d="M102,8.1c-0.1-0.3-0.1-0.8,0-1.1h-0.4c0-0.4-0.7-0.5-0.7-0.7c0.1-0.2,0.3-0.1,0.5-0.3c0.1-0.1,0.1-0.3,0-0.4
				l0.1-0.3L101,5.7l-0.1,0c0.1-0.1,0.4-0.3,0.2-0.5c0-0.1-0.1-0.1-0.2-0.2l-0.2-0.4l-0.1,0.4c-0.1,0-0.1,0.1-0.2,0.2
				c0.1,0.1,0.2,0.3,0.1,0.5c0,0.1-0.1,0.2-0.1,0.2c0,0,0.1,0,0.1,0c0,0.1-0.1,0.1-0.1,0.1c-0.1,0-0.1-0.2,0-0.3
				c0.1-0.1,0.1-0.3,0-0.4c-0.1-0.1-0.2-0.1-0.4,0L99.8,5l0.1,0.4c-0.1,0.3,0,0.5,0,0.5c0,0-0.1,0.1-0.2,0.1l-0.4-0.2l0.3,0.4
				c0,0,0,0.1,0,0.1c0.1,0.2,0.3,0.3,0.4,0.3c-0.1,0.2,0,0.5,0.3,0.5c0,0.2,0.1,0.5,0.3,0.7l0.1-0.3c0.1,0.1,0.3,0.5,0.4,0.5
				c0,0,0.1-0.3,0.1-0.3S101.4,8.3,102,8.1"/>
			<path class="st0" d="M103.7,3.3L103.7,3.3C103.7,3.3,103.7,3.3,103.7,3.3c0.2,0,0.3-0.1,0.5-0.1c0.2,0,0.4,0.1,0.4,0.1l-0.1,0.1
				c0,0-0.1,0-0.1,0c0,0,0,0.1-0.1,0.1c0,0-0.1,0.1-0.2,0.1c-0.1,0-0.1,0-0.1-0.1c0,0-0.1-0.1-0.1-0.1c0,0,0,0,0,0c0,0,0,0-0.1,0
				c0,0,0,0-0.1,0c0,0-0.1,0-0.1-0.1C103.6,3.4,103.6,3.3,103.7,3.3 M102.8,3.7c0-0.1,0-0.2,0-0.2c0.1,0,0.1,0,0.2,0
				c0.1,0.1,0.1,0.1,0,0.2c-0.1,0.1-0.3,0.2-0.5,0.2c0,0.4,0.4,0.5,0.5,0.5c0.3,0,0.5-0.1,0.7-0.2c0.1-0.1,0.2-0.1,0.3-0.2
				c0.1-0.1,0.3,0,0.3,0.2l-0.1,0.4c-0.1,0.3-0.2,0.3-0.4,0.3c-0.3,0.1-1.2,0.1-1,0.8c0.1,0,0.3-0.1,0.5-0.2l0.3,0.1
				c0.3-0.4,0.8-0.2,1-0.8l0.2,0c-0.1,1-1.9,0.9-2.5,1.8c-0.3,0.5-0.3,1.6,0.3,2.2c0,0-0.1,0-0.1,0c-0.1,0-0.3,0.1-0.3,0.3
				c0,0.2,0.2,0.3,0.3,0.3c0.1,0,0.2-0.1,0.3-0.1c0-0.2,0.1-0.3,0.4-0.4c-0.1-0.4-0.9-0.9-0.5-1.8l0.1,0.1c-0.2,0.8,0.7,1.4,0.7,1.9
				c0,0.1-0.1,0.1-0.1,0.1c-0.1,0-0.1,0,0-0.1l0-0.1c-0.1,0-0.2,0.1-0.2,0.1c0,0.1-0.1,0.1,0,0.2c0,0.1,0.1,0.1,0.1,0.2
				c0.1,0,0.2,0.1,0.4,0c0.2-0.1,0.4-0.3,0.4-0.6c0,0,0-0.2,0-0.3c-0.5-0.4-0.9-1.2-0.6-2.1l0.1,0c-0.2,0.6,0.1,1.6,0.8,2.1
				c0.1,0,0.1,0.1,0,0.2c0,0-0.1,0-0.1,0c0,0-0.1,0-0.1-0.1c0,0.1,0,0.2,0.1,0.3v0c0,0,0.1,0.1,0.2,0.1c0.2,0,0.4-0.2,0.5-0.5
				c0.1-0.6-1.1-1.2-0.7-2.3l0.2,0c-0.3,1.2,0.8,1.2,0.8,2.2c0.3,0,0.5-0.3,0.4-0.7c-0.1-0.5-0.8-0.6-0.6-1.4l0.2,0
				c-0.1,0.2-0.1,0.5,0.2,0.7c0.2,0.1,0.4,0.1,0.6,0c0.2-0.1,0.2-0.4,0.1-0.6c-0.4,0-0.5-0.4-0.5-0.8c0-0.3,0-0.5-0.2-0.7
				c0.4-0.2,0.3-0.6,0.2-0.7c0.2-0.2,0.1-0.5,0-0.6c0.1-0.1,0.3-0.2,0.3-0.6c-0.1,0-0.2,0-0.4,0c0.1-0.1,0.1-0.2,0.1-0.3
				c0-0.1-0.1-0.2-0.3-0.2c-0.2,0-0.3,0.1-0.3,0.3c0,0-0.3,0-0.5-0.1c-0.3-0.1-0.8-0.2-1,0l-0.3,0.3c0,0-0.4,0-0.8,0.1
				C102.4,3.5,102.4,3.8,102.8,3.7"/>
			<path class="st0" d="M120.8,13.1c-0.1,0.3,0.2,0.5,0.5,0.5c0.3,0,0.7-0.1,1.1-0.9c0.2-0.4,0.2-0.9,0-1.2
				c-0.2-0.2-0.6-0.4-0.8-0.2c0.4,0.1,0.4,0.6,0.2,1.1C121.6,12.9,121.2,13.2,120.8,13.1"/>
			<path class="st0" d="M121.4,11.5c-1.7-1-3.5-3.4-3-6.9c-0.2,0-0.5,0.1-0.6,0.1c-0.5,3-0.2,6.2,3,8.3
				C121.4,13.1,121.9,11.9,121.4,11.5"/>
			<path class="st0" d="M125,2.9c-0.1,0-0.1,0-0.2,0c-0.5,0-1,0.2-1.5,0.3c-0.7,0.2-1.4,0.4-2.2,0.4c-0.7,0-1.3-0.2-1.8-0.6
				c0,0-0.1-0.1-0.1-0.1c-0.4-0.3-0.7-0.5-1.3-0.5c-0.5,0-1,0.4-1,0.9c0,0.5,0.4,0.8,0.9,0.8c0.4,0,0.6-0.2,0.6-0.5
				c0-0.2,0-0.4-0.3-0.5l0.1-0.3c0.5,0.1,0.8,0.6,0.5,1.1c0.4,0.4,1.3,0.7,2.1,0.7c0.9,0,1.6-0.3,2.3-0.6c0.6-0.2,1.1-0.4,1.5-0.4
				c0.1,0,0.1,0,0.2,0l0,0l-0.1,0.3l1.1,0.4l0.1-0.3c0-0.1,0.1-0.2,0.1-0.3C126,3.4,125.6,3,125,2.9"/>
			<path class="st0" d="M122.5,14.8L122.5,14.8l0-0.2l-2-0.7l-0.1,0.2h0c0,0,0,0-0.1,0c-0.1,0-0.2,0.1-0.2,0.2c0,0.1,0,0.3,0.1,0.3
				l-0.1,0.3l2,0.7l0.1-0.2h0c0,0,0,0,0.1,0c0.1,0,0.2-0.1,0.2-0.2C122.6,15,122.6,14.8,122.5,14.8"/>
			<polygon class="st0" points="124.6,4.4 124.5,4.7 124.4,4.6 124.2,5 125.7,5.5 125.8,5.2 125.7,5.1 125.8,4.8 			"/>
			<path class="st0" d="M122.6,11.3l-0.2-0.3l2.2-5.6l-0.4-0.1l-0.1,0.3l-0.6-1.1c-0.1,0-0.1,0.1-0.2,0.1c0,0,0,0,0,0l0.7,1.3
				l-0.3,0.6l-1-1.7c-0.1,0-0.2,0.1-0.3,0.1l1.1,1.9l-0.3,0.6L122,5.1c-0.1,0-0.2,0-0.3,0.1l1.5,2.6c0,0-0.3,0.6-0.3,0.6v0l-1.8-3.1
				c-0.1,0-0.2,0-0.3,0l2,3.4c-0.1,0.1-0.3,0.6-0.3,0.6l-2.4-4c-0.1,0-0.2,0-0.4-0.1l2.6,4.4c0,0-0.2,0.5-0.3,0.6l-3.1-5.3
				c-0.2-0.1-0.3-0.2-0.5-0.3l3.5,5.9c0,0-0.2,0.6-0.3,0.7c0.6-0.1,1.2,0.7,0.8,1.7c-0.3,0.7-0.8,1-1.1,1l1,0.4l2.9-8.5l-0.5-0.2
				L122.6,11.3z"/>
			<path class="st0" d="M110.2,23.7L110.2,23.7v-8.9h6c0.5,0,0.9,0.1,1.1,0.5c0.1,0.2,0,0.5-0.1,0.6c-0.1,0.2-0.3,0.2-0.5,0.2
				l-5.2,0v0.6c0.1,0,0.1,0,0.2,0c0,0,0.1,0,0.1,0v-0.2h0.1c0,0,4.6,0,4.9,0c0.3,0,0.5-0.1,0.7-0.4l0,0c0,0,0,0,0,0v0l0,0
				c0.1-0.2,0.2-0.5,0.1-0.8c-0.2-0.5-0.6-0.8-1.2-0.8h-6.6V24h0.8C110.4,23.8,110.3,23.8,110.2,23.7L110.2,23.7z"/>
			<path class="st0" d="M111.5,20.3V21c0.1,0,0.1,0,0.2,0c0,0,0.1,0,0.1,0v-0.7c0,0-0.1,0-0.1,0C111.6,20.3,111.6,20.3,111.5,20.3"
				/>
			<path class="st0" d="M108.9,21.6L108.9,21.6c0-0.4-0.1-0.7-0.3-0.7c0,0-0.1,0-0.1,0c-0.1,0-0.2,0-0.2,0.2l0,0.2l-0.2-0.1
				c0,0-0.1,0-0.1,0c-0.1,0-0.2,0.1-0.2,0.2c0,0.2,0,0.5,0.4,0.7l0.1,0l0,0.1c0,0.2,0.1,0.4,0.3,0.5c0.1,0,0.2-0.1,0.2-0.2l0-0.2
				l0.2,0.1c0.1,0,0.2,0.1,0.4,0.1c0.1,0,0.1,0,0.2,0v-0.7C109.4,21.7,109.1,21.7,108.9,21.6L108.9,21.6z"/>
			<path class="st0" d="M108.9,16.2L108.9,16.2c0-0.4-0.1-0.7-0.3-0.7c0,0-0.1,0-0.1,0c-0.1,0-0.2,0-0.2,0.2l0,0.2l-0.2-0.1
				c0,0-0.1,0-0.1,0c-0.1,0-0.2,0.1-0.2,0.2c0,0.2,0,0.5,0.4,0.7l0.1,0l0,0.1c0,0.2,0.1,0.4,0.3,0.5c0.1,0,0.2-0.1,0.2-0.2l0-0.2
				l0.2,0.1c0.1,0,0.2,0.1,0.4,0.1c0.1,0,0.1,0,0.2,0v-0.7C109.4,16.3,109.1,16.3,108.9,16.2L108.9,16.2z"/>
			<path class="st0" d="M116.8,24.6h-5v-0.3c0,0-0.1,0-0.1,0c-0.1,0-0.1,0-0.2,0V25h5.3c0.3,0,0.7-0.1,0.8-0.3c0-0.1,0-0.2,0-0.3
				C117.5,24.5,117.2,24.6,116.8,24.6"/>
			<path class="st0" d="M111.5,22.6v0.3c0.1,0,0.1,0,0.2,0c0,0,0.1,0,0.1,0v-0.2c0,0-0.1,0-0.1,0C111.6,22.6,111.6,22.6,111.5,22.6"
				/>
			<path class="st0" d="M110.5,15.3v8.2c0.1,0.1,0.2,0.1,0.4,0.3c0-0.1,0-0.1,0-0.2c0-0.2,0.1-0.4,0.3-0.6v-0.6
				c-0.2-0.1-0.3-0.4-0.3-0.6c0-0.2,0.1-0.5,0.3-0.6v-1.1c-0.2-0.1-0.3-0.4-0.3-0.6c0-0.2,0.1-0.4,0.3-0.6v-0.6
				c-0.2-0.1-0.3-0.4-0.3-0.6c0-0.2,0.1-0.4,0.3-0.6V16h0.1C111.1,15.6,110.7,15.4,110.5,15.3"/>
			<path class="st0" d="M116.7,16c0.1,0,0.2,0,0.2-0.1c0.1-0.1,0.1-0.2,0-0.3c-0.1-0.2-0.2-0.3-0.7-0.3h-5.1
				c0.2,0.2,0.5,0.4,0.6,0.7H116.7z"/>
			<path class="st0" d="M117.1,24.4c0.2,0,0.4-0.1,0.4-0.4v-7.4c-0.1,0.1-0.3,0.2-0.4,0.2L117.1,24.4z"/>
			<path class="st0" d="M112,18.4v0.4c0.1,0.1,0.3,0.2,0.3,0.3c0.1-0.1,0.2-0.3,0.2-0.5c0-0.2-0.1-0.4-0.2-0.5v0
				C112.3,18.2,112.2,18.3,112,18.4"/>
			<path class="st0" d="M111.7,18.5c-0.1,0-0.1,0-0.2,0v0.3c0.1,0,0.1,0,0.2,0c0,0,0.1,0,0.1,0v-0.2
				C111.8,18.5,111.7,18.5,111.7,18.5"/>
			<path class="st0" d="M112.4,23.2c0.1-0.1,0.2-0.3,0.2-0.5c0-0.2-0.1-0.4-0.2-0.5c-0.1,0.1-0.2,0.3-0.3,0.3v0.4
				C112.2,22.9,112.3,23.1,112.4,23.2"/>
			<path class="st0" d="M112.1,19.5c0-0.2-0.2-0.4-0.4-0.4c-0.2,0-0.4,0.2-0.4,0.4c0,0.2,0.2,0.4,0.4,0.4
				C111.9,19.9,112.1,19.7,112.1,19.5"/>
			<path class="st0" d="M112.1,21.8c0-0.2-0.2-0.4-0.4-0.4c-0.2,0-0.4,0.2-0.4,0.4c0,0.2,0.2,0.4,0.4,0.4
				C111.9,22.2,112.1,22,112.1,21.8"/>
			<path class="st0" d="M111.7,17.2c-0.2,0-0.4,0.2-0.4,0.4c0,0.2,0.2,0.4,0.4,0.4c0.2,0,0.4-0.2,0.4-0.4
				C112.1,17.4,111.9,17.2,111.7,17.2"/>
			<path class="st0" d="M112.1,23.6c0-0.2-0.2-0.4-0.4-0.4c-0.2,0-0.4,0.2-0.4,0.4c0,0.2,0.2,0.4,0.4,0.4
				C111.9,24,112.1,23.8,112.1,23.6"/>
			<polygon class="st0" points="116.2,18.2 114.9,19.4 116.1,20.5 116.8,19.8 116.8,18.8 			"/>
			<polygon class="st0" points="116.4,18 116.8,18.4 116.8,17.6 			"/>
			<path class="st0" d="M112,24.4h2.4l-1-1l-0.4,0.4l-0.2-0.2l0.4-0.4l-0.2-0.2l0.2-0.2l0.2,0.2l1-1l-1.1-1.2l-0.5,0.5l-0.2-0.2
				l0.5-0.5l-0.5-0.5l0.2-0.2l0.5,0.5l1.2-1.2l-1.1-1.2l-0.2,0.1l-0.2-0.2l0.1-0.1l-0.5-0.5l0.2-0.2l0.5,0.5l1.1-1H112v0.1
				c0.3,0.1,0.5,0.4,0.5,0.7c0,0,0,0,0,0c0.3,0.2,0.4,0.5,0.4,0.9c0,0.3-0.2,0.7-0.4,0.9c0,0,0,0,0,0c0,0.3-0.2,0.6-0.5,0.7v0.8
				c0.3,0.1,0.5,0.4,0.5,0.7c0,0,0,0,0,0c0.3,0.2,0.4,0.5,0.4,0.9c0,0.3-0.2,0.7-0.4,0.9c0,0,0,0,0,0c0,0.3-0.2,0.6-0.5,0.7V24.4z"
				/>
			<polygon class="st0" points="115.2,16.9 116.2,17.8 116.8,17.2 116.8,16.9 			"/>
			<polygon class="st0" points="116.2,20.7 116.8,21.3 116.8,20.2 			"/>
			<polygon class="st0" points="116.8,22.5 116.8,21.6 116.1,20.9 114.8,22.1 116,23.3 			"/>
			<polygon class="st0" points="116.1,23.4 116.8,24.1 116.8,22.8 			"/>
			<polygon class="st0" points="113.6,18 114.8,19.2 116,18 114.9,16.9 			"/>
			
				<rect x="113.8" y="19.9" transform="matrix(0.7161 -0.698 0.698 0.7161 18.0902 85.9459)" class="st0" width="1.7" height="1.6"/>
			<polygon class="st0" points="115.8,23.4 114.6,22.3 113.6,23.3 114.8,24.4 			"/>
			<polygon class="st0" points="115.1,24.4 116.7,24.4 116,23.6 			"/>
			<path class="st0" d="M113.9,32.7h-0.5v-0.5h0.5V32.7z M113.1,32.7h-0.5v-0.5h0.5V32.7z M114.2,32.7v-0.5h0.4
				c0-0.1-0.1-0.2-0.2-0.3h-0.2v-0.2c-0.1-0.1-0.2-0.1-0.3-0.2V32h-0.5v-0.4h-0.3V32h-0.5v-0.4c-0.1,0.1-0.2,0.1-0.3,0.2V32h-0.2
				c-0.1,0.1-0.1,0.2-0.2,0.3h0.3v0.5h-0.5c0,0,0,0.1,0,0.1V33h0.5v0.5h0.3V33h0.5v0.5h0.3V33h0.5v0.5h0.3V33h0.5v-0.2
				c0,0,0-0.1,0-0.1H114.2z"/>
			<path class="st0" d="M104.2,25.6C104.2,25.6,104.2,25.6,104.2,25.6l0.4-0.1l0.3,0.8c0.1,0,0.2,0,0.3,0v-0.9h1.4v0.9
				c0.1,0,0.2,0,0.3,0l0.3-0.8l0.3,0l0.1,0c-0.1-0.8-0.8-1.5-1.6-1.5C104.9,24.1,104.3,24.7,104.2,25.6"/>
			<path class="st0" d="M118.8,29.1c0-0.2,0.1-0.3,0.3-0.4l0-1h-0.7v1.2h-1.4v-1.2h-1.5v1.2H114v-1.2h-1.4v1.2h-1.4v-1.2h-1.4v1.2
				h-1.4v-1.2h-0.7l0,1c0.1,0.1,0.2,0.2,0.3,0.4c0,0.2-0.1,0.4-0.2,0.5l0,0.2H119l0-0.2C118.9,29.4,118.8,29.2,118.8,29.1"/>
			<path class="st0" d="M109.6,31.7L109.6,31.7v1.1h-0.4h-0.4v-1v0V31c0-0.2,0.2-0.4,0.3-0.5l0.1-0.1l0.1,0.1
				c0.1,0.1,0.3,0.3,0.3,0.5V31.7z M112.5,30.4l0-0.4h-4.9l0.3,5.2h2.9v-2.4C110.7,31.7,111.5,30.7,112.5,30.4"/>
			<path class="st0" d="M111,32.8v0.3h0.6v-0.3c0-0.1,0-0.2,0-0.3l-0.6-0.2C111,32.5,111,32.7,111,32.8"/>
			<rect x="111" y="34.5" class="st0" width="0.6" height="0.7"/>
			<rect x="111" y="33.5" class="st0" width="0.6" height="0.7"/>
			<path class="st0" d="M115,32.6c0,0.1,0,0.2,0,0.3v0.3h0.6v-0.3c0-0.1,0-0.3,0-0.4L115,32.6z"/>
			<path class="st0" d="M111.6,31.3c-0.2,0.2-0.3,0.5-0.4,0.7l0.6,0.1c0.1-0.2,0.2-0.3,0.3-0.5L111.6,31.3z"/>
			<rect x="115" y="34.5" class="st0" width="0.6" height="0.7"/>
			<path class="st0" d="M115,31.3l-0.4,0.4c0.1,0.1,0.2,0.3,0.3,0.5l0.6-0.1C115.3,31.8,115.2,31.6,115,31.3"/>
			<rect x="115" y="33.5" class="st0" width="0.6" height="0.7"/>
			<polygon class="st0" points="113.7,30 112.8,30 112.9,31.4 113.6,31.4 			"/>
			<path class="st0" d="M112.6,31.3l0-0.6c-0.3,0.1-0.5,0.2-0.8,0.4l0.4,0.4C112.3,31.4,112.5,31.3,112.6,31.3"/>
			<path class="st0" d="M114.8,31.1c-0.2-0.2-0.5-0.3-0.8-0.4l0,0.6c0.1,0.1,0.3,0.1,0.4,0.2L114.8,31.1z"/>
			<path class="st0" d="M104.7,27.8l0-0.2l0,0c0,0,0,0,0.1,0c0.3-0.1,0.7-0.1,1.1-0.1c0.2,0,0.5,0,0.7,0l0,0.3c-0.2,0-0.5,0-0.7,0
				c-0.1,0-0.3,0-0.4,0l0,0.9l-0.3,0l0-0.9c-0.1,0-0.2,0-0.3,0C104.8,27.8,104.7,27.8,104.7,27.8L104.7,27.8L104.7,27.8z
				 M104.4,28.8c-0.3,0.1-0.3,0.5,0,0.4c0.7-0.1,2.1-0.1,2.8,0c0.3,0,0.3-0.4,0-0.4l0-1.3l0.7-1.5c-0.2,0-0.3-0.1-0.5-0.1
				c0,0-0.1,0-0.1,0l-0.3,0.8l-0.1,0c-0.2,0-0.4,0-0.6,0l-0.1,0v-0.8h-0.7v0.8h-0.1c-0.2,0-0.4,0-0.6,0l-0.1,0l-0.3-0.8
				c-0.2,0-0.4,0.1-0.5,0.1l0.7,1.5L104.4,28.8z"/>
			<path class="st0" d="M106.6,29.5l0,0.9c0.2,0,0.3,0,0.4,0l0,0.3h0c-0.3,0-0.7,0-1.2,0c-0.2,0-0.4,0-0.5,0l0,1.5
				c0.2,0,0.4,0,0.6,0c0.6,0,1,0,1.3,0l0,0.3c-0.1,0-0.3,0-0.5,0l0,1.5c0.2,0,0.4-0.1,0.5-0.1l0,0.3c-0.3,0.1-0.8,0.1-1.4,0.1
				c-0.2,0-0.5,0-0.7,0l0,1.5c-0.1,0-0.2,0-0.3,0l0-1.5c-0.2,0-0.4-0.1-0.6-0.1l0-0.3l0,0c0.3,0.1,0.9,0.2,1.5,0.2
				c0.2,0,0.4,0,0.6,0l0-1.5c-0.2,0-0.4,0-0.6,0c-0.6,0-1.1,0-1.4,0l0-0.3l0,0c0.1,0,0.3,0,0.5,0l0.1-1.5c-0.2,0-0.4,0-0.5,0l0-0.3
				c0.3,0,0.7,0,1.3,0c0.2,0,0.4,0,0.5,0l0-0.9c-0.7,0-1.5,0-1.9,0.1l-0.3,6.1c0,0.1,0.6,0.3,1.8,0.3c1.2,0,1.7-0.2,1.7-0.3
				l-0.3-6.1C107.1,29.5,106.8,29.5,106.6,29.5"/>
			<path class="st0" d="M119.5,25.5l0.3,0.8c0.1,0,0.2,0,0.3,0l0-0.9h1.4v0.9c0.1,0,0.2,0,0.3,0l0.3-0.8l0.3,0.1c0,0,0,0,0.1,0
				c-0.1-0.8-0.8-1.5-1.6-1.5c-0.8,0-1.5,0.6-1.6,1.5l0.1,0L119.5,25.5z"/>
			<path class="st0" d="M121.9,27.8C121.8,27.8,121.8,27.8,121.9,27.8c-0.2,0-0.3,0-0.4-0.1l0,0.9l-0.3,0l0-0.9c-0.2,0-0.3,0-0.4,0
				c-0.2,0-0.5,0-0.7,0l0-0.3c0.2,0,0.5,0,0.7,0c0.4,0,0.8,0,1.1,0.1c0,0,0.1,0,0.1,0l0,0L121.9,27.8L121.9,27.8L121.9,27.8z
				 M121.9,26.7L121.9,26.7c-0.3,0-0.5,0-0.7-0.1h-0.1v-0.8h-0.7l0,0.8l-0.1,0c-0.2,0-0.4,0-0.6,0l-0.1,0l-0.3-0.8c0,0-0.1,0-0.1,0
				c-0.2,0-0.3,0-0.5,0.1l0.7,1.5l0,1.3c-0.4,0.1-0.3,0.5,0,0.4c0.7-0.1,2.1-0.1,2.8,0c0.3,0,0.3-0.4,0-0.4l0-1.3l0.7-1.5
				c-0.2,0-0.4-0.1-0.5-0.1L121.9,26.7z"/>
			<path class="st0" d="M120.2,29.5l0,0.9c0.2,0,0.3,0,0.5,0c0.6,0,1,0,1.3,0l0,0.3c-0.1,0-0.3,0-0.5,0l0,1.5c0.2,0,0.4,0,0.5,0l0,0
				l0,0.3c-0.3,0-0.8,0.1-1.4,0.1c-0.2,0-0.4,0-0.6,0l0,1.5c0.2,0,0.4,0,0.6,0c0.6,0,1.1-0.1,1.5-0.2l0,0l0,0.3
				c-0.2,0-0.3,0.1-0.6,0.1l0,1.5c-0.1,0-0.2,0-0.3,0l0-1.5c-0.2,0-0.4,0-0.7,0c-0.6,0-1.1-0.1-1.4-0.1l0-0.3c0.1,0,0.3,0.1,0.5,0.1
				l0-1.5c-0.2,0-0.4,0-0.5,0l0-0.3c0.3,0,0.7,0,1.3,0c0.2,0,0.4,0,0.6,0l0-1.5c-0.2,0-0.3,0-0.5,0c-0.6,0-1,0-1.2,0h0l0-0.3
				c0.1,0,0.3,0,0.4,0l0-0.9c-0.3,0-0.5,0-0.6,0.1l-0.3,6.1c0,0.1,0.5,0.3,1.7,0.3c1.2,0,1.7-0.2,1.8-0.3l-0.3-6.1
				C121.8,29.5,120.9,29.5,120.2,29.5"/>
			<path class="st0" d="M116.9,31.7L116.9,31.7V31c0-0.2,0.2-0.4,0.3-0.5l0.1-0.1l0.1,0.1c0.1,0.1,0.3,0.3,0.3,0.5v0.7v0v1h-0.4
				h-0.4V31.7z M114,30.4c1,0.3,1.8,1.3,1.8,2.4v2.4h2.9L119,30h-4.9L114,30.4z"/>
			<path class="st0" d="M104.7,20.5v1H104v-1h-1v-0.6h1v-1h0.6v1h1v0.6H104.7z M105.6,18.1c0-0.1,0.1-0.2,0.2-0.2
				c0.1,0,0.2,0.1,0.2,0.2c0,0.1-0.1,0.2-0.2,0.2C105.7,18.2,105.6,18.1,105.6,18.1 M105.7,23.9L105.7,23.9h0.3h0v-5.4
				c0.2-0.1,0.3-0.2,0.3-0.4c0-0.2-0.2-0.4-0.4-0.4c-0.2,0-0.4,0.2-0.4,0.4c0,0.2,0.1,0.3,0.3,0.4v0.1h-2.9v3.2h2.9V23.9z"/>
			<path class="st0" d="M123.5,19.3l-0.9,0.9l0.9,0.9v0.4h-0.4l-0.9-0.9l-0.9,0.9h-0.4V21l0.9-0.9l-0.9-0.9v-0.5h0.4l0.9,0.9
				l0.9-0.9h0.4L123.5,19.3z M120.8,18.2c-0.1,0-0.2-0.1-0.2-0.2c0-0.1,0.1-0.2,0.2-0.2c0.1,0,0.2,0.1,0.2,0.2
				C120.9,18.1,120.9,18.2,120.8,18.2 M120.9,18.5L120.9,18.5c0.2-0.2,0.3-0.3,0.3-0.5c0-0.2-0.2-0.4-0.4-0.4
				c-0.2,0-0.4,0.2-0.4,0.4c0,0.2,0.1,0.3,0.3,0.4v5.4h0h0.2h0v-2.1h2.9v-3.2H120.9z"/>
		</g>
	</g>
</g>
</svg>
