<svg xmlns="http://www.w3.org/2000/svg" width="49.7" height="37.4" style="overflow:visible;enable-background:new 0 0 49.7 37.4" viewBox="0 0 49.7 37.4">
  <path style="fill:#000000" d="M25.6 18.4c-1.3-.2-2.7-.4-3.8-.6-4.7-.6-9.4-1.5-14.2-2.1-.7 0-1.1-.4-1.1-.8-2.2-4.5-4.3-9-6.5-13.4V0h1.6C11 3.6 20.2 7 29.5 10.6c5.6 2.1 11 4.2 16.6 6.1.9.4 1.8.6 2.7 1.1.4.2.9.6.9 1.1 0 .4-.7.8-1.1 1.1-6.1 2.3-12.1 4.4-18.2 6.8-9.4 3.4-19.1 7-28.6 10.6-.4.2-1.1 0-1.6 0 0-.6-.2-1.1 0-1.7 2-4.4 4-8.7 6.1-13.1.4-1.1 1.6-1.1 2.5-1.1 4.9-.8 9.9-1.5 14.8-2.1.7 0 1.3-.2 2-.2v-.8z"/>
</svg>