<svg xmlns="http://www.w3.org/2000/svg" xml:space="preserve" width="176.5" height="85.5" style="overflow:visible;enable-background:new 0 0 176.5 85.5" viewBox="0 0 176.5 85.5">
  <style>
    .st0{fill:#FFFFFF}
  </style>
  <path d="M5.1 30.3h76.5V55H5.1zM94.6 30.3h76.5V55H94.6z" class="st0"/>
  <path d="M78.5 52.4v-2.7h-5.6v-5.3h4v-2.7h-4V37h5.2v-2.7h-8.3v18.1h8.7zM67.7 40.3V39c0-2.7-1.5-4.9-4.6-4.9-3.3 0-4.8 2.1-4.8 4.6V48c0 2.5 1.5 4.6 4.8 4.6 3.1 0 4.6-2.1 4.6-4.6v-2.1h-3.1v2.2c0 1.2-.4 1.8-1.5 1.8-1.3 0-1.6-.7-1.6-2v-9.2c0-1.4.4-2 1.6-2 .8 0 1.5.7 1.5 2.2v1.4h3.1zM49.3 52.4V41.1h.1l4 11.3H56V34.3h-2.8v10.3h-.1l-3.8-10.3h-2.9v18.1h2.9zm-4.6 0v-2.7h-5.6v-5.3h4v-2.7h-4V37h5.2v-2.7H36v18.1h8.7zM33.2 34.3h-3.1v18.1h3.1V34.3zm-5.5 6V39c0-2.7-1.5-4.9-4.6-4.9-3.3 0-4.8 2.1-4.8 4.6V48c0 2.5 1.5 4.6 4.8 4.6 3.1 0 4.6-2.1 4.6-4.6v-2.1h-3.1v2.2c0 1.2-.4 1.8-1.5 1.8-1.3 0-1.7-.7-1.7-2v-9.2c0-1.4.4-2 1.7-2 .8 0 1.5.7 1.5 2.2v1.4h3.1zm-11.4-1.9C16 35.9 14.5 34 12 34c-3.1 0-4.8 1.6-4.8 4.5 0 5.2 6.3 6.2 6.3 9.7 0 1.1-.7 1.7-1.8 1.7-1 0-1.7-.9-1.9-2.7l-2.9.4c.1 2.7 1.8 5 4.7 5s4.9-1.7 4.9-4.6c.1-5-6.3-6.5-6.3-9.5 0-1.1.6-1.8 1.6-1.8.7 0 1.5.5 1.6 2l2.9-.3zm69.1 4.3c0 23.6-19.1 42.7-42.7 42.7S0 66.3 0 42.7 19.1 0 42.7 0s42.7 19.1 42.7 42.7m81.9 2.2 3.8-10.6h-3.2l-2.1 6.9h-.1l-2.2-6.9h-3.2l3.8 10.6v7.5h3.1l.1-7.5zm-13.7-8h1.1c1.7 0 2.3.6 2.3 2.8 0 2.1-.6 2.8-2.3 2.8h-1.1v-5.6zm0 8.1c.6 0 1.2 0 1.6-.1l2.2 7.5h3.2l-2.6-8.2c1.1-.5 2.2-1.7 2.2-4.6 0-3.9-1.8-5.3-5.2-5.3h-4.4v18.1h3.1V45zm-4.9 7.4v-2.7h-5.5v-5.3h4v-2.7h-4V37h5.2v-2.7H140v18.1h8.7zm-10.5 0v-2.7h-4.9V34.3h-3.1v18.1h8zm-9.5 0v-2.7h-4.9V34.3h-3.1v18.1h8zm-15.1-14.5 1.3 7.7h-2.5l1.2-7.7zm-1.7 10.5h3.4l.6 4h3l-3.3-18.1h-3.9l-3.3 18.1h3l.5-4zm-10.3-2.7h2v1.7c0 1.8-.5 2.5-1.7 2.5-1.1 0-1.5-.8-1.5-1.9v-9.3c0-1.5.6-2 1.4-2 1.2 0 1.8.7 1.8 3.4h2.9V39c0-2.7-1.5-5-4.7-5-3.1 0-4.6 2.1-4.6 4.6V48c0 2.9 1.7 4.6 4.2 4.6 1.5 0 2.2-.5 3.2-1.6l.6 1.4h1.5v-9.2h-5.1v2.5zm74.9 39.8H91V0h85.5v85.5z"/>
</svg>