<?xml version="1.0" encoding="utf-8"?>
<!-- Generator: Adobe Illustrator 19.0.0, SVG Export Plug-In . SVG Version: 6.00 Build 0)  -->
<svg version="1.1" id="Layer_1" xmlns="http://www.w3.org/2000/svg" xmlns:xlink="http://www.w3.org/1999/xlink" x="0px" y="0px"
	 width="347.1px" height="168.1px" viewBox="-929.4 1129 347.1 168.1" style="enable-background:new -929.4 1129 347.1 168.1;"
	 xml:space="preserve">
<style type="text/css">
	.st0{fill:#FFFFFF;}
</style>
<g>
	<path class="st0" d="M-775,1232v-5.3h-11v-10.4h7.9v-5.3h-7.9v-9.2h10.2v-5.3h-16.3v35.5L-775,1232L-775,1232z M-796.3,1208.3v-2.6
		c0-5.3-2.9-9.7-9-9.7c-6.4,0-9.4,4.1-9.4,9.1v18.3c0,5,3,9.1,9.4,9.1c6.1,0,9-4.1,9-9.1v-4.1h-6.1v4.3c0,2.3-0.7,3.6-3,3.6
		c-2.5,0-3.2-1.3-3.2-3.9v-18c0-2.7,0.8-3.9,3.2-3.9c1.6,0,3,1.3,3,4.3v2.8h6.1V1208.3z M-832.5,1232v-22.2h0.1l7.8,22.2h5.3v-35.5
		h-5.5v20.3h-0.1l-7.4-20.3h-5.7v35.5H-832.5z M-841.6,1232v-5.3h-11v-10.4h7.9v-5.3h-7.9v-9.2h10.2v-5.3h-16.3v35.5L-841.6,1232
		L-841.6,1232z M-864.2,1196.5h-6.1v35.5h6.1V1196.5z M-874.9,1208.3v-2.6c0-5.3-3-9.7-9-9.7c-6.4,0-9.4,4.1-9.4,9.1v18.3
		c0,5,2.9,9.1,9.4,9.1c6.1,0,9-4.1,9-9.1v-4.1h-6.1v4.3c0,2.3-0.7,3.6-2.9,3.6c-2.5,0-3.3-1.3-3.3-3.9v-18c0-2.7,0.8-3.9,3.3-3.9
		c1.6,0,2.9,1.3,2.9,4.3v2.8h6.1V1208.3z M-897.3,1204.6c-0.5-5-3.5-8.6-8.5-8.6c-6,0-9.5,3.2-9.5,8.9c0,10.2,12.4,12.1,12.4,19.1
		c0,2.1-1.4,3.3-3.5,3.3c-2,0-3.4-1.8-3.7-5.4l-5.8,0.8c0.2,5.3,3.5,9.9,9.2,9.9s9.6-3.3,9.6-9.1c0.1-9.8-12.3-12.7-12.3-18.7
		c0-2.2,1.1-3.5,3.1-3.5c1.4,0,3,0.9,3.2,3.9L-897.3,1204.6z M-761.4,1213c0,46.4-37.6,84-84,84s-84-37.6-84-84s37.6-84,84-84
		S-761.4,1166.6-761.4,1213"/>
	<path class="st0" d="M-600.4,1217.2l7.4-20.8h-6.2l-4.1,13.5h-0.1l-4.3-13.5h-6.2l7.4,20.8v14.8h6.1L-600.4,1217.2L-600.4,1217.2z
		 M-627.4,1201.5h2.2c3.3,0,4.5,1.2,4.5,5.5c0,4.2-1.2,5.5-4.5,5.5h-2.2V1201.5z M-627.4,1217.4c1.1,0,2.4,0,3.2-0.1l4.3,14.7h6.2
		l-5.2-16.1c2.1-0.9,4.3-3.3,4.3-9c0-7.6-3.5-10.5-10.3-10.5h-8.6v35.5h6.1V1217.4z M-637.1,1232v-5.3H-648v-10.4h7.9v-5.3h-7.9
		v-9.2h10.2v-5.3h-16.3v35.5L-637.1,1232L-637.1,1232z M-657.6,1232v-5.3h-9.6v-30.2h-6.1v35.5H-657.6z M-676.4,1232v-5.3h-9.6
		v-30.2h-6.1v35.5H-676.4z M-706,1203.6L-706,1203.6l2.5,15.2h-4.9L-706,1203.6z M-709.3,1224.1h6.7l1.1,7.9h5.9l-6.5-35.5h-7.6
		l-6.5,35.5h5.9L-709.3,1224.1z M-729.6,1218.8h3.9v3.4c0,3.6-0.9,4.9-3.3,4.9c-2.1,0-2.9-1.5-2.9-3.7v-18.2c0-3,1.2-3.9,2.7-3.9
		c2.4,0,3.5,1.4,3.5,6.7h5.8v-2.3c0-5.3-3-9.8-9.2-9.8c-6,0-9,4.1-9,9.1v18.3c0,5.7,3.3,9.1,8.2,9.1c2.9,0,4.3-1,6.2-3.2l1.1,2.7
		h2.9v-18h-10L-729.6,1218.8L-729.6,1218.8z M-582.3,1297.1h-168.1V1129h168.1L-582.3,1297.1L-582.3,1297.1z"/>
</g>
</svg>
