<svg xmlns="http://www.w3.org/2000/svg" width="176.59" height="85.49" viewBox="-929.4 1129 347.1 168.1" style="enable-background:new -929.4 1129 347.1 168.1">
  <path d="M-775 1232v-5.3h-11v-10.4h7.9v-5.3h-7.9v-9.2h10.2v-5.3h-16.3v35.5h17.1zm-21.3-23.7v-2.6c0-5.3-2.9-9.7-9-9.7-6.4 0-9.4 4.1-9.4 9.1v18.3c0 5 3 9.1 9.4 9.1 6.1 0 9-4.1 9-9.1v-4.1h-6.1v4.3c0 2.3-.7 3.6-3 3.6-2.5 0-3.2-1.3-3.2-3.9v-18c0-2.7.8-3.9 3.2-3.9 1.6 0 3 1.3 3 4.3v2.8h6.1v-.2zm-36.2 23.7v-22.2h.1l7.8 22.2h5.3v-35.5h-5.5v20.3h-.1l-7.4-20.3h-5.7v35.5h5.5zm-9.1 0v-5.3h-11v-10.4h7.9v-5.3h-7.9v-9.2h10.2v-5.3h-16.3v35.5h17.1zm-22.6-35.5h-6.1v35.5h6.1v-35.5zm-10.7 11.8v-2.6c0-5.3-3-9.7-9-9.7-6.4 0-9.4 4.1-9.4 9.1v18.3c0 5 2.9 9.1 9.4 9.1 6.1 0 9-4.1 9-9.1v-4.1h-6.1v4.3c0 2.3-.7 3.6-2.9 3.6-2.5 0-3.3-1.3-3.3-3.9v-18c0-2.7.8-3.9 3.3-3.9 1.6 0 2.9 1.3 2.9 4.3v2.8h6.1v-.2zm-22.4-3.7c-.5-5-3.5-8.6-8.5-8.6-6 0-9.5 3.2-9.5 8.9 0 10.2 12.4 12.1 12.4 19.1 0 2.1-1.4 3.3-3.5 3.3-2 0-3.4-1.8-3.7-5.4l-5.8.8c.2 5.3 3.5 9.9 9.2 9.9s9.6-3.3 9.6-9.1c.1-9.8-12.3-12.7-12.3-18.7 0-2.2 1.1-3.5 3.1-3.5 1.4 0 3 .9 3.2 3.9l5.8-.6zm135.9 8.4c0 46.4-37.6 84-84 84s-84-37.6-84-84 37.6-84 84-84 84 37.6 84 84M-600.4 1217.2l7.4-20.8h-6.2l-4.1 13.5h-.1l-4.3-13.5h-6.2l7.4 20.8v14.8h6.1v-14.8zm-27-15.7h2.2c3.3 0 4.5 1.2 4.5 5.5 0 4.2-1.2 5.5-4.5 5.5h-2.2v-11zm0 15.9c1.1 0 2.4 0 3.2-.1l4.3 14.7h6.2l-5.2-16.1c2.1-.9 4.3-3.3 4.3-9 0-7.6-3.5-10.5-10.3-10.5h-8.6v35.5h6.1v-14.5zm-9.7 14.6v-5.3H-648v-10.4h7.9v-5.3h-7.9v-9.2h10.2v-5.3h-16.3v35.5h17zm-20.5 0v-5.3h-9.6v-30.2h-6.1v35.5h15.7zm-18.8 0v-5.3h-9.6v-30.2h-6.1v35.5h15.7zm-29.6-28.4l2.5 15.2h-4.9l2.4-15.2zm-3.3 20.5h6.7l1.1 7.9h5.9l-6.5-35.5h-7.6l-6.5 35.5h5.9l1-7.9zm-20.3-5.3h3.9v3.4c0 3.6-.9 4.9-3.3 4.9-2.1 0-2.9-1.5-2.9-3.7v-18.2c0-3 1.2-3.9 2.7-3.9 2.4 0 3.5 1.4 3.5 6.7h5.8v-2.3c0-5.3-3-9.8-9.2-9.8-6 0-9 4.1-9 9.1v18.3c0 5.7 3.3 9.1 8.2 9.1 2.9 0 4.3-1 6.2-3.2l1.1 2.7h2.9v-18h-10l.1 4.9zm147.3 78.3h-168.1V1129h168.1v168.1z"/>
</svg>