<svg xmlns="http://www.w3.org/2000/svg" width="78.6" height="89.4" style="overflow:visible;enable-background:new 0 0 78.6 89.4" viewBox="0 0 78.6 89.4">
  <path d="M32.5 32.9c5.4-3.3 10.7-6.6 15.7-9.7-.3-3.3-1.1-6.3-.9-9.2.5-8.3 8.3-14.6 16.8-14C72.4.6 79 8 78.5 16.3c-.4 6.3-3.4 11-9.1 13.6-5.8 2.7-11.3 1.8-16.4-2-.4-.3-1.4-.6-1.7-.4-5.3 3.2-10.6 6.5-15.7 9.7.4 2.6 1 5 1.1 7.3 0 2.4-.6 4.8-1 7.5.1.1.5.4.9.7 4.7 2.9 9.4 5.8 14.1 8.8 1 .6 1.6.7 2.6-.1 5.6-4.5 13.3-4.6 19-.4 5.7 4.1 7.9 11.5 5.6 18C75.5 85.6 69 89.8 62 89.4c-6.9-.4-12.8-5.6-14.3-12.6-.7-3.5-.2-6.9 1.4-10.2-5.5-3.4-10.9-6.7-16.2-10-9.2 9.8-21.7 7.2-27.6.7-7-7.3-6.9-18.3-.2-25.4 6.3-6.5 18.6-8.5 27.4 1z" style="fill:#FFFFFF"/>
</svg>