<svg xmlns="http://www.w3.org/2000/svg" width="25" height="25" style="overflow:visible;enable-background:new 0 0 25 25" viewBox="0 0 25 25" xml:space="preserve">
  <style>
    .st0{fill:#FFFFFF}
  </style>
  <g id="_x31_cNSOH_2_">
    <path d="M12.6 0C19 0 24.9 5.1 25 12.4c.1 6.9-5.6 12.9-13 12.6C5.5 24.7.1 19.6 0 12.5 0 5.9 5.3 0 12.6 0zm.1 2.9c-.4 0-.8 0-1.2.1-1.3.4-2.3 1.3-3.2 2.3-.1.1-.1.2 0 .3L9.8 11c0 .2.2.3.4.4 1.4.5 2.9.9 4.3 1.4.3.1.5.1.7-.1l4.2-3.6c.2-.2.2-.3.1-.5-.3-1.2-.7-2.3-1-3.5-.1-.2-.2-.4-.4-.4-1.6-1.1-3.4-1.8-5.4-1.8zM23.4 15c.1-1.3-.2-2.5-.6-3.7-.1-.1-.1-.3-.3-.4-.7-.5-1.4-.9-2.1-1.3-.3-.2-.4-.1-.7.1-1.4 1.2-2.8 2.5-4.2 3.7-.1.1-.2.3-.2.5 0 1.3.1 2.6.1 3.9 0 .4.2.7.6.8 1.1.5 2.2.9 3.2 1.4.3.1.5.1.6-.1.8-.7 1.6-1.4 2.4-2.2.9-.7 1.4-1.6 1.2-2.7zM6 5.6h-.4c-.5 0-1 0-1.4.4-1 1-1.8 2.1-2.3 3.3-.3.8-.7 1.5-.5 2.4.2.9.5 1.9.7 2.8 0 .1.2.3.4.3l3.6.6c.3.1.4 0 .6-.2.8-1.2 1.6-2.3 2.3-3.5.1-.1.1-.3.1-.4-.5-1.7-1-3.5-1.5-5.2-.1-.3-.3-.4-.6-.4-.3-.1-.7-.1-1-.1zm2.5 17.5c.4 0 .5-.1.6-.4.2-.7.4-1.4.5-2.1 0-.1 0-.3-.1-.4-1-1.2-2-2.5-2.9-3.7-.1-.1-.3-.2-.4-.2-1.2-.2-2.5-.4-3.7-.6-.1 0-.3 0-.3.1-.5.5-.6 1.6-.3 2.2.7 1.4 1.6 2.6 2.9 3.7 1 .7 2.4 1.1 3.7 1.4zm5.1 1.2c1.8 0 3.2-.6 4.5-1.3.1-.1.2-.2.2-.3.2-.5.4-1 .6-1.4.2-.3.1-.6-.3-.7-1.1-.5-2.2-1-3.3-1.4-.1-.1-.3-.1-.5 0-1.4.4-2.8.9-4.2 1.3-.1 0-.3.2-.3.3l-.6 2.1c-.1.3 0 .5.3.6 1.3.4 2.5.8 3.6.8zM10.9.8c.4.4.7.8 1.1 1.2.1.1.3.2.5.2.7.1 1.3.1 2 .2 1.3.2 2.6.8 3.8 1.4.8.4 1.6 0 2.5.1-1.5-2.2-7.9-4.2-9.9-3.1zm13.3 13.7c.5-2.3.1-4.5-.7-6.6 0 .7 0 1.4-.1 2.1-.1.5 0 1 .2 1.5.2.8.3 1.6.5 2.4.1.2.1.4.1.6zM5.1 3.2s-.1 0-.1-.1C3.6 4 1.2 7.6 1.3 8.7c0 0 .1 0 .1-.1.7-1.4 1.7-2.5 2.7-3.7.4-.5.7-1.1 1-1.7z"/>
    <path d="M12.7 2.9c2 0 3.8.7 5.5 1.7.2.1.3.3.4.4.3 1.2.7 2.3 1 3.5.1.2 0 .4-.1.5l-4.2 3.6c-.2.2-.4.2-.7.1-1.4-.5-2.9-.9-4.3-1.4-.2-.1-.3-.2-.4-.4L8.4 5.5v-.3c.9-1 1.9-1.9 3.2-2.3.3 0 .7.1 1.1 0zM23.4 15c.2 1-.3 1.9-1.1 2.7-.8.8-1.6 1.5-2.4 2.2-.2.2-.4.2-.6.1-1.1-.5-2.1-.9-3.2-1.4-.4-.2-.6-.4-.6-.8 0-1.3-.1-2.6-.1-3.9 0-.2.1-.4.2-.5 1.4-1.3 2.8-2.5 4.2-3.7.2-.2.4-.2.7-.1.7.5 1.4.9 2.1 1.3.1.1.2.2.3.4.3 1.2.5 2.4.5 3.7zM6 5.6c.4 0 .7 0 1.1.1.3 0 .4.2.5.4.5 1.7 1 3.5 1.5 5.2 0 .1 0 .3-.1.4-.8 1.2-1.6 2.3-2.3 3.5-.1.2-.3.3-.6.2l-3.6-.6c-.1 0-.3-.2-.4-.3-.3-.9-.5-1.8-.7-2.8-.2-.8.2-1.6.5-2.4C2.4 8.1 3.2 7 4.2 6c.4-.4.9-.4 1.4-.4H6zM8.5 23.1c-1.4-.3-2.8-.6-3.9-1.6-1.2-1-2.2-2.2-2.9-3.7-.3-.6-.1-1.7.3-2.2.1-.1.2-.1.3-.1 1.2.2 2.5.4 3.7.6.2 0 .3.1.4.2 1 1.2 2 2.5 2.9 3.7.1.1.1.3.1.4-.2.7-.4 1.4-.5 2.1.1.5 0 .6-.4.6zM13.6 24.3c-1.1-.1-2.3-.5-3.5-.9-.3-.1-.3-.3-.3-.6.2-.7.3-1.4.6-2.1 0-.1.2-.3.3-.3 1.4-.5 2.8-.9 4.2-1.3h.5c1.1.5 2.2 1 3.3 1.4.4.2.4.4.3.7-.2.5-.4 1-.6 1.4-.1.1-.1.2-.2.3-1.4.9-2.8 1.4-4.6 1.4zM10.9.8c2-1 8.5 1 9.8 3.1-.9 0-1.6.4-2.5-.1-1.2-.6-2.4-1.2-3.8-1.4-.7-.1-1.3-.1-2-.2-.2 0-.4-.1-.5-.2-.3-.4-.7-.8-1-1.2zM24.2 14.5c0-.2-.1-.4-.1-.6-.2-.8-.3-1.6-.5-2.4-.1-.5-.2-1-.2-1.5.1-.7 0-1.4.1-2.1.9 2.1 1.2 4.3.7 6.6zM5.1 3.2c-.3.6-.6 1.2-1 1.7-1 1.2-2 2.3-2.7 3.7 0 0-.1 0-.1.1C1.2 7.6 3.6 4 5 3.2h.1z" class="st0"/>
  </g>
</svg>