<svg xmlns="http://www.w3.org/2000/svg" width="20" height="17" style="overflow:visible;enable-background:new 0 0 24.5 19.1" viewBox="0 0 24.5 19.1" xml:space="preserve">
  <style>
    .st0{fill:#FFFFFF}
  </style>
  <g id="FeQHcy.tif_1_">
    <path d="M12.6 19.1c-.3-.1-.5-.2-.7-.4-1.9-1.6-3.7-3.2-5.6-4.8-.1-.1-.2-.1-.2-.1H1c-.5 0-.8-.3-.9-.7V6.2c0-.6.4-.9.9-.9h5.2c.1 0 .2 0 .3-.1 1.9-1.6 3.8-3.3 5.7-4.9.5-.5 1.3-.3 1.5.4v17.5c0 .5-.2.8-.7.9h-.4zM24.5 10.1v.6c-.2 2.8-1.2 5.4-2.9 7.7l-.3.3c-.3.4-.9.5-1.3.2s-.5-.9-.1-1.3c.5-.7 1-1.4 1.4-2.2.7-1.4 1.1-2.8 1.3-4.3.4-3.6-.5-6.7-2.6-9.5-.3-.4-.3-.8-.1-1.1.3-.5 1-.5 1.4-.1.8 1 1.5 2.1 2 3.3.7 1.5 1 3.1 1.2 4.7V10.1z" class="st0"/>
    <path d="M21.3 10.2c0 1.9-.8 4.2-2.2 6.2-.2.3-.5.4-.9.4-.4-.1-.6-.3-.7-.6-.1-.3 0-.6.2-.8.6-.8 1-1.6 1.3-2.6 1-3.2.6-6.1-1.3-8.9-.2-.3-.3-.5-.2-.9.1-.3.3-.6.7-.6.4-.1.7.1.9.4.7 1 1.2 2 1.6 3.1.4 1.2.6 2.4.6 4.3z" class="st0"/>
    <path d="M17.8 9.6c0 1.5-.4 3-1.3 4.3-.3.4-.8.5-1.2.3-.4-.3-.5-.8-.3-1.2.5-.7.8-1.5.9-2.4.2-1.5-.1-2.8-.8-4.1-.1-.2-.1-.4-.2-.5-.1-.4.1-.8.5-1 .4-.2.8 0 1.1.3.5.8.9 1.6 1.1 2.5.1.6.2 1.2.2 1.8z" class="st0"/>
  </g>
</svg>