<svg xmlns="http://www.w3.org/2000/svg" width="20" height="17" style="overflow:visible;enable-background:new 0 0 24.5 19.5" viewBox="0 0 24.5 19.5" xml:space="preserve">
  <style>
    .st0{fill:#FFFFFF}
  </style>
  <g id="XJJM6D.tif_1_">
    <path d="M12.7 19.5c-.2-.2-.5-.3-.7-.5-1.8-1.6-3.6-3.1-5.4-4.7-.2-.2-.4-.3-.6-.3H1.1C.3 14 0 13.7 0 12.9V6.4c0-.8.3-1.1 1.1-1.1h5c.1 0 .3-.1.4-.2 1.9-1.6 3.7-3.3 5.6-4.9.3-.3.7-.4 1.1-.2.4.2.5.5.5.9v17.4c0 .6-.2.8-.8 1.1-.1.1-.2.1-.2.1zM24.5 13.9v.1c-.1.4-.3.6-.7.7-.4.1-.7-.1-.9-.3-.6-.7-1.2-1.5-1.8-2.2-.3-.4-.7-.8-1.1-1.3l-.2.2c-.9 1.1-1.8 2.1-2.7 3.2-.3.3-.6.5-1 .4-.7-.2-.9-.9-.5-1.5.8-1 1.6-1.9 2.4-2.9.2-.3.4-.5.7-.8-.6-.7-1.1-1.3-1.7-2-.5-.6-1-1.2-1.4-1.7-.3-.4-.3-.9 0-1.2.3-.3.8-.4 1.2-.1l.3.3c.9 1 1.7 2 2.6 3.1.2.1.2.1.3.2.1-.2.3-.3.4-.5.8-.9 1.6-1.8 2.3-2.8.5-.7 1.5-.7 1.8.3v.2c-.1.2-.2.5-.4.6-.5.7-1.1 1.4-1.7 2.1-.4.5-.8 1-1.3 1.5 1 1.2 1.9 2.3 2.9 3.5.2.2.3.5.5.7v.2z" class="st0"/>
  </g>
</svg>