<!-- Generator: Adobe Illustrator 25.2.0, SVG Export Plug-In  -->
<svg version="1.1" xmlns="http://www.w3.org/2000/svg" xmlns:xlink="http://www.w3.org/1999/xlink" x="0px" y="0px" width="101.5px"
	 height="150.2px" viewBox="0 0 101.5 150.2" style="overflow:visible;enable-background:new 0 0 101.5 150.2;"
	 xml:space="preserve">
<style type="text/css">
	.st0{fill:#554F52;}
	.st1{fill:none;stroke:#2C3233;stroke-miterlimit:10;}
	.st2{fill:url(#SVGID_1_);}
	.st3{fill:url(#SVGID_2_);}
	.st4{fill:url(#SVGID_3_);}
	.st5{fill:url(#SVGID_4_);}
	.st6{fill:url(#SVGID_5_);}
	.st7{fill:url(#SVGID_6_);}
	.st8{fill:url(#SVGID_7_);}
	.st9{fill:url(#SVGID_8_);}
	.st10{fill:url(#SVGID_9_);}
	.st11{fill:url(#SVGID_10_);}
	.st12{fill:url(#SVGID_11_);}
	.st13{fill:url(#SVGID_12_);}
	.st14{fill:url(#SVGID_13_);}
	.st15{fill:url(#SVGID_14_);}
	.st16{fill:url(#SVGID_15_);}
	.st17{fill:url(#SVGID_16_);}
</style>
<defs>
</defs>
<rect x="0.5" y="0" transform="matrix(-1 -8.971281e-11 8.971281e-11 -1 101 150)" class="st0" width="100" height="150"/>
<line class="st1" x1="17.8" y1="0" x2="17.8" y2="150"/>
<line class="st1" x1="0.5" y1="0" x2="0.5" y2="150"/>
<line class="st1" x1="35.4" y1="0" x2="35.4" y2="150"/>
<line class="st1" x1="52" y1="0" x2="52" y2="150"/>
<line class="st1" x1="67.5" y1="0" x2="67.5" y2="150"/>
<line class="st1" x1="84.1" y1="0" x2="84.1" y2="150"/>
<line class="st1" x1="100.7" y1="0" x2="100.7" y2="150"/>
<linearGradient id="SVGID_1_" gradientUnits="userSpaceOnUse" x1="51" y1="110.2149" x2="51" y2="125.7149" gradientTransform="matrix(4.489665e-11 -1 -1 -4.489665e-11 126.2149 126)">
	<stop  offset="0" style="stop-color:#3F393C"/>
	<stop  offset="1" style="stop-color:#3D4344;stop-opacity:0"/>
</linearGradient>
<polygon class="st2" points="0.5,0 0.5,150 16,150 16,0 "/>
<linearGradient id="SVGID_2_" gradientUnits="userSpaceOnUse" x1="51" y1="92" x2="51" y2="108" gradientTransform="matrix(4.489665e-11 -1 -1 -4.489665e-11 126.2149 126)">
	<stop  offset="0" style="stop-color:#3F393C"/>
	<stop  offset="1" style="stop-color:#3D4344;stop-opacity:0"/>
</linearGradient>
<polygon class="st3" points="18.2,0 18.2,150 34.2,150 34.2,0 "/>
<linearGradient id="SVGID_3_" gradientUnits="userSpaceOnUse" x1="51" y1="76" x2="51" y2="92" gradientTransform="matrix(4.489665e-11 -1 -1 -4.489665e-11 126.2149 126)">
	<stop  offset="0" style="stop-color:#3F393C"/>
	<stop  offset="1" style="stop-color:#3D4344;stop-opacity:0"/>
</linearGradient>
<polygon class="st4" points="34.2,0 34.2,150 50.2,150 50.2,0 "/>
<linearGradient id="SVGID_4_" gradientUnits="userSpaceOnUse" x1="51" y1="60" x2="51" y2="76" gradientTransform="matrix(4.489665e-11 -1 -1 -4.489665e-11 126.2149 126)">
	<stop  offset="0" style="stop-color:#3F393C"/>
	<stop  offset="1" style="stop-color:#3D4344;stop-opacity:0"/>
</linearGradient>
<polygon class="st5" points="50.2,0 50.2,150 66.2,150 66.2,0 "/>
<linearGradient id="SVGID_5_" gradientUnits="userSpaceOnUse" x1="51" y1="44" x2="51" y2="60" gradientTransform="matrix(4.489665e-11 -1 -1 -4.489665e-11 126.2149 126)">
	<stop  offset="0" style="stop-color:#3F393C"/>
	<stop  offset="1" style="stop-color:#3D4344;stop-opacity:0"/>
</linearGradient>
<polygon class="st6" points="66.2,0 66.2,150 82.2,150 82.2,0 "/>
<linearGradient id="SVGID_6_" gradientUnits="userSpaceOnUse" x1="51" y1="26" x2="51" y2="42" gradientTransform="matrix(4.489665e-11 -1 -1 -4.489665e-11 126.2149 126)">
	<stop  offset="0" style="stop-color:#3F393C"/>
	<stop  offset="1" style="stop-color:#3D4344;stop-opacity:0"/>
</linearGradient>
<polygon class="st7" points="84.2,0 84.2,150 100.2,150 100.2,0 "/>
<linearGradient id="SVGID_7_" gradientUnits="userSpaceOnUse" x1="60.0699" y1="-12.6664" x2="50.5637" y2="18.4272" gradientTransform="matrix(-1 0 0 -1 102 150.2149)">
	<stop  offset="3.757976e-04" style="stop-color:#000000"/>
	<stop  offset="1" style="stop-color:#3D4344;stop-opacity:0"/>
</linearGradient>
<polygon class="st8" points="0.5,116.2 101.5,150.2 101.5,150.2 0.5,150.2 "/>
<linearGradient id="SVGID_8_" gradientUnits="userSpaceOnUse" x1="59.5408" y1="-142.0432" x2="50.9072" y2="-113.8039" gradientTransform="matrix(-1 0 0 1 102 129.2149)">
	<stop  offset="3.757976e-04" style="stop-color:#000000"/>
	<stop  offset="1" style="stop-color:#3D4344;stop-opacity:0"/>
</linearGradient>
<polygon class="st9" points="0.5,30.2 101.5,0 101.5,0 0.5,0 "/>
</svg>
