<svg xmlns="http://www.w3.org/2000/svg" width="52" height="49.1" style="overflow:visible;enable-background:new 0 0 52 49.1" viewBox="0 0 52 49.1">
  <path d="M25.959-.009c-14.3 0-26 9.1-26 20.2 0 6.3 3.7 11.9 9.5 15.6-1.1 4.9-3.4 9.4-6.6 13.2 6.6-1 12.6-4.2 16.9-9.3 2 .4 4.1.6 6.2.6 14.4 0 26-9 26-20.2s-11.6-20.1-26-20.1" style="fill:#9C52FF"/>
  <path d="M17.359 20.191c0 1.6-1.3 2.9-2.9 2.9s-2.9-1.3-2.9-2.9c0-1.6 1.3-2.9 2.9-2.9s2.9 1.3 2.9 2.9m23.1 0c0 1.6-1.2 2.9-2.8 2.9-1.6 0-2.9-1.2-2.9-2.8v-.1c0-1.6 1.3-2.9 2.9-2.8 1.5 0 2.7 1.3 2.8 2.8m-11.6 0c0 1.6-1.2 2.9-2.8 2.9-1.6 0-2.9-1.2-2.9-2.8v-.1c0-1.6 1.3-2.9 2.9-2.8 1.5 0 2.8 1.3 2.8 2.8" style="fill:#FF6B31"/>
</svg>