<svg xmlns="http://www.w3.org/2000/svg" width="32.2" height="27.3" style="overflow:visible;enable-background:new 0 0 32.2 27.3" viewBox="0 0 32.2 27.3">
  <style>
    .st1{fill:#FFFFFF}
  </style>
  <path d="M21.6 10.3h7.9c1.1 0 1.8.4 2.3 1.3.5 1 .4 1.9-.2 2.8l-.1.1c-.5.4-.6.8-.4 1.5.3.9-.2 1.6-.8 2.3-.2.2-.2.5-.2.8.2 1 0 1.9-.7 2.7-.1.2-.2.4-.2.7.3 2.3-1.2 4-3.5 4H14.2c-.9 0-1.6-.3-2.3-.9 0 .3-.1.5-.1.7-.1.8-.3 1.1-1.2 1.1H2c-.7 0-1.2-.4-1.2-1.1C.6 22.1.3 18 0 13.9v-.5c0-.6.4-1.1 1-1.1 3.3 0 6.6-.1 9.9 0 .7 0 1-.2 1.3-.6C13.7 10 15 8 15.9 5.8c.3-.5.1-1.2.1-1.9s-.1-1.5 0-2.2c0-.3.2-.7.4-.9.9-.9 2.8-1.1 3.9-.3l.3.3c1 1.9 2 3.8 1.7 6-.1 1-.4 2-.6 3.1 0 0 0 .2-.1.4zm-1.3 1.1c.1-.3.1-.6.2-.8.2-.9.3-1.9.5-2.8.5-2.1-.2-4-1.1-5.8-.1-.3-.5-.6-.8-.7-1.1-.4-1.9.1-1.9 1.3 0 3.7 0 3.7-1.9 6.8-1.1 1.8-2.1 3.7-4.1 4.8-.2 0-.2.3-.2.5v9.1c0 .3.1.5.5.5.6-.1 1 .2 1.5.4.4.2.9.5 1.4.5H26c1 0 1.9-.7 2.3-1.6.2-.5.1-.9-.2-1.3-.4-.6-.4-.6.2-.9 1-.6 1.3-1.8.8-2.5-.4-.6-.4-.6.2-1 1.1-.7 1.3-1.6.6-2.6-.3-.4-.2-.5.2-.7.9-.4 1.3-1.2 1.1-2-.2-.7-.7-1.1-1.8-1.1h-8.1c-.5-.1-.7-.1-1-.1zM7.5 23.2c-.5 0-1 .4-1 .9s.5 1 1 1c.6 0 1-.4 1-.9 0-.6-.5-1-1-1z" style="fill:#1D00FF"/>
  <path d="M20.3 11.4h8.9c1.1 0 1.6.3 1.8 1.1.2.8-.2 1.6-1.1 2-.4.2-.5.3-.2.7.7 1 .5 2-.6 2.6-.6.4-.6.4-.2 1 .5.8.2 1.9-.8 2.5-.6.4-.6.4-.2.9.3.4.4.8.2 1.3-.3.9-1.3 1.6-2.3 1.6H14.2c-.5 0-1-.3-1.4-.5-.5-.3-.9-.5-1.5-.4-.4.1-.5-.1-.5-.5v-9.1c0-.2.1-.5.2-.5 2-1.1 3-3 4.1-4.8 2-3.1 1.9-3.1 1.9-6.8 0-1.2.7-1.7 1.9-1.3.3.1.6.4.8.7.9 1.8 1.6 3.7 1.1 5.8-.2.9-.4 1.9-.5 2.8.1.3 0 .5 0 .9zM7.5 23.2c.6 0 1 .4 1 1 0 .5-.4.9-1 .9s-1-.4-1-1c0-.5.4-.9 1-.9z" class="st1"/>
</svg>