<?xml version="1.0" encoding="utf-8"?>
<!-- Generator: Adobe Illustrator 19.0.0, SVG Export Plug-In . SVG Version: 6.00 Build 0)  -->
<svg version="1.1" id="Layer_1" xmlns="http://www.w3.org/2000/svg" xmlns:xlink="http://www.w3.org/1999/xlink" x="0px" y="0px"
	 width="185.9px" height="49.7px" viewBox="-1772 1945.4 185.9 49.7" style="enable-background:new -1772 1945.4 185.9 49.7;"
	 xml:space="preserve">
<style type="text/css">
	.st0{fill:#FFFFFF;}
</style>
<g>
	<g>
		<g>
			<path class="st0" d="M-1723.1,1966.3c0-2,1-3,2.5-3c0.8,0,1.3,0.2,1.7,0.4v1h-0.7c-0.1-0.6-0.3-0.9-1-0.9c-0.8,0-1.3,0.6-1.3,2.4
				c0,1.9,0.5,2.4,1.4,2.4c0.6,0,0.9-0.3,1-0.9h0.7v1c-0.3,0.2-0.9,0.4-1.7,0.4C-1722.2,1969.2-1723.1,1968.1-1723.1,1966.3z"/>
			<path class="st0" d="M-1716.4,1969.2c-1.2,0-1.9-0.8-1.9-2.1c0-1.3,0.8-2.1,2-2.1s1.9,0.8,1.9,2.1
				C-1714.5,1968.4-1715.3,1969.2-1716.4,1969.2z M-1716.4,1965.4c-0.6,0-0.9,0.5-0.9,1.6c0,1.2,0.2,1.7,0.9,1.7
				c0.6,0,0.9-0.5,0.9-1.7S-1715.8,1965.4-1716.4,1965.4z"/>
			<path class="st0" d="M-1712.5,1968.2c0,0.5,0.1,0.6,0.5,0.6v0.3h-2.1v-0.3c0.5,0,0.5-0.1,0.5-0.6v-3.8c0-0.6-0.1-0.7-0.6-0.7
				v-0.3l1.3-0.2h0.1c0,0.1,0.1,0.4,0.1,0.8v4.2H-1712.5z"/>
			<path class="st0" d="M-1707.8,1968.6v0.3c-0.1,0.1-0.4,0.1-0.7,0.1c-0.5,0-0.7-0.2-0.8-0.6c-0.1,0.3-0.5,0.6-1.1,0.6
				c-0.7,0-1.3-0.4-1.3-1.2c0-1,0.8-1.3,2-1.3c0.1,0,0.2,0,0.3,0v-0.2c0-0.7-0.2-0.9-0.6-0.9c-0.6,0-0.7,0.3-0.8,0.7h-0.7v-0.8
				c0.4-0.2,1-0.4,1.6-0.4c0.9,0,1.5,0.4,1.5,1.4c0,0.2,0,0.9,0,1.7C-1708.3,1968.5-1708.2,1968.6-1707.8,1968.6z M-1710.8,1964.3
				l1.5-1.4l0.5,0.9l-1.8,0.8L-1710.8,1964.3z M-1709.6,1967.1c-0.7,0-1.1,0.2-1.1,0.8c0,0.5,0.2,0.7,0.6,0.7c0.3,0,0.6-0.2,0.7-0.4
				v-1C-1709.4,1967.1-1709.5,1967.1-1709.6,1967.1z"/>
			<path class="st0" d="M-1707.5,1969.1v-0.3c0.4,0,0.5-0.1,0.5-0.6v-1.9c0-0.6-0.1-0.7-0.5-0.7v-0.3l1.4-0.3h0.1v3.2
				c0,0.5,0.1,0.5,0.5,0.6v0.3L-1707.5,1969.1L-1707.5,1969.1z M-1706.5,1964.5c-0.3,0-0.6-0.3-0.6-0.6c0-0.3,0.3-0.6,0.6-0.6
				s0.6,0.3,0.6,0.6S-1706.2,1964.5-1706.5,1964.5z"/>
			<path class="st0" d="M-1705.1,1968.8v-0.8h0.7c0.1,0.6,0.3,0.7,0.8,0.7c0.4,0,0.7-0.2,0.7-0.6s-0.2-0.5-0.6-0.6l-0.5-0.1
				c-0.6-0.1-1-0.5-1-1.2c0-0.8,0.7-1.3,1.5-1.3c0.7,0,1.1,0.2,1.3,0.3v0.8h-0.6c-0.1-0.4-0.3-0.6-0.7-0.6c-0.4,0-0.7,0.2-0.7,0.5
				s0.2,0.5,0.6,0.5l0.5,0.1c0.8,0.2,1.2,0.6,1.2,1.2c0,0.8-0.6,1.3-1.7,1.3C-1704.5,1969.2-1704.9,1968.9-1705.1,1968.8z"/>
			<path class="st0" d="M-1699.4,1965.6h-0.8v2.3c0,0.6,0.1,0.8,0.5,0.8c0.1,0,0.3,0,0.5-0.1l0.1,0.4c-0.3,0.2-0.6,0.3-1,0.3
				c-0.7,0-1.1-0.3-1.1-1.1v-2.5h-0.5v-0.3l0.5-0.2c0.1-0.4,0.2-0.8,0.4-1.1l0.6-0.1c0,0.3-0.1,0.8-0.1,1.2h1L-1699.4,1965.6z"/>
			<path class="st0" d="M-1695.7,1968.2l0.2,0.3c-0.4,0.4-0.9,0.6-1.6,0.6c-1.2,0-1.9-0.8-1.9-2.1s0.8-2.1,1.8-2.1
				c1.2,0,1.7,0.7,1.7,2v0.3h-2.5c0,1,0.4,1.4,1.2,1.4C-1696.4,1968.6-1696,1968.4-1695.7,1968.2z M-1697.9,1966.7h1.5
				c0-1-0.2-1.3-0.7-1.3S-1697.9,1965.7-1697.9,1966.7z"/>
			<path class="st0" d="M-1689.3,1968.2c0,0.5,0.1,0.5,0.5,0.6v0.3h-2v-0.3c0.5,0,0.5-0.1,0.5-0.5v-2c0-0.5-0.2-0.7-0.6-0.7
				s-0.7,0.2-1,0.4v2.2c0,0.4,0.1,0.5,0.5,0.5v0.3h-2v-0.3c0.4,0,0.5-0.1,0.5-0.6v-1.9c0-0.6-0.1-0.7-0.5-0.7v-0.3l1.2-0.3h0.2
				c0,0.1,0.2,0.4,0.2,0.7c0.4-0.4,0.8-0.7,1.4-0.7c0.7,0,1.1,0.4,1.1,1.2L-1689.3,1968.2L-1689.3,1968.2z"/>
			<path class="st0" d="M-1684.6,1968.6v0.3c-0.1,0.1-0.4,0.1-0.7,0.1c-0.5,0-0.7-0.2-0.8-0.6c-0.1,0.3-0.5,0.6-1.1,0.6
				c-0.7,0-1.3-0.4-1.3-1.2c0-1,0.8-1.3,2-1.3c0.1,0,0.2,0,0.3,0v-0.2c0-0.7-0.2-0.9-0.6-0.9c-0.6,0-0.7,0.3-0.8,0.7h-0.7v-0.8
				c0.4-0.2,1-0.4,1.6-0.4c0.9,0,1.5,0.4,1.5,1.4c0,0.2,0,0.9,0,1.7C-1685.2,1968.5-1685.1,1968.6-1684.6,1968.6z M-1686.4,1967.1
				c-0.7,0-1.1,0.2-1.1,0.8c0,0.5,0.2,0.7,0.6,0.7c0.3,0,0.6-0.2,0.7-0.4v-1C-1686.2,1967.1-1686.3,1967.1-1686.4,1967.1z"/>
			<path class="st0" d="M-1678.4,1963.5l0.1,1.4h-0.5c-0.1-0.7-0.2-0.9-0.7-0.9h-0.5v4.2c0,0.5,0.2,0.6,0.7,0.6v0.3h-2.4v-0.3
				c0.5,0,0.7-0.1,0.7-0.6v-4.2h-0.5c-0.5,0-0.6,0.2-0.7,0.9h-0.5l0.1-1.4H-1678.4z"/>
			<path class="st0" d="M-1675.7,1964.9c0.1,0,0.2,0,0.3,0l-0.2,1c-0.1,0-0.2-0.1-0.4-0.1c-0.6,0-0.8,0.2-0.8,0.9v1.3
				c0,0.5,0.1,0.5,0.7,0.6v0.3h-2.2v-0.3c0.4,0,0.5-0.1,0.5-0.6v-1.9c0-0.6-0.1-0.7-0.5-0.7v-0.3l1.2-0.3h0.1c0.1,0.1,0.2,0.5,0.2,1
				C-1676.6,1965.3-1676.1,1964.9-1675.7,1964.9z"/>
			<path class="st0" d="M-1675.2,1969.1v-0.3c0.4,0,0.5-0.1,0.5-0.6v-1.9c0-0.6-0.1-0.7-0.5-0.7v-0.3l1.4-0.3h0.2v3.2
				c0,0.5,0.1,0.5,0.5,0.6v0.3L-1675.2,1969.1L-1675.2,1969.1z M-1675.2,1964.3l1.5-1.4l0.5,0.9l-1.8,0.8L-1675.2,1964.3z"/>
			<path class="st0" d="M-1670.9,1969.2c-1.2,0-1.9-0.8-1.9-2.1c0-1.3,0.8-2.1,2-2.1s1.9,0.8,1.9,2.1S-1669.8,1969.2-1670.9,1969.2z
				 M-1670.9,1965.4c-0.6,0-0.9,0.5-0.9,1.6c0,1.2,0.2,1.7,0.9,1.7c0.6,0,0.9-0.5,0.9-1.7S-1670.3,1965.4-1670.9,1965.4z"/>
			<path class="st0" d="M-1664.5,1968.2c0,0.5,0.1,0.5,0.5,0.6v0.3h-2v-0.3c0.5,0,0.5-0.1,0.5-0.5v-2c0-0.5-0.2-0.7-0.6-0.7
				s-0.7,0.2-1,0.4v2.2c0,0.4,0.1,0.5,0.5,0.5v0.3h-2v-0.3c0.4,0,0.5-0.1,0.5-0.6v-1.9c0-0.6-0.1-0.7-0.5-0.7v-0.3l1.2-0.3h0.1
				c0,0.1,0.2,0.4,0.2,0.7c0.4-0.4,0.8-0.7,1.4-0.7c0.7,0,1.1,0.4,1.1,1.2L-1664.5,1968.2L-1664.5,1968.2z"/>
			<path class="st0" d="M-1661.7,1969.2c-1.2,0-1.9-0.8-1.9-2.1c0-1.3,0.8-2.1,2-2.1s1.9,0.8,1.9,2.1S-1660.6,1969.2-1661.7,1969.2z
				 M-1662.7,1964.3l1.5-1.4l0.5,0.9l-1.8,0.8L-1662.7,1964.3z M-1661.7,1965.4c-0.6,0-0.9,0.5-0.9,1.6c0,1.2,0.2,1.7,0.9,1.7
				c0.6,0,0.9-0.5,0.9-1.7S-1661.1,1965.4-1661.7,1965.4z"/>
			<path class="st0" d="M-1659.3,1969.1v-0.3c0.4,0,0.5-0.1,0.5-0.6v-1.9c0-0.6-0.1-0.7-0.5-0.7v-0.3l1.4-0.3h0.2v3.2
				c0,0.5,0.1,0.5,0.5,0.6v0.3C-1657.2,1969.1-1659.3,1969.1-1659.3,1969.1z M-1658.3,1964.5c-0.3,0-0.6-0.3-0.6-0.6
				c0-0.3,0.3-0.6,0.6-0.6c0.3,0,0.6,0.3,0.6,0.6C-1657.7,1964.2-1658,1964.5-1658.3,1964.5z"/>
			<path class="st0" d="M-1655.3,1969.1c-0.9,0-1.6-0.6-1.6-2.1c0-1.4,0.7-2.2,1.7-2.2c0.4,0,0.8,0.2,1,0.4v-1
				c0-0.6-0.1-0.7-0.6-0.7v-0.3l1.4-0.2h0.2v4.7c0,0.6,0.1,0.7,0.6,0.7v0.3l-1.2,0.3h-0.1c0,0-0.2-0.3-0.2-0.7
				C-1654.3,1968.9-1654.8,1969.1-1655.3,1969.1z M-1655,1968.5c0.3,0,0.6-0.2,0.9-0.5v-2.2c-0.2-0.3-0.5-0.4-0.8-0.4
				c-0.5,0-0.9,0.3-0.9,1.5C-1655.8,1968.2-1655.5,1968.5-1655,1968.5z"/>
			<path class="st0" d="M-1648.9,1968.2l0.2,0.3c-0.4,0.4-0.9,0.6-1.6,0.6c-1.2,0-1.9-0.8-1.9-2.1s0.8-2.1,1.8-2.1
				c1.2,0,1.7,0.7,1.7,2v0.3h-2.5c0,1,0.4,1.4,1.2,1.4C-1649.6,1968.6-1649.2,1968.4-1648.9,1968.2z M-1651.1,1966.7h1.5
				c0-1-0.2-1.3-0.7-1.3S-1651.1,1965.7-1651.1,1966.7z"/>
			<path class="st0" d="M-1648,1970.2l-0.2-0.3c0.5-0.2,0.8-0.4,0.8-0.7c0-0.2-0.1-0.2-0.3-0.3c-0.2-0.1-0.4-0.2-0.4-0.5
				s0.3-0.6,0.7-0.6s0.7,0.4,0.7,0.9C-1646.6,1969.5-1647.1,1970-1648,1970.2z"/>
			<path class="st0" d="M-1644.5,1968.7c0.5,0,0.6-0.1,0.6-0.6v-3.7c0-0.5-0.1-0.6-0.6-0.6v-0.3h2.3c1.3,0,2,0.5,2,1.4
				c0,0.7-0.4,1.1-1.1,1.2l0,0c0.9,0.1,1.4,0.7,1.4,1.4c0,1-0.7,1.5-1.9,1.5h-2.6L-1644.5,1968.7L-1644.5,1968.7L-1644.5,1968.7z
				 M-1642.3,1966c0.7,0,0.9-0.3,0.9-1s-0.3-1-1-1h-0.6v2H-1642.3z M-1642.1,1968.6c0.8,0,1-0.3,1-1.1c0-0.8-0.3-1.1-1.1-1.1h-0.7
				v2.2H-1642.1L-1642.1,1968.6z"/>
			<path class="st0" d="M-1635.6,1968.6v0.3c-0.1,0.1-0.4,0.1-0.7,0.1c-0.5,0-0.7-0.2-0.8-0.6c-0.1,0.3-0.5,0.6-1.1,0.6
				c-0.7,0-1.3-0.4-1.3-1.2c0-1,0.8-1.3,2-1.3c0.1,0,0.2,0,0.3,0v-0.2c0-0.7-0.2-0.9-0.6-0.9c-0.6,0-0.7,0.3-0.8,0.7h-0.7v-0.8
				c0.4-0.2,1-0.4,1.6-0.4c0.9,0,1.5,0.4,1.5,1.4c0,0.2,0,0.9,0,1.7C-1636.1,1968.5-1636,1968.6-1635.6,1968.6z M-1637.4,1967.1
				c-0.7,0-1.1,0.2-1.1,0.8c0,0.5,0.2,0.7,0.6,0.7c0.3,0,0.6-0.2,0.7-0.4v-1C-1637.2,1967.1-1637.3,1967.1-1637.4,1967.1z"/>
			<path class="st0" d="M-1635.3,1969.1v-0.3c0.4,0,0.5-0.1,0.5-0.6v-1.9c0-0.6-0.1-0.7-0.5-0.7v-0.3l1.4-0.3h0.2v3.2
				c0,0.5,0.1,0.5,0.5,0.6v0.3C-1633.2,1969.1-1635.3,1969.1-1635.3,1969.1z M-1634.4,1964.5c-0.3,0-0.6-0.3-0.6-0.6
				c0-0.3,0.3-0.6,0.6-0.6s0.6,0.3,0.6,0.6C-1633.7,1964.2-1634,1964.5-1634.4,1964.5z"/>
			<path class="st0" d="M-1631.5,1968.2c0,0.5,0.1,0.6,0.5,0.6v0.3h-2v-0.3c0.5,0,0.5-0.1,0.5-0.6v-3.8c0-0.6-0.1-0.7-0.6-0.7v-0.3
				l1.3-0.2h0.1c0,0.1,0.1,0.4,0.1,0.8L-1631.5,1968.2L-1631.5,1968.2z"/>
			<path class="st0" d="M-1627.2,1968.2l0.2,0.3c-0.4,0.4-0.9,0.6-1.6,0.6c-1.2,0-1.9-0.8-1.9-2.1s0.8-2.1,1.8-2.1
				c1.2,0,1.7,0.7,1.7,2v0.3h-2.5c0,1,0.4,1.4,1.2,1.4C-1628,1968.6-1627.6,1968.4-1627.2,1968.2z M-1629.5,1966.7h1.5
				c0-1-0.2-1.3-0.7-1.3S-1629.4,1965.7-1629.5,1966.7z"/>
			<path class="st0" d="M-1621.9,1967.4h-1.8l-0.2,0.8c0,0.1,0,0.2,0,0.2c0,0.2,0.2,0.2,0.6,0.3v0.3h-1.8v-0.3
				c0.4,0,0.5-0.1,0.6-0.6l1.5-4.6h0.9l1.5,4.6c0.1,0.4,0.2,0.6,0.6,0.6v0.3h-2.1v-0.3c0.4,0,0.5-0.1,0.5-0.3c0-0.1,0-0.1,0-0.2
				L-1621.9,1967.4z M-1623.5,1966.9h1.5l-0.4-1.3c-0.2-0.6-0.3-1-0.3-1.2l0,0c-0.1,0.2-0.1,0.6-0.3,1.2L-1623.5,1966.9z
				 M-1623.5,1962.9l1.6-1.2l0.4,0.9l-1.9,0.6L-1623.5,1962.9z"/>
			<path class="st0" d="M-1617.7,1965.6h-0.8v2.3c0,0.6,0.1,0.8,0.5,0.8c0.1,0,0.3,0,0.5-0.1l0.1,0.4c-0.3,0.2-0.6,0.3-1,0.3
				c-0.7,0-1.1-0.3-1.1-1.1v-2.5h-0.5v-0.3l0.5-0.2c0.1-0.4,0.2-0.8,0.4-1.1l0.6-0.1c0,0.3-0.1,0.8-0.1,1.2h1L-1617.7,1965.6z"/>
			<path class="st0" d="M-1615.9,1965.6c0.4-0.4,0.7-0.7,1.4-0.7s1.1,0.4,1.1,1.2v2.1c0,0.5,0.1,0.5,0.5,0.6v0.3h-2v-0.3
				c0.5,0,0.5-0.1,0.5-0.5v-2c0-0.5-0.2-0.7-0.6-0.7s-0.7,0.2-1,0.4v2.2c0,0.4,0.1,0.5,0.5,0.5v0.3h-2v-0.3c0.4,0,0.5-0.1,0.5-0.6
				v-3.8c0-0.6-0.1-0.7-0.6-0.7v-0.3l1.3-0.2h0.1c0.1,0.1,0.1,0.4,0.1,0.8v1.7H-1615.9z"/>
			<path class="st0" d="M-1608.7,1968.6v0.3c-0.1,0.1-0.4,0.1-0.7,0.1c-0.5,0-0.7-0.2-0.8-0.6c-0.1,0.3-0.5,0.6-1.1,0.6
				c-0.7,0-1.3-0.4-1.3-1.2c0-1,0.8-1.3,2-1.3c0.1,0,0.2,0,0.3,0v-0.2c0-0.7-0.2-0.9-0.6-0.9c-0.6,0-0.7,0.3-0.8,0.7h-0.7v-0.8
				c0.4-0.2,1-0.4,1.6-0.4c0.9,0,1.5,0.4,1.5,1.4c0,0.2,0,0.9,0,1.7C-1609.2,1968.5-1609.1,1968.6-1608.7,1968.6z M-1610.5,1967.1
				c-0.7,0-1.1,0.2-1.1,0.8c0,0.5,0.2,0.7,0.6,0.7c0.3,0,0.6-0.2,0.7-0.4v-1C-1610.3,1967.1-1610.4,1967.1-1610.5,1967.1z"/>
			<path class="st0" d="M-1606.7,1966.3c0-2,1-3,2.5-3c0.8,0,1.3,0.2,1.7,0.4v1h-0.7c-0.1-0.6-0.3-0.9-1-0.9c-0.8,0-1.3,0.6-1.3,2.4
				c0,1.9,0.5,2.4,1.4,2.4c0.6,0,0.9-0.3,1-0.9h0.7v1c-0.3,0.2-0.9,0.4-1.7,0.4C-1605.9,1969.2-1606.7,1968.1-1606.7,1966.3z"/>
			<path class="st0" d="M-1600.6,1968.2c0,0.5,0.1,0.6,0.5,0.6v0.3h-2.1v-0.3c0.5,0,0.5-0.1,0.5-0.6v-3.8c0-0.6-0.1-0.7-0.6-0.7
				v-0.3l1.3-0.2h0.1c0,0.1,0.1,0.4,0.1,0.8v4.2H-1600.6z"/>
			<path class="st0" d="M-1599.7,1969.1v-0.3c0.4,0,0.5-0.1,0.5-0.6v-1.9c0-0.6-0.1-0.7-0.5-0.7v-0.3l1.4-0.3h0.2v3.2
				c0,0.5,0.1,0.5,0.5,0.6v0.3L-1599.7,1969.1L-1599.7,1969.1z M-1598.8,1964.5c-0.3,0-0.6-0.3-0.6-0.6c0-0.3,0.3-0.6,0.6-0.6
				c0.3,0,0.6,0.3,0.6,0.6C-1598.2,1964.2-1598.4,1964.5-1598.8,1964.5z"/>
			<path class="st0" d="M-1593.5,1968.6v0.3c-0.1,0.1-0.4,0.1-0.7,0.1c-0.5,0-0.7-0.2-0.8-0.6c-0.1,0.3-0.5,0.6-1.1,0.6
				c-0.7,0-1.3-0.4-1.3-1.2c0-1,0.8-1.3,2-1.3c0.1,0,0.2,0,0.3,0v-0.2c0-0.7-0.2-0.9-0.6-0.9c-0.6,0-0.7,0.3-0.8,0.7h-0.7v-0.8
				c0.4-0.2,1-0.4,1.6-0.4c0.9,0,1.5,0.4,1.5,1.4c0,0.2,0,0.9,0,1.7C-1594,1968.5-1594,1968.6-1593.5,1968.6z M-1595.3,1967.1
				c-0.7,0-1.1,0.2-1.1,0.8c0,0.5,0.2,0.7,0.6,0.7c0.3,0,0.6-0.2,0.7-0.4v-1C-1595.1,1967.1-1595.2,1967.1-1595.3,1967.1z"/>
			<path class="st0" d="M-1591,1965.6h-0.8v2.3c0,0.6,0.1,0.8,0.5,0.8c0.1,0,0.3,0,0.5-0.1l0.1,0.4c-0.3,0.2-0.6,0.3-1,0.3
				c-0.7,0-1.1-0.3-1.1-1.1v-2.5h-0.5v-0.3l0.5-0.2c0.1-0.4,0.2-0.8,0.4-1.1l0.6-0.1c0,0.3-0.1,0.8-0.1,1.2h1L-1591,1965.6z"/>
			<path class="st0" d="M-1589.1,1965.6c0.4-0.4,0.7-0.7,1.4-0.7s1.1,0.4,1.1,1.2v2.1c0,0.5,0.1,0.5,0.5,0.6v0.3h-2v-0.3
				c0.5,0,0.5-0.1,0.5-0.5v-2c0-0.5-0.2-0.7-0.6-0.7s-0.7,0.2-1,0.4v2.2c0,0.4,0.1,0.5,0.5,0.5v0.3h-2v-0.3c0.4,0,0.5-0.1,0.5-0.6
				v-3.8c0-0.6-0.1-0.7-0.6-0.7v-0.3l1.3-0.2h0.1c0.1,0.1,0.1,0.4,0.1,0.8v1.7H-1589.1z"/>
		</g>
		<g>
			<g>
				<path class="st0" d="M-1717,1947.9l0.1,2.4h-0.8c-0.2-1.2-0.4-1.5-1.2-1.5h-0.8v7c0,0.8,0.3,1,1.1,1v0.6h-4v-0.6
					c0.9,0,1.1-0.2,1.1-1v-7h-0.8c-0.8,0-0.9,0.4-1.2,1.5h-0.8l0.1-2.3L-1717,1947.9L-1717,1947.9L-1717,1947.9z"/>
				<path class="st0" d="M-1712.1,1950.3c0.2,0,0.4,0,0.5,0.1l-0.4,1.8c-0.2-0.1-0.3-0.1-0.6-0.1c-1.1,0-1.4,0.4-1.4,1.6v2.2
					c0,0.8,0.1,0.9,1.1,1v0.5h-3.7v-0.5c0.7,0,0.9-0.2,0.9-1v-3.3c0-1-0.2-1.1-0.9-1.2v-0.5l2-0.5h0.2c0.2,0.2,0.4,0.8,0.4,1.6
					C-1713.6,1951-1712.8,1950.3-1712.1,1950.3z"/>
				<path class="st0" d="M-1711,1957.4v-0.5c0.7,0,0.9-0.2,0.9-1v-3.3c0-1-0.2-1.1-0.9-1.2v-0.5l2.3-0.5h0.3v5.5
					c0,0.8,0.1,0.9,0.9,1v0.5H-1711z M-1709.4,1949.6c-0.6,0-1-0.5-1-1s0.5-1,1-1c0.6,0,1,0.5,1,1S-1708.8,1949.6-1709.4,1949.6z"/>
				<path class="st0" d="M-1699.9,1955.9c0,0.8,0.1,0.9,0.8,1v0.5h-3.4v-0.5c0.8,0,0.9-0.2,0.9-0.9v-3.3c0-0.8-0.3-1.1-0.9-1.1
					c-0.7,0-1.2,0.3-1.6,0.7v3.7c0,0.7,0.1,0.9,0.9,0.9v0.5h-3.4v-0.5c0.7,0,0.9-0.2,0.9-1v-3.3c0-1-0.2-1.1-0.9-1.2v-0.5l2-0.5h0.2
					c0.1,0.2,0.3,0.7,0.3,1.2c0.6-0.7,1.3-1.2,2.4-1.2s1.9,0.7,1.9,2L-1699.9,1955.9L-1699.9,1955.9L-1699.9,1955.9z"/>
				<path class="st0" d="M-1698.2,1957.4v-0.5c0.7,0,0.9-0.2,0.9-1v-3.3c0-1-0.2-1.1-0.9-1.2v-0.5l2.3-0.5h0.3v5.5
					c0,0.8,0.1,0.9,0.9,1v0.5H-1698.2z M-1696.6,1949.6c-0.6,0-1-0.5-1-1s0.5-1,1-1c0.6,0,1,0.5,1,1S-1696,1949.6-1696.6,1949.6z"/>
				<path class="st0" d="M-1690.1,1951.5h-1.4v3.8c0,1,0.1,1.3,0.8,1.3c0.2,0,0.5-0.1,0.8-0.1l0.2,0.6c-0.5,0.3-1,0.4-1.6,0.4
					c-1.1,0-1.8-0.5-1.8-1.9v-4.1h-0.9v-0.6l0.9-0.3c0.1-0.6,0.3-1.3,0.6-1.8l1.1-0.2c-0.1,0.5-0.1,1.3-0.1,2h1.6L-1690.1,1951.5z"
					/>
				<path class="st0" d="M-1688.5,1959.1c1.1-0.2,2-0.5,2.4-1.8l-0.7,0.1c-0.2-0.7-0.4-1.3-0.8-2.4l-1.1-2.9
					c-0.2-0.7-0.4-0.8-0.9-0.9v-0.7h3.4v0.6c-0.6,0-0.8,0.1-0.8,0.4c0,0.1,0,0.2,0.1,0.3l1,2.8c0.2,0.7,0.3,1.2,0.4,1.5h0.1
					c0-0.2,0.1-0.7,0.3-1.3l0.9-3c0-0.1,0.1-0.2,0.1-0.3c0-0.3-0.2-0.4-0.9-0.4v-0.6h2.7v0.6c-0.5,0.1-0.7,0.2-1,0.9l-1.9,5.5
					c-0.6,1.6-1.3,2.5-2.8,2.8L-1688.5,1959.1z"/>
				<path class="st0" d="M-1678.2,1952.8c0-3.3,1.7-5,4.2-5c1.4,0,2.2,0.3,2.8,0.7v1.7h-1.2c-0.2-1-0.6-1.5-1.6-1.5
					c-1.4,0-2.2,1-2.2,4.1c0,3.3,0.9,4,2.3,4c1.1,0,1.5-0.5,1.7-1.6h1.2v1.6c-0.5,0.4-1.5,0.7-2.9,0.7
					C-1676.8,1957.5-1678.2,1955.8-1678.2,1952.8z"/>
				<path class="st0" d="M-1666.6,1957.5c-2,0-3.3-1.3-3.3-3.6c0-2.2,1.3-3.6,3.3-3.6s3.3,1.3,3.3,3.6
					C-1663.3,1956.3-1664.8,1957.5-1666.6,1957.5z M-1666.6,1951.1c-1.1,0-1.5,0.8-1.5,2.8s0.4,2.9,1.5,2.9c1,0,1.5-0.9,1.5-2.9
					S-1665.6,1951.1-1666.6,1951.1z"/>
				<path class="st0" d="M-1659.7,1955.8c0,0.8,0.1,1,0.9,1v0.5h-3.5v-0.5c0.8,0,0.9-0.2,0.9-1v-6.3c0-1-0.2-1.1-1-1.2v-0.5l2.2-0.4
					h0.2c0.1,0.2,0.2,0.7,0.2,1.3L-1659.7,1955.8L-1659.7,1955.8z"/>
				<path class="st0" d="M-1655.4,1955.8c0,0.8,0.1,1,0.9,1v0.5h-3.5v-0.5c0.8,0,0.9-0.2,0.9-1v-6.3c0-1-0.2-1.1-1-1.2v-0.5l2.2-0.4
					h0.2c0.1,0.2,0.2,0.7,0.2,1.3L-1655.4,1955.8L-1655.4,1955.8L-1655.4,1955.8z"/>
				<path class="st0" d="M-1647.9,1956l0.3,0.5c-0.7,0.6-1.6,1-2.6,1c-2,0-3.2-1.3-3.2-3.6c0-2.3,1.3-3.6,3.1-3.6
					c1.9,0,2.9,1.2,2.9,3.3v0.5h-4.2c0,1.7,0.6,2.4,2,2.4C-1649.1,1956.5-1648.4,1956.3-1647.9,1956z M-1651.7,1953.3h2.5
					c0-1.6-0.3-2.2-1.2-2.2C-1651.1,1951.1-1651.6,1951.6-1651.7,1953.3z"/>
				<path class="st0" d="M-1646.4,1958.5c0-0.5,0.4-0.8,0.7-1h1c-0.1,0.2-0.2,0.4-0.2,0.7c0,0.7,0.4,1,1.5,1c1.3,0,1.7-0.4,1.7-1.2
					c0-0.7-0.4-0.9-1.9-1c-0.5,0-1.1-0.1-1.4-0.1c-0.7-0.1-1-0.6-1-1.1c0-0.6,0.6-1.1,1.4-1.3c-1.1-0.2-1.7-1-1.7-2
					c0-1.4,1.1-2.3,2.7-2.3c0.5,0,0.8,0.1,1.3,0.2c0.3,0.1,0.6,0.2,0.9,0.2c0.4,0,0.9-0.2,1.3-0.5l0.6,1.1c-0.3,0.2-0.7,0.3-1,0.3
					s-0.6-0.1-0.9-0.2c0.4,0.3,0.7,0.7,0.7,1.3c0,1.6-1.6,2.1-2.9,2.1h-0.1c-0.4,0.1-0.6,0.3-0.6,0.6c0,0.2,0.1,0.3,0.4,0.3h1.3
					c1.7,0,2.6,0.5,2.6,1.9c0,1.6-1.4,2.3-3.3,2.3C-1645.2,1960-1646.4,1959.4-1646.4,1958.5z M-1642.4,1952.6
					c0-1.1-0.3-1.5-1.1-1.5c-0.7,0-1.1,0.4-1.1,1.5c0,1,0.4,1.5,1.1,1.5C-1642.7,1954-1642.4,1953.6-1642.4,1952.6z"/>
				<path class="st0" d="M-1633.5,1956l0.3,0.5c-0.7,0.6-1.6,1-2.6,1c-2,0-3.2-1.3-3.2-3.6c0-2.3,1.3-3.6,3.1-3.6
					c1.9,0,2.9,1.2,2.9,3.3v0.5h-4.2c0,1.7,0.6,2.4,2,2.4C-1634.7,1956.5-1634,1956.3-1633.5,1956z M-1637.3,1953.3h2.5
					c0-1.6-0.3-2.2-1.2-2.2C-1636.8,1951.1-1637.2,1951.6-1637.3,1953.3z"/>
				<path class="st0" d="M-1628.7,1956.8c0.8,0,1-0.2,1-1v-6.3c0-0.8-0.2-1-1-1v-0.6h3.7c2.8,0,4.5,1.4,4.5,4.7
					c0,2.9-1.4,4.7-4.6,4.7h-3.7L-1628.7,1956.8L-1628.7,1956.8z M-1625.1,1956.5c1.9,0,2.7-0.7,2.7-3.7c0-3.1-0.9-4-2.7-4h-0.9v7.8
					L-1625.1,1956.5L-1625.1,1956.5z"/>
				<path class="st0" d="M-1612.8,1955.4c0,1,0.2,1.1,0.9,1.2v0.5l-1.9,0.5h-0.2c-0.1-0.3-0.3-0.6-0.3-1.2c-0.6,0.7-1.2,1.1-2.3,1.1
					s-1.9-0.6-1.9-1.9v-3c0-1-0.2-1.1-0.9-1.2v-0.5l2.2-0.5h0.3v4.9c0,0.8,0.3,1.1,0.9,1.1s1-0.2,1.5-0.7v-3.1c0-1-0.2-1.1-0.9-1.2
					v-0.5l2.2-0.5h0.3L-1612.8,1955.4L-1612.8,1955.4L-1612.8,1955.4z"/>
				<path class="st0" d="M-1609.4,1957.4h-1.1c0.1-0.3,0.2-0.7,0.2-1.6v-6.3c0-1-0.2-1.1-0.9-1.2v-0.5l2.2-0.4h0.2
					c0.1,0.2,0.2,0.7,0.2,1.3v2.7c0.4-0.5,1.1-1,2-1c1.6,0,2.6,1.1,2.6,3.5s-1.2,3.6-2.9,3.6c-1,0-1.7-0.5-2.1-1
					C-1609.1,1956.8-1609.3,1957.2-1609.4,1957.4z M-1607.2,1951.5c-0.6,0-1.2,0.3-1.5,0.7v3.7c0.4,0.4,0.8,0.6,1.4,0.6
					c0.9,0,1.5-0.5,1.5-2.6C-1605.8,1952.1-1606.3,1951.5-1607.2,1951.5z"/>
				<path class="st0" d="M-1600.4,1955.8c0,0.8,0.1,1,0.9,1v0.5h-3.5v-0.5c0.8,0,0.9-0.2,0.9-1v-6.3c0-1-0.2-1.1-1-1.2v-0.5l2.2-0.4
					h0.2c0.1,0.2,0.2,0.7,0.2,1.3L-1600.4,1955.8L-1600.4,1955.8L-1600.4,1955.8z"/>
				<path class="st0" d="M-1598.6,1957.4v-0.5c0.7,0,0.9-0.2,0.9-1v-3.3c0-1-0.2-1.1-0.9-1.2v-0.5l2.3-0.5h0.3v5.5
					c0,0.8,0.1,0.9,0.9,1v0.5H-1598.6z M-1597,1949.6c-0.6,0-1-0.5-1-1s0.5-1,1-1c0.6,0,1,0.5,1,1S-1596.4,1949.6-1597,1949.6z"/>
				<path class="st0" d="M-1587.5,1955.9c0,0.8,0.1,0.9,0.8,1v0.5h-3.4v-0.5c0.8,0,0.9-0.2,0.9-0.9v-3.3c0-0.8-0.3-1.1-0.9-1.1
					c-0.7,0-1.2,0.3-1.6,0.7v3.7c0,0.7,0.1,0.9,0.9,0.9v0.5h-3.4v-0.5c0.7,0,0.9-0.2,0.9-1v-3.3c0-1-0.2-1.1-0.9-1.2v-0.5l2-0.5h0.2
					c0.1,0.2,0.3,0.7,0.3,1.2c0.6-0.7,1.3-1.2,2.4-1.2s1.9,0.7,1.9,2L-1587.5,1955.9L-1587.5,1955.9z"/>
			</g>
		</g>
		<g>
			<path class="st0" d="M-1721.1,1975.7h-1.7v-0.6h4.1v0.6h-1.7v5h-0.7C-1721.1,1980.7-1721.1,1975.7-1721.1,1975.7z"/>
			<path class="st0" d="M-1717.8,1974.7h0.7v1.6v0.9c0.4-0.4,0.8-0.7,1.4-0.7c0.9,0,1.3,0.6,1.3,1.6v2.6h-0.7v-2.5
				c0-0.8-0.2-1.1-0.8-1.1c-0.4,0-0.7,0.2-1.1,0.6v3h-0.7L-1717.8,1974.7L-1717.8,1974.7z"/>
			<path class="st0" d="M-1711.6,1976.5c1.1,0,1.7,0.8,1.7,2c0,0.1,0,0.3,0,0.4h-2.8c0.1,0.9,0.6,1.5,1.4,1.5c0.4,0,0.7-0.1,1-0.3
				l0.2,0.5c-0.4,0.2-0.8,0.4-1.4,0.4c-1.1,0-2-0.8-2-2.2C-1713.4,1977.3-1712.5,1976.5-1711.6,1976.5z M-1710.5,1978.4
				c0-0.8-0.4-1.3-1-1.3s-1.1,0.5-1.2,1.3H-1710.5z"/>
			<path class="st0" d="M-1707.1,1975.1h0.7v3.3c0,1.4,0.6,1.8,1.3,1.8s1.3-0.4,1.3-1.8v-3.3h0.7v3.3c0,1.8-0.9,2.4-2,2.4
				s-2-0.6-2-2.4V1975.1z"/>
			<path class="st0" d="M-1701.6,1976.6h0.6l0.1,0.6l0,0c0.4-0.4,0.8-0.7,1.4-0.7c0.9,0,1.3,0.6,1.3,1.6v2.6h-0.8v-2.5
				c0-0.8-0.2-1.1-0.8-1.1c-0.4,0-0.7,0.2-1.1,0.6v3h-0.7V1976.6z"/>
			<path class="st0" d="M-1697.1,1975.3c0-0.3,0.2-0.5,0.5-0.5s0.5,0.2,0.5,0.5s-0.2,0.5-0.5,0.5
				C-1696.8,1975.7-1697.1,1975.5-1697.1,1975.3z M-1696.9,1976.6h0.7v4.2h-0.7V1976.6z"/>
			<path class="st0" d="M-1695.4,1976.6h0.7l0.8,2.4c0.1,0.4,0.3,0.8,0.4,1.2l0,0c0.1-0.4,0.3-0.8,0.4-1.2l0.8-2.4h0.7l-1.5,4.2
				h-0.8L-1695.4,1976.6z"/>
			<path class="st0" d="M-1689.3,1976.5c1.1,0,1.7,0.8,1.7,2c0,0.1,0,0.3,0,0.4h-2.8c0.1,0.9,0.6,1.5,1.4,1.5c0.4,0,0.7-0.1,1-0.3
				l0.2,0.5c-0.4,0.2-0.8,0.4-1.4,0.4c-1.1,0-2-0.8-2-2.2C-1691.2,1977.3-1690.2,1976.5-1689.3,1976.5z M-1688.2,1978.4
				c0-0.8-0.4-1.3-1-1.3s-1.1,0.5-1.2,1.3H-1688.2z"/>
			<path class="st0" d="M-1686.6,1976.6h0.6v0.7l0,0c0.3-0.5,0.7-0.9,1.2-0.9c0.2,0,0.3,0,0.4,0.1l-0.1,0.6c-0.1,0-0.2-0.1-0.4-0.1
				c-0.4,0-0.8,0.3-1.1,1v2.7h-0.7L-1686.6,1976.6L-1686.6,1976.6L-1686.6,1976.6z"/>
			<path class="st0" d="M-1683.8,1979.8c0.4,0.3,0.7,0.5,1.2,0.5s0.8-0.3,0.8-0.7c0-0.4-0.5-0.6-1-0.8c-0.6-0.2-1.2-0.5-1.2-1.2
				s0.5-1.2,1.4-1.2c0.5,0,1,0.2,1.3,0.5l-0.3,0.4c-0.3-0.2-0.6-0.4-1-0.4c-0.5,0-0.8,0.3-0.8,0.6c0,0.4,0.5,0.5,0.9,0.7
				c0.6,0.2,1.3,0.5,1.3,1.3c0,0.7-0.5,1.2-1.5,1.2c-0.6,0-1.2-0.2-1.6-0.6L-1683.8,1979.8z"/>
			<path class="st0" d="M-1680.3,1975.3c0-0.3,0.2-0.5,0.5-0.5s0.5,0.2,0.5,0.5s-0.2,0.5-0.5,0.5
				C-1680,1975.7-1680.3,1975.5-1680.3,1975.3z M-1680.1,1976.6h0.7v4.2h-0.7V1976.6z"/>
			<path class="st0" d="M-1677.9,1977.2h-0.6v-0.5h0.7l0.1-1.2h0.6v1.2h1.1v0.6h-1.1v2.3c0,0.5,0.2,0.8,0.6,0.8
				c0.1,0,0.3-0.1,0.5-0.1l0.1,0.5c-0.2,0.1-0.5,0.2-0.8,0.2c-0.9,0-1.2-0.6-1.2-1.4C-1677.9,1979.6-1677.9,1977.2-1677.9,1977.2z"
				/>
			<path class="st0" d="M-1675.1,1982c0.5,0,0.8-0.4,0.9-0.9l0.1-0.3l-1.7-4.2h0.8l0.8,2.3c0.1,0.4,0.3,0.8,0.4,1.2l0,0
				c0.1-0.4,0.2-0.8,0.4-1.2l0.7-2.3h0.7l-1.6,4.5c-0.3,0.8-0.7,1.4-1.6,1.4c-0.2,0-0.4,0-0.5-0.1l0.1-0.6
				C-1675.3,1981.9-1675.2,1982-1675.1,1982z"/>
			<path class="st0" d="M-1667.8,1976.5c1,0,1.9,0.8,1.9,2.2s-0.9,2.2-1.9,2.2s-1.9-0.8-1.9-2.2S-1668.8,1976.5-1667.8,1976.5z
				 M-1667.8,1980.3c0.7,0,1.2-0.6,1.2-1.6s-0.5-1.6-1.2-1.6s-1.2,0.7-1.2,1.6S-1668.5,1980.3-1667.8,1980.3z"/>
			<path class="st0" d="M-1662.9,1975.2c-0.2-0.1-0.3-0.1-0.5-0.1c-0.4,0-0.6,0.3-0.6,0.8v0.7h0.9v0.6h-0.9v3.6h-0.7v-3.6h-0.6v-0.5
				h0.6v-0.7c0-0.8,0.4-1.4,1.2-1.4c0.3,0,0.5,0.1,0.7,0.1L-1662.9,1975.2z"/>
			<path class="st0" d="M-1660.4,1975.1h1.4c1.7,0,2.7,1,2.7,2.8s-0.9,2.8-2.6,2.8h-1.4L-1660.4,1975.1L-1660.4,1975.1
				L-1660.4,1975.1z M-1659.1,1980.2c1.3,0,2-0.8,2-2.3c0-1.4-0.7-2.2-2-2.2h-0.6v4.5H-1659.1z"/>
			<path class="st0" d="M-1655.3,1976.6h0.7v2.5c0,0.8,0.2,1.1,0.8,1.1c0.4,0,0.7-0.2,1.1-0.7v-3h0.7v4.2h-0.6l-0.1-0.7l0,0
				c-0.4,0.5-0.8,0.8-1.4,0.8c-0.9,0-1.3-0.6-1.3-1.6L-1655.3,1976.6L-1655.3,1976.6z"/>
			<path class="st0" d="M-1650.6,1974.7h0.7v1.6v0.8c0.4-0.3,0.8-0.6,1.3-0.6c1.1,0,1.7,0.8,1.7,2.1c0,1.4-0.8,2.3-1.8,2.3
				c-0.4,0-0.8-0.2-1.2-0.5l0,0l-0.1,0.4h-0.6V1974.7L-1650.6,1974.7z M-1648.9,1980.3c0.7,0,1.2-0.6,1.2-1.7c0-0.9-0.3-1.5-1.1-1.5
				c-0.4,0-0.7,0.2-1.1,0.6v2.2C-1649.5,1980.1-1649.1,1980.3-1648.9,1980.3z"/>
			<path class="st0" d="M-1645.8,1974.7h0.7v5.3c0,0.2,0.1,0.3,0.2,0.3c0,0,0.1,0,0.2,0l0.1,0.5c-0.1,0-0.2,0.1-0.4,0.1
				c-0.5,0-0.7-0.3-0.7-0.9L-1645.8,1974.7L-1645.8,1974.7z"/>
			<path class="st0" d="M-1643.8,1975.3c0-0.3,0.2-0.5,0.5-0.5s0.5,0.2,0.5,0.5s-0.2,0.5-0.5,0.5
				C-1643.6,1975.7-1643.8,1975.5-1643.8,1975.3z M-1643.6,1976.6h0.7v4.2h-0.7V1976.6z"/>
			<path class="st0" d="M-1641.5,1976.6h0.6l0.1,0.6l0,0c0.4-0.4,0.8-0.7,1.4-0.7c0.9,0,1.3,0.6,1.3,1.6v2.6h-0.7v-2.5
				c0-0.8-0.2-1.1-0.8-1.1c-0.4,0-0.7,0.2-1.1,0.6v3h-0.7L-1641.5,1976.6L-1641.5,1976.6L-1641.5,1976.6z"/>
		</g>
	</g>
	<g>
		<g>
			<path class="st0" d="M-1752.5,1995.1L-1752.5,1995.1c-0.3-0.1-19.5-3.4-19.5-19.5v-29.2h0.3c0.1,0,8.1-1,19.1-1s19,1,19.1,1h0.3
				v29.2C-1733.1,1991.7-1752.3,1995-1752.5,1995.1L-1752.5,1995.1z M-1771.3,1947v28.6c0,15,17.5,18.5,18.7,18.7
				c1.2-0.2,18.7-3.7,18.7-18.7V1947c-1.6-0.2-9-1-18.7-1S-1769.6,1946.8-1771.3,1947z"/>
		</g>
		<g>
			<path class="st0" d="M-1766.5,1950.4c0.2,0.3,0.4,0.6,0.8,0.6c0.5,0,0.8-0.2,1-0.5c-0.4,0.2-0.8-0.2-0.9-0.4
				c-0.2-0.2-0.5-0.5-0.9-0.5c-0.1,0-0.4,0-0.7,0.2C-1766.8,1949.9-1766.6,1950.2-1766.5,1950.4 M-1765.3,1950.7
				c-0.7,0.3-0.9-0.7-1.3-0.8C-1766.1,1949.8-1765.8,1950.7-1765.3,1950.7"/>
		</g>
		<g>
			<path class="st0" d="M-1758,1949.5c0.5,0.4,1.6,0.4,2-0.1c0.3,0.3,1.2,0.4,1.7,0c0.4,0.1,1.1,0.5,1.9-0.3c-0.4,0-0.8-0.2-1-0.4
				c-0.3-0.2-0.6-0.4-1.2,0c-0.5-0.3-1.1-0.4-1.7,0c-0.7-0.5-1.6-0.2-1.8,0c-0.5-0.2-1.4-0.3-2,0.3c-0.4,0.4-0.7,0.9-0.7,1.4
				c0,1,0.6,1.8,1.7,1.9c0.6,0,1.5-0.1,2.5-0.2c0.9-0.1,1.8-0.1,2.4,0.2c0.9,0.4,0.9,1.3,0.2,1.5c-0.6,0.2-2.2-0.4-2.9,0.1
				c-0.7-0.9-2.9,0-3.9-0.1c-0.1,0.3-0.3,0.6-0.7,0.5c0.4,0.5,0.2,1.6-0.7,1.7c-0.2,0.3-0.7,0.5-1.1,0.3c-0.1,0.5-0.9,0.9-1.3,0.5
				c-0.2,0.2-0.4,0.7-0.3,0.9c-0.3,0.1-0.4,0.4-0.7,0.5c0.1-0.3,0-0.5-0.1-0.6s-0.3-0.1-0.5,0h-0.5l0.3,0.2c0,0,0,0.1-0.1,0.1
				c0.1-0.1,0.4,0,0.5,0.1v0.1c-0.4-0.1-0.7,0.1-0.7,0.4l-0.3,0.4l0.4-0.1c0.1,0.1,0.1,0.1,0.2,0.2c0.2,0.1,0.3,0,0.3-0.1
				s-0.1-0.1-0.1-0.1c0.1,0,0.2-0.1,0.2,0s0,0.2-0.1,0.3c-0.2,0.1-0.4,0.1-0.5,0c-0.2,0.4,0,0.7,0.3,0.8l0.2,0.4l0.1-0.4
				c0.3-0.1,0.4-0.2,0.4-0.4c0.1,0,0.1,0.1,0.2,0.1l0.2,0.4v-0.7c0,0,0,0,0.1,0c0.2-0.2,0.1-0.5,0.1-0.6c0.3,0,0.5-0.1,0.6-0.4
				c0.3,0.2,0.8,0.1,1.1-0.1l-0.2-0.2c0,0,0.6-0.1,0.9-0.2l-0.2-0.2c0,0,0.7-0.2,0.9-0.3l-0.2-0.1c0,0,0.5-0.3,0.8-0.9
				c1-0.1,1.9-1.4,3-1.5c-0.1-0.1-0.4-0.2-0.4-0.3l-0.1-0.2c0.7,0.1,0.9,0.4,1.2,1c0.2,0.6,0.7,1,1.2,1.1s0.9,0.1,1.1,0.1
				c0.6,0,0.9,0.3,0.9,0.9c0,0.2-0.1,0.5-0.2,0.6c-0.2,0.1-0.6-0.4-0.9-0.2c-0.1,0-0.1,0.1-0.1,0.1l-0.4,0.1l0.3,0.1
				c0,0.1,0,0.2,0,0.3c0.3-0.1,0.5-0.1,0.6-0.1l-0.1,0.2c-0.2,0-0.9,0-0.8,0.6c0,0.1,0.1,0.2,0.1,0.3l-0.1,0.3l0.4-0.3
				c0.2,0,0.4,0,0.6-0.1c0.2,0.2,0.4,0.4,0.7,0.4l0.3,0.4l-0.1-0.5c0.2-0.1,0.3-0.3,0.1-0.8c0.1,0,0.2,0,0.3,0l0.3,0.2l-0.1-0.4
				c0.1-0.2,0.1-0.4,0-0.6c0.2-0.2,0.3-0.4,0.4-0.5c-0.1,0-0.3-0.1-0.3-0.1s0.3-0.3,0.4-0.5c-0.2-0.1-0.4-0.3-0.4-0.5l0,0
				c0.2,0,0.4-0.1,0.4-0.3c0-0.2-0.2-0.3-0.4-0.3c0-0.2-0.1-0.4-0.3-0.4c-0.2,0-0.3,0.1-0.3,0.4h-0.4c0.2-0.4-0.2-1.7-1.7-1.2
				l-0.1-0.2c0.5-0.5,1.4-0.1,2.1-0.1s1.2-0.5,1.2-1.2c0-0.3-0.1-0.9-0.8-1.4c0.4-0.6-0.2-0.9-0.5-1.1c0,0.4-0.2,0.7-0.5,0.8
				c0-0.2-0.3-0.7-0.7-0.8c0,0.3-0.3,0.7-0.5,0.9c0-0.1-0.2-0.6-0.7-0.8c0,0.3-0.3,0.7-0.5,0.9c0-0.3-0.3-0.6-0.7-0.8
				c-0.2,0.3-0.6,0.8-1.2,0.8c-0.7,0-1.3-0.6-1.3-1.3c0-0.3,0.1-0.6,0.3-0.8l-0.1-0.1l0.3-0.1
				C-1759.4,1949.8-1758.7,1949.9-1758,1949.5"/>
		</g>
		<g>
			<path class="st0" d="M-1757.5,1956.1c-0.2-0.2-0.6-0.6-0.7-1.1c-0.1,0-0.4,0.1-0.6,0.1c-0.2,0.1-0.4,0.7-0.4,0.7
				s-0.4,0.1-0.6,0.8l0.2-0.1c-0.1,0.5,0,1,0.2,1.2c-0.2,0.1-0.5,0.2-0.7,0.4c-0.1,0-0.1-0.3-0.3-0.5c-0.1-0.1-0.3-0.2-0.5,0h-0.4
				l0.3,0.2c0,0,0,0.1-0.1,0.1c0.1,0.1,0.3,0.2,0.4,0.2l-0.1,0.1c-0.5-0.3-0.9-0.1-0.9,0.2v0.1l-0.3,0.3l0.4-0.1
				c0.1,0.1,0.1,0.1,0.3,0.1c-0.4,0.3-0.1,0.8,0.2,0.8l0.2,0.4v-0.4c0.3-0.1,0.4-0.3,0.5-0.4c0.1,0.1,0.1,0.1,0.2,0.1l0.1,0.4
				l0.1-0.4h0.1c0.3-0.2,0.1-0.5,0.1-0.5s0.4,0.1,0.6-0.2c0.3,0.1,0.5,0,0.8,0l-0.2-0.3c0,0,0.4,0,0.6-0.1c0-0.3,0-0.4,0-0.5h0.1
				c0.2,0,0.4-0.1,0.4-0.3s-0.1-0.3-0.3-0.3h-0.2C-1758,1956.7-1757.8,1956.3-1757.5,1956.1"/>
		</g>
		<g>
			<path class="st0" d="M-1766,1954.7c-0.2-0.4-0.2-1,0-1.4h-0.5c0-0.5-0.8-0.6-0.9-0.8c0.2-0.3,0.4-0.2,0.6-0.4s0.2-0.4,0-0.5
				l0.2-0.3l-0.7,0.5l-0.1-0.1c0.1-0.1,0.4-0.4,0.3-0.6c0-0.1-0.1-0.1-0.2-0.2l-0.2-0.5l-0.1,0.5c-0.1,0-0.2,0.1-0.2,0.2
				c0.1,0.1,0.2,0.4,0.1,0.6c0,0.1-0.2,0.2-0.2,0.3h0.1c0,0.1-0.1,0.2-0.2,0.1c0-0.1,0-0.2,0-0.4c0.1-0.1,0.2-0.3,0-0.5
				c0-0.1-0.2-0.2-0.4,0l-0.3-0.2l0.2,0.5c-0.1,0.3,0,0.6,0,0.6c-0.1,0-0.1,0.1-0.2,0.1l-0.5-0.2l0.3,0.5v0.1
				c0.1,0.2,0.4,0.3,0.4,0.3c0,0.3,0.2,0.6,0.5,0.6c0,0.3,0,0.6,0.3,0.9l0.1-0.4c0.1,0.1,0.4,0.6,0.4,0.6l0.1-0.3
				C-1767.1,1954.3-1766.8,1954.9-1766,1954.7"/>
		</g>
		<g>
			<path class="st0" d="M-1765.1,1949.4c-0.1-0.1,0-0.2,0-0.2c0.1-0.1,0.2,0,0.2,0c0.1,0.1,0.1,0.2,0,0.3c0,0.1-0.3,0.1-0.5,0.1
				c0,0.5,0.5,0.6,0.6,0.6c0.3,0,0.6-0.1,0.8-0.3c0.1-0.1,0.2-0.1,0.3-0.2c0.2-0.1,0.4,0,0.4,0.2v0.5c-0.1,0.3-0.2,0.3-0.5,0.3
				c-0.4,0.1-1.4,0.2-1.2,1c0.1,0,0.4-0.1,0.5-0.3l0.4,0.2c0.3-0.5,1-0.2,1.3-0.9h0.2c-0.1,1.2-2.3,1.1-3,2.2
				c-0.4,0.7-0.3,1.9,0.4,2.7h-0.1c-0.2,0-0.3,0.2-0.3,0.4s0.2,0.4,0.4,0.4c0,0,0.2-0.1,0.2-0.2c0-0.2,0.2-0.4,0.5-0.4
				c-0.1-0.4-1-1-0.6-2.1h0.1c-0.2,1,0.9,1.7,0.8,2.3c0,0.1-0.1,0.2-0.2,0.2s-0.1-0.1,0-0.1v-0.1c-0.1,0-0.2,0.1-0.2,0.1
				c-0.1,0.1-0.1,0.2,0,0.3c0,0.1,0.1,0.1,0.2,0.2s0.3,0.1,0.4,0c0.3-0.1,0.5-0.4,0.5-0.7c0,0,0-0.3,0-0.4c-0.7-0.5-1.2-1.5-0.8-2.6
				l0.2,0.1c-0.2,0.7,0.1,1.9,1,2.5c0.1,0,0.1,0.2,0,0.2c0,0-0.1,0.1-0.1,0c0,0-0.1-0.1-0.2-0.1c0,0.1,0,0.3,0.1,0.3l0,0
				c0.1,0.1,0.1,0.1,0.2,0.1c0.3,0,0.5-0.2,0.6-0.6c0.1-0.8-1.3-1.4-0.8-2.7h0.2c-0.3,1.4,1,1.5,1,2.6c0.3,0,0.6-0.4,0.5-0.8
				c-0.2-0.6-1-0.8-0.7-1.7h0.2c-0.1,0.3-0.1,0.6,0.2,0.8c0.2,0.2,0.5,0.2,0.7,0c0.2,0,0.2-0.3,0.1-0.6c-0.5,0-0.6-0.5-0.7-1
				c0-0.3,0-0.6-0.2-0.9c0.5-0.2,0.4-0.7,0.2-0.8c0.3-0.2,0.1-0.6,0-0.7c0.1-0.1,0.3-0.3,0.3-0.7c-0.2,0-0.3,0-0.4,0
				c0.1-0.1,0.1-0.3,0.1-0.4s-0.1-0.3-0.4-0.3s-0.4,0.2-0.4,0.3c0,0-0.3-0.1-0.6-0.1c-0.4-0.1-1-0.2-1.2,0l-0.2,0.4c0,0-0.5,0-1,0.2
				C-1765.6,1949.2-1765.6,1949.5-1765.1,1949.4 M-1764.1,1948.8L-1764.1,1948.8C-1764,1948.9-1764,1948.9-1764.1,1948.8
				c0.2,0,0.3,0,0.6,0c0.2,0,0.4,0.2,0.5,0.2l-0.2,0.1h-0.1c0,0.1,0,0.1-0.1,0.1c0,0.1-0.1,0.1-0.1,0.1c-0.1,0-0.2,0-0.2-0.1
				l-0.1-0.1c0,0,0,0-0.1,0c0,0-0.1,0-0.1,0.1c0,0,0,0-0.1,0s-0.1,0-0.1-0.1C-1764.2,1949-1764.2,1948.9-1764.1,1948.8"/>
		</g>
		<g>
			<path class="st0" d="M-1743.5,1960.7c-0.1,0.3,0.3,0.6,0.5,0.6l0,0c0.3,0,0.9-0.1,1.3-1.1c0.2-0.5,0.2-1.1,0-1.4
				s-0.7-0.4-0.9-0.2c0.4,0.1,0.5,0.8,0.3,1.3C-1742.6,1960.4-1743,1960.8-1743.5,1960.7"/>
		</g>
		<g>
			<path class="st0" d="M-1742.8,1958.7c-2-1.2-4.2-4.1-3.6-8.3c-0.2,0.1-0.5,0.1-0.7,0.1c-0.7,3.6-0.2,7.4,3.6,9.9
				C-1742.8,1960.6-1742.2,1959.3-1742.8,1958.7"/>
		</g>
		<g>
			<path class="st0" d="M-1738.4,1948.4c-0.1,0-0.1,0-0.2,0c-0.5,0-1.2,0.2-1.9,0.4c-0.8,0.2-1.7,0.5-2.6,0.5
				c-0.8,0-1.5-0.2-2.2-0.7c-0.1,0-0.1-0.1-0.2-0.1c-0.5-0.4-0.9-0.6-1.5-0.6s-1.2,0.5-1.2,1.1s0.5,1,1.1,1c0.5,0,0.7-0.2,0.8-0.6
				c0-0.2,0-0.4-0.4-0.6l0.1-0.3c0.6,0.1,1,0.7,0.6,1.3c0.5,0.4,1.6,0.8,2.5,0.8c1,0,2-0.4,2.8-0.7c0.7-0.3,1.3-0.5,1.8-0.5
				c0.1,0,0.2,0,0.2,0l0,0l-0.1,0.3l1.3,0.5l0.1-0.4c0-0.1,0.1-0.3,0.1-0.4C-1737.3,1949-1737.7,1948.5-1738.4,1948.4"/>
		</g>
		<g>
			<path class="st0" d="M-1741.5,1962.7L-1741.5,1962.7l0.1-0.3l-2.4-0.9l-0.1,0.3l0,0h-0.1c-0.1,0-0.3,0.1-0.3,0.2
				c-0.1,0.2,0,0.3,0.2,0.4l0,0l-0.1,0.3l2.3,0.9l0.2-0.3l0,0c0,0,0,0,0.1,0s0.3-0.1,0.3-0.2
				C-1741.3,1962.9-1741.4,1962.8-1741.5,1962.7"/>
		</g>
		<g>
			<polygon class="st0" points="-1739,1950.2 -1739.1,1950.5 -1739.2,1950.5 -1739.4,1950.9 -1737.6,1951.6 -1737.5,1951.1 
				-1737.6,1951.1 -1737.5,1950.7 			"/>
		</g>
		<g>
			<path class="st0" d="M-1741.3,1958.5l-0.2-0.3l2.6-6.7l-0.4-0.2l-0.2,0.4l-0.7-1.3c-0.1,0-0.2,0.1-0.3,0.1l0,0l0.9,1.5l-0.3,0.7
				l-1.2-2c-0.1,0-0.2,0.1-0.3,0.1l1.3,2.3l-0.3,0.7l-1.6-2.8c-0.1,0-0.2,0.1-0.3,0.1l1.8,3.1l-0.3,0.7l0,0l-2.2-3.7
				c-0.1,0-0.2,0-0.4,0l2.4,4.1c-0.1,0.2-0.3,0.7-0.3,0.7l-2.9-4.9c-0.1,0-0.3-0.1-0.4-0.1l3.1,5.3c0,0-0.2,0.6-0.3,0.7l-3.7-6.4
				c-0.2-0.1-0.4-0.2-0.6-0.3l4.2,7.1c0,0-0.3,0.7-0.3,0.8c0.8-0.1,1.4,0.9,0.9,2c-0.4,0.9-0.9,1.2-1.3,1.3l1.2,0.4l3.4-10.1
				l-0.6-0.2L-1741.3,1958.5z"/>
		</g>
		<g>
			<g>
				<path class="st0" d="M-1756.3,1973.5L-1756.3,1973.5v-10.7h7.3c0.6,0,1.1,0.1,1.3,0.6c0.1,0.3,0.1,0.6-0.1,0.8
					c-0.1,0.2-0.4,0.3-0.6,0.3h-6.2v0.7c0.1,0,0.2,0,0.2,0c0.1,0,0.1,0,0.1,0v-0.3h0.1c0,0,5.5,0,5.9,0c0.3,0,0.6-0.2,0.8-0.5l0,0
					l0,0l0,0l0,0c0.2-0.2,0.2-0.7,0.1-1c-0.2-0.6-0.7-1-1.5-1h-7.9v11.4h1C-1756,1973.6-1756.2,1973.5-1756.3,1973.5L-1756.3,1973.5
					z"/>
			</g>
			<g>
				<path class="st0" d="M-1754.7,1969.3v0.9c0.1,0,0.2,0,0.2,0c0.1,0,0.1,0,0.1,0v-0.9h-0.1
					C-1754.5,1969.3-1754.6,1969.3-1754.7,1969.3z"/>
			</g>
			<g>
				<path class="st0" d="M-1757.8,1970.9L-1757.8,1970.9c0-0.5-0.1-0.8-0.3-0.9h-0.1c-0.1,0-0.2,0-0.2,0.3v0.2l-0.2-0.1h-0.1
					c-0.1,0-0.2,0.1-0.2,0.3c-0.1,0.3,0,0.6,0.5,0.8h0.1v0.1c0,0.3,0.1,0.5,0.3,0.6c0.2,0,0.3-0.2,0.3-0.2v-0.2l0.2,0.1
					c0.1,0,0.3,0.1,0.5,0.1c0.1,0,0.2,0,0.3,0v-0.8C-1757.2,1971-1757.5,1971-1757.8,1970.9L-1757.8,1970.9z"/>
			</g>
			<g>
				<path class="st0" d="M-1757.8,1964.3L-1757.8,1964.3c0-0.5-0.1-0.8-0.3-0.9h-0.1c-0.1,0-0.2,0-0.2,0.3v0.2l-0.2-0.1h-0.1
					c-0.1,0-0.2,0.1-0.2,0.3c-0.1,0.3,0,0.6,0.5,0.8h0.1v0.1c0,0.3,0.1,0.5,0.3,0.6c0.2,0,0.3-0.2,0.3-0.2v-0.2l0.2,0.1
					c0.1,0,0.3,0.1,0.5,0.1c0.1,0,0.2,0,0.3,0v-0.8C-1757.2,1964.5-1757.5,1964.5-1757.8,1964.3L-1757.8,1964.3z"/>
			</g>
			<g>
				<path class="st0" d="M-1748.2,1974.6h-6v-0.3h-0.1c-0.1,0-0.2,0-0.2,0v0.7h6.4c0.4,0,0.8-0.1,1-0.4c0.1-0.1,0.1-0.2,0-0.4
					C-1747.5,1974.4-1747.9,1974.6-1748.2,1974.6z"/>
			</g>
			<g>
				<path class="st0" d="M-1754.7,1972v0.3c0.1,0,0.2,0,0.2,0c0.1,0,0.1,0,0.1,0v-0.3h-0.1
					C-1754.5,1972.1-1754.6,1972.1-1754.7,1972z"/>
			</g>
			<g>
				<path class="st0" d="M-1755.8,1963.3v9.9c0.1,0.1,0.3,0.2,0.5,0.3c0-0.1,0-0.1,0-0.2c0-0.3,0.1-0.5,0.3-0.7v-0.8
					c-0.2-0.2-0.3-0.4-0.3-0.7c0-0.3,0.1-0.5,0.3-0.7v-1.3c-0.2-0.2-0.3-0.4-0.3-0.7s0.1-0.5,0.3-0.7v-0.8c-0.2-0.2-0.3-0.4-0.3-0.7
					c0-0.3,0.1-0.5,0.3-0.7v-1.3h0.2C-1755.2,1963.7-1755.6,1963.5-1755.8,1963.3z"/>
			</g>
			<g>
				<path class="st0" d="M-1748.5,1964.1c0.1,0,0.2,0,0.3-0.1c0.1-0.1,0.1-0.3,0-0.4c-0.1-0.2-0.2-0.3-0.9-0.3h-6.2
					c0.3,0.2,0.6,0.5,0.8,0.9L-1748.5,1964.1L-1748.5,1964.1L-1748.5,1964.1z"/>
			</g>
			<g>
				<path class="st0" d="M-1748,1974.3c0.2,0,0.5-0.1,0.5-0.4v-8.9c-0.2,0.1-0.3,0.2-0.5,0.3V1974.3z"/>
			</g>
			<g>
				<path class="st0" d="M-1754,1967v0.5c0.2,0.1,0.3,0.2,0.4,0.4c0.1-0.2,0.2-0.4,0.2-0.6s-0.1-0.4-0.2-0.6l0,0
					C-1753.7,1966.8-1753.9,1966.9-1754,1967z"/>
			</g>
			<g>
				<path class="st0" d="M-1754.4,1967.1c-0.1,0-0.2,0-0.2,0v0.3c0.1,0,0.2,0,0.2,0c0.1,0,0.1,0,0.1,0L-1754.4,1967.1
					L-1754.4,1967.1z"/>
			</g>
			<g>
				<path class="st0" d="M-1753.6,1972.8c0.1-0.2,0.2-0.4,0.2-0.6s-0.1-0.4-0.2-0.6c-0.1,0.2-0.2,0.3-0.4,0.4v0.4
					C-1753.9,1972.5-1753.7,1972.6-1753.6,1972.8z"/>
			</g>
			<g>
				<path class="st0" d="M-1753.9,1968.4c0-0.3-0.2-0.5-0.5-0.5s-0.5,0.2-0.5,0.5s0.2,0.5,0.5,0.5
					C-1754.2,1968.8-1753.9,1968.6-1753.9,1968.4z"/>
			</g>
			<g>
				<path class="st0" d="M-1753.9,1971.1c0-0.3-0.2-0.5-0.5-0.5s-0.5,0.2-0.5,0.5s0.2,0.5,0.5,0.5
					C-1754.2,1971.6-1753.9,1971.4-1753.9,1971.1z"/>
			</g>
			<g>
				<circle class="st0" cx="-1754.4" cy="1966.2" r="0.5"/>
			</g>
			<g>
				<path class="st0" d="M-1753.9,1973.3c0-0.3-0.2-0.5-0.5-0.5s-0.5,0.2-0.5,0.5s0.2,0.5,0.5,0.5
					C-1754.2,1973.8-1753.9,1973.6-1753.9,1973.3z"/>
			</g>
			<g>
				<polygon class="st0" points="-1749,1966.8 -1750.5,1968.2 -1749.2,1969.6 -1748.3,1968.8 -1748.3,1967.5 				"/>
			</g>
			<g>
				<polygon class="st0" points="-1748.3,1966.1 -1748.8,1966.6 -1748.3,1967.1 				"/>
			</g>
			<g>
				<path class="st0" d="M-1754,1974.3h2.8l-1.2-1.2l-0.5,0.5l-0.1-0.3l0.5-0.4l-0.2-0.2l0.2-0.2l0.2,0.2l1.2-1.2l-1.4-1.4l-0.6,0.6
					l-0.2-0.2l0.6-0.6l-0.6-0.6l0.2-0.2l0.6,0.6l1.5-1.4l-1.4-1.4l-0.2,0.2l-0.2-0.2l0.2-0.2l-0.6-0.6l0.2-0.2l0.6,0.6l1.3-1.2h-3
					l0,0c0.3,0.2,0.6,0.5,0.6,0.9l0,0c0.3,0.3,0.5,0.6,0.5,1.1c0,0.4-0.2,0.8-0.5,1.1l0,0c0,0.4-0.2,0.7-0.6,0.9v1
					c0.3,0.2,0.6,0.5,0.6,0.9l0,0c0.3,0.3,0.5,0.6,0.5,1.1c0,0.4-0.2,0.8-0.5,1.1l0,0C-1753.5,1973.8-1753.7,1974.1-1754,1974.3
					L-1754,1974.3L-1754,1974.3L-1754,1974.3z"/>
			</g>
			<g>
				<polygon class="st0" points="-1750.2,1965.2 -1749,1966.3 -1748.3,1965.6 -1748.3,1965.2 				"/>
			</g>
			<g>
				<polygon class="st0" points="-1748.3,1969.2 -1749,1969.8 -1748.3,1970.5 				"/>
			</g>
			<g>
				<polygon class="st0" points="-1748.3,1971.9 -1748.3,1970.9 -1749.2,1970.1 -1750.7,1971.5 -1749.3,1972.9 				"/>
			</g>
			<g>
				<polygon class="st0" points="-1748.3,1972.4 -1749.1,1973.1 -1748.3,1973.9 				"/>
			</g>
			<g>
				<polygon class="st0" points="-1752.1,1966.6 -1750.8,1968 -1749.3,1966.6 -1750.6,1965.2 				"/>
			</g>
			<g>
				<polygon class="st0" points="-1752.2,1969.9 -1750.9,1971.3 -1749.4,1969.8 -1750.8,1968.4 				"/>
			</g>
			<g>
				<polygon class="st0" points="-1749.5,1973.1 -1750.9,1971.7 -1752.1,1972.9 -1750.7,1974.3 				"/>
			</g>
			<g>
				<polygon class="st0" points="-1749.3,1973.3 -1750.3,1974.3 -1748.4,1974.3 				"/>
			</g>
		</g>
		<g>
			<path class="st0" d="M-1751.5,1984.3v-0.6h0.5c-0.1-0.1-0.1-0.2-0.2-0.3h-0.3v-0.3c-0.1-0.1-0.2-0.1-0.3-0.2v0.5h-0.6v-0.5h-0.3
				v0.5h-0.6v-0.4c-0.1,0.1-0.2,0.1-0.3,0.2v0.2h-0.2c-0.1,0.1-0.1,0.2-0.2,0.3h0.4v0.6h-0.6v0.1v0.2h0.6v0.6h0.3v-0.6h0.6v0.6h0.3
				v-0.6h0.6v0.6h0.3v-0.6h0.6v-0.2v-0.1L-1751.5,1984.3L-1751.5,1984.3z M-1752.7,1984.3h-0.6v-0.6h0.6V1984.3z M-1751.8,1984.3
				h-0.6v-0.6h0.6V1984.3z"/>
		</g>
		<g>
			<path class="st0" d="M-1763.5,1975.7C-1763.5,1975.7-1763.4,1975.7-1763.5,1975.7l0.4-0.1l0.4,1c0.1,0,0.2,0,0.3,0v-1h1.7v1
				c0.1,0,0.2,0,0.3,0l0.4-0.9h0.3h0.1c-0.1-1-0.9-1.8-2-1.8C-1762.5,1973.9-1763.4,1974.7-1763.5,1975.7"/>
		</g>
		<g>
			<path class="st0" d="M-1745.9,1979.9c0-0.2,0.2-0.4,0.3-0.5v-1.1h-0.9v1.4h-1.7v-1.4h-1.7v1.4h-1.7v-1.4h-1.7v1.4h-1.7v-1.4h-1.7
				v1.4h-1.7v-1.4h-0.9v1.1c0.2,0.1,0.3,0.3,0.3,0.5s-0.1,0.4-0.3,0.5v0.2h13.8v-0.2C-1745.8,1980.3-1745.9,1980.1-1745.9,1979.9"/>
		</g>
		<g>
			<path class="st0" d="M-1753.4,1981.4v-0.4h-5.9l0.3,6.2h3.5v-2.9C-1755.6,1983-1754.7,1981.8-1753.4,1981.4 M-1756.9,1983
				L-1756.9,1983v1.3h-0.5h-0.5v-1.3l0,0v-0.8c0-0.2,0.3-0.5,0.4-0.5l0.1-0.1l0.1,0.1c0.1,0.1,0.4,0.3,0.4,0.5V1983z"/>
		</g>
		<g>
			<path class="st0" d="M-1755.3,1984.4v0.4h0.7v-0.4c0-0.1,0-0.2,0-0.3l-0.7-0.2C-1755.3,1984-1755.3,1984.2-1755.3,1984.4"/>
		</g>
		<g>
			<rect x="-1755.3" y="1986.4" class="st0" width="0.7" height="0.8"/>
		</g>
		<g>
			<rect x="-1755.3" y="1985.2" class="st0" width="0.7" height="0.8"/>
		</g>
		<g>
			<path class="st0" d="M-1750.5,1984.1c0,0.1,0,0.2,0,0.3v0.4h0.7v-0.4c0-0.2,0-0.3,0-0.5L-1750.5,1984.1z"/>
		</g>
		<g>
			<path class="st0" d="M-1754.6,1982.6c-0.2,0.3-0.4,0.6-0.5,0.9l0.7,0.2c0.1-0.2,0.2-0.4,0.3-0.6L-1754.6,1982.6z"/>
		</g>
		<g>
			<rect x="-1750.5" y="1986.4" class="st0" width="0.7" height="0.8"/>
		</g>
		<g>
			<path class="st0" d="M-1750.5,1982.6l-0.5,0.5c0.1,0.2,0.3,0.4,0.3,0.6l0.7-0.2C-1750.1,1983.2-1750.2,1982.9-1750.5,1982.6"/>
		</g>
		<g>
			<rect x="-1750.5" y="1985.2" class="st0" width="0.7" height="0.8"/>
		</g>
		<g>
			<polygon class="st0" points="-1752,1981 -1753.1,1981 -1753,1982.6 -1752.1,1982.6 			"/>
		</g>
		<g>
			<path class="st0" d="M-1753.4,1982.5l-0.1-0.7c-0.3,0.1-0.6,0.3-0.9,0.5l0.5,0.5C-1753.7,1982.7-1753.5,1982.6-1753.4,1982.5"/>
		</g>
		<g>
			<path class="st0" d="M-1750.7,1982.3c-0.3-0.2-0.6-0.4-0.9-0.5v0.7c0.2,0.1,0.3,0.2,0.5,0.3L-1750.7,1982.3z"/>
		</g>
		<g>
			<path class="st0" d="M-1763.2,1979.6c-0.4,0.1-0.4,0.5,0,0.5c0.8-0.1,2.6-0.1,3.4,0c0.4,0,0.4-0.4,0-0.5v-1.6l0.9-1.9
				c-0.2,0-0.3-0.1-0.5-0.1c-0.1,0-0.1,0-0.2,0l-0.4,0.9h-0.1c-0.2,0-0.5,0-0.7-0.1h-0.1v-1h-1.1v1h-0.1c-0.3,0-0.5,0-0.7,0.1h-0.1
				l-0.4-0.9c-0.2,0-0.5,0.1-0.7,0.2l0.8,1.8L-1763.2,1979.6L-1763.2,1979.6z M-1762.9,1978.3v-0.3l0,0h0.1c0.4-0.1,0.9-0.1,1.3-0.1
				c0.3,0,0.6,0,0.9,0v0.3c-0.3,0-0.5,0-0.8,0c-0.2,0-0.3,0-0.5,0v1.1h-0.3v-1.1c-0.2,0-0.3,0-0.4,0.1
				C-1762.8,1978.3-1762.8,1978.3-1762.9,1978.3L-1762.9,1978.3L-1762.9,1978.3z"/>
		</g>
		<g>
			<path class="st0" d="M-1760.6,1980.4v1.1c0.2,0,0.4,0,0.5,0v0.3l0,0c-0.3,0-0.8,0-1.5,0c-0.2,0-0.4,0-0.6,0l-0.1,1.8
				c0.2,0,0.4,0,0.7,0c0.7,0,1.2,0,1.6-0.1v0.3c-0.2,0-0.4,0-0.6,0l0.1,1.8c0.3,0,0.5-0.1,0.6-0.1v0.3c-0.4,0.1-1,0.2-1.7,0.2
				c-0.3,0-0.6,0-0.8,0v1.8c-0.1,0-0.2,0-0.3,0l0.1-1.8c-0.3,0-0.5-0.1-0.7-0.1v-0.3l0,0c0.4,0.1,1,0.2,1.8,0.2c0.3,0,0.5,0,0.7,0
				l-0.1-1.8c-0.2,0-0.4,0-0.7,0c-0.7,0-1.3,0-1.7-0.1v-0.3l0,0c0.2,0,0.4,0,0.7,0l0.1-1.8c-0.2,0-0.4,0-0.6,0v-0.3
				c0.4,0,0.9,0,1.6,0c0.2,0,0.4,0,0.6,0v-1.1c-0.8,0-1.8,0-2.3,0.1l-0.4,7.3c0.1,0.1,0.7,0.4,2.1,0.4s2-0.3,2.1-0.4l-0.4-7.3
				C-1760,1980.4-1760.3,1980.4-1760.6,1980.4"/>
		</g>
		<g>
			<path class="st0" d="M-1745.1,1975.6l0.4,0.9c0.1,0,0.2,0,0.3,0v-1h1.7v1c0.1,0,0.2,0,0.3,0l0.4-1l0.3,0.1h0.1
				c-0.1-1-0.9-1.8-2-1.8c-1,0-1.9,0.8-2,1.8h0.1H-1745.1z"/>
		</g>
		<g>
			<path class="st0" d="M-1742.1,1977L-1742.1,1977c-0.3,0-0.6,0-0.8-0.1h-0.1v-1h-1v1h-0.1c-0.3,0-0.5,0-0.7,0.1h-0.1l-0.4-0.9
				c-0.1,0-0.1,0-0.2,0c-0.2,0-0.4,0.1-0.5,0.1l0.9,1.9v1.6c-0.4,0.1-0.4,0.6,0,0.5c0.8-0.1,2.6-0.1,3.4,0c0.4,0,0.4-0.4,0-0.5v-1.6
				l0.8-1.8c-0.2-0.1-0.4-0.1-0.7-0.2L-1742.1,1977z M-1742.2,1978.3L-1742.2,1978.3c-0.2,0-0.4,0-0.5-0.1v1.1h-0.3v-1.1
				c-0.2,0-0.4,0-0.5,0c-0.3,0-0.6,0-0.8,0v-0.3c0.3,0,0.6,0,0.9,0c0.5,0,0.9,0,1.3,0.1h0.1l0,0L-1742.2,1978.3L-1742.2,1978.3
				L-1742.2,1978.3z"/>
		</g>
		<g>
			<path class="st0" d="M-1744.2,1980.4v1.1c0.2,0,0.4,0,0.6,0c0.7,0,1.2,0,1.5,0v0.3c-0.2,0-0.4,0-0.6,0l0.1,1.8c0.3,0,0.5,0,0.7,0
				l0,0v0.3c-0.4,0-1,0.1-1.7,0.1c-0.3,0-0.5,0-0.7,0v1.8c0.2,0,0.5,0,0.7,0c0.7,0,1.4-0.1,1.8-0.2l0,0v0.3
				c-0.2,0.1-0.4,0.1-0.7,0.1v1.8c-0.1,0-0.2,0-0.3,0l-0.1-1.8c-0.3,0-0.5,0-0.8,0c-0.7,0-1.3-0.1-1.7-0.2v-0.3
				c0.1,0,0.3,0.1,0.6,0.1l0.1-1.8c-0.2,0-0.4,0-0.6,0v-0.3c0.4,0,0.9,0.1,1.6,0.1c0.2,0,0.5,0,0.7,0l-0.1-1.8c-0.2,0-0.4,0-0.6,0
				c-0.7,0-1.2,0-1.5,0l0,0v-0.3c0.2,0,0.3,0,0.5,0v-1.1c-0.3,0-0.6,0-0.8,0.1l-0.4,7.3c0,0.1,0.6,0.4,2,0.4s2.1-0.3,2.1-0.4
				l-0.4-7.3C-1742.3,1980.4-1743.3,1980.3-1744.2,1980.4"/>
		</g>
		<g>
			<path class="st0" d="M-1751.6,1981.5c1.3,0.4,2.2,1.6,2.2,2.9v2.9h3.4l0.3-6.2h-5.9V1981.5z M-1748.2,1983L-1748.2,1983v-0.8
				c0-0.2,0.3-0.5,0.4-0.5l0.1-0.1l0,0l0.1,0.1c0.1,0.1,0.4,0.3,0.4,0.5v0.8l0,0v1.3h-0.5l0,0h-0.5V1983z"/>
		</g>
		<g>
			<path class="st0" d="M-1761.7,1973.6L-1761.7,1973.6h0.3l0,0v-6.5c0.2-0.1,0.3-0.3,0.3-0.5c0-0.3-0.2-0.5-0.5-0.5
				s-0.5,0.2-0.5,0.5c0,0.2,0.1,0.4,0.3,0.5v0.1h-3.4v3.8h3.5L-1761.7,1973.6L-1761.7,1973.6z M-1761.7,1966.6
				c0-0.1,0.1-0.2,0.2-0.2s0.2,0.1,0.2,0.2s-0.1,0.2-0.2,0.2S-1761.7,1966.7-1761.7,1966.6 M-1762.9,1969.5v1.2h-0.7v-1.2h-1.3v-0.7
				h1.2v-1.2h0.7v1.2h1.2v0.7H-1762.9z"/>
		</g>
		<g>
			<path class="st0" d="M-1743.4,1967.2L-1743.4,1967.2c0.2-0.2,0.3-0.4,0.3-0.6c0-0.3-0.2-0.5-0.5-0.5s-0.5,0.2-0.5,0.5
				c0,0.2,0.1,0.4,0.3,0.5v6.5l0,0h0.3l0,0v-2.5h3.5v-3.8L-1743.4,1967.2L-1743.4,1967.2z M-1743.5,1966.8c-0.1,0-0.2-0.1-0.2-0.2
				s0.1-0.2,0.2-0.2s0.2,0.1,0.2,0.2S-1743.4,1966.8-1743.5,1966.8 M-1740.2,1968.1l-1.1,1.1l1.1,1.1v0.5h-0.5l-1.1-1.1l-1.1,1.1
				h-0.5v-0.5l1.1-1l-1.1-1.1v-0.5h0.5l1.1,1.1l1.1-1.1h0.5V1968.1z"/>
		</g>
	</g>
</g>
</svg>
