<svg version="1.1"
	 xmlns="http://www.w3.org/2000/svg" xmlns:xlink="http://www.w3.org/1999/xlink" xmlns:a="http://ns.adobe.com/AdobeSVGViewerExtensions/3.0/"
	 x="0px" y="0px" width="27.9px" height="22.7px" viewBox="0 0 27.9 22.7" style="enable-background:new 0 0 27.9 22.7;"
	 xml:space="preserve">
<path style="fill:#FFFFFF;" d="M8.8,22.7c10.5,0,16.3-8.7,16.3-16.3c0-0.2,0-0.5,0-0.7c1.1-0.8,2.1-1.8,2.9-3c-1,0.5-2.1,0.8-3.3,0.9
	c1.2-0.7,2.1-1.8,2.5-3.2c-1.1,0.7-2.3,1.1-3.6,1.4C22.5,0.7,21,0,19.3,0c-3.2,0-5.7,2.6-5.7,5.7c0,0.4,0.1,0.9,0.1,1.3
	C9,6.8,4.8,4.5,1.9,1C1.5,1.9,1.2,2.9,1.2,3.9c0,2,1,3.7,2.5,4.8C2.8,8.7,1.9,8.4,1.1,8c0,0,0,0,0,0.1c0,2.8,2,5.1,4.6,5.6
	c-0.5,0.1-1,0.2-1.5,0.2c-0.4,0-0.7,0-1.1-0.1c0.7,2.3,2.8,3.9,5.4,4c-2,1.5-4.4,2.5-7.1,2.5c-0.5,0-0.9,0-1.4-0.1
	C2.5,21.7,5.5,22.7,8.8,22.7"/>
</svg>
