<svg xmlns="http://www.w3.org/2000/svg" width="20" height="16" style="enable-background:new 0 0 27.9 22.7" viewBox="0 0 27.9 22.7" xml:space="preserve">
  <path d="M8.8 22.7c10.5 0 16.3-8.7 16.3-16.3v-.7c1.1-.8 2.1-1.8 2.9-3-1 .5-2.1.8-3.3.9 1.2-.7 2.1-1.8 2.5-3.2-1.1.7-2.3 1.1-3.6 1.4C22.5.7 21 0 19.3 0c-3.2 0-5.7 2.6-5.7 5.7 0 .4.1.9.1 1.3C9 6.8 4.8 4.5 1.9 1c-.4.9-.7 1.9-.7 2.9 0 2 1 3.7 2.5 4.8-.9 0-1.8-.3-2.6-.7v.1c0 2.8 2 5.1 4.6 5.6-.5.1-1 .2-1.5.2-.4 0-.7 0-1.1-.1.7 2.3 2.8 3.9 5.4 4-2 1.5-4.4 2.5-7.1 2.5-.5 0-.9 0-1.4-.1 2.5 1.5 5.5 2.5 8.8 2.5" style="fill:#FFFFFF"/>
</svg>