<svg xmlns="http://www.w3.org/2000/svg" width="267.1" height="228.6" style="overflow:visible;enable-background:new 0 0 267.1 228.6" viewBox="0 0 267.1 228.6" xml:space="preserve">
  <style>
    .st0{fill:#FFFFFF}.st1{opacity:0.25}
  </style>
  <path d="M147.7 94.8h-28.6c-4.3 0-7.8-3.5-7.8-7.8V58.4c0-4.3 3.5-7.8 7.8-7.8h28.6c4.3 0 7.8 3.5 7.8 7.8V87c0 4.3-3.5 7.8-7.8 7.8zm-28.6-42.3c-3.3 0-5.9 2.6-5.9 5.9V87c0 3.3 2.6 5.9 5.9 5.9h28.6c3.3 0 5.9-2.6 5.9-5.9V58.4c0-3.3-2.6-5.9-5.9-5.9h-28.6z" class="st0"/>
  <path d="M138.8 84.3H137l-4-16.8-3.9 16.7h-1.8L122 64.1h1.9l4.3 16.9 4-16.9h1.8l3.9 16.9 4.4-16.9h1.8l-5.3 20.2zM204.2 150.1h-28.4c-4.3 0-7.8-3.5-7.8-7.8V114c0-4.3 3.5-7.8 7.8-7.8h28.4c4.3 0 7.8 3.5 7.8 7.8v28.4c-.1 4.2-3.5 7.7-7.8 7.7zm-28.4-42c-3.2 0-5.9 2.6-5.9 5.9v28.4c0 3.2 2.6 5.9 5.9 5.9h28.4c3.2 0 5.9-2.6 5.9-5.9V114c0-3.2-2.6-5.9-5.9-5.9h-28.4z" class="st0"/>
  <path d="M187.8 138.1h-4.2v-20h4.8c3.3 0 5.7.8 7.3 2.5 1.5 1.6 2.3 4.1 2.3 7.3-.1 6.9-3.5 10.2-10.2 10.2zm-2.4-1.5h2.6c2.8 0 4.8-.7 6.1-2.1 1.3-1.4 2-3.6 2-6.5 0-2.8-.6-4.9-1.8-6.2s-3.1-2-5.7-2h-3.2v16.8z" class="st0"/>
  <g class="st1">
    <path d="M250.6 143.4V137c0-.5-.4-.9-.9-.9H239c-.5 0-.9-.4-.9-.9v-.5c0-.5.4-.9.9-.9h13c.5 0 .9.4.9.9v3.2c0 .8 1 1.2 1.5.6l8.9-8.7c.4-.4.4-.9 0-1.3l-8.9-8.9c-.6-.6-1.5-.2-1.5.6v3.5c0 .5-.4.9-.9.9h-13c-.5 0-.9-.4-.9-.9v-.5c0-.5.4-.9.9-.9h10.7c.5 0 .9-.4.9-.9v-6.8c0-.8 1-1.2 1.5-.6l14.6 14.5c.4.4.4.9 0 1.3L252.2 144c-.6.6-1.6.2-1.6-.6z" class="st0"/>
  </g>
  <g class="st1">
    <path d="M139.5 28.8h-.4c-.5 0-1-.4-1-1V15c0-.5.4-1 1-1h2.9c.9 0 1.3-1 .7-1.7l-8.5-8.7c-.4-.4-1-.4-1.4 0l-8.7 8.7c-.6.6-.2 1.7.7 1.7h3.2c.5 0 1 .4 1 1v12.9c0 .5-.4 1-1 1h-.4c-.5 0-1-.4-1-1V17.3c0-.5-.4-1-1-1h-6.5c-.9 0-1.3-1.1-.7-1.7L132.7.2c.4-.4 1-.4 1.4 0l14.1 14.4c.6.6.2 1.7-.7 1.7h-6.2c-.5 0-1 .4-1 1v10.5c.2.6-.3 1-.8 1z" class="st0"/>
  </g>
  <g class="st1">
    <path d="M14.6 143.8.3 129.5c-.4-.4-.4-1 0-1.4L14.7 114c.6-.6 1.7-.2 1.7.7v6.2c0 .5.4 1 1 1h10.5c.5 0 1 .4 1 1v.4c0 .5-.4 1-1 1H15c-.5 0-1-.4-1-1v-2.9c0-.9-1.1-1.3-1.7-.7l-8.7 8.5c-.4.4-.4 1 0 1.4l8.7 8.7c.6.6 1.7.2 1.7-.7v-3.2c0-.5.4-1 1-1h12.9c.5 0 1 .4 1 1v.4c0 .5-.4 1-1 1H17.3c-.5 0-1 .4-1 1v6.5c0 .7-1 1.1-1.7.5z" class="st0"/>
  </g>
  <path d="m132.8 228.4-15-15.3c-.4-.4-.1-1 .4-1h7.4c.3 0 .6-.3.6-.6V175c0-.3.3-.6.6-.6h1.1c.3 0 .6.3.6.6v38.9c0 .3-.3.6-.6.6h-4.2c-.5 0-.8.6-.4 1l9.4 9.6c.2.2.6.2.9 0l9.6-9.6c.4-.4.1-1-.4-1h-4.5c-.3 0-.6-.3-.6-.6V175c0-.3.3-.6.6-.6h1.1c.3 0 .6.3.6.6v36.6c0 .3.3.6.6.6h7.8c.5 0 .8.7.4 1l-15.2 15.3c-.2.1-.6.1-.8-.1zM137.2 128.5c-.8-.4-1.7-.8-2.6-1.2-1-.4-1.8-.7-2.6-1-.8-.3-1.5-.7-2-1.2s-.8-1.2-.8-2c0-1.1.4-2 1.2-2.6.8-.6 1.8-.9 3.1-.9 1.2 0 2.1.3 2.8.8.7.5 1.3 1.4 1.8 2.5l1.6-.6c-.9-2.9-2.9-4.4-6.1-4.4-1.8 0-3.2.4-4.3 1.4-1.1.9-1.6 2.2-1.6 3.9 0 1.3.4 2.3 1.1 3.1.7.8 1.6 1.4 2.7 1.8 1.1.4 2.1.8 3.2 1.1 1.1.3 2 .9 2.7 1.5.7.6 1.1 1.5 1.1 2.5 0 1.3-.4 2.3-1.3 2.9-.8.7-1.9 1-3.3 1s-2.5-.3-3.3-.9c-.8-.6-1.4-1.7-1.9-3.1l-1.7.6c.6 1.8 1.5 3.1 2.5 3.9 1.1.8 2.5 1.2 4.4 1.2 1.9 0 3.5-.5 4.7-1.5 1.2-1 1.8-2.4 1.8-4.2 0-1.1-.3-2.1-.8-2.8-.9-.9-1.6-1.4-2.4-1.8z" class="st0"/>
  <path d="M147.7 106.2h-28.6c-4.3 0-7.8 3.5-7.8 7.8v28.6c0 4.3 3.5 7.8 7.8 7.8h28.6c4.3 0 7.8-3.5 7.8-7.8V114c0-4.3-3.5-7.8-7.8-7.8zm5.9 36.4c0 3.3-2.6 5.9-5.9 5.9h-28.6c-3.3 0-5.9-2.6-5.9-5.9V114c0-3.3 2.6-5.9 5.9-5.9h28.6c3.3 0 5.9 2.6 5.9 5.9v28.6zM89.8 149.9H61.9c-4.2 0-7.6-3.4-7.6-7.6v-27.9c0-4.2 3.4-7.6 7.6-7.6h27.9c4.2 0 7.6 3.4 7.6 7.6v27.9c.1 4.2-3.3 7.6-7.6 7.6zm-27.9-41.3c-3.2 0-5.8 2.6-5.8 5.8v27.9c0 3.2 2.6 5.8 5.8 5.8h27.9c3.2 0 5.8-2.6 5.8-5.8v-27.9c0-3.2-2.6-5.8-5.8-5.8H61.9z" class="st0"/>
  <path d="M76.5 119.2h-2.7l-6.3 19.6h1.8l2-6.4h7.5l2 6.4h2l-6.3-19.6zm-4.7 11.6 3.3-10.3 3.2 10.3h-6.5z" class="st0"/>
</svg>