<!-- Generator: Adobe Illustrator 25.2.0, SVG Export Plug-In  -->
<svg version="1.1" xmlns="http://www.w3.org/2000/svg" xmlns:xlink="http://www.w3.org/1999/xlink" x="0px" y="0px"
	 width="4800.2px" height="3480.2px" viewBox="0 0 4800.2 3480.2"
	 style="overflow:visible;enable-background:new 0 0 4800.2 3480.2;" xml:space="preserve">
<style type="text/css">
	.st0{fill:none;stroke:#00B140;stroke-width:0.25;stroke-miterlimit:10;}
	.st1{fill:#DED6D6;}
	.st2{fill:url(#SVGID_1_);}
	.st3{fill:#303431;}
	.st4{fill:#3D4344;stroke:#3D4344;stroke-miterlimit:10;}
	.st5{fill:none;}
	.st6{fill:none;stroke:#2C3233;stroke-miterlimit:10;}
	.st7{fill:none;stroke:#2C3233;stroke-width:1.5;stroke-miterlimit:10;}
	.st8{fill:url(#SVGID_2_);}
</style>
<defs>
</defs>
<g>
	<rect x="0.1" y="0.1" class="st0" width="4800" height="3480"/>
	<line class="st0" x1="4800.1" y1="59.1" x2="0.1" y2="59.1"/>
	<line class="st0" x1="4800.1" y1="118.1" x2="0.1" y2="118.1"/>
	<line class="st0" x1="4800.1" y1="177.1" x2="0.1" y2="177.1"/>
	<line class="st0" x1="4800.1" y1="236.1" x2="0.1" y2="236.1"/>
	<line class="st0" x1="4800.1" y1="295" x2="0.1" y2="295"/>
	<line class="st0" x1="4800.1" y1="354" x2="0.1" y2="354"/>
	<line class="st0" x1="4800.1" y1="413" x2="0.1" y2="413"/>
	<line class="st0" x1="4800.1" y1="472" x2="0.1" y2="472"/>
	<line class="st0" x1="4800.1" y1="531" x2="0.1" y2="531"/>
	<line class="st0" x1="4800.1" y1="590" x2="0.1" y2="590"/>
	<line class="st0" x1="4800.1" y1="648.9" x2="0.1" y2="648.9"/>
	<line class="st0" x1="4800.1" y1="707.9" x2="0.1" y2="707.9"/>
	<line class="st0" x1="4800.1" y1="766.9" x2="0.1" y2="766.9"/>
	<line class="st0" x1="4800.1" y1="825.9" x2="0.1" y2="825.9"/>
	<line class="st0" x1="4800.1" y1="884.9" x2="0.1" y2="884.9"/>
	<line class="st0" x1="4800.1" y1="943.9" x2="0.1" y2="943.9"/>
	<line class="st0" x1="4800.1" y1="1002.8" x2="0.1" y2="1002.8"/>
	<line class="st0" x1="4800.1" y1="1061.8" x2="0.1" y2="1061.8"/>
	<line class="st0" x1="4800.1" y1="1120.8" x2="0.1" y2="1120.8"/>
	<line class="st0" x1="4800.1" y1="1179.8" x2="0.1" y2="1179.8"/>
	<line class="st0" x1="4800.1" y1="1238.8" x2="0.1" y2="1238.8"/>
	<line class="st0" x1="4800.1" y1="1297.8" x2="0.1" y2="1297.8"/>
	<line class="st0" x1="4800.1" y1="1356.7" x2="0.1" y2="1356.7"/>
	<line class="st0" x1="4800.1" y1="1415.7" x2="0.1" y2="1415.7"/>
	<line class="st0" x1="4800.1" y1="1474.7" x2="0.1" y2="1474.7"/>
	<line class="st0" x1="4800.1" y1="1533.7" x2="0.1" y2="1533.7"/>
	<line class="st0" x1="4800.1" y1="1592.7" x2="0.1" y2="1592.7"/>
	<line class="st0" x1="4800.1" y1="1651.7" x2="0.1" y2="1651.7"/>
	<line class="st0" x1="4800.1" y1="1710.6" x2="0.1" y2="1710.6"/>
	<line class="st0" x1="4800.1" y1="1769.6" x2="0.1" y2="1769.6"/>
	<line class="st0" x1="4800.1" y1="1828.6" x2="0.1" y2="1828.6"/>
	<line class="st0" x1="4800.1" y1="1887.6" x2="0.1" y2="1887.6"/>
	<line class="st0" x1="4800.1" y1="1946.6" x2="0.1" y2="1946.6"/>
	<line class="st0" x1="4800.1" y1="2005.5" x2="0.1" y2="2005.5"/>
	<line class="st0" x1="4800.1" y1="2064.5" x2="0.1" y2="2064.5"/>
	<line class="st0" x1="4800.1" y1="2123.5" x2="0.1" y2="2123.5"/>
	<line class="st0" x1="4800.1" y1="2182.5" x2="0.1" y2="2182.5"/>
	<line class="st0" x1="4800.1" y1="2241.5" x2="0.1" y2="2241.5"/>
	<line class="st0" x1="4800.1" y1="2300.5" x2="0.1" y2="2300.5"/>
	<line class="st0" x1="4800.1" y1="2359.4" x2="0.1" y2="2359.4"/>
	<line class="st0" x1="4800.1" y1="2418.4" x2="0.1" y2="2418.4"/>
	<line class="st0" x1="4800.1" y1="2477.4" x2="0.1" y2="2477.4"/>
	<line class="st0" x1="4800.1" y1="2536.4" x2="0.1" y2="2536.4"/>
	<line class="st0" x1="4800.1" y1="2595.4" x2="0.1" y2="2595.4"/>
	<line class="st0" x1="4800.1" y1="2654.4" x2="0.1" y2="2654.4"/>
	<line class="st0" x1="4800.1" y1="2713.3" x2="0.1" y2="2713.3"/>
	<line class="st0" x1="4800.1" y1="2772.3" x2="0.1" y2="2772.3"/>
	<line class="st0" x1="4800.1" y1="2831.3" x2="0.1" y2="2831.3"/>
	<line class="st0" x1="4800.1" y1="2890.3" x2="0.1" y2="2890.3"/>
	<line class="st0" x1="4800.1" y1="2949.3" x2="0.1" y2="2949.3"/>
	<line class="st0" x1="4800.1" y1="3008.3" x2="0.1" y2="3008.3"/>
	<line class="st0" x1="4800.1" y1="3067.2" x2="0.1" y2="3067.2"/>
	<line class="st0" x1="4800.1" y1="3126.2" x2="0.1" y2="3126.2"/>
	<line class="st0" x1="4800.1" y1="3185.2" x2="0.1" y2="3185.2"/>
	<line class="st0" x1="4800.1" y1="3244.2" x2="0.1" y2="3244.2"/>
	<line class="st0" x1="4800.1" y1="3303.2" x2="0.1" y2="3303.2"/>
	<line class="st0" x1="4800.1" y1="3362.2" x2="0.1" y2="3362.2"/>
	<line class="st0" x1="4800.1" y1="3421.1" x2="0.1" y2="3421.1"/>
	<line class="st0" x1="59.4" y1="3480.1" x2="59.4" y2="0.1"/>
	<line class="st0" x1="118.6" y1="3480.1" x2="118.6" y2="0.1"/>
	<line class="st0" x1="177.9" y1="3480.1" x2="177.9" y2="0.1"/>
	<line class="st0" x1="237.2" y1="3480.1" x2="237.2" y2="0.1"/>
	<line class="st0" x1="296.4" y1="3480.1" x2="296.4" y2="0.1"/>
	<line class="st0" x1="355.7" y1="3480.1" x2="355.7" y2="0.1"/>
	<line class="st0" x1="414.9" y1="3480.1" x2="414.9" y2="0.1"/>
	<line class="st0" x1="474.2" y1="3480.1" x2="474.2" y2="0.1"/>
	<line class="st0" x1="533.5" y1="3480.1" x2="533.5" y2="0.1"/>
	<line class="st0" x1="592.7" y1="3480.1" x2="592.7" y2="0.1"/>
	<line class="st0" x1="652" y1="3480.1" x2="652" y2="0.1"/>
	<line class="st0" x1="711.2" y1="3480.1" x2="711.2" y2="0.1"/>
	<line class="st0" x1="770.5" y1="3480.1" x2="770.5" y2="0.1"/>
	<line class="st0" x1="829.8" y1="3480.1" x2="829.8" y2="0.1"/>
	<line class="st0" x1="889" y1="3480.1" x2="889" y2="0.1"/>
	<line class="st0" x1="948.3" y1="3480.1" x2="948.3" y2="0.1"/>
	<line class="st0" x1="1007.5" y1="3480.1" x2="1007.5" y2="0.1"/>
	<line class="st0" x1="1066.8" y1="3480.1" x2="1066.8" y2="0.1"/>
	<line class="st0" x1="1126.1" y1="3480.1" x2="1126.1" y2="0.1"/>
	<line class="st0" x1="1185.3" y1="3480.1" x2="1185.3" y2="0.1"/>
	<line class="st0" x1="1244.6" y1="3480.1" x2="1244.6" y2="0.1"/>
	<line class="st0" x1="1303.8" y1="3480.1" x2="1303.8" y2="0.1"/>
	<line class="st0" x1="1363.1" y1="3480.1" x2="1363.1" y2="0.1"/>
	<line class="st0" x1="1422.3" y1="3480.1" x2="1422.3" y2="0.1"/>
	<line class="st0" x1="1481.6" y1="3480.1" x2="1481.6" y2="0.1"/>
	<line class="st0" x1="1540.9" y1="3480.1" x2="1540.9" y2="0.1"/>
	<line class="st0" x1="1600.1" y1="3480.1" x2="1600.1" y2="0.1"/>
	<line class="st0" x1="1659.4" y1="3480.1" x2="1659.4" y2="0.1"/>
	<line class="st0" x1="1718.6" y1="3480.1" x2="1718.6" y2="0.1"/>
	<line class="st0" x1="1777.9" y1="3480.1" x2="1777.9" y2="0.1"/>
	<line class="st0" x1="1837.2" y1="3480.1" x2="1837.2" y2="0.1"/>
	<line class="st0" x1="1896.4" y1="3480.1" x2="1896.4" y2="0.1"/>
	<line class="st0" x1="1955.7" y1="3480.1" x2="1955.7" y2="0.1"/>
	<line class="st0" x1="2014.9" y1="3480.1" x2="2014.9" y2="0.1"/>
	<line class="st0" x1="2074.2" y1="3480.1" x2="2074.2" y2="0.1"/>
	<line class="st0" x1="2133.5" y1="3480.1" x2="2133.5" y2="0.1"/>
	<line class="st0" x1="2192.7" y1="3480.1" x2="2192.7" y2="0.1"/>
	<line class="st0" x1="2252" y1="3480.1" x2="2252" y2="0.1"/>
	<line class="st0" x1="2311.2" y1="3480.1" x2="2311.2" y2="0.1"/>
	<line class="st0" x1="2370.5" y1="3480.1" x2="2370.5" y2="0.1"/>
	<line class="st0" x1="2429.8" y1="3480.1" x2="2429.8" y2="0.1"/>
	<line class="st0" x1="2489" y1="3480.1" x2="2489" y2="0.1"/>
	<line class="st0" x1="2548.3" y1="3480.1" x2="2548.3" y2="0.1"/>
	<line class="st0" x1="2607.5" y1="3480.1" x2="2607.5" y2="0.1"/>
	<line class="st0" x1="2666.8" y1="3480.1" x2="2666.8" y2="0.1"/>
	<line class="st0" x1="2726.1" y1="3480.1" x2="2726.1" y2="0.1"/>
	<line class="st0" x1="2785.3" y1="3480.1" x2="2785.3" y2="0.1"/>
	<line class="st0" x1="2844.6" y1="3480.1" x2="2844.6" y2="0.1"/>
	<line class="st0" x1="2903.8" y1="3480.1" x2="2903.8" y2="0.1"/>
	<line class="st0" x1="2963.1" y1="3480.1" x2="2963.1" y2="0.1"/>
	<line class="st0" x1="3022.3" y1="3480.1" x2="3022.3" y2="0.1"/>
	<line class="st0" x1="3081.6" y1="3480.1" x2="3081.6" y2="0.1"/>
	<line class="st0" x1="3140.9" y1="3480.1" x2="3140.9" y2="0.1"/>
	<line class="st0" x1="3200.1" y1="3480.1" x2="3200.1" y2="0.1"/>
	<line class="st0" x1="3259.4" y1="3480.1" x2="3259.4" y2="0.1"/>
	<line class="st0" x1="3318.6" y1="3480.1" x2="3318.6" y2="0.1"/>
	<line class="st0" x1="3377.9" y1="3480.1" x2="3377.9" y2="0.1"/>
	<line class="st0" x1="3437.2" y1="3480.1" x2="3437.2" y2="0.1"/>
	<line class="st0" x1="3496.4" y1="3480.1" x2="3496.4" y2="0.1"/>
	<line class="st0" x1="3555.7" y1="3480.1" x2="3555.7" y2="0.1"/>
	<line class="st0" x1="3614.9" y1="3480.1" x2="3614.9" y2="0.1"/>
	<line class="st0" x1="3674.2" y1="3480.1" x2="3674.2" y2="0.1"/>
	<line class="st0" x1="3733.5" y1="3480.1" x2="3733.5" y2="0.1"/>
	<line class="st0" x1="3792.7" y1="3480.1" x2="3792.7" y2="0.1"/>
	<line class="st0" x1="3852" y1="3480.1" x2="3852" y2="0.1"/>
	<line class="st0" x1="3911.2" y1="3480.1" x2="3911.2" y2="0.1"/>
	<line class="st0" x1="3970.5" y1="3480.1" x2="3970.5" y2="0.1"/>
	<line class="st0" x1="4029.8" y1="3480.1" x2="4029.8" y2="0.1"/>
	<line class="st0" x1="4089" y1="3480.1" x2="4089" y2="0.1"/>
	<line class="st0" x1="4148.3" y1="3480.1" x2="4148.3" y2="0.1"/>
	<line class="st0" x1="4207.5" y1="3480.1" x2="4207.5" y2="0.1"/>
	<line class="st0" x1="4266.8" y1="3480.1" x2="4266.8" y2="0.1"/>
	<line class="st0" x1="4326.1" y1="3480.1" x2="4326.1" y2="0.1"/>
	<line class="st0" x1="4385.3" y1="3480.1" x2="4385.3" y2="0.1"/>
	<line class="st0" x1="4444.6" y1="3480.1" x2="4444.6" y2="0.1"/>
	<line class="st0" x1="4503.8" y1="3480.1" x2="4503.8" y2="0.1"/>
	<line class="st0" x1="4563.1" y1="3480.1" x2="4563.1" y2="0.1"/>
	<line class="st0" x1="4622.3" y1="3480.1" x2="4622.3" y2="0.1"/>
	<line class="st0" x1="4681.6" y1="3480.1" x2="4681.6" y2="0.1"/>
	<line class="st0" x1="4740.9" y1="3480.1" x2="4740.9" y2="0.1"/>
</g>
<line class="st0" x1="770.1" y1="1061.1" x2="771.1" y2="1179.1"/>
<g>
	<path class="st1" d="M306,162.5c0.9,0,1.9,0,2.9,0c-0.2,0.2-0.4,0.4-0.6,0.6c2.1,2,4.2,4.1,6.4,6.1c2.3,2,4.6,3.9,7.1,6
		c3.6-4.6,10-6.9,12.9-12.6c0.8,0,1.8,0,2.8,0c-0.2,0.2-0.3,0.4-0.5,0.5c2.2,2.1,4.3,4.2,6.6,6.3c2.2,2,4.5,3.8,6.9,5.9
		c3.4-4.5,9.8-6.8,12.8-12.6c0.1,0,0.7-0.1,1.2-0.1c0.5,0,1.1,0,1.5,0c2.7,5.9,9.3,8,13,13.1c3.6-5,10.1-7.2,13-13
		c0.7,0,1.8,0,2.3,0c1.4,1.6,2.3,3,3.6,4.2c3.2,2.9,6.5,5.6,10,8.5c3.5-4.5,9.7-6.8,12.8-12.6c0,0,0.6-0.1,1.1-0.1
		c0.5,0,1.1,0,1.2,0.5c2,1.9,3.9,3.9,5.9,5.7c2.5,2.2,5,4.3,7.7,6.5c3.4-4.7,9.8-6.9,12.7-12.6c0.7,0,1.7,0,2.7,0
		c2.7,5.6,9.1,7.8,13,12.8c3.8-4.7,10-7,13-12.8c0.7,0,1.8,0,2.3,0c1.8,1.9,3.2,3.6,4.8,5.1c2.8,2.6,5.8,5,8.8,7.5
		c3.3-4.7,9.9-6.8,12.6-12.7c0.7,0,1.8,0,2.8,0c2.6,5.7,9.1,7.9,12.9,12.9c3.7-4.9,10.1-7.1,13.1-12.9c0.2,0,0.8-0.1,1.3-0.1
		c0.5,0,0.9,0,1.2,0c2.9,5.8,9.5,8,13,13.1c3.7-4.9,10-7.3,13.1-13c0.6,0,1.7,0,2.8,0c-0.2,0.2-0.4,0.4-0.5,0.6c2.1,2,4.2,4.1,6.4,6
		c2.3,2,4.6,3.9,7.1,5.9c3.5-4.6,9.8-6.9,12.9-12.6c0.6,0,1.6,0,2.6,0c-0.2,0.2-0.3,0.3-0.5,0.5c2.2,2.1,4.4,4.3,6.7,6.4
		c2.1,1.9,4.4,3.7,6.8,5.7c3.6-4.5,9.9-6.8,13.1-13c0.4,0.9,1.1,1.7,0.9,2.2c-0.5,1.2-1.2,2.6-2.2,3.5c-2.6,2.4-5.4,4.5-8,6.8
		c-2.9,2.5-2.9,7.7,0,10.1c2.5,2.1,5.1,4.3,7.7,6.3c1.8,1.4,2.4,3.2,2.7,5.4c0.6,5-1.1,8.8-5.6,11.5c-1.2,0.7-2.2,1.9-3.4,2.7
		c-2.9,1.9-4,4.4-3.4,7.6c0.3,1.3,0.8,2.7,1.7,3.6c2.4,2.3,5,4.3,7.6,6.4c2,1.5,3.1,3.3,2.9,5.8c-0.1,1.3,0.2,2.7-0.1,3.9
		c-0.4,1.6-1,3.4-2.1,4.5c-2.4,2.4-5.2,4.4-7.8,6.6c-3.3,2.8-3.4,7.9,0,10.7c2.5,2.1,5,4.1,7.5,6.2c1.8,1.4,2.3,3.2,2.6,5.5
		c0.6,5-1.2,8.7-5.6,11.5c-1.4,0.8-2.4,2.2-3.8,3c-2.4,1.5-3.1,3.6-3,6.2c0.1,2.2,0.6,3.8,2.5,5.2c2.6,1.9,5.2,3.9,7.4,6.2
		c1.2,1.3,1.9,3.2,2.4,4.9c0.4,1.3,0.3,2.8,0,4.1c-0.4,1.7-1,3.6-2.2,4.8c-2.4,2.5-5.3,4.5-8,6.8c-3,2.5-2.9,7.8,0.2,10.3
		c2.6,2.1,5.1,4.3,7.7,6.3c1.7,1.4,2.7,3,2.5,5.2c-0.1,1.3,0.3,2.7-0.1,3.9c-0.5,1.7-1.1,3.7-2.3,5c-2.4,2.5-5.4,4.5-8,6.8
		c-2.8,2.4-2.7,7.6,0,10c2.6,2.2,5.2,4.4,7.9,6.5c1.7,1.4,2.3,3,2.6,5.2c0.7,5.2-1.2,9.1-5.8,11.9c-1.1,0.7-2,1.9-3.1,2.5
		c-3.8,2-3.7,5.3-3.3,8.7c0.1,0.9,0.9,1.9,1.7,2.5c2.5,2.2,5,4.3,7.7,6.4c2,1.6,3.1,3.4,2.8,5.9c0,0.2,0,0.4,0,0.5
		c0.8,4.4-0.9,7.7-4.9,10.2c-1.4,0.9-2.5,2.3-4,3.2c-3.5,2-3.9,5.1-3.3,8.4c0.2,1.1,1,2.2,1.9,3c2.7,2.4,5.6,4.5,8.2,6.9
		c1,0.9,1.6,2.3,2,3.5c0.2,0.5-0.5,1.2-0.7,1.5c-1.6-1.8-2.8-3.4-4.3-4.8c-3-2.7-6.2-5.3-9.4-7.9c-3.2,4.8-10,6.8-12.7,12.8
		c-0.7,0-1.8,0-2.3,0c-1.2-1.6-2.1-3.1-3.3-4.2c-3.2-2.9-6.6-5.7-10.1-8.6c-3.4,4.7-10,6.9-12.9,12.9c-0.7,0-1.7,0-2.1,0
		c-1.7-1.9-2.9-3.6-4.5-5c-3-2.7-6.1-5.2-9.3-7.9c-3.2,4.8-9.9,7-13,12.9c-0.5,0-1.5,0-1.8,0c-1.7-1.9-3-3.6-4.6-5
		c-3-2.7-6.1-5.2-9.2-7.9c-3.3,4.8-10.1,6.8-12.7,12.9c-0.8,0-1.9,0-2.2,0c-1.4-1.8-2.4-3.3-3.7-4.5c-3.2-2.9-6.5-5.6-9.9-8.4
		c-3.1,4.8-10.1,6.7-12.7,12.9c-0.8,0-1.9,0-2.2,0c-1.7-1.9-2.8-3.6-4.4-5c-3-2.7-6.1-5.2-9.3-7.9c-3.4,4.7-9.9,7-13,12.9
		c0,0-0.5,0.1-1.1,0.1c-0.5,0-1.1,0-0.8,0c-1.6-1.9-2.8-3.6-4.2-4.9c-3.1-2.8-6.3-5.4-9.5-8.1c-3.1,4.8-10,6.8-12.7,12.9
		c-0.7,0-1.8,0-2.2,0c-1.6-1.8-2.7-3.5-4.2-4.8c-3-2.8-6.3-5.3-9.5-8c-3.2,4.8-10,6.8-12.8,12.9c-0.7,0-1.8,0-2.1,0
		c-1.5-1.8-2.5-3.3-3.9-4.5c-3.2-2.8-6.5-5.5-9.8-8.3c-3.3,4.7-10,6.8-12.7,12.8c-0.8,0-1.8,0-2.2,0c-1.5-1.8-2.5-3.4-3.9-4.6
		c-3.1-2.8-6.4-5.4-9.8-8.3c-3.2,4.8-10.1,6.8-12.7,12.9c-0.9,0-1.9,0-2.3,0c-1.5-1.8-2.5-3.3-3.8-4.5c-3.1-2.8-6.4-5.4-9.8-8.3
		c-3.6,4.6-10,6.8-12.9,12.8c-0.2,0-0.7,0.1-1.3,0.1c-0.5,0-1.1,0-1.2-0.5c-1.3-1.5-2.4-3.1-3.8-4.4c-3.1-2.8-6.4-5.4-9.6-8.1
		c-3,4.8-10,6.7-12.5,12.8c-0.7,0-1.8,0-2.3,0c-1.6-1.9-2.9-3.6-4.5-5c-3-2.7-6.1-5.2-9.3-7.9c-3.2,4.8-10.1,6.8-12.7,12.9
		c-0.9,0-2,0-2.3,0c-1.4-1.7-2.2-3.2-3.5-4.3c-3.2-2.9-6.7-5.7-10.1-8.6c-3.2,4.7-10,6.9-12.9,12.9c-0.1,0-0.7,0.1-1.2,0.1
		c-0.5,0-1.1-0.1-1.2-0.6c-1.2-1.4-2.2-3-3.6-4.2c-3.1-2.8-6.4-5.4-9.7-8.2c-3.3,4.8-10,6.9-12.9,12.9c-0.1,0-0.6,0.1-1.1,0.1
		c-0.5,0-1.1,0-1.2-0.5c-1.3-1.5-2.4-3.1-3.8-4.4c-3-2.7-6.3-5.3-9.5-8.1c-3.3,4.7-10.1,6.8-13.1,13.5c-0.4-1.2-1.1-2.1-0.9-2.7
		c0.5-1.2,1.3-2.5,2.3-3.4c2.6-2.4,5.5-4.6,8.2-6.9c2.5-2.2,2.3-7.7-0.1-9.8c-2.7-2.3-5.6-4.3-8-6.7c-1.2-1.3-1.9-3.2-2.4-4.9
		c-0.4-1.2,0-2.6-0.1-3.9c-0.2-2.1,0.7-3.7,2.3-5c2.7-2.2,5.3-4.3,7.9-6.5c3.1-2.6,3-8,0-10.5c-2.6-2.1-5.1-4.3-7.7-6.3
		c-1.8-1.4-2.7-3-2.5-5.2c0.1-1.3-0.2-2.7,0.1-3.9c0.5-1.7,1-3.6,2.2-4.8c2.5-2.5,5.5-4.6,8.2-7c2.7-2.3,2.7-7.9-0.1-10.2
		c-2.7-2.2-5.6-4.3-8-6.7c-1.2-1.2-1.8-3.1-2.2-4.7c-0.3-1.2,0-2.6-0.1-3.9c-0.2-2.2,0.8-3.8,2.5-5.2c2.7-2.2,5.4-4.4,8.1-6.7
		c2.6-2.2,2.5-7.8-0.1-10c-2.7-2.2-5.6-4.3-8-6.7c-1.2-1.2-2-3-2.3-4.7c-1.2-5.3,1-9.2,5.8-12.1c1-0.6,1.7-1.6,2.7-2.2
		c3.9-2.1,4.1-5.5,3.6-9.1c-0.1-0.8-0.8-1.7-1.5-2.3c-2.8-2.4-5.8-4.6-8.4-7.1c-1.2-1.2-1.8-3.1-2.3-4.7c-0.3-1.2,0-2.6-0.1-3.9
		c-0.2-2.2,0.7-3.8,2.4-5.2c2.7-2.1,5.3-4.3,7.9-6.5c2.9-2.5,2.9-7.9-0.1-10.3c-2.6-2.2-5.2-4.4-7.9-6.5c-1.7-1.3-2.2-2.9-2.4-5
		c-0.7-5.1,1.1-8.9,5.7-11.7c1.1-0.6,1.8-1.8,2.9-2.4c3.9-2.1,4.2-5.5,3.7-9c-0.1-0.9-0.9-1.9-1.6-2.5c-2.7-2.4-5.7-4.4-8.2-7
		c-1.2-1.2-2-3-2.3-4.7c-1.1-5.1,0.8-9.1,5.6-11.9c1.1-0.6,1.8-1.8,2.9-2.3c3.9-2.1,4-5.6,3.5-9.1c-0.1-0.9-0.9-1.9-1.7-2.5
		c-2.8-2.5-5.8-4.8-8.7-7.2c-2.2-1.9-2.3-3.4-1-4.4c2.2,2.1,4.3,4.3,6.6,6.3c2.2,2,4.6,3.9,7.1,6c3.4-4.6,9.9-6.8,12.8-12.7
		c0.1,0,0.7-0.1,1.2-0.1c0.5,0,1.1,0,1.3,0c2.9,5.8,9.4,8,13,13c3.7-4.9,10.1-7.1,13.1-12.9c0.2,0,0.7-0.1,1.3-0.1
		c0.5,0,0.9,0,1.3,0c2.7,5.8,9.3,8,13.1,13.1c3.6-5,10.3-7,12.9-13c0.8,0,1.8,0,2.1,0c2,2.1,3.6,3.9,5.4,5.5
		c2.7,2.4,5.6,4.7,8.5,7.2c3.4-4.7,9.9-6.8,12.6-12.7c0.8,0,1.9,0,3.2,0c0.2,3.4,3.4,4.6,5.6,6.6c2.2,2.1,4.6,3.9,7.1,6.1
		C296.6,170.6,303.1,168.5,306,162.5z M178.8,399.3c3.5-2.9,7-5.8,10.5-8.8c2.9-2.5,2.9-8.2,0.1-10.6c-3.6-3-7.1-6.1-10.5-8.9
		c-3,2.5-6,5-9,7.5c-5.1,4.3-5.2,9-0.1,13.2C172.8,394.3,175.8,396.8,178.8,399.3z M178.8,258.9c-3.4,2.9-7,5.8-10.4,8.7
		c-3.1,2.6-3.1,8.3,0,10.8c3.5,2.9,7,5.8,10.4,8.7c3.4-2.9,6.9-5.8,10.4-8.7c3-2.6,3-8.3,0-10.8
		C185.7,264.7,182.2,261.7,178.8,258.9z M178.8,324.6c3.5-3,7.1-5.9,10.6-8.9c2.8-2.4,2.8-8.1,0-10.5c-3.6-3-7.2-6.1-10.5-8.9
		c-3.5,2.9-7,5.9-10.6,8.9c-2.9,2.5-2.9,8.2,0,10.6C171.8,318.7,175.3,321.6,178.8,324.6z M178.7,221.4c-1.6,1.4-3.3,3-5.1,4.5
		c-1.8,1.5-3.6,2.9-5.4,4.5c-2.9,2.5-2.9,8.2,0,10.7c3.5,3,7.1,5.9,10.6,8.8c1.4-1.3,2.9-2.6,4.5-4c1.6-1.4,3.3-2.7,5-4.1
		c4.3-3.6,4.3-8.7,0.1-12.2C185.2,226.8,182,224.1,178.7,221.4z M521.9,258.9c-3.3,2.8-6.8,5.7-10.3,8.6c-3.3,2.7-3.3,8.3-0.1,11
		c3.5,2.9,7,5.8,10.3,8.7c3.3-2.7,6.6-5.6,10-8.4c3.6-3,3.6-8.8,0-11.8C528.5,264.3,525.2,261.6,521.9,258.9z M521.9,249.8
		c3.5-2.9,7.1-5.9,10.7-9c2.6-2.2,2.5-8.4-0.1-10.6c-3.6-3-7.3-5.9-10.7-8.7c-3.5,2.9-7,5.9-10.6,8.9c-2.9,2.5-2.8,8.2,0.1,10.6
		C514.9,244,518.5,246.9,521.9,249.8z M521.9,371.1c-3.3,2.8-6.8,5.6-10.2,8.5c-3.4,2.8-3.4,8.4-0.1,11.2c3.5,2.9,6.9,5.8,10.2,8.6
		c3.5-2.9,7.1-5.8,10.5-8.8c3-2.6,2.8-8.6-0.2-11.1C528.7,376.6,525.2,373.8,521.9,371.1z M264.6,221.5c-3.5,2.9-7.1,5.8-10.6,8.8
		c-2.8,2.4-2.7,8.3,0.1,10.7c3.5,3,7.1,5.9,10.5,8.7c3.3-2.8,6.8-5.7,10.3-8.6c3.1-2.6,3.1-8.4,0-11
		C271.4,227.2,267.9,224.3,264.6,221.5z M407.5,249.8c3.4-2.9,7-5.8,10.4-8.7c2.9-2.5,2.8-8.5-0.1-10.9c-3.5-3-7-5.9-10.3-8.6
		c-3.3,2.8-6.7,5.6-10,8.4c-3.7,3.1-3.7,8.5,0,11.5C400.9,244.2,404.2,247,407.5,249.8z M378.9,221.5c-3.2,2.7-6.5,5.5-9.9,8.3
		c-3.7,3.1-3.8,8.6,0,11.8c3.3,2.8,6.7,5.6,9.8,8.2c3.1-2.6,6.3-5.2,9.5-7.9c4.4-3.7,4.5-8.7,0.1-12.3
		C385.3,226.8,382.1,224.1,378.9,221.5z M407.6,371c-3.1,2.6-6.5,5.4-9.8,8.2c-3.9,3.3-3.9,8.6,0,11.8c3.4,2.8,6.7,5.6,9.9,8.3
		c1.6-1.4,3.3-2.9,5.1-4.4c1.8-1.5,3.6-2.9,5.4-4.5c2.8-2.5,2.8-8.3-0.1-10.7C414.4,376.8,410.9,373.8,407.6,371z M521.9,361.9
		c3.4-2.8,7-5.8,10.6-8.9c2.8-2.4,2.7-8.4-0.1-10.7c-3.5-3-7.1-5.9-10.5-8.7c-3.1,2.7-6.4,5.4-9.7,8.2c-4.2,3.5-4.2,8.6,0.1,12.2
		C515.6,356.6,518.8,359.3,521.9,361.9z M521.8,436.7c3.5-2.9,7.1-5.9,10.7-8.9c2.7-2.3,2.7-8.3,0-10.6c-3.6-3.1-7.2-6.1-10.6-8.8
		c-3.3,2.8-6.8,5.7-10.2,8.6c-3.4,2.9-3.4,8.6,0,11.4C515.2,431.1,518.6,433.9,521.8,436.7z M607.6,408.3c-3.4,2.9-6.9,5.9-10.4,8.9
		c-2.8,2.4-2.8,8.3,0,10.7c3.5,3,7,6,10.3,8.7c3.5-2.9,6.9-5.7,10.4-8.6c3.2-2.7,3.1-8.5-0.1-11.3
		C614.3,414,610.9,411.1,607.6,408.3z M236,221.5c-3.3,2.8-6.9,5.8-10.4,8.8c-3.1,2.6-3.1,8.2,0,10.8c3.5,3,7,5.9,10.3,8.7
		c3.3-2.7,6.7-5.5,10-8.3c3.5-2.9,3.5-8.7,0-11.6C242.6,227,239.2,224.2,236,221.5z M493.3,324.6c3.5-2.9,7-5.9,10.5-8.9
		c2.9-2.5,2.9-8.2,0-10.7c-3.6-3-7.1-6-10.5-8.8c-3.2,2.7-6.4,5.4-9.7,8.2c-3.8,3.2-3.9,8.8-0.1,12
		C486.8,319.1,490.1,321.9,493.3,324.6z M178.8,184.2c-3.3,2.8-6.8,5.7-10.2,8.5c-3.4,2.9-3.4,8.4,0,11.2c3.4,2.9,6.9,5.7,10.2,8.5
		c3.3-2.8,6.7-5.7,10.1-8.6c3.3-2.8,3.3-8.4,0-11.2C185.5,189.8,182.1,186.9,178.8,184.2z M178.8,361.9c3.6-3.1,7.3-6.1,10.8-9.2
		c2.5-2.1,2.4-8-0.1-10.1c-3.6-3.1-7.2-6.1-10.7-9c-3.4,2.9-7.1,5.9-10.7,9c-2.7,2.3-2.7,8.1,0,10.5
		C171.7,356,175.3,359,178.8,361.9z M264.6,333.7c-3.2,2.7-6.7,5.6-10.1,8.4c-3.4,2.8-3.4,8.5,0.1,11.4c3.4,2.9,6.8,5.7,10.1,8.4
		c1.6-1.4,3.3-2.9,5-4.3c1.8-1.5,3.6-2.9,5.4-4.5c3.1-2.6,3-8.4-0.2-11C271.3,339.3,267.9,336.5,264.6,333.7z M521.8,324.5
		c3.2-2.6,6.6-5.4,9.9-8.2c3.8-3.1,3.7-8.9-0.1-12c-3.3-2.7-6.6-5.4-9.8-8c-3.5,2.9-7.1,5.9-10.7,8.9c-2.8,2.4-2.7,8.1,0.1,10.5
		C514.9,318.7,518.4,321.7,521.8,324.5z M379,333.7c-3,2.5-6.1,5.1-9.3,7.7c-4.7,3.9-4.7,8.9-0.1,12.8c3.1,2.6,6.3,5.3,9.2,7.8
		c3.4-2.9,7-5.8,10.5-8.8c2.9-2.5,2.9-8.1,0-10.6C385.9,339.5,382.3,336.5,379,333.7z M407.5,361.9c3.3-2.8,6.9-5.7,10.4-8.8
		c2.9-2.5,2.8-8.4-0.1-10.9c-3.5-3-7-5.9-10.3-8.7c-3.5,2.9-7,5.9-10.6,8.9c-2.9,2.5-2.9,8.1,0,10.6
		C400.6,356.1,404.1,359.1,407.5,361.9z M235.9,399.4c3.4-2.8,7-5.8,10.5-8.8c2.9-2.5,2.8-8.3,0-10.7c-3.6-3.1-7.1-6.1-10.4-8.8
		c-3.2,2.7-6.5,5.5-9.9,8.3c-3.9,3.3-3.9,8.5-0.1,11.7C229.4,393.8,232.7,396.7,235.9,399.4z M264.7,371.1
		c-3.3,2.7-6.7,5.5-10.2,8.4c-3.4,2.8-3.4,8.6,0,11.4c3.4,2.9,6.8,5.7,10.1,8.5c1.6-1.4,3.3-2.9,5-4.3c1.8-1.5,3.6-2.9,5.4-4.5
		c3-2.5,3-8.4,0-10.9C271.5,376.8,268,373.9,264.7,371.1z M493.4,258.8c-3.2,2.7-6.6,5.6-10,8.5c-3.4,2.9-3.4,8.6-0.1,11.4
		c3.4,2.9,6.8,5.7,10.1,8.5c3.1-2.6,6.3-5.3,9.5-8c4.3-3.6,4.3-8.7,0.1-12.3C499.7,264.2,496.4,261.4,493.4,258.8z M293.6,296.7
		c-1.2,0.8-2.8,1.8-4.2,2.8c-2.3,1.8-4.5,3.6-6.6,5.5c-3,2.6-3,8.3,0,10.9c3.5,3,7.1,6,10.3,8.7c3.2-2.7,6.5-5.4,9.8-8.2
		c3.9-3.3,3.9-8.7,0-11.9C299.5,301.7,296.2,298.9,293.6,296.7z M235.9,436.7c3.3-2.8,6.8-5.7,10.3-8.6c3.1-2.7,3.1-8.4,0-11.1
		c-3.5-3-7-6-10.2-8.7c-3.5,2.9-7,5.9-10.5,8.9c-3.1,2.6-3,8.2,0.1,10.8C229.1,431,232.6,433.9,235.9,436.7z M493.3,399.4
		c3.5-3,7.2-6,10.7-9c2.7-2.4,2.5-8.2-0.2-10.5c-3.6-3-7.1-6-10.4-8.8c-3.2,2.7-6.4,5.4-9.7,8.2c-3.9,3.3-3.9,8.9,0,12.1
		C486.9,394,490.1,396.7,493.3,399.4z M521.9,212.4c3.6-3,7.1-6,10.7-9c2.5-2.2,2.6-8.2,0.1-10.4c-3.6-3.1-7.4-6.1-10.8-8.9
		c-3.4,2.9-6.9,5.8-10.4,8.7c-3,2.5-3,8.3,0,10.8C515,206.6,518.5,209.6,521.9,212.4z M293.1,399.4c3.5-3,7.2-6,10.7-9.1
		c2.7-2.4,2.5-8.2-0.2-10.5c-3.6-3-7.1-6-10.5-8.9c-1.5,1.3-3.1,2.8-4.8,4.2c-1.8,1.5-3.6,3-5.4,4.5c-3.3,2.8-3.3,8.4,0,11.2
		C286.3,393.7,289.8,396.6,293.1,399.4z M407.5,324.6c3.5-3,7.1-5.9,10.6-8.9c2.6-2.3,2.5-8.3-0.1-10.6c-3.6-3-7.2-6-10.5-8.8
		c-3.5,2.9-7.1,5.9-10.6,8.9c-2.8,2.4-2.8,8.1-0.1,10.4C400.4,318.6,404,321.6,407.5,324.6z M321.6,371c-1.5,1.3-3.1,2.7-4.7,4.1
		c-1.7,1.5-3.4,2.9-5.2,4.3c-3.4,2.9-3.5,8.6-0.1,11.5c3.3,2.8,6.7,5.6,10,8.3c3.5-2.9,7-5.8,10.5-8.7c3-2.5,3-8.2,0-10.7
		C328.7,376.9,325.2,374,321.6,371z M550.3,436.9c3.6-3,7.2-6,10.7-9c2.7-2.3,2.8-8.1,0.2-10.4c-3.6-3.2-7.3-6.2-10.6-9.1
		c-3.4,2.9-7,6-10.6,9c-2.9,2.5-3,7.7-0.1,10.3C543.3,430.8,546.8,433.8,550.3,436.9z M178.8,408.4c-3.3,2.8-6.8,5.7-10.3,8.7
		c-3.2,2.7-3.2,8.3,0,11c3.5,2.9,7,5.8,10.3,8.6c3.5-2.9,7.1-5.9,10.6-8.9c2.7-2.4,2.6-8.3-0.2-10.7
		C185.7,414.2,182.2,411.2,178.8,408.4z M607.7,296.2c-3.2,2.7-6.6,5.6-10,8.4c-3.4,2.9-3.5,8.5-0.1,11.4c3.4,2.9,6.8,5.7,10,8.5
		c3.4-2.9,7-5.8,10.4-8.7c3-2.5,3-8.4,0-10.9C614.5,302,611,299,607.7,296.2z M608,333.9c-1.5,1.1-3.2,2.4-4.9,3.7
		c-1.8,1.4-3.5,2.8-5.2,4.3c-3.9,3.3-3.9,8.6,0,11.9c3.3,2.8,6.5,5.5,9.7,8.1c3.4-2.8,6.9-5.7,10.4-8.7c3.1-2.6,3-8.4-0.1-11
		C614.4,339.3,611,336.4,608,333.9z M493.4,221.5c-3.3,2.8-6.8,5.7-10.3,8.7c-3.1,2.6-3.1,8.5,0,11.1c3.5,2.9,6.9,5.9,10.2,8.6
		c3.2-2.7,6.5-5.5,9.9-8.3c3.8-3.2,3.9-8.6,0.1-11.7C499.9,227,496.6,224.2,493.4,221.5z M293.1,221.4c-3.5,2.9-7.1,6-10.6,9.1
		c-2.7,2.4-2.6,8.2,0.1,10.5c3.6,3,7.2,6.1,10.5,8.9c1.6-1.4,3.3-2.9,4.9-4.3c1.7-1.5,3.5-2.8,5.2-4.3c3.4-2.9,3.3-8.5-0.1-11.4
		C299.7,227,296.4,224.1,293.1,221.4z M378.9,212.4c3.5-3,7-5.9,10.5-8.8c2.8-2.4,2.9-8.2,0.1-10.6c-3.6-3-7.2-6-10.6-8.8
		c-3.3,2.8-6.7,5.6-10.1,8.5c-3.3,2.8-3.3,8.4,0,11.2C372.2,206.8,375.6,209.7,378.9,212.4z M236,333.6c-3.3,2.8-6.9,5.8-10.4,8.8
		c-3.1,2.6-3.2,8.2-0.1,10.8c3.5,3,7.1,6,10.5,8.8c1.4-1.2,2.9-2.6,4.4-3.9c1.6-1.3,3.2-2.6,4.8-3.9c4.6-3.8,4.5-9-0.1-12.8
		C242,338.7,238.9,336,236,333.6z M378.9,371c-3.3,2.7-6.7,5.6-10.1,8.5c-3.4,2.9-3.5,8.5,0,11.4c3.4,2.9,6.8,5.7,10.1,8.5
		c1.7-1.4,3.3-2.9,5-4.4c1.7-1.4,3.5-2.8,5.2-4.3c3.2-2.7,3.3-8.3,0.1-11C385.8,376.8,382.4,373.9,378.9,371z M608.1,371.4
		c-1.2,0.8-2.6,1.7-3.9,2.7c-2.5,2-4.9,4-7.2,6c-2.4,2.1-2.5,8.1-0.2,10.2c3.6,3.1,7.3,6.2,10.8,9.1c3.4-2.8,6.7-5.6,10.1-8.4
		c3.4-2.8,3.4-8.6,0-11.4C614.4,376.6,611,373.7,608.1,371.4z M378.9,436.7c3.5-2.9,7.1-5.9,10.7-9c2.7-2.3,2.5-8.2-0.2-10.5
		c-3.5-3-7.1-6-10.6-8.9c-1.4,1.3-3,2.7-4.7,4.2c-1.8,1.5-3.6,3-5.4,4.5c-3.3,2.8-3.4,8.4,0,11.3C372.1,431.1,375.6,434,378.9,436.7
		z M407.5,212.4c3.2-2.7,6.6-5.5,10-8.4c3.4-2.9,3.4-8.6,0-11.4c-3.4-2.9-6.8-5.8-10-8.4c-3.4,2.9-7.1,5.9-10.7,8.9
		c-2.7,2.3-2.7,8.2,0,10.5C400.5,206.5,404.1,209.5,407.5,212.4z M436.2,362c1.5-1.3,3.1-2.8,4.8-4.3c1.7-1.5,3.5-2.8,5.2-4.3
		c3.5-2.9,3.4-8.4,0-11.4c-3.4-2.9-6.8-5.8-10-8.4c-3.1,2.6-6.5,5.4-9.8,8.2c-3.9,3.2-3.8,8.7,0,12C429.7,356.6,433,359.3,436.2,362
		z M607.6,221.4c-1.5,1.3-3.1,2.8-4.8,4.2c-1.7,1.5-3.4,2.9-5.2,4.3c-3.4,2.9-3.5,8.5-0.1,11.4c3.4,2.9,6.8,5.7,10.1,8.5
		c3.4-2.8,6.8-5.7,10.2-8.6c3.3-2.8,3.2-8.6-0.2-11.4C614.3,227,610.9,224.1,607.6,221.4z M436.1,212.4c3.5-2.9,7-5.9,10.6-8.9
		c2.7-2.3,2.7-8.2,0-10.5c-3.6-3-7.2-6-10.4-8.8c-2.9,2.4-5.9,5-9,7.5c-5,4.1-5.1,9.1-0.1,13.2C430.1,207.3,433.1,209.9,436.1,212.4
		z M235.8,296.1c-0.8,0.8-1.8,1.9-2.8,2.8c-2.5,2.2-5.1,4.2-7.6,6.4c-2.8,2.5-2.8,8,0.1,10.5c3.6,3,7.2,6,10.5,8.9
		c3.3-2.7,6.6-5.5,9.8-8.2c3.7-3.1,3.7-8.7,0.1-11.8C242.5,301.7,239.2,298.9,235.8,296.1z M264.5,324.5c3.4-2.9,7-5.8,10.5-8.7
		c3-2.5,3-8.4,0-10.8c-3.5-3-7.1-5.9-10.4-8.7c-3.4,2.8-6.9,5.7-10.3,8.6c-3.1,2.7-3.1,8.4,0.1,11.1
		C257.8,318.9,261.2,321.7,264.5,324.5z M264.5,287.2c3.5-3,7.1-5.9,10.7-8.9c2.7-2.3,2.6-8.2,0-10.5c-3.6-3-7.2-6-10.7-8.9
		c-1.6,1.4-3.3,2.9-5,4.4c-1.8,1.5-3.6,2.9-5.4,4.5c-2.8,2.4-2.8,8.3,0,10.7C257.6,281.4,261.1,284.3,264.5,287.2z M236,258.8
		c-3.3,2.8-6.9,5.9-10.5,8.9c-3,2.5-3,8.1,0,10.6c3.5,3,7.1,5.9,10.5,8.8c3.3-2.8,6.7-5.6,10.1-8.5c3.3-2.8,3.2-8.5,0-11.2
		C242.7,264.5,239.2,261.6,236,258.8z M321.7,287.1c3.4-2.9,6.8-5.7,10.3-8.6c3.4-2.8,3.3-8.3-0.1-11.2c-3.4-2.8-6.8-5.7-10.1-8.4
		c-3.3,2.7-6.6,5.6-10,8.4c-3.4,2.9-3.4,8.7-0.1,11.5C315,281.5,318.3,284.3,321.7,287.1z M550.6,399.4c1.5-1.3,3.2-2.8,4.9-4.3
		c1.8-1.5,3.6-2.9,5.4-4.5c3-2.6,3.1-8.3,0.1-10.9c-3.5-3-7.1-6-10.4-8.8c-3.2,2.7-6.6,5.7-10,8.5c-3.5,2.9-3.6,8.4-0.1,11.3
		C543.8,393.7,547.2,396.5,550.6,399.4z M436.1,221.4c-1.5,1.3-3.1,2.8-4.8,4.2c-1.8,1.5-3.6,2.9-5.4,4.5c-3.1,2.7-3.1,8.4,0,11.1
		c3.5,2.9,6.9,5.8,10.3,8.6c1.5-1.3,3.1-2.8,4.7-4.1c1.7-1.4,3.5-2.8,5.2-4.3c3.7-3.2,3.6-8.6-0.2-11.7
		C442.6,226.9,439.4,224.2,436.1,221.4z M293.2,362.1c1.5-1.3,3.1-2.8,4.8-4.3c1.7-1.5,3.5-2.8,5.2-4.3c3.5-3,3.5-8.5,0-11.4
		c-3.4-2.9-6.9-5.8-10-8.5c-3.3,2.8-6.8,5.7-10.3,8.7c-3.2,2.7-3.2,8.4,0,11.1C286.3,356.3,289.8,359.2,293.2,362.1z M579,184
		c-1.4,1.3-3.1,2.8-4.8,4.2c-1.8,1.5-3.6,3-5.4,4.4c-3.1,2.6-3.2,8.4-0.1,11.1c3.5,2.9,6.9,5.8,10.3,8.6c1.7-1.4,3.4-2.9,5.1-4.3
		c1.7-1.4,3.4-2.9,5.1-4.3c3.2-2.7,3.1-8.5-0.1-11.2C585.8,189.7,582.4,186.8,579,184z M407.5,258.9c-3.5,3-7.2,6-10.7,9.1
		c-2.6,2.3-2.6,8,0,10.2c3.6,3,7.2,6.1,10.7,9c3.3-2.8,6.7-5.6,10-8.4c3.4-2.9,3.4-8.6,0.1-11.4
		C414.2,264.5,410.8,261.6,407.5,258.9z M264.6,212.4c1.5-1.3,3.2-2.8,4.9-4.2c1.8-1.5,3.6-3,5.4-4.5c3.1-2.6,3.1-8.4-0.1-11
		c-3.5-2.9-7-5.8-10.2-8.6c-3.3,2.7-6.8,5.6-10.2,8.6c-3.1,2.6-3.2,8.4-0.1,11C257.7,206.7,261.2,209.6,264.6,212.4z M293.7,259.3
		c-1.3,0.8-2.8,1.7-4.2,2.8c-2.2,1.7-4.3,3.5-6.4,5.3c-3.3,2.8-3.3,8.4,0,11.2c3.5,2.9,6.9,5.8,10.1,8.5c3.5-2.9,7-5.8,10.4-8.8
		c3-2.6,2.9-8.3-0.1-10.9C299.9,264.6,296.4,261.6,293.7,259.3z M407.5,436.7c1.6-1.4,3.2-2.8,4.9-4.3c1.7-1.4,3.5-2.8,5.2-4.3
		c3.2-2.8,3.2-8.6,0-11.3c-3.5-2.9-6.9-5.8-10.2-8.6c-1.5,1.4-3.2,2.8-4.9,4.3c-1.8,1.5-3.6,3-5.4,4.5c-3,2.5-3.2,8.3-0.2,10.8
		C400.5,430.9,404,433.8,407.5,436.7z M493.4,333.6c-3.4,2.9-6.9,5.8-10.3,8.7c-3,2.5-3,8.4-0.1,10.9c3.5,3,7.1,6,10.4,8.8
		c3.4-2.9,6.9-5.8,10.3-8.7c3.2-2.8,3.2-8.3-0.1-11C500.1,339.3,496.7,336.4,493.4,333.6z M579.1,370.9c-1.5,1.3-3.1,2.8-4.7,4.1
		c-1.7,1.5-3.4,2.9-5.2,4.3c-3.7,3-3.6,8.8,0.1,11.8c3.3,2.7,6.6,5.5,9.8,8.1c3.5-2.9,7.1-5.9,10.6-8.9c2.7-2.3,2.6-8.2-0.1-10.5
		C586.1,376.9,582.6,373.9,579.1,370.9z M579.2,333.7c-3.4,2.8-7,5.7-10.5,8.7c-2.9,2.4-2.9,8.3-0.1,10.7c3.5,3,7,5.9,10.4,8.7
		c3.3-2.8,6.7-5.6,10.1-8.5c3.3-2.8,3.3-8.4,0-11.2C585.8,339.3,582.4,336.4,579.2,333.7z M550.5,221.5c-3.3,2.8-6.7,5.7-10.2,8.7
		c-3.3,2.8-3.3,8.3-0.1,11c3.5,2.9,6.9,5.9,10.3,8.7c1.4-1.3,3-2.7,4.7-4.1c1.7-1.5,3.4-2.9,5.2-4.3c3.7-3.1,3.7-8.5-0.1-11.7
		C557,226.9,553.6,224.1,550.5,221.5z M378.9,296.3c-3.4,2.8-6.9,5.7-10.4,8.7c-3.1,2.6-3.1,8.3,0,10.9c3.5,3,7,5.9,10.4,8.7
		c3.6-3,7.2-6.1,10.8-9.2c2.5-2.1,2.4-7.9-0.1-10.1C386.1,302.3,382.4,299.2,378.9,296.3z M264.6,436.8c1.5-1.3,3.1-2.8,4.8-4.2
		c1.8-1.5,3.6-2.9,5.4-4.5c3.1-2.7,3.1-8.5,0-11.1c-3.5-2.9-7-5.9-10.3-8.7c-1.5,1.3-3.2,2.8-4.9,4.3c-1.8,1.5-3.6,3-5.4,4.5
		c-3,2.5-3,8.4,0,10.9C257.6,431,261.2,433.9,264.6,436.8z M608.1,259.2c-1.2,0.9-2.6,1.7-3.9,2.7c-2.5,2-5,4.1-7.4,6.2
		c-2.2,1.9-2.2,7.9-0.1,9.8c3.7,3.2,7.4,6.3,11,9.3c1.7-1.4,3.3-2.8,4.9-4.2c1.7-1.4,3.4-2.9,5.2-4.3c3.4-2.8,3.4-8.6,0-11.4
		C614.4,264.5,611,261.6,608.1,259.2z M350.6,221.6c-1.6,1.3-3.2,2.6-4.8,3.9c-1.7,1.4-3.4,2.7-5,4.1c-4.1,3.5-4.2,8.7-0.1,12.1
		c3.3,2.7,6.5,5.5,9.6,8.1c3.3-2.7,6.6-5.5,10-8.4c3.4-2.9,3.5-8.6,0.1-11.4C357,227.1,353.6,224.2,350.6,221.6z M579.1,221.4
		c-1.6,1.4-3.2,2.9-4.9,4.3c-1.8,1.5-3.6,2.9-5.4,4.4c-3,2.5-3,8.4,0,10.9c3.5,2.9,7,5.8,10.3,8.6c3.4-2.8,6.8-5.7,10.2-8.6
		c3.2-2.7,3.2-8.5,0-11.2C585.8,227.1,582.4,224.2,579.1,221.4z M579.2,408.4c-3.2,2.6-6.4,5.4-9.8,8c-2.8,2.2-4.1,8.4-1.9,10.4
		c3.7,3.5,7.7,6.7,11.4,9.9c3.6-3,7.2-6,10.8-9c3-2.6,2.9-8-0.1-10.5C586,414.2,582.5,411.2,579.2,408.4z M550.5,324.5
		c3.3-2.7,6.7-5.6,10.1-8.5c3.3-2.8,3.4-8.4,0.1-11.2c-3.5-3-7-5.9-9.9-8.4c-1.6,1.3-3.4,2.7-5.2,4.1c-1.8,1.5-3.6,3-5.4,4.5
		c-3.1,2.7-3.1,8.1,0.1,10.8C543.6,318.8,547.1,321.7,550.5,324.5z M350.4,371c-3.3,2.8-6.8,5.7-10.3,8.7c-3.2,2.7-3.2,8.3,0,11.1
		c3.4,2.9,6.8,5.7,10.2,8.6c3.1-2.6,6.3-5.3,9.5-8c4.1-3.4,4.1-9,0.1-12.3C356.7,376.3,353.5,373.6,350.4,371z M350.3,184
		c-1.5,1.4-3.2,2.9-4.9,4.4c-1.8,1.5-3.6,2.9-5.4,4.5c-3,2.6-3,8.2,0.1,10.8c3.4,2.9,6.9,5.8,10.2,8.6c3.4-2.9,7-5.8,10.5-8.8
		c2.8-2.4,2.7-8.4,0-10.7C357.2,189.8,353.7,186.9,350.3,184z M207.4,258.9c-3.4,2.9-6.9,5.8-10.4,8.8c-3,2.5-3,8.1,0,10.6
		c3.5,3,7,5.9,10.4,8.8c3.4-2.8,6.9-5.7,10.4-8.7c2.9-2.5,2.9-8.4,0-10.9C214.3,264.6,210.8,261.7,207.4,258.9z M607.7,184.1
		c-3.4,2.9-6.9,5.8-10.4,8.8c-3,2.5-2.9,8.3,0,10.9c3.5,2.9,7,5.8,10.3,8.7c1.7-1.4,3.3-2.9,5-4.3c1.7-1.5,3.4-2.9,5.2-4.3
		c3.1-2.6,3.2-8.4,0.1-11C614.5,189.8,611,186.9,607.7,184.1z M378.9,258.9c-3.4,2.9-6.9,5.8-10.4,8.7c-3.1,2.6-3,8.3,0,10.9
		c3.5,2.9,7,5.9,10.3,8.7c3.3-2.8,6.7-5.6,10.1-8.5c3.5-2.9,3.5-8.4,0-11.3C385.6,264.5,382.2,261.6,378.9,258.9z M350.3,287.2
		c3.4-2.9,6.9-5.8,10.4-8.7c2.9-2.5,2.9-8.4,0-10.9c-3.5-3-7-6-10.2-8.7c-3.3,2.8-6.8,5.7-10.2,8.5c-3.4,2.9-3.4,8.4,0,11.2
		C343.6,281.5,346.9,284.3,350.3,287.2z M207.4,296.3c-3.3,2.8-6.6,5.6-10,8.4c-3.6,3-3.7,8.4-0.1,11.4c3.4,2.9,6.8,5.7,10,8.4
		c3.4-2.9,6.9-5.7,10.3-8.6c3.1-2.6,3-8.5-0.1-11.1C214.1,301.9,210.7,299.1,207.4,296.3z M436.2,296.2c-3.3,2.8-6.8,5.7-10.3,8.7
		c-3.2,2.7-3.1,8.4,0,11.1c3.4,2.9,6.9,5.8,10.2,8.5c3.2-2.7,6.4-5.4,9.6-8.1c4.1-3.5,4.1-8.6,0.1-12.1
		C442.5,301.6,439.3,298.8,436.2,296.2z M436.1,287.1c3.4-2.9,6.8-5.7,10.2-8.6c3.3-2.9,3.2-8.3-0.2-11.2c-3.4-2.9-6.9-5.8-10.1-8.5
		c-1.5,1.3-3.1,2.8-4.8,4.2c-1.7,1.5-3.5,2.8-5.2,4.3c-3.5,3-3.5,8.5-0.1,11.4C429.4,281.6,432.8,284.4,436.1,287.1z M236,184.1
		c-3.3,2.8-6.9,5.7-10.4,8.7c-3.3,2.8-3.2,8.2,0.1,11c3.5,2.9,6.9,5.9,10.2,8.6c3.4-2.9,7-5.8,10.5-8.9c2.8-2.4,2.7-8.4-0.1-10.7
		C242.8,189.9,239.3,186.9,236,184.1z M321.7,249.7c3.6-3,7.2-6,10.8-9c2.5-2.1,2.6-8,0.1-10.1c-3.6-3.1-7.4-6.2-10.9-9.2
		c-1.6,1.4-3.2,2.8-4.8,4.2c-1.7,1.5-3.5,2.8-5.2,4.3c-3.4,2.9-3.3,8.7,0.1,11.5C315,244.2,318.4,246.9,321.7,249.7z M207.4,249.8
		c1.5-1.3,3-2.6,4.6-3.9c1.6-1.4,3.3-2.7,5-4.1c4-3.3,4-8.8,0.1-12.1c-3.3-2.7-6.5-5.5-9.6-8.1c-3.3,2.7-6.6,5.5-9.9,8.3
		c-3.7,3.1-3.7,8.5-0.1,11.6C200.7,244.2,204,246.9,207.4,249.8z M436.1,399.3c3.3-2.8,6.7-5.6,10.1-8.5c3.5-3,3.4-8.4-0.1-11.4
		c-3.4-2.9-6.8-5.7-10.1-8.5c-1.4,1.2-3.1,2.8-4.8,4.3c-1.8,1.5-3.6,2.9-5.4,4.5c-3.1,2.7-3.1,8.4,0.1,11.1
		C429.4,393.7,432.8,396.5,436.1,399.3z M550.5,258.9c-3.3,2.8-6.8,5.8-10.3,8.8c-3.2,2.7-3.2,8.1-0.1,10.8c3.5,3,6.9,5.9,10.3,8.8
		c3.2-2.7,6.5-5.5,9.9-8.3c3.7-3.1,3.7-8.6-0.1-11.7C557,264.3,553.6,261.5,550.5,258.9z M579.1,324.5c3.5-2.9,7.1-5.9,10.6-8.9
		c2.7-2.3,2.7-8.2,0-10.5c-3.6-3-7.2-6-10.6-8.9c-1.5,1.3-3.1,2.7-4.7,4.1c-1.6,1.4-3.3,2.7-5,4.1c-3.9,3.2-3.9,8.7-0.1,12
		C572.6,319.1,575.8,321.8,579.1,324.5z M464.8,296.3c-3.5,2.9-7.1,5.9-10.7,9c-2.7,2.3-2.7,8,0,10.3c3.6,3,7.2,6,10.7,8.9
		c3.2-2.7,6.5-5.4,9.7-8.1c3.8-3.2,3.9-8.8,0.1-12C471.2,301.7,468,298.9,464.8,296.3z M350.3,324.5c3.4-2.8,6.9-5.7,10.4-8.7
		c3-2.6,2.9-8.4,0-10.9c-3.5-3-7-5.9-10.3-8.7c-3.3,2.8-6.6,5.6-10,8.4c-3.6,3.1-3.6,8.5,0,11.6C343.7,319,347,321.8,350.3,324.5z
		 M493.4,184.1c-3.1,2.7-6.5,5.5-9.9,8.4c-3.5,3-3.6,8.6-0.1,11.6c3.4,2.9,6.8,5.7,9.9,8.4c3.1-2.6,6.3-5.3,9.5-8
		c4.2-3.5,4.2-8.8,0.1-12.3C499.7,189.4,496.4,186.7,493.4,184.1z M350.4,333.6c-3.3,2.8-6.8,5.7-10.2,8.7c-3.2,2.8-3.2,8.3,0,11.1
		c3.4,2.9,6.9,5.8,10.2,8.6c3.5-2.9,7.1-5.9,10.6-8.9c2.6-2.3,2.5-8.3-0.1-10.5C357.3,339.4,353.7,336.4,350.4,333.6z M207.3,212.3
		c3.4-2.8,6.8-5.7,10.2-8.5c3.2-2.7,3.1-8.6-0.1-11.3c-3.4-2.8-6.8-5.7-10.1-8.4c-3.3,2.8-6.7,5.7-10.2,8.5c-3.3,2.8-3.4,8.4,0,11.1
		C200.6,206.6,203.9,209.5,207.3,212.3z M207.3,436.6c3.5-2.9,7.1-5.9,10.6-8.9c2.6-2.3,2.6-8.3-0.1-10.5c-3.5-3-7.1-5.9-10.4-8.8
		c-3.6,3-7.2,6-10.8,9.1c-2.6,2.2-2.4,8.1,0.1,10.3C200.3,430.8,203.8,433.7,207.3,436.6z M293.1,212.5c3.4-2.8,6.8-5.7,10.2-8.6
		c3.2-2.7,3.2-8.5,0-11.2c-3.5-2.9-6.9-5.8-10.1-8.6c-3.3,2.8-6.9,5.7-10.4,8.7c-2.9,2.5-2.9,8.5,0,10.9
		C286.2,206.7,289.7,209.6,293.1,212.5z M321.7,324.5c3.6-3,7.2-6,10.7-9c2.6-2.2,2.7-7.9,0.1-10.1c-3.6-3.1-7.3-6.2-10.9-9.1
		c-1.6,1.4-3.2,2.8-4.8,4.2c-1.7,1.4-3.5,2.8-5.2,4.3c-3.4,2.9-3.3,8.6,0.1,11.5C315.1,319,318.4,321.7,321.7,324.5z M350.3,408.4
		c-3.2,2.7-6.6,5.6-10,8.5c-3.5,3-3.5,8.5-0.1,11.4c3.4,2.9,6.8,5.7,10,8.4c3.3-2.8,6.7-5.6,10.1-8.4c3.4-2.8,3.4-8.6,0-11.4
		C357,414,353.6,411.2,350.3,408.4z M464.7,436.6c3.4-2.8,6.8-5.7,10.2-8.5c3.1-2.7,3.2-8.5,0.1-11.1c-3.5-2.9-6.9-5.8-10.2-8.6
		c-3.3,2.8-6.8,5.8-10.3,8.7c-3.2,2.7-3.2,8.3,0,11C457.9,431,461.4,433.9,464.7,436.6z M207.4,371.1c-3.4,2.9-6.9,5.8-10.4,8.7
		c-3,2.5-3.1,8.2-0.2,10.7c3.5,3,7,5.9,10.5,8.8c3.5-2.9,6.9-5.7,10.3-8.6c3-2.6,3-8.5-0.1-11.1
		C214.2,376.7,210.7,373.9,207.4,371.1z M293.1,408.3c-3.2,2.8-6.7,5.7-10.1,8.7c-3.2,2.7-3.1,8.5,0.1,11.3
		c3.4,2.9,6.8,5.7,10.1,8.5c1.5-1.3,3.1-2.8,4.8-4.2c1.7-1.5,3.5-2.8,5.2-4.3c3.4-2.8,3.4-8.6,0.1-11.4
		C299.8,414,296.4,411.1,293.1,408.3z M550.6,362c1.6-1.4,3.2-2.9,4.9-4.3c1.8-1.5,3.6-2.9,5.4-4.5c3-2.6,3-8.3-0.1-10.9
		c-3.5-3-7.1-6-10.3-8.7c-3.3,2.8-6.6,5.7-10,8.6c-3.4,2.9-3.5,8.3-0.1,11.2C543.8,356.3,547.2,359.1,550.6,362z M493.3,408.4
		c-3.3,2.8-6.7,5.7-10.1,8.5c-3.3,2.8-3.3,8.6,0,11.4c3.4,2.9,6.8,5.7,10,8.4c3.4-2.8,6.9-5.7,10.3-8.7c3-2.6,3-8.5,0-11.1
		C500.1,414.1,496.6,411.1,493.3,408.4z M321.7,333.7c-3.2,2.7-6.5,5.4-9.7,8.2c-3.7,3.1-3.8,8.7-0.1,11.8c3.3,2.7,6.6,5.5,9.8,8.1
		c3.4-2.8,6.8-5.7,10.2-8.5c3.3-2.7,3.4-8.3,0.1-11C328.6,339.4,325.2,336.6,321.7,333.7z M207.3,361.8c3.4-2.8,6.9-5.7,10.4-8.7
		c2.9-2.5,2.9-8.4,0-10.9c-3.5-2.9-7-5.8-10.4-8.7c-1.5,1.3-3.1,2.8-4.8,4.2c-1.8,1.5-3.6,3-5.4,4.5c-3.2,2.8-3.2,8.3,0,11
		C200.6,356.2,204,359,207.3,361.8z M579.1,287.1c3.6-3,7.2-5.9,10.7-9c2.6-2.2,2.5-8.1-0.1-10.3c-3.6-3.1-7.2-6.1-10.5-8.9
		c-3.4,2.8-6.9,5.7-10.3,8.7c-3.1,2.7-3.1,8.4,0.1,11.1C572.3,281.5,575.7,284.3,579.1,287.1z M464.7,184.1c-1.6,1.4-3.3,3-5.1,4.4
		c-1.8,1.5-3.6,2.9-5.4,4.4c-3,2.5-2.9,8.2,0.1,10.7c3.5,2.9,7,5.8,10.4,8.7c3.2-2.7,6.5-5.5,9.8-8.2c3.7-3.1,3.7-8.8,0-11.8
		C471.3,189.6,468,186.8,464.7,184.1z M550.5,184.1c-3.3,2.8-6.8,5.7-10.3,8.7c-3.3,2.8-3.2,8.2,0.1,11c3.4,2.9,6.9,5.8,10.3,8.7
		c0.3-0.3,0.6-0.9,1.1-1.3c2.9-2.5,5.9-5,8.8-7.4c3.3-2.8,3.3-8.5,0-11.2C557.3,189.8,553.8,186.9,550.5,184.1z M321.7,184.2
		c-3.5,2.9-7,5.8-10.5,8.8c-2.7,2.3-2.8,8.3-0.1,10.6c3.5,3,7.1,5.9,10.5,8.8c3.5-3,7-5.9,10.5-8.8c2.9-2.4,2.9-8.2,0-10.6
		C328.7,190,325.2,187,321.7,184.2z M436.1,436.7c3.3-2.8,6.7-5.6,10-8.4c3.5-2.9,3.4-8.5,0-11.4c-3.4-2.9-6.8-5.8-9.8-8.3
		c-1.4,1.1-3,2.5-4.7,3.9c-1.7,1.4-3.3,2.7-5,4.1c-4.1,3.4-4.2,8.8-0.1,12.2C429.7,431.3,432.9,434,436.1,436.7z M464.8,258.9
		c-3.4,2.9-7,5.9-10.6,9c-2.8,2.4-2.8,8.1,0,10.4c3.5,3,7.1,5.9,10.5,8.8c3.5-2.9,7-5.8,10.4-8.7c2.9-2.5,2.8-8.4-0.2-10.9
		C471.6,264.6,468.1,261.7,464.8,258.9z M321.7,408.4c-3.4,2.8-6.9,5.7-10.4,8.7c-2.7,2.3-3,8.4-0.4,10.6c3.6,3.1,7.2,6,10.7,8.9
		c3.5-2.9,6.9-5.8,10.4-8.6c3-2.5,3.1-8.4,0.1-10.9C328.6,414.2,325.1,411.3,321.7,408.4z M464.8,221.5c-3.4,2.8-6.8,5.7-10.3,8.7
		c-3.2,2.7-3.3,8.3,0,11c3.5,2.9,7,5.8,10.3,8.6c1.6-1.4,3.2-2.8,4.9-4.1c1.6-1.4,3.3-2.7,5-4.1c3.6-3,3.6-8.8,0-11.8
		C471.3,227,468,224.2,464.8,221.5z M464.8,371c-3.5,3-7.2,6-10.8,9c-2.4,2.1-2.7,7.9-0.3,9.9c3.7,3.2,7.5,6.3,11,9.2
		c3.2-2.7,6.4-5.3,9.6-7.9c4-3.4,4-9,0-12.3C471,376.3,467.9,373.6,464.8,371z M464.8,361.8c3.3-2.7,6.6-5.5,9.9-8.2
		c3.5-2.9,3.5-8.8,0-11.7c-3.4-2.8-6.7-5.6-9.9-8.4c-1.4,1.2-3,2.7-4.6,4.1c-1.6,1.4-3.3,2.7-5,4.1c-4.2,3.5-4.3,8.6-0.1,12
		C458.3,356.5,461.5,359.2,464.8,361.8z M593.9,427.9c-1.1,0.7-2.3,1.3-3.4,2.2c-2.4,1.8-4.8,3.7-7.2,5.6c-3.6,2.9-3.6,7.9,0,10.8
		c3.4,2.8,6.8,5.7,10.2,8.4c1.4-1.2,2.9-2.5,4.4-3.8c1.6-1.3,3.2-2.6,4.8-3.9c4.5-3.8,4.6-8.4,0-12.3
		C599.5,432.4,596.4,429.9,593.9,427.9z M536.1,455c3.4-2.9,7-5.8,10.4-8.7c3.2-2.8,3-7.8-0.2-10.4c-3.5-2.8-6.9-5.8-10.1-8.4
		c-3.4,2.9-6.9,5.7-10.3,8.6c-3.2,2.7-3.3,7.6-0.2,10.3C529.2,449.2,532.6,452.1,536.1,455z M307.4,230.7c3.4-2.8,6.9-5.7,10.3-8.6
		c3.2-2.7,3.3-7.6,0.1-10.3c-3.5-3-7-5.9-10.4-8.8c-1.6,1.4-3.2,2.8-4.8,4.2c-1.7,1.5-3.5,2.8-5.2,4.3c-3.2,2.8-3.2,8.1,0.1,10.8
		C300.8,225.2,304.1,227.9,307.4,230.7z M307.5,315.3c-3.4,2.9-7,5.7-10.4,8.7c-2.7,2.3-2.7,7.8-0.1,10.1c3.5,3,7.1,5.9,10.5,8.7
		c1.7-1.5,3.4-2.9,5.1-4.3c1.7-1.4,3.5-2.8,5.2-4.3c3.3-2.7,3.2-7.7-0.1-10.4C314.2,321,310.8,318.1,307.5,315.3z M593.4,165.9
		c-3.6,3-7.2,5.9-10.7,8.9c-2.8,2.4-2.8,7.3,0,9.7c3.6,3,7.1,5.9,10.6,8.9c1.6-1.4,3.3-2.8,5-4.3c1.8-1.5,3.6-3,5.4-4.5
		c2.9-2.4,2.9-7.7,0-10.1C600.3,171.5,596.8,168.6,593.4,165.9z M307.4,268.1c3.2-2.6,6.3-5.3,9.5-7.9c4.5-3.7,4.5-8,0-11.8
		c-3.2-2.7-6.4-5.3-9.5-7.9c-1.6,1.4-3.1,2.8-4.8,4.2c-1.6,1.4-3.3,2.7-5,4.1c-3.5,3-3.5,8.2,0,11.2
		C300.9,262.7,304.2,265.4,307.4,268.1z M564.7,455c3.5-3,7.1-5.9,10.7-8.9c2.8-2.4,2.8-7.4-0.1-9.8c-3.6-3-7.1-6-10.6-9
		c-0.5,0.6-1,1.3-1.7,1.9c-2.3,1.9-4.5,3.8-6.9,5.5c-5,3.5-5.3,8.6-0.7,12.4C558.5,449.7,561.6,452.4,564.7,455z M393.2,417.6
		c3.6-2.9,7.1-5.8,10.6-8.8c2.8-2.4,2.8-7.6,0-9.9c-3.6-3-7.1-5.9-10.5-8.7c-3.4,2.8-6.8,5.7-10.3,8.6c-3,2.5-3.1,7.8-0.1,10.3
		C386.3,411.9,389.8,414.8,393.2,417.6z M536.1,165.8c-1.4,1.3-2.9,2.6-4.5,4c-1.6,1.3-3.2,2.6-4.8,3.9c-4.6,3.8-4.6,8.2,0.1,12
		c3.1,2.6,6.2,5.2,9.2,7.7c1.5-1.3,3.2-2.8,5-4.2c1.7-1.4,3.5-2.8,5.2-4.3c3.2-2.7,3.3-7.8,0.1-10.5
		C543,171.5,539.6,168.6,536.1,165.8z M393.2,305.4c3.5-2.9,7-5.8,10.5-8.7c3-2.5,2.9-7.6,0-10.1c-3.5-2.9-7-5.8-10.4-8.7
		c-3.3,2.8-6.7,5.6-10.1,8.5c-3.3,2.8-3.3,7.8,0.1,10.7C386.6,299.9,389.9,302.7,393.2,305.4z M450.4,193.3c3.3-2.8,6.7-5.5,10-8.3
		c3.5-2.9,3.5-7.9,0-10.8c-3.4-2.8-6.8-5.6-10.1-8.3c-1.6,1.4-3.3,2.9-5,4.3c-1.7,1.4-3.5,2.8-5.2,4.3c-3.5,3-3.4,7.6,0.2,10.6
		C443.8,187.8,447.1,190.6,450.4,193.3z M307.4,380.2c3.4-2.8,6.9-5.7,10.4-8.6c3.2-2.6,3.1-7.6-0.1-10.3c-3.5-2.9-7-5.8-10.3-8.6
		c-3.3,2.7-6.7,5.6-10.1,8.5c-3.1,2.6-3.1,8,0,10.6C300.7,374.6,304,377.4,307.4,380.2z M450.4,455c3.4-2.8,6.7-5.6,10.1-8.4
		c3.5-2.9,3.3-7.9-0.2-10.8c-3.4-2.8-6.7-5.6-9.8-8.2c-3.4,2.8-6.9,5.7-10.4,8.6c-3.2,2.7-3.3,7.6-0.1,10.2
		C443.5,449.2,446.9,452.1,450.4,455z M307.4,390.1c-1.5,1.3-3.1,2.7-4.7,4.1c-1.7,1.5-3.5,2.9-5.2,4.3c-3.2,2.7-3.3,8.1-0.1,10.8
		c3.3,2.8,6.7,5.6,10,8.3c3.2-2.6,6.5-5.3,9.7-8c4.3-3.6,4.2-8,0-11.5C313.8,395.5,310.6,392.8,307.4,390.1z M593.5,417.8
		c3.3-2.9,6.9-5.9,10.3-9c2.9-2.7,2.6-7.8-0.4-10.3c-3.4-2.8-6.8-5.7-9.9-8.3c-3.5,2.9-7.1,5.9-10.7,8.9c-2.9,2.4-2.9,7.3,0.1,9.8
		C586.4,411.8,590,414.8,593.5,417.8z M393.2,455c3.5-2.9,7.1-5.8,10.5-8.8c2.6-2.3,2.6-7.8,0-10c-3.5-3-7.1-5.9-10.4-8.7
		c-3.2,2.7-6.4,5.4-9.6,8.1c-4,3.3-4,8.2,0.1,11.6C386.9,449.7,390.1,452.4,393.2,455z M307.5,277.9c-3.2,2.7-6.4,5.3-9.6,8
		c-3.8,3.2-3.8,8.4,0,11.5c3.2,2.7,6.4,5.4,9.6,8c3.3-2.8,6.8-5.6,10.2-8.5c3.5-2.9,3.5-7.7,0-10.6
		C314.2,283.6,310.7,280.7,307.5,277.9z M393.2,268.1c3.4-2.8,6.8-5.6,10.2-8.4c3.3-2.7,3.4-7.7,0.1-10.4c-3.5-2.9-6.9-5.8-10.2-8.6
		c-3.4,2.9-6.9,5.7-10.3,8.6c-3.2,2.6-3.1,7.9,0.1,10.5C386.5,262.5,389.9,265.3,393.2,268.1z M250.2,193.3
		c3.4-2.8,6.8-5.7,10.3-8.5c3.2-2.7,3.2-7.8,0-10.4c-3.5-2.9-6.9-5.8-10.2-8.5c-3.3,2.7-6.6,5.5-10,8.3c-3.4,2.8-3.4,8.1,0,10.9
		C243.6,187.8,246.9,190.6,250.2,193.3z M193.1,165.8c-3.4,2.9-6.9,5.8-10.4,8.7c-3.1,2.6-3,7.7,0.2,10.3c3.4,2.8,6.8,5.7,10.1,8.4
		c3.3-2.8,6.8-5.6,10.2-8.5c3.2-2.7,3.2-7.8,0.1-10.5C199.9,171.5,196.5,168.6,193.1,165.8z M564.8,165.8c-3.1,2.6-6.5,5.4-9.8,8.2
		c-3.9,3.3-3.9,8,0,11.1c3.3,2.7,6.6,5.5,9.8,8.1c3.4-2.8,7-5.8,10.5-8.8c2.8-2.4,2.8-7.6,0-9.9
		C571.7,171.6,568.2,168.6,564.8,165.8z M393.3,315.4c-3.3,2.8-6.7,5.6-10,8.4c-3.5,2.9-3.5,7.9,0,10.8c3.3,2.8,6.7,5.6,9.9,8.3
		c3.5-2.9,7-5.8,10.5-8.7c3-2.5,3-7.6,0-10.1C400.2,321.1,396.7,318.2,393.3,315.4z M479.1,315.3c-3.5,2.9-7.1,5.9-10.7,8.9
		c-2.7,2.3-2.7,7.4,0,9.7c3.6,3,7.2,6,10.7,8.9c1.6-1.4,3.1-2.7,4.7-4.1c1.6-1.4,3.3-2.7,5-4.1c3.5-2.9,3.6-8.2,0.1-11.1
		C485.6,320.8,482.3,318,479.1,315.3z M479.1,352.7c-3.4,2.9-7.1,5.9-10.7,8.9c-2.7,2.3-2.8,7.5-0.1,9.7c3.6,3,7.2,6,10.7,8.9
		c3.3-2.8,6.7-5.5,9.9-8.3c3.3-2.8,3.3-8.2,0-10.9C485.6,358.2,482.3,355.4,479.1,352.7z M479.1,203.2c-3.4,2.9-7,5.8-10.6,8.8
		c-2.9,2.4-2.9,7.5,0,9.9c3.6,3,7.1,5.9,10.6,8.8c3.2-2.7,6.3-5.3,9.5-7.9c3.8-3.2,3.9-8.3,0.1-11.5
		C485.5,208.6,482.3,205.9,479.1,203.2z M393.2,193.3c3.5-2.9,7.1-5.8,10.6-8.8c2.6-2.3,2.5-7.8-0.1-10c-3.5-2.9-7-5.8-10.3-8.6
		c-3.3,2.7-6.8,5.6-10.2,8.4c-3.3,2.7-3.2,8,0.1,10.7C386.5,187.8,389.9,190.6,393.2,193.3z M250.3,315.3c-1.5,1.3-3.1,2.7-4.8,4.1
		c-1.6,1.4-3.3,2.7-5,4.1c-3.7,3.1-3.7,8.1,0.1,11.3c3.3,2.7,6.5,5.5,9.6,8.1c3.3-2.8,6.7-5.6,10-8.4c3.4-2.8,3.4-7.9,0.1-10.7
		C257,321,253.7,318.2,250.3,315.3z M250.3,278c-3.3,2.8-6.7,5.6-10,8.4c-3.3,2.8-3.3,8,0,10.7c3.4,2.8,6.8,5.7,10,8.3
		c3.5-2.9,7-5.8,10.5-8.8c2.7-2.3,2.7-7.7-0.1-10C257.2,283.8,253.7,280.9,250.3,278z M221.6,455c3.4-2.9,7-5.9,10.5-8.9
		c2.7-2.3,2.7-7.6,0-9.9c-3.6-3-7.1-5.9-10.4-8.7c-3.3,2.8-6.8,5.8-10.3,8.8c-3.1,2.6-3.1,7.4,0,10
		C214.7,449.2,218.2,452.2,221.6,455z M278.9,278c-3.3,2.7-6.6,5.5-10,8.3c-3.6,3.1-3.6,7.9,0.1,11c3.3,2.7,6.6,5.5,9.7,8.1
		c3.5-2.9,7-5.7,10.5-8.7c2.9-2.5,2.9-7.7,0-10.1C285.7,283.7,282.2,280.8,278.9,278z M593.4,240.6c-3.5,2.9-7.2,6-10.9,9.1
		c-2.6,2.2-2.6,7.2,0,9.3c3.7,3.1,7.4,6.1,10.9,9c3.4-2.9,6.9-5.7,10.3-8.6c2.9-2.4,2.9-7.7,0-10.2
		C600.3,246.3,596.8,243.4,593.4,240.6z M593.5,203.2c-3.5,2.9-7,5.8-10.6,8.8c-3,2.5-3,7.3,0,9.8c3.6,3,7.1,5.9,10.6,8.8
		c1.6-1.4,3.3-2.8,5-4.3c1.7-1.4,3.5-2.8,5.2-4.3c3-2.5,3-7.8,0-10.4C600.2,208.9,596.8,206,593.5,203.2z M393.3,203.2
		c-3.3,2.8-6.8,5.7-10.3,8.6c-3,2.6-3.1,7.7,0,10.3c3.5,2.9,6.9,5.8,10.3,8.6c3.5-2.9,7-5.8,10.5-8.7c2.8-2.4,2.9-7.5,0.1-9.9
		C400.3,209,396.7,206.1,393.3,203.2z M564.9,390.2c-3.5,2.9-7.1,5.8-10.7,8.9c-2.6,2.2-2.6,7.4-0.1,9.6c3.6,3.1,7.2,6,10.7,9
		c3.6-3,7.1-5.9,10.6-8.9c2.7-2.4,2.6-7.6-0.1-10C571.7,395.8,568.2,392.9,564.9,390.2z M278.8,268.1c3.4-2.8,6.9-5.7,10.4-8.7
		c2.9-2.4,2.9-7.7,0-10.1c-3.5-3-7-5.9-10.4-8.7c-3.4,2.9-6.9,5.8-10.4,8.7c-2.9,2.5-3,7.6-0.1,10.1
		C271.9,262.3,275.4,265.2,278.8,268.1z M250.3,390.1c-1.5,1.3-3.2,2.8-4.9,4.2c-1.7,1.4-3.5,2.8-5.2,4.3c-3.1,2.6-3.2,7.9,0,10.6
		c3.4,2.9,6.8,5.7,10.1,8.5c3.4-2.8,6.8-5.7,10.2-8.6c3.2-2.7,3.1-7.8-0.1-10.5C257,395.8,253.7,393,250.3,390.1z M221.6,268
		c3.5-2.9,7-5.8,10.5-8.7c2.7-2.3,2.6-7.7,0-10c-3.5-3-7.1-6-10.3-8.7c-3.4,2.9-6.9,5.8-10.4,8.7c-3.2,2.7-3.1,7.6,0.1,10.3
		C214.9,262.4,218.2,265.2,221.6,268z M278.8,315.3c-1.5,1.3-3.2,2.9-5,4.4c-1.8,1.5-3.6,3-5.4,4.5c-2.8,2.3-2.9,7.6-0.1,9.9
		c3.5,3,7.1,5.9,10.5,8.7c3.5-2.9,7.1-5.8,10.6-8.7c2.8-2.3,2.7-7.6-0.1-9.9C285.7,321.1,282.2,318.1,278.8,315.3z M393.2,380.2
		c3.5-2.9,7.1-5.8,10.7-8.8c2.7-2.3,2.7-7.5,0.1-9.8c-3.6-3-7.2-6-10.6-8.8c-3.4,2.8-6.9,5.7-10.3,8.6c-3,2.5-3,7.8,0,10.3
		C386.4,374.5,389.8,377.4,393.2,380.2z M278.8,380.2c3.4-2.8,6.9-5.7,10.4-8.6c2.9-2.4,2.9-7.7,0.1-10.1c-3.5-3-7.1-5.9-10.4-8.7
		c-3.4,2.8-6.9,5.8-10.5,8.8c-2.7,2.3-2.8,7.6,0,9.9C271.8,374.4,275.3,377.3,278.8,380.2z M564.7,268c3.3-2.8,6.6-5.5,9.9-8.3
		c3.5-2.9,3.6-7.9,0.2-10.8c-3.3-2.8-6.7-5.6-9.9-8.4c-3.3,2.8-6.8,5.7-10.2,8.6c-3.4,2.9-3.3,7.8,0.2,10.6
		C558.1,262.5,561.4,265.3,564.7,268z M507.5,455c3.2-2.7,6.5-5.4,9.8-8.1c3.7-3.1,3.7-8.2,0.1-11.2c-3.3-2.8-6.7-5.6-9.7-8.1
		c-3.5,2.9-7.1,5.8-10.6,8.8c-2.9,2.4-2.8,7.5,0,9.9C500.6,449.2,504.1,452.1,507.5,455z M250.3,427.5c-3.1,2.6-6.4,5.4-9.7,8.1
		c-3.8,3.2-3.9,8.2,0,11.4c3.2,2.7,6.5,5.4,9.6,8c3.1-2.6,6.4-5.4,9.7-8.1c3.9-3.3,3.9-8.1,0-11.3
		C256.6,432.9,253.4,430.1,250.3,427.5z M479.1,305.5c3.4-2.8,6.7-5.6,10.1-8.4c3-2.6,3-8,0-10.6c-3.4-2.9-6.8-5.7-10-8.5
		c-3.3,2.7-6.8,5.6-10.3,8.5c-3.3,2.7-3.3,7.7-0.1,10.4C472.2,299.8,475.6,302.6,479.1,305.5z M507.6,193.3c3.1-2.6,6.2-5.3,9.4-7.9
		c4.1-3.4,4.1-8.3,0-11.7c-3.2-2.7-6.4-5.3-9.3-7.8c-3.4,2.8-7,5.7-10.4,8.7c-3.1,2.6-3.1,7.6,0.1,10.3
		C500.8,187.7,504.2,190.5,507.6,193.3z M564.8,305.4c1.6-1.4,3.3-2.8,5-4.2c1.7-1.4,3.5-2.8,5.2-4.3c3.2-2.7,3.1-7.8,0-10.5
		c-3.4-2.9-6.8-5.7-10.1-8.5c-1.6,1.4-3.3,2.9-5,4.3c-1.8,1.5-3.6,2.9-5.4,4.4c-3.1,2.6-3.1,7.7,0.1,10.3
		C557.9,299.7,561.3,302.5,564.8,305.4z M536.1,417.8c3.5-2.9,7-5.9,10.6-8.9c2.8-2.4,2.7-7.8-0.1-10.2c-3.5-3-7.1-5.9-10.4-8.7
		c-1.5,1.3-3,2.7-4.5,4c-1.6,1.3-3.2,2.6-4.8,4c-4.1,3.4-4.1,8.3,0,11.8C529.9,412.5,533.1,415.2,536.1,417.8z M221.8,352.7
		c-3.2,2.7-6.5,5.4-9.8,8.2c-4,3.3-4,7.8-0.1,11.1c3.3,2.7,6.5,5.5,9.7,8.1c3.3-2.7,6.5-5.4,9.7-8.1c3.8-3.1,3.8-8.1,0.1-11.2
		C228.2,358.1,224.9,355.4,221.8,352.7z M250.3,380.2c3.4-2.8,6.9-5.7,10.4-8.7c2.9-2.5,2.8-7.7-0.1-10.1c-3.5-2.9-7-5.8-10.3-8.7
		c-3.2,2.7-6.6,5.6-10.1,8.4c-3.2,2.7-3.3,8,0,10.7C243.6,374.7,247,377.4,250.3,380.2z M250.3,240.6c-3.3,2.7-6.7,5.5-10.1,8.4
		c-3.3,2.8-3.2,8,0.1,10.7c3.4,2.8,6.8,5.7,10,8.4c1.6-1.4,3.2-2.8,4.8-4.1c1.7-1.4,3.4-2.9,5.1-4.3c3.4-2.8,3.4-7.9,0.1-10.6
		C257,246.2,253.6,243.4,250.3,240.6z M221.8,203.2c-3.4,2.9-6.9,5.8-10.4,8.7c-3.1,2.6-3.1,7.5,0,10.1c3.5,2.9,7,5.8,10.3,8.6
		c3.4-2.8,6.8-5.6,10.1-8.4c3.2-2.6,3.2-7.9,0.1-10.5C228.5,208.8,225.1,206,221.8,203.2z M593.5,352.8c-3.4,2.8-7,5.8-10.6,8.8
		c-3,2.5-3,7.4-0.1,9.8c3.6,3,7.2,5.9,10.7,8.9c1.5-1.3,3.1-2.7,4.7-4.1c1.7-1.5,3.5-2.9,5.2-4.3c3.3-2.8,3.4-7.9,0.1-10.7
		C600.1,358.3,596.8,355.5,593.5,352.8z M507.7,315.4c-3.4,2.8-7,5.8-10.5,8.8c-2.9,2.4-2.9,7.5,0,9.9c3.6,3,7.1,5.9,10.5,8.7
		c3.4-2.9,6.9-5.8,10.3-8.6c2.8-2.4,2.8-7.8,0-10.1C514.5,321.2,511.1,318.3,507.7,315.4z M507.6,380.2c3.5-2.9,7-5.8,10.4-8.7
		c2.8-2.4,2.8-7.8,0-10.1c-3.5-2.9-6.9-5.8-10.2-8.6c-3.5,2.9-7.1,5.8-10.6,8.8c-2.9,2.4-2.9,7.5,0,9.9
		C500.6,374.4,504.1,377.3,507.6,380.2z M536.2,203.2c-3.1,2.6-6.4,5.4-9.7,8.2c-3.8,3.2-3.7,8.2,0.1,11.4c3.2,2.7,6.4,5.4,9.5,7.9
		c3.4-2.8,7-5.8,10.6-8.8c2.7-2.3,2.7-7.6,0-10C543.2,208.9,539.6,206,536.2,203.2z M250.3,203.2c-3.2,2.7-6.6,5.5-9.9,8.3
		c-3.4,2.9-3.5,8.1,0,10.9c3.4,2.8,6.7,5.6,9.9,8.3c3.3-2.8,6.9-5.7,10.4-8.6c2.9-2.5,2.9-7.7,0-10.1
		C257.2,208.9,253.7,206,250.3,203.2z M564.9,203.2c-3.5,2.9-7.1,5.9-10.7,9c-2.6,2.2-2.6,7.4-0.1,9.6c3.6,3.1,7.2,6,10.7,8.9
		c3.4-2.9,6.8-5.7,10.2-8.5c3.2-2.7,3.2-7.8,0-10.5C571.6,208.8,568.2,206,564.9,203.2z M479,455c3.4-2.9,7-5.8,10.6-8.8
		c2.6-2.2,2.5-7.8-0.1-10c-3.5-3-7.1-5.9-10.4-8.6c-3.4,2.8-6.9,5.7-10.3,8.6c-3.1,2.6-3.1,7.5-0.1,10
		C472.1,449.2,475.6,452.1,479,455z M278.9,390.2c-3.4,2.8-7,5.8-10.5,8.8c-2.8,2.3-2.8,7.6,0,9.9c3.5,2.9,7,5.8,10.4,8.7
		c3.4-2.8,6.8-5.6,10.2-8.5c3.2-2.7,3.2-7.8,0-10.5C285.6,395.8,282.2,392.9,278.9,390.2z M221.6,193.3c3.4-2.8,7-5.8,10.5-8.8
		c2.8-2.3,2.8-7.6,0-9.9c-3.5-3-7.1-6-10.4-8.7c-3.2,2.6-6.5,5.4-9.8,8.2c-4,3.4-4,7.8,0,11.1C215.2,187.9,218.5,190.7,221.6,193.3z
		 M507.6,268c3.5-2.9,6.9-5.7,10.3-8.6c2.8-2.4,2.8-7.8,0-10.1c-3.5-2.9-6.9-5.8-10.3-8.7c-3.4,2.8-6.9,5.7-10.4,8.6
		c-3.2,2.6-3.2,7.6,0,10.2C500.8,262.4,504.2,265.2,507.6,268z M307.4,455c3.5-2.9,6.9-5.7,10.3-8.6c2.9-2.5,2.8-7.9-0.1-10.3
		c-3.5-2.9-6.9-5.8-10.2-8.5c-3.2,2.7-6.7,5.5-10.1,8.4c-3.2,2.7-3.3,8,0,10.8C300.7,449.5,304.1,452.2,307.4,455z M221.7,342.8
		c3.4-2.8,6.8-5.6,10.1-8.4c3.3-2.7,3.2-7.9-0.1-10.7c-3.4-2.9-6.8-5.7-9.9-8.4c-3.4,2.8-6.8,5.7-10.3,8.7
		c-3.2,2.7-3.2,7.6-0.1,10.3C214.8,337.1,218.3,340,221.7,342.8z M507.6,305.4c3.5-2.9,7-5.8,10.4-8.7c2.7-2.3,2.6-7.7,0-9.9
		c-3.5-3-7-5.9-10.3-8.8c-3.4,2.8-6.9,5.7-10.4,8.7c-3.2,2.6-3.1,7.6,0,10.2C500.7,299.7,504.2,302.6,507.6,305.4z M593.4,305.4
		c3.3-2.8,6.8-5.6,10.2-8.5c3-2.6,3.1-7.8,0.1-10.3c-3.5-2.9-6.9-5.8-10.2-8.5c-3.4,2.8-6.9,5.7-10.4,8.6c-3.3,2.7-3.3,7.5,0,10.2
		C586.6,299.7,590.1,302.6,593.4,305.4z M507.6,417.6c3.5-2.9,6.9-5.8,10.4-8.6c2.8-2.4,2.8-7.8,0-10.1c-3.5-2.9-6.9-5.8-10.3-8.7
		c-3.3,2.8-6.9,5.7-10.4,8.7c-3,2.5-3.1,7.6-0.1,10.1C500.7,411.8,504.2,414.7,507.6,417.6z M593.4,342.8c3.3-2.8,6.6-5.5,9.9-8.3
		c3.5-2.9,3.5-8,0.1-10.9c-3.4-2.8-6.7-5.6-9.9-8.3c-3.2,2.7-6.7,5.6-10.2,8.5c-3.5,2.9-3.4,7.6,0.2,10.5
		C586.7,337.2,590.1,340,593.4,342.8z M479.1,417.6c3.3-2.7,6.6-5.5,9.8-8.3c3.5-2.9,3.3-8.2-0.2-11.1c-3.3-2.7-6.5-5.5-9.6-8.1
		c-3.4,2.8-6.9,5.7-10.4,8.6c-3.2,2.6-3.2,7.6,0,10.3C472.1,411.9,475.6,414.7,479.1,417.6z M278.8,230.6c3.4-2.8,7-5.7,10.4-8.6
		c2.9-2.5,2.9-7.7,0-10.1c-3.5-3-7-5.9-10.4-8.7c-3.4,2.8-6.8,5.8-10.3,8.7c-3,2.6-3,7.7,0,10.3C272,225,275.4,227.8,278.8,230.6z
		 M479.1,268.1c1.6-1.4,3.2-2.8,4.9-4.1c1.7-1.4,3.5-2.8,5.2-4.3c3-2.6,3-8.1,0-10.6c-3.4-2.9-6.8-5.7-10.1-8.5
		c-1.5,1.3-3.2,2.8-4.9,4.2c-1.7,1.4-3.5,2.8-5.2,4.3c-3.6,3-3.5,7.8,0.1,10.8C472.4,262.6,475.7,265.3,479.1,268.1z M221.7,278
		c-3.2,2.7-6.5,5.4-9.8,8.2c-4,3.4-4,7.8,0,11.1c3.3,2.7,6.5,5.5,9.7,8.1c1.7-1.4,3.4-2.9,5.1-4.3c1.7-1.4,3.5-2.8,5.2-4.3
		c3-2.5,2.9-7.9,0-10.4C228.5,283.7,225.1,280.8,221.7,278z M221.7,390.1c-3.4,2.8-6.9,5.7-10.3,8.7c-3.2,2.7-3.1,7.6,0.1,10.3
		c3.4,2.9,6.8,5.7,10.2,8.5c1.7-1.4,3.4-2.9,5.1-4.3c1.7-1.4,3.5-2.8,5.2-4.3c3-2.5,2.9-7.9-0.1-10.4
		C228.5,395.8,225.1,393,221.7,390.1z M564.8,380.1c3.5-2.9,7-5.8,10.5-8.8c2.7-2.3,2.7-7.6-0.1-10c-3.5-3-6.9-5.9-10.3-8.7
		c-3.4,2.8-7,5.7-10.5,8.7c-3,2.5-3,7.6-0.1,10.1C557.8,374.4,561.3,377.3,564.8,380.1z M193.2,427.5c-3.5,2.9-7.1,5.8-10.6,8.7
		c-2.8,2.4-2.9,7.6-0.1,9.9c3.5,3,7.1,5.9,10.5,8.7c3.5-2.9,7-5.8,10.5-8.7c2.7-2.3,2.8-7.7,0.1-9.9
		C200.1,433.3,196.6,430.4,193.2,427.5z M421.8,380.2c3.3-2.8,6.8-5.7,10.3-8.6c2.9-2.4,2.9-8,0-10.4c-3.5-2.9-7-5.8-10.2-8.6
		c-3.2,2.7-6.6,5.6-10,8.5c-3.3,2.8-3.4,7.9,0,10.7C415.1,374.7,418.5,377.5,421.8,380.2z M479,193.3c3.5-2.9,7.1-5.8,10.5-8.8
		c2.6-2.2,2.6-7.8,0-10c-3.5-3-7.1-5.9-10.4-8.7c-3.5,3-7,5.9-10.5,8.8c-3,2.5-3,7.4,0,9.9C472,187.5,475.5,190.4,479,193.3z
		 M507.6,230.6c3.6-3,7.2-6,10.7-9c2.4-2,2.2-7.6-0.1-9.6c-3.5-3-7.1-6-10.5-8.9c-3.1,2.6-6.4,5.4-9.7,8.1
		c-4.1,3.4-4.1,7.9-0.1,11.3C501.1,225.2,504.4,227.9,507.6,230.6z M564.8,315.3c-1.5,1.3-3.2,2.8-4.9,4.2c-1.8,1.5-3.6,3-5.4,4.4
		c-3.1,2.6-3.1,7.7,0,10.3c3.4,2.9,6.9,5.7,10.3,8.5c3.3-2.8,6.7-5.6,10.1-8.5c3.2-2.7,3.2-7.8,0-10.5
		C571.6,321,568.2,318.2,564.8,315.3z M364.7,380.3c1.6-1.4,3.2-2.9,4.9-4.3c1.8-1.5,3.6-2.9,5.4-4.5c2.7-2.4,2.6-7.9-0.1-10.2
		c-3.4-2.9-6.9-5.8-10.1-8.6c-3.3,2.8-6.8,5.7-10.3,8.6c-3,2.5-3,7.8,0,10.3C357.8,374.5,361.3,377.4,364.7,380.3z M536.1,268.1
		c3.3-2.7,6.7-5.6,10.1-8.4c3.3-2.8,3.3-7.9,0.1-10.6c-3.4-2.9-6.8-5.7-10.1-8.5c-3.3,2.8-6.7,5.6-10.1,8.5c-3.2,2.8-3.1,8,0.1,10.8
		C529.6,262.6,532.9,265.5,536.1,268.1z M421.8,268.1c3.1-2.6,6.4-5.4,9.6-8.1c3.8-3.2,3.8-8.2,0-11.4c-3.3-2.8-6.6-5.5-9.6-8
		c-3.2,2.7-6.6,5.5-9.9,8.4c-3.4,2.9-3.5,8,0,10.9C415.2,262.7,418.6,265.4,421.8,268.1z M422,193.5c0.3-0.3,0.5-0.8,0.9-1.2
		c2.9-2.4,5.8-4.8,8.7-7.2c3.4-2.8,3.4-8.3,0.1-11.1c-3.3-2.8-6.7-5.6-9.8-8.2c-3.2,2.7-6.7,5.6-10.1,8.5c-3.3,2.8-3.2,7.9,0.1,10.7
		C415.1,187.8,418.5,190.6,422,193.5z M536.2,352.7c-3.4,2.8-6.8,5.7-10.2,8.6c-2.9,2.5-2.9,7.9,0,10.4c3.4,2.9,6.9,5.8,10.2,8.6
		c1.7-1.4,3.3-2.9,5.1-4.3c1.7-1.4,3.5-2.8,5.2-4.3c3.2-2.7,3.1-7.9,0-10.5C542.9,358.3,539.5,355.5,536.2,352.7z M421.9,390.1
		c-3.3,2.8-6.8,5.7-10.3,8.6c-3,2.6-3,7.8,0,10.4c3.4,2.9,6.8,5.7,10.1,8.5c3.1-2.6,6.4-5.2,9.6-7.9c3.9-3.3,3.9-8.4,0-11.6
		C428.1,395.4,424.9,392.7,421.9,390.1z M421.7,342.9c3.4-2.8,6.9-5.7,10.3-8.6c2.9-2.4,2.8-7.9,0-10.4c-3.5-2.9-6.9-5.8-10-8.4
		c-1.4,1.1-3.1,2.5-4.7,3.8c-1.7,1.4-3.3,2.7-5,4.1c-3.9,3.3-4,8.1-0.1,11.4C415.3,337.5,418.5,340.2,421.7,342.9z M278.8,165.7
		c-1.5,1.3-3.2,2.9-4.9,4.4c-1.8,1.5-3.6,2.9-5.4,4.5c-2.9,2.5-2.8,7.7,0.1,10.1c3.5,2.9,7,5.8,10.2,8.6c3.3-2.8,6.7-5.6,10.1-8.4
		c3.2-2.7,3.3-8,0.1-10.7C285.5,171.4,282.1,168.5,278.8,165.7z M364.7,268.1c3.3-2.8,6.8-5.7,10.3-8.7c2.8-2.4,2.7-7.8,0-10.2
		c-3.4-2.9-6.9-5.9-10.2-8.7c-3.4,2.8-6.9,5.8-10.5,8.8c-2.9,2.5-2.8,7.7,0.1,10.1C357.8,262.4,361.3,265.3,364.7,268.1z M193,380.2
		c3.5-2.9,6.9-5.8,10.3-8.6c3.2-2.7,3.2-7.7-0.1-10.4c-3.4-2.8-6.8-5.7-10.2-8.5c-1.6,1.4-3.2,2.8-4.9,4.3c-1.7,1.4-3.5,2.8-5.2,4.3
		c-3.2,2.7-3.2,7.9,0,10.5C186.3,374.6,189.7,377.4,193,380.2z M193.1,240.6c-3.3,2.7-6.5,5.5-9.8,8.3c-3.7,3.1-3.6,8.1,0.2,11.2
		c3.2,2.7,6.4,5.4,9.6,8c3.4-2.8,6.9-5.8,10.4-8.7c3-2.5,3.1-7.6,0.1-10.1C200.1,246.4,196.6,243.5,193.1,240.6z M421.7,305.4
		c3.3-2.7,6.7-5.6,10.1-8.4c3.2-2.7,3.1-8.1-0.1-10.7c-3.4-2.9-6.8-5.7-10-8.4c-3.3,2.8-6.8,5.7-10.3,8.7c-3,2.6-2.9,7.8,0.1,10.4
		C415.1,299.9,418.5,302.7,421.7,305.4z M536.1,305.5c3.5-2.9,7-5.8,10.5-8.7c2.9-2.4,2.8-7.8-0.1-10.2c-3.5-3-7.1-5.9-10.4-8.7
		c-1.6,1.4-3.1,2.8-4.8,4.2c-1.7,1.5-3.5,2.8-5.2,4.3c-3.3,2.8-3.2,8,0.1,10.8C529.6,299.9,532.8,302.7,536.1,305.5z M193,417.6
		c3.6-3,7.3-6,10.9-9c2.4-2.1,2.5-7.3,0.1-9.4c-3.6-3.1-7.4-6.1-10.8-9c-3.2,2.7-6.5,5.4-9.7,8.1c-3.8,3.1-3.9,8.1-0.1,11.2
		C186.5,412.2,189.7,414.8,193,417.6z M536.1,342.9c3.5-2.9,7-5.8,10.5-8.7c2.9-2.4,2.8-7.7,0-10.1c-3.5-3-7.1-5.9-10.4-8.7
		c-3.3,2.8-6.6,5.6-10,8.4c-3.3,2.7-3.3,8-0.1,10.8C529.5,337.3,532.9,340.1,536.1,342.9z M364.7,230.7c3.3-2.7,6.6-5.5,9.8-8.2
		c3.4-2.8,3.4-8.1,0.1-10.9c-3.4-2.8-6.7-5.7-10-8.4c-1.5,1.3-3,2.7-4.7,4.1c-1.7,1.4-3.5,2.8-5.2,4.3c-3.6,3-3.5,8,0.1,11
		C358.1,225.3,361.4,228,364.7,230.7z M450.6,315.4c-3.4,2.8-7,5.7-10.6,8.7c-2.9,2.4-3,7.5-0.1,9.9c3.5,3,7.1,5.9,10.6,8.8
		c1.7-1.4,3.3-2.8,4.9-4.2c1.7-1.4,3.5-2.8,5.2-4.3c3.1-2.6,3-8,0-10.6C457.2,321,453.9,318.2,450.6,315.4z M307.4,193.4
		c1.6-1.3,3.1-2.8,4.8-4.1c1.6-1.4,3.3-2.7,5-4.1c3.5-2.9,3.6-8.2,0.1-11.1c-3.3-2.8-6.7-5.6-9.9-8.3c-1.5,1.3-3.2,2.8-4.9,4.2
		c-1.8,1.5-3.6,2.9-5.4,4.5c-3,2.6-2.9,7.9,0.1,10.4C300.6,187.7,304.1,190.6,307.4,193.4z M278.8,455c3.3-2.8,6.6-5.5,9.9-8.2
		c3.5-3,3.5-8.2,0-11c-3.4-2.8-6.7-5.6-9.8-8.2c-3.3,2.8-6.9,5.8-10.4,8.8c-2.7,2.4-2.7,7.6,0,10C271.8,449.2,275.3,452.1,278.8,455
		z M193.1,203.2c-3.5,2.9-7,5.7-10.3,8.6c-3,2.6-2.9,7.8,0.1,10.4c3.4,2.9,6.8,5.7,10.1,8.4c3.5-2.9,7.1-5.9,10.7-8.8
		c2.7-2.2,2.7-7.5,0-9.7C200.2,209.1,196.6,206.1,193.1,203.2z M364.7,417.6c3.3-2.7,6.5-5.4,9.7-8.1c3.7-3.1,3.6-8.2-0.1-11.3
		c-3.3-2.7-6.5-5.5-9.6-8.1c-1.5,1.3-3.1,2.7-4.7,4.1c-1.6,1.4-3.3,2.7-5,4.1c-3.8,3.1-3.9,8.1-0.2,11.2
		C358.1,412.2,361.4,414.9,364.7,417.6z M421.8,230.7c1.4-1.2,3-2.7,4.6-4c1.7-1.4,3.5-2.9,5.2-4.3c3.3-2.7,3.4-8.2,0.1-10.9
		c-3.4-2.9-6.8-5.7-10-8.4c-3.2,2.7-6.5,5.5-9.9,8.3c-3.6,3.1-3.5,8.1,0.1,11.1C415.3,225.3,418.6,228.1,421.8,230.7z M450.5,203.2
		c-3.4,2.9-7.2,5.9-10.8,9c-2.4,2-2.5,7.3-0.3,9.2c3.6,3.1,7.4,6.2,11,9.1c3.5-2.9,6.9-5.7,10.2-8.5c2.9-2.5,2.9-8,0-10.4
		C457.2,208.8,453.8,206,450.5,203.2z M364.7,165.8c-3,2.5-6.2,5.1-9.4,7.8c-4.3,3.6-4.3,8.4,0,11.9c3.2,2.6,6.3,5.3,9.3,7.8
		c1.5-1.3,3.2-2.8,4.9-4.2c1.7-1.5,3.5-2.8,5.2-4.3c3.1-2.6,3.1-8,0.1-10.6C371.4,171.4,367.9,168.6,364.7,165.8z M364.7,427.5
		c-3.3,2.8-6.7,5.6-10.2,8.5c-3.2,2.6-3.2,7.9-0.1,10.5c3.4,2.9,6.8,5.7,10.1,8.5c3.2-2.7,6.6-5.5,9.9-8.3c3.5-3,3.4-8.2-0.1-11.1
		C371.1,432.9,367.8,430.1,364.7,427.5z M364.7,315.3c-3.4,2.8-6.9,5.8-10.5,8.8c-2.7,2.3-2.8,7.6-0.1,10c3.5,3,7.1,5.9,10.5,8.8
		c3.1-2.6,6.3-5.3,9.5-8c3.8-3.2,3.8-8.2,0.1-11.4C371,320.7,367.9,318,364.7,315.3z M450.5,277.9c-1.6,1.3-3.2,2.7-4.8,4.1
		c-1.7,1.4-3.5,2.9-5.2,4.3c-3.7,3.1-3.7,7.8,0.1,10.9c3.3,2.7,6.6,5.5,9.8,8.1c3.4-2.9,6.9-5.7,10.3-8.6c2.8-2.4,2.8-7.8,0-10.2
		C457.3,283.7,453.9,280.8,450.5,277.9z M364.7,305.5c1.6-1.4,3.2-2.9,4.9-4.3c1.7-1.4,3.5-2.8,5.2-4.3c2.9-2.5,2.9-7.9,0-10.4
		c-3.4-2.9-6.9-5.8-10.1-8.5c-3.3,2.8-6.8,5.6-10.3,8.6c-3,2.5-3,7.8,0,10.3C357.8,299.8,361.3,302.7,364.7,305.5z M421.8,427.4
		c-1.5,1.3-3.1,2.8-4.8,4.2c-1.8,1.5-3.6,2.9-5.4,4.4c-3.1,2.6-3.2,7.7-0.1,10.3c3.5,3,7,5.8,10.3,8.7c1.5-1.3,3.1-2.7,4.7-4.1
		c1.7-1.4,3.5-2.8,5.2-4.3c3.2-2.8,3.2-8.2,0-10.9C428.3,432.9,425,430.1,421.8,427.4z M193.1,315.4c-3.3,2.8-6.9,5.7-10.4,8.7
		c-2.9,2.4-2.9,7.7,0,10.2c3.4,2.9,6.9,5.8,10.3,8.6c3.5-2.9,7-5.9,10.5-8.8c3-2.5,2.9-7.6-0.1-10.1
		C200,321.1,196.6,318.3,193.1,315.4z M336,455c3.5-2.9,7-5.8,10.6-8.8c2.6-2.2,2.7-7.5,0.1-9.7c-3.6-3-7.2-6.1-10.6-8.9
		c-3.4,2.8-6.8,5.7-10.2,8.6c-3,2.5-3.1,7.8-0.1,10.4C329.1,449.3,332.6,452.1,336,455z M336.1,315.4c-3.4,2.8-6.8,5.7-10.3,8.5
		c-2.5,2.1-3,7.7-0.8,9.7c3.6,3.2,7.3,6.2,10.9,9.2c3.5-2.9,6.9-5.7,10.3-8.5c3-2.5,3-7.8,0-10.3
		C342.9,321.1,339.5,318.2,336.1,315.4z M193,305.4c3.4-2.9,7-5.8,10.6-8.8c2.9-2.4,2.9-7.5,0.1-9.9c-3.5-3-7.1-5.9-10.5-8.8
		c-3.3,2.8-6.7,5.6-10,8.4c-3.4,2.9-3.4,8,0.1,10.9C186.5,300,189.8,302.7,193,305.4z M450.4,380.1c3.4-2.8,6.9-5.6,10.2-8.5
		c2.9-2.5,2.9-7.9-0.1-10.4c-3.4-2.9-6.8-5.7-10.1-8.4c-3.4,2.8-7.1,5.8-10.7,8.9c-2.7,2.3-2.7,7.5,0.1,9.7
		C443.4,374.3,446.9,377.2,450.4,380.1z M336,230.6c3.5-2.9,7.2-5.9,10.7-8.9c2.6-2.2,2.5-7.6-0.1-9.8c-3.5-3-7.1-5.9-10.4-8.7
		c-3.3,2.8-6.7,5.5-10.1,8.4c-3.2,2.7-3.2,8.1,0,10.8C329.3,225.1,332.6,227.8,336,230.6z M336.1,352.7c-3.4,2.9-7,5.8-10.5,8.8
		c-2.5,2.2-2.5,7.7,0,9.9c3.5,2.9,7,5.8,10.4,8.7c3.6-3,7.1-5.8,10.6-8.8c2.7-2.3,2.6-7.7-0.2-10
		C342.9,358.5,339.5,355.5,336.1,352.7z M335.9,193.3c3.4-2.8,7-5.8,10.6-8.8c2.3-1.9,2.8-7.4,0.8-9.2c-3.7-3.3-7.6-6.4-11.2-9.4
		c-3.1,2.6-6.2,5.2-9.3,7.7c-4.4,3.6-4.4,8.3,0,11.9C329.8,188.1,332.9,190.7,335.9,193.3z M450.4,268c3.4-2.8,6.8-5.6,10.2-8.4
		c3-2.6,3-8-0.1-10.5c-3.4-2.9-6.8-5.7-10-8.4c-3.5,2.9-7.1,5.9-10.7,8.9c-2.9,2.4-2.8,7.5,0.1,9.9
		C443.4,262.2,446.9,265.1,450.4,268z M336.1,278c-3.4,2.8-6.9,5.7-10.3,8.6c-2.6,2.1-2.9,7.8-0.5,9.9c3.5,3.1,7.2,6,10.8,9
		c1.7-1.5,3.4-2.9,5-4.2c1.7-1.4,3.3-2.8,5-4.1c3.4-2.8,3.4-7.8,0.1-10.6C342.8,283.6,339.4,280.8,336.1,278z M336,417.5
		c3.6-2.9,7.2-5.9,10.7-8.9c2.6-2.2,2.4-7.6-0.2-9.8c-3.5-3-7.1-5.9-10.4-8.7c-3.4,2.8-6.9,5.7-10.3,8.5c-2.8,2.3-2.9,7.9-0.1,10.2
		C329.1,411.9,332.6,414.7,336,417.5z M450.6,390.2c-3.5,2.9-7.1,5.8-10.7,8.8c-2.7,2.3-2.8,7.5-0.1,9.8c3.6,3,7.2,5.9,10.6,8.8
		c3.4-2.8,6.8-5.6,10.2-8.4c3.1-2.6,3-8,0-10.6C457.2,395.7,453.8,392.9,450.6,390.2z M336,268c3.6-2.9,7.1-5.8,10.6-8.8
		c2.7-2.3,2.6-7.7-0.2-9.9c-3.5-2.9-6.9-5.8-10.3-8.7c-3.3,2.8-6.8,5.6-10.2,8.5c-3.1,2.6-3.1,8,0,10.6
		C329.3,262.5,332.6,265.2,336,268z"/>
</g>
<radialGradient id="SVGID_1_" cx="982.6426" cy="2556.2192" r="609.4244" gradientTransform="matrix(1 0 0 1.2 0 -511.2438)" gradientUnits="userSpaceOnUse">
	<stop  offset="0" style="stop-color:#998675"/>
	<stop  offset="5.067348e-03" style="stop-color:#998675"/>
	<stop  offset="0.6715" style="stop-color:#66594F"/>
	<stop  offset="1" style="stop-color:#534741"/>
</radialGradient>
<path class="st2" d="M1565,2508.6l-484.3-528.4c-38.4-41.9-103.5-44.7-145.4-6.3l-528.8,484.6c-41.9,38.4-44.7,103.5-6.3,145.4
	l79,86.2l-30.7,28.1c-28.5,26.1-30.4,70.3-4.3,98.8l201.8,218.4c26.1,28.5,70.3,30.4,98.8,4.3l30.7-28.1l108.9,120.7
	c38.4,41.9,103.5,44.7,145.4,6.3l528.8-484.6C1600.6,2615.6,1603.4,2550.5,1565,2508.6z"/>
<rect x="2904.1" y="295.1" class="st3" width="1640" height="859"/>
<polygon class="st4" points="1420.1,236.6 237.6,236.6 237.6,1180.1 770.9,1180.1 770.9,1356.6 1183.5,1356.6 1183.5,1180.1 
	1420.1,1180.1 "/>
<rect x="0.1" y="0.1" class="st5" width="4800" height="3480"/>
<path class="st6" d="M296.1,1062.3h0.3v-0.3h58.8v0.3h0.5v-0.3h58.8v0.3h0.5v-0.3h58.8v0.3h0.5v-0.3H533v0.3h0.5v-0.3h58.8v0.3h0.5
	v-0.3h58.8v0.3h0.5v-0.3h58.8v0.3h0.5v-0.3h58.8v0.3h0.5v-0.3h58.8v58.4h-58.6v0.5h58.6v58.4h-58.6v0.5h58.6v58.4h-58.6v0.5h414.4
	v-176.5h0.3v-0.3h58.8v0.3h0.5v-0.3h58.8v0.3h0.5v-0.3h58.8v0.3h0.5v-0.3h58.8v0.3h0.1v-767h-1126V1062.3z M1363.2,295.8h58.8v58.4
	h-58.8V295.8z M1363.2,354.8h58.8v58.4h-58.8V354.8z M1363.2,413.7h58.8v58.4h-58.8V413.7z M1363.2,472.6h58.8v58.4h-58.8V472.6z
	 M1363.2,531.6h58.8V590h-58.8V531.6z M1363.2,590.5h58.8V649h-58.8V590.5z M1363.2,649.5h58.8v58.4h-58.8V649.5z M1363.2,708.4
	h58.8v58.4h-58.8V708.4z M1363.2,767.4h58.8v58.4h-58.8V767.4z M1363.2,826.3h58.8v58.4h-58.8V826.3z M1363.2,885.2h58.8v58.4h-58.8
	V885.2z M1363.2,944.2h58.8v58.4h-58.8V944.2z M1363.2,1003.1h58.8v58.4h-58.8V1003.1z M1304,295.8h58.8v58.4H1304V295.8z
	 M1304,354.8h58.8v58.4H1304V354.8z M1304,413.7h58.8v58.4H1304V413.7z M1304,472.6h58.8v58.4H1304V472.6z M1304,531.6h58.8V590
	H1304V531.6z M1304,590.5h58.8V649H1304V590.5z M1304,649.5h58.8v58.4H1304V649.5z M1304,708.4h58.8v58.4H1304V708.4z M1304,767.4
	h58.8v58.4H1304V767.4z M1304,826.3h58.8v58.4H1304V826.3z M1304,885.2h58.8v58.4H1304V885.2z M1304,944.2h58.8v58.4H1304V944.2z
	 M1304,1003.1h58.8v58.4H1304V1003.1z M1244.7,295.8h58.8v58.4h-58.8V295.8z M1244.7,354.8h58.8v58.4h-58.8V354.8z M1244.7,413.7
	h58.8v58.4h-58.8V413.7z M1244.7,472.6h58.8v58.4h-58.8V472.6z M1244.7,531.6h58.8V590h-58.8V531.6z M1244.7,590.5h58.8V649h-58.8
	V590.5z M1244.7,649.5h58.8v58.4h-58.8V649.5z M1244.7,708.4h58.8v58.4h-58.8V708.4z M1244.7,767.4h58.8v58.4h-58.8V767.4z
	 M1244.7,826.3h58.8v58.4h-58.8V826.3z M1244.7,885.2h58.8v58.4h-58.8V885.2z M1244.7,944.2h58.8v58.4h-58.8V944.2z M1244.7,1003.1
	h58.8v58.4h-58.8V1003.1z M1185.4,295.8h58.8v58.4h-58.8V295.8z M1185.4,354.8h58.8v58.4h-58.8V354.8z M1185.4,413.7h58.8v58.4
	h-58.8V413.7z M1185.4,472.6h58.8v58.4h-58.8V472.6z M1185.4,531.6h58.8V590h-58.8V531.6z M1185.4,590.5h58.8V649h-58.8V590.5z
	 M1185.4,649.5h58.8v58.4h-58.8V649.5z M1185.4,708.4h58.8v58.4h-58.8V708.4z M1185.4,767.4h58.8v58.4h-58.8V767.4z M1185.4,826.3
	h58.8v58.4h-58.8V826.3z M1185.4,885.2h58.8v58.4h-58.8V885.2z M1185.4,944.2h58.8v58.4h-58.8V944.2z M1185.4,1003.1h58.8v58.4
	h-58.8V1003.1z M1126.2,295.8h58.8v58.4h-58.8V295.8z M1126.2,354.8h58.8v58.4h-58.8V354.8z M1126.2,413.7h58.8v58.4h-58.8V413.7z
	 M1126.2,472.6h58.8v58.4h-58.8V472.6z M1126.2,531.6h58.8V590h-58.8V531.6z M1126.2,590.5h58.8V649h-58.8V590.5z M1126.2,649.5
	h58.8v58.4h-58.8V649.5z M1126.2,708.4h58.8v58.4h-58.8V708.4z M1126.2,767.4h58.8v58.4h-58.8V767.4z M1126.2,826.3h58.8v58.4h-58.8
	V826.3z M1126.2,885.2h58.8v58.4h-58.8V885.2z M1126.2,944.2h58.8v58.4h-58.8V944.2z M1126.2,1003.1h58.8v58.4h-58.8V1003.1z
	 M1126.2,1062.1h58.8v58.4h-58.8V1062.1z M1126.2,1121h58.8v58.4h-58.8V1121z M1126.2,1180h58.8v58.4h-58.8V1180z M1066.9,295.8
	h58.8v58.4h-58.8V295.8z M1066.9,354.8h58.8v58.4h-58.8V354.8z M1066.9,413.7h58.8v58.4h-58.8V413.7z M1066.9,472.6h58.8v58.4h-58.8
	V472.6z M1066.9,531.6h58.8V590h-58.8V531.6z M1066.9,590.5h58.8V649h-58.8V590.5z M1066.9,649.5h58.8v58.4h-58.8V649.5z
	 M1066.9,708.4h58.8v58.4h-58.8V708.4z M1066.9,767.4h58.8v58.4h-58.8V767.4z M1066.9,826.3h58.8v58.4h-58.8V826.3z M1066.9,885.2
	h58.8v58.4h-58.8V885.2z M1066.9,944.2h58.8v58.4h-58.8V944.2z M1066.9,1003.1h58.8v58.4h-58.8V1003.1z M1066.9,1062.1h58.8v58.4
	h-58.8V1062.1z M1066.9,1121h58.8v58.4h-58.8V1121z M1066.9,1180h58.8v58.4h-58.8V1180z M1007.6,295.8h58.8v58.4h-58.8V295.8z
	 M1007.6,354.8h58.8v58.4h-58.8V354.8z M1007.6,413.7h58.8v58.4h-58.8V413.7z M1007.6,472.6h58.8v58.4h-58.8V472.6z M1007.6,531.6
	h58.8V590h-58.8V531.6z M1007.6,590.5h58.8V649h-58.8V590.5z M1007.6,649.5h58.8v58.4h-58.8V649.5z M1007.6,708.4h58.8v58.4h-58.8
	V708.4z M1007.6,767.4h58.8v58.4h-58.8V767.4z M1007.6,826.3h58.8v58.4h-58.8V826.3z M1007.6,885.2h58.8v58.4h-58.8V885.2z
	 M1007.6,944.2h58.8v58.4h-58.8V944.2z M1007.6,1003.1h58.8v58.4h-58.8V1003.1z M1007.6,1062.1h58.8v58.4h-58.8V1062.1z
	 M1007.6,1121h58.8v58.4h-58.8V1121z M1007.6,1180h58.8v58.4h-58.8V1180z M948.4,295.8h58.8v58.4h-58.8V295.8z M948.4,354.8h58.8
	v58.4h-58.8V354.8z M948.4,413.7h58.8v58.4h-58.8V413.7z M948.4,472.6h58.8v58.4h-58.8V472.6z M948.4,531.6h58.8V590h-58.8V531.6z
	 M948.4,590.5h58.8V649h-58.8V590.5z M948.4,649.5h58.8v58.4h-58.8V649.5z M948.4,708.4h58.8v58.4h-58.8V708.4z M948.4,767.4h58.8
	v58.4h-58.8V767.4z M948.4,826.3h58.8v58.4h-58.8V826.3z M948.4,885.2h58.8v58.4h-58.8V885.2z M948.4,944.2h58.8v58.4h-58.8V944.2z
	 M948.4,1003.1h58.8v58.4h-58.8V1003.1z M948.4,1062.1h58.8v58.4h-58.8V1062.1z M948.4,1121h58.8v58.4h-58.8V1121z M948.4,1180h58.8
	v58.4h-58.8V1180z M889.1,295.8h58.8v58.4h-58.8V295.8z M889.1,354.8h58.8v58.4h-58.8V354.8z M889.1,413.7h58.8v58.4h-58.8V413.7z
	 M889.1,472.6h58.8v58.4h-58.8V472.6z M889.1,531.6h58.8V590h-58.8V531.6z M889.1,590.5h58.8V649h-58.8V590.5z M889.1,649.5h58.8
	v58.4h-58.8V649.5z M889.1,708.4h58.8v58.4h-58.8V708.4z M889.1,767.4h58.8v58.4h-58.8V767.4z M889.1,826.3h58.8v58.4h-58.8V826.3z
	 M889.1,885.2h58.8v58.4h-58.8V885.2z M889.1,944.2h58.8v58.4h-58.8V944.2z M889.1,1003.1h58.8v58.4h-58.8V1003.1z M889.1,1062.1
	h58.8v58.4h-58.8V1062.1z M889.1,1121h58.8v58.4h-58.8V1121z M889.1,1180h58.8v58.4h-58.8V1180z M829.8,295.8h58.8v58.4h-58.8V295.8
	z M829.8,354.8h58.8v58.4h-58.8V354.8z M829.8,413.7h58.8v58.4h-58.8V413.7z M829.8,472.6h58.8v58.4h-58.8V472.6z M829.8,531.6h58.8
	V590h-58.8V531.6z M829.8,590.5h58.8V649h-58.8V590.5z M829.8,649.5h58.8v58.4h-58.8V649.5z M829.8,708.4h58.8v58.4h-58.8V708.4z
	 M829.8,767.4h58.8v58.4h-58.8V767.4z M829.8,826.3h58.8v58.4h-58.8V826.3z M829.8,885.2h58.8v58.4h-58.8V885.2z M829.8,944.2h58.8
	v58.4h-58.8V944.2z M829.8,1003.1h58.8v58.4h-58.8V1003.1z M829.8,1062.1h58.8v58.4h-58.8V1062.1z M829.8,1121h58.8v58.4h-58.8V1121
	z M829.8,1180h58.8v58.4h-58.8V1180z M770.6,295.8h58.8v58.4h-58.8V295.8z M770.6,354.8h58.8v58.4h-58.8V354.8z M770.6,413.7h58.8
	v58.4h-58.8V413.7z M770.6,472.6h58.8v58.4h-58.8V472.6z M770.6,531.6h58.8V590h-58.8V531.6z M770.6,590.5h58.8V649h-58.8V590.5z
	 M770.6,649.5h58.8v58.4h-58.8V649.5z M770.6,708.4h58.8v58.4h-58.8V708.4z M770.6,767.4h58.8v58.4h-58.8V767.4z M770.6,826.3h58.8
	v58.4h-58.8V826.3z M770.6,885.2h58.8v58.4h-58.8V885.2z M770.6,944.2h58.8v58.4h-58.8V944.2z M770.6,1003.1h58.8v58.4h-58.8V1003.1
	z M711.3,295.8h58.8v58.4h-58.8V295.8z M711.3,354.8h58.8v58.4h-58.8V354.8z M711.3,413.7h58.8v58.4h-58.8V413.7z M711.3,472.6h58.8
	v58.4h-58.8V472.6z M711.3,531.6h58.8V590h-58.8V531.6z M711.3,590.5h58.8V649h-58.8V590.5z M711.3,649.5h58.8v58.4h-58.8V649.5z
	 M711.3,708.4h58.8v58.4h-58.8V708.4z M711.3,767.4h58.8v58.4h-58.8V767.4z M711.3,826.3h58.8v58.4h-58.8V826.3z M711.3,885.2h58.8
	v58.4h-58.8V885.2z M711.3,944.2h58.8v58.4h-58.8V944.2z M711.3,1003.1h58.8v58.4h-58.8V1003.1z M652,295.8h58.8v58.4H652V295.8z
	 M652,354.8h58.8v58.4H652V354.8z M652,413.7h58.8v58.4H652V413.7z M652,472.6h58.8v58.4H652V472.6z M652,531.6h58.8V590H652V531.6z
	 M652,590.5h58.8V649H652V590.5z M652,649.5h58.8v58.4H652V649.5z M652,708.4h58.8v58.4H652V708.4z M652,767.4h58.8v58.4H652V767.4z
	 M652,826.3h58.8v58.4H652V826.3z M652,885.2h58.8v58.4H652V885.2z M652,944.2h58.8v58.4H652V944.2z M652,1003.1h58.8v58.4H652
	V1003.1z M592.8,295.8h58.8v58.4h-58.8V295.8z M592.8,354.8h58.8v58.4h-58.8V354.8z M592.8,413.7h58.8v58.4h-58.8V413.7z
	 M592.8,472.6h58.8v58.4h-58.8V472.6z M592.8,531.6h58.8V590h-58.8V531.6z M592.8,590.5h58.8V649h-58.8V590.5z M592.8,649.5h58.8
	v58.4h-58.8V649.5z M592.8,708.4h58.8v58.4h-58.8V708.4z M592.8,767.4h58.8v58.4h-58.8V767.4z M592.8,826.3h58.8v58.4h-58.8V826.3z
	 M592.8,885.2h58.8v58.4h-58.8V885.2z M592.8,944.2h58.8v58.4h-58.8V944.2z M592.8,1003.1h58.8v58.4h-58.8V1003.1z M533.5,295.8
	h58.8v58.4h-58.8V295.8z M533.5,354.8h58.8v58.4h-58.8V354.8z M533.5,413.7h58.8v58.4h-58.8V413.7z M533.5,472.6h58.8v58.4h-58.8
	V472.6z M533.5,531.6h58.8V590h-58.8V531.6z M533.5,590.5h58.8V649h-58.8V590.5z M533.5,649.5h58.8v58.4h-58.8V649.5z M533.5,708.4
	h58.8v58.4h-58.8V708.4z M533.5,767.4h58.8v58.4h-58.8V767.4z M533.5,826.3h58.8v58.4h-58.8V826.3z M533.5,885.2h58.8v58.4h-58.8
	V885.2z M533.5,944.2h58.8v58.4h-58.8V944.2z M533.5,1003.1h58.8v58.4h-58.8V1003.1z M474.2,295.8H533v58.4h-58.8V295.8z
	 M474.2,354.8H533v58.4h-58.8V354.8z M474.2,413.7H533v58.4h-58.8V413.7z M474.2,472.6H533v58.4h-58.8V472.6z M474.2,531.6H533V590
	h-58.8V531.6z M474.2,590.5H533V649h-58.8V590.5z M474.2,649.5H533v58.4h-58.8V649.5z M474.2,708.4H533v58.4h-58.8V708.4z
	 M474.2,767.4H533v58.4h-58.8V767.4z M474.2,826.3H533v58.4h-58.8V826.3z M474.2,885.2H533v58.4h-58.8V885.2z M474.2,944.2H533v58.4
	h-58.8V944.2z M474.2,1003.1H533v58.4h-58.8V1003.1z M415,295.8h58.8v58.4H415V295.8z M415,354.8h58.8v58.4H415V354.8z M415,413.7
	h58.8v58.4H415V413.7z M415,472.6h58.8v58.4H415V472.6z M415,531.6h58.8V590H415V531.6z M415,590.5h58.8V649H415V590.5z M415,649.5
	h58.8v58.4H415V649.5z M415,708.4h58.8v58.4H415V708.4z M415,767.4h58.8v58.4H415V767.4z M415,826.3h58.8v58.4H415V826.3z
	 M415,885.2h58.8v58.4H415V885.2z M415,944.2h58.8v58.4H415V944.2z M415,1003.1h58.8v58.4H415V1003.1z M355.7,295.8h58.8v58.4h-58.8
	V295.8z M355.7,354.8h58.8v58.4h-58.8V354.8z M355.7,413.7h58.8v58.4h-58.8V413.7z M355.7,472.6h58.8v58.4h-58.8V472.6z
	 M355.7,531.6h58.8V590h-58.8V531.6z M355.7,590.5h58.8V649h-58.8V590.5z M355.7,649.5h58.8v58.4h-58.8V649.5z M355.7,708.4h58.8
	v58.4h-58.8V708.4z M355.7,767.4h58.8v58.4h-58.8V767.4z M355.7,826.3h58.8v58.4h-58.8V826.3z M355.7,885.2h58.8v58.4h-58.8V885.2z
	 M355.7,944.2h58.8v58.4h-58.8V944.2z M355.7,1003.1h58.8v58.4h-58.8V1003.1z M296.4,295.8h58.8v58.4h-58.8V295.8z M296.4,354.8
	h58.8v58.4h-58.8V354.8z M296.4,413.7h58.8v58.4h-58.8V413.7z M296.4,472.6h58.8v58.4h-58.8V472.6z M296.4,531.6h58.8V590h-58.8
	V531.6z M296.4,590.5h58.8V649h-58.8V590.5z M296.4,649.5h58.8v58.4h-58.8V649.5z M296.4,708.4h58.8v58.4h-58.8V708.4z M296.4,767.4
	h58.8v58.4h-58.8V767.4z M296.4,826.3h58.8v58.4h-58.8V826.3z M296.4,885.2h58.8v58.4h-58.8V885.2z M296.4,944.2h58.8v58.4h-58.8
	V944.2z M296.4,1003.1h58.8v58.4h-58.8V1003.1z"/>
<line class="st7" x1="770.6" y1="1061.6" x2="771.1" y2="1357.1"/>
</svg>
