<svg xmlns="http://www.w3.org/2000/svg" width="4800.2" height="3480.2" style="overflow:visible;enable-background:new 0 0 4800.2 3480.2" xml:space="preserve"><style>.st0{fill:none;stroke:#00b140;stroke-width:.25;stroke-miterlimit:10}.st1{fill:#3d4344}</style><path class="st0" d="M.1.1h4800v3480H.1zM4800.1 59.1H.1M4800.1 118.1H.1M4800.1 177.1H.1M4800.1 236.1H.1M4800.1 295H.1M4800.1 354H.1M4800.1 413H.1M4800.1 472H.1M4800.1 531H.1M4800.1 590H.1M4800.1 648.9H.1M4800.1 707.9H.1M4800.1 766.9H.1M4800.1 825.9H.1M4800.1 884.9H.1M4800.1 943.9H.1M4800.1 1002.8H.1M4800.1 1061.8H.1M4800.1 1120.8H.1M4800.1 1179.8H.1M4800.1 1238.8H.1M4800.1 1297.8H.1M4800.1 1356.7H.1M4800.1 1415.7H.1M4800.1 1474.7H.1M4800.1 1533.7H.1M4800.1 1592.7H.1M4800.1 1651.7H.1M4800.1 1710.6H.1M4800.1 1769.6H.1M4800.1 1828.6H.1M4800.1 1887.6H.1M4800.1 1946.6H.1M4800.1 2005.5H.1M4800.1 2064.5H.1M4800.1 2123.5H.1M4800.1 2182.5H.1M4800.1 2241.5H.1M4800.1 2300.5H.1M4800.1 2359.4H.1M4800.1 2418.4H.1M4800.1 2477.4H.1M4800.1 2536.4H.1M4800.1 2595.4H.1M4800.1 2654.4H.1M4800.1 2713.3H.1M4800.1 2772.3H.1M4800.1 2831.3H.1M4800.1 2890.3H.1M4800.1 2949.3H.1M4800.1 3008.3H.1M4800.1 3067.2H.1M4800.1 3126.2H.1M4800.1 3185.2H.1M4800.1 3244.2H.1M4800.1 3303.2H.1M4800.1 3362.2H.1M4800.1 3421.1H.1M59.4 3480.1V.1M118.6 3480.1V.1M177.9 3480.1V.1M237.2 3480.1V.1M296.4 3480.1V.1M355.7 3480.1V.1M414.9 3480.1V.1M474.2 3480.1V.1M533.5 3480.1V.1M592.7 3480.1V.1M652 3480.1V.1M711.2 3480.1V.1M770.5 3480.1V.1M829.8 3480.1V.1M889 3480.1V.1M948.3 3480.1V.1M1007.5 3480.1V.1M1066.8 3480.1V.1M1126.1 3480.1V.1M1185.3 3480.1V.1M1244.6 3480.1V.1M1303.8 3480.1V.1M1363.1 3480.1V.1M1422.3 3480.1V.1M1481.6 3480.1V.1M1540.9 3480.1V.1M1600.1 3480.1V.1M1659.4 3480.1V.1M1718.6 3480.1V.1M1777.9 3480.1V.1M1837.2 3480.1V.1M1896.4 3480.1V.1M1955.7 3480.1V.1M2014.9 3480.1V.1M2074.2 3480.1V.1M2133.5 3480.1V.1M2192.7 3480.1V.1M2252 3480.1V.1M2311.2 3480.1V.1M2370.5 3480.1V.1M2429.8 3480.1V.1M2489 3480.1V.1M2548.3 3480.1V.1M2607.5 3480.1V.1M2666.8 3480.1V.1M2726.1 3480.1V.1M2785.3 3480.1V.1M2844.6 3480.1V.1M2903.8 3480.1V.1M2963.1 3480.1V.1M3022.3 3480.1V.1M3081.6 3480.1V.1M3140.9 3480.1V.1M3200.1 3480.1V.1M3259.4 3480.1V.1M3318.6 3480.1V.1M3377.9 3480.1V.1M3437.2 3480.1V.1M3496.4 3480.1V.1M3555.7 3480.1V.1M3614.9 3480.1V.1M3674.2 3480.1V.1M3733.5 3480.1V.1M3792.7 3480.1V.1M3852 3480.1V.1M3911.2 3480.1V.1M3970.5 3480.1V.1M4029.8 3480.1V.1M4089 3480.1V.1M4148.3 3480.1V.1M4207.5 3480.1V.1M4266.8 3480.1V.1M4326.1 3480.1V.1M4385.3 3480.1V.1M4444.6 3480.1V.1M4503.8 3480.1V.1M4563.1 3480.1V.1M4622.3 3480.1V.1M4681.6 3480.1V.1M4740.9 3480.1V.1"/><g><path class="st1" d="M1999.7 958v2.9l-.6-.6c-2 2.1-4.1 4.2-6.1 6.4-2 2.3-3.9 4.6-6 7.1 4.6 3.6 6.9 10 12.6 12.9v2.8c-.2-.2-.4-.3-.5-.5-2.1 2.2-4.2 4.3-6.3 6.6-2 2.2-3.8 4.5-5.9 6.9 4.5 3.4 6.8 9.8 12.6 12.8 0 .1.1.7.1 1.2v1.5c-5.9 2.7-8 9.3-13.1 13 5 3.6 7.2 10.1 13 13v2.3c-1.6 1.4-3 2.3-4.2 3.6-2.9 3.2-5.6 6.5-8.5 10 4.5 3.5 6.8 9.7 12.6 12.8 0 0 .1.6.1 1.1s0 1.1-.5 1.2c-1.9 2-3.9 3.9-5.7 5.9-2.2 2.5-4.3 5-6.5 7.7 4.7 3.4 6.9 9.8 12.6 12.7v2.7c-5.6 2.7-7.8 9.1-12.8 13 4.7 3.8 7 10 12.8 13v2.3c-1.9 1.8-3.6 3.2-5.1 4.8-2.6 2.8-5 5.8-7.5 8.8 4.7 3.3 6.8 9.9 12.7 12.6v2.8c-5.7 2.6-7.9 9.1-12.9 12.9 4.9 3.7 7.1 10.1 12.9 13.1 0 .2.1.8.1 1.3v1.2c-5.8 2.9-8 9.5-13.1 13 4.9 3.7 7.3 10 13 13.1v2.8c-.2-.2-.4-.4-.6-.5-2 2.1-4.1 4.2-6 6.4-2 2.3-3.9 4.6-5.9 7.1 4.6 3.5 6.9 9.8 12.6 12.9v2.6l-.5-.5c-2.1 2.2-4.3 4.4-6.4 6.7-1.9 2.1-3.7 4.4-5.7 6.8 4.5 3.6 6.8 9.9 13 13.1-.9.4-1.7 1.1-2.2.9-1.2-.5-2.6-1.2-3.5-2.2-2.4-2.6-4.5-5.4-6.8-8-2.5-2.9-7.7-2.9-10.1 0-2.1 2.5-4.3 5.1-6.3 7.7-1.4 1.8-3.2 2.4-5.4 2.7-5 .6-8.8-1.1-11.5-5.6-.7-1.2-1.9-2.2-2.7-3.4-1.9-2.9-4.4-4-7.6-3.4-1.3.3-2.7.8-3.6 1.7-2.3 2.4-4.3 5-6.4 7.6-1.5 2-3.3 3.1-5.8 2.9-1.3-.1-2.7.2-3.9-.1-1.6-.4-3.4-1-4.5-2.1-2.4-2.4-4.4-5.2-6.6-7.8-2.8-3.3-7.9-3.4-10.7 0-2.1 2.5-4.1 5-6.2 7.5-1.4 1.8-3.2 2.3-5.5 2.6-5 .6-8.7-1.2-11.5-5.6-.8-1.4-2.2-2.4-3-3.8-1.5-2.4-3.6-3.1-6.2-3-2.2.1-3.8.6-5.2 2.5-1.9 2.6-3.9 5.2-6.2 7.4-1.3 1.2-3.2 1.9-4.9 2.4-1.3.4-2.8.3-4.1 0-1.7-.4-3.6-1-4.8-2.2-2.5-2.4-4.5-5.3-6.8-8-2.5-3-7.8-2.9-10.3.2-2.1 2.6-4.3 5.1-6.3 7.7-1.4 1.7-3 2.7-5.2 2.5-1.3-.1-2.7.3-3.9-.1-1.7-.5-3.7-1.1-5-2.3-2.5-2.4-4.5-5.4-6.8-8-2.4-2.8-7.6-2.7-10 0-2.2 2.6-4.4 5.2-6.5 7.9-1.4 1.7-3 2.3-5.2 2.6-5.2.7-9.1-1.2-11.9-5.8-.7-1.1-1.9-2-2.5-3.1-2-3.8-5.3-3.7-8.7-3.3-.9.1-1.9.9-2.5 1.7-2.2 2.5-4.3 5-6.4 7.7-1.6 2-3.4 3.1-5.9 2.8h-.5c-4.4.8-7.7-.9-10.2-4.9-.9-1.4-2.3-2.5-3.2-4-2-3.5-5.1-3.9-8.4-3.3-1.1.2-2.2 1-3 1.9-2.4 2.7-4.5 5.6-6.9 8.2-.9 1-2.3 1.6-3.5 2-.5.2-1.2-.5-1.5-.7 1.8-1.6 3.4-2.8 4.8-4.3 2.7-3 5.3-6.2 7.9-9.4-4.8-3.2-6.8-10-12.8-12.7v-2.3c1.6-1.2 3.1-2.1 4.2-3.3 2.9-3.2 5.7-6.6 8.6-10.1-4.7-3.4-6.9-10-12.9-12.9v-2.1c1.9-1.7 3.6-2.9 5-4.5 2.7-3 5.2-6.1 7.9-9.3-4.8-3.2-7-9.9-12.9-13v-1.8c1.9-1.7 3.6-3 5-4.6 2.7-3 5.2-6.1 7.9-9.2-4.8-3.3-6.8-10.1-12.9-12.7v-2.2c1.8-1.4 3.3-2.4 4.5-3.7 2.9-3.2 5.6-6.5 8.4-9.9-4.8-3.1-6.7-10.1-12.9-12.7v-2.2c1.9-1.7 3.6-2.8 5-4.4 2.7-3 5.2-6.1 7.9-9.3-4.7-3.4-7-9.9-12.9-13 0 0-.1-.5-.1-1.1v-.8c1.9-1.6 3.6-2.8 4.9-4.2 2.8-3.1 5.4-6.3 8.1-9.5-4.8-3.1-6.8-10-12.9-12.7v-2.2c1.8-1.6 3.5-2.7 4.8-4.2 2.8-3 5.3-6.3 8-9.5-4.8-3.2-6.8-10-12.9-12.8v-2.1c1.8-1.5 3.3-2.5 4.5-3.9 2.8-3.2 5.5-6.5 8.3-9.8-4.7-3.3-6.8-10-12.8-12.7v-2.2c1.8-1.5 3.4-2.5 4.6-3.9 2.8-3.1 5.4-6.4 8.3-9.8-4.8-3.2-6.8-10.1-12.9-12.7v-2.3c1.8-1.5 3.3-2.5 4.5-3.8 2.8-3.1 5.4-6.4 8.3-9.8-4.6-3.6-6.8-10-12.8-12.9 0-.2-.1-.7-.1-1.3 0-.5 0-1.1.5-1.2 1.5-1.3 3.1-2.4 4.4-3.8 2.8-3.1 5.4-6.4 8.1-9.6-4.8-3-6.7-10-12.8-12.5v-2.3c1.9-1.6 3.6-2.9 5-4.5 2.7-3 5.2-6.1 7.9-9.3-4.8-3.2-6.8-10.1-12.9-12.7v-2.3c1.7-1.4 3.2-2.2 4.3-3.5 2.9-3.2 5.7-6.7 8.6-10.1-4.7-3.2-6.9-10-12.9-12.9 0-.1-.1-.7-.1-1.2s.1-1.1.6-1.2c1.4-1.2 3-2.2 4.2-3.6 2.8-3.1 5.4-6.4 8.2-9.7-4.8-3.3-6.9-10-12.9-12.9 0-.1-.1-.6-.1-1.1s0-1.1.5-1.2c1.5-1.3 3.1-2.4 4.4-3.8 2.7-3 5.3-6.3 8.1-9.5-4.7-3.3-6.8-10.1-13.5-13.1 1.2-.4 2.1-1.1 2.7-.9 1.2.5 2.5 1.3 3.4 2.3 2.4 2.6 4.6 5.5 6.9 8.2 2.2 2.5 7.7 2.3 9.8-.1 2.3-2.7 4.3-5.6 6.7-8 1.3-1.2 3.2-1.9 4.9-2.4 1.2-.4 2.6 0 3.9-.1 2.1-.2 3.7.7 5 2.3 2.2 2.7 4.3 5.3 6.5 7.9 2.6 3.1 8 3 10.5 0 2.1-2.6 4.3-5.1 6.3-7.7 1.4-1.8 3-2.7 5.2-2.5 1.3.1 2.7-.2 3.9.1 1.7.5 3.6 1 4.8 2.2 2.5 2.5 4.6 5.5 7 8.2 2.3 2.7 7.9 2.7 10.2-.1 2.2-2.7 4.3-5.6 6.7-8 1.2-1.2 3.1-1.8 4.7-2.2 1.2-.3 2.6 0 3.9-.1 2.2-.2 3.8.8 5.2 2.5 2.2 2.7 4.4 5.4 6.7 8.1 2.2 2.6 7.8 2.5 10-.1 2.2-2.7 4.3-5.6 6.7-8 1.2-1.2 3-2 4.7-2.3 5.3-1.2 9.2 1 12.1 5.8.6 1 1.6 1.7 2.2 2.7 2.1 3.9 5.5 4.1 9.1 3.6.8-.1 1.7-.8 2.3-1.5 2.4-2.8 4.6-5.8 7.1-8.4 1.2-1.2 3.1-1.8 4.7-2.3 1.2-.3 2.6 0 3.9-.1 2.2-.2 3.8.7 5.2 2.4 2.1 2.7 4.3 5.3 6.5 7.9 2.5 2.9 7.9 2.9 10.3-.1 2.2-2.6 4.4-5.2 6.5-7.9 1.3-1.7 2.9-2.2 5-2.4 5.1-.7 8.9 1.1 11.7 5.7.6 1.1 1.8 1.8 2.4 2.9 2.1 3.9 5.5 4.2 9 3.7.9-.1 1.9-.9 2.5-1.6 2.4-2.7 4.4-5.7 7-8.2 1.2-1.2 3-2 4.7-2.3 5.1-1.1 9.1.8 11.9 5.6.6 1.1 1.8 1.8 2.3 2.9 2.1 3.9 5.6 4 9.1 3.5.9-.1 1.9-.9 2.5-1.7 2.5-2.8 4.8-5.8 7.2-8.7 1.9-2.2 3.4-2.3 4.4-1-2.1 2.2-4.3 4.3-6.3 6.6-2 2.2-3.9 4.6-6 7.1 4.6 3.4 6.8 9.9 12.7 12.8 0 .1.1.7.1 1.2v1.3c-5.8 2.9-8 9.4-13 13 4.9 3.7 7.1 10.1 12.9 13.1 0 .2.1.7.1 1.3v1.3c-5.8 2.7-8 9.3-13.1 13.1 5 3.6 7 10.3 13 12.9v2.1c-2.1 2-3.9 3.6-5.5 5.4-2.4 2.7-4.7 5.6-7.2 8.5 4.7 3.4 6.8 9.9 12.7 12.6v3.2c-3.4.2-4.6 3.4-6.6 5.6-2.1 2.2-3.9 4.6-6.1 7.1 5.1 2.7 7.2 9.2 13.2 12.1zm-236.8-127.2c2.9 3.5 5.8 7 8.8 10.5 2.5 2.9 8.2 2.9 10.6.1 3-3.6 6.1-7.1 8.9-10.5l-7.5-9c-4.3-5.1-9-5.2-13.2-.1-2.6 3-5.1 6-7.6 9zm140.4 0c-2.9-3.4-5.8-7-8.7-10.4-2.6-3.1-8.3-3.1-10.8 0-2.9 3.5-5.8 7-8.7 10.4 2.9 3.4 5.8 6.9 8.7 10.4 2.6 3 8.3 3 10.8 0 2.9-3.5 5.9-7 8.7-10.4zm-65.7 0c3 3.5 5.9 7.1 8.9 10.6 2.4 2.8 8.1 2.8 10.5 0 3-3.6 6.1-7.2 8.9-10.5-2.9-3.5-5.9-7-8.9-10.6-2.5-2.9-8.2-2.9-10.6 0-2.9 3.5-5.8 7-8.8 10.5zm103.2-.1c-1.4-1.6-3-3.3-4.5-5.1s-2.9-3.6-4.5-5.4c-2.5-2.9-8.2-2.9-10.7 0-3 3.5-5.9 7.1-8.8 10.6 1.3 1.4 2.6 2.9 4 4.5s2.7 3.3 4.1 5c3.6 4.3 8.7 4.3 12.2.1 2.8-3.2 5.5-6.4 8.2-9.7zm-37.5 343.2c-2.8-3.3-5.7-6.8-8.6-10.3-2.7-3.3-8.3-3.3-11-.1-2.9 3.5-5.8 7-8.7 10.3 2.7 3.3 5.6 6.6 8.4 10 3 3.6 8.8 3.6 11.8 0l8.1-9.9zm9.1 0c2.9 3.5 5.9 7.1 9 10.7 2.2 2.6 8.4 2.5 10.6-.1 3-3.6 5.9-7.3 8.7-10.7-2.9-3.5-5.9-7-8.9-10.6-2.5-2.9-8.2-2.8-10.6.1-3 3.6-5.9 7.2-8.8 10.6zm-121.3 0c-2.8-3.3-5.6-6.8-8.5-10.2-2.8-3.4-8.4-3.4-11.2-.1-2.9 3.5-5.8 6.9-8.6 10.2 2.9 3.5 5.8 7.1 8.8 10.5 2.6 3 8.6 2.8 11.1-.2 2.9-3.4 5.7-6.9 8.4-10.2zm149.6-257.3c-2.9-3.5-5.8-7.1-8.8-10.6-2.4-2.8-8.3-2.7-10.7.1-3 3.5-5.9 7.1-8.7 10.5 2.8 3.3 5.7 6.8 8.6 10.3 2.6 3.1 8.4 3.1 11 0 2.9-3.5 5.8-7 8.6-10.3zm-28.3 142.9c2.9 3.4 5.8 7 8.7 10.4 2.5 2.9 8.5 2.8 10.9-.1 3-3.5 5.9-7 8.6-10.3-2.8-3.3-5.6-6.7-8.4-10-3.1-3.7-8.5-3.7-11.5 0-2.7 3.4-5.5 6.7-8.3 10zm28.3-28.6c-2.7-3.2-5.5-6.5-8.3-9.9-3.1-3.7-8.6-3.8-11.8 0-2.8 3.3-5.6 6.7-8.2 9.8 2.6 3.1 5.2 6.3 7.9 9.5 3.7 4.4 8.7 4.5 12.3.1 2.8-3.1 5.5-6.3 8.1-9.5zm-149.5 28.7c-2.6-3.1-5.4-6.5-8.2-9.8-3.3-3.9-8.6-3.9-11.8 0-2.8 3.4-5.6 6.7-8.3 9.9 1.4 1.6 2.9 3.3 4.4 5.1s2.9 3.6 4.5 5.4c2.5 2.8 8.3 2.8 10.7-.1 2.9-3.7 5.9-7.2 8.7-10.5zm9.1 114.3c2.8 3.4 5.8 7 8.9 10.6 2.4 2.8 8.4 2.7 10.7-.1 3-3.5 5.9-7.1 8.7-10.5-2.7-3.1-5.4-6.4-8.2-9.7-3.5-4.2-8.6-4.2-12.2.1-2.6 3.3-5.3 6.5-7.9 9.6zm-74.8-.1c2.9 3.5 5.9 7.1 8.9 10.7 2.3 2.7 8.3 2.7 10.6 0 3.1-3.6 6.1-7.2 8.8-10.6-2.8-3.3-5.7-6.8-8.6-10.2s-8.6-3.4-11.4 0c-2.7 3.5-5.5 6.9-8.3 10.1zm28.4 85.8c-2.9-3.4-5.9-6.9-8.9-10.4-2.4-2.8-8.3-2.8-10.7 0-3 3.5-6 7-8.7 10.3 2.9 3.5 5.7 6.9 8.6 10.4 2.7 3.2 8.5 3.1 11.3-.1 2.7-3.5 5.6-6.9 8.4-10.2zM1940.7 888c-2.8-3.3-5.8-6.9-8.8-10.4-2.6-3.1-8.2-3.1-10.8 0-3 3.5-5.9 7-8.7 10.3 2.7 3.3 5.5 6.7 8.3 10 2.9 3.5 8.7 3.5 11.6 0 2.9-3.3 5.7-6.7 8.4-9.9zm-103.1 257.3c2.9 3.5 5.9 7 8.9 10.5 2.5 2.9 8.2 2.9 10.7 0 3-3.6 6-7.1 8.8-10.5-2.7-3.2-5.4-6.4-8.2-9.7-3.2-3.8-8.8-3.9-12-.1-2.7 3.3-5.5 6.6-8.2 9.8zM1978 830.8c-2.8-3.3-5.7-6.8-8.5-10.2-2.9-3.4-8.4-3.4-11.2 0-2.9 3.4-5.7 6.9-8.5 10.2 2.8 3.3 5.7 6.7 8.6 10.1 2.8 3.3 8.4 3.3 11.2 0 2.8-3.4 5.7-6.8 8.4-10.1zm-177.7 0c3.1 3.6 6.1 7.3 9.2 10.8 2.1 2.5 8 2.4 10.1-.1 3.1-3.6 6.1-7.2 9-10.7-2.9-3.4-5.9-7.1-9-10.7-2.3-2.7-8.1-2.7-10.5 0-2.9 3.6-5.9 7.2-8.8 10.7zm28.2 85.8c-2.7-3.2-5.6-6.7-8.4-10.1-2.8-3.4-8.5-3.4-11.4.1-2.9 3.4-5.7 6.8-8.4 10.1 1.4 1.6 2.9 3.3 4.3 5 1.5 1.8 2.9 3.6 4.5 5.4 2.6 3.1 8.4 3 11-.2 2.8-3.6 5.6-7 8.4-10.3zm9.2 257.2c2.6 3.2 5.4 6.6 8.2 9.9 3.1 3.8 8.9 3.7 12-.1 2.7-3.3 5.4-6.6 8-9.8-2.9-3.5-5.9-7.1-8.9-10.7-2.4-2.8-8.1-2.7-10.5.1-3 3.7-6 7.2-8.8 10.6zm-9.2-142.8c-2.5-3-5.1-6.1-7.7-9.3-3.9-4.7-8.9-4.7-12.8-.1-2.6 3.1-5.3 6.3-7.8 9.2 2.9 3.4 5.8 7 8.8 10.5 2.5 2.9 8.1 2.9 10.6 0 3.1-3.4 6.1-7 8.9-10.3zm-28.2 28.5c2.8 3.3 5.7 6.9 8.8 10.4 2.5 2.9 8.4 2.8 10.9-.1 3-3.5 5.9-7 8.7-10.3-2.9-3.5-5.9-7-8.9-10.6-2.5-2.9-8.1-2.9-10.6 0-3.1 3.7-6.1 7.2-8.9 10.6zm-37.5-171.6c2.8 3.4 5.8 7 8.8 10.5 2.5 2.9 8.3 2.8 10.7 0 3.1-3.6 6.1-7.1 8.8-10.4-2.7-3.2-5.5-6.5-8.3-9.9-3.3-3.9-8.5-3.9-11.7-.1-2.7 3.4-5.6 6.7-8.3 9.9zm28.3 28.8c-2.7-3.3-5.5-6.7-8.4-10.2-2.8-3.4-8.6-3.4-11.4 0-2.9 3.4-5.7 6.8-8.5 10.1 1.4 1.6 2.9 3.3 4.3 5 1.5 1.8 2.9 3.6 4.5 5.4 2.5 3 8.4 3 10.9 0 2.9-3.5 5.8-7 8.6-10.3zm112.3 228.7c-2.7-3.2-5.6-6.6-8.5-10-2.9-3.4-8.6-3.4-11.4-.1-2.9 3.4-5.7 6.8-8.5 10.1 2.6 3.1 5.3 6.3 8 9.5 3.6 4.3 8.7 4.3 12.3.1 2.7-3.3 5.5-6.6 8.1-9.6zm-37.9-199.8c-.8-1.2-1.8-2.8-2.8-4.2-1.8-2.3-3.6-4.5-5.5-6.6-2.6-3-8.3-3-10.9 0-3 3.5-6 7.1-8.7 10.3 2.7 3.2 5.4 6.5 8.2 9.8 3.3 3.9 8.7 3.9 11.9 0 2.8-3.4 5.6-6.7 7.8-9.3zm-140-57.7c2.8 3.3 5.7 6.8 8.6 10.3 2.7 3.1 8.4 3.1 11.1 0 3-3.5 6-7 8.7-10.2-2.9-3.5-5.9-7-8.9-10.5-2.6-3.1-8.2-3-10.8.1-3 3.5-5.9 7-8.7 10.3zm37.3 257.4c3 3.5 6 7.2 9 10.7 2.4 2.7 8.2 2.5 10.5-.2 3-3.6 6-7.1 8.8-10.4-2.7-3.2-5.4-6.4-8.2-9.7-3.3-3.9-8.9-3.9-12.1 0-2.6 3.2-5.3 6.4-8 9.6zm187 28.6c3 3.6 6 7.1 9 10.7 2.2 2.5 8.2 2.6 10.4.1 3.1-3.6 6.1-7.4 8.9-10.8-2.9-3.4-5.8-6.9-8.7-10.4-2.5-3-8.3-3-10.8 0-3 3.5-6 7-8.8 10.4zm-187-228.8c3 3.5 6 7.2 9.1 10.7 2.4 2.7 8.2 2.5 10.5-.2 3-3.6 6-7.1 8.9-10.5-1.3-1.5-2.8-3.1-4.2-4.8l-4.5-5.4c-2.8-3.3-8.4-3.3-11.2 0-2.9 3.4-5.8 6.9-8.6 10.2zm74.8 114.4c3 3.5 5.9 7.1 8.9 10.6 2.3 2.6 8.3 2.5 10.6-.1 3-3.6 6-7.2 8.8-10.5-2.9-3.5-5.9-7.1-8.9-10.6-2.4-2.8-8.1-2.8-10.4-.1-3 3.6-6 7.2-9 10.7zm-46.4-85.9c-1.3-1.5-2.7-3.1-4.1-4.7-1.5-1.7-2.9-3.4-4.3-5.2-2.9-3.4-8.6-3.5-11.5-.1-2.8 3.3-5.6 6.7-8.3 10l8.7 10.5c2.5 3 8.2 3 10.7 0 2.9-3.4 5.8-6.9 8.8-10.5zm-65.9 228.7c3 3.6 6 7.2 9 10.7 2.3 2.7 8.1 2.8 10.4.2 3.2-3.6 6.2-7.3 9.1-10.6-2.9-3.4-6-7-9-10.6-2.5-2.9-7.7-3-10.3-.1-3.1 3.4-6.1 6.9-9.2 10.4zm28.5-371.5c-2.8-3.3-5.7-6.8-8.7-10.3-2.7-3.2-8.3-3.2-11 0-2.9 3.5-5.8 7-8.6 10.3 2.9 3.5 5.9 7.1 8.9 10.6 2.4 2.7 8.3 2.6 10.7-.2 2.9-3.5 5.9-7 8.7-10.4zm112.2 428.9c-2.7-3.2-5.6-6.6-8.4-10-2.9-3.4-8.5-3.5-11.4-.1-2.9 3.4-5.7 6.8-8.5 10 2.9 3.4 5.8 7 8.7 10.4 2.5 3 8.4 3 10.9 0 2.9-3.5 5.9-7 8.7-10.3zm-37.7.3c-1.1-1.5-2.4-3.2-3.7-4.9-1.4-1.8-2.8-3.5-4.3-5.2-3.3-3.9-8.6-3.9-11.9 0-2.8 3.3-5.5 6.5-8.1 9.7 2.8 3.4 5.7 6.9 8.7 10.4 2.6 3.1 8.4 3 11-.1 2.9-3.5 5.8-6.9 8.3-9.9zm112.4-114.6c-2.8-3.3-5.7-6.8-8.7-10.3-2.6-3.1-8.5-3.1-11.1 0-2.9 3.5-5.9 6.9-8.6 10.2 2.7 3.2 5.5 6.5 8.3 9.9 3.2 3.8 8.6 3.9 11.7.1 2.9-3.4 5.7-6.7 8.4-9.9zm.1-200.3c-2.9-3.5-6-7.1-9.1-10.6-2.4-2.7-8.2-2.6-10.5.1-3 3.6-6.1 7.2-8.9 10.5 1.4 1.6 2.9 3.3 4.3 4.9 1.5 1.7 2.8 3.5 4.3 5.2 2.9 3.4 8.5 3.3 11.4-.1 2.9-3.4 5.8-6.7 8.5-10zm9 85.8c3 3.5 5.9 7 8.8 10.5 2.4 2.8 8.2 2.9 10.6.1 3-3.6 6-7.2 8.8-10.6-2.8-3.3-5.6-6.7-8.5-10.1-2.8-3.3-8.4-3.3-11.2 0-2.9 3.4-5.8 6.8-8.5 10.1zM1828.6 888c-2.8-3.3-5.8-6.9-8.8-10.4-2.6-3.1-8.2-3.2-10.8-.1-3 3.5-6 7.1-8.8 10.5 1.2 1.4 2.6 2.9 3.9 4.4l3.9 4.8c3.8 4.6 9 4.5 12.8-.1 2.7-3.1 5.4-6.2 7.8-9.1zm-37.4 142.9c-2.7-3.3-5.6-6.7-8.5-10.1-2.9-3.4-8.5-3.5-11.4 0-2.9 3.4-5.7 6.8-8.5 10.1 1.4 1.7 2.9 3.3 4.4 5 1.4 1.7 2.8 3.5 4.3 5.2 2.7 3.2 8.3 3.3 11 .1 2.9-3.4 5.8-6.8 8.7-10.3zm-.4 229.2c-.8-1.2-1.7-2.6-2.7-3.9-2-2.5-4-4.9-6-7.2-2.1-2.4-8.1-2.5-10.2-.2-3.1 3.6-6.2 7.3-9.1 10.8 2.8 3.4 5.6 6.7 8.4 10.1 2.8 3.4 8.6 3.4 11.4 0 3-3.3 5.9-6.7 8.2-9.6zm-65.3-229.2c2.9 3.5 5.9 7.1 9 10.7 2.3 2.7 8.2 2.5 10.5-.2 3-3.5 6-7.1 8.9-10.6-1.3-1.4-2.7-3-4.2-4.7l-4.5-5.4c-2.8-3.3-8.4-3.4-11.3 0-2.8 3.4-5.7 6.9-8.4 10.2zm224.3 28.6c2.7 3.2 5.5 6.6 8.4 10 2.9 3.4 8.6 3.4 11.4 0 2.9-3.4 5.8-6.8 8.4-10-2.9-3.4-5.9-7.1-8.9-10.7-2.3-2.7-8.2-2.7-10.5 0-2.9 3.7-5.9 7.3-8.8 10.7zm-149.6 28.7c1.3 1.5 2.8 3.1 4.3 4.8 1.5 1.7 2.8 3.5 4.3 5.2 2.9 3.5 8.4 3.4 11.4 0 2.9-3.4 5.8-6.8 8.4-10-2.6-3.1-5.4-6.5-8.2-9.8-3.2-3.9-8.7-3.8-12 0-2.8 3.3-5.5 6.6-8.2 9.8zm140.6 171.4c-1.3-1.5-2.8-3.1-4.2-4.8-1.5-1.7-2.9-3.4-4.3-5.2-2.9-3.4-8.5-3.5-11.4-.1s-5.7 6.8-8.5 10.1c2.8 3.4 5.7 6.8 8.6 10.2 2.8 3.3 8.6 3.2 11.4-.2 2.8-3.3 5.7-6.7 8.4-10zm9-171.5c2.9 3.5 5.9 7 8.9 10.6 2.3 2.7 8.2 2.7 10.5 0 3-3.6 6-7.2 8.8-10.4-2.4-2.9-5-5.9-7.5-9-4.1-5-9.1-5.1-13.2-.1-2.4 2.9-5 5.9-7.5 8.9zm-83.7-200.3c-.8-.8-1.9-1.8-2.8-2.8-2.2-2.5-4.2-5.1-6.4-7.6-2.5-2.8-8-2.8-10.5.1-3 3.6-6 7.2-8.9 10.5 2.7 3.3 5.5 6.6 8.2 9.8 3.1 3.7 8.7 3.7 11.8.1 3-3.4 5.8-6.7 8.6-10.1zm-28.4 28.7c2.9 3.4 5.8 7 8.7 10.5 2.5 3 8.4 3 10.8 0 3-3.5 5.9-7.1 8.7-10.4-2.8-3.4-5.7-6.9-8.6-10.3-2.7-3.1-8.4-3.1-11.1.1-2.9 3.4-5.7 6.8-8.5 10.1zm37.3 0c3 3.5 5.9 7.1 8.9 10.7 2.3 2.7 8.2 2.6 10.5 0 3-3.6 6-7.2 8.9-10.7-1.4-1.6-2.9-3.3-4.4-5-1.5-1.8-2.9-3.6-4.5-5.4-2.4-2.8-8.3-2.8-10.7 0-2.9 3.5-5.8 7-8.7 10.4zm28.4-28.5c-2.8-3.3-5.9-6.9-8.9-10.5-2.5-3-8.1-3-10.6 0-3 3.5-5.9 7.1-8.8 10.5 2.8 3.3 5.6 6.7 8.5 10.1 2.8 3.3 8.5 3.2 11.2 0 2.9-3.4 5.8-6.9 8.6-10.1zm-28.3 85.7c2.9 3.4 5.7 6.8 8.6 10.3 2.8 3.4 8.3 3.3 11.2-.1 2.8-3.4 5.7-6.8 8.4-10.1-2.7-3.3-5.6-6.6-8.4-10-2.9-3.4-8.7-3.4-11.5-.1-2.7 3.3-5.5 6.6-8.3 10zm-112.3 228.9c1.3 1.5 2.8 3.2 4.3 4.9 1.5 1.8 2.9 3.6 4.5 5.4 2.6 3 8.3 3.1 10.9.1 3-3.5 6-7.1 8.8-10.4-2.7-3.2-5.7-6.6-8.5-10-2.9-3.5-8.4-3.6-11.3-.1-3 3.3-5.8 6.7-8.7 10.1zm178-114.5c-1.3-1.5-2.8-3.1-4.2-4.8-1.5-1.8-2.9-3.6-4.5-5.4-2.7-3.1-8.4-3.1-11.1 0-2.9 3.5-5.8 6.9-8.6 10.3 1.3 1.5 2.8 3.1 4.1 4.7 1.4 1.7 2.8 3.5 4.3 5.2 3.2 3.7 8.6 3.6 11.7-.2 2.8-3.3 5.5-6.5 8.3-9.8zm-140.7-142.9c1.3 1.5 2.8 3.1 4.3 4.8s2.8 3.5 4.3 5.2c3 3.5 8.5 3.5 11.4 0 2.9-3.4 5.8-6.9 8.5-10-2.8-3.3-5.7-6.8-8.7-10.3-2.7-3.2-8.4-3.2-11.1 0-2.9 3.4-5.8 6.9-8.7 10.3zm178.1 285.8c-1.3-1.4-2.8-3.1-4.2-4.8-1.5-1.8-3-3.6-4.4-5.4-2.6-3.1-8.4-3.2-11.1-.1-2.9 3.5-5.8 6.9-8.6 10.3 1.4 1.7 2.9 3.4 4.3 5.1 1.4 1.7 2.9 3.4 4.3 5.1 2.7 3.2 8.5 3.1 11.2-.1 2.8-3.3 5.7-6.7 8.5-10.1zm-74.9-171.5c-3-3.5-6-7.2-9.1-10.7-2.3-2.6-8-2.6-10.2 0-3 3.6-6.1 7.2-9 10.7 2.8 3.3 5.6 6.7 8.4 10 2.9 3.4 8.6 3.4 11.4.1 2.9-3.4 5.8-6.8 8.5-10.1zm46.5-142.9c1.3 1.5 2.8 3.2 4.2 4.9l4.5 5.4c2.6 3.1 8.4 3.1 11-.1 2.9-3.5 5.8-7 8.6-10.2-2.7-3.3-5.6-6.8-8.6-10.2-2.6-3.1-8.4-3.2-11-.1-3 3.4-5.9 6.9-8.7 10.3zm-46.9 29.1c-.8-1.3-1.7-2.8-2.8-4.2-1.7-2.2-3.5-4.3-5.3-6.4-2.8-3.3-8.4-3.3-11.2 0-2.9 3.5-5.8 6.9-8.5 10.1 2.9 3.5 5.8 7 8.8 10.4 2.6 3 8.3 2.9 10.9-.1 2.8-3.6 5.8-7.1 8.1-9.8zm-177.4 113.8c1.4 1.6 2.8 3.2 4.3 4.9 1.4 1.7 2.8 3.5 4.3 5.2 2.8 3.2 8.6 3.2 11.3 0 2.9-3.5 5.8-6.9 8.6-10.2-1.4-1.5-2.8-3.2-4.3-4.9l-4.5-5.4c-2.5-3-8.3-3.2-10.8-.2-3.1 3.6-6 7.1-8.9 10.6zm103.1 85.9c-2.9-3.4-5.8-6.9-8.7-10.3-2.5-3-8.4-3-10.9-.1-3 3.5-6 7.1-8.8 10.4 2.9 3.4 5.8 6.9 8.7 10.3 2.8 3.2 8.3 3.2 11-.1 3-3.5 5.9-6.9 8.7-10.2zm-37.3 85.7c-1.3-1.5-2.8-3.1-4.1-4.7-1.5-1.7-2.9-3.4-4.3-5.2-3-3.7-8.8-3.6-11.8.1-2.7 3.3-5.5 6.6-8.1 9.8 2.9 3.5 5.9 7.1 8.9 10.6 2.3 2.7 8.2 2.6 10.5-.1 2.9-3.5 5.9-7 8.9-10.5zm37.2.1c-2.8-3.4-5.7-7-8.7-10.5-2.4-2.9-8.3-2.9-10.7-.1-3 3.5-5.9 7-8.7 10.4 2.8 3.3 5.6 6.7 8.5 10.1 2.8 3.3 8.4 3.3 11.2 0 2.8-3.3 5.7-6.7 8.4-9.9zm112.2-28.7c-2.8-3.3-5.7-6.7-8.7-10.2-2.8-3.3-8.3-3.3-11-.1-2.9 3.5-5.9 6.9-8.7 10.3 1.3 1.4 2.7 3 4.1 4.7 1.5 1.7 2.9 3.4 4.3 5.2 3.1 3.7 8.5 3.7 11.7-.1 2.9-3.3 5.7-6.7 8.3-9.8zm-74.8-171.6c-2.8-3.4-5.7-6.9-8.7-10.4-2.6-3.1-8.3-3.1-10.9 0-3 3.5-5.9 7-8.7 10.4 3 3.6 6.1 7.2 9.2 10.8 2.1 2.5 7.9 2.4 10.1-.1 3-3.5 6.1-7.2 9-10.7zm-140.5-114.3c1.3 1.5 2.8 3.1 4.2 4.8 1.5 1.8 2.9 3.6 4.5 5.4 2.7 3.1 8.5 3.1 11.1 0 2.9-3.5 5.9-7 8.7-10.3-1.3-1.5-2.8-3.2-4.3-4.9l-4.5-5.4c-2.5-3-8.4-3-10.9 0-3 3.4-5.9 7-8.8 10.4zm177.6 343.5c-.9-1.2-1.7-2.6-2.7-3.9-2-2.5-4.1-5-6.2-7.4-1.9-2.2-7.9-2.2-9.8-.1-3.2 3.7-6.3 7.4-9.3 11 1.4 1.7 2.8 3.3 4.2 4.9 1.4 1.7 2.9 3.4 4.3 5.2 2.8 3.4 8.6 3.4 11.4 0 2.8-3.4 5.7-6.8 8.1-9.7zm37.6-257.5-3.9-4.8c-1.4-1.7-2.7-3.4-4.1-5-3.5-4.1-8.7-4.2-12.1-.1-2.7 3.3-5.5 6.5-8.1 9.6 2.7 3.3 5.5 6.6 8.4 10 2.9 3.4 8.6 3.5 11.4.1 2.9-3.4 5.8-6.8 8.4-9.8zm.2 228.5c-1.4-1.6-2.9-3.2-4.3-4.9-1.5-1.8-2.9-3.6-4.4-5.4-2.5-3-8.4-3-10.9 0-2.9 3.5-5.8 7-8.6 10.3 2.8 3.4 5.7 6.8 8.6 10.2 2.7 3.2 8.5 3.2 11.2 0 2.7-3.5 5.6-6.9 8.4-10.2zm-187 .1c-2.6-3.2-5.4-6.4-8-9.8-2.2-2.8-8.4-4.1-10.4-1.9-3.5 3.7-6.7 7.7-9.9 11.4l9 10.8c2.6 3 8 2.9 10.5-.1 3-3.6 6-7.1 8.8-10.4zm83.9-28.7c2.7 3.3 5.6 6.7 8.5 10.1 2.8 3.3 8.4 3.4 11.2.1 3-3.5 5.9-7 8.4-9.9-1.3-1.6-2.7-3.4-4.1-5.2l-4.5-5.4c-2.7-3.1-8.1-3.1-10.8.1-3 3.3-5.9 6.8-8.7 10.2zm-46.5-200.1c-2.8-3.3-5.7-6.8-8.7-10.3-2.7-3.2-8.3-3.2-11.1 0-2.9 3.4-5.7 6.8-8.6 10.2 2.6 3.1 5.3 6.3 8 9.5 3.4 4.1 9 4.1 12.3.1 2.8-3.2 5.5-6.4 8.1-9.5zm187-.1c-1.4-1.5-2.9-3.2-4.4-4.9-1.5-1.8-2.9-3.6-4.5-5.4-2.6-3-8.2-3-10.8.1-2.9 3.4-5.8 6.9-8.6 10.2 2.9 3.4 5.8 7 8.8 10.5 2.4 2.8 8.4 2.7 10.7 0 3-3.6 5.9-7.1 8.8-10.5zm-74.9-142.9c-2.9-3.4-5.8-6.9-8.8-10.4-2.5-3-8.1-3-10.6 0-3 3.5-5.9 7-8.8 10.4 2.8 3.4 5.7 6.9 8.7 10.4 2.5 2.9 8.4 2.9 10.9 0 2.9-3.5 5.8-7 8.6-10.4zm74.8 400.3c-2.9-3.4-5.8-6.9-8.8-10.4-2.5-3-8.3-2.9-10.9 0-2.9 3.5-5.8 7-8.7 10.3 1.4 1.7 2.9 3.3 4.3 5 1.5 1.7 2.9 3.4 4.3 5.2 2.6 3.1 8.4 3.2 11 .1 3.1-3.4 6-6.9 8.8-10.2zm-74.8-228.8c-2.9-3.4-5.8-6.9-8.7-10.4-2.6-3.1-8.3-3-10.9 0-2.9 3.5-5.9 7-8.7 10.3 2.8 3.3 5.6 6.7 8.5 10.1 2.9 3.5 8.4 3.5 11.3 0 2.9-3.3 5.8-6.7 8.5-10zm-28.3-28.6c2.9 3.4 5.8 6.9 8.7 10.4 2.5 2.9 8.4 2.9 10.9 0 3-3.5 6-7 8.7-10.2-2.8-3.3-5.7-6.8-8.5-10.2-2.9-3.4-8.4-3.4-11.2 0-2.9 3.3-5.7 6.6-8.6 10zm-9.1-142.9c-2.8-3.3-5.6-6.6-8.4-10-3-3.6-8.4-3.7-11.4-.1-2.9 3.4-5.7 6.8-8.4 10 2.9 3.4 5.7 6.9 8.6 10.3 2.6 3.1 8.5 3 11.1-.1 2.9-3.4 5.7-6.8 8.5-10.1zm.1 228.8c-2.8-3.3-5.7-6.8-8.7-10.3-2.7-3.2-8.4-3.1-11.1 0-2.9 3.4-5.8 6.9-8.5 10.2l8.1 9.6c3.5 4.1 8.6 4.1 12.1.1 2.7-3.3 5.5-6.5 8.1-9.6zm9.1-.1c2.9 3.4 5.7 6.8 8.6 10.2 2.9 3.3 8.3 3.2 11.2-.2s5.8-6.9 8.5-10.1c-1.3-1.5-2.8-3.1-4.2-4.8-1.5-1.7-2.8-3.5-4.3-5.2-3-3.5-8.5-3.5-11.4-.1-2.9 3.5-5.7 6.9-8.4 10.2zm103-200.1c-2.8-3.3-5.7-6.9-8.7-10.4-2.8-3.3-8.2-3.2-11 .1-2.9 3.5-5.9 6.9-8.6 10.2 2.9 3.4 5.8 7 8.9 10.5 2.4 2.8 8.4 2.7 10.7-.1 2.9-3.5 5.9-7 8.7-10.3zm-65.6 85.7 9 10.8c2.1 2.5 8 2.6 10.1.1 3.1-3.6 6.2-7.4 9.2-10.9l-4.2-4.8c-1.5-1.7-2.8-3.5-4.3-5.2-2.9-3.4-8.7-3.3-11.5.1-2.8 3.2-5.5 6.6-8.3 9.9zm-.1-114.3c1.3 1.5 2.6 3 3.9 4.6 1.4 1.6 2.7 3.3 4.1 5 3.3 4 8.8 4 12.1.1 2.7-3.3 5.5-6.5 8.1-9.6-2.7-3.3-5.5-6.6-8.3-9.9-3.1-3.7-8.5-3.7-11.6-.1-2.7 3.2-5.4 6.5-8.3 9.9zm-149.5 228.7c2.8 3.3 5.6 6.7 8.5 10.1 3 3.5 8.4 3.4 11.4-.1 2.9-3.4 5.7-6.8 8.5-10.1-1.2-1.4-2.8-3.1-4.3-4.8-1.5-1.8-2.9-3.6-4.5-5.4-2.7-3.1-8.4-3.1-11.1.1-2.9 3.5-5.7 6.9-8.5 10.2zm140.4 114.4c-2.8-3.3-5.8-6.8-8.8-10.3-2.7-3.2-8.1-3.2-10.8-.1-3 3.5-5.9 6.9-8.8 10.3 2.7 3.2 5.5 6.5 8.3 9.9 3.1 3.7 8.6 3.7 11.7-.1 3-3.2 5.8-6.6 8.4-9.7zm-65.6 28.6c2.9 3.5 5.9 7.1 8.9 10.6 2.3 2.7 8.2 2.7 10.5 0 3-3.6 6-7.2 8.9-10.6-1.3-1.5-2.7-3.1-4.1-4.7-1.4-1.6-2.7-3.3-4.1-5-3.2-3.9-8.7-3.9-12-.1-2.7 3.3-5.4 6.5-8.1 9.8zm28.2-114.3c-2.9-3.5-5.9-7.1-9-10.7-2.3-2.7-8-2.7-10.3 0-3 3.6-6 7.2-8.9 10.7 2.7 3.2 5.4 6.5 8.1 9.7 3.2 3.8 8.8 3.9 12 .1 2.7-3.4 5.5-6.6 8.1-9.8zm-28.2-114.5c2.8 3.4 5.7 6.9 8.7 10.4 2.6 3 8.4 2.9 10.9 0 3-3.5 5.9-7 8.7-10.3-2.8-3.3-5.6-6.6-8.4-10-3.1-3.6-8.5-3.6-11.6 0-2.8 3.3-5.6 6.6-8.3 9.9zm140.4 143.1c-2.7-3.1-5.5-6.5-8.4-9.9-3-3.5-8.6-3.6-11.6-.1-2.9 3.4-5.7 6.8-8.4 9.9 2.6 3.1 5.3 6.3 8 9.5 3.5 4.2 8.8 4.2 12.3.1 2.8-3.2 5.5-6.5 8.1-9.5zm-149.5-143c-2.8-3.3-5.7-6.8-8.7-10.2-2.8-3.2-8.3-3.2-11.1 0-2.9 3.4-5.8 6.9-8.6 10.2 2.9 3.5 5.9 7.1 8.9 10.6 2.3 2.6 8.3 2.5 10.5-.1 3.2-3.6 6.2-7.2 9-10.5zm121.3-143.1c2.8 3.4 5.7 6.8 8.5 10.2 2.7 3.2 8.6 3.1 11.3-.1 2.8-3.4 5.7-6.8 8.4-10.1-2.8-3.3-5.7-6.7-8.5-10.2-2.8-3.3-8.4-3.4-11.1 0-2.9 3.5-5.8 6.8-8.6 10.2zm-224.3 0c2.9 3.5 5.9 7.1 8.9 10.6 2.3 2.6 8.3 2.6 10.5-.1 3-3.5 5.9-7.1 8.8-10.4-3-3.6-6-7.2-9.1-10.8-2.2-2.6-8.1-2.4-10.3.1-3 3.6-5.9 7.1-8.8 10.6zm224.1 85.8c2.8 3.4 5.7 6.8 8.6 10.2 2.7 3.2 8.5 3.2 11.2 0 2.9-3.5 5.8-6.9 8.6-10.1-2.8-3.3-5.7-6.9-8.7-10.4-2.5-2.9-8.5-2.9-10.9 0-3 3.4-5.9 6.9-8.8 10.3zm-112 28.6c3 3.6 6 7.2 9 10.7 2.2 2.6 7.9 2.7 10.1.1 3.1-3.6 6.2-7.3 9.1-10.9l-4.2-4.8c-1.4-1.7-2.8-3.5-4.3-5.2-2.9-3.4-8.6-3.3-11.5.1-2.7 3.4-5.4 6.7-8.2 10zm-83.9 28.6c-2.7-3.2-5.6-6.6-8.5-10-3-3.5-8.5-3.5-11.4-.1-2.9 3.4-5.7 6.8-8.4 10 2.8 3.3 5.6 6.7 8.4 10.1 2.8 3.4 8.6 3.4 11.4 0 2.9-3.3 5.7-6.7 8.5-10zm-28.2 114.4c2.8 3.4 5.7 6.8 8.5 10.2 2.7 3.1 8.5 3.2 11.1.1 2.9-3.5 5.8-6.9 8.6-10.2-2.8-3.3-5.8-6.8-8.7-10.3-2.7-3.2-8.3-3.2-11 0-2.9 3.4-5.8 6.9-8.5 10.2zm65.5-257.3c-2.9-3.4-5.8-6.9-8.7-10.4-2.5-3-8.2-3.1-10.7-.2-3 3.5-5.9 7-8.8 10.5 2.9 3.5 5.7 6.9 8.6 10.3 2.6 3 8.5 3 11.1-.1 2.9-3.3 5.7-6.8 8.5-10.1zm-37.2 85.7c-2.8-3.2-5.7-6.7-8.7-10.1-2.7-3.2-8.5-3.1-11.3.1-2.9 3.4-5.7 6.8-8.5 10.1 1.3 1.5 2.8 3.1 4.2 4.8 1.5 1.7 2.8 3.5 4.3 5.2 2.8 3.4 8.6 3.4 11.4.1 2.9-3.5 5.8-6.9 8.6-10.2zm46.3 257.5c1.4 1.6 2.9 3.2 4.3 4.9 1.5 1.8 2.9 3.6 4.5 5.4 2.6 3 8.3 3 10.9-.1 3-3.5 6-7.1 8.7-10.3-2.8-3.3-5.7-6.6-8.6-10s-8.3-3.5-11.2-.1c-2.9 3.4-5.7 6.8-8.6 10.2zm-46.4-57.3c-2.8-3.3-5.7-6.7-8.5-10.1-2.8-3.3-8.6-3.3-11.4 0-2.9 3.4-5.7 6.8-8.4 10 2.8 3.4 5.7 6.9 8.7 10.3 2.6 3 8.5 3 11.1 0 2.8-3.4 5.8-6.9 8.5-10.2zm74.7-171.6c-2.7-3.2-5.4-6.5-8.2-9.7-3.1-3.7-8.7-3.8-11.8-.1-2.7 3.3-5.5 6.6-8.1 9.8 2.8 3.4 5.7 6.8 8.5 10.2 2.7 3.3 8.3 3.4 11 .1 2.9-3.4 5.7-6.8 8.6-10.3zm-28.1-114.4c2.8 3.4 5.7 6.9 8.7 10.4 2.5 2.9 8.4 2.9 10.9 0 2.9-3.5 5.8-7 8.7-10.4-1.3-1.5-2.8-3.1-4.2-4.8l-4.5-5.4c-2.8-3.2-8.3-3.2-11 0-3 3.5-5.8 6.9-8.6 10.2zm74.7 371.8c3 3.6 5.9 7.2 9 10.7 2.2 2.6 8.1 2.5 10.3-.1 3.1-3.6 6.1-7.2 8.9-10.5-2.8-3.4-5.7-6.9-8.7-10.3-2.7-3.1-8.4-3.1-11.1.1-2.8 3.3-5.6 6.7-8.4 10.1zm103-114.4c-1.4-1.6-3-3.3-4.4-5.1-1.5-1.8-2.9-3.6-4.4-5.4-2.5-3-8.2-2.9-10.7.1-2.9 3.5-5.8 7-8.7 10.4 2.7 3.2 5.5 6.5 8.2 9.8 3.1 3.7 8.8 3.7 11.8 0 2.7-3.2 5.5-6.5 8.2-9.8zm0 85.8c-2.8-3.3-5.7-6.8-8.7-10.3-2.8-3.3-8.2-3.2-11 .1-2.9 3.4-5.8 6.9-8.7 10.3.3.3.9.6 1.3 1.1 2.5 2.9 5 5.9 7.4 8.8 2.8 3.3 8.5 3.3 11.2 0 2.8-3.2 5.7-6.7 8.5-10zm-.1-228.8c-2.9-3.5-5.8-7-8.8-10.5-2.3-2.7-8.3-2.8-10.6-.1-3 3.5-5.9 7.1-8.8 10.5 3 3.5 5.9 7 8.8 10.5 2.4 2.9 8.2 2.9 10.6 0 3-3.4 6-6.9 8.8-10.4zm-252.5 114.4c2.8 3.3 5.6 6.7 8.4 10 2.9 3.5 8.5 3.4 11.4 0 2.9-3.4 5.8-6.8 8.3-9.8-1.1-1.4-2.5-3-3.9-4.7-1.4-1.7-2.7-3.3-4.1-5-3.4-4.1-8.8-4.2-12.2-.1-2.5 3.2-5.2 6.4-7.9 9.6zm177.8 28.7c-2.9-3.4-5.9-7-9-10.6-2.4-2.8-8.1-2.8-10.4 0-3 3.5-5.9 7.1-8.8 10.5 2.9 3.5 5.8 7 8.7 10.4 2.5 2.9 8.4 2.8 10.9-.2 2.9-3.3 5.8-6.8 8.6-10.1zm-149.5-143.1c-2.8-3.4-5.7-6.9-8.7-10.4-2.3-2.7-8.4-3-10.6-.4-3.1 3.6-6 7.2-8.9 10.7 2.9 3.5 5.8 6.9 8.6 10.4 2.5 3 8.4 3.1 10.9.1 2.9-3.5 5.8-7 8.7-10.4zm186.9 143.1c-2.8-3.4-5.7-6.8-8.7-10.3-2.7-3.2-8.3-3.3-11 0-2.9 3.5-5.8 7-8.6 10.3 1.4 1.6 2.8 3.2 4.1 4.9 1.4 1.6 2.7 3.3 4.1 5 3 3.6 8.8 3.6 11.8 0 2.8-3.4 5.6-6.7 8.3-9.9zm-149.5 0c-3-3.5-6-7.2-9-10.8-2.1-2.4-7.9-2.7-9.9-.3-3.2 3.7-6.3 7.5-9.2 11 2.7 3.2 5.3 6.4 7.9 9.6 3.4 4 9 4 12.3 0 2.6-3.3 5.3-6.4 7.9-9.5zm9.2 0c2.7 3.3 5.5 6.6 8.2 9.9 2.9 3.5 8.8 3.5 11.7 0 2.8-3.4 5.6-6.7 8.4-9.9-1.2-1.4-2.7-3-4.1-4.6-1.4-1.6-2.7-3.3-4.1-5-3.5-4.2-8.6-4.3-12-.1-2.8 3.2-5.5 6.4-8.1 9.7zm-66.1 129.1c-.7-1.1-1.3-2.3-2.2-3.4-1.8-2.4-3.7-4.8-5.6-7.2-2.9-3.6-7.9-3.6-10.8 0-2.8 3.4-5.7 6.8-8.4 10.2 1.2 1.4 2.5 2.9 3.8 4.4l3.9 4.8c3.8 4.5 8.4 4.6 12.3 0 2.5-3.2 5-6.3 7-8.8zm-27.1-57.8c2.9 3.4 5.8 7 8.7 10.4 2.8 3.2 7.8 3 10.4-.2 2.8-3.5 5.8-6.9 8.4-10.1-2.9-3.4-5.7-6.9-8.6-10.3-2.7-3.2-7.6-3.3-10.3-.2-2.8 3.5-5.7 6.9-8.6 10.4zm224.3-228.7c2.8 3.4 5.7 6.9 8.6 10.3 2.7 3.2 7.6 3.3 10.3.1 3-3.5 5.9-7 8.8-10.4l-4.2-4.8c-1.5-1.7-2.8-3.5-4.3-5.2-2.8-3.2-8.1-3.2-10.8.1-2.9 3.3-5.6 6.6-8.4 9.9zm-84.6.1c-2.9-3.4-5.7-7-8.7-10.4-2.3-2.7-7.8-2.7-10.1-.1-3 3.5-5.9 7.1-8.7 10.5 1.5 1.7 2.9 3.4 4.3 5.1s2.8 3.5 4.3 5.2c2.7 3.3 7.7 3.2 10.4-.1 2.8-3.5 5.7-6.9 8.5-10.2zm149.4 285.9c-3-3.6-5.9-7.2-8.9-10.7-2.4-2.8-7.3-2.8-9.7 0-3 3.6-5.9 7.1-8.9 10.6 1.4 1.6 2.8 3.3 4.3 5l4.5 5.4c2.4 2.9 7.7 2.9 10.1 0 3-3.4 5.9-6.9 8.6-10.3zm-102.2-286c2.6 3.2 5.3 6.3 7.9 9.5 3.7 4.5 8 4.5 11.8 0 2.7-3.2 5.3-6.4 7.9-9.5-1.4-1.6-2.8-3.1-4.2-4.8-1.4-1.6-2.7-3.3-4.1-5-3-3.5-8.2-3.5-11.2 0-2.7 3.3-5.4 6.6-8.1 9.8zm-186.9 257.3c3 3.5 5.9 7.1 8.9 10.7 2.4 2.8 7.4 2.8 9.8-.1 3-3.6 6-7.1 9-10.6-.6-.5-1.3-1-1.9-1.7-1.9-2.3-3.8-4.5-5.5-6.9-3.5-5-8.6-5.3-12.4-.7-2.6 3.1-5.3 6.2-7.9 9.3zm37.4-171.5c2.9 3.6 5.8 7.1 8.8 10.6 2.4 2.8 7.6 2.8 9.9 0 3-3.6 5.9-7.1 8.7-10.5-2.8-3.4-5.7-6.8-8.6-10.3-2.5-3-7.8-3.1-10.3-.1-2.8 3.4-5.7 6.9-8.5 10.3zm251.8 142.9c-1.3-1.4-2.6-2.9-4-4.5l-3.9-4.8c-3.8-4.6-8.2-4.6-12 .1-2.6 3.1-5.2 6.2-7.7 9.2 1.3 1.5 2.8 3.2 4.2 5 1.4 1.7 2.8 3.5 4.3 5.2 2.7 3.2 7.8 3.3 10.5.1 2.9-3.4 5.8-6.8 8.6-10.3zm-139.6-142.9 8.7 10.5c2.5 3 7.6 2.9 10.1 0 2.9-3.5 5.8-7 8.7-10.4-2.8-3.3-5.6-6.7-8.5-10.1-2.8-3.3-7.8-3.3-10.7.1-2.8 3.3-5.6 6.6-8.3 9.9zm112.1 57.2c2.8 3.3 5.5 6.7 8.3 10 2.9 3.5 7.9 3.5 10.8 0 2.8-3.4 5.6-6.8 8.3-10.1-1.4-1.6-2.9-3.3-4.3-5-1.4-1.7-2.8-3.5-4.3-5.2-3-3.5-7.6-3.4-10.6.2-2.7 3.5-5.5 6.8-8.2 10.1zm-186.9-143c2.8 3.4 5.7 6.9 8.6 10.4 2.6 3.2 7.6 3.1 10.3-.1 2.9-3.5 5.8-7 8.6-10.3-2.7-3.3-5.6-6.7-8.5-10.1-2.6-3.1-8-3.1-10.6 0-2.8 3.4-5.6 6.7-8.4 10.1zm-74.8 143c2.8 3.4 5.6 6.7 8.4 10.1 2.9 3.5 7.9 3.3 10.8-.2 2.8-3.4 5.6-6.7 8.2-9.8-2.8-3.4-5.7-6.9-8.6-10.4-2.7-3.2-7.6-3.3-10.2-.1-2.8 3.5-5.7 6.9-8.6 10.4zm64.9-143c-1.3-1.5-2.7-3.1-4.1-4.7-1.5-1.7-2.9-3.5-4.3-5.2-2.7-3.2-8.1-3.3-10.8-.1-2.8 3.3-5.6 6.7-8.3 10 2.6 3.2 5.3 6.5 8 9.7 3.6 4.3 8 4.2 11.5 0 2.6-3.3 5.3-6.5 8-9.7zm-27.7 286.1c2.9 3.3 5.9 6.9 9 10.3 2.7 2.9 7.8 2.6 10.3-.4 2.8-3.4 5.7-6.8 8.3-9.9-2.9-3.5-5.9-7.1-8.9-10.7-2.4-2.9-7.3-2.9-9.8.1-2.9 3.5-5.9 7.1-8.9 10.6zm-37.2-200.3c2.9 3.5 5.8 7.1 8.8 10.5 2.3 2.6 7.8 2.6 10 0 3-3.5 5.9-7.1 8.7-10.4l-8.1-9.6c-3.3-4-8.2-4-11.6.1-2.5 3.1-5.2 6.3-7.8 9.4zm177.1-85.7c-2.7-3.2-5.3-6.4-8-9.6-3.2-3.8-8.4-3.8-11.5 0-2.7 3.2-5.4 6.4-8 9.6 2.8 3.3 5.6 6.8 8.5 10.2 2.9 3.5 7.7 3.5 10.6 0 2.7-3.5 5.6-7 8.4-10.2zm9.8 85.7 8.4 10.2c2.7 3.3 7.7 3.4 10.4.1 2.9-3.5 5.8-6.9 8.6-10.2-2.9-3.4-5.7-6.9-8.6-10.3-2.6-3.2-7.9-3.1-10.5.1-2.7 3.4-5.5 6.8-8.3 10.1zm74.8-143c2.8 3.4 5.7 6.8 8.5 10.3 2.7 3.2 7.8 3.2 10.4 0 2.9-3.5 5.8-6.9 8.5-10.2-2.7-3.3-5.5-6.6-8.3-10-2.8-3.4-8.1-3.4-10.9 0-2.7 3.3-5.5 6.6-8.2 9.9zm27.5-57.1c-2.9-3.4-5.8-6.9-8.7-10.4-2.6-3.1-7.7-3-10.3.2-2.8 3.4-5.7 6.8-8.4 10.1 2.8 3.3 5.6 6.8 8.5 10.2 2.7 3.2 7.8 3.2 10.5.1 2.7-3.4 5.6-6.8 8.4-10.2zm0 371.7c-2.6-3.1-5.4-6.5-8.2-9.8-3.3-3.9-8-3.9-11.1 0-2.7 3.3-5.5 6.6-8.1 9.8 2.8 3.4 5.8 7 8.8 10.5 2.4 2.8 7.6 2.8 9.9 0 2.9-3.6 5.9-7.1 8.7-10.5zm-149.6-171.5c-2.8-3.3-5.6-6.7-8.4-10-2.9-3.5-7.9-3.5-10.8 0-2.8 3.3-5.6 6.7-8.3 9.9l8.7 10.5c2.5 3 7.6 3 10.1 0 3-3.5 5.9-7 8.7-10.4zm.1 85.8c-2.9-3.5-5.9-7.1-8.9-10.7-2.3-2.7-7.4-2.7-9.7 0-3 3.6-6 7.2-8.9 10.7 1.4 1.6 2.7 3.1 4.1 4.7s2.7 3.3 4.1 5c2.9 3.5 8.2 3.6 11.1.1 2.7-3.3 5.5-6.6 8.2-9.8zm-37.4 0c-2.9-3.4-5.9-7.1-8.9-10.7-2.3-2.7-7.5-2.8-9.7-.1-3 3.6-6 7.2-8.9 10.7 2.8 3.3 5.5 6.7 8.3 9.9 2.8 3.3 8.2 3.3 10.9 0 2.8-3.3 5.6-6.6 8.3-9.8zm149.5 0c-2.9-3.4-5.8-7-8.8-10.6-2.4-2.9-7.5-2.9-9.9 0-3 3.6-5.9 7.1-8.8 10.6 2.7 3.2 5.3 6.3 7.9 9.5 3.2 3.8 8.3 3.9 11.5.1l8.1-9.6zm9.9-85.9c2.9 3.5 5.8 7.1 8.8 10.6 2.3 2.6 7.8 2.5 10-.1 2.9-3.5 5.8-7 8.6-10.3-2.7-3.3-5.6-6.8-8.4-10.2-2.7-3.3-8-3.2-10.7.1-2.8 3.2-5.6 6.6-8.3 9.9zm-122-142.9c-1.3-1.5-2.7-3.1-4.1-4.8-1.4-1.6-2.7-3.3-4.1-5-3.1-3.7-8.1-3.7-11.3.1-2.7 3.3-5.5 6.5-8.1 9.6 2.8 3.3 5.6 6.7 8.4 10 2.8 3.4 7.9 3.4 10.7.1 2.8-3.3 5.6-6.6 8.5-10zm37.3 0c-2.8-3.3-5.6-6.7-8.4-10-2.8-3.3-8-3.3-10.7 0-2.8 3.4-5.7 6.8-8.3 10 2.9 3.5 5.8 7 8.8 10.5 2.3 2.7 7.7 2.7 10-.1 2.8-3.5 5.7-7 8.6-10.4zm-177-28.7c2.9 3.4 5.9 7 8.9 10.5 2.3 2.7 7.6 2.7 9.9 0 3-3.6 5.9-7.1 8.7-10.4-2.8-3.3-5.8-6.8-8.8-10.3-2.6-3.1-7.4-3.1-10 0-2.9 3.3-5.9 6.8-8.7 10.2zm177 57.3c-2.7-3.3-5.5-6.6-8.3-10-3.1-3.6-7.9-3.6-11 .1-2.7 3.3-5.5 6.6-8.1 9.7 2.9 3.5 5.7 7 8.7 10.5 2.5 2.9 7.7 2.9 10.1 0 2.9-3.5 5.8-7 8.6-10.3zm37.4 314.5c-2.9-3.5-6-7.2-9.1-10.9-2.2-2.6-7.2-2.6-9.3 0-3.1 3.7-6.1 7.4-9 10.9 2.9 3.4 5.7 6.9 8.6 10.3 2.4 2.9 7.7 2.9 10.2 0 2.9-3.4 5.8-6.9 8.6-10.3zm37.4.1c-2.9-3.5-5.8-7-8.8-10.6-2.5-3-7.3-3-9.8 0-3 3.6-5.9 7.1-8.8 10.6 1.4 1.6 2.8 3.3 4.3 5 1.4 1.7 2.8 3.5 4.3 5.2 2.5 3 7.8 3 10.4 0 2.7-3.5 5.6-6.9 8.4-10.2zm0-200.2c-2.8-3.3-5.7-6.8-8.6-10.3-2.6-3-7.7-3.1-10.3 0-2.9 3.5-5.8 6.9-8.6 10.3l8.7 10.5c2.4 2.8 7.5 2.9 9.9.1 3.1-3.6 6-7.2 8.9-10.6zm-187 171.6c-2.9-3.5-5.8-7.1-8.9-10.7-2.2-2.6-7.4-2.6-9.6-.1-3.1 3.6-6 7.2-9 10.7 3 3.6 5.9 7.1 8.9 10.6 2.4 2.7 7.6 2.6 10-.1 3-3.6 5.9-7.1 8.6-10.4zm122.1-286.1c2.8 3.4 5.7 6.9 8.7 10.4 2.4 2.9 7.7 2.9 10.1 0 3-3.5 5.9-7 8.7-10.4-2.9-3.4-5.8-6.9-8.7-10.4-2.5-2.9-7.6-3-10.1-.1-2.9 3.6-5.8 7.1-8.7 10.5zm-122-28.5c-1.3-1.5-2.8-3.2-4.2-4.9s-2.8-3.5-4.3-5.2c-2.6-3.1-7.9-3.2-10.6 0-2.9 3.4-5.7 6.8-8.5 10.1 2.8 3.4 5.7 6.8 8.6 10.2 2.7 3.2 7.8 3.1 10.5-.1 2.8-3.4 5.6-6.7 8.5-10.1zm122.1-28.7 8.7 10.5c2.3 2.7 7.7 2.6 10 0 3-3.5 6-7.1 8.7-10.3-2.9-3.4-5.8-6.9-8.7-10.4-2.7-3.2-7.6-3.1-10.3.1-2.8 3.4-5.6 6.7-8.4 10.1zm-47.3 57.2c-1.3-1.5-2.9-3.2-4.4-5l-4.5-5.4c-2.3-2.8-7.6-2.9-9.9-.1-3 3.5-5.9 7.1-8.7 10.5 2.9 3.5 5.8 7.1 8.7 10.6 2.3 2.8 7.6 2.7 9.9-.1 3.1-3.6 6.1-7.1 8.9-10.5zm-64.9 114.4c2.9 3.5 5.8 7.1 8.8 10.7 2.3 2.7 7.5 2.7 9.8.1 3-3.6 6-7.2 8.8-10.6-2.8-3.4-5.7-6.9-8.6-10.3-2.5-3-7.8-3-10.3 0-2.8 3.3-5.7 6.7-8.5 10.1zm0-114.4c2.8 3.4 5.7 6.9 8.6 10.4 2.4 2.9 7.7 2.9 10.1.1 3-3.5 5.9-7.1 8.7-10.4-2.8-3.4-5.8-6.9-8.8-10.5-2.3-2.7-7.6-2.8-9.9 0-2.9 3.4-5.8 6.9-8.7 10.4zm112.2 285.9c2.8 3.3 5.5 6.6 8.3 9.9 2.9 3.5 7.9 3.6 10.8.2 2.8-3.3 5.6-6.7 8.4-9.9-2.8-3.3-5.7-6.8-8.6-10.2s-7.8-3.3-10.6.2c-2.8 3.2-5.6 6.5-8.3 9.8zm-187-57.2c2.7 3.2 5.4 6.5 8.1 9.8 3.1 3.7 8.2 3.7 11.2.1 2.8-3.3 5.6-6.7 8.1-9.7-2.9-3.5-5.8-7.1-8.8-10.6-2.4-2.9-7.5-2.8-9.9 0-2.9 3.5-5.8 7-8.7 10.4zm27.5-257.2c-2.6-3.1-5.4-6.4-8.1-9.7-3.2-3.8-8.2-3.9-11.4 0-2.7 3.2-5.4 6.5-8 9.6 2.6 3.1 5.4 6.4 8.1 9.7 3.3 3.9 8.1 3.9 11.3 0 2.7-3.3 5.5-6.5 8.1-9.6zm122 228.8c2.8 3.4 5.6 6.7 8.4 10.1 2.6 3 8 3 10.6 0 2.9-3.4 5.7-6.8 8.5-10-2.7-3.3-5.6-6.8-8.5-10.3-2.7-3.3-7.7-3.3-10.4-.1-2.9 3.4-5.7 6.8-8.6 10.3zm112.2 28.5c2.6 3.1 5.3 6.2 7.9 9.4 3.4 4.1 8.3 4.1 11.7 0 2.7-3.2 5.3-6.4 7.8-9.3-2.8-3.4-5.7-7-8.7-10.4-2.6-3.1-7.6-3.1-10.3.1l-8.4 10.2zm-112.1 57.2c1.4 1.6 2.8 3.3 4.2 5 1.4 1.7 2.8 3.5 4.3 5.2 2.7 3.2 7.8 3.1 10.5 0 2.9-3.4 5.7-6.8 8.5-10.1-1.4-1.6-2.9-3.3-4.3-5-1.5-1.8-2.9-3.6-4.4-5.4-2.6-3.1-7.7-3.1-10.3.1-2.8 3.3-5.6 6.7-8.5 10.2zm-112.4-28.7c2.9 3.5 5.9 7 8.9 10.6 2.4 2.8 7.8 2.7 10.2-.1 3-3.5 5.9-7.1 8.7-10.4-1.3-1.5-2.7-3-4-4.5-1.3-1.6-2.6-3.2-4-4.8-3.4-4.1-8.3-4.1-11.8 0-2.7 3-5.4 6.2-8 9.2zm65.1-314.3c-2.7-3.2-5.4-6.5-8.2-9.8-3.3-4-7.8-4-11.1-.1-2.7 3.3-5.5 6.5-8.1 9.7 2.7 3.3 5.4 6.5 8.1 9.7 3.1 3.8 8.1 3.8 11.2.1 2.7-3.2 5.4-6.5 8.1-9.6zm-27.5 28.5c2.8 3.4 5.7 6.9 8.7 10.4 2.5 2.9 7.7 2.8 10.1-.1 2.9-3.5 5.8-7 8.7-10.3-2.7-3.2-5.6-6.6-8.4-10.1-2.7-3.2-8-3.3-10.7 0-2.9 3.4-5.6 6.8-8.4 10.1zm139.6 0c-2.7-3.3-5.5-6.7-8.4-10.1-2.8-3.3-8-3.2-10.7.1-2.8 3.4-5.7 6.8-8.4 10 1.4 1.6 2.8 3.2 4.1 4.8 1.4 1.7 2.9 3.4 4.3 5.1 2.8 3.4 7.9 3.4 10.6.1 2.9-3.3 5.7-6.7 8.5-10zm37.4-28.5c-2.9-3.4-5.8-6.9-8.7-10.4-2.6-3.1-7.5-3.1-10.1 0-2.9 3.5-5.8 7-8.6 10.3 2.8 3.4 5.6 6.8 8.4 10.1 2.6 3.2 7.9 3.2 10.5.1 2.9-3.4 5.7-6.8 8.5-10.1zm-149.6 371.7c-2.8-3.4-5.8-7-8.8-10.6-2.5-3-7.4-3-9.8-.1-3 3.6-5.9 7.2-8.9 10.7 1.3 1.5 2.7 3.1 4.1 4.7 1.5 1.7 2.9 3.5 4.3 5.2 2.8 3.3 7.9 3.4 10.7.1 2.9-3.4 5.7-6.7 8.4-10zm37.4-85.8c-2.8-3.4-5.8-7-8.8-10.5-2.4-2.9-7.5-2.9-9.9 0-3 3.6-5.9 7.1-8.7 10.5 2.9 3.4 5.8 6.9 8.6 10.3 2.4 2.8 7.8 2.8 10.1 0 2.9-3.5 5.8-6.9 8.7-10.3zm-64.8-.1c2.9 3.5 5.8 7 8.7 10.4 2.4 2.8 7.8 2.8 10.1 0 2.9-3.5 5.8-6.9 8.6-10.2-2.9-3.5-5.8-7.1-8.8-10.6-2.4-2.9-7.5-2.9-9.9 0-2.9 3.4-5.8 6.9-8.7 10.4zm177 28.6c-2.6-3.1-5.4-6.4-8.2-9.7-3.2-3.8-8.2-3.7-11.4.1-2.7 3.2-5.4 6.4-7.9 9.5 2.8 3.4 5.8 7 8.8 10.6 2.3 2.7 7.6 2.7 10 0 3-3.5 5.9-7.1 8.7-10.5zm0-285.9c-2.7-3.2-5.5-6.6-8.3-9.9-2.9-3.4-8.1-3.5-10.9 0-2.8 3.4-5.6 6.7-8.3 9.9 2.8 3.3 5.7 6.9 8.6 10.4 2.5 2.9 7.7 2.9 10.1 0 3.1-3.5 6-7 8.8-10.4zm0 314.6c-2.9-3.5-5.9-7.1-9-10.7-2.2-2.6-7.4-2.6-9.6-.1-3.1 3.6-6 7.2-8.9 10.7 2.9 3.4 5.7 6.8 8.5 10.2 2.7 3.2 7.8 3.2 10.5 0 2.9-3.4 5.7-6.8 8.5-10.1zm-251.8-85.9c2.9 3.4 5.8 7 8.8 10.6 2.2 2.6 7.8 2.5 10-.1 3-3.5 5.9-7.1 8.6-10.4-2.8-3.4-5.7-6.9-8.6-10.3-2.6-3.1-7.5-3.1-10-.1-3 3.4-5.9 6.9-8.8 10.3zm64.8-200.1c-2.8-3.4-5.8-7-8.8-10.5-2.3-2.8-7.6-2.8-9.9 0-2.9 3.5-5.8 7-8.7 10.4 2.8 3.4 5.6 6.8 8.5 10.2 2.7 3.2 7.8 3.2 10.5 0 2.8-3.4 5.7-6.8 8.4-10.1zm196.9-57.3c2.8 3.4 5.8 7 8.8 10.5 2.3 2.8 7.6 2.8 9.9 0 3-3.5 6-7.1 8.7-10.4-2.6-3.2-5.4-6.5-8.2-9.8-3.4-4-7.8-4-11.1 0-2.7 3.3-5.5 6.6-8.1 9.7zm-74.7 286c2.9 3.5 5.7 6.9 8.6 10.3 2.4 2.8 7.8 2.8 10.1 0 2.9-3.5 5.8-6.9 8.7-10.3-2.8-3.4-5.7-6.9-8.6-10.4-2.6-3.2-7.6-3.2-10.2 0-3 3.6-5.8 7-8.6 10.4zm-187-200.2c2.9 3.5 5.7 6.9 8.6 10.3 2.5 2.9 7.9 2.8 10.3-.1 2.9-3.5 5.8-6.9 8.5-10.2-2.7-3.2-5.5-6.7-8.4-10.1-2.7-3.2-8-3.3-10.8 0-2.7 3.4-5.4 6.8-8.2 10.1zm112.2-85.7c2.8 3.4 5.6 6.8 8.4 10.1 2.7 3.3 7.9 3.2 10.7-.1 2.9-3.4 5.7-6.8 8.4-9.9-2.8-3.4-5.7-6.8-8.7-10.3-2.7-3.2-7.6-3.2-10.3-.1-2.8 3.4-5.7 6.9-8.5 10.3zm37.4 285.9c2.9 3.5 5.8 7 8.7 10.4 2.3 2.7 7.7 2.6 9.9 0 3-3.5 5.9-7 8.8-10.3-2.8-3.4-5.7-6.9-8.7-10.4-2.6-3.2-7.6-3.1-10.2 0-2.8 3.4-5.7 6.9-8.5 10.3zm0 85.8c2.8 3.3 5.6 6.8 8.5 10.2 2.6 3 7.8 3.1 10.3.1 2.9-3.5 5.8-6.9 8.5-10.2-2.8-3.4-5.7-6.9-8.6-10.4-2.7-3.3-7.5-3.3-10.2 0-2.8 3.5-5.7 7-8.5 10.3zm-112.2-85.8c2.9 3.5 5.8 6.9 8.6 10.4 2.4 2.8 7.8 2.8 10.1 0 2.9-3.5 5.8-6.9 8.7-10.3-2.8-3.3-5.7-6.9-8.7-10.4-2.5-3-7.6-3.1-10.1-.1-2.8 3.5-5.7 7-8.6 10.4zm74.8 85.8c2.8 3.3 5.5 6.6 8.3 9.9 2.9 3.5 8 3.5 10.9.1 2.8-3.4 5.6-6.7 8.3-9.9-2.7-3.2-5.6-6.7-8.5-10.2-2.9-3.5-7.6-3.4-10.5.2-2.9 3.2-5.7 6.6-8.5 9.9zm-74.8-114.3c2.7 3.3 5.5 6.6 8.3 9.8 2.9 3.5 8.2 3.3 11.1-.2 2.7-3.3 5.5-6.5 8.1-9.6-2.8-3.4-5.7-6.9-8.6-10.4-2.6-3.2-7.6-3.2-10.3 0-2.9 3.4-5.7 6.9-8.6 10.4zm187-200.3c2.8 3.4 5.7 7 8.6 10.4 2.5 2.9 7.7 2.9 10.1 0 3-3.5 5.9-7 8.7-10.4-2.8-3.4-5.8-6.8-8.7-10.3-2.6-3-7.7-3-10.3 0-2.8 3.5-5.6 6.9-8.4 10.3zm-37.5 200.3c1.4 1.6 2.8 3.2 4.1 4.9 1.4 1.7 2.8 3.5 4.3 5.2 2.6 3 8.1 3 10.6 0 2.9-3.4 5.7-6.8 8.5-10.1-1.3-1.5-2.8-3.2-4.2-4.9-1.4-1.7-2.8-3.5-4.3-5.2-3-3.6-7.8-3.5-10.8.1-2.7 3.3-5.4 6.6-8.2 10zm-9.9-257.4c-2.7-3.2-5.4-6.5-8.2-9.8-3.4-4-7.8-4-11.1 0-2.7 3.3-5.5 6.5-8.1 9.7 1.4 1.7 2.9 3.4 4.3 5.1s2.8 3.5 4.3 5.2c2.5 3 7.9 2.9 10.4 0 2.7-3.4 5.6-6.8 8.4-10.2zm-112.1 0c-2.8-3.4-5.7-6.9-8.7-10.3-2.7-3.2-7.6-3.1-10.3.1-2.9 3.4-5.7 6.8-8.5 10.2 1.4 1.7 2.9 3.4 4.3 5.1 1.4 1.7 2.8 3.5 4.3 5.2 2.5 3 7.9 2.9 10.4-.1 2.8-3.4 5.6-6.8 8.5-10.2zm10 343.1c2.9 3.5 5.8 7 8.8 10.5 2.3 2.7 7.6 2.7 10-.1 3-3.5 5.9-6.9 8.7-10.3-2.8-3.4-5.7-7-8.7-10.5-2.5-3-7.6-3-10.1-.1-3 3.5-5.9 7-8.7 10.5zm-47.4-371.6c-2.9-3.5-5.8-7.1-8.7-10.6-2.4-2.8-7.6-2.9-9.9-.1-3 3.5-5.9 7.1-8.7 10.5l8.7 10.5c2.3 2.7 7.7 2.8 9.9.1 2.9-3.5 5.8-7 8.7-10.4zm47.3 228.6c2.8 3.3 5.7 6.8 8.6 10.3 2.4 2.9 8 2.9 10.4 0 2.9-3.5 5.8-7 8.6-10.2-2.7-3.2-5.6-6.6-8.5-10-2.8-3.3-7.9-3.4-10.7 0-2.9 3.2-5.7 6.6-8.4 9.9zm186.9 57.2c2.9 3.5 5.8 7.1 8.8 10.5 2.2 2.6 7.8 2.6 10 0 3-3.5 5.9-7.1 8.7-10.4-3-3.5-5.9-7-8.8-10.5-2.5-3-7.4-3-9.9 0-3 3.4-5.9 6.9-8.8 10.4zm-37.3 28.6c3 3.6 6 7.2 9 10.7 2 2.4 7.6 2.2 9.6-.1 3-3.5 6-7.1 8.9-10.5-2.6-3.1-5.4-6.4-8.1-9.7-3.4-4.1-7.9-4.1-11.3-.1-2.7 3.2-5.4 6.5-8.1 9.7zm-84.7 57.2c-1.3-1.5-2.8-3.2-4.2-4.9-1.5-1.8-3-3.6-4.4-5.4-2.6-3.1-7.7-3.1-10.3 0-2.9 3.4-5.7 6.9-8.5 10.3 2.8 3.3 5.6 6.7 8.5 10.1 2.7 3.2 7.8 3.2 10.5 0 2.7-3.3 5.5-6.7 8.4-10.1zm-65-200.1c1.4 1.6 2.9 3.2 4.3 4.9 1.5 1.8 2.9 3.6 4.5 5.4 2.4 2.7 7.9 2.6 10.2-.1 2.9-3.4 5.8-6.9 8.6-10.1-2.8-3.3-5.7-6.8-8.6-10.3-2.5-3-7.8-3-10.3 0-2.9 3.3-5.8 6.8-8.7 10.2zm112.2 171.4c2.7 3.3 5.6 6.7 8.4 10.1 2.8 3.3 7.9 3.3 10.6.1 2.9-3.4 5.7-6.8 8.5-10.1-2.8-3.3-5.6-6.7-8.5-10.1-2.8-3.2-8-3.1-10.8.1-2.7 3.4-5.6 6.7-8.2 9.9zm0-114.3c2.6 3.1 5.4 6.4 8.1 9.6 3.2 3.8 8.2 3.8 11.4 0 2.8-3.3 5.5-6.6 8-9.6-2.7-3.2-5.5-6.6-8.4-9.9-2.9-3.4-8-3.5-10.9 0-2.8 3.3-5.5 6.7-8.2 9.9zm74.6.2c.3.3.8.5 1.2.9l7.2 8.7c2.8 3.4 8.3 3.4 11.1.1 2.8-3.3 5.6-6.7 8.2-9.8-2.7-3.2-5.6-6.7-8.5-10.1-2.8-3.3-7.9-3.2-10.7.1-2.8 3.2-5.6 6.6-8.5 10.1zm-159.2 114.2c-2.8-3.4-5.7-6.8-8.6-10.2-2.5-2.9-7.9-2.9-10.4 0-2.9 3.4-5.8 6.9-8.6 10.2 1.4 1.7 2.9 3.3 4.3 5.1 1.4 1.7 2.8 3.5 4.3 5.2 2.7 3.2 7.9 3.1 10.5 0 2.9-3.6 5.7-7 8.5-10.3zm-37.4-114.3c-2.8-3.3-5.7-6.8-8.6-10.3-2.6-3-7.8-3-10.4 0-2.9 3.4-5.7 6.8-8.5 10.1 2.6 3.1 5.2 6.4 7.9 9.6 3.3 3.9 8.4 3.9 11.6 0 2.7-3.2 5.4-6.4 8-9.4zm47.2-.2c2.8 3.4 5.7 6.9 8.6 10.3 2.4 2.9 7.9 2.8 10.4 0 2.9-3.5 5.8-6.9 8.4-10-1.1-1.4-2.5-3.1-3.8-4.7-1.4-1.7-2.7-3.3-4.1-5-3.3-3.9-8.1-4-11.4-.1-2.7 3.1-5.4 6.3-8.1 9.5zm177.2-142.9c-1.3-1.5-2.9-3.2-4.4-4.9-1.5-1.8-2.9-3.6-4.5-5.4-2.5-2.9-7.7-2.8-10.1.1-2.9 3.5-5.8 7-8.6 10.2 2.8 3.3 5.6 6.7 8.4 10.1 2.7 3.2 8 3.3 10.7.1 2.8-3.5 5.7-6.9 8.5-10.2zm-102.4 85.9c2.8 3.3 5.7 6.8 8.7 10.3 2.4 2.8 7.8 2.7 10.2 0 2.9-3.4 5.9-6.9 8.7-10.2-2.8-3.4-5.8-6.9-8.8-10.5-2.5-2.9-7.7-2.8-10.1.1-3 3.4-5.9 6.9-8.7 10.3zM1782 845c2.9 3.5 5.8 6.9 8.6 10.3 2.7 3.2 7.7 3.2 10.4-.1 2.8-3.4 5.7-6.8 8.5-10.2-1.4-1.6-2.8-3.2-4.3-4.9-1.4-1.7-2.8-3.5-4.3-5.2-2.7-3.2-7.9-3.2-10.5 0-2.8 3.4-5.6 6.8-8.4 10.1zm139.6.1c-2.7-3.3-5.5-6.5-8.3-9.8-3.1-3.7-8.1-3.6-11.2.2-2.7 3.2-5.4 6.4-8 9.6 2.8 3.4 5.8 6.9 8.7 10.4 2.5 3 7.6 3.1 10.1.1l8.7-10.5zm-64.8 228.6c2.7 3.3 5.6 6.7 8.4 10.1 2.7 3.2 8.1 3.1 10.7-.1 2.9-3.4 5.7-6.8 8.4-10-2.8-3.3-5.7-6.8-8.7-10.3-2.6-3-7.8-2.9-10.4.1-2.9 3.6-5.7 7-8.4 10.2zm-.1 114.4 8.7 10.5c2.4 2.9 7.8 2.8 10.2-.1 3-3.5 5.9-7.1 8.7-10.4-1.4-1.6-2.8-3.1-4.2-4.8-1.5-1.7-2.8-3.5-4.3-5.2-2.8-3.3-8-3.2-10.8.1-2.7 3.4-5.5 6.6-8.3 9.9zM1744.6 845c3 3.6 6 7.3 9 10.9 2.1 2.4 7.3 2.5 9.4.1 3.1-3.6 6.1-7.4 9-10.8-2.7-3.2-5.4-6.5-8.1-9.7-3.1-3.8-8.1-3.9-11.2-.1-2.7 3.1-5.3 6.3-8.1 9.6zm74.7 343.1 8.7 10.5c2.4 2.9 7.7 2.8 10.1 0 3-3.5 5.9-7.1 8.7-10.4-2.8-3.3-5.6-6.6-8.4-10-2.7-3.3-8-3.3-10.8-.1-2.7 3.4-5.5 6.8-8.3 10zm112.2-171.4c2.7 3.3 5.5 6.6 8.2 9.8 2.8 3.4 8.1 3.4 10.9.1 2.8-3.4 5.7-6.7 8.4-10-1.3-1.5-2.7-3-4.1-4.7s-2.8-3.5-4.3-5.2c-3-3.6-8-3.5-11 .1l-8.1 9.9zm-84.7 85.9c-2.8-3.4-5.7-7-8.7-10.6-2.4-2.9-7.5-3-9.9-.1-3 3.5-5.9 7.1-8.8 10.6 1.4 1.7 2.8 3.3 4.2 4.9 1.4 1.7 2.8 3.5 4.3 5.2 2.6 3.1 8 3 10.6 0 2.7-3.4 5.5-6.7 8.3-10zm122-143.2c1.3 1.6 2.8 3.1 4.1 4.8 1.4 1.6 2.7 3.3 4.1 5 2.9 3.5 8.2 3.6 11.1.1 2.8-3.3 5.6-6.7 8.3-9.9-1.3-1.5-2.8-3.2-4.2-4.9-1.5-1.8-2.9-3.6-4.5-5.4-2.6-3-7.9-2.9-10.4.1-2.8 3.4-5.7 6.9-8.5 10.2zm-261.6-28.6c2.8 3.3 5.5 6.6 8.2 9.9 3 3.5 8.2 3.5 11 0 2.8-3.4 5.6-6.7 8.2-9.8-2.8-3.3-5.8-6.9-8.8-10.4-2.4-2.7-7.6-2.7-10 0-2.8 3.3-5.7 6.8-8.6 10.3zm251.8-85.7c-2.9-3.5-5.7-7-8.6-10.3-2.6-3-7.8-2.9-10.4.1-2.9 3.4-5.7 6.8-8.4 10.1 2.9 3.5 5.9 7.1 8.8 10.7 2.2 2.7 7.5 2.7 9.7 0 3-3.5 6-7.1 8.9-10.6zm-214.4 171.6c2.7 3.3 5.4 6.5 8.1 9.7 3.1 3.7 8.2 3.6 11.3-.1 2.7-3.3 5.5-6.5 8.1-9.6-1.3-1.5-2.7-3.1-4.1-4.7-1.4-1.6-2.7-3.3-4.1-5-3.1-3.8-8.1-3.9-11.2-.2l-8.1 9.9zm186.9 57.1c1.2 1.4 2.7 3 4 4.6 1.4 1.7 2.9 3.5 4.3 5.2 2.7 3.3 8.2 3.4 10.9.1 2.9-3.4 5.7-6.8 8.4-10-2.7-3.2-5.5-6.5-8.3-9.9-3.1-3.6-8.1-3.5-11.1.1-2.8 3.4-5.6 6.7-8.2 9.9zm27.5 28.7c-2.9-3.4-5.9-7.2-9-10.8-2-2.4-7.3-2.5-9.2-.3-3.1 3.6-6.2 7.4-9.1 11 2.9 3.5 5.7 6.9 8.5 10.2 2.5 2.9 8 2.9 10.4 0 2.8-3.4 5.6-6.8 8.4-10.1zm37.4-85.8c-2.5-3-5.1-6.2-7.8-9.4-3.6-4.3-8.4-4.3-11.9 0-2.6 3.2-5.3 6.3-7.8 9.3 1.3 1.5 2.8 3.2 4.2 4.9 1.5 1.7 2.8 3.5 4.3 5.2 2.6 3.1 8 3.1 10.6.1 2.8-3.4 5.6-6.9 8.4-10.1zm-261.7 0c-2.8-3.3-5.6-6.7-8.5-10.2-2.6-3.2-7.9-3.2-10.5-.1-2.9 3.4-5.7 6.8-8.5 10.1 2.7 3.2 5.5 6.6 8.3 9.9 3 3.5 8.2 3.4 11.1-.1 2.7-3.2 5.5-6.5 8.1-9.6zm112.2 0c-2.8-3.4-5.8-6.9-8.8-10.5-2.3-2.7-7.6-2.8-10-.1-3 3.5-5.9 7.1-8.8 10.5 2.6 3.1 5.3 6.3 8 9.5 3.2 3.8 8.2 3.8 11.4.1 2.8-3.2 5.5-6.3 8.2-9.5zm37.4 85.8c-1.3-1.6-2.7-3.2-4.1-4.8-1.4-1.7-2.9-3.5-4.3-5.2-3.1-3.7-7.8-3.7-10.9.1-2.7 3.3-5.5 6.6-8.1 9.8 2.9 3.4 5.7 6.9 8.6 10.3 2.4 2.8 7.8 2.8 10.2 0 2.8-3.4 5.7-6.8 8.6-10.2zm-27.6-85.8c1.4 1.6 2.9 3.2 4.3 4.9 1.4 1.7 2.8 3.5 4.3 5.2 2.5 2.9 7.9 2.9 10.4 0 2.9-3.4 5.8-6.9 8.5-10.1-2.8-3.3-5.6-6.8-8.6-10.3-2.5-3-7.8-3-10.3 0-2.9 3.4-5.8 6.9-8.6 10.3zm-121.9 57.1c-1.3-1.5-2.8-3.1-4.2-4.8-1.5-1.8-2.9-3.6-4.4-5.4-2.6-3.1-7.7-3.2-10.3-.1-3 3.5-5.8 7-8.7 10.3 1.3 1.5 2.7 3.1 4.1 4.7 1.4 1.7 2.8 3.5 4.3 5.2 2.8 3.2 8.2 3.2 10.9 0 2.8-3.4 5.6-6.7 8.3-9.9zm112-228.7c-2.8-3.3-5.7-6.9-8.7-10.4-2.4-2.9-7.7-2.9-10.2 0-2.9 3.4-5.8 6.9-8.6 10.3 2.9 3.5 5.9 7 8.8 10.5 2.5 3 7.6 2.9 10.1-.1 2.9-3.4 5.7-6.8 8.6-10.3zM1707.2 988c2.9 3.5 5.8 7 8.8 10.6 2.2 2.6 7.5 2.7 9.7.1 3-3.6 6.1-7.2 8.9-10.6-2.8-3.4-5.7-6.8-8.6-10.2-2.5-3-7.8-3.1-10.4-.1-2.7 3.3-5.5 6.8-8.4 10.2zm139.6.1c-2.8-3.4-5.7-6.8-8.5-10.3-2.1-2.5-7.7-3-9.7-.8-3.2 3.6-6.2 7.3-9.2 10.9 2.9 3.5 5.7 6.9 8.5 10.3 2.5 3 7.8 3 10.3 0 2.9-3.3 5.8-6.7 8.6-10.1zm10-143.1c2.9 3.4 5.8 7 8.8 10.6 2.4 2.9 7.5 2.9 9.9.1 3-3.5 5.9-7.1 8.8-10.5-2.8-3.3-5.6-6.7-8.4-10-2.9-3.4-8-3.4-10.9.1-2.8 3.2-5.5 6.5-8.2 9.7zm-74.7 257.4c2.8 3.4 5.6 6.9 8.5 10.2 2.5 2.9 7.9 2.9 10.4-.1 2.9-3.4 5.7-6.8 8.4-10.1-2.8-3.4-5.8-7.1-8.9-10.7-2.3-2.7-7.5-2.7-9.7.1-2.9 3.6-5.8 7.1-8.7 10.6zM1931.6 988c2.9 3.5 5.9 7.2 8.9 10.7 2.2 2.6 7.6 2.5 9.8-.1 3-3.5 5.9-7.1 8.7-10.4-2.8-3.3-5.5-6.7-8.4-10.1-2.7-3.2-8.1-3.2-10.8 0-2.7 3.2-5.4 6.5-8.2 9.9zm-122.1.1c-2.9-3.4-5.8-7-8.8-10.5-2.2-2.5-7.7-2.5-9.9 0-2.9 3.5-5.8 7-8.7 10.4 3 3.6 5.8 7.1 8.8 10.6 2.3 2.7 7.7 2.6 10-.2 2.8-3.5 5.8-6.9 8.6-10.3zm159.4-.2c2.8 3.4 5.8 7 8.8 10.6 1.9 2.3 7.4 2.8 9.2.8 3.3-3.7 6.4-7.6 9.4-11.2-2.6-3.1-5.2-6.2-7.7-9.3-3.6-4.4-8.3-4.4-11.9 0-2.6 3-5.2 6.1-7.8 9.1zm-74.7 114.5 8.4 10.2c2.6 3 8 3 10.5-.1 2.9-3.4 5.7-6.8 8.4-10-2.9-3.5-5.9-7.1-8.9-10.7-2.4-2.9-7.5-2.8-9.9.1-2.7 3.5-5.6 7-8.5 10.5zm-10-114.3c-2.8-3.4-5.7-6.9-8.6-10.3-2.1-2.6-7.8-2.9-9.9-.5-3.1 3.5-6 7.2-9 10.8 1.5 1.7 2.9 3.4 4.2 5 1.4 1.7 2.8 3.3 4.1 5 2.8 3.4 7.8 3.4 10.6.1 3-3.4 5.8-6.8 8.6-10.1zm-139.5-.1c2.9 3.6 5.9 7.2 8.9 10.7 2.2 2.6 7.6 2.4 9.8-.2 3-3.5 5.9-7.1 8.7-10.4-2.8-3.4-5.7-6.9-8.5-10.3-2.3-2.8-7.9-2.9-10.2-.1-3.1 3.4-5.9 6.9-8.7 10.3zm27.3 114.6c-2.9-3.5-5.8-7.1-8.8-10.7-2.3-2.7-7.5-2.8-9.8-.1-3 3.6-5.9 7.2-8.8 10.6l8.4 10.2c2.6 3.1 8 3 10.6 0 2.9-3.4 5.7-6.8 8.4-10zM1894.2 988c2.9 3.6 5.8 7.1 8.8 10.6 2.3 2.7 7.7 2.6 9.9-.2 2.9-3.5 5.8-6.9 8.7-10.3-2.8-3.3-5.6-6.8-8.5-10.2-2.6-3.1-8-3.1-10.6 0-2.8 3.4-5.5 6.7-8.3 10.1z"/></g><path class="st0" d="m770.1 1061.1 1 118"/><g><path class="st1" d="M832 187.5h2.9l-.6.6c2.1 2 4.2 4.1 6.4 6.1 2.3 2 4.6 3.9 7.1 6 3.6-4.6 10-6.9 12.9-12.6h2.8c-.2.2-.3.4-.5.5 2.2 2.1 4.3 4.2 6.6 6.3 2.2 2 4.5 3.8 6.9 5.9 3.4-4.5 9.8-6.8 12.8-12.6.1 0 .7-.1 1.2-.1h1.5c2.7 5.9 9.3 8 13 13.1 3.6-5 10.1-7.2 13-13h2.3c1.4 1.6 2.3 3 3.6 4.2 3.2 2.9 6.5 5.6 10 8.5 3.5-4.5 9.7-6.8 12.8-12.6 0 0 .6-.1 1.1-.1s1.1 0 1.2.5c2 1.9 3.9 3.9 5.9 5.7 2.5 2.2 5 4.3 7.7 6.5 3.4-4.7 9.8-6.9 12.7-12.6h2.7c2.7 5.6 9.1 7.8 13 12.8 3.8-4.7 10-7 13-12.8h2.3c1.8 1.9 3.2 3.6 4.8 5.1 2.8 2.6 5.8 5 8.8 7.5 3.3-4.7 9.9-6.8 12.6-12.7h2.8c2.6 5.7 9.1 7.9 12.9 12.9 3.7-4.9 10.1-7.1 13.1-12.9.2 0 .8-.1 1.3-.1h1.2c2.9 5.8 9.5 8 13 13.1 3.7-4.9 10-7.3 13.1-13h2.8c-.2.2-.4.4-.5.6 2.1 2 4.2 4.1 6.4 6 2.3 2 4.6 3.9 7.1 5.9 3.5-4.6 9.8-6.9 12.9-12.6h2.6l-.5.5c2.2 2.1 4.4 4.3 6.7 6.4 2.1 1.9 4.4 3.7 6.8 5.7 3.6-4.5 9.9-6.8 13.1-13 .4.9 1.1 1.7.9 2.2-.5 1.2-1.2 2.6-2.2 3.5-2.6 2.4-5.4 4.5-8 6.8-2.9 2.5-2.9 7.7 0 10.1 2.5 2.1 5.1 4.3 7.7 6.3 1.8 1.4 2.4 3.2 2.7 5.4.6 5-1.1 8.8-5.6 11.5-1.2.7-2.2 1.9-3.4 2.7-2.9 1.9-4 4.4-3.4 7.6.3 1.3.8 2.7 1.7 3.6 2.4 2.3 5 4.3 7.6 6.4 2 1.5 3.1 3.3 2.9 5.8-.1 1.3.2 2.7-.1 3.9-.4 1.6-1 3.4-2.1 4.5-2.4 2.4-5.2 4.4-7.8 6.6-3.3 2.8-3.4 7.9 0 10.7 2.5 2.1 5 4.1 7.5 6.2 1.8 1.4 2.3 3.2 2.6 5.5.6 5-1.2 8.7-5.6 11.5-1.4.8-2.4 2.2-3.8 3-2.4 1.5-3.1 3.6-3 6.2.1 2.2.6 3.8 2.5 5.2 2.6 1.9 5.2 3.9 7.4 6.2 1.2 1.3 1.9 3.2 2.4 4.9.4 1.3.3 2.8 0 4.1-.4 1.7-1 3.6-2.2 4.8-2.4 2.5-5.3 4.5-8 6.8-3 2.5-2.9 7.8.2 10.3 2.6 2.1 5.1 4.3 7.7 6.3 1.7 1.4 2.7 3 2.5 5.2-.1 1.3.3 2.7-.1 3.9-.5 1.7-1.1 3.7-2.3 5-2.4 2.5-5.4 4.5-8 6.8-2.8 2.4-2.7 7.6 0 10 2.6 2.2 5.2 4.4 7.9 6.5 1.7 1.4 2.3 3 2.6 5.2.7 5.2-1.2 9.1-5.8 11.9-1.1.7-2 1.9-3.1 2.5-3.8 2-3.7 5.3-3.3 8.7.1.9.9 1.9 1.7 2.5 2.5 2.2 5 4.3 7.7 6.4 2 1.6 3.1 3.4 2.8 5.9v.5c.8 4.4-.9 7.7-4.9 10.2-1.4.9-2.5 2.3-4 3.2-3.5 2-3.9 5.1-3.3 8.4.2 1.1 1 2.2 1.9 3 2.7 2.4 5.6 4.5 8.2 6.9 1 .9 1.6 2.3 2 3.5.2.5-.5 1.2-.7 1.5-1.6-1.8-2.8-3.4-4.3-4.8-3-2.7-6.2-5.3-9.4-7.9-3.2 4.8-10 6.8-12.7 12.8h-2.3c-1.2-1.6-2.1-3.1-3.3-4.2-3.2-2.9-6.6-5.7-10.1-8.6-3.4 4.7-10 6.9-12.9 12.9h-2.1c-1.7-1.9-2.9-3.6-4.5-5-3-2.7-6.1-5.2-9.3-7.9-3.2 4.8-9.9 7-13 12.9h-1.8c-1.7-1.9-3-3.6-4.6-5-3-2.7-6.1-5.2-9.2-7.9-3.3 4.8-10.1 6.8-12.7 12.9h-2.2c-1.4-1.8-2.4-3.3-3.7-4.5-3.2-2.9-6.5-5.6-9.9-8.4-3.1 4.8-10.1 6.7-12.7 12.9h-2.2c-1.7-1.9-2.8-3.6-4.4-5-3-2.7-6.1-5.2-9.3-7.9-3.4 4.7-9.9 7-13 12.9 0 0-.5.1-1.1.1h-.8c-1.6-1.9-2.8-3.6-4.2-4.9-3.1-2.8-6.3-5.4-9.5-8.1-3.1 4.8-10 6.8-12.7 12.9h-2.2c-1.6-1.8-2.7-3.5-4.2-4.8-3-2.8-6.3-5.3-9.5-8-3.2 4.8-10 6.8-12.8 12.9H919c-1.5-1.8-2.5-3.3-3.9-4.5-3.2-2.8-6.5-5.5-9.8-8.3-3.3 4.7-10 6.8-12.7 12.8h-2.2c-1.5-1.8-2.5-3.4-3.9-4.6-3.1-2.8-6.4-5.4-9.8-8.3-3.2 4.8-10.1 6.8-12.7 12.9h-2.3c-1.5-1.8-2.5-3.3-3.8-4.5-3.1-2.8-6.4-5.4-9.8-8.3-3.6 4.6-10 6.8-12.9 12.8-.2 0-.7.1-1.3.1-.5 0-1.1 0-1.2-.5-1.3-1.5-2.4-3.1-3.8-4.4-3.1-2.8-6.4-5.4-9.6-8.1-3 4.8-10 6.7-12.5 12.8h-2.3c-1.6-1.9-2.9-3.6-4.5-5-3-2.7-6.1-5.2-9.3-7.9-3.2 4.8-10.1 6.8-12.7 12.9h-2.3c-1.4-1.7-2.2-3.2-3.5-4.3-3.2-2.9-6.7-5.7-10.1-8.6-3.2 4.7-10 6.9-12.9 12.9-.1 0-.7.1-1.2.1s-1.1-.1-1.2-.6c-1.2-1.4-2.2-3-3.6-4.2-3.1-2.8-6.4-5.4-9.7-8.2-3.3 4.8-10 6.9-12.9 12.9-.1 0-.6.1-1.1.1s-1.1 0-1.2-.5c-1.3-1.5-2.4-3.1-3.8-4.4-3-2.7-6.3-5.3-9.5-8.1-3.3 4.7-10.1 6.8-13.1 13.5-.4-1.2-1.1-2.1-.9-2.7.5-1.2 1.3-2.5 2.3-3.4 2.6-2.4 5.5-4.6 8.2-6.9 2.5-2.2 2.3-7.7-.1-9.8-2.7-2.3-5.6-4.3-8-6.7-1.2-1.3-1.9-3.2-2.4-4.9-.4-1.2 0-2.6-.1-3.9-.2-2.1.7-3.7 2.3-5 2.7-2.2 5.3-4.3 7.9-6.5 3.1-2.6 3-8 0-10.5-2.6-2.1-5.1-4.3-7.7-6.3-1.8-1.4-2.7-3-2.5-5.2.1-1.3-.2-2.7.1-3.9.5-1.7 1-3.6 2.2-4.8 2.5-2.5 5.5-4.6 8.2-7 2.7-2.3 2.7-7.9-.1-10.2-2.7-2.2-5.6-4.3-8-6.7-1.2-1.2-1.8-3.1-2.2-4.7-.3-1.2 0-2.6-.1-3.9-.2-2.2.8-3.8 2.5-5.2 2.7-2.2 5.4-4.4 8.1-6.7 2.6-2.2 2.5-7.8-.1-10-2.7-2.2-5.6-4.3-8-6.7-1.2-1.2-2-3-2.3-4.7-1.2-5.3 1-9.2 5.8-12.1 1-.6 1.7-1.6 2.7-2.2 3.9-2.1 4.1-5.5 3.6-9.1-.1-.8-.8-1.7-1.5-2.3-2.8-2.4-5.8-4.6-8.4-7.1-1.2-1.2-1.8-3.1-2.3-4.7-.3-1.2 0-2.6-.1-3.9-.2-2.2.7-3.8 2.4-5.2 2.7-2.1 5.3-4.3 7.9-6.5 2.9-2.5 2.9-7.9-.1-10.3-2.6-2.2-5.2-4.4-7.9-6.5-1.7-1.3-2.2-2.9-2.4-5-.7-5.1 1.1-8.9 5.7-11.7 1.1-.6 1.8-1.8 2.9-2.4 3.9-2.1 4.2-5.5 3.7-9-.1-.9-.9-1.9-1.6-2.5-2.7-2.4-5.7-4.4-8.2-7-1.2-1.2-2-3-2.3-4.7-1.1-5.1.8-9.1 5.6-11.9 1.1-.6 1.8-1.8 2.9-2.3 3.9-2.1 4-5.6 3.5-9.1-.1-.9-.9-1.9-1.7-2.5-2.8-2.5-5.8-4.8-8.7-7.2-2.2-1.9-2.3-3.4-1-4.4 2.2 2.1 4.3 4.3 6.6 6.3 2.2 2 4.6 3.9 7.1 6 3.4-4.6 9.9-6.8 12.8-12.7.1 0 .7-.1 1.2-.1h1.3c2.9 5.8 9.4 8 13 13 3.7-4.9 10.1-7.1 13.1-12.9.2 0 .7-.1 1.3-.1h1.3c2.7 5.8 9.3 8 13.1 13.1 3.6-5 10.3-7 12.9-13h2.1c2 2.1 3.6 3.9 5.4 5.5 2.7 2.4 5.6 4.7 8.5 7.2 3.4-4.7 9.9-6.8 12.6-12.7h3.2c.2 3.4 3.4 4.6 5.6 6.6 2.2 2.1 4.6 3.9 7.1 6.1 2.7-5.1 9.2-7.2 12.1-13.2zM704.8 424.3c3.5-2.9 7-5.8 10.5-8.8 2.9-2.5 2.9-8.2.1-10.6-3.6-3-7.1-6.1-10.5-8.9l-9 7.5c-5.1 4.3-5.2 9-.1 13.2 3 2.6 6 5.1 9 7.6zm0-140.4c-3.4 2.9-7 5.8-10.4 8.7-3.1 2.6-3.1 8.3 0 10.8 3.5 2.9 7 5.8 10.4 8.7 3.4-2.9 6.9-5.8 10.4-8.7 3-2.6 3-8.3 0-10.8-3.5-2.9-7-5.9-10.4-8.7zm0 65.7c3.5-3 7.1-5.9 10.6-8.9 2.8-2.4 2.8-8.1 0-10.5-3.6-3-7.2-6.1-10.5-8.9-3.5 2.9-7 5.9-10.6 8.9-2.9 2.5-2.9 8.2 0 10.6 3.5 2.9 7 5.8 10.5 8.8zm-.1-103.2c-1.6 1.4-3.3 3-5.1 4.5-1.8 1.5-3.6 2.9-5.4 4.5-2.9 2.5-2.9 8.2 0 10.7 3.5 3 7.1 5.9 10.6 8.8 1.4-1.3 2.9-2.6 4.5-4s3.3-2.7 5-4.1c4.3-3.6 4.3-8.7.1-12.2-3.2-2.8-6.4-5.5-9.7-8.2zm343.2 37.5c-3.3 2.8-6.8 5.7-10.3 8.6-3.3 2.7-3.3 8.3-.1 11 3.5 2.9 7 5.8 10.3 8.7 3.3-2.7 6.6-5.6 10-8.4 3.6-3 3.6-8.8 0-11.8l-9.9-8.1zm0-9.1c3.5-2.9 7.1-5.9 10.7-9 2.6-2.2 2.5-8.4-.1-10.6-3.6-3-7.3-5.9-10.7-8.7-3.5 2.9-7 5.9-10.6 8.9-2.9 2.5-2.8 8.2.1 10.6 3.6 3 7.2 5.9 10.6 8.8zm0 121.3c-3.3 2.8-6.8 5.6-10.2 8.5-3.4 2.8-3.4 8.4-.1 11.2 3.5 2.9 6.9 5.8 10.2 8.6 3.5-2.9 7.1-5.8 10.5-8.8 3-2.6 2.8-8.6-.2-11.1-3.4-2.9-6.9-5.7-10.2-8.4zM790.6 246.5c-3.5 2.9-7.1 5.8-10.6 8.8-2.8 2.4-2.7 8.3.1 10.7 3.5 3 7.1 5.9 10.5 8.7 3.3-2.8 6.8-5.7 10.3-8.6 3.1-2.6 3.1-8.4 0-11-3.5-2.9-7-5.8-10.3-8.6zm142.9 28.3c3.4-2.9 7-5.8 10.4-8.7 2.9-2.5 2.8-8.5-.1-10.9-3.5-3-7-5.9-10.3-8.6-3.3 2.8-6.7 5.6-10 8.4-3.7 3.1-3.7 8.5 0 11.5 3.4 2.7 6.7 5.5 10 8.3zm-28.6-28.3c-3.2 2.7-6.5 5.5-9.9 8.3-3.7 3.1-3.8 8.6 0 11.8 3.3 2.8 6.7 5.6 9.8 8.2 3.1-2.6 6.3-5.2 9.5-7.9 4.4-3.7 4.5-8.7.1-12.3-3.1-2.8-6.3-5.5-9.5-8.1zM933.6 396c-3.1 2.6-6.5 5.4-9.8 8.2-3.9 3.3-3.9 8.6 0 11.8 3.4 2.8 6.7 5.6 9.9 8.3 1.6-1.4 3.3-2.9 5.1-4.4 1.8-1.5 3.6-2.9 5.4-4.5 2.8-2.5 2.8-8.3-.1-10.7-3.7-2.9-7.2-5.9-10.5-8.7zm114.3-9.1c3.4-2.8 7-5.8 10.6-8.9 2.8-2.4 2.7-8.4-.1-10.7-3.5-3-7.1-5.9-10.5-8.7-3.1 2.7-6.4 5.4-9.7 8.2-4.2 3.5-4.2 8.6.1 12.2 3.3 2.6 6.5 5.3 9.6 7.9zm-.1 74.8c3.5-2.9 7.1-5.9 10.7-8.9 2.7-2.3 2.7-8.3 0-10.6-3.6-3.1-7.2-6.1-10.6-8.8-3.3 2.8-6.8 5.7-10.2 8.6s-3.4 8.6 0 11.4c3.5 2.7 6.9 5.5 10.1 8.3zm85.8-28.4c-3.4 2.9-6.9 5.9-10.4 8.9-2.8 2.4-2.8 8.3 0 10.7 3.5 3 7 6 10.3 8.7 3.5-2.9 6.9-5.7 10.4-8.6 3.2-2.7 3.1-8.5-.1-11.3-3.5-2.7-6.9-5.6-10.2-8.4zM762 246.5c-3.3 2.8-6.9 5.8-10.4 8.8-3.1 2.6-3.1 8.2 0 10.8 3.5 3 7 5.9 10.3 8.7 3.3-2.7 6.7-5.5 10-8.3 3.5-2.9 3.5-8.7 0-11.6-3.3-2.9-6.7-5.7-9.9-8.4zm257.3 103.1c3.5-2.9 7-5.9 10.5-8.9 2.9-2.5 2.9-8.2 0-10.7-3.6-3-7.1-6-10.5-8.8-3.2 2.7-6.4 5.4-9.7 8.2-3.8 3.2-3.9 8.8-.1 12 3.3 2.7 6.6 5.5 9.8 8.2zM704.8 209.2c-3.3 2.8-6.8 5.7-10.2 8.5-3.4 2.9-3.4 8.4 0 11.2 3.4 2.9 6.9 5.7 10.2 8.5 3.3-2.8 6.7-5.7 10.1-8.6 3.3-2.8 3.3-8.4 0-11.2-3.4-2.8-6.8-5.7-10.1-8.4zm0 177.7c3.6-3.1 7.3-6.1 10.8-9.2 2.5-2.1 2.4-8-.1-10.1-3.6-3.1-7.2-6.1-10.7-9-3.4 2.9-7.1 5.9-10.7 9-2.7 2.3-2.7 8.1 0 10.5 3.6 2.9 7.2 5.9 10.7 8.8zm85.8-28.2c-3.2 2.7-6.7 5.6-10.1 8.4-3.4 2.8-3.4 8.5.1 11.4 3.4 2.9 6.8 5.7 10.1 8.4 1.6-1.4 3.3-2.9 5-4.3 1.8-1.5 3.6-2.9 5.4-4.5 3.1-2.6 3-8.4-.2-11-3.6-2.8-7-5.6-10.3-8.4zm257.2-9.2c3.2-2.6 6.6-5.4 9.9-8.2 3.8-3.1 3.7-8.9-.1-12-3.3-2.7-6.6-5.4-9.8-8-3.5 2.9-7.1 5.9-10.7 8.9-2.8 2.4-2.7 8.1.1 10.5 3.7 3 7.2 6 10.6 8.8zM905 358.7c-3 2.5-6.1 5.1-9.3 7.7-4.7 3.9-4.7 8.9-.1 12.8 3.1 2.6 6.3 5.3 9.2 7.8 3.4-2.9 7-5.8 10.5-8.8 2.9-2.5 2.9-8.1 0-10.6-3.4-3.1-7-6.1-10.3-8.9zm28.5 28.2c3.3-2.8 6.9-5.7 10.4-8.8 2.9-2.5 2.8-8.4-.1-10.9-3.5-3-7-5.9-10.3-8.7-3.5 2.9-7 5.9-10.6 8.9-2.9 2.5-2.9 8.1 0 10.6 3.7 3.1 7.2 6.1 10.6 8.9zm-171.6 37.5c3.4-2.8 7-5.8 10.5-8.8 2.9-2.5 2.8-8.3 0-10.7-3.6-3.1-7.1-6.1-10.4-8.8-3.2 2.7-6.5 5.5-9.9 8.3-3.9 3.3-3.9 8.5-.1 11.7 3.4 2.7 6.7 5.6 9.9 8.3zm28.8-28.3c-3.3 2.7-6.7 5.5-10.2 8.4-3.4 2.8-3.4 8.6 0 11.4 3.4 2.9 6.8 5.7 10.1 8.5 1.6-1.4 3.3-2.9 5-4.3 1.8-1.5 3.6-2.9 5.4-4.5 3-2.5 3-8.4 0-10.9-3.5-2.9-7-5.8-10.3-8.6zm228.7-112.3c-3.2 2.7-6.6 5.6-10 8.5-3.4 2.9-3.4 8.6-.1 11.4 3.4 2.9 6.8 5.7 10.1 8.5 3.1-2.6 6.3-5.3 9.5-8 4.3-3.6 4.3-8.7.1-12.3-3.3-2.7-6.6-5.5-9.6-8.1zm-199.8 37.9c-1.2.8-2.8 1.8-4.2 2.8-2.3 1.8-4.5 3.6-6.6 5.5-3 2.6-3 8.3 0 10.9 3.5 3 7.1 6 10.3 8.7 3.2-2.7 6.5-5.4 9.8-8.2 3.9-3.3 3.9-8.7 0-11.9-3.4-2.8-6.7-5.6-9.3-7.8zm-57.7 140c3.3-2.8 6.8-5.7 10.3-8.6 3.1-2.7 3.1-8.4 0-11.1-3.5-3-7-6-10.2-8.7-3.5 2.9-7 5.9-10.5 8.9-3.1 2.6-3 8.2.1 10.8 3.5 3 7 5.9 10.3 8.7zm257.4-37.3c3.5-3 7.2-6 10.7-9 2.7-2.4 2.5-8.2-.2-10.5-3.6-3-7.1-6-10.4-8.8-3.2 2.7-6.4 5.4-9.7 8.2-3.9 3.3-3.9 8.9 0 12.1 3.2 2.6 6.4 5.3 9.6 8zm28.6-187c3.6-3 7.1-6 10.7-9 2.5-2.2 2.6-8.2.1-10.4-3.6-3.1-7.4-6.1-10.8-8.9-3.4 2.9-6.9 5.8-10.4 8.7-3 2.5-3 8.3 0 10.8 3.5 3 7 6 10.4 8.8zm-228.8 187c3.5-3 7.2-6 10.7-9.1 2.7-2.4 2.5-8.2-.2-10.5-3.6-3-7.1-6-10.5-8.9-1.5 1.3-3.1 2.8-4.8 4.2l-5.4 4.5c-3.3 2.8-3.3 8.4 0 11.2 3.4 2.9 6.9 5.8 10.2 8.6zm114.4-74.8c3.5-3 7.1-5.9 10.6-8.9 2.6-2.3 2.5-8.3-.1-10.6-3.6-3-7.2-6-10.5-8.8-3.5 2.9-7.1 5.9-10.6 8.9-2.8 2.4-2.8 8.1-.1 10.4 3.6 3 7.2 6 10.7 9zM847.6 396c-1.5 1.3-3.1 2.7-4.7 4.1-1.7 1.5-3.4 2.9-5.2 4.3-3.4 2.9-3.5 8.6-.1 11.5 3.3 2.8 6.7 5.6 10 8.3l10.5-8.7c3-2.5 3-8.2 0-10.7-3.4-2.9-6.9-5.8-10.5-8.8zm228.7 65.9c3.6-3 7.2-6 10.7-9 2.7-2.3 2.8-8.1.2-10.4-3.6-3.2-7.3-6.2-10.6-9.1-3.4 2.9-7 6-10.6 9-2.9 2.5-3 7.7-.1 10.3 3.4 3.1 6.9 6.1 10.4 9.2zm-371.5-28.5c-3.3 2.8-6.8 5.7-10.3 8.7-3.2 2.7-3.2 8.3 0 11 3.5 2.9 7 5.8 10.3 8.6 3.5-2.9 7.1-5.9 10.6-8.9 2.7-2.4 2.6-8.3-.2-10.7-3.5-2.9-7-5.9-10.4-8.7zm428.9-112.2c-3.2 2.7-6.6 5.6-10 8.4-3.4 2.9-3.5 8.5-.1 11.4s6.8 5.7 10 8.5c3.4-2.9 7-5.8 10.4-8.7 3-2.5 3-8.4 0-10.9-3.5-2.9-7-5.9-10.3-8.7zm.3 37.7c-1.5 1.1-3.2 2.4-4.9 3.7-1.8 1.4-3.5 2.8-5.2 4.3-3.9 3.3-3.9 8.6 0 11.9 3.3 2.8 6.5 5.5 9.7 8.1 3.4-2.8 6.9-5.7 10.4-8.7 3.1-2.6 3-8.4-.1-11-3.5-2.9-6.9-5.8-9.9-8.3zm-114.6-112.4c-3.3 2.8-6.8 5.7-10.3 8.7-3.1 2.6-3.1 8.5 0 11.1 3.5 2.9 6.9 5.9 10.2 8.6 3.2-2.7 6.5-5.5 9.9-8.3 3.8-3.2 3.9-8.6.1-11.7-3.4-2.9-6.7-5.7-9.9-8.4zm-200.3-.1c-3.5 2.9-7.1 6-10.6 9.1-2.7 2.4-2.6 8.2.1 10.5 3.6 3 7.2 6.1 10.5 8.9 1.6-1.4 3.3-2.9 4.9-4.3 1.7-1.5 3.5-2.8 5.2-4.3 3.4-2.9 3.3-8.5-.1-11.4-3.4-2.9-6.7-5.8-10-8.5zm85.8-9c3.5-3 7-5.9 10.5-8.8 2.8-2.4 2.9-8.2.1-10.6-3.6-3-7.2-6-10.6-8.8-3.3 2.8-6.7 5.6-10.1 8.5-3.3 2.8-3.3 8.4 0 11.2 3.4 2.9 6.8 5.8 10.1 8.5zM762 358.6c-3.3 2.8-6.9 5.8-10.4 8.8-3.1 2.6-3.2 8.2-.1 10.8 3.5 3 7.1 6 10.5 8.8 1.4-1.2 2.9-2.6 4.4-3.9l4.8-3.9c4.6-3.8 4.5-9-.1-12.8-3.1-2.7-6.2-5.4-9.1-7.8zM904.9 396c-3.3 2.7-6.7 5.6-10.1 8.5-3.4 2.9-3.5 8.5 0 11.4 3.4 2.9 6.8 5.7 10.1 8.5 1.7-1.4 3.3-2.9 5-4.4 1.7-1.4 3.5-2.8 5.2-4.3 3.2-2.7 3.3-8.3.1-11-3.4-2.9-6.8-5.8-10.3-8.7zm229.2.4c-1.2.8-2.6 1.7-3.9 2.7-2.5 2-4.9 4-7.2 6-2.4 2.1-2.5 8.1-.2 10.2 3.6 3.1 7.3 6.2 10.8 9.1 3.4-2.8 6.7-5.6 10.1-8.4s3.4-8.6 0-11.4c-3.3-3-6.7-5.9-9.6-8.2zm-229.2 65.3c3.5-2.9 7.1-5.9 10.7-9 2.7-2.3 2.5-8.2-.2-10.5-3.5-3-7.1-6-10.6-8.9-1.4 1.3-3 2.7-4.7 4.2l-5.4 4.5c-3.3 2.8-3.4 8.4 0 11.3 3.4 2.8 6.9 5.7 10.2 8.4zm28.6-224.3c3.2-2.7 6.6-5.5 10-8.4 3.4-2.9 3.4-8.6 0-11.4-3.4-2.9-6.8-5.8-10-8.4-3.4 2.9-7.1 5.9-10.7 8.9-2.7 2.3-2.7 8.2 0 10.5 3.7 2.9 7.3 5.9 10.7 8.8zM962.2 387c1.5-1.3 3.1-2.8 4.8-4.3 1.7-1.5 3.5-2.8 5.2-4.3 3.5-2.9 3.4-8.4 0-11.4-3.4-2.9-6.8-5.8-10-8.4-3.1 2.6-6.5 5.4-9.8 8.2-3.9 3.2-3.8 8.7 0 12 3.3 2.8 6.6 5.5 9.8 8.2zm171.4-140.6c-1.5 1.3-3.1 2.8-4.8 4.2-1.7 1.5-3.4 2.9-5.2 4.3-3.4 2.9-3.5 8.5-.1 11.4s6.8 5.7 10.1 8.5c3.4-2.8 6.8-5.7 10.2-8.6 3.3-2.8 3.2-8.6-.2-11.4-3.3-2.8-6.7-5.7-10-8.4zm-171.5-9c3.5-2.9 7-5.9 10.6-8.9 2.7-2.3 2.7-8.2 0-10.5-3.6-3-7.2-6-10.4-8.8-2.9 2.4-5.9 5-9 7.5-5 4.1-5.1 9.1-.1 13.2 2.9 2.4 5.9 5 8.9 7.5zm-200.3 83.7c-.8.8-1.8 1.9-2.8 2.8-2.5 2.2-5.1 4.2-7.6 6.4-2.8 2.5-2.8 8 .1 10.5 3.6 3 7.2 6 10.5 8.9 3.3-2.7 6.6-5.5 9.8-8.2 3.7-3.1 3.7-8.7.1-11.8-3.4-3-6.7-5.8-10.1-8.6zm28.7 28.4c3.4-2.9 7-5.8 10.5-8.7 3-2.5 3-8.4 0-10.8-3.5-3-7.1-5.9-10.4-8.7-3.4 2.8-6.9 5.7-10.3 8.6-3.1 2.7-3.1 8.4.1 11.1 3.4 2.9 6.8 5.7 10.1 8.5zm0-37.3c3.5-3 7.1-5.9 10.7-8.9 2.7-2.3 2.6-8.2 0-10.5-3.6-3-7.2-6-10.7-8.9-1.6 1.4-3.3 2.9-5 4.4-1.8 1.5-3.6 2.9-5.4 4.5-2.8 2.4-2.8 8.3 0 10.7 3.5 2.9 7 5.8 10.4 8.7zM762 283.8c-3.3 2.8-6.9 5.9-10.5 8.9-3 2.5-3 8.1 0 10.6 3.5 3 7.1 5.9 10.5 8.8 3.3-2.8 6.7-5.6 10.1-8.5 3.3-2.8 3.2-8.5 0-11.2-3.4-2.9-6.9-5.8-10.1-8.6zm85.7 28.3c3.4-2.9 6.8-5.7 10.3-8.6 3.4-2.8 3.3-8.3-.1-11.2-3.4-2.8-6.8-5.7-10.1-8.4-3.3 2.7-6.6 5.6-10 8.4-3.4 2.9-3.4 8.7-.1 11.5 3.3 2.7 6.6 5.5 10 8.3zm228.9 112.3c1.5-1.3 3.2-2.8 4.9-4.3 1.8-1.5 3.6-2.9 5.4-4.5 3-2.6 3.1-8.3.1-10.9-3.5-3-7.1-6-10.4-8.8-3.2 2.7-6.6 5.7-10 8.5-3.5 2.9-3.6 8.4-.1 11.3 3.3 3 6.7 5.8 10.1 8.7zm-114.5-178c-1.5 1.3-3.1 2.8-4.8 4.2-1.8 1.5-3.6 2.9-5.4 4.5-3.1 2.7-3.1 8.4 0 11.1 3.5 2.9 6.9 5.8 10.3 8.6 1.5-1.3 3.1-2.8 4.7-4.1 1.7-1.4 3.5-2.8 5.2-4.3 3.7-3.2 3.6-8.6-.2-11.7-3.3-2.8-6.5-5.5-9.8-8.3zM819.2 387.1c1.5-1.3 3.1-2.8 4.8-4.3 1.7-1.5 3.5-2.8 5.2-4.3 3.5-3 3.5-8.5 0-11.4-3.4-2.9-6.9-5.8-10-8.5-3.3 2.8-6.8 5.7-10.3 8.7-3.2 2.7-3.2 8.4 0 11.1 3.4 2.9 6.9 5.8 10.3 8.7zM1105 209c-1.4 1.3-3.1 2.8-4.8 4.2-1.8 1.5-3.6 3-5.4 4.4-3.1 2.6-3.2 8.4-.1 11.1 3.5 2.9 6.9 5.8 10.3 8.6 1.7-1.4 3.4-2.9 5.1-4.3 1.7-1.4 3.4-2.9 5.1-4.3 3.2-2.7 3.1-8.5-.1-11.2-3.3-2.8-6.7-5.7-10.1-8.5zm-171.5 74.9c-3.5 3-7.2 6-10.7 9.1-2.6 2.3-2.6 8 0 10.2 3.6 3 7.2 6.1 10.7 9 3.3-2.8 6.7-5.6 10-8.4 3.4-2.9 3.4-8.6.1-11.4-3.4-2.9-6.8-5.8-10.1-8.5zm-142.9-46.5c1.5-1.3 3.2-2.8 4.9-4.2l5.4-4.5c3.1-2.6 3.1-8.4-.1-11-3.5-2.9-7-5.8-10.2-8.6-3.3 2.7-6.8 5.6-10.2 8.6-3.1 2.6-3.2 8.4-.1 11 3.4 3 6.9 5.9 10.3 8.7zm29.1 46.9c-1.3.8-2.8 1.7-4.2 2.8-2.2 1.7-4.3 3.5-6.4 5.3-3.3 2.8-3.3 8.4 0 11.2 3.5 2.9 6.9 5.8 10.1 8.5 3.5-2.9 7-5.8 10.4-8.8 3-2.6 2.9-8.3-.1-10.9-3.6-2.8-7.1-5.8-9.8-8.1zm113.8 177.4c1.6-1.4 3.2-2.8 4.9-4.3 1.7-1.4 3.5-2.8 5.2-4.3 3.2-2.8 3.2-8.6 0-11.3-3.5-2.9-6.9-5.8-10.2-8.6-1.5 1.4-3.2 2.8-4.9 4.3l-5.4 4.5c-3 2.5-3.2 8.3-.2 10.8 3.6 3.1 7.1 6 10.6 8.9zm85.9-103.1c-3.4 2.9-6.9 5.8-10.3 8.7-3 2.5-3 8.4-.1 10.9 3.5 3 7.1 6 10.4 8.8 3.4-2.9 6.9-5.8 10.3-8.7 3.2-2.8 3.2-8.3-.1-11-3.5-3-6.9-5.9-10.2-8.7zm85.7 37.3c-1.5 1.3-3.1 2.8-4.7 4.1-1.7 1.5-3.4 2.9-5.2 4.3-3.7 3-3.6 8.8.1 11.8 3.3 2.7 6.6 5.5 9.8 8.1 3.5-2.9 7.1-5.9 10.6-8.9 2.7-2.3 2.6-8.2-.1-10.5-3.5-2.9-7-5.9-10.5-8.9zm.1-37.2c-3.4 2.8-7 5.7-10.5 8.7-2.9 2.4-2.9 8.3-.1 10.7 3.5 3 7 5.9 10.4 8.7 3.3-2.8 6.7-5.6 10.1-8.5 3.3-2.8 3.3-8.4 0-11.2-3.3-2.8-6.7-5.7-9.9-8.4zm-28.7-112.2c-3.3 2.8-6.7 5.7-10.2 8.7-3.3 2.8-3.3 8.3-.1 11 3.5 2.9 6.9 5.9 10.3 8.7 1.4-1.3 3-2.7 4.7-4.1 1.7-1.5 3.4-2.9 5.2-4.3 3.7-3.1 3.7-8.5-.1-11.7-3.3-2.9-6.7-5.7-9.8-8.3zm-171.6 74.8c-3.4 2.8-6.9 5.7-10.4 8.7-3.1 2.6-3.1 8.3 0 10.9 3.5 3 7 5.9 10.4 8.7 3.6-3 7.2-6.1 10.8-9.2 2.5-2.1 2.4-7.9-.1-10.1-3.5-3-7.2-6.1-10.7-9zM790.6 461.8c1.5-1.3 3.1-2.8 4.8-4.2 1.8-1.5 3.6-2.9 5.4-4.5 3.1-2.7 3.1-8.5 0-11.1-3.5-2.9-7-5.9-10.3-8.7-1.5 1.3-3.2 2.8-4.9 4.3l-5.4 4.5c-3 2.5-3 8.4 0 10.9 3.4 3 7 5.9 10.4 8.8zm343.5-177.6c-1.2.9-2.6 1.7-3.9 2.7-2.5 2-5 4.1-7.4 6.2-2.2 1.9-2.2 7.9-.1 9.8 3.7 3.2 7.4 6.3 11 9.3 1.7-1.4 3.3-2.8 4.9-4.2 1.7-1.4 3.4-2.9 5.2-4.3 3.4-2.8 3.4-8.6 0-11.4-3.4-2.8-6.8-5.7-9.7-8.1zm-257.5-37.6-4.8 3.9c-1.7 1.4-3.4 2.7-5 4.1-4.1 3.5-4.2 8.7-.1 12.1 3.3 2.7 6.5 5.5 9.6 8.1 3.3-2.7 6.6-5.5 10-8.4 3.4-2.9 3.5-8.6.1-11.4-3.4-2.9-6.8-5.8-9.8-8.4zm228.5-.2c-1.6 1.4-3.2 2.9-4.9 4.3-1.8 1.5-3.6 2.9-5.4 4.4-3 2.5-3 8.4 0 10.9 3.5 2.9 7 5.8 10.3 8.6 3.4-2.8 6.8-5.7 10.2-8.6 3.2-2.7 3.2-8.5 0-11.2-3.5-2.7-6.9-5.6-10.2-8.4zm.1 187c-3.2 2.6-6.4 5.4-9.8 8-2.8 2.2-4.1 8.4-1.9 10.4 3.7 3.5 7.7 6.7 11.4 9.9l10.8-9c3-2.6 2.9-8-.1-10.5-3.6-3-7.1-6-10.4-8.8zm-28.7-83.9c3.3-2.7 6.7-5.6 10.1-8.5 3.3-2.8 3.4-8.4.1-11.2-3.5-3-7-5.9-9.9-8.4-1.6 1.3-3.4 2.7-5.2 4.1l-5.4 4.5c-3.1 2.7-3.1 8.1.1 10.8 3.3 3 6.8 5.9 10.2 8.7zM876.4 396c-3.3 2.8-6.8 5.7-10.3 8.7-3.2 2.7-3.2 8.3 0 11.1 3.4 2.9 6.8 5.7 10.2 8.6 3.1-2.6 6.3-5.3 9.5-8 4.1-3.4 4.1-9 .1-12.3-3.2-2.8-6.4-5.5-9.5-8.1zm-.1-187c-1.5 1.4-3.2 2.9-4.9 4.4-1.8 1.5-3.6 2.9-5.4 4.5-3 2.6-3 8.2.1 10.8 3.4 2.9 6.9 5.8 10.2 8.6 3.4-2.9 7-5.8 10.5-8.8 2.8-2.4 2.7-8.4 0-10.7-3.6-3-7.1-5.9-10.5-8.8zm-142.9 74.9c-3.4 2.9-6.9 5.8-10.4 8.8-3 2.5-3 8.1 0 10.6 3.5 3 7 5.9 10.4 8.8 3.4-2.8 6.9-5.7 10.4-8.7 2.9-2.5 2.9-8.4 0-10.9-3.5-2.9-7-5.8-10.4-8.6zm400.3-74.8c-3.4 2.9-6.9 5.8-10.4 8.8-3 2.5-2.9 8.3 0 10.9 3.5 2.9 7 5.8 10.3 8.7 1.7-1.4 3.3-2.9 5-4.3 1.7-1.5 3.4-2.9 5.2-4.3 3.1-2.6 3.2-8.4.1-11-3.4-3.1-6.9-6-10.2-8.8zm-228.8 74.8c-3.4 2.9-6.9 5.8-10.4 8.7-3.1 2.6-3 8.3 0 10.9 3.5 2.9 7 5.9 10.3 8.7 3.3-2.8 6.7-5.6 10.1-8.5 3.5-2.9 3.5-8.4 0-11.3-3.3-2.9-6.7-5.8-10-8.5zm-28.6 28.3c3.4-2.9 6.9-5.8 10.4-8.7 2.9-2.5 2.9-8.4 0-10.9-3.5-3-7-6-10.2-8.7-3.3 2.8-6.8 5.7-10.2 8.5-3.4 2.9-3.4 8.4 0 11.2 3.3 2.9 6.6 5.7 10 8.6zm-142.9 9.1c-3.3 2.8-6.6 5.6-10 8.4-3.6 3-3.7 8.4-.1 11.4 3.4 2.9 6.8 5.7 10 8.4 3.4-2.9 6.9-5.7 10.3-8.6 3.1-2.6 3-8.5-.1-11.1-3.4-2.9-6.8-5.7-10.1-8.5zm228.8-.1c-3.3 2.8-6.8 5.7-10.3 8.7-3.2 2.7-3.1 8.4 0 11.1 3.4 2.9 6.9 5.8 10.2 8.5l9.6-8.1c4.1-3.5 4.1-8.6.1-12.1-3.3-2.7-6.5-5.5-9.6-8.1zm-.1-9.1c3.4-2.9 6.8-5.7 10.2-8.6 3.3-2.9 3.2-8.3-.2-11.2-3.4-2.9-6.9-5.8-10.1-8.5-1.5 1.3-3.1 2.8-4.8 4.2-1.7 1.5-3.5 2.8-5.2 4.3-3.5 3-3.5 8.5-.1 11.4 3.5 2.9 6.9 5.7 10.2 8.4zM762 209.1c-3.3 2.8-6.9 5.7-10.4 8.7-3.3 2.8-3.2 8.2.1 11 3.5 2.9 6.9 5.9 10.2 8.6 3.4-2.9 7-5.8 10.5-8.9 2.8-2.4 2.7-8.4-.1-10.7-3.5-2.9-7-5.9-10.3-8.7zm85.7 65.6 10.8-9c2.5-2.1 2.6-8 .1-10.1-3.6-3.1-7.4-6.2-10.9-9.2l-4.8 4.2c-1.7 1.5-3.5 2.8-5.2 4.3-3.4 2.9-3.3 8.7.1 11.5 3.2 2.8 6.6 5.5 9.9 8.3zm-114.3.1c1.5-1.3 3-2.6 4.6-3.9 1.6-1.4 3.3-2.7 5-4.1 4-3.3 4-8.8.1-12.1-3.3-2.7-6.5-5.5-9.6-8.1-3.3 2.7-6.6 5.5-9.9 8.3-3.7 3.1-3.7 8.5-.1 11.6 3.2 2.7 6.5 5.4 9.9 8.3zm228.7 149.5c3.3-2.8 6.7-5.6 10.1-8.5 3.5-3 3.4-8.4-.1-11.4-3.4-2.9-6.8-5.7-10.1-8.5-1.4 1.2-3.1 2.8-4.8 4.3-1.8 1.5-3.6 2.9-5.4 4.5-3.1 2.7-3.1 8.4.1 11.1 3.5 2.9 6.9 5.7 10.2 8.5zm114.4-140.4c-3.3 2.8-6.8 5.8-10.3 8.8-3.2 2.7-3.2 8.1-.1 10.8 3.5 3 6.9 5.9 10.3 8.8 3.2-2.7 6.5-5.5 9.9-8.3 3.7-3.1 3.7-8.6-.1-11.7-3.2-3-6.6-5.8-9.7-8.4zm28.6 65.6c3.5-2.9 7.1-5.9 10.6-8.9 2.7-2.3 2.7-8.2 0-10.5-3.6-3-7.2-6-10.6-8.9-1.5 1.3-3.1 2.7-4.7 4.1s-3.3 2.7-5 4.1c-3.9 3.2-3.9 8.7-.1 12 3.3 2.7 6.5 5.4 9.8 8.1zm-114.3-28.2c-3.5 2.9-7.1 5.9-10.7 9-2.7 2.3-2.7 8 0 10.3 3.6 3 7.2 6 10.7 8.9 3.2-2.7 6.5-5.4 9.7-8.1 3.8-3.2 3.9-8.8.1-12-3.4-2.7-6.6-5.5-9.8-8.1zm-114.5 28.2c3.4-2.8 6.9-5.7 10.4-8.7 3-2.6 2.9-8.4 0-10.9-3.5-3-7-5.9-10.3-8.7-3.3 2.8-6.6 5.6-10 8.4-3.6 3.1-3.6 8.5 0 11.6 3.3 2.8 6.6 5.6 9.9 8.3zm143.1-140.4c-3.1 2.7-6.5 5.5-9.9 8.4-3.5 3-3.6 8.6-.1 11.6 3.4 2.9 6.8 5.7 9.9 8.4 3.1-2.6 6.3-5.3 9.5-8 4.2-3.5 4.2-8.8.1-12.3-3.2-2.8-6.5-5.5-9.5-8.1zm-143 149.5c-3.3 2.8-6.8 5.7-10.2 8.7-3.2 2.8-3.2 8.3 0 11.1 3.4 2.9 6.9 5.8 10.2 8.6 3.5-2.9 7.1-5.9 10.6-8.9 2.6-2.3 2.5-8.3-.1-10.5-3.6-3.2-7.2-6.2-10.5-9zM733.3 237.3c3.4-2.8 6.8-5.7 10.2-8.5 3.2-2.7 3.1-8.6-.1-11.3-3.4-2.8-6.8-5.7-10.1-8.4-3.3 2.8-6.7 5.7-10.2 8.5-3.3 2.8-3.4 8.4 0 11.1 3.5 2.9 6.8 5.8 10.2 8.6zm0 224.3c3.5-2.9 7.1-5.9 10.6-8.9 2.6-2.3 2.6-8.3-.1-10.5-3.5-3-7.1-5.9-10.4-8.8-3.6 3-7.2 6-10.8 9.1-2.6 2.2-2.4 8.1.1 10.3 3.6 3 7.1 5.9 10.6 8.8zm85.8-224.1c3.4-2.8 6.8-5.7 10.2-8.6 3.2-2.7 3.2-8.5 0-11.2-3.5-2.9-6.9-5.8-10.1-8.6-3.3 2.8-6.9 5.7-10.4 8.7-2.9 2.5-2.9 8.5 0 10.9 3.4 3 6.9 5.9 10.3 8.8zm28.6 112c3.6-3 7.2-6 10.7-9 2.6-2.2 2.7-7.9.1-10.1-3.6-3.1-7.3-6.2-10.9-9.1l-4.8 4.2c-1.7 1.4-3.5 2.8-5.2 4.3-3.4 2.9-3.3 8.6.1 11.5 3.4 2.7 6.7 5.4 10 8.2zm28.6 83.9c-3.2 2.7-6.6 5.6-10 8.5-3.5 3-3.5 8.5-.1 11.4 3.4 2.9 6.8 5.7 10 8.4 3.3-2.8 6.7-5.6 10.1-8.4 3.4-2.8 3.4-8.6 0-11.4-3.3-2.9-6.7-5.7-10-8.5zm114.4 28.2c3.4-2.8 6.8-5.7 10.2-8.5 3.1-2.7 3.2-8.5.1-11.1-3.5-2.9-6.9-5.8-10.2-8.6-3.3 2.8-6.8 5.8-10.3 8.7-3.2 2.7-3.2 8.3 0 11 3.4 2.9 6.9 5.8 10.2 8.5zm-257.3-65.5c-3.4 2.9-6.9 5.8-10.4 8.7-3 2.5-3.1 8.2-.2 10.7 3.5 3 7 5.9 10.5 8.8 3.5-2.9 6.9-5.7 10.3-8.6 3-2.6 3-8.5-.1-11.1-3.3-2.9-6.8-5.7-10.1-8.5zm85.7 37.2c-3.2 2.8-6.7 5.7-10.1 8.7-3.2 2.7-3.1 8.5.1 11.3 3.4 2.9 6.8 5.7 10.1 8.5 1.5-1.3 3.1-2.8 4.8-4.2 1.7-1.5 3.5-2.8 5.2-4.3 3.4-2.8 3.4-8.6.1-11.4-3.5-2.9-6.9-5.8-10.2-8.6zm257.5-46.3c1.6-1.4 3.2-2.9 4.9-4.3 1.8-1.5 3.6-2.9 5.4-4.5 3-2.6 3-8.3-.1-10.9-3.5-3-7.1-6-10.3-8.7-3.3 2.8-6.6 5.7-10 8.6s-3.5 8.3-.1 11.2c3.4 2.9 6.8 5.7 10.2 8.6zm-57.3 46.4c-3.3 2.8-6.7 5.7-10.1 8.5-3.3 2.8-3.3 8.6 0 11.4 3.4 2.9 6.8 5.7 10 8.4 3.4-2.8 6.9-5.7 10.3-8.7 3-2.6 3-8.5 0-11.1-3.4-2.8-6.9-5.8-10.2-8.5zm-171.6-74.7c-3.2 2.7-6.5 5.4-9.7 8.2-3.7 3.1-3.8 8.7-.1 11.8 3.3 2.7 6.6 5.5 9.8 8.1 3.4-2.8 6.8-5.7 10.2-8.5 3.3-2.7 3.4-8.3.1-11-3.4-2.9-6.8-5.7-10.3-8.6zm-114.4 28.1c3.4-2.8 6.9-5.7 10.4-8.7 2.9-2.5 2.9-8.4 0-10.9-3.5-2.9-7-5.8-10.4-8.7-1.5 1.3-3.1 2.8-4.8 4.2l-5.4 4.5c-3.2 2.8-3.2 8.3 0 11 3.5 3 6.9 5.8 10.2 8.6zm371.8-74.7c3.6-3 7.2-5.9 10.7-9 2.6-2.2 2.5-8.1-.1-10.3-3.6-3.1-7.2-6.1-10.5-8.9-3.4 2.8-6.9 5.7-10.3 8.7-3.1 2.7-3.1 8.4.1 11.1 3.3 2.8 6.7 5.6 10.1 8.4zm-114.4-103c-1.6 1.4-3.3 3-5.1 4.4-1.8 1.5-3.6 2.9-5.4 4.4-3 2.5-2.9 8.2.1 10.7 3.5 2.9 7 5.8 10.4 8.7 3.2-2.7 6.5-5.5 9.8-8.2 3.7-3.1 3.7-8.8 0-11.8-3.2-2.7-6.5-5.5-9.8-8.2zm85.8 0c-3.3 2.8-6.8 5.7-10.3 8.7-3.3 2.8-3.2 8.2.1 11 3.4 2.9 6.9 5.8 10.3 8.7.3-.3.6-.9 1.1-1.3 2.9-2.5 5.9-5 8.8-7.4 3.3-2.8 3.3-8.5 0-11.2-3.2-2.8-6.7-5.7-10-8.5zm-228.8.1c-3.5 2.9-7 5.8-10.5 8.8-2.7 2.3-2.8 8.3-.1 10.6 3.5 3 7.1 5.9 10.5 8.8 3.5-3 7-5.9 10.5-8.8 2.9-2.4 2.9-8.2 0-10.6-3.4-3-6.9-6-10.4-8.8zm114.4 252.5c3.3-2.8 6.7-5.6 10-8.4 3.5-2.9 3.4-8.5 0-11.4-3.4-2.9-6.8-5.8-9.8-8.3-1.4 1.1-3 2.5-4.7 3.9s-3.3 2.7-5 4.1c-4.1 3.4-4.2 8.8-.1 12.2 3.2 2.5 6.4 5.2 9.6 7.9zm28.7-177.8c-3.4 2.9-7 5.9-10.6 9-2.8 2.4-2.8 8.1 0 10.4 3.5 3 7.1 5.9 10.5 8.8 3.5-2.9 7-5.8 10.4-8.7 2.9-2.5 2.8-8.4-.2-10.9-3.3-2.9-6.8-5.8-10.1-8.6zM847.7 433.4c-3.4 2.8-6.9 5.7-10.4 8.7-2.7 2.3-3 8.4-.4 10.6 3.6 3.1 7.2 6 10.7 8.9 3.5-2.9 6.9-5.8 10.4-8.6 3-2.5 3.1-8.4.1-10.9-3.5-2.9-7-5.8-10.4-8.7zm143.1-186.9c-3.4 2.8-6.8 5.7-10.3 8.7-3.2 2.7-3.3 8.3 0 11 3.5 2.9 7 5.8 10.3 8.6 1.6-1.4 3.2-2.8 4.9-4.1 1.6-1.4 3.3-2.7 5-4.1 3.6-3 3.6-8.8 0-11.8-3.4-2.8-6.7-5.6-9.9-8.3zm0 149.5c-3.5 3-7.2 6-10.8 9-2.4 2.1-2.7 7.9-.3 9.9 3.7 3.2 7.5 6.3 11 9.2 3.2-2.7 6.4-5.3 9.6-7.9 4-3.4 4-9 0-12.3-3.3-2.6-6.4-5.3-9.5-7.9zm0-9.2c3.3-2.7 6.6-5.5 9.9-8.2 3.5-2.9 3.5-8.8 0-11.7-3.4-2.8-6.7-5.6-9.9-8.4-1.4 1.2-3 2.7-4.6 4.1-1.6 1.4-3.3 2.7-5 4.1-4.2 3.5-4.3 8.6-.1 12 3.2 2.8 6.4 5.5 9.7 8.1zm129.1 66.1c-1.1.7-2.3 1.3-3.4 2.2-2.4 1.8-4.8 3.7-7.2 5.6-3.6 2.9-3.6 7.9 0 10.8 3.4 2.8 6.8 5.7 10.2 8.4 1.4-1.2 2.9-2.5 4.4-3.8l4.8-3.9c4.5-3.8 4.6-8.4 0-12.3-3.2-2.5-6.3-5-8.8-7zm-57.8 27.1c3.4-2.9 7-5.8 10.4-8.7 3.2-2.8 3-7.8-.2-10.4-3.5-2.8-6.9-5.8-10.1-8.4-3.4 2.9-6.9 5.7-10.3 8.6-3.2 2.7-3.3 7.6-.2 10.3 3.5 2.8 6.9 5.7 10.4 8.6zM833.4 255.7c3.4-2.8 6.9-5.7 10.3-8.6 3.2-2.7 3.3-7.6.1-10.3-3.5-3-7-5.9-10.4-8.8l-4.8 4.2c-1.7 1.5-3.5 2.8-5.2 4.3-3.2 2.8-3.2 8.1.1 10.8 3.3 2.9 6.6 5.6 9.9 8.4zm.1 84.6c-3.4 2.9-7 5.7-10.4 8.7-2.7 2.3-2.7 7.8-.1 10.1 3.5 3 7.1 5.9 10.5 8.7 1.7-1.5 3.4-2.9 5.1-4.3s3.5-2.8 5.2-4.3c3.3-2.7 3.2-7.7-.1-10.4-3.5-2.8-6.9-5.7-10.2-8.5zm285.9-149.4c-3.6 3-7.2 5.9-10.7 8.9-2.8 2.4-2.8 7.3 0 9.7 3.6 3 7.1 5.9 10.6 8.9 1.6-1.4 3.3-2.8 5-4.3l5.4-4.5c2.9-2.4 2.9-7.7 0-10.1-3.4-3-6.9-5.9-10.3-8.6zm-286 102.2c3.2-2.6 6.3-5.3 9.5-7.9 4.5-3.7 4.5-8 0-11.8-3.2-2.7-6.4-5.3-9.5-7.9-1.6 1.4-3.1 2.8-4.8 4.2-1.6 1.4-3.3 2.7-5 4.1-3.5 3-3.5 8.2 0 11.2 3.3 2.7 6.6 5.4 9.8 8.1zM1090.7 480c3.5-3 7.1-5.9 10.7-8.9 2.8-2.4 2.8-7.4-.1-9.8-3.6-3-7.1-6-10.6-9-.5.6-1 1.3-1.7 1.9-2.3 1.9-4.5 3.8-6.9 5.5-5 3.5-5.3 8.6-.7 12.4 3.1 2.6 6.2 5.3 9.3 7.9zm-171.5-37.4c3.6-2.9 7.1-5.8 10.6-8.8 2.8-2.4 2.8-7.6 0-9.9-3.6-3-7.1-5.9-10.5-8.7-3.4 2.8-6.8 5.7-10.3 8.6-3 2.5-3.1 7.8-.1 10.3 3.4 2.8 6.9 5.7 10.3 8.5zm142.9-251.8c-1.4 1.3-2.9 2.6-4.5 4l-4.8 3.9c-4.6 3.8-4.6 8.2.1 12 3.1 2.6 6.2 5.2 9.2 7.7 1.5-1.3 3.2-2.8 5-4.2 1.7-1.4 3.5-2.8 5.2-4.3 3.2-2.7 3.3-7.8.1-10.5-3.4-2.9-6.8-5.8-10.3-8.6zM919.2 330.4l10.5-8.7c3-2.5 2.9-7.6 0-10.1-3.5-2.9-7-5.8-10.4-8.7-3.3 2.8-6.7 5.6-10.1 8.5-3.3 2.8-3.3 7.8.1 10.7 3.3 2.8 6.6 5.6 9.9 8.3zm57.2-112.1c3.3-2.8 6.7-5.5 10-8.3 3.5-2.9 3.5-7.9 0-10.8-3.4-2.8-6.8-5.6-10.1-8.3-1.6 1.4-3.3 2.9-5 4.3-1.7 1.4-3.5 2.8-5.2 4.3-3.5 3-3.4 7.6.2 10.6 3.5 2.7 6.8 5.5 10.1 8.2zm-143 186.9c3.4-2.8 6.9-5.7 10.4-8.6 3.2-2.6 3.1-7.6-.1-10.3-3.5-2.9-7-5.8-10.3-8.6-3.3 2.7-6.7 5.6-10.1 8.5-3.1 2.6-3.1 8 0 10.6 3.4 2.8 6.7 5.6 10.1 8.4zm143 74.8c3.4-2.8 6.7-5.6 10.1-8.4 3.5-2.9 3.3-7.9-.2-10.8-3.4-2.8-6.7-5.6-9.8-8.2-3.4 2.8-6.9 5.7-10.4 8.6-3.2 2.7-3.3 7.6-.1 10.2 3.5 2.8 6.9 5.7 10.4 8.6zm-143-64.9c-1.5 1.3-3.1 2.7-4.7 4.1-1.7 1.5-3.5 2.9-5.2 4.3-3.2 2.7-3.3 8.1-.1 10.8 3.3 2.8 6.7 5.6 10 8.3 3.2-2.6 6.5-5.3 9.7-8 4.3-3.6 4.2-8 0-11.5-3.3-2.6-6.5-5.3-9.7-8zm286.1 27.7c3.3-2.9 6.9-5.9 10.3-9 2.9-2.7 2.6-7.8-.4-10.3-3.4-2.8-6.8-5.7-9.9-8.3-3.5 2.9-7.1 5.9-10.7 8.9-2.9 2.4-2.9 7.3.1 9.8 3.5 2.9 7.1 5.9 10.6 8.9zM919.2 480c3.5-2.9 7.1-5.8 10.5-8.8 2.6-2.3 2.6-7.8 0-10-3.5-3-7.1-5.9-10.4-8.7l-9.6 8.1c-4 3.3-4 8.2.1 11.6 3.1 2.5 6.3 5.2 9.4 7.8zm-85.7-177.1c-3.2 2.7-6.4 5.3-9.6 8-3.8 3.2-3.8 8.4 0 11.5 3.2 2.7 6.4 5.4 9.6 8 3.3-2.8 6.8-5.6 10.2-8.5 3.5-2.9 3.5-7.7 0-10.6-3.5-2.7-7-5.6-10.2-8.4zm85.7-9.8 10.2-8.4c3.3-2.7 3.4-7.7.1-10.4-3.5-2.9-6.9-5.8-10.2-8.6-3.4 2.9-6.9 5.7-10.3 8.6-3.2 2.6-3.1 7.9.1 10.5 3.4 2.7 6.8 5.5 10.1 8.3zm-143-74.8c3.4-2.8 6.8-5.7 10.3-8.5 3.2-2.7 3.2-7.8 0-10.4-3.5-2.9-6.9-5.8-10.2-8.5-3.3 2.7-6.6 5.5-10 8.3-3.4 2.8-3.4 8.1 0 10.9 3.3 2.7 6.6 5.5 9.9 8.2zm-57.1-27.5c-3.4 2.9-6.9 5.8-10.4 8.7-3.1 2.6-3 7.7.2 10.3 3.4 2.8 6.8 5.7 10.1 8.4 3.3-2.8 6.8-5.6 10.2-8.5 3.2-2.7 3.2-7.8.1-10.5-3.4-2.7-6.8-5.6-10.2-8.4zm371.7 0c-3.1 2.6-6.5 5.4-9.8 8.2-3.9 3.3-3.9 8 0 11.1 3.3 2.7 6.6 5.5 9.8 8.1 3.4-2.8 7-5.8 10.5-8.8 2.8-2.4 2.8-7.6 0-9.9-3.6-2.9-7.1-5.9-10.5-8.7zM919.3 340.4c-3.3 2.8-6.7 5.6-10 8.4-3.5 2.9-3.5 7.9 0 10.8 3.3 2.8 6.7 5.6 9.9 8.3l10.5-8.7c3-2.5 3-7.6 0-10.1-3.5-3-7-5.9-10.4-8.7zm85.8-.1c-3.5 2.9-7.1 5.9-10.7 8.9-2.7 2.3-2.7 7.4 0 9.7 3.6 3 7.2 6 10.7 8.9 1.6-1.4 3.1-2.7 4.7-4.1 1.6-1.4 3.3-2.7 5-4.1 3.5-2.9 3.6-8.2.1-11.1-3.3-2.7-6.6-5.5-9.8-8.2zm0 37.4c-3.4 2.9-7.1 5.9-10.7 8.9-2.7 2.3-2.8 7.5-.1 9.7 3.6 3 7.2 6 10.7 8.9 3.3-2.8 6.7-5.5 9.9-8.3 3.3-2.8 3.3-8.2 0-10.9-3.3-2.8-6.6-5.6-9.8-8.3zm0-149.5c-3.4 2.9-7 5.8-10.6 8.8-2.9 2.4-2.9 7.5 0 9.9 3.6 3 7.1 5.9 10.6 8.8 3.2-2.7 6.3-5.3 9.5-7.9 3.8-3.2 3.9-8.3.1-11.5l-9.6-8.1zm-85.9-9.9c3.5-2.9 7.1-5.8 10.6-8.8 2.6-2.3 2.5-7.8-.1-10-3.5-2.9-7-5.8-10.3-8.6-3.3 2.7-6.8 5.6-10.2 8.4-3.3 2.7-3.2 8 .1 10.7 3.2 2.8 6.6 5.6 9.9 8.3zm-142.9 122c-1.5 1.3-3.1 2.7-4.8 4.1-1.6 1.4-3.3 2.7-5 4.1-3.7 3.1-3.7 8.1.1 11.3 3.3 2.7 6.5 5.5 9.6 8.1 3.3-2.8 6.7-5.6 10-8.4 3.4-2.8 3.4-7.9.1-10.7-3.3-2.8-6.6-5.6-10-8.5zm0-37.3c-3.3 2.8-6.7 5.6-10 8.4s-3.3 8 0 10.7c3.4 2.8 6.8 5.7 10 8.3 3.5-2.9 7-5.8 10.5-8.8 2.7-2.3 2.7-7.7-.1-10-3.5-2.8-7-5.7-10.4-8.6zm-28.7 177c3.4-2.9 7-5.9 10.5-8.9 2.7-2.3 2.7-7.6 0-9.9-3.6-3-7.1-5.9-10.4-8.7-3.3 2.8-6.8 5.8-10.3 8.8-3.1 2.6-3.1 7.4 0 10 3.3 2.9 6.8 5.9 10.2 8.7zm57.3-177c-3.3 2.7-6.6 5.5-10 8.3-3.6 3.1-3.6 7.9.1 11 3.3 2.7 6.6 5.5 9.7 8.1 3.5-2.9 7-5.7 10.5-8.7 2.9-2.5 2.9-7.7 0-10.1-3.5-2.9-7-5.8-10.3-8.6zm314.5-37.4c-3.5 2.9-7.2 6-10.9 9.1-2.6 2.2-2.6 7.2 0 9.3 3.7 3.1 7.4 6.1 10.9 9 3.4-2.9 6.9-5.7 10.3-8.6 2.9-2.4 2.9-7.7 0-10.2-3.4-2.9-6.9-5.8-10.3-8.6zm.1-37.4c-3.5 2.9-7 5.8-10.6 8.8-3 2.5-3 7.3 0 9.8 3.6 3 7.1 5.9 10.6 8.8 1.6-1.4 3.3-2.8 5-4.3 1.7-1.4 3.5-2.8 5.2-4.3 3-2.5 3-7.8 0-10.4-3.5-2.7-6.9-5.6-10.2-8.4zm-200.2 0c-3.3 2.8-6.8 5.7-10.3 8.6-3 2.6-3.1 7.7 0 10.3 3.5 2.9 6.9 5.8 10.3 8.6l10.5-8.7c2.8-2.4 2.9-7.5.1-9.9-3.6-3.1-7.2-6-10.6-8.9zm171.6 187c-3.5 2.9-7.1 5.8-10.7 8.9-2.6 2.2-2.6 7.4-.1 9.6 3.6 3.1 7.2 6 10.7 9 3.6-3 7.1-5.9 10.6-8.9 2.7-2.4 2.6-7.6-.1-10-3.6-3-7.1-5.9-10.4-8.6zM804.8 293.1c3.4-2.8 6.9-5.7 10.4-8.7 2.9-2.4 2.9-7.7 0-10.1-3.5-3-7-5.9-10.4-8.7-3.4 2.9-6.9 5.8-10.4 8.7-2.9 2.5-3 7.6-.1 10.1 3.6 2.9 7.1 5.8 10.5 8.7zm-28.5 122c-1.5 1.3-3.2 2.8-4.9 4.2-1.7 1.4-3.5 2.8-5.2 4.3-3.1 2.6-3.2 7.9 0 10.6 3.4 2.9 6.8 5.7 10.1 8.5 3.4-2.8 6.8-5.7 10.2-8.6 3.2-2.7 3.1-7.8-.1-10.5-3.4-2.8-6.7-5.6-10.1-8.5zM747.6 293l10.5-8.7c2.7-2.3 2.6-7.7 0-10-3.5-3-7.1-6-10.3-8.7-3.4 2.9-6.9 5.8-10.4 8.7-3.2 2.7-3.1 7.6.1 10.3 3.4 2.8 6.7 5.6 10.1 8.4zm57.2 47.3c-1.5 1.3-3.2 2.9-5 4.4l-5.4 4.5c-2.8 2.3-2.9 7.6-.1 9.9 3.5 3 7.1 5.9 10.5 8.7 3.5-2.9 7.1-5.8 10.6-8.7 2.8-2.3 2.7-7.6-.1-9.9-3.6-3.1-7.1-6.1-10.5-8.9zm114.4 64.9c3.5-2.9 7.1-5.8 10.7-8.8 2.7-2.3 2.7-7.5.1-9.8-3.6-3-7.2-6-10.6-8.8-3.4 2.8-6.9 5.7-10.3 8.6-3 2.5-3 7.8 0 10.3 3.3 2.8 6.7 5.7 10.1 8.5zm-114.4 0c3.4-2.8 6.9-5.7 10.4-8.6 2.9-2.4 2.9-7.7.1-10.1-3.5-3-7.1-5.9-10.4-8.7-3.4 2.8-6.9 5.8-10.5 8.8-2.7 2.3-2.8 7.6 0 9.9 3.4 2.9 6.9 5.8 10.4 8.7zM1090.7 293c3.3-2.8 6.6-5.5 9.9-8.3 3.5-2.9 3.6-7.9.2-10.8-3.3-2.8-6.7-5.6-9.9-8.4-3.3 2.8-6.8 5.7-10.2 8.6s-3.3 7.8.2 10.6c3.2 2.8 6.5 5.6 9.8 8.3zm-57.2 187c3.2-2.7 6.5-5.4 9.8-8.1 3.7-3.1 3.7-8.2.1-11.2-3.3-2.8-6.7-5.6-9.7-8.1-3.5 2.9-7.1 5.8-10.6 8.8-2.9 2.4-2.8 7.5 0 9.9 3.5 2.9 7 5.8 10.4 8.7zm-257.2-27.5c-3.1 2.6-6.4 5.4-9.7 8.1-3.8 3.2-3.9 8.2 0 11.4 3.2 2.7 6.5 5.4 9.6 8 3.1-2.6 6.4-5.4 9.7-8.1 3.9-3.3 3.9-8.1 0-11.3-3.3-2.7-6.5-5.5-9.6-8.1zm228.8-122c3.4-2.8 6.7-5.6 10.1-8.4 3-2.6 3-8 0-10.6-3.4-2.9-6.8-5.7-10-8.5-3.3 2.7-6.8 5.6-10.3 8.5-3.3 2.7-3.3 7.7-.1 10.4 3.4 2.9 6.8 5.7 10.3 8.6zm28.5-112.2c3.1-2.6 6.2-5.3 9.4-7.9 4.1-3.4 4.1-8.3 0-11.7-3.2-2.7-6.4-5.3-9.3-7.8-3.4 2.8-7 5.7-10.4 8.7-3.1 2.6-3.1 7.6.1 10.3l10.2 8.4zm57.2 112.1c1.6-1.4 3.3-2.8 5-4.2 1.7-1.4 3.5-2.8 5.2-4.3 3.2-2.7 3.1-7.8 0-10.5-3.4-2.9-6.8-5.7-10.1-8.5-1.6 1.4-3.3 2.9-5 4.3-1.8 1.5-3.6 2.9-5.4 4.4-3.1 2.6-3.1 7.7.1 10.3 3.3 2.8 6.7 5.6 10.2 8.5zm-28.7 112.4c3.5-2.9 7-5.9 10.6-8.9 2.8-2.4 2.7-7.8-.1-10.2-3.5-3-7.1-5.9-10.4-8.7-1.5 1.3-3 2.7-4.5 4-1.6 1.3-3.2 2.6-4.8 4-4.1 3.4-4.1 8.3 0 11.8 3 2.7 6.2 5.4 9.2 8zm-314.3-65.1c-3.2 2.7-6.5 5.4-9.8 8.2-4 3.3-4 7.8-.1 11.1 3.3 2.7 6.5 5.5 9.7 8.1 3.3-2.7 6.5-5.4 9.7-8.1 3.8-3.1 3.8-8.1.1-11.2-3.2-2.7-6.5-5.4-9.6-8.1zm28.5 27.5c3.4-2.8 6.9-5.7 10.4-8.7 2.9-2.5 2.8-7.7-.1-10.1-3.5-2.9-7-5.8-10.3-8.7-3.2 2.7-6.6 5.6-10.1 8.4-3.2 2.7-3.3 8 0 10.7 3.4 2.9 6.8 5.6 10.1 8.4zm0-139.6c-3.3 2.7-6.7 5.5-10.1 8.4-3.3 2.8-3.2 8 .1 10.7 3.4 2.8 6.8 5.7 10 8.4 1.6-1.4 3.2-2.8 4.8-4.1 1.7-1.4 3.4-2.9 5.1-4.3 3.4-2.8 3.4-7.9.1-10.6-3.3-2.9-6.7-5.7-10-8.5zm-28.5-37.4c-3.4 2.9-6.9 5.8-10.4 8.7-3.1 2.6-3.1 7.5 0 10.1 3.5 2.9 7 5.8 10.3 8.6 3.4-2.8 6.8-5.6 10.1-8.4 3.2-2.6 3.2-7.9.1-10.5-3.4-2.9-6.8-5.7-10.1-8.5zm371.7 149.6c-3.4 2.8-7 5.8-10.6 8.8-3 2.5-3 7.4-.1 9.8 3.6 3 7.2 5.9 10.7 8.9 1.5-1.3 3.1-2.7 4.7-4.1 1.7-1.5 3.5-2.9 5.2-4.3 3.3-2.8 3.4-7.9.1-10.7-3.4-2.9-6.7-5.7-10-8.4zm-85.8-37.4c-3.4 2.8-7 5.8-10.5 8.8-2.9 2.4-2.9 7.5 0 9.9 3.6 3 7.1 5.9 10.5 8.7 3.4-2.9 6.9-5.8 10.3-8.6 2.8-2.4 2.8-7.8 0-10.1-3.5-2.9-6.9-5.8-10.3-8.7zm-.1 64.8c3.5-2.9 7-5.8 10.4-8.7 2.8-2.4 2.8-7.8 0-10.1-3.5-2.9-6.9-5.8-10.2-8.6-3.5 2.9-7.1 5.8-10.6 8.8-2.9 2.4-2.9 7.5 0 9.9 3.4 2.9 6.9 5.8 10.4 8.7zm28.6-177c-3.1 2.6-6.4 5.4-9.7 8.2-3.8 3.2-3.7 8.2.1 11.4 3.2 2.7 6.4 5.4 9.5 7.9 3.4-2.8 7-5.8 10.6-8.8 2.7-2.3 2.7-7.6 0-10-3.5-3-7.1-5.9-10.5-8.7zm-285.9 0c-3.2 2.7-6.6 5.5-9.9 8.3-3.4 2.9-3.5 8.1 0 10.9 3.4 2.8 6.7 5.6 9.9 8.3 3.3-2.8 6.9-5.7 10.4-8.6 2.9-2.5 2.9-7.7 0-10.1-3.5-3.1-7-6-10.4-8.8zm314.6 0c-3.5 2.9-7.1 5.9-10.7 9-2.6 2.2-2.6 7.4-.1 9.6 3.6 3.1 7.2 6 10.7 8.9 3.4-2.9 6.8-5.7 10.2-8.5 3.2-2.7 3.2-7.8 0-10.5-3.4-2.9-6.8-5.7-10.1-8.5zM1005 480c3.4-2.9 7-5.8 10.6-8.8 2.6-2.2 2.5-7.8-.1-10-3.5-3-7.1-5.9-10.4-8.6-3.4 2.8-6.9 5.7-10.3 8.6-3.1 2.6-3.1 7.5-.1 10 3.4 3 6.9 5.9 10.3 8.8zm-200.1-64.8c-3.4 2.8-7 5.8-10.5 8.8-2.8 2.3-2.8 7.6 0 9.9 3.5 2.9 7 5.8 10.4 8.7 3.4-2.8 6.8-5.6 10.2-8.5 3.2-2.7 3.2-7.8 0-10.5-3.4-2.8-6.8-5.7-10.1-8.4zm-57.3-196.9c3.4-2.8 7-5.8 10.5-8.8 2.8-2.3 2.8-7.6 0-9.9-3.5-3-7.1-6-10.4-8.7-3.2 2.6-6.5 5.4-9.8 8.2-4 3.4-4 7.8 0 11.1 3.3 2.7 6.6 5.5 9.7 8.1zm286 74.7c3.5-2.9 6.9-5.7 10.3-8.6 2.8-2.4 2.8-7.8 0-10.1-3.5-2.9-6.9-5.8-10.3-8.7-3.4 2.8-6.9 5.7-10.4 8.6-3.2 2.6-3.2 7.6 0 10.2 3.6 3 7 5.8 10.4 8.6zM833.4 480c3.5-2.9 6.9-5.7 10.3-8.6 2.9-2.5 2.8-7.9-.1-10.3-3.5-2.9-6.9-5.8-10.2-8.5-3.2 2.7-6.7 5.5-10.1 8.4-3.2 2.7-3.3 8 0 10.8 3.4 2.7 6.8 5.4 10.1 8.2zm-85.7-112.2c3.4-2.8 6.8-5.6 10.1-8.4 3.3-2.7 3.2-7.9-.1-10.7-3.4-2.9-6.8-5.7-9.9-8.4-3.4 2.8-6.8 5.7-10.3 8.7-3.2 2.7-3.2 7.6-.1 10.3 3.4 2.8 6.9 5.7 10.3 8.5zm285.9-37.4c3.5-2.9 7-5.8 10.4-8.7 2.7-2.3 2.6-7.7 0-9.9-3.5-3-7-5.9-10.3-8.8-3.4 2.8-6.9 5.7-10.4 8.7-3.2 2.6-3.1 7.6 0 10.2 3.4 2.8 6.9 5.7 10.3 8.5zm85.8 0c3.3-2.8 6.8-5.6 10.2-8.5 3-2.6 3.1-7.8.1-10.3-3.5-2.9-6.9-5.8-10.2-8.5-3.4 2.8-6.9 5.7-10.4 8.6-3.3 2.7-3.3 7.5 0 10.2 3.5 2.8 7 5.7 10.3 8.5zm-85.8 112.2c3.5-2.9 6.9-5.8 10.4-8.6 2.8-2.4 2.8-7.8 0-10.1-3.5-2.9-6.9-5.8-10.3-8.7-3.3 2.8-6.9 5.7-10.4 8.7-3 2.5-3.1 7.6-.1 10.1 3.5 2.8 7 5.7 10.4 8.6zm85.8-74.8c3.3-2.8 6.6-5.5 9.9-8.3 3.5-2.9 3.5-8 .1-10.9-3.4-2.8-6.7-5.6-9.9-8.3-3.2 2.7-6.7 5.6-10.2 8.5s-3.4 7.6.2 10.5c3.2 2.9 6.6 5.7 9.9 8.5zm-114.3 74.8c3.3-2.7 6.6-5.5 9.8-8.3 3.5-2.9 3.3-8.2-.2-11.1-3.3-2.7-6.5-5.5-9.6-8.1-3.4 2.8-6.9 5.7-10.4 8.6-3.2 2.6-3.2 7.6 0 10.3 3.4 2.9 6.9 5.7 10.4 8.6zm-200.3-187c3.4-2.8 7-5.7 10.4-8.6 2.9-2.5 2.9-7.7 0-10.1-3.5-3-7-5.9-10.4-8.7-3.4 2.8-6.8 5.8-10.3 8.7-3 2.6-3 7.7 0 10.3 3.5 2.8 6.9 5.6 10.3 8.4zm200.3 37.5c1.6-1.4 3.2-2.8 4.9-4.1 1.7-1.4 3.5-2.8 5.2-4.3 3-2.6 3-8.1 0-10.6-3.4-2.9-6.8-5.7-10.1-8.5-1.5 1.3-3.2 2.8-4.9 4.2-1.7 1.4-3.5 2.8-5.2 4.3-3.6 3-3.5 7.8.1 10.8 3.3 2.7 6.6 5.4 10 8.2zM747.7 303c-3.2 2.7-6.5 5.4-9.8 8.2-4 3.4-4 7.8 0 11.1 3.3 2.7 6.5 5.5 9.7 8.1 1.7-1.4 3.4-2.9 5.1-4.3s3.5-2.8 5.2-4.3c3-2.5 2.9-7.9 0-10.4-3.4-2.7-6.8-5.6-10.2-8.4zm0 112.1c-3.4 2.8-6.9 5.7-10.3 8.7-3.2 2.7-3.1 7.6.1 10.3 3.4 2.9 6.8 5.7 10.2 8.5 1.7-1.4 3.4-2.9 5.1-4.3s3.5-2.8 5.2-4.3c3-2.5 2.9-7.9-.1-10.4-3.4-2.8-6.8-5.6-10.2-8.5zm343.1-10c3.5-2.9 7-5.8 10.5-8.8 2.7-2.3 2.7-7.6-.1-10-3.5-3-6.9-5.9-10.3-8.7-3.4 2.8-7 5.7-10.5 8.7-3 2.5-3 7.6-.1 10.1 3.5 3 7 5.9 10.5 8.7zm-371.6 47.4c-3.5 2.9-7.1 5.8-10.6 8.7-2.8 2.4-2.9 7.6-.1 9.9 3.5 3 7.1 5.9 10.5 8.7l10.5-8.7c2.7-2.3 2.8-7.7.1-9.9-3.5-2.9-7-5.8-10.4-8.7zm228.6-47.3c3.3-2.8 6.8-5.7 10.3-8.6 2.9-2.4 2.9-8 0-10.4-3.5-2.9-7-5.8-10.2-8.6-3.2 2.7-6.6 5.6-10 8.5-3.3 2.8-3.4 7.9 0 10.7 3.2 2.9 6.6 5.7 9.9 8.4zm57.2-186.9c3.5-2.9 7.1-5.8 10.5-8.8 2.6-2.2 2.6-7.8 0-10-3.5-3-7.1-5.9-10.4-8.7-3.5 3-7 5.9-10.5 8.8-3 2.5-3 7.4 0 9.9 3.4 3 6.9 5.9 10.4 8.8zm28.6 37.3c3.6-3 7.2-6 10.7-9 2.4-2 2.2-7.6-.1-9.6-3.5-3-7.1-6-10.5-8.9-3.1 2.6-6.4 5.4-9.7 8.1-4.1 3.4-4.1 7.9-.1 11.3 3.2 2.7 6.5 5.4 9.7 8.1zm57.2 84.7c-1.5 1.3-3.2 2.8-4.9 4.2-1.8 1.5-3.6 3-5.4 4.4-3.1 2.6-3.1 7.7 0 10.3 3.4 2.9 6.9 5.7 10.3 8.5 3.3-2.8 6.7-5.6 10.1-8.5 3.2-2.7 3.2-7.8 0-10.5-3.3-2.7-6.7-5.5-10.1-8.4zm-200.1 65c1.6-1.4 3.2-2.9 4.9-4.3 1.8-1.5 3.6-2.9 5.4-4.5 2.7-2.4 2.6-7.9-.1-10.2-3.4-2.9-6.9-5.8-10.1-8.6-3.3 2.8-6.8 5.7-10.3 8.6-3 2.5-3 7.8 0 10.3 3.3 2.9 6.8 5.8 10.2 8.7zm171.4-112.2c3.3-2.7 6.7-5.6 10.1-8.4 3.3-2.8 3.3-7.9.1-10.6-3.4-2.9-6.8-5.7-10.1-8.5-3.3 2.8-6.7 5.6-10.1 8.5-3.2 2.8-3.1 8 .1 10.8 3.4 2.7 6.7 5.6 9.9 8.2zm-114.3 0c3.1-2.6 6.4-5.4 9.6-8.1 3.8-3.2 3.8-8.2 0-11.4-3.3-2.8-6.6-5.5-9.6-8-3.2 2.7-6.6 5.5-9.9 8.4-3.4 2.9-3.5 8 0 10.9 3.3 2.8 6.7 5.5 9.9 8.2zm.2-74.6c.3-.3.5-.8.9-1.2l8.7-7.2c3.4-2.8 3.4-8.3.1-11.1s-6.7-5.6-9.8-8.2c-3.2 2.7-6.7 5.6-10.1 8.5-3.3 2.8-3.2 7.9.1 10.7 3.2 2.8 6.6 5.6 10.1 8.5zm114.2 159.2c-3.4 2.8-6.8 5.7-10.2 8.6-2.9 2.5-2.9 7.9 0 10.4 3.4 2.9 6.9 5.8 10.2 8.6 1.7-1.4 3.3-2.9 5.1-4.3 1.7-1.4 3.5-2.8 5.2-4.3 3.2-2.7 3.1-7.9 0-10.5-3.6-2.9-7-5.7-10.3-8.5zm-114.3 37.4c-3.3 2.8-6.8 5.7-10.3 8.6-3 2.6-3 7.8 0 10.4 3.4 2.9 6.8 5.7 10.1 8.5 3.1-2.6 6.4-5.2 9.6-7.9 3.9-3.3 3.9-8.4 0-11.6-3.2-2.7-6.4-5.4-9.4-8zm-.2-47.2c3.4-2.8 6.9-5.7 10.3-8.6 2.9-2.4 2.8-7.9 0-10.4-3.5-2.9-6.9-5.8-10-8.4-1.4 1.1-3.1 2.5-4.7 3.8-1.7 1.4-3.3 2.7-5 4.1-3.9 3.3-4 8.1-.1 11.4 3.1 2.7 6.3 5.4 9.5 8.1zM804.8 190.7c-1.5 1.3-3.2 2.9-4.9 4.4-1.8 1.5-3.6 2.9-5.4 4.5-2.9 2.5-2.8 7.7.1 10.1 3.5 2.9 7 5.8 10.2 8.6 3.3-2.8 6.7-5.6 10.1-8.4 3.2-2.7 3.3-8 .1-10.7-3.5-2.8-6.9-5.7-10.2-8.5zm85.9 102.4c3.3-2.8 6.8-5.7 10.3-8.7 2.8-2.4 2.7-7.8 0-10.2-3.4-2.9-6.9-5.9-10.2-8.7-3.4 2.8-6.9 5.8-10.5 8.8-2.9 2.5-2.8 7.7.1 10.1 3.4 3 6.9 5.9 10.3 8.7zM719 405.2c3.5-2.9 6.9-5.8 10.3-8.6 3.2-2.7 3.2-7.7-.1-10.4-3.4-2.8-6.8-5.7-10.2-8.5-1.6 1.4-3.2 2.8-4.9 4.3-1.7 1.4-3.5 2.8-5.2 4.3-3.2 2.7-3.2 7.9 0 10.5 3.4 2.8 6.8 5.6 10.1 8.4zm.1-139.6c-3.3 2.7-6.5 5.5-9.8 8.3-3.7 3.1-3.6 8.1.2 11.2 3.2 2.7 6.4 5.4 9.6 8 3.4-2.8 6.9-5.8 10.4-8.7 3-2.5 3.1-7.6.1-10.1l-10.5-8.7zm228.6 64.8c3.3-2.7 6.7-5.6 10.1-8.4 3.2-2.7 3.1-8.1-.1-10.7-3.4-2.9-6.8-5.7-10-8.4-3.3 2.8-6.8 5.7-10.3 8.7-3 2.6-2.9 7.8.1 10.4 3.6 2.9 7 5.7 10.2 8.4zm114.4.1 10.5-8.7c2.9-2.4 2.8-7.8-.1-10.2-3.5-3-7.1-5.9-10.4-8.7-1.6 1.4-3.1 2.8-4.8 4.2-1.7 1.5-3.5 2.8-5.2 4.3-3.3 2.8-3.2 8 .1 10.8 3.4 2.7 6.6 5.5 9.9 8.3zM719 442.6c3.6-3 7.3-6 10.9-9 2.4-2.1 2.5-7.3.1-9.4-3.6-3.1-7.4-6.1-10.8-9-3.2 2.7-6.5 5.4-9.7 8.1-3.8 3.1-3.9 8.1-.1 11.2 3.1 2.7 6.3 5.3 9.6 8.1zm343.1-74.7 10.5-8.7c2.9-2.4 2.8-7.7 0-10.1-3.5-3-7.1-5.9-10.4-8.7-3.3 2.8-6.6 5.6-10 8.4-3.3 2.7-3.3 8-.1 10.8 3.4 2.7 6.8 5.5 10 8.3zM890.7 255.7c3.3-2.7 6.6-5.5 9.8-8.2 3.4-2.8 3.4-8.1.1-10.9-3.4-2.8-6.7-5.7-10-8.4-1.5 1.3-3 2.7-4.7 4.1-1.7 1.4-3.5 2.8-5.2 4.3-3.6 3-3.5 8 .1 11l9.9 8.1zm85.9 84.7c-3.4 2.8-7 5.7-10.6 8.7-2.9 2.4-3 7.5-.1 9.9 3.5 3 7.1 5.9 10.6 8.8 1.7-1.4 3.3-2.8 4.9-4.2 1.7-1.4 3.5-2.8 5.2-4.3 3.1-2.6 3-8 0-10.6-3.4-2.7-6.7-5.5-10-8.3zm-143.2-122c1.6-1.3 3.1-2.8 4.8-4.1 1.6-1.4 3.3-2.7 5-4.1 3.5-2.9 3.6-8.2.1-11.1-3.3-2.8-6.7-5.6-9.9-8.3-1.5 1.3-3.2 2.8-4.9 4.2-1.8 1.5-3.6 2.9-5.4 4.5-3 2.6-2.9 7.9.1 10.4 3.4 2.8 6.9 5.7 10.2 8.5zM804.8 480c3.3-2.8 6.6-5.5 9.9-8.2 3.5-3 3.5-8.2 0-11-3.4-2.8-6.7-5.6-9.8-8.2-3.3 2.8-6.9 5.8-10.4 8.8-2.7 2.4-2.7 7.6 0 10 3.3 2.8 6.8 5.7 10.3 8.6zm-85.7-251.8c-3.5 2.9-7 5.7-10.3 8.6-3 2.6-2.9 7.8.1 10.4 3.4 2.9 6.8 5.7 10.1 8.4 3.5-2.9 7.1-5.9 10.7-8.8 2.7-2.2 2.7-7.5 0-9.7-3.5-3-7.1-6-10.6-8.9zm171.6 214.4c3.3-2.7 6.5-5.4 9.7-8.1 3.7-3.1 3.6-8.2-.1-11.3-3.3-2.7-6.5-5.5-9.6-8.1-1.5 1.3-3.1 2.7-4.7 4.1-1.6 1.4-3.3 2.7-5 4.1-3.8 3.1-3.9 8.1-.2 11.2l9.9 8.1zm57.1-186.9c1.4-1.2 3-2.7 4.6-4 1.7-1.4 3.5-2.9 5.2-4.3 3.3-2.7 3.4-8.2.1-10.9-3.4-2.9-6.8-5.7-10-8.4-3.2 2.7-6.5 5.5-9.9 8.3-3.6 3.1-3.5 8.1.1 11.1 3.4 2.8 6.7 5.6 9.9 8.2zm28.7-27.5c-3.4 2.9-7.2 5.9-10.8 9-2.4 2-2.5 7.3-.3 9.2 3.6 3.1 7.4 6.2 11 9.1 3.5-2.9 6.9-5.7 10.2-8.5 2.9-2.5 2.9-8 0-10.4-3.4-2.8-6.8-5.6-10.1-8.4zm-85.8-37.4c-3 2.5-6.2 5.1-9.4 7.8-4.3 3.6-4.3 8.4 0 11.9 3.2 2.6 6.3 5.3 9.3 7.8 1.5-1.3 3.2-2.8 4.9-4.2 1.7-1.5 3.5-2.8 5.2-4.3 3.1-2.6 3.1-8 .1-10.6-3.4-2.8-6.9-5.6-10.1-8.4zm0 261.7c-3.3 2.8-6.7 5.6-10.2 8.5-3.2 2.6-3.2 7.9-.1 10.5 3.4 2.9 6.8 5.7 10.1 8.5 3.2-2.7 6.6-5.5 9.9-8.3 3.5-3 3.4-8.2-.1-11.1-3.2-2.7-6.5-5.5-9.6-8.1zm0-112.2c-3.4 2.8-6.9 5.8-10.5 8.8-2.7 2.3-2.8 7.6-.1 10 3.5 3 7.1 5.9 10.5 8.8 3.1-2.6 6.3-5.3 9.5-8 3.8-3.2 3.8-8.2.1-11.4-3.2-2.8-6.3-5.5-9.5-8.2zm85.8-37.4c-1.6 1.3-3.2 2.7-4.8 4.1-1.7 1.4-3.5 2.9-5.2 4.3-3.7 3.1-3.7 7.8.1 10.9 3.3 2.7 6.6 5.5 9.8 8.1 3.4-2.9 6.9-5.7 10.3-8.6 2.8-2.4 2.8-7.8 0-10.2-3.4-2.8-6.8-5.7-10.2-8.6zm-85.8 27.6c1.6-1.4 3.2-2.9 4.9-4.3s3.5-2.8 5.2-4.3c2.9-2.5 2.9-7.9 0-10.4-3.4-2.9-6.9-5.8-10.1-8.5-3.3 2.8-6.8 5.6-10.3 8.6-3 2.5-3 7.8 0 10.3 3.4 2.9 6.9 5.8 10.3 8.6zm57.1 121.9c-1.5 1.3-3.1 2.8-4.8 4.2-1.8 1.5-3.6 2.9-5.4 4.4-3.1 2.6-3.2 7.7-.1 10.3 3.5 3 7 5.8 10.3 8.7 1.5-1.3 3.1-2.7 4.7-4.1 1.7-1.4 3.5-2.8 5.2-4.3 3.2-2.8 3.2-8.2 0-10.9-3.4-2.8-6.7-5.6-9.9-8.3zm-228.7-112c-3.3 2.8-6.9 5.7-10.4 8.7-2.9 2.4-2.9 7.7 0 10.2 3.4 2.9 6.9 5.8 10.3 8.6 3.5-2.9 7-5.9 10.5-8.8 3-2.5 2.9-7.6-.1-10.1-3.4-2.9-6.8-5.7-10.3-8.6zM862 480c3.5-2.9 7-5.8 10.6-8.8 2.6-2.2 2.7-7.5.1-9.7-3.6-3-7.2-6.1-10.6-8.9-3.4 2.8-6.8 5.7-10.2 8.6-3 2.5-3.1 7.8-.1 10.4 3.3 2.7 6.8 5.5 10.2 8.4zm.1-139.6c-3.4 2.8-6.8 5.7-10.3 8.5-2.5 2.1-3 7.7-.8 9.7 3.6 3.2 7.3 6.2 10.9 9.2 3.5-2.9 6.9-5.7 10.3-8.5 3-2.5 3-7.8 0-10.3-3.3-2.9-6.7-5.8-10.1-8.6zm-143.1-10c3.4-2.9 7-5.8 10.6-8.8 2.9-2.4 2.9-7.5.1-9.9-3.5-3-7.1-5.9-10.5-8.8-3.3 2.8-6.7 5.6-10 8.4-3.4 2.9-3.4 8 .1 10.9 3.2 2.8 6.5 5.5 9.7 8.2zm257.4 74.7c3.4-2.8 6.9-5.6 10.2-8.5 2.9-2.5 2.9-7.9-.1-10.4-3.4-2.9-6.8-5.7-10.1-8.4-3.4 2.8-7.1 5.8-10.7 8.9-2.7 2.3-2.7 7.5.1 9.7 3.6 2.9 7.1 5.8 10.6 8.7zM862 255.6c3.5-2.9 7.2-5.9 10.7-8.9 2.6-2.2 2.5-7.6-.1-9.8-3.5-3-7.1-5.9-10.4-8.7-3.3 2.8-6.7 5.5-10.1 8.4-3.2 2.7-3.2 8.1 0 10.8 3.2 2.7 6.5 5.4 9.9 8.2zm.1 122.1c-3.4 2.9-7 5.8-10.5 8.8-2.5 2.2-2.5 7.7 0 9.9 3.5 2.9 7 5.8 10.4 8.7 3.6-3 7.1-5.8 10.6-8.8 2.7-2.3 2.6-7.7-.2-10-3.5-2.8-6.9-5.8-10.3-8.6zm-.2-159.4c3.4-2.8 7-5.8 10.6-8.8 2.3-1.9 2.8-7.4.8-9.2-3.7-3.3-7.6-6.4-11.2-9.4-3.1 2.6-6.2 5.2-9.3 7.7-4.4 3.6-4.4 8.3 0 11.9 3 2.6 6.1 5.2 9.1 7.8zM976.4 293l10.2-8.4c3-2.6 3-8-.1-10.5-3.4-2.9-6.8-5.7-10-8.4-3.5 2.9-7.1 5.9-10.7 8.9-2.9 2.4-2.8 7.5.1 9.9 3.5 2.7 7 5.6 10.5 8.5zm-114.3 10c-3.4 2.8-6.9 5.7-10.3 8.6-2.6 2.1-2.9 7.8-.5 9.9 3.5 3.1 7.2 6 10.8 9 1.7-1.5 3.4-2.9 5-4.2 1.7-1.4 3.3-2.8 5-4.1 3.4-2.8 3.4-7.8.1-10.6-3.4-3-6.8-5.8-10.1-8.6zm-.1 139.5c3.6-2.9 7.2-5.9 10.7-8.9 2.6-2.2 2.4-7.6-.2-9.8-3.5-3-7.1-5.9-10.4-8.7-3.4 2.8-6.9 5.7-10.3 8.5-2.8 2.3-2.9 7.9-.1 10.2 3.4 3.1 6.9 5.9 10.3 8.7zm114.6-27.3c-3.5 2.9-7.1 5.8-10.7 8.8-2.7 2.3-2.8 7.5-.1 9.8 3.6 3 7.2 5.9 10.6 8.8l10.2-8.4c3.1-2.6 3-8 0-10.6-3.4-2.9-6.8-5.7-10-8.4zM862 293c3.6-2.9 7.1-5.8 10.6-8.8 2.7-2.3 2.6-7.7-.2-9.9-3.5-2.9-6.9-5.8-10.3-8.7-3.3 2.8-6.8 5.6-10.2 8.5-3.1 2.6-3.1 8 0 10.6 3.4 2.8 6.7 5.5 10.1 8.3z"/></g><path style="opacity:.8;fill:#a5a493;enable-background:new" d="M2904.1 295.1h948v826h-948z"/><path style="fill:none" d="M.1.1h4800v3480H.1z"/><path d="M738.7 238.6v943.5H1272v176.5h413.5v-176.5h435.1V238.6H738.7zm1131.9 736.5H985.1v-590h885.5v590z" style="fill:#5d6566"/></svg>