<!-- Generator: Adobe Illustrator 25.2.0, SVG Export Plug-In  -->
<svg version="1.1" xmlns="http://www.w3.org/2000/svg" xmlns:xlink="http://www.w3.org/1999/xlink" x="0px" y="0px"
	 width="4800.2px" height="3480.2px" viewBox="0 0 4800.2 3480.2"
	 style="overflow:visible;enable-background:new 0 0 4800.2 3480.2;" xml:space="preserve">
<style type="text/css">
	.st0{fill:none;stroke:#00B140;stroke-width:0.25;stroke-miterlimit:10;}
	.st1{fill:#3D4344;}
	.st2{opacity:0.8;fill:#A5A493;}
	.st3{fill:none;}
	.st4{fill:#5D6566;}
	.st5{fill:#2C3233;}
	.st6{fill:url(#SVGID_1_);}
	.st7{fill:url(#SVGID_2_);}
</style>
<defs>
</defs>
<g>
	<rect x="0.1" y="0.1" class="st0" width="4800" height="3480"/>
	<line class="st0" x1="4800.1" y1="59.1" x2="0.1" y2="59.1"/>
	<line class="st0" x1="4800.1" y1="118.1" x2="0.1" y2="118.1"/>
	<line class="st0" x1="4800.1" y1="177.1" x2="0.1" y2="177.1"/>
	<line class="st0" x1="4800.1" y1="236.1" x2="0.1" y2="236.1"/>
	<line class="st0" x1="4800.1" y1="295" x2="0.1" y2="295"/>
	<line class="st0" x1="4800.1" y1="354" x2="0.1" y2="354"/>
	<line class="st0" x1="4800.1" y1="413" x2="0.1" y2="413"/>
	<line class="st0" x1="4800.1" y1="472" x2="0.1" y2="472"/>
	<line class="st0" x1="4800.1" y1="531" x2="0.1" y2="531"/>
	<line class="st0" x1="4800.1" y1="590" x2="0.1" y2="590"/>
	<line class="st0" x1="4800.1" y1="648.9" x2="0.1" y2="648.9"/>
	<line class="st0" x1="4800.1" y1="707.9" x2="0.1" y2="707.9"/>
	<line class="st0" x1="4800.1" y1="766.9" x2="0.1" y2="766.9"/>
	<line class="st0" x1="4800.1" y1="825.9" x2="0.1" y2="825.9"/>
	<line class="st0" x1="4800.1" y1="884.9" x2="0.1" y2="884.9"/>
	<line class="st0" x1="4800.1" y1="943.9" x2="0.1" y2="943.9"/>
	<line class="st0" x1="4800.1" y1="1002.8" x2="0.1" y2="1002.8"/>
	<line class="st0" x1="4800.1" y1="1061.8" x2="0.1" y2="1061.8"/>
	<line class="st0" x1="4800.1" y1="1120.8" x2="0.1" y2="1120.8"/>
	<line class="st0" x1="4800.1" y1="1179.8" x2="0.1" y2="1179.8"/>
	<line class="st0" x1="4800.1" y1="1238.8" x2="0.1" y2="1238.8"/>
	<line class="st0" x1="4800.1" y1="1297.8" x2="0.1" y2="1297.8"/>
	<line class="st0" x1="4800.1" y1="1356.7" x2="0.1" y2="1356.7"/>
	<line class="st0" x1="4800.1" y1="1415.7" x2="0.1" y2="1415.7"/>
	<line class="st0" x1="4800.1" y1="1474.7" x2="0.1" y2="1474.7"/>
	<line class="st0" x1="4800.1" y1="1533.7" x2="0.1" y2="1533.7"/>
	<line class="st0" x1="4800.1" y1="1592.7" x2="0.1" y2="1592.7"/>
	<line class="st0" x1="4800.1" y1="1651.7" x2="0.1" y2="1651.7"/>
	<line class="st0" x1="4800.1" y1="1710.6" x2="0.1" y2="1710.6"/>
	<line class="st0" x1="4800.1" y1="1769.6" x2="0.1" y2="1769.6"/>
	<line class="st0" x1="4800.1" y1="1828.6" x2="0.1" y2="1828.6"/>
	<line class="st0" x1="4800.1" y1="1887.6" x2="0.1" y2="1887.6"/>
	<line class="st0" x1="4800.1" y1="1946.6" x2="0.1" y2="1946.6"/>
	<line class="st0" x1="4800.1" y1="2005.5" x2="0.1" y2="2005.5"/>
	<line class="st0" x1="4800.1" y1="2064.5" x2="0.1" y2="2064.5"/>
	<line class="st0" x1="4800.1" y1="2123.5" x2="0.1" y2="2123.5"/>
	<line class="st0" x1="4800.1" y1="2182.5" x2="0.1" y2="2182.5"/>
	<line class="st0" x1="4800.1" y1="2241.5" x2="0.1" y2="2241.5"/>
	<line class="st0" x1="4800.1" y1="2300.5" x2="0.1" y2="2300.5"/>
	<line class="st0" x1="4800.1" y1="2359.4" x2="0.1" y2="2359.4"/>
	<line class="st0" x1="4800.1" y1="2418.4" x2="0.1" y2="2418.4"/>
	<line class="st0" x1="4800.1" y1="2477.4" x2="0.1" y2="2477.4"/>
	<line class="st0" x1="4800.1" y1="2536.4" x2="0.1" y2="2536.4"/>
	<line class="st0" x1="4800.1" y1="2595.4" x2="0.1" y2="2595.4"/>
	<line class="st0" x1="4800.1" y1="2654.4" x2="0.1" y2="2654.4"/>
	<line class="st0" x1="4800.1" y1="2713.3" x2="0.1" y2="2713.3"/>
	<line class="st0" x1="4800.1" y1="2772.3" x2="0.1" y2="2772.3"/>
	<line class="st0" x1="4800.1" y1="2831.3" x2="0.1" y2="2831.3"/>
	<line class="st0" x1="4800.1" y1="2890.3" x2="0.1" y2="2890.3"/>
	<line class="st0" x1="4800.1" y1="2949.3" x2="0.1" y2="2949.3"/>
	<line class="st0" x1="4800.1" y1="3008.3" x2="0.1" y2="3008.3"/>
	<line class="st0" x1="4800.1" y1="3067.2" x2="0.1" y2="3067.2"/>
	<line class="st0" x1="4800.1" y1="3126.2" x2="0.1" y2="3126.2"/>
	<line class="st0" x1="4800.1" y1="3185.2" x2="0.1" y2="3185.2"/>
	<line class="st0" x1="4800.1" y1="3244.2" x2="0.1" y2="3244.2"/>
	<line class="st0" x1="4800.1" y1="3303.2" x2="0.1" y2="3303.2"/>
	<line class="st0" x1="4800.1" y1="3362.2" x2="0.1" y2="3362.2"/>
	<line class="st0" x1="4800.1" y1="3421.1" x2="0.1" y2="3421.1"/>
	<line class="st0" x1="59.4" y1="3480.1" x2="59.4" y2="0.1"/>
	<line class="st0" x1="118.6" y1="3480.1" x2="118.6" y2="0.1"/>
	<line class="st0" x1="177.9" y1="3480.1" x2="177.9" y2="0.1"/>
	<line class="st0" x1="237.2" y1="3480.1" x2="237.2" y2="0.1"/>
	<line class="st0" x1="296.4" y1="3480.1" x2="296.4" y2="0.1"/>
	<line class="st0" x1="355.7" y1="3480.1" x2="355.7" y2="0.1"/>
	<line class="st0" x1="414.9" y1="3480.1" x2="414.9" y2="0.1"/>
	<line class="st0" x1="474.2" y1="3480.1" x2="474.2" y2="0.1"/>
	<line class="st0" x1="533.5" y1="3480.1" x2="533.5" y2="0.1"/>
	<line class="st0" x1="592.7" y1="3480.1" x2="592.7" y2="0.1"/>
	<line class="st0" x1="652" y1="3480.1" x2="652" y2="0.1"/>
	<line class="st0" x1="711.2" y1="3480.1" x2="711.2" y2="0.1"/>
	<line class="st0" x1="770.5" y1="3480.1" x2="770.5" y2="0.1"/>
	<line class="st0" x1="829.8" y1="3480.1" x2="829.8" y2="0.1"/>
	<line class="st0" x1="889" y1="3480.1" x2="889" y2="0.1"/>
	<line class="st0" x1="948.3" y1="3480.1" x2="948.3" y2="0.1"/>
	<line class="st0" x1="1007.5" y1="3480.1" x2="1007.5" y2="0.1"/>
	<line class="st0" x1="1066.8" y1="3480.1" x2="1066.8" y2="0.1"/>
	<line class="st0" x1="1126.1" y1="3480.1" x2="1126.1" y2="0.1"/>
	<line class="st0" x1="1185.3" y1="3480.1" x2="1185.3" y2="0.1"/>
	<line class="st0" x1="1244.6" y1="3480.1" x2="1244.6" y2="0.1"/>
	<line class="st0" x1="1303.8" y1="3480.1" x2="1303.8" y2="0.1"/>
	<line class="st0" x1="1363.1" y1="3480.1" x2="1363.1" y2="0.1"/>
	<line class="st0" x1="1422.3" y1="3480.1" x2="1422.3" y2="0.1"/>
	<line class="st0" x1="1481.6" y1="3480.1" x2="1481.6" y2="0.1"/>
	<line class="st0" x1="1540.9" y1="3480.1" x2="1540.9" y2="0.1"/>
	<line class="st0" x1="1600.1" y1="3480.1" x2="1600.1" y2="0.1"/>
	<line class="st0" x1="1659.4" y1="3480.1" x2="1659.4" y2="0.1"/>
	<line class="st0" x1="1718.6" y1="3480.1" x2="1718.6" y2="0.1"/>
	<line class="st0" x1="1777.9" y1="3480.1" x2="1777.9" y2="0.1"/>
	<line class="st0" x1="1837.2" y1="3480.1" x2="1837.2" y2="0.1"/>
	<line class="st0" x1="1896.4" y1="3480.1" x2="1896.4" y2="0.1"/>
	<line class="st0" x1="1955.7" y1="3480.1" x2="1955.7" y2="0.1"/>
	<line class="st0" x1="2014.9" y1="3480.1" x2="2014.9" y2="0.1"/>
	<line class="st0" x1="2074.2" y1="3480.1" x2="2074.2" y2="0.1"/>
	<line class="st0" x1="2133.5" y1="3480.1" x2="2133.5" y2="0.1"/>
	<line class="st0" x1="2192.7" y1="3480.1" x2="2192.7" y2="0.1"/>
	<line class="st0" x1="2252" y1="3480.1" x2="2252" y2="0.1"/>
	<line class="st0" x1="2311.2" y1="3480.1" x2="2311.2" y2="0.1"/>
	<line class="st0" x1="2370.5" y1="3480.1" x2="2370.5" y2="0.1"/>
	<line class="st0" x1="2429.8" y1="3480.1" x2="2429.8" y2="0.1"/>
	<line class="st0" x1="2489" y1="3480.1" x2="2489" y2="0.1"/>
	<line class="st0" x1="2548.3" y1="3480.1" x2="2548.3" y2="0.1"/>
	<line class="st0" x1="2607.5" y1="3480.1" x2="2607.5" y2="0.1"/>
	<line class="st0" x1="2666.8" y1="3480.1" x2="2666.8" y2="0.1"/>
	<line class="st0" x1="2726.1" y1="3480.1" x2="2726.1" y2="0.1"/>
	<line class="st0" x1="2785.3" y1="3480.1" x2="2785.3" y2="0.1"/>
	<line class="st0" x1="2844.6" y1="3480.1" x2="2844.6" y2="0.1"/>
	<line class="st0" x1="2903.8" y1="3480.1" x2="2903.8" y2="0.1"/>
	<line class="st0" x1="2963.1" y1="3480.1" x2="2963.1" y2="0.1"/>
	<line class="st0" x1="3022.3" y1="3480.1" x2="3022.3" y2="0.1"/>
	<line class="st0" x1="3081.6" y1="3480.1" x2="3081.6" y2="0.1"/>
	<line class="st0" x1="3140.9" y1="3480.1" x2="3140.9" y2="0.1"/>
	<line class="st0" x1="3200.1" y1="3480.1" x2="3200.1" y2="0.1"/>
	<line class="st0" x1="3259.4" y1="3480.1" x2="3259.4" y2="0.1"/>
	<line class="st0" x1="3318.6" y1="3480.1" x2="3318.6" y2="0.1"/>
	<line class="st0" x1="3377.9" y1="3480.1" x2="3377.9" y2="0.1"/>
	<line class="st0" x1="3437.2" y1="3480.1" x2="3437.2" y2="0.1"/>
	<line class="st0" x1="3496.4" y1="3480.1" x2="3496.4" y2="0.1"/>
	<line class="st0" x1="3555.7" y1="3480.1" x2="3555.7" y2="0.1"/>
	<line class="st0" x1="3614.9" y1="3480.1" x2="3614.9" y2="0.1"/>
	<line class="st0" x1="3674.2" y1="3480.1" x2="3674.2" y2="0.1"/>
	<line class="st0" x1="3733.5" y1="3480.1" x2="3733.5" y2="0.1"/>
	<line class="st0" x1="3792.7" y1="3480.1" x2="3792.7" y2="0.1"/>
	<line class="st0" x1="3852" y1="3480.1" x2="3852" y2="0.1"/>
	<line class="st0" x1="3911.2" y1="3480.1" x2="3911.2" y2="0.1"/>
	<line class="st0" x1="3970.5" y1="3480.1" x2="3970.5" y2="0.1"/>
	<line class="st0" x1="4029.8" y1="3480.1" x2="4029.8" y2="0.1"/>
	<line class="st0" x1="4089" y1="3480.1" x2="4089" y2="0.1"/>
	<line class="st0" x1="4148.3" y1="3480.1" x2="4148.3" y2="0.1"/>
	<line class="st0" x1="4207.5" y1="3480.1" x2="4207.5" y2="0.1"/>
	<line class="st0" x1="4266.8" y1="3480.1" x2="4266.8" y2="0.1"/>
	<line class="st0" x1="4326.1" y1="3480.1" x2="4326.1" y2="0.1"/>
	<line class="st0" x1="4385.3" y1="3480.1" x2="4385.3" y2="0.1"/>
	<line class="st0" x1="4444.6" y1="3480.1" x2="4444.6" y2="0.1"/>
	<line class="st0" x1="4503.8" y1="3480.1" x2="4503.8" y2="0.1"/>
	<line class="st0" x1="4563.1" y1="3480.1" x2="4563.1" y2="0.1"/>
	<line class="st0" x1="4622.3" y1="3480.1" x2="4622.3" y2="0.1"/>
	<line class="st0" x1="4681.6" y1="3480.1" x2="4681.6" y2="0.1"/>
	<line class="st0" x1="4740.9" y1="3480.1" x2="4740.9" y2="0.1"/>
</g>
<line class="st0" x1="770.1" y1="1061.1" x2="771.1" y2="1179.1"/>
<g>
	<path class="st1" d="M327,185.5c0.9,0,1.9,0,2.9,0c-0.2,0.2-0.4,0.4-0.6,0.6c2.1,2,4.2,4.1,6.4,6.1c2.3,2,4.6,3.9,7.1,6
		c3.6-4.6,10-6.9,12.9-12.6c0.8,0,1.8,0,2.8,0c-0.2,0.2-0.3,0.4-0.5,0.5c2.2,2.1,4.3,4.2,6.6,6.3c2.2,2,4.5,3.8,6.9,5.9
		c3.4-4.5,9.8-6.8,12.8-12.6c0.1,0,0.7-0.1,1.2-0.1c0.5,0,1.1,0,1.5,0c2.7,5.9,9.3,8,13,13.1c3.6-5,10.1-7.2,13-13
		c0.7,0,1.8,0,2.3,0c1.4,1.6,2.3,3,3.6,4.2c3.2,2.9,6.5,5.6,10,8.5c3.5-4.5,9.7-6.8,12.8-12.6c0,0,0.6-0.1,1.1-0.1
		c0.5,0,1.1,0,1.2,0.5c2,1.9,3.9,3.9,5.9,5.7c2.5,2.2,5,4.3,7.7,6.5c3.4-4.7,9.8-6.9,12.7-12.6c0.7,0,1.7,0,2.7,0
		c2.7,5.6,9.1,7.8,13,12.8c3.8-4.7,10-7,13-12.8c0.7,0,1.8,0,2.3,0c1.8,1.9,3.2,3.6,4.8,5.1c2.8,2.6,5.8,5,8.8,7.5
		c3.3-4.7,9.9-6.8,12.6-12.7c0.7,0,1.8,0,2.8,0c2.6,5.7,9.1,7.9,12.9,12.9c3.7-4.9,10.1-7.1,13.1-12.9c0.2,0,0.8-0.1,1.3-0.1
		c0.5,0,0.9,0,1.2,0c2.9,5.8,9.5,8,13,13.1c3.7-4.9,10-7.3,13.1-13c0.6,0,1.7,0,2.8,0c-0.2,0.2-0.4,0.4-0.5,0.6c2.1,2,4.2,4.1,6.4,6
		c2.3,2,4.6,3.9,7.1,5.9c3.5-4.6,9.8-6.9,12.9-12.6c0.6,0,1.6,0,2.6,0c-0.2,0.2-0.3,0.3-0.5,0.5c2.2,2.1,4.4,4.3,6.7,6.4
		c2.1,1.9,4.4,3.7,6.8,5.7c3.6-4.5,9.9-6.8,13.1-13c0.4,0.9,1.1,1.7,0.9,2.2c-0.5,1.2-1.2,2.6-2.2,3.5c-2.6,2.4-5.4,4.5-8,6.8
		c-2.9,2.5-2.9,7.7,0,10.1c2.5,2.1,5.1,4.3,7.7,6.3c1.8,1.4,2.4,3.2,2.7,5.4c0.6,5-1.1,8.8-5.6,11.5c-1.2,0.7-2.2,1.9-3.4,2.7
		c-2.9,1.9-4,4.4-3.4,7.6c0.3,1.3,0.8,2.7,1.7,3.6c2.4,2.3,5,4.3,7.6,6.4c2,1.5,3.1,3.3,2.9,5.8c-0.1,1.3,0.2,2.7-0.1,3.9
		c-0.4,1.6-1,3.4-2.1,4.5c-2.4,2.4-5.2,4.4-7.8,6.6c-3.3,2.8-3.4,7.9,0,10.7c2.5,2.1,5,4.1,7.5,6.2c1.8,1.4,2.3,3.2,2.6,5.5
		c0.6,5-1.2,8.7-5.6,11.5c-1.4,0.8-2.4,2.2-3.8,3c-2.4,1.5-3.1,3.6-3,6.2c0.1,2.2,0.6,3.8,2.5,5.2c2.6,1.9,5.2,3.9,7.4,6.2
		c1.2,1.3,1.9,3.2,2.4,4.9c0.4,1.3,0.3,2.8,0,4.1c-0.4,1.7-1,3.6-2.2,4.8c-2.4,2.5-5.3,4.5-8,6.8c-3,2.5-2.9,7.8,0.2,10.3
		c2.6,2.1,5.1,4.3,7.7,6.3c1.7,1.4,2.7,3,2.5,5.2c-0.1,1.3,0.3,2.7-0.1,3.9c-0.5,1.7-1.1,3.7-2.3,5c-2.4,2.5-5.4,4.5-8,6.8
		c-2.8,2.4-2.7,7.6,0,10c2.6,2.2,5.2,4.4,7.9,6.5c1.7,1.4,2.3,3,2.6,5.2c0.7,5.2-1.2,9.1-5.8,11.9c-1.1,0.7-2,1.9-3.1,2.5
		c-3.8,2-3.7,5.3-3.3,8.7c0.1,0.9,0.9,1.9,1.7,2.5c2.5,2.2,5,4.3,7.7,6.4c2,1.6,3.1,3.4,2.8,5.9c0,0.2,0,0.4,0,0.5
		c0.8,4.4-0.9,7.7-4.9,10.2c-1.4,0.9-2.5,2.3-4,3.2c-3.5,2-3.9,5.1-3.3,8.4c0.2,1.1,1,2.2,1.9,3c2.7,2.4,5.6,4.5,8.2,6.9
		c1,0.9,1.6,2.3,2,3.5c0.2,0.5-0.5,1.2-0.7,1.5c-1.6-1.8-2.8-3.4-4.3-4.8c-3-2.7-6.2-5.3-9.4-7.9c-3.2,4.8-10,6.8-12.7,12.8
		c-0.7,0-1.8,0-2.3,0c-1.2-1.6-2.1-3.1-3.3-4.2c-3.2-2.9-6.6-5.7-10.1-8.6c-3.4,4.7-10,6.9-12.9,12.9c-0.7,0-1.7,0-2.1,0
		c-1.7-1.9-2.9-3.6-4.5-5c-3-2.7-6.1-5.2-9.3-7.9c-3.2,4.8-9.9,7-13,12.9c-0.5,0-1.5,0-1.8,0c-1.7-1.9-3-3.6-4.6-5
		c-3-2.7-6.1-5.2-9.2-7.9c-3.3,4.8-10.1,6.8-12.7,12.9c-0.8,0-1.9,0-2.2,0c-1.4-1.8-2.4-3.3-3.7-4.5c-3.2-2.9-6.5-5.6-9.9-8.4
		c-3.1,4.8-10.1,6.7-12.7,12.9c-0.8,0-1.9,0-2.2,0c-1.7-1.9-2.8-3.6-4.4-5c-3-2.7-6.1-5.2-9.3-7.9c-3.4,4.7-9.9,7-13,12.9
		c0,0-0.5,0.1-1.1,0.1c-0.5,0-1.1,0-0.8,0c-1.6-1.9-2.8-3.6-4.2-4.9c-3.1-2.8-6.3-5.4-9.5-8.1c-3.1,4.8-10,6.8-12.7,12.9
		c-0.7,0-1.8,0-2.2,0c-1.6-1.8-2.7-3.5-4.2-4.8c-3-2.8-6.3-5.3-9.5-8c-3.2,4.8-10,6.8-12.8,12.9c-0.7,0-1.8,0-2.1,0
		c-1.5-1.8-2.5-3.3-3.9-4.5c-3.2-2.8-6.5-5.5-9.8-8.3c-3.3,4.7-10,6.8-12.7,12.8c-0.8,0-1.8,0-2.2,0c-1.5-1.8-2.5-3.4-3.9-4.6
		c-3.1-2.8-6.4-5.4-9.8-8.3c-3.2,4.8-10.1,6.8-12.7,12.9c-0.9,0-1.9,0-2.3,0c-1.5-1.8-2.5-3.3-3.8-4.5c-3.1-2.8-6.4-5.4-9.8-8.3
		c-3.6,4.6-10,6.8-12.9,12.8c-0.2,0-0.7,0.1-1.3,0.1c-0.5,0-1.1,0-1.2-0.5c-1.3-1.5-2.4-3.1-3.8-4.4c-3.1-2.8-6.4-5.4-9.6-8.1
		c-3,4.8-10,6.7-12.5,12.8c-0.7,0-1.8,0-2.3,0c-1.6-1.9-2.9-3.6-4.5-5c-3-2.7-6.1-5.2-9.3-7.9c-3.2,4.8-10.1,6.8-12.7,12.9
		c-0.9,0-2,0-2.3,0c-1.4-1.7-2.2-3.2-3.5-4.3c-3.2-2.9-6.7-5.7-10.1-8.6c-3.2,4.7-10,6.9-12.9,12.9c-0.1,0-0.7,0.1-1.2,0.1
		c-0.5,0-1.1-0.1-1.2-0.6c-1.2-1.4-2.2-3-3.6-4.2c-3.1-2.8-6.4-5.4-9.7-8.2c-3.3,4.8-10,6.9-12.9,12.9c-0.1,0-0.6,0.1-1.1,0.1
		c-0.5,0-1.1,0-1.2-0.5c-1.3-1.5-2.4-3.1-3.8-4.4c-3-2.7-6.3-5.3-9.5-8.1c-3.3,4.7-10.1,6.8-13.1,13.5c-0.4-1.2-1.1-2.1-0.9-2.7
		c0.5-1.2,1.3-2.5,2.3-3.4c2.6-2.4,5.5-4.6,8.2-6.9c2.5-2.2,2.3-7.7-0.1-9.8c-2.7-2.3-5.6-4.3-8-6.7c-1.2-1.3-1.9-3.2-2.4-4.9
		c-0.4-1.2,0-2.6-0.1-3.9c-0.2-2.1,0.7-3.7,2.3-5c2.7-2.2,5.3-4.3,7.9-6.5c3.1-2.6,3-8,0-10.5c-2.6-2.1-5.1-4.3-7.7-6.3
		c-1.8-1.4-2.7-3-2.5-5.2c0.1-1.3-0.2-2.7,0.1-3.9c0.5-1.7,1-3.6,2.2-4.8c2.5-2.5,5.5-4.6,8.2-7c2.7-2.3,2.7-7.9-0.1-10.2
		c-2.7-2.2-5.6-4.3-8-6.7c-1.2-1.2-1.8-3.1-2.2-4.7c-0.3-1.2,0-2.6-0.1-3.9c-0.2-2.2,0.8-3.8,2.5-5.2c2.7-2.2,5.4-4.4,8.1-6.7
		c2.6-2.2,2.5-7.8-0.1-10c-2.7-2.2-5.6-4.3-8-6.7c-1.2-1.2-2-3-2.3-4.7c-1.2-5.3,1-9.2,5.8-12.1c1-0.6,1.7-1.6,2.7-2.2
		c3.9-2.1,4.1-5.5,3.6-9.1c-0.1-0.8-0.8-1.7-1.5-2.3c-2.8-2.4-5.8-4.6-8.4-7.1c-1.2-1.2-1.8-3.1-2.3-4.7c-0.3-1.2,0-2.6-0.1-3.9
		c-0.2-2.2,0.7-3.8,2.4-5.2c2.7-2.1,5.3-4.3,7.9-6.5c2.9-2.5,2.9-7.9-0.1-10.3c-2.6-2.2-5.2-4.4-7.9-6.5c-1.7-1.3-2.2-2.9-2.4-5
		c-0.7-5.1,1.1-8.9,5.7-11.7c1.1-0.6,1.8-1.8,2.9-2.4c3.9-2.1,4.2-5.5,3.7-9c-0.1-0.9-0.9-1.9-1.6-2.5c-2.7-2.4-5.7-4.4-8.2-7
		c-1.2-1.2-2-3-2.3-4.7c-1.1-5.1,0.8-9.1,5.6-11.9c1.1-0.6,1.8-1.8,2.9-2.3c3.9-2.1,4-5.6,3.5-9.1c-0.1-0.9-0.9-1.9-1.7-2.5
		c-2.8-2.5-5.8-4.8-8.7-7.2c-2.2-1.9-2.3-3.4-1-4.4c2.2,2.1,4.3,4.3,6.6,6.3c2.2,2,4.6,3.9,7.1,6c3.4-4.6,9.9-6.8,12.8-12.7
		c0.1,0,0.7-0.1,1.2-0.1c0.5,0,1.1,0,1.3,0c2.9,5.8,9.4,8,13,13c3.7-4.9,10.1-7.1,13.1-12.9c0.2,0,0.7-0.1,1.3-0.1
		c0.5,0,0.9,0,1.3,0c2.7,5.8,9.3,8,13.1,13.1c3.6-5,10.3-7,12.9-13c0.8,0,1.8,0,2.1,0c2,2.1,3.6,3.9,5.4,5.5
		c2.7,2.4,5.6,4.7,8.5,7.2c3.4-4.7,9.9-6.8,12.6-12.7c0.8,0,1.9,0,3.2,0c0.2,3.4,3.4,4.6,5.6,6.6c2.2,2.1,4.6,3.9,7.1,6.1
		C317.6,193.6,324.1,191.5,327,185.5z M199.8,422.3c3.5-2.9,7-5.8,10.5-8.8c2.9-2.5,2.9-8.2,0.1-10.6c-3.6-3-7.1-6.1-10.5-8.9
		c-3,2.5-6,5-9,7.5c-5.1,4.3-5.2,9-0.1,13.2C193.8,417.3,196.8,419.8,199.8,422.3z M199.8,281.9c-3.4,2.9-7,5.8-10.4,8.7
		c-3.1,2.6-3.1,8.3,0,10.8c3.5,2.9,7,5.8,10.4,8.7c3.4-2.9,6.9-5.8,10.4-8.7c3-2.6,3-8.3,0-10.8
		C206.7,287.7,203.2,284.7,199.8,281.9z M199.8,347.6c3.5-3,7.1-5.9,10.6-8.9c2.8-2.4,2.8-8.1,0-10.5c-3.6-3-7.2-6.1-10.5-8.9
		c-3.5,2.9-7,5.9-10.6,8.9c-2.9,2.5-2.9,8.2,0,10.6C192.8,341.7,196.3,344.6,199.8,347.6z M199.7,244.4c-1.6,1.4-3.3,3-5.1,4.5
		c-1.8,1.5-3.6,2.9-5.4,4.5c-2.9,2.5-2.9,8.2,0,10.7c3.5,3,7.1,5.9,10.6,8.8c1.4-1.3,2.9-2.6,4.5-4c1.6-1.4,3.3-2.7,5-4.1
		c4.3-3.6,4.3-8.7,0.1-12.2C206.2,249.8,203,247.1,199.7,244.4z M542.9,281.9c-3.3,2.8-6.8,5.7-10.3,8.6c-3.3,2.7-3.3,8.3-0.1,11
		c3.5,2.9,7,5.8,10.3,8.7c3.3-2.7,6.6-5.6,10-8.4c3.6-3,3.6-8.8,0-11.8C549.5,287.3,546.2,284.6,542.9,281.9z M542.9,272.8
		c3.5-2.9,7.1-5.9,10.7-9c2.6-2.2,2.5-8.4-0.1-10.6c-3.6-3-7.3-5.9-10.7-8.7c-3.5,2.9-7,5.9-10.6,8.9c-2.9,2.5-2.8,8.2,0.1,10.6
		C535.9,267,539.5,269.9,542.9,272.8z M542.9,394.1c-3.3,2.8-6.8,5.6-10.2,8.5c-3.4,2.8-3.4,8.4-0.1,11.2c3.5,2.9,6.9,5.8,10.2,8.6
		c3.5-2.9,7.1-5.8,10.5-8.8c3-2.6,2.8-8.6-0.2-11.1C549.7,399.6,546.2,396.8,542.9,394.1z M285.6,244.5c-3.5,2.9-7.1,5.8-10.6,8.8
		c-2.8,2.4-2.7,8.3,0.1,10.7c3.5,3,7.1,5.9,10.5,8.7c3.3-2.8,6.8-5.7,10.3-8.6c3.1-2.6,3.1-8.4,0-11
		C292.4,250.2,288.9,247.3,285.6,244.5z M428.5,272.8c3.4-2.9,7-5.8,10.4-8.7c2.9-2.5,2.8-8.5-0.1-10.9c-3.5-3-7-5.9-10.3-8.6
		c-3.3,2.8-6.7,5.6-10,8.4c-3.7,3.1-3.7,8.5,0,11.5C421.9,267.2,425.2,270,428.5,272.8z M399.9,244.5c-3.2,2.7-6.5,5.5-9.9,8.3
		c-3.7,3.1-3.8,8.6,0,11.8c3.3,2.8,6.7,5.6,9.8,8.2c3.1-2.6,6.3-5.2,9.5-7.9c4.4-3.7,4.5-8.7,0.1-12.3
		C406.3,249.8,403.1,247.1,399.9,244.5z M428.6,394c-3.1,2.6-6.5,5.4-9.8,8.2c-3.9,3.3-3.9,8.6,0,11.8c3.4,2.8,6.7,5.6,9.9,8.3
		c1.6-1.4,3.3-2.9,5.1-4.4c1.8-1.5,3.6-2.9,5.4-4.5c2.8-2.5,2.8-8.3-0.1-10.7C435.4,399.8,431.9,396.8,428.6,394z M542.9,384.9
		c3.4-2.8,7-5.8,10.6-8.9c2.8-2.4,2.7-8.4-0.1-10.7c-3.5-3-7.1-5.9-10.5-8.7c-3.1,2.7-6.4,5.4-9.7,8.2c-4.2,3.5-4.2,8.6,0.1,12.2
		C536.6,379.6,539.8,382.3,542.9,384.9z M542.8,459.7c3.5-2.9,7.1-5.9,10.7-8.9c2.7-2.3,2.7-8.3,0-10.6c-3.6-3.1-7.2-6.1-10.6-8.8
		c-3.3,2.8-6.8,5.7-10.2,8.6c-3.4,2.9-3.4,8.6,0,11.4C536.2,454.1,539.6,456.9,542.8,459.7z M628.6,431.3c-3.4,2.9-6.9,5.9-10.4,8.9
		c-2.8,2.4-2.8,8.3,0,10.7c3.5,3,7,6,10.3,8.7c3.5-2.9,6.9-5.7,10.4-8.6c3.2-2.7,3.1-8.5-0.1-11.3
		C635.3,437,631.9,434.1,628.6,431.3z M257,244.5c-3.3,2.8-6.9,5.8-10.4,8.8c-3.1,2.6-3.1,8.2,0,10.8c3.5,3,7,5.9,10.3,8.7
		c3.3-2.7,6.7-5.5,10-8.3c3.5-2.9,3.5-8.7,0-11.6C263.6,250,260.2,247.2,257,244.5z M514.3,347.6c3.5-2.9,7-5.9,10.5-8.9
		c2.9-2.5,2.9-8.2,0-10.7c-3.6-3-7.1-6-10.5-8.8c-3.2,2.7-6.4,5.4-9.7,8.2c-3.8,3.2-3.9,8.8-0.1,12
		C507.8,342.1,511.1,344.9,514.3,347.6z M199.8,207.2c-3.3,2.8-6.8,5.7-10.2,8.5c-3.4,2.9-3.4,8.4,0,11.2c3.4,2.9,6.9,5.7,10.2,8.5
		c3.3-2.8,6.7-5.7,10.1-8.6c3.3-2.8,3.3-8.4,0-11.2C206.5,212.8,203.1,209.9,199.8,207.2z M199.8,384.9c3.6-3.1,7.3-6.1,10.8-9.2
		c2.5-2.1,2.4-8-0.1-10.1c-3.6-3.1-7.2-6.1-10.7-9c-3.4,2.9-7.1,5.9-10.7,9c-2.7,2.3-2.7,8.1,0,10.5
		C192.7,379,196.3,382,199.8,384.9z M285.6,356.7c-3.2,2.7-6.7,5.6-10.1,8.4c-3.4,2.8-3.4,8.5,0.1,11.4c3.4,2.9,6.8,5.7,10.1,8.4
		c1.6-1.4,3.3-2.9,5-4.3c1.8-1.5,3.6-2.9,5.4-4.5c3.1-2.6,3-8.4-0.2-11C292.3,362.3,288.9,359.5,285.6,356.7z M542.8,347.5
		c3.2-2.6,6.6-5.4,9.9-8.2c3.8-3.1,3.7-8.9-0.1-12c-3.3-2.7-6.6-5.4-9.8-8c-3.5,2.9-7.1,5.9-10.7,8.9c-2.8,2.4-2.7,8.1,0.1,10.5
		C535.9,341.7,539.4,344.7,542.8,347.5z M400,356.7c-3,2.5-6.1,5.1-9.3,7.7c-4.7,3.9-4.7,8.9-0.1,12.8c3.1,2.6,6.3,5.3,9.2,7.8
		c3.4-2.9,7-5.8,10.5-8.8c2.9-2.5,2.9-8.1,0-10.6C406.9,362.5,403.3,359.5,400,356.7z M428.5,384.9c3.3-2.8,6.9-5.7,10.4-8.8
		c2.9-2.5,2.8-8.4-0.1-10.9c-3.5-3-7-5.9-10.3-8.7c-3.5,2.9-7,5.9-10.6,8.9c-2.9,2.5-2.9,8.1,0,10.6
		C421.6,379.1,425.1,382.1,428.5,384.9z M256.9,422.4c3.4-2.8,7-5.8,10.5-8.8c2.9-2.5,2.8-8.3,0-10.7c-3.6-3.1-7.1-6.1-10.4-8.8
		c-3.2,2.7-6.5,5.5-9.9,8.3c-3.9,3.3-3.9,8.5-0.1,11.7C250.4,416.8,253.7,419.7,256.9,422.4z M285.7,394.1
		c-3.3,2.7-6.7,5.5-10.2,8.4c-3.4,2.8-3.4,8.6,0,11.4c3.4,2.9,6.8,5.7,10.1,8.5c1.6-1.4,3.3-2.9,5-4.3c1.8-1.5,3.6-2.9,5.4-4.5
		c3-2.5,3-8.4,0-10.9C292.5,399.8,289,396.9,285.7,394.1z M514.4,281.8c-3.2,2.7-6.6,5.6-10,8.5c-3.4,2.9-3.4,8.6-0.1,11.4
		c3.4,2.9,6.8,5.7,10.1,8.5c3.1-2.6,6.3-5.3,9.5-8c4.3-3.6,4.3-8.7,0.1-12.3C520.7,287.2,517.4,284.4,514.4,281.8z M314.6,319.7
		c-1.2,0.8-2.8,1.8-4.2,2.8c-2.3,1.8-4.5,3.6-6.6,5.5c-3,2.6-3,8.3,0,10.9c3.5,3,7.1,6,10.3,8.7c3.2-2.7,6.5-5.4,9.8-8.2
		c3.9-3.3,3.9-8.7,0-11.9C320.5,324.7,317.2,321.9,314.6,319.7z M256.9,459.7c3.3-2.8,6.8-5.7,10.3-8.6c3.1-2.7,3.1-8.4,0-11.1
		c-3.5-3-7-6-10.2-8.7c-3.5,2.9-7,5.9-10.5,8.9c-3.1,2.6-3,8.2,0.1,10.8C250.1,454,253.6,456.9,256.9,459.7z M514.3,422.4
		c3.5-3,7.2-6,10.7-9c2.7-2.4,2.5-8.2-0.2-10.5c-3.6-3-7.1-6-10.4-8.8c-3.2,2.7-6.4,5.4-9.7,8.2c-3.9,3.3-3.9,8.9,0,12.1
		C507.9,417,511.1,419.7,514.3,422.4z M542.9,235.4c3.6-3,7.1-6,10.7-9c2.5-2.2,2.6-8.2,0.1-10.4c-3.6-3.1-7.4-6.1-10.8-8.9
		c-3.4,2.9-6.9,5.8-10.4,8.7c-3,2.5-3,8.3,0,10.8C536,229.6,539.5,232.6,542.9,235.4z M314.1,422.4c3.5-3,7.2-6,10.7-9.1
		c2.7-2.4,2.5-8.2-0.2-10.5c-3.6-3-7.1-6-10.5-8.9c-1.5,1.3-3.1,2.8-4.8,4.2c-1.8,1.5-3.6,3-5.4,4.5c-3.3,2.8-3.3,8.4,0,11.2
		C307.3,416.7,310.8,419.6,314.1,422.4z M428.5,347.6c3.5-3,7.1-5.9,10.6-8.9c2.6-2.3,2.5-8.3-0.1-10.6c-3.6-3-7.2-6-10.5-8.8
		c-3.5,2.9-7.1,5.9-10.6,8.9c-2.8,2.4-2.8,8.1-0.1,10.4C421.4,341.6,425,344.6,428.5,347.6z M342.6,394c-1.5,1.3-3.1,2.7-4.7,4.1
		c-1.7,1.5-3.4,2.9-5.2,4.3c-3.4,2.9-3.5,8.6-0.1,11.5c3.3,2.8,6.7,5.6,10,8.3c3.5-2.9,7-5.8,10.5-8.7c3-2.5,3-8.2,0-10.7
		C349.7,399.9,346.2,397,342.6,394z M571.3,459.9c3.6-3,7.2-6,10.7-9c2.7-2.3,2.8-8.1,0.2-10.4c-3.6-3.2-7.3-6.2-10.6-9.1
		c-3.4,2.9-7,6-10.6,9c-2.9,2.5-3,7.7-0.1,10.3C564.3,453.8,567.8,456.8,571.3,459.9z M199.8,431.4c-3.3,2.8-6.8,5.7-10.3,8.7
		c-3.2,2.7-3.2,8.3,0,11c3.5,2.9,7,5.8,10.3,8.6c3.5-2.9,7.1-5.9,10.6-8.9c2.7-2.4,2.6-8.3-0.2-10.7
		C206.7,437.2,203.2,434.2,199.8,431.4z M628.7,319.2c-3.2,2.7-6.6,5.6-10,8.4c-3.4,2.9-3.5,8.5-0.1,11.4c3.4,2.9,6.8,5.7,10,8.5
		c3.4-2.9,7-5.8,10.4-8.7c3-2.5,3-8.4,0-10.9C635.5,325,632,322,628.7,319.2z M629,356.9c-1.5,1.1-3.2,2.4-4.9,3.7
		c-1.8,1.4-3.5,2.8-5.2,4.3c-3.9,3.3-3.9,8.6,0,11.9c3.3,2.8,6.5,5.5,9.7,8.1c3.4-2.8,6.9-5.7,10.4-8.7c3.1-2.6,3-8.4-0.1-11
		C635.4,362.3,632,359.4,629,356.9z M514.4,244.5c-3.3,2.8-6.8,5.7-10.3,8.7c-3.1,2.6-3.1,8.5,0,11.1c3.5,2.9,6.9,5.9,10.2,8.6
		c3.2-2.7,6.5-5.5,9.9-8.3c3.8-3.2,3.9-8.6,0.1-11.7C520.9,250,517.6,247.2,514.4,244.5z M314.1,244.4c-3.5,2.9-7.1,6-10.6,9.1
		c-2.7,2.4-2.6,8.2,0.1,10.5c3.6,3,7.2,6.1,10.5,8.9c1.6-1.4,3.3-2.9,4.9-4.3c1.7-1.5,3.5-2.8,5.2-4.3c3.4-2.9,3.3-8.5-0.1-11.4
		C320.7,250,317.4,247.1,314.1,244.4z M399.9,235.4c3.5-3,7-5.9,10.5-8.8c2.8-2.4,2.9-8.2,0.1-10.6c-3.6-3-7.2-6-10.6-8.8
		c-3.3,2.8-6.7,5.6-10.1,8.5c-3.3,2.8-3.3,8.4,0,11.2C393.2,229.8,396.6,232.7,399.9,235.4z M257,356.6c-3.3,2.8-6.9,5.8-10.4,8.8
		c-3.1,2.6-3.2,8.2-0.1,10.8c3.5,3,7.1,6,10.5,8.8c1.4-1.2,2.9-2.6,4.4-3.9c1.6-1.3,3.2-2.6,4.8-3.9c4.6-3.8,4.5-9-0.1-12.8
		C263,361.7,259.9,359,257,356.6z M399.9,394c-3.3,2.7-6.7,5.6-10.1,8.5c-3.4,2.9-3.5,8.5,0,11.4c3.4,2.9,6.8,5.7,10.1,8.5
		c1.7-1.4,3.3-2.9,5-4.4c1.7-1.4,3.5-2.8,5.2-4.3c3.2-2.7,3.3-8.3,0.1-11C406.8,399.8,403.4,396.9,399.9,394z M629.1,394.4
		c-1.2,0.8-2.6,1.7-3.9,2.7c-2.5,2-4.9,4-7.2,6c-2.4,2.1-2.5,8.1-0.2,10.2c3.6,3.1,7.3,6.2,10.8,9.1c3.4-2.8,6.7-5.6,10.1-8.4
		c3.4-2.8,3.4-8.6,0-11.4C635.4,399.6,632,396.7,629.1,394.4z M399.9,459.7c3.5-2.9,7.1-5.9,10.7-9c2.7-2.3,2.5-8.2-0.2-10.5
		c-3.5-3-7.1-6-10.6-8.9c-1.4,1.3-3,2.7-4.7,4.2c-1.8,1.5-3.6,3-5.4,4.5c-3.3,2.8-3.4,8.4,0,11.3C393.1,454.1,396.6,457,399.9,459.7
		z M428.5,235.4c3.2-2.7,6.6-5.5,10-8.4c3.4-2.9,3.4-8.6,0-11.4c-3.4-2.9-6.8-5.8-10-8.4c-3.4,2.9-7.1,5.9-10.7,8.9
		c-2.7,2.3-2.7,8.2,0,10.5C421.5,229.5,425.1,232.5,428.5,235.4z M457.2,385c1.5-1.3,3.1-2.8,4.8-4.3c1.7-1.5,3.5-2.8,5.2-4.3
		c3.5-2.9,3.4-8.4,0-11.4c-3.4-2.9-6.8-5.8-10-8.4c-3.1,2.6-6.5,5.4-9.8,8.2c-3.9,3.2-3.8,8.7,0,12C450.7,379.6,454,382.3,457.2,385
		z M628.6,244.4c-1.5,1.3-3.1,2.8-4.8,4.2c-1.7,1.5-3.4,2.9-5.2,4.3c-3.4,2.9-3.5,8.5-0.1,11.4c3.4,2.9,6.8,5.7,10.1,8.5
		c3.4-2.8,6.8-5.7,10.2-8.6c3.3-2.8,3.2-8.6-0.2-11.4C635.3,250,631.9,247.1,628.6,244.4z M457.1,235.4c3.5-2.9,7-5.9,10.6-8.9
		c2.7-2.3,2.7-8.2,0-10.5c-3.6-3-7.2-6-10.4-8.8c-2.9,2.4-5.9,5-9,7.5c-5,4.1-5.1,9.1-0.1,13.2C451.1,230.3,454.1,232.9,457.1,235.4
		z M256.8,319.1c-0.8,0.8-1.8,1.9-2.8,2.8c-2.5,2.2-5.1,4.2-7.6,6.4c-2.8,2.5-2.8,8,0.1,10.5c3.6,3,7.2,6,10.5,8.9
		c3.3-2.7,6.6-5.5,9.8-8.2c3.7-3.1,3.7-8.7,0.1-11.8C263.5,324.7,260.2,321.9,256.8,319.1z M285.5,347.5c3.4-2.9,7-5.8,10.5-8.7
		c3-2.5,3-8.4,0-10.8c-3.5-3-7.1-5.9-10.4-8.7c-3.4,2.8-6.9,5.7-10.3,8.6c-3.1,2.7-3.1,8.4,0.1,11.1
		C278.8,341.9,282.2,344.7,285.5,347.5z M285.5,310.2c3.5-3,7.1-5.9,10.7-8.9c2.7-2.3,2.6-8.2,0-10.5c-3.6-3-7.2-6-10.7-8.9
		c-1.6,1.4-3.3,2.9-5,4.4c-1.8,1.5-3.6,2.9-5.4,4.5c-2.8,2.4-2.8,8.3,0,10.7C278.6,304.4,282.1,307.3,285.5,310.2z M257,281.8
		c-3.3,2.8-6.9,5.9-10.5,8.9c-3,2.5-3,8.1,0,10.6c3.5,3,7.1,5.9,10.5,8.8c3.3-2.8,6.7-5.6,10.1-8.5c3.3-2.8,3.2-8.5,0-11.2
		C263.7,287.5,260.2,284.6,257,281.8z M342.7,310.1c3.4-2.9,6.8-5.7,10.3-8.6c3.4-2.8,3.3-8.3-0.1-11.2c-3.4-2.8-6.8-5.7-10.1-8.4
		c-3.3,2.7-6.6,5.6-10,8.4c-3.4,2.9-3.4,8.7-0.1,11.5C336,304.5,339.3,307.3,342.7,310.1z M571.6,422.4c1.5-1.3,3.2-2.8,4.9-4.3
		c1.8-1.5,3.6-2.9,5.4-4.5c3-2.6,3.1-8.3,0.1-10.9c-3.5-3-7.1-6-10.4-8.8c-3.2,2.7-6.6,5.7-10,8.5c-3.5,2.9-3.6,8.4-0.1,11.3
		C564.8,416.7,568.2,419.5,571.6,422.4z M457.1,244.4c-1.5,1.3-3.1,2.8-4.8,4.2c-1.8,1.5-3.6,2.9-5.4,4.5c-3.1,2.7-3.1,8.4,0,11.1
		c3.5,2.9,6.9,5.8,10.3,8.6c1.5-1.3,3.1-2.8,4.7-4.1c1.7-1.4,3.5-2.8,5.2-4.3c3.7-3.2,3.6-8.6-0.2-11.7
		C463.6,249.9,460.4,247.2,457.1,244.4z M314.2,385.1c1.5-1.3,3.1-2.8,4.8-4.3c1.7-1.5,3.5-2.8,5.2-4.3c3.5-3,3.5-8.5,0-11.4
		c-3.4-2.9-6.9-5.8-10-8.5c-3.3,2.8-6.8,5.7-10.3,8.7c-3.2,2.7-3.2,8.4,0,11.1C307.3,379.3,310.8,382.2,314.2,385.1z M600,207
		c-1.4,1.3-3.1,2.8-4.8,4.2c-1.8,1.5-3.6,3-5.4,4.4c-3.1,2.6-3.2,8.4-0.1,11.1c3.5,2.9,6.9,5.8,10.3,8.6c1.7-1.4,3.4-2.9,5.1-4.3
		c1.7-1.4,3.4-2.9,5.1-4.3c3.2-2.7,3.1-8.5-0.1-11.2C606.8,212.7,603.4,209.8,600,207z M428.5,281.9c-3.5,3-7.2,6-10.7,9.1
		c-2.6,2.3-2.6,8,0,10.2c3.6,3,7.2,6.1,10.7,9c3.3-2.8,6.7-5.6,10-8.4c3.4-2.9,3.4-8.6,0.1-11.4
		C435.2,287.5,431.8,284.6,428.5,281.9z M285.6,235.4c1.5-1.3,3.2-2.8,4.9-4.2c1.8-1.5,3.6-3,5.4-4.5c3.1-2.6,3.1-8.4-0.1-11
		c-3.5-2.9-7-5.8-10.2-8.6c-3.3,2.7-6.8,5.6-10.2,8.6c-3.1,2.6-3.2,8.4-0.1,11C278.7,229.7,282.2,232.6,285.6,235.4z M314.7,282.3
		c-1.3,0.8-2.8,1.7-4.2,2.8c-2.2,1.7-4.3,3.5-6.4,5.3c-3.3,2.8-3.3,8.4,0,11.2c3.5,2.9,6.9,5.8,10.1,8.5c3.5-2.9,7-5.8,10.4-8.8
		c3-2.6,2.9-8.3-0.1-10.9C320.9,287.6,317.4,284.6,314.7,282.3z M428.5,459.7c1.6-1.4,3.2-2.8,4.9-4.3c1.7-1.4,3.5-2.8,5.2-4.3
		c3.2-2.8,3.2-8.6,0-11.3c-3.5-2.9-6.9-5.8-10.2-8.6c-1.5,1.4-3.2,2.8-4.9,4.3c-1.8,1.5-3.6,3-5.4,4.5c-3,2.5-3.2,8.3-0.2,10.8
		C421.5,453.9,425,456.8,428.5,459.7z M514.4,356.6c-3.4,2.9-6.9,5.8-10.3,8.7c-3,2.5-3,8.4-0.1,10.9c3.5,3,7.1,6,10.4,8.8
		c3.4-2.9,6.9-5.8,10.3-8.7c3.2-2.8,3.2-8.3-0.1-11C521.1,362.3,517.7,359.4,514.4,356.6z M600.1,393.9c-1.5,1.3-3.1,2.8-4.7,4.1
		c-1.7,1.5-3.4,2.9-5.2,4.3c-3.7,3-3.6,8.8,0.1,11.8c3.3,2.7,6.6,5.5,9.8,8.1c3.5-2.9,7.1-5.9,10.6-8.9c2.7-2.3,2.6-8.2-0.1-10.5
		C607.1,399.9,603.6,396.9,600.1,393.9z M600.2,356.7c-3.4,2.8-7,5.7-10.5,8.7c-2.9,2.4-2.9,8.3-0.1,10.7c3.5,3,7,5.9,10.4,8.7
		c3.3-2.8,6.7-5.6,10.1-8.5c3.3-2.8,3.3-8.4,0-11.2C606.8,362.3,603.4,359.4,600.2,356.7z M571.5,244.5c-3.3,2.8-6.7,5.7-10.2,8.7
		c-3.3,2.8-3.3,8.3-0.1,11c3.5,2.9,6.9,5.9,10.3,8.7c1.4-1.3,3-2.7,4.7-4.1c1.7-1.5,3.4-2.9,5.2-4.3c3.7-3.1,3.7-8.5-0.1-11.7
		C578,249.9,574.6,247.1,571.5,244.5z M399.9,319.3c-3.4,2.8-6.9,5.7-10.4,8.7c-3.1,2.6-3.1,8.3,0,10.9c3.5,3,7,5.9,10.4,8.7
		c3.6-3,7.2-6.1,10.8-9.2c2.5-2.1,2.4-7.9-0.1-10.1C407.1,325.3,403.4,322.2,399.9,319.3z M285.6,459.8c1.5-1.3,3.1-2.8,4.8-4.2
		c1.8-1.5,3.6-2.9,5.4-4.5c3.1-2.7,3.1-8.5,0-11.1c-3.5-2.9-7-5.9-10.3-8.7c-1.5,1.3-3.2,2.8-4.9,4.3c-1.8,1.5-3.6,3-5.4,4.5
		c-3,2.5-3,8.4,0,10.9C278.6,454,282.2,456.9,285.6,459.8z M629.1,282.2c-1.2,0.9-2.6,1.7-3.9,2.7c-2.5,2-5,4.1-7.4,6.2
		c-2.2,1.9-2.2,7.9-0.1,9.8c3.7,3.2,7.4,6.3,11,9.3c1.7-1.4,3.3-2.8,4.9-4.2c1.7-1.4,3.4-2.9,5.2-4.3c3.4-2.8,3.4-8.6,0-11.4
		C635.4,287.5,632,284.6,629.1,282.2z M371.6,244.6c-1.6,1.3-3.2,2.6-4.8,3.9c-1.7,1.4-3.4,2.7-5,4.1c-4.1,3.5-4.2,8.7-0.1,12.1
		c3.3,2.7,6.5,5.5,9.6,8.1c3.3-2.7,6.6-5.5,10-8.4c3.4-2.9,3.5-8.6,0.1-11.4C378,250.1,374.6,247.2,371.6,244.6z M600.1,244.4
		c-1.6,1.4-3.2,2.9-4.9,4.3c-1.8,1.5-3.6,2.9-5.4,4.4c-3,2.5-3,8.4,0,10.9c3.5,2.9,7,5.8,10.3,8.6c3.4-2.8,6.8-5.7,10.2-8.6
		c3.2-2.7,3.2-8.5,0-11.2C606.8,250.1,603.4,247.2,600.1,244.4z M600.2,431.4c-3.2,2.6-6.4,5.4-9.8,8c-2.8,2.2-4.1,8.4-1.9,10.4
		c3.7,3.5,7.7,6.7,11.4,9.9c3.6-3,7.2-6,10.8-9c3-2.6,2.9-8-0.1-10.5C607,437.2,603.5,434.2,600.2,431.4z M571.5,347.5
		c3.3-2.7,6.7-5.6,10.1-8.5c3.3-2.8,3.4-8.4,0.1-11.2c-3.5-3-7-5.9-9.9-8.4c-1.6,1.3-3.4,2.7-5.2,4.1c-1.8,1.5-3.6,3-5.4,4.5
		c-3.1,2.7-3.1,8.1,0.1,10.8C564.6,341.8,568.1,344.7,571.5,347.5z M371.4,394c-3.3,2.8-6.8,5.7-10.3,8.7c-3.2,2.7-3.2,8.3,0,11.1
		c3.4,2.9,6.8,5.7,10.2,8.6c3.1-2.6,6.3-5.3,9.5-8c4.1-3.4,4.1-9,0.1-12.3C377.7,399.3,374.5,396.6,371.4,394z M371.3,207
		c-1.5,1.4-3.2,2.9-4.9,4.4c-1.8,1.5-3.6,2.9-5.4,4.5c-3,2.6-3,8.2,0.1,10.8c3.4,2.9,6.9,5.8,10.2,8.6c3.4-2.9,7-5.8,10.5-8.8
		c2.8-2.4,2.7-8.4,0-10.7C378.2,212.8,374.7,209.9,371.3,207z M228.4,281.9c-3.4,2.9-6.9,5.8-10.4,8.8c-3,2.5-3,8.1,0,10.6
		c3.5,3,7,5.9,10.4,8.8c3.4-2.8,6.9-5.7,10.4-8.7c2.9-2.5,2.9-8.4,0-10.9C235.3,287.6,231.8,284.7,228.4,281.9z M628.7,207.1
		c-3.4,2.9-6.9,5.8-10.4,8.8c-3,2.5-2.9,8.3,0,10.9c3.5,2.9,7,5.8,10.3,8.7c1.7-1.4,3.3-2.9,5-4.3c1.7-1.5,3.4-2.9,5.2-4.3
		c3.1-2.6,3.2-8.4,0.1-11C635.5,212.8,632,209.9,628.7,207.1z M399.9,281.9c-3.4,2.9-6.9,5.8-10.4,8.7c-3.1,2.6-3,8.3,0,10.9
		c3.5,2.9,7,5.9,10.3,8.7c3.3-2.8,6.7-5.6,10.1-8.5c3.5-2.9,3.5-8.4,0-11.3C406.6,287.5,403.2,284.6,399.9,281.9z M371.3,310.2
		c3.4-2.9,6.9-5.8,10.4-8.7c2.9-2.5,2.9-8.4,0-10.9c-3.5-3-7-6-10.2-8.7c-3.3,2.8-6.8,5.7-10.2,8.5c-3.4,2.9-3.4,8.4,0,11.2
		C364.6,304.5,367.9,307.3,371.3,310.2z M228.4,319.3c-3.3,2.8-6.6,5.6-10,8.4c-3.6,3-3.7,8.4-0.1,11.4c3.4,2.9,6.8,5.7,10,8.4
		c3.4-2.9,6.9-5.7,10.3-8.6c3.1-2.6,3-8.5-0.1-11.1C235.1,324.9,231.7,322.1,228.4,319.3z M457.2,319.2c-3.3,2.8-6.8,5.7-10.3,8.7
		c-3.2,2.7-3.1,8.4,0,11.1c3.4,2.9,6.9,5.8,10.2,8.5c3.2-2.7,6.4-5.4,9.6-8.1c4.1-3.5,4.1-8.6,0.1-12.1
		C463.5,324.6,460.3,321.8,457.2,319.2z M457.1,310.1c3.4-2.9,6.8-5.7,10.2-8.6c3.3-2.9,3.2-8.3-0.2-11.2c-3.4-2.9-6.9-5.8-10.1-8.5
		c-1.5,1.3-3.1,2.8-4.8,4.2c-1.7,1.5-3.5,2.8-5.2,4.3c-3.5,3-3.5,8.5-0.1,11.4C450.4,304.6,453.8,307.4,457.1,310.1z M257,207.1
		c-3.3,2.8-6.9,5.7-10.4,8.7c-3.3,2.8-3.2,8.2,0.1,11c3.5,2.9,6.9,5.9,10.2,8.6c3.4-2.9,7-5.8,10.5-8.9c2.8-2.4,2.7-8.4-0.1-10.7
		C263.8,212.9,260.3,209.9,257,207.1z M342.7,272.7c3.6-3,7.2-6,10.8-9c2.5-2.1,2.6-8,0.1-10.1c-3.6-3.1-7.4-6.2-10.9-9.2
		c-1.6,1.4-3.2,2.8-4.8,4.2c-1.7,1.5-3.5,2.8-5.2,4.3c-3.4,2.9-3.3,8.7,0.1,11.5C336,267.2,339.4,269.9,342.7,272.7z M228.4,272.8
		c1.5-1.3,3-2.6,4.6-3.9c1.6-1.4,3.3-2.7,5-4.1c4-3.3,4-8.8,0.1-12.1c-3.3-2.7-6.5-5.5-9.6-8.1c-3.3,2.7-6.6,5.5-9.9,8.3
		c-3.7,3.1-3.7,8.5-0.1,11.6C221.7,267.2,225,269.9,228.4,272.8z M457.1,422.3c3.3-2.8,6.7-5.6,10.1-8.5c3.5-3,3.4-8.4-0.1-11.4
		c-3.4-2.9-6.8-5.7-10.1-8.5c-1.4,1.2-3.1,2.8-4.8,4.3c-1.8,1.5-3.6,2.9-5.4,4.5c-3.1,2.7-3.1,8.4,0.1,11.1
		C450.4,416.7,453.8,419.5,457.1,422.3z M571.5,281.9c-3.3,2.8-6.8,5.8-10.3,8.8c-3.2,2.7-3.2,8.1-0.1,10.8c3.5,3,6.9,5.9,10.3,8.8
		c3.2-2.7,6.5-5.5,9.9-8.3c3.7-3.1,3.7-8.6-0.1-11.7C578,287.3,574.6,284.5,571.5,281.9z M600.1,347.5c3.5-2.9,7.1-5.9,10.6-8.9
		c2.7-2.3,2.7-8.2,0-10.5c-3.6-3-7.2-6-10.6-8.9c-1.5,1.3-3.1,2.7-4.7,4.1c-1.6,1.4-3.3,2.7-5,4.1c-3.9,3.2-3.9,8.7-0.1,12
		C593.6,342.1,596.8,344.8,600.1,347.5z M485.8,319.3c-3.5,2.9-7.1,5.9-10.7,9c-2.7,2.3-2.7,8,0,10.3c3.6,3,7.2,6,10.7,8.9
		c3.2-2.7,6.5-5.4,9.7-8.1c3.8-3.2,3.9-8.8,0.1-12C492.2,324.7,489,321.9,485.8,319.3z M371.3,347.5c3.4-2.8,6.9-5.7,10.4-8.7
		c3-2.6,2.9-8.4,0-10.9c-3.5-3-7-5.9-10.3-8.7c-3.3,2.8-6.6,5.6-10,8.4c-3.6,3.1-3.6,8.5,0,11.6C364.7,342,368,344.8,371.3,347.5z
		 M514.4,207.1c-3.1,2.7-6.5,5.5-9.9,8.4c-3.5,3-3.6,8.6-0.1,11.6c3.4,2.9,6.8,5.7,9.9,8.4c3.1-2.6,6.3-5.3,9.5-8
		c4.2-3.5,4.2-8.8,0.1-12.3C520.7,212.4,517.4,209.7,514.4,207.1z M371.4,356.6c-3.3,2.8-6.8,5.7-10.2,8.7c-3.2,2.8-3.2,8.3,0,11.1
		c3.4,2.9,6.9,5.8,10.2,8.6c3.5-2.9,7.1-5.9,10.6-8.9c2.6-2.3,2.5-8.3-0.1-10.5C378.3,362.4,374.7,359.4,371.4,356.6z M228.3,235.3
		c3.4-2.8,6.8-5.7,10.2-8.5c3.2-2.7,3.1-8.6-0.1-11.3c-3.4-2.8-6.8-5.7-10.1-8.4c-3.3,2.8-6.7,5.7-10.2,8.5c-3.3,2.8-3.4,8.4,0,11.1
		C221.6,229.6,224.9,232.5,228.3,235.3z M228.3,459.6c3.5-2.9,7.1-5.9,10.6-8.9c2.6-2.3,2.6-8.3-0.1-10.5c-3.5-3-7.1-5.9-10.4-8.8
		c-3.6,3-7.2,6-10.8,9.1c-2.6,2.2-2.4,8.1,0.1,10.3C221.3,453.8,224.8,456.7,228.3,459.6z M314.1,235.5c3.4-2.8,6.8-5.7,10.2-8.6
		c3.2-2.7,3.2-8.5,0-11.2c-3.5-2.9-6.9-5.8-10.1-8.6c-3.3,2.8-6.9,5.7-10.4,8.7c-2.9,2.5-2.9,8.5,0,10.9
		C307.2,229.7,310.7,232.6,314.1,235.5z M342.7,347.5c3.6-3,7.2-6,10.7-9c2.6-2.2,2.7-7.9,0.1-10.1c-3.6-3.1-7.3-6.2-10.9-9.1
		c-1.6,1.4-3.2,2.8-4.8,4.2c-1.7,1.4-3.5,2.8-5.2,4.3c-3.4,2.9-3.3,8.6,0.1,11.5C336.1,342,339.4,344.7,342.7,347.5z M371.3,431.4
		c-3.2,2.7-6.6,5.6-10,8.5c-3.5,3-3.5,8.5-0.1,11.4c3.4,2.9,6.8,5.7,10,8.4c3.3-2.8,6.7-5.6,10.1-8.4c3.4-2.8,3.4-8.6,0-11.4
		C378,437,374.6,434.2,371.3,431.4z M485.7,459.6c3.4-2.8,6.8-5.7,10.2-8.5c3.1-2.7,3.2-8.5,0.1-11.1c-3.5-2.9-6.9-5.8-10.2-8.6
		c-3.3,2.8-6.8,5.8-10.3,8.7c-3.2,2.7-3.2,8.3,0,11C478.9,454,482.4,456.9,485.7,459.6z M228.4,394.1c-3.4,2.9-6.9,5.8-10.4,8.7
		c-3,2.5-3.1,8.2-0.2,10.7c3.5,3,7,5.9,10.5,8.8c3.5-2.9,6.9-5.7,10.3-8.6c3-2.6,3-8.5-0.1-11.1
		C235.2,399.7,231.7,396.9,228.4,394.1z M314.1,431.3c-3.2,2.8-6.7,5.7-10.1,8.7c-3.2,2.7-3.1,8.5,0.1,11.3
		c3.4,2.9,6.8,5.7,10.1,8.5c1.5-1.3,3.1-2.8,4.8-4.2c1.7-1.5,3.5-2.8,5.2-4.3c3.4-2.8,3.4-8.6,0.1-11.4
		C320.8,437,317.4,434.1,314.1,431.3z M571.6,385c1.6-1.4,3.2-2.9,4.9-4.3c1.8-1.5,3.6-2.9,5.4-4.5c3-2.6,3-8.3-0.1-10.9
		c-3.5-3-7.1-6-10.3-8.7c-3.3,2.8-6.6,5.7-10,8.6c-3.4,2.9-3.5,8.3-0.1,11.2C564.8,379.3,568.2,382.1,571.6,385z M514.3,431.4
		c-3.3,2.8-6.7,5.7-10.1,8.5c-3.3,2.8-3.3,8.6,0,11.4c3.4,2.9,6.8,5.7,10,8.4c3.4-2.8,6.9-5.7,10.3-8.7c3-2.6,3-8.5,0-11.1
		C521.1,437.1,517.6,434.1,514.3,431.4z M342.7,356.7c-3.2,2.7-6.5,5.4-9.7,8.2c-3.7,3.1-3.8,8.7-0.1,11.8c3.3,2.7,6.6,5.5,9.8,8.1
		c3.4-2.8,6.8-5.7,10.2-8.5c3.3-2.7,3.4-8.3,0.1-11C349.6,362.4,346.2,359.6,342.7,356.7z M228.3,384.8c3.4-2.8,6.9-5.7,10.4-8.7
		c2.9-2.5,2.9-8.4,0-10.9c-3.5-2.9-7-5.8-10.4-8.7c-1.5,1.3-3.1,2.8-4.8,4.2c-1.8,1.5-3.6,3-5.4,4.5c-3.2,2.8-3.2,8.3,0,11
		C221.6,379.2,225,382,228.3,384.8z M600.1,310.1c3.6-3,7.2-5.9,10.7-9c2.6-2.2,2.5-8.1-0.1-10.3c-3.6-3.1-7.2-6.1-10.5-8.9
		c-3.4,2.8-6.9,5.7-10.3,8.7c-3.1,2.7-3.1,8.4,0.1,11.1C593.3,304.5,596.7,307.3,600.1,310.1z M485.7,207.1c-1.6,1.4-3.3,3-5.1,4.4
		c-1.8,1.5-3.6,2.9-5.4,4.4c-3,2.5-2.9,8.2,0.1,10.7c3.5,2.9,7,5.8,10.4,8.7c3.2-2.7,6.5-5.5,9.8-8.2c3.7-3.1,3.7-8.8,0-11.8
		C492.3,212.6,489,209.8,485.7,207.1z M571.5,207.1c-3.3,2.8-6.8,5.7-10.3,8.7c-3.3,2.8-3.2,8.2,0.1,11c3.4,2.9,6.9,5.8,10.3,8.7
		c0.3-0.3,0.6-0.9,1.1-1.3c2.9-2.5,5.9-5,8.8-7.4c3.3-2.8,3.3-8.5,0-11.2C578.3,212.8,574.8,209.9,571.5,207.1z M342.7,207.2
		c-3.5,2.9-7,5.8-10.5,8.8c-2.7,2.3-2.8,8.3-0.1,10.6c3.5,3,7.1,5.9,10.5,8.8c3.5-3,7-5.9,10.5-8.8c2.9-2.4,2.9-8.2,0-10.6
		C349.7,213,346.2,210,342.7,207.2z M457.1,459.7c3.3-2.8,6.7-5.6,10-8.4c3.5-2.9,3.4-8.5,0-11.4c-3.4-2.9-6.8-5.8-9.8-8.3
		c-1.4,1.1-3,2.5-4.7,3.9c-1.7,1.4-3.3,2.7-5,4.1c-4.1,3.4-4.2,8.8-0.1,12.2C450.7,454.3,453.9,457,457.1,459.7z M485.8,281.9
		c-3.4,2.9-7,5.9-10.6,9c-2.8,2.4-2.8,8.1,0,10.4c3.5,3,7.1,5.9,10.5,8.8c3.5-2.9,7-5.8,10.4-8.7c2.9-2.5,2.8-8.4-0.2-10.9
		C492.6,287.6,489.1,284.7,485.8,281.9z M342.7,431.4c-3.4,2.8-6.9,5.7-10.4,8.7c-2.7,2.3-3,8.4-0.4,10.6c3.6,3.1,7.2,6,10.7,8.9
		c3.5-2.9,6.9-5.8,10.4-8.6c3-2.5,3.1-8.4,0.1-10.9C349.6,437.2,346.1,434.3,342.7,431.4z M485.8,244.5c-3.4,2.8-6.8,5.7-10.3,8.7
		c-3.2,2.7-3.3,8.3,0,11c3.5,2.9,7,5.8,10.3,8.6c1.6-1.4,3.2-2.8,4.9-4.1c1.6-1.4,3.3-2.7,5-4.1c3.6-3,3.6-8.8,0-11.8
		C492.3,250,489,247.2,485.8,244.5z M485.8,394c-3.5,3-7.2,6-10.8,9c-2.4,2.1-2.7,7.9-0.3,9.9c3.7,3.2,7.5,6.3,11,9.2
		c3.2-2.7,6.4-5.3,9.6-7.9c4-3.4,4-9,0-12.3C492,399.3,488.9,396.6,485.8,394z M485.8,384.8c3.3-2.7,6.6-5.5,9.9-8.2
		c3.5-2.9,3.5-8.8,0-11.7c-3.4-2.8-6.7-5.6-9.9-8.4c-1.4,1.2-3,2.7-4.6,4.1c-1.6,1.4-3.3,2.7-5,4.1c-4.2,3.5-4.3,8.6-0.1,12
		C479.3,379.5,482.5,382.2,485.8,384.8z M614.9,450.9c-1.1,0.7-2.3,1.3-3.4,2.2c-2.4,1.8-4.8,3.7-7.2,5.6c-3.6,2.9-3.6,7.9,0,10.8
		c3.4,2.8,6.8,5.7,10.2,8.4c1.4-1.2,2.9-2.5,4.4-3.8c1.6-1.3,3.2-2.6,4.8-3.9c4.5-3.8,4.6-8.4,0-12.3
		C620.5,455.4,617.4,452.9,614.9,450.9z M557.1,478c3.4-2.9,7-5.8,10.4-8.7c3.2-2.8,3-7.8-0.2-10.4c-3.5-2.8-6.9-5.8-10.1-8.4
		c-3.4,2.9-6.9,5.7-10.3,8.6c-3.2,2.7-3.3,7.6-0.2,10.3C550.2,472.2,553.6,475.1,557.1,478z M328.4,253.7c3.4-2.8,6.9-5.7,10.3-8.6
		c3.2-2.7,3.3-7.6,0.1-10.3c-3.5-3-7-5.9-10.4-8.8c-1.6,1.4-3.2,2.8-4.8,4.2c-1.7,1.5-3.5,2.8-5.2,4.3c-3.2,2.8-3.2,8.1,0.1,10.8
		C321.8,248.2,325.1,250.9,328.4,253.7z M328.5,338.3c-3.4,2.9-7,5.7-10.4,8.7c-2.7,2.3-2.7,7.8-0.1,10.1c3.5,3,7.1,5.9,10.5,8.7
		c1.7-1.5,3.4-2.9,5.1-4.3c1.7-1.4,3.5-2.8,5.2-4.3c3.3-2.7,3.2-7.7-0.1-10.4C335.2,344,331.8,341.1,328.5,338.3z M614.4,188.9
		c-3.6,3-7.2,5.9-10.7,8.9c-2.8,2.4-2.8,7.3,0,9.7c3.6,3,7.1,5.9,10.6,8.9c1.6-1.4,3.3-2.8,5-4.3c1.8-1.5,3.6-3,5.4-4.5
		c2.9-2.4,2.9-7.7,0-10.1C621.3,194.5,617.8,191.6,614.4,188.9z M328.4,291.1c3.2-2.6,6.3-5.3,9.5-7.9c4.5-3.7,4.5-8,0-11.8
		c-3.2-2.7-6.4-5.3-9.5-7.9c-1.6,1.4-3.1,2.8-4.8,4.2c-1.6,1.4-3.3,2.7-5,4.1c-3.5,3-3.5,8.2,0,11.2
		C321.9,285.7,325.2,288.4,328.4,291.1z M585.7,478c3.5-3,7.1-5.9,10.7-8.9c2.8-2.4,2.8-7.4-0.1-9.8c-3.6-3-7.1-6-10.6-9
		c-0.5,0.6-1,1.3-1.7,1.9c-2.3,1.9-4.5,3.8-6.9,5.5c-5,3.5-5.3,8.6-0.7,12.4C579.5,472.7,582.6,475.4,585.7,478z M414.2,440.6
		c3.6-2.9,7.1-5.8,10.6-8.8c2.8-2.4,2.8-7.6,0-9.9c-3.6-3-7.1-5.9-10.5-8.7c-3.4,2.8-6.8,5.7-10.3,8.6c-3,2.5-3.1,7.8-0.1,10.3
		C407.3,434.9,410.8,437.8,414.2,440.6z M557.1,188.8c-1.4,1.3-2.9,2.6-4.5,4c-1.6,1.3-3.2,2.6-4.8,3.9c-4.6,3.8-4.6,8.2,0.1,12
		c3.1,2.6,6.2,5.2,9.2,7.7c1.5-1.3,3.2-2.8,5-4.2c1.7-1.4,3.5-2.8,5.2-4.3c3.2-2.7,3.3-7.8,0.1-10.5
		C564,194.5,560.6,191.6,557.1,188.8z M414.2,328.4c3.5-2.9,7-5.8,10.5-8.7c3-2.5,2.9-7.6,0-10.1c-3.5-2.9-7-5.8-10.4-8.7
		c-3.3,2.8-6.7,5.6-10.1,8.5c-3.3,2.8-3.3,7.8,0.1,10.7C407.6,322.9,410.9,325.7,414.2,328.4z M471.4,216.3c3.3-2.8,6.7-5.5,10-8.3
		c3.5-2.9,3.5-7.9,0-10.8c-3.4-2.8-6.8-5.6-10.1-8.3c-1.6,1.4-3.3,2.9-5,4.3c-1.7,1.4-3.5,2.8-5.2,4.3c-3.5,3-3.4,7.6,0.2,10.6
		C464.8,210.8,468.1,213.6,471.4,216.3z M328.4,403.2c3.4-2.8,6.9-5.7,10.4-8.6c3.2-2.6,3.1-7.6-0.1-10.3c-3.5-2.9-7-5.8-10.3-8.6
		c-3.3,2.7-6.7,5.6-10.1,8.5c-3.1,2.6-3.1,8,0,10.6C321.7,397.6,325,400.4,328.4,403.2z M471.4,478c3.4-2.8,6.7-5.6,10.1-8.4
		c3.5-2.9,3.3-7.9-0.2-10.8c-3.4-2.8-6.7-5.6-9.8-8.2c-3.4,2.8-6.9,5.7-10.4,8.6c-3.2,2.7-3.3,7.6-0.1,10.2
		C464.5,472.2,467.9,475.1,471.4,478z M328.4,413.1c-1.5,1.3-3.1,2.7-4.7,4.1c-1.7,1.5-3.5,2.9-5.2,4.3c-3.2,2.7-3.3,8.1-0.1,10.8
		c3.3,2.8,6.7,5.6,10,8.3c3.2-2.6,6.5-5.3,9.7-8c4.3-3.6,4.2-8,0-11.5C334.8,418.5,331.6,415.8,328.4,413.1z M614.5,440.8
		c3.3-2.9,6.9-5.9,10.3-9c2.9-2.7,2.6-7.8-0.4-10.3c-3.4-2.8-6.8-5.7-9.9-8.3c-3.5,2.9-7.1,5.9-10.7,8.9c-2.9,2.4-2.9,7.3,0.1,9.8
		C607.4,434.8,611,437.8,614.5,440.8z M414.2,478c3.5-2.9,7.1-5.8,10.5-8.8c2.6-2.3,2.6-7.8,0-10c-3.5-3-7.1-5.9-10.4-8.7
		c-3.2,2.7-6.4,5.4-9.6,8.1c-4,3.3-4,8.2,0.1,11.6C407.9,472.7,411.1,475.4,414.2,478z M328.5,300.9c-3.2,2.7-6.4,5.3-9.6,8
		c-3.8,3.2-3.8,8.4,0,11.5c3.2,2.7,6.4,5.4,9.6,8c3.3-2.8,6.8-5.6,10.2-8.5c3.5-2.9,3.5-7.7,0-10.6
		C335.2,306.6,331.7,303.7,328.5,300.9z M414.2,291.1c3.4-2.8,6.8-5.6,10.2-8.4c3.3-2.7,3.4-7.7,0.1-10.4c-3.5-2.9-6.9-5.8-10.2-8.6
		c-3.4,2.9-6.9,5.7-10.3,8.6c-3.2,2.6-3.1,7.9,0.1,10.5C407.5,285.5,410.9,288.3,414.2,291.1z M271.2,216.3
		c3.4-2.8,6.8-5.7,10.3-8.5c3.2-2.7,3.2-7.8,0-10.4c-3.5-2.9-6.9-5.8-10.2-8.5c-3.3,2.7-6.6,5.5-10,8.3c-3.4,2.8-3.4,8.1,0,10.9
		C264.6,210.8,267.9,213.6,271.2,216.3z M214.1,188.8c-3.4,2.9-6.9,5.8-10.4,8.7c-3.1,2.6-3,7.7,0.2,10.3c3.4,2.8,6.8,5.7,10.1,8.4
		c3.3-2.8,6.8-5.6,10.2-8.5c3.2-2.7,3.2-7.8,0.1-10.5C220.9,194.5,217.5,191.6,214.1,188.8z M585.8,188.8c-3.1,2.6-6.5,5.4-9.8,8.2
		c-3.9,3.3-3.9,8,0,11.1c3.3,2.7,6.6,5.5,9.8,8.1c3.4-2.8,7-5.8,10.5-8.8c2.8-2.4,2.8-7.6,0-9.9
		C592.7,194.6,589.2,191.6,585.8,188.8z M414.3,338.4c-3.3,2.8-6.7,5.6-10,8.4c-3.5,2.9-3.5,7.9,0,10.8c3.3,2.8,6.7,5.6,9.9,8.3
		c3.5-2.9,7-5.8,10.5-8.7c3-2.5,3-7.6,0-10.1C421.2,344.1,417.7,341.2,414.3,338.4z M500.1,338.3c-3.5,2.9-7.1,5.9-10.7,8.9
		c-2.7,2.3-2.7,7.4,0,9.7c3.6,3,7.2,6,10.7,8.9c1.6-1.4,3.1-2.7,4.7-4.1c1.6-1.4,3.3-2.7,5-4.1c3.5-2.9,3.6-8.2,0.1-11.1
		C506.6,343.8,503.3,341,500.1,338.3z M500.1,375.7c-3.4,2.9-7.1,5.9-10.7,8.9c-2.7,2.3-2.8,7.5-0.1,9.7c3.6,3,7.2,6,10.7,8.9
		c3.3-2.8,6.7-5.5,9.9-8.3c3.3-2.8,3.3-8.2,0-10.9C506.6,381.2,503.3,378.4,500.1,375.7z M500.1,226.2c-3.4,2.9-7,5.8-10.6,8.8
		c-2.9,2.4-2.9,7.5,0,9.9c3.6,3,7.1,5.9,10.6,8.8c3.2-2.7,6.3-5.3,9.5-7.9c3.8-3.2,3.9-8.3,0.1-11.5
		C506.5,231.6,503.3,228.9,500.1,226.2z M414.2,216.3c3.5-2.9,7.1-5.8,10.6-8.8c2.6-2.3,2.5-7.8-0.1-10c-3.5-2.9-7-5.8-10.3-8.6
		c-3.3,2.7-6.8,5.6-10.2,8.4c-3.3,2.7-3.2,8,0.1,10.7C407.5,210.8,410.9,213.6,414.2,216.3z M271.3,338.3c-1.5,1.3-3.1,2.7-4.8,4.1
		c-1.6,1.4-3.3,2.7-5,4.1c-3.7,3.1-3.7,8.1,0.1,11.3c3.3,2.7,6.5,5.5,9.6,8.1c3.3-2.8,6.7-5.6,10-8.4c3.4-2.8,3.4-7.9,0.1-10.7
		C278,344,274.7,341.2,271.3,338.3z M271.3,301c-3.3,2.8-6.7,5.6-10,8.4c-3.3,2.8-3.3,8,0,10.7c3.4,2.8,6.8,5.7,10,8.3
		c3.5-2.9,7-5.8,10.5-8.8c2.7-2.3,2.7-7.7-0.1-10C278.2,306.8,274.7,303.9,271.3,301z M242.6,478c3.4-2.9,7-5.9,10.5-8.9
		c2.7-2.3,2.7-7.6,0-9.9c-3.6-3-7.1-5.9-10.4-8.7c-3.3,2.8-6.8,5.8-10.3,8.8c-3.1,2.6-3.1,7.4,0,10
		C235.7,472.2,239.2,475.2,242.6,478z M299.9,301c-3.3,2.7-6.6,5.5-10,8.3c-3.6,3.1-3.6,7.9,0.1,11c3.3,2.7,6.6,5.5,9.7,8.1
		c3.5-2.9,7-5.7,10.5-8.7c2.9-2.5,2.9-7.7,0-10.1C306.7,306.7,303.2,303.8,299.9,301z M614.4,263.6c-3.5,2.9-7.2,6-10.9,9.1
		c-2.6,2.2-2.6,7.2,0,9.3c3.7,3.1,7.4,6.1,10.9,9c3.4-2.9,6.9-5.7,10.3-8.6c2.9-2.4,2.9-7.7,0-10.2
		C621.3,269.3,617.8,266.4,614.4,263.6z M614.5,226.2c-3.5,2.9-7,5.8-10.6,8.8c-3,2.5-3,7.3,0,9.8c3.6,3,7.1,5.9,10.6,8.8
		c1.6-1.4,3.3-2.8,5-4.3c1.7-1.4,3.5-2.8,5.2-4.3c3-2.5,3-7.8,0-10.4C621.2,231.9,617.8,229,614.5,226.2z M414.3,226.2
		c-3.3,2.8-6.8,5.7-10.3,8.6c-3,2.6-3.1,7.7,0,10.3c3.5,2.9,6.9,5.8,10.3,8.6c3.5-2.9,7-5.8,10.5-8.7c2.8-2.4,2.9-7.5,0.1-9.9
		C421.3,232,417.7,229.1,414.3,226.2z M585.9,413.2c-3.5,2.9-7.1,5.8-10.7,8.9c-2.6,2.2-2.6,7.4-0.1,9.6c3.6,3.1,7.2,6,10.7,9
		c3.6-3,7.1-5.9,10.6-8.9c2.7-2.4,2.6-7.6-0.1-10C592.7,418.8,589.2,415.9,585.9,413.2z M299.8,291.1c3.4-2.8,6.9-5.7,10.4-8.7
		c2.9-2.4,2.9-7.7,0-10.1c-3.5-3-7-5.9-10.4-8.7c-3.4,2.9-6.9,5.8-10.4,8.7c-2.9,2.5-3,7.6-0.1,10.1
		C292.9,285.3,296.4,288.2,299.8,291.1z M271.3,413.1c-1.5,1.3-3.2,2.8-4.9,4.2c-1.7,1.4-3.5,2.8-5.2,4.3c-3.1,2.6-3.2,7.9,0,10.6
		c3.4,2.9,6.8,5.7,10.1,8.5c3.4-2.8,6.8-5.7,10.2-8.6c3.2-2.7,3.1-7.8-0.1-10.5C278,418.8,274.7,416,271.3,413.1z M242.6,291
		c3.5-2.9,7-5.8,10.5-8.7c2.7-2.3,2.6-7.7,0-10c-3.5-3-7.1-6-10.3-8.7c-3.4,2.9-6.9,5.8-10.4,8.7c-3.2,2.7-3.1,7.6,0.1,10.3
		C235.9,285.4,239.2,288.2,242.6,291z M299.8,338.3c-1.5,1.3-3.2,2.9-5,4.4c-1.8,1.5-3.6,3-5.4,4.5c-2.8,2.3-2.9,7.6-0.1,9.9
		c3.5,3,7.1,5.9,10.5,8.7c3.5-2.9,7.1-5.8,10.6-8.7c2.8-2.3,2.7-7.6-0.1-9.9C306.7,344.1,303.2,341.1,299.8,338.3z M414.2,403.2
		c3.5-2.9,7.1-5.8,10.7-8.8c2.7-2.3,2.7-7.5,0.1-9.8c-3.6-3-7.2-6-10.6-8.8c-3.4,2.8-6.9,5.7-10.3,8.6c-3,2.5-3,7.8,0,10.3
		C407.4,397.5,410.8,400.4,414.2,403.2z M299.8,403.2c3.4-2.8,6.9-5.7,10.4-8.6c2.9-2.4,2.9-7.7,0.1-10.1c-3.5-3-7.1-5.9-10.4-8.7
		c-3.4,2.8-6.9,5.8-10.5,8.8c-2.7,2.3-2.8,7.6,0,9.9C292.8,397.4,296.3,400.3,299.8,403.2z M585.7,291c3.3-2.8,6.6-5.5,9.9-8.3
		c3.5-2.9,3.6-7.9,0.2-10.8c-3.3-2.8-6.7-5.6-9.9-8.4c-3.3,2.8-6.8,5.7-10.2,8.6c-3.4,2.9-3.3,7.8,0.2,10.6
		C579.1,285.5,582.4,288.3,585.7,291z M528.5,478c3.2-2.7,6.5-5.4,9.8-8.1c3.7-3.1,3.7-8.2,0.1-11.2c-3.3-2.8-6.7-5.6-9.7-8.1
		c-3.5,2.9-7.1,5.8-10.6,8.8c-2.9,2.4-2.8,7.5,0,9.9C521.6,472.2,525.1,475.1,528.5,478z M271.3,450.5c-3.1,2.6-6.4,5.4-9.7,8.1
		c-3.8,3.2-3.9,8.2,0,11.4c3.2,2.7,6.5,5.4,9.6,8c3.1-2.6,6.4-5.4,9.7-8.1c3.9-3.3,3.9-8.1,0-11.3
		C277.6,455.9,274.4,453.1,271.3,450.5z M500.1,328.5c3.4-2.8,6.7-5.6,10.1-8.4c3-2.6,3-8,0-10.6c-3.4-2.9-6.8-5.7-10-8.5
		c-3.3,2.7-6.8,5.6-10.3,8.5c-3.3,2.7-3.3,7.7-0.1,10.4C493.2,322.8,496.6,325.6,500.1,328.5z M528.6,216.3c3.1-2.6,6.2-5.3,9.4-7.9
		c4.1-3.4,4.1-8.3,0-11.7c-3.2-2.7-6.4-5.3-9.3-7.8c-3.4,2.8-7,5.7-10.4,8.7c-3.1,2.6-3.1,7.6,0.1,10.3
		C521.8,210.7,525.2,213.5,528.6,216.3z M585.8,328.4c1.6-1.4,3.3-2.8,5-4.2c1.7-1.4,3.5-2.8,5.2-4.3c3.2-2.7,3.1-7.8,0-10.5
		c-3.4-2.9-6.8-5.7-10.1-8.5c-1.6,1.4-3.3,2.9-5,4.3c-1.8,1.5-3.6,2.9-5.4,4.4c-3.1,2.6-3.1,7.7,0.1,10.3
		C578.9,322.7,582.3,325.5,585.8,328.4z M557.1,440.8c3.5-2.9,7-5.9,10.6-8.9c2.8-2.4,2.7-7.8-0.1-10.2c-3.5-3-7.1-5.9-10.4-8.7
		c-1.5,1.3-3,2.7-4.5,4c-1.6,1.3-3.2,2.6-4.8,4c-4.1,3.4-4.1,8.3,0,11.8C550.9,435.5,554.1,438.2,557.1,440.8z M242.8,375.7
		c-3.2,2.7-6.5,5.4-9.8,8.2c-4,3.3-4,7.8-0.1,11.1c3.3,2.7,6.5,5.5,9.7,8.1c3.3-2.7,6.5-5.4,9.7-8.1c3.8-3.1,3.8-8.1,0.1-11.2
		C249.2,381.1,245.9,378.4,242.8,375.7z M271.3,403.2c3.4-2.8,6.9-5.7,10.4-8.7c2.9-2.5,2.8-7.7-0.1-10.1c-3.5-2.9-7-5.8-10.3-8.7
		c-3.2,2.7-6.6,5.6-10.1,8.4c-3.2,2.7-3.3,8,0,10.7C264.6,397.7,268,400.4,271.3,403.2z M271.3,263.6c-3.3,2.7-6.7,5.5-10.1,8.4
		c-3.3,2.8-3.2,8,0.1,10.7c3.4,2.8,6.8,5.7,10,8.4c1.6-1.4,3.2-2.8,4.8-4.1c1.7-1.4,3.4-2.9,5.1-4.3c3.4-2.8,3.4-7.9,0.1-10.6
		C278,269.2,274.6,266.4,271.3,263.6z M242.8,226.2c-3.4,2.9-6.9,5.8-10.4,8.7c-3.1,2.6-3.1,7.5,0,10.1c3.5,2.9,7,5.8,10.3,8.6
		c3.4-2.8,6.8-5.6,10.1-8.4c3.2-2.6,3.2-7.9,0.1-10.5C249.5,231.8,246.1,229,242.8,226.2z M614.5,375.8c-3.4,2.8-7,5.8-10.6,8.8
		c-3,2.5-3,7.4-0.1,9.8c3.6,3,7.2,5.9,10.7,8.9c1.5-1.3,3.1-2.7,4.7-4.1c1.7-1.5,3.5-2.9,5.2-4.3c3.3-2.8,3.4-7.9,0.1-10.7
		C621.1,381.3,617.8,378.5,614.5,375.8z M528.7,338.4c-3.4,2.8-7,5.8-10.5,8.8c-2.9,2.4-2.9,7.5,0,9.9c3.6,3,7.1,5.9,10.5,8.7
		c3.4-2.9,6.9-5.8,10.3-8.6c2.8-2.4,2.8-7.8,0-10.1C535.5,344.2,532.1,341.3,528.7,338.4z M528.6,403.2c3.5-2.9,7-5.8,10.4-8.7
		c2.8-2.4,2.8-7.8,0-10.1c-3.5-2.9-6.9-5.8-10.2-8.6c-3.5,2.9-7.1,5.8-10.6,8.8c-2.9,2.4-2.9,7.5,0,9.9
		C521.6,397.4,525.1,400.3,528.6,403.2z M557.2,226.2c-3.1,2.6-6.4,5.4-9.7,8.2c-3.8,3.2-3.7,8.2,0.1,11.4c3.2,2.7,6.4,5.4,9.5,7.9
		c3.4-2.8,7-5.8,10.6-8.8c2.7-2.3,2.7-7.6,0-10C564.2,231.9,560.6,229,557.2,226.2z M271.3,226.2c-3.2,2.7-6.6,5.5-9.9,8.3
		c-3.4,2.9-3.5,8.1,0,10.9c3.4,2.8,6.7,5.6,9.9,8.3c3.3-2.8,6.9-5.7,10.4-8.6c2.9-2.5,2.9-7.7,0-10.1
		C278.2,231.9,274.7,229,271.3,226.2z M585.9,226.2c-3.5,2.9-7.1,5.9-10.7,9c-2.6,2.2-2.6,7.4-0.1,9.6c3.6,3.1,7.2,6,10.7,8.9
		c3.4-2.9,6.8-5.7,10.2-8.5c3.2-2.7,3.2-7.8,0-10.5C592.6,231.8,589.2,229,585.9,226.2z M500,478c3.4-2.9,7-5.8,10.6-8.8
		c2.6-2.2,2.5-7.8-0.1-10c-3.5-3-7.1-5.9-10.4-8.6c-3.4,2.8-6.9,5.7-10.3,8.6c-3.1,2.6-3.1,7.5-0.1,10
		C493.1,472.2,496.6,475.1,500,478z M299.9,413.2c-3.4,2.8-7,5.8-10.5,8.8c-2.8,2.3-2.8,7.6,0,9.9c3.5,2.9,7,5.8,10.4,8.7
		c3.4-2.8,6.8-5.6,10.2-8.5c3.2-2.7,3.2-7.8,0-10.5C306.6,418.8,303.2,415.9,299.9,413.2z M242.6,216.3c3.4-2.8,7-5.8,10.5-8.8
		c2.8-2.3,2.8-7.6,0-9.9c-3.5-3-7.1-6-10.4-8.7c-3.2,2.6-6.5,5.4-9.8,8.2c-4,3.4-4,7.8,0,11.1C236.2,210.9,239.5,213.7,242.6,216.3z
		 M528.6,291c3.5-2.9,6.9-5.7,10.3-8.6c2.8-2.4,2.8-7.8,0-10.1c-3.5-2.9-6.9-5.8-10.3-8.7c-3.4,2.8-6.9,5.7-10.4,8.6
		c-3.2,2.6-3.2,7.6,0,10.2C521.8,285.4,525.2,288.2,528.6,291z M328.4,478c3.5-2.9,6.9-5.7,10.3-8.6c2.9-2.5,2.8-7.9-0.1-10.3
		c-3.5-2.9-6.9-5.8-10.2-8.5c-3.2,2.7-6.7,5.5-10.1,8.4c-3.2,2.7-3.3,8,0,10.8C321.7,472.5,325.1,475.2,328.4,478z M242.7,365.8
		c3.4-2.8,6.8-5.6,10.1-8.4c3.3-2.7,3.2-7.9-0.1-10.7c-3.4-2.9-6.8-5.7-9.9-8.4c-3.4,2.8-6.8,5.7-10.3,8.7
		c-3.2,2.7-3.2,7.6-0.1,10.3C235.8,360.1,239.3,363,242.7,365.8z M528.6,328.4c3.5-2.9,7-5.8,10.4-8.7c2.7-2.3,2.6-7.7,0-9.9
		c-3.5-3-7-5.9-10.3-8.8c-3.4,2.8-6.9,5.7-10.4,8.7c-3.2,2.6-3.1,7.6,0,10.2C521.7,322.7,525.2,325.6,528.6,328.4z M614.4,328.4
		c3.3-2.8,6.8-5.6,10.2-8.5c3-2.6,3.1-7.8,0.1-10.3c-3.5-2.9-6.9-5.8-10.2-8.5c-3.4,2.8-6.9,5.7-10.4,8.6c-3.3,2.7-3.3,7.5,0,10.2
		C607.6,322.7,611.1,325.6,614.4,328.4z M528.6,440.6c3.5-2.9,6.9-5.8,10.4-8.6c2.8-2.4,2.8-7.8,0-10.1c-3.5-2.9-6.9-5.8-10.3-8.7
		c-3.3,2.8-6.9,5.7-10.4,8.7c-3,2.5-3.1,7.6-0.1,10.1C521.7,434.8,525.2,437.7,528.6,440.6z M614.4,365.8c3.3-2.8,6.6-5.5,9.9-8.3
		c3.5-2.9,3.5-8,0.1-10.9c-3.4-2.8-6.7-5.6-9.9-8.3c-3.2,2.7-6.7,5.6-10.2,8.5c-3.5,2.9-3.4,7.6,0.2,10.5
		C607.7,360.2,611.1,363,614.4,365.8z M500.1,440.6c3.3-2.7,6.6-5.5,9.8-8.3c3.5-2.9,3.3-8.2-0.2-11.1c-3.3-2.7-6.5-5.5-9.6-8.1
		c-3.4,2.8-6.9,5.7-10.4,8.6c-3.2,2.6-3.2,7.6,0,10.3C493.1,434.9,496.6,437.7,500.1,440.6z M299.8,253.6c3.4-2.8,7-5.7,10.4-8.6
		c2.9-2.5,2.9-7.7,0-10.1c-3.5-3-7-5.9-10.4-8.7c-3.4,2.8-6.8,5.8-10.3,8.7c-3,2.6-3,7.7,0,10.3C293,248,296.4,250.8,299.8,253.6z
		 M500.1,291.1c1.6-1.4,3.2-2.8,4.9-4.1c1.7-1.4,3.5-2.8,5.2-4.3c3-2.6,3-8.1,0-10.6c-3.4-2.9-6.8-5.7-10.1-8.5
		c-1.5,1.3-3.2,2.8-4.9,4.2c-1.7,1.4-3.5,2.8-5.2,4.3c-3.6,3-3.5,7.8,0.1,10.8C493.4,285.6,496.7,288.3,500.1,291.1z M242.7,301
		c-3.2,2.7-6.5,5.4-9.8,8.2c-4,3.4-4,7.8,0,11.1c3.3,2.7,6.5,5.5,9.7,8.1c1.7-1.4,3.4-2.9,5.1-4.3c1.7-1.4,3.5-2.8,5.2-4.3
		c3-2.5,2.9-7.9,0-10.4C249.5,306.7,246.1,303.8,242.7,301z M242.7,413.1c-3.4,2.8-6.9,5.7-10.3,8.7c-3.2,2.7-3.1,7.6,0.1,10.3
		c3.4,2.9,6.8,5.7,10.2,8.5c1.7-1.4,3.4-2.9,5.1-4.3c1.7-1.4,3.5-2.8,5.2-4.3c3-2.5,2.9-7.9-0.1-10.4
		C249.5,418.8,246.1,416,242.7,413.1z M585.8,403.1c3.5-2.9,7-5.8,10.5-8.8c2.7-2.3,2.7-7.6-0.1-10c-3.5-3-6.9-5.9-10.3-8.7
		c-3.4,2.8-7,5.7-10.5,8.7c-3,2.5-3,7.6-0.1,10.1C578.8,397.4,582.3,400.3,585.8,403.1z M214.2,450.5c-3.5,2.9-7.1,5.8-10.6,8.7
		c-2.8,2.4-2.9,7.6-0.1,9.9c3.5,3,7.1,5.9,10.5,8.7c3.5-2.9,7-5.8,10.5-8.7c2.7-2.3,2.8-7.7,0.1-9.9
		C221.1,456.3,217.6,453.4,214.2,450.5z M442.8,403.2c3.3-2.8,6.8-5.7,10.3-8.6c2.9-2.4,2.9-8,0-10.4c-3.5-2.9-7-5.8-10.2-8.6
		c-3.2,2.7-6.6,5.6-10,8.5c-3.3,2.8-3.4,7.9,0,10.7C436.1,397.7,439.5,400.5,442.8,403.2z M500,216.3c3.5-2.9,7.1-5.8,10.5-8.8
		c2.6-2.2,2.6-7.8,0-10c-3.5-3-7.1-5.9-10.4-8.7c-3.5,3-7,5.9-10.5,8.8c-3,2.5-3,7.4,0,9.9C493,210.5,496.5,213.4,500,216.3z
		 M528.6,253.6c3.6-3,7.2-6,10.7-9c2.4-2,2.2-7.6-0.1-9.6c-3.5-3-7.1-6-10.5-8.9c-3.1,2.6-6.4,5.4-9.7,8.1
		c-4.1,3.4-4.1,7.9-0.1,11.3C522.1,248.2,525.4,250.9,528.6,253.6z M585.8,338.3c-1.5,1.3-3.2,2.8-4.9,4.2c-1.8,1.5-3.6,3-5.4,4.4
		c-3.1,2.6-3.1,7.7,0,10.3c3.4,2.9,6.9,5.7,10.3,8.5c3.3-2.8,6.7-5.6,10.1-8.5c3.2-2.7,3.2-7.8,0-10.5
		C592.6,344,589.2,341.2,585.8,338.3z M385.7,403.3c1.6-1.4,3.2-2.9,4.9-4.3c1.8-1.5,3.6-2.9,5.4-4.5c2.7-2.4,2.6-7.9-0.1-10.2
		c-3.4-2.9-6.9-5.8-10.1-8.6c-3.3,2.8-6.8,5.7-10.3,8.6c-3,2.5-3,7.8,0,10.3C378.8,397.5,382.3,400.4,385.7,403.3z M557.1,291.1
		c3.3-2.7,6.7-5.6,10.1-8.4c3.3-2.8,3.3-7.9,0.1-10.6c-3.4-2.9-6.8-5.7-10.1-8.5c-3.3,2.8-6.7,5.6-10.1,8.5c-3.2,2.8-3.1,8,0.1,10.8
		C550.6,285.6,553.9,288.5,557.1,291.1z M442.8,291.1c3.1-2.6,6.4-5.4,9.6-8.1c3.8-3.2,3.8-8.2,0-11.4c-3.3-2.8-6.6-5.5-9.6-8
		c-3.2,2.7-6.6,5.5-9.9,8.4c-3.4,2.9-3.5,8,0,10.9C436.2,285.7,439.6,288.4,442.8,291.1z M443,216.5c0.3-0.3,0.5-0.8,0.9-1.2
		c2.9-2.4,5.8-4.8,8.7-7.2c3.4-2.8,3.4-8.3,0.1-11.1c-3.3-2.8-6.7-5.6-9.8-8.2c-3.2,2.7-6.7,5.6-10.1,8.5c-3.3,2.8-3.2,7.9,0.1,10.7
		C436.1,210.8,439.5,213.6,443,216.5z M557.2,375.7c-3.4,2.8-6.8,5.7-10.2,8.6c-2.9,2.5-2.9,7.9,0,10.4c3.4,2.9,6.9,5.8,10.2,8.6
		c1.7-1.4,3.3-2.9,5.1-4.3c1.7-1.4,3.5-2.8,5.2-4.3c3.2-2.7,3.1-7.9,0-10.5C563.9,381.3,560.5,378.5,557.2,375.7z M442.9,413.1
		c-3.3,2.8-6.8,5.7-10.3,8.6c-3,2.6-3,7.8,0,10.4c3.4,2.9,6.8,5.7,10.1,8.5c3.1-2.6,6.4-5.2,9.6-7.9c3.9-3.3,3.9-8.4,0-11.6
		C449.1,418.4,445.9,415.7,442.9,413.1z M442.7,365.9c3.4-2.8,6.9-5.7,10.3-8.6c2.9-2.4,2.8-7.9,0-10.4c-3.5-2.9-6.9-5.8-10-8.4
		c-1.4,1.1-3.1,2.5-4.7,3.8c-1.7,1.4-3.3,2.7-5,4.1c-3.9,3.3-4,8.1-0.1,11.4C436.3,360.5,439.5,363.2,442.7,365.9z M299.8,188.7
		c-1.5,1.3-3.2,2.9-4.9,4.4c-1.8,1.5-3.6,2.9-5.4,4.5c-2.9,2.5-2.8,7.7,0.1,10.1c3.5,2.9,7,5.8,10.2,8.6c3.3-2.8,6.7-5.6,10.1-8.4
		c3.2-2.7,3.3-8,0.1-10.7C306.5,194.4,303.1,191.5,299.8,188.7z M385.7,291.1c3.3-2.8,6.8-5.7,10.3-8.7c2.8-2.4,2.7-7.8,0-10.2
		c-3.4-2.9-6.9-5.9-10.2-8.7c-3.4,2.8-6.9,5.8-10.5,8.8c-2.9,2.5-2.8,7.7,0.1,10.1C378.8,285.4,382.3,288.3,385.7,291.1z M214,403.2
		c3.5-2.9,6.9-5.8,10.3-8.6c3.2-2.7,3.2-7.7-0.1-10.4c-3.4-2.8-6.8-5.7-10.2-8.5c-1.6,1.4-3.2,2.8-4.9,4.3c-1.7,1.4-3.5,2.8-5.2,4.3
		c-3.2,2.7-3.2,7.9,0,10.5C207.3,397.6,210.7,400.4,214,403.2z M214.1,263.6c-3.3,2.7-6.5,5.5-9.8,8.3c-3.7,3.1-3.6,8.1,0.2,11.2
		c3.2,2.7,6.4,5.4,9.6,8c3.4-2.8,6.9-5.8,10.4-8.7c3-2.5,3.1-7.6,0.1-10.1C221.1,269.4,217.6,266.5,214.1,263.6z M442.7,328.4
		c3.3-2.7,6.7-5.6,10.1-8.4c3.2-2.7,3.1-8.1-0.1-10.7c-3.4-2.9-6.8-5.7-10-8.4c-3.3,2.8-6.8,5.7-10.3,8.7c-3,2.6-2.9,7.8,0.1,10.4
		C436.1,322.9,439.5,325.7,442.7,328.4z M557.1,328.5c3.5-2.9,7-5.8,10.5-8.7c2.9-2.4,2.8-7.8-0.1-10.2c-3.5-3-7.1-5.9-10.4-8.7
		c-1.6,1.4-3.1,2.8-4.8,4.2c-1.7,1.5-3.5,2.8-5.2,4.3c-3.3,2.8-3.2,8,0.1,10.8C550.6,322.9,553.8,325.7,557.1,328.5z M214,440.6
		c3.6-3,7.3-6,10.9-9c2.4-2.1,2.5-7.3,0.1-9.4c-3.6-3.1-7.4-6.1-10.8-9c-3.2,2.7-6.5,5.4-9.7,8.1c-3.8,3.1-3.9,8.1-0.1,11.2
		C207.5,435.2,210.7,437.8,214,440.6z M557.1,365.9c3.5-2.9,7-5.8,10.5-8.7c2.9-2.4,2.8-7.7,0-10.1c-3.5-3-7.1-5.9-10.4-8.7
		c-3.3,2.8-6.6,5.6-10,8.4c-3.3,2.7-3.3,8-0.1,10.8C550.5,360.3,553.9,363.1,557.1,365.9z M385.7,253.7c3.3-2.7,6.6-5.5,9.8-8.2
		c3.4-2.8,3.4-8.1,0.1-10.9c-3.4-2.8-6.7-5.7-10-8.4c-1.5,1.3-3,2.7-4.7,4.1c-1.7,1.4-3.5,2.8-5.2,4.3c-3.6,3-3.5,8,0.1,11
		C379.1,248.3,382.4,251,385.7,253.7z M471.6,338.4c-3.4,2.8-7,5.7-10.6,8.7c-2.9,2.4-3,7.5-0.1,9.9c3.5,3,7.1,5.9,10.6,8.8
		c1.7-1.4,3.3-2.8,4.9-4.2c1.7-1.4,3.5-2.8,5.2-4.3c3.1-2.6,3-8,0-10.6C478.2,344,474.9,341.2,471.6,338.4z M328.4,216.4
		c1.6-1.3,3.1-2.8,4.8-4.1c1.6-1.4,3.3-2.7,5-4.1c3.5-2.9,3.6-8.2,0.1-11.1c-3.3-2.8-6.7-5.6-9.9-8.3c-1.5,1.3-3.2,2.8-4.9,4.2
		c-1.8,1.5-3.6,2.9-5.4,4.5c-3,2.6-2.9,7.9,0.1,10.4C321.6,210.7,325.1,213.6,328.4,216.4z M299.8,478c3.3-2.8,6.6-5.5,9.9-8.2
		c3.5-3,3.5-8.2,0-11c-3.4-2.8-6.7-5.6-9.8-8.2c-3.3,2.8-6.9,5.8-10.4,8.8c-2.7,2.4-2.7,7.6,0,10C292.8,472.2,296.3,475.1,299.8,478
		z M214.1,226.2c-3.5,2.9-7,5.7-10.3,8.6c-3,2.6-2.9,7.8,0.1,10.4c3.4,2.9,6.8,5.7,10.1,8.4c3.5-2.9,7.1-5.9,10.7-8.8
		c2.7-2.2,2.7-7.5,0-9.7C221.2,232.1,217.6,229.1,214.1,226.2z M385.7,440.6c3.3-2.7,6.5-5.4,9.7-8.1c3.7-3.1,3.6-8.2-0.1-11.3
		c-3.3-2.7-6.5-5.5-9.6-8.1c-1.5,1.3-3.1,2.7-4.7,4.1c-1.6,1.4-3.3,2.7-5,4.1c-3.8,3.1-3.9,8.1-0.2,11.2
		C379.1,435.2,382.4,437.9,385.7,440.6z M442.8,253.7c1.4-1.2,3-2.7,4.6-4c1.7-1.4,3.5-2.9,5.2-4.3c3.3-2.7,3.4-8.2,0.1-10.9
		c-3.4-2.9-6.8-5.7-10-8.4c-3.2,2.7-6.5,5.5-9.9,8.3c-3.6,3.1-3.5,8.1,0.1,11.1C436.3,248.3,439.6,251.1,442.8,253.7z M471.5,226.2
		c-3.4,2.9-7.2,5.9-10.8,9c-2.4,2-2.5,7.3-0.3,9.2c3.6,3.1,7.4,6.2,11,9.1c3.5-2.9,6.9-5.7,10.2-8.5c2.9-2.5,2.9-8,0-10.4
		C478.2,231.8,474.8,229,471.5,226.2z M385.7,188.8c-3,2.5-6.2,5.1-9.4,7.8c-4.3,3.6-4.3,8.4,0,11.9c3.2,2.6,6.3,5.3,9.3,7.8
		c1.5-1.3,3.2-2.8,4.9-4.2c1.7-1.5,3.5-2.8,5.2-4.3c3.1-2.6,3.1-8,0.1-10.6C392.4,194.4,388.9,191.6,385.7,188.8z M385.7,450.5
		c-3.3,2.8-6.7,5.6-10.2,8.5c-3.2,2.6-3.2,7.9-0.1,10.5c3.4,2.9,6.8,5.7,10.1,8.5c3.2-2.7,6.6-5.5,9.9-8.3c3.5-3,3.4-8.2-0.1-11.1
		C392.1,455.9,388.8,453.1,385.7,450.5z M385.7,338.3c-3.4,2.8-6.9,5.8-10.5,8.8c-2.7,2.3-2.8,7.6-0.1,10c3.5,3,7.1,5.9,10.5,8.8
		c3.1-2.6,6.3-5.3,9.5-8c3.8-3.2,3.8-8.2,0.1-11.4C392,343.7,388.9,341,385.7,338.3z M471.5,300.9c-1.6,1.3-3.2,2.7-4.8,4.1
		c-1.7,1.4-3.5,2.9-5.2,4.3c-3.7,3.1-3.7,7.8,0.1,10.9c3.3,2.7,6.6,5.5,9.8,8.1c3.4-2.9,6.9-5.7,10.3-8.6c2.8-2.4,2.8-7.8,0-10.2
		C478.3,306.7,474.9,303.8,471.5,300.9z M385.7,328.5c1.6-1.4,3.2-2.9,4.9-4.3c1.7-1.4,3.5-2.8,5.2-4.3c2.9-2.5,2.9-7.9,0-10.4
		c-3.4-2.9-6.9-5.8-10.1-8.5c-3.3,2.8-6.8,5.6-10.3,8.6c-3,2.5-3,7.8,0,10.3C378.8,322.8,382.3,325.7,385.7,328.5z M442.8,450.4
		c-1.5,1.3-3.1,2.8-4.8,4.2c-1.8,1.5-3.6,2.9-5.4,4.4c-3.1,2.6-3.2,7.7-0.1,10.3c3.5,3,7,5.8,10.3,8.7c1.5-1.3,3.1-2.7,4.7-4.1
		c1.7-1.4,3.5-2.8,5.2-4.3c3.2-2.8,3.2-8.2,0-10.9C449.3,455.9,446,453.1,442.8,450.4z M214.1,338.4c-3.3,2.8-6.9,5.7-10.4,8.7
		c-2.9,2.4-2.9,7.7,0,10.2c3.4,2.9,6.9,5.8,10.3,8.6c3.5-2.9,7-5.9,10.5-8.8c3-2.5,2.9-7.6-0.1-10.1
		C221,344.1,217.6,341.3,214.1,338.4z M357,478c3.5-2.9,7-5.8,10.6-8.8c2.6-2.2,2.7-7.5,0.1-9.7c-3.6-3-7.2-6.1-10.6-8.9
		c-3.4,2.8-6.8,5.7-10.2,8.6c-3,2.5-3.1,7.8-0.1,10.4C350.1,472.3,353.6,475.1,357,478z M357.1,338.4c-3.4,2.8-6.8,5.7-10.3,8.5
		c-2.5,2.1-3,7.7-0.8,9.7c3.6,3.2,7.3,6.2,10.9,9.2c3.5-2.9,6.9-5.7,10.3-8.5c3-2.5,3-7.8,0-10.3
		C363.9,344.1,360.5,341.2,357.1,338.4z M214,328.4c3.4-2.9,7-5.8,10.6-8.8c2.9-2.4,2.9-7.5,0.1-9.9c-3.5-3-7.1-5.9-10.5-8.8
		c-3.3,2.8-6.7,5.6-10,8.4c-3.4,2.9-3.4,8,0.1,10.9C207.5,323,210.8,325.7,214,328.4z M471.4,403.1c3.4-2.8,6.9-5.6,10.2-8.5
		c2.9-2.5,2.9-7.9-0.1-10.4c-3.4-2.9-6.8-5.7-10.1-8.4c-3.4,2.8-7.1,5.8-10.7,8.9c-2.7,2.3-2.7,7.5,0.1,9.7
		C464.4,397.3,467.9,400.2,471.4,403.1z M357,253.6c3.5-2.9,7.2-5.9,10.7-8.9c2.6-2.2,2.5-7.6-0.1-9.8c-3.5-3-7.1-5.9-10.4-8.7
		c-3.3,2.8-6.7,5.5-10.1,8.4c-3.2,2.7-3.2,8.1,0,10.8C350.3,248.1,353.6,250.8,357,253.6z M357.1,375.7c-3.4,2.9-7,5.8-10.5,8.8
		c-2.5,2.2-2.5,7.7,0,9.9c3.5,2.9,7,5.8,10.4,8.7c3.6-3,7.1-5.8,10.6-8.8c2.7-2.3,2.6-7.7-0.2-10
		C363.9,381.5,360.5,378.5,357.1,375.7z M356.9,216.3c3.4-2.8,7-5.8,10.6-8.8c2.3-1.9,2.8-7.4,0.8-9.2c-3.7-3.3-7.6-6.4-11.2-9.4
		c-3.1,2.6-6.2,5.2-9.3,7.7c-4.4,3.6-4.4,8.3,0,11.9C350.8,211.1,353.9,213.7,356.9,216.3z M471.4,291c3.4-2.8,6.8-5.6,10.2-8.4
		c3-2.6,3-8-0.1-10.5c-3.4-2.9-6.8-5.7-10-8.4c-3.5,2.9-7.1,5.9-10.7,8.9c-2.9,2.4-2.8,7.5,0.1,9.9
		C464.4,285.2,467.9,288.1,471.4,291z M357.1,301c-3.4,2.8-6.9,5.7-10.3,8.6c-2.6,2.1-2.9,7.8-0.5,9.9c3.5,3.1,7.2,6,10.8,9
		c1.7-1.5,3.4-2.9,5-4.2c1.7-1.4,3.3-2.8,5-4.1c3.4-2.8,3.4-7.8,0.1-10.6C363.8,306.6,360.4,303.8,357.1,301z M357,440.5
		c3.6-2.9,7.2-5.9,10.7-8.9c2.6-2.2,2.4-7.6-0.2-9.8c-3.5-3-7.1-5.9-10.4-8.7c-3.4,2.8-6.9,5.7-10.3,8.5c-2.8,2.3-2.9,7.9-0.1,10.2
		C350.1,434.9,353.6,437.7,357,440.5z M471.6,413.2c-3.5,2.9-7.1,5.8-10.7,8.8c-2.7,2.3-2.8,7.5-0.1,9.8c3.6,3,7.2,5.9,10.6,8.8
		c3.4-2.8,6.8-5.6,10.2-8.4c3.1-2.6,3-8,0-10.6C478.2,418.7,474.8,415.9,471.6,413.2z M357,291c3.6-2.9,7.1-5.8,10.6-8.8
		c2.7-2.3,2.6-7.7-0.2-9.9c-3.5-2.9-6.9-5.8-10.3-8.7c-3.3,2.8-6.8,5.6-10.2,8.5c-3.1,2.6-3.1,8,0,10.6
		C350.3,285.5,353.6,288.2,357,291z"/>
</g>
<rect x="2904.1" y="295.1" class="st2" width="948" height="826"/>
<rect x="0.1" y="0.1" class="st3" width="4800" height="3480"/>
<path class="st4" d="M237.6,236.6v943.5h533.2v176.5h412.7v-176.5h236.6V236.6H237.6z M1273.1,973.1h-889v-590h889V973.1z"/>
<path class="st5" d="M295.4,1179.9h0.5v-0.1h58.8v0.1h0.5v-0.1h58.8v0.1h0.5v-0.1h58.8v0.1h0.5v-0.1h58.8v0.1h0.5v-0.1h58.8v0.1h0.5
	v-0.1H651v0.1h0.5v-0.1h58.8v0.1h0.5v-0.1h58.8v0.1h0.5v-0.1h58.8v58.5H770v0.5h58.7v58.5H770v0.5h58.7v58.5H770v0.2h414.4v-176.5
	h0.4v-0.1h58.8v0.1h0.5v-0.1h58.8v0.1h0.5v-0.1h58.8v0.1h0.5v-0.1h58.8v0.1h0V236.4h0v58.2h-58.8v-58.2h-0.5v58.2h-58.8v-58.2h-0.5
	v58.2h-58.8v-58.2h-0.5v58.2h-58.8v-58.2h-0.5v58.2h-58.8v-58.2h-0.5v58.2h-58.8v-58.2h-0.5v58.2H1007v-58.2h-0.5v58.2h-58.8v-58.2
	h-0.5v58.2h-58.8v-58.2H888v58.2h-58.8v-58.2h-0.5v58.2H770v-58.2h-0.5v58.2h-58.8v-58.2h-0.5v58.2h-58.8v-58.2H651v58.2h-58.8
	v-58.2h-0.5v58.2h-58.8v-58.2h-0.5v58.2h-58.8v-58.2h-0.5v58.2h-58.8v-58.2h-0.5v58.2h-58.8v-58.2h-0.5v58.2h-58.8v-58.2h-0.5v58.2
	h-58.5v0.5h58.5v58.5h-58.5v0.5h58.5v58.5h-58.5v0.5h58.5v58.5h-58.5v0.5h58.5v58.5h-58.5v0.5h58.5v58.5h-58.5v0.5h58.5v58.5h-58.5
	v0.5h58.5v58.5h-58.5v0.5h58.5v58.5h-58.5v0.5h58.5v58.5h-58.5v0.5h58.5v58.5h-58.5v0.5h58.5v58.5h-58.5v0.5h58.5v58.5h-58.5v0.5
	h58.5v58.5h-58.5v0.5h58.5v58.5h-58.5v0.5h58.5v58.5h-58.5v0.5L295.4,1179.9L295.4,1179.9z M1362.6,295.1h58.8v58.5h-58.8V295.1z
	 M1362.6,354.1h58.8v58.5h-58.8V354.1z M1362.6,413.1h58.8v58.5h-58.8V413.1z M1362.6,472h58.8v58.5h-58.8V472z M1362.6,531h58.8
	v58.5h-58.8V531z M1362.6,590h58.8v58.5h-58.8V590z M1362.6,649h58.8v58.5h-58.8V649z M1362.6,708h58.8v58.5h-58.8V708z M1362.6,767
	h58.8v58.5h-58.8V767z M1362.6,825.9h58.8v58.5h-58.8V825.9z M1362.6,884.9h58.8v58.5h-58.8V884.9z M1362.6,943.9h58.8v58.5h-58.8
	V943.9z M1362.6,1002.9h58.8v58.5h-58.8V1002.9z M1362.6,1061.9h58.8v58.5h-58.8V1061.9z M1362.6,1120.9h58.8v58.5h-58.8V1120.9z
	 M1303.3,295.1h58.8v58.5h-58.8V295.1z M1303.3,354.1h58.8v58.5h-58.8V354.1z M1303.3,413.1h58.8v58.5h-58.8V413.1z M1303.3,472
	h58.8v58.5h-58.8V472z M1303.3,531h58.8v58.5h-58.8V531z M1303.3,590h58.8v58.5h-58.8V590z M1303.3,649h58.8v58.5h-58.8V649z
	 M1303.3,708h58.8v58.5h-58.8V708z M1303.3,767h58.8v58.5h-58.8V767z M1303.3,825.9h58.8v58.5h-58.8V825.9z M1303.3,884.9h58.8v58.5
	h-58.8V884.9z M1303.3,943.9h58.8v58.5h-58.8V943.9z M1303.3,1002.9h58.8v58.5h-58.8V1002.9z M1303.3,1061.9h58.8v58.5h-58.8V1061.9
	z M1303.3,1120.9h58.8v58.5h-58.8V1120.9z M1244.1,295.1h58.8v58.5h-58.8V295.1z M1244.1,354.1h58.8v58.5h-58.8V354.1z
	 M1244.1,413.1h58.8v58.5h-58.8V413.1z M1244.1,472h58.8v58.5h-58.8V472z M1244.1,531h58.8v58.5h-58.8V531z M1244.1,590h58.8v58.5
	h-58.8V590z M1244.1,649h58.8v58.5h-58.8V649z M1244.1,708h58.8v58.5h-58.8V708z M1244.1,767h58.8v58.5h-58.8V767z M1244.1,825.9
	h58.8v58.5h-58.8V825.9z M1244.1,884.9h58.8v58.5h-58.8V884.9z M1244.1,943.9h58.8v58.5h-58.8V943.9z M1244.1,1002.9h58.8v58.5
	h-58.8V1002.9z M1244.1,1061.9h58.8v58.5h-58.8V1061.9z M1244.1,1120.9h58.8v58.5h-58.8V1120.9z M1184.8,295.1h58.8v58.5h-58.8
	V295.1z M1184.8,354.1h58.8v58.5h-58.8V354.1z M1184.8,413.1h58.8v58.5h-58.8V413.1z M1184.8,472h58.8v58.5h-58.8V472z M1184.8,531
	h58.8v58.5h-58.8V531z M1184.8,590h58.8v58.5h-58.8V590z M1184.8,649h58.8v58.5h-58.8V649z M1184.8,708h58.8v58.5h-58.8V708z
	 M1184.8,767h58.8v58.5h-58.8V767z M1184.8,825.9h58.8v58.5h-58.8V825.9z M1184.8,884.9h58.8v58.5h-58.8V884.9z M1184.8,943.9h58.8
	v58.5h-58.8V943.9z M1184.8,1002.9h58.8v58.5h-58.8V1002.9z M1184.8,1061.9h58.8v58.5h-58.8V1061.9z M1184.8,1120.9h58.8v58.5h-58.8
	V1120.9z M1125.5,295.1h58.8v58.5h-58.8V295.1z M1125.5,354.1h58.8v58.5h-58.8V354.1z M1125.5,413.1h58.8v58.5h-58.8V413.1z
	 M1125.5,472h58.8v58.5h-58.8V472z M1125.5,531h58.8v58.5h-58.8V531z M1125.5,590h58.8v58.5h-58.8V590z M1125.5,649h58.8v58.5h-58.8
	V649z M1125.5,708h58.8v58.5h-58.8V708z M1125.5,767h58.8v58.5h-58.8V767z M1125.5,825.9h58.8v58.5h-58.8V825.9z M1125.5,884.9h58.8
	v58.5h-58.8V884.9z M1125.5,943.9h58.8v58.5h-58.8V943.9z M1125.5,1002.9h58.8v58.5h-58.8V1002.9z M1125.5,1061.9h58.8v58.5h-58.8
	V1061.9z M1125.5,1120.9h58.8v58.5h-58.8V1120.9z M1125.5,1179.8h58.8v58.5h-58.8V1179.8z M1125.5,1238.8h58.8v58.5h-58.8V1238.8z
	 M1125.5,1297.8h58.8v58.5h-58.8V1297.8z M1066.3,295.1h58.8v58.5h-58.8V295.1z M1066.3,354.1h58.8v58.5h-58.8V354.1z M1066.3,413.1
	h58.8v58.5h-58.8V413.1z M1066.3,472h58.8v58.5h-58.8V472z M1066.3,531h58.8v58.5h-58.8V531z M1066.3,590h58.8v58.5h-58.8V590z
	 M1066.3,649h58.8v58.5h-58.8V649z M1066.3,708h58.8v58.5h-58.8V708z M1066.3,767h58.8v58.5h-58.8V767z M1066.3,825.9h58.8v58.5
	h-58.8V825.9z M1066.3,884.9h58.8v58.5h-58.8V884.9z M1066.3,943.9h58.8v58.5h-58.8V943.9z M1066.3,1002.9h58.8v58.5h-58.8V1002.9z
	 M1066.3,1061.9h58.8v58.5h-58.8V1061.9z M1066.3,1120.9h58.8v58.5h-58.8V1120.9z M1066.3,1179.8h58.8v58.5h-58.8V1179.8z
	 M1066.3,1238.8h58.8v58.5h-58.8V1238.8z M1066.3,1297.8h58.8v58.5h-58.8V1297.8z M1007,295.1h58.8v58.5H1007V295.1z M1007,354.1
	h58.8v58.5H1007V354.1z M1007,413.1h58.8v58.5H1007V413.1z M1007,472h58.8v58.5H1007V472z M1007,531h58.8v58.5H1007V531z M1007,590
	h58.8v58.5H1007V590z M1007,649h58.8v58.5H1007V649z M1007,708h58.8v58.5H1007V708z M1007,767h58.8v58.5H1007V767z M1007,825.9h58.8
	v58.5H1007V825.9z M1007,884.9h58.8v58.5H1007V884.9z M1007,943.9h58.8v58.5H1007V943.9z M1007,1002.9h58.8v58.5H1007V1002.9z
	 M1007,1061.9h58.8v58.5H1007V1061.9z M1007,1120.9h58.8v58.5H1007V1120.9z M1007,1179.8h58.8v58.5H1007V1179.8z M1007,1238.8h58.8
	v58.5H1007V1238.8z M1007,1297.8h58.8v58.5H1007V1297.8z M947.8,295.1h58.8v58.5h-58.8V295.1z M947.8,354.1h58.8v58.5h-58.8V354.1z
	 M947.8,413.1h58.8v58.5h-58.8V413.1z M947.8,472h58.8v58.5h-58.8V472z M947.8,531h58.8v58.5h-58.8V531z M947.8,590h58.8v58.5h-58.8
	V590z M947.8,649h58.8v58.5h-58.8V649z M947.8,708h58.8v58.5h-58.8V708z M947.8,767h58.8v58.5h-58.8V767z M947.8,825.9h58.8v58.5
	h-58.8V825.9z M947.8,884.9h58.8v58.5h-58.8V884.9z M947.8,943.9h58.8v58.5h-58.8V943.9z M947.8,1002.9h58.8v58.5h-58.8V1002.9z
	 M947.8,1061.9h58.8v58.5h-58.8V1061.9z M947.8,1120.9h58.8v58.5h-58.8V1120.9z M947.8,1179.8h58.8v58.5h-58.8V1179.8z
	 M947.8,1238.8h58.8v58.5h-58.8V1238.8z M947.8,1297.8h58.8v58.5h-58.8V1297.8z M888.5,295.1h58.8v58.5h-58.8V295.1z M888.5,354.1
	h58.8v58.5h-58.8V354.1z M888.5,413.1h58.8v58.5h-58.8V413.1z M888.5,472h58.8v58.5h-58.8V472z M888.5,531h58.8v58.5h-58.8V531z
	 M888.5,590h58.8v58.5h-58.8V590z M888.5,649h58.8v58.5h-58.8V649z M888.5,708h58.8v58.5h-58.8V708z M888.5,767h58.8v58.5h-58.8V767
	z M888.5,825.9h58.8v58.5h-58.8V825.9z M888.5,884.9h58.8v58.5h-58.8V884.9z M888.5,943.9h58.8v58.5h-58.8V943.9z M888.5,1002.9
	h58.8v58.5h-58.8V1002.9z M888.5,1061.9h58.8v58.5h-58.8V1061.9z M888.5,1120.9h58.8v58.5h-58.8V1120.9z M888.5,1179.8h58.8v58.5
	h-58.8V1179.8z M888.5,1238.8h58.8v58.5h-58.8V1238.8z M888.5,1297.8h58.8v58.5h-58.8V1297.8z M829.2,295.1H888v58.5h-58.8V295.1z
	 M829.2,354.1H888v58.5h-58.8V354.1z M829.2,413.1H888v58.5h-58.8V413.1z M829.2,472H888v58.5h-58.8V472z M829.2,531H888v58.5h-58.8
	V531z M829.2,590H888v58.5h-58.8V590z M829.2,649H888v58.5h-58.8V649z M829.2,708H888v58.5h-58.8V708z M829.2,767H888v58.5h-58.8
	V767z M829.2,825.9H888v58.5h-58.8V825.9z M829.2,884.9H888v58.5h-58.8V884.9z M829.2,943.9H888v58.5h-58.8V943.9z M829.2,1002.9
	H888v58.5h-58.8V1002.9z M829.2,1061.9H888v58.5h-58.8V1061.9z M829.2,1120.9H888v58.5h-58.8V1120.9z M829.2,1179.8H888v58.5h-58.8
	V1179.8z M829.2,1238.8H888v58.5h-58.8V1238.8z M829.2,1297.8H888v58.5h-58.8V1297.8z M770,295.1h58.8v58.5H770V295.1z M770,354.1
	h58.8v58.5H770V354.1z M770,413.1h58.8v58.5H770V413.1z M770,472h58.8v58.5H770V472z M770,531h58.8v58.5H770V531z M770,590h58.8
	v58.5H770V590z M770,649h58.8v58.5H770V649z M770,708h58.8v58.5H770V708z M770,767h58.8v58.5H770V767z M770,825.9h58.8v58.5H770
	V825.9z M770,884.9h58.8v58.5H770V884.9z M770,943.9h58.8v58.5H770V943.9z M770,1002.9h58.8v58.5H770V1002.9z M770,1061.9h58.8v58.5
	H770V1061.9z M770,1120.9h58.8v58.5H770V1120.9z M710.7,295.1h58.8v58.5h-58.8V295.1z M710.7,354.1h58.8v58.5h-58.8V354.1z
	 M710.7,413.1h58.8v58.5h-58.8V413.1z M710.7,472h58.8v58.5h-58.8V472z M710.7,531h58.8v58.5h-58.8V531z M710.7,590h58.8v58.5h-58.8
	V590z M710.7,649h58.8v58.5h-58.8V649z M710.7,708h58.8v58.5h-58.8V708z M710.7,767h58.8v58.5h-58.8V767z M710.7,825.9h58.8v58.5
	h-58.8V825.9z M710.7,884.9h58.8v58.5h-58.8V884.9z M710.7,943.9h58.8v58.5h-58.8V943.9z M710.7,1002.9h58.8v58.5h-58.8V1002.9z
	 M710.7,1061.9h58.8v58.5h-58.8V1061.9z M710.7,1120.9h58.8v58.5h-58.8V1120.9z M651.5,295.1h58.8v58.5h-58.8V295.1z M651.5,354.1
	h58.8v58.5h-58.8V354.1z M651.5,413.1h58.8v58.5h-58.8V413.1z M651.5,472h58.8v58.5h-58.8V472z M651.5,531h58.8v58.5h-58.8V531z
	 M651.5,590h58.8v58.5h-58.8V590z M651.5,649h58.8v58.5h-58.8V649z M651.5,708h58.8v58.5h-58.8V708z M651.5,767h58.8v58.5h-58.8V767
	z M651.5,825.9h58.8v58.5h-58.8V825.9z M651.5,884.9h58.8v58.5h-58.8V884.9z M651.5,943.9h58.8v58.5h-58.8V943.9z M651.5,1002.9
	h58.8v58.5h-58.8V1002.9z M651.5,1061.9h58.8v58.5h-58.8V1061.9z M651.5,1120.9h58.8v58.5h-58.8V1120.9z M592.2,295.1H651v58.5
	h-58.8V295.1z M592.2,354.1H651v58.5h-58.8V354.1z M592.2,413.1H651v58.5h-58.8V413.1z M592.2,472H651v58.5h-58.8V472z M592.2,531
	H651v58.5h-58.8V531z M592.2,590H651v58.5h-58.8V590z M592.2,649H651v58.5h-58.8V649z M592.2,708H651v58.5h-58.8V708z M592.2,767
	H651v58.5h-58.8V767z M592.2,825.9H651v58.5h-58.8V825.9z M592.2,884.9H651v58.5h-58.8V884.9z M592.2,943.9H651v58.5h-58.8V943.9z
	 M592.2,1002.9H651v58.5h-58.8V1002.9z M592.2,1061.9H651v58.5h-58.8V1061.9z M592.2,1120.9H651v58.5h-58.8V1120.9z M532.9,295.1
	h58.8v58.5h-58.8V295.1z M532.9,354.1h58.8v58.5h-58.8V354.1z M532.9,413.1h58.8v58.5h-58.8V413.1z M532.9,472h58.8v58.5h-58.8V472z
	 M532.9,531h58.8v58.5h-58.8V531z M532.9,590h58.8v58.5h-58.8V590z M532.9,649h58.8v58.5h-58.8V649z M532.9,708h58.8v58.5h-58.8V708
	z M532.9,767h58.8v58.5h-58.8V767z M532.9,825.9h58.8v58.5h-58.8V825.9z M532.9,884.9h58.8v58.5h-58.8V884.9z M532.9,943.9h58.8
	v58.5h-58.8V943.9z M532.9,1002.9h58.8v58.5h-58.8V1002.9z M532.9,1061.9h58.8v58.5h-58.8V1061.9z M532.9,1120.9h58.8v58.5h-58.8
	V1120.9z M473.7,295.1h58.8v58.5h-58.8V295.1z M473.7,354.1h58.8v58.5h-58.8V354.1z M473.7,413.1h58.8v58.5h-58.8V413.1z M473.7,472
	h58.8v58.5h-58.8V472z M473.7,531h58.8v58.5h-58.8V531z M473.7,590h58.8v58.5h-58.8V590z M473.7,649h58.8v58.5h-58.8V649z
	 M473.7,708h58.8v58.5h-58.8V708z M473.7,767h58.8v58.5h-58.8V767z M473.7,825.9h58.8v58.5h-58.8V825.9z M473.7,884.9h58.8v58.5
	h-58.8V884.9z M473.7,943.9h58.8v58.5h-58.8V943.9z M473.7,1002.9h58.8v58.5h-58.8V1002.9z M473.7,1061.9h58.8v58.5h-58.8V1061.9z
	 M473.7,1120.9h58.8v58.5h-58.8V1120.9z M414.4,295.1h58.8v58.5h-58.8V295.1z M414.4,354.1h58.8v58.5h-58.8V354.1z M414.4,413.1
	h58.8v58.5h-58.8V413.1z M414.4,472h58.8v58.5h-58.8V472z M414.4,531h58.8v58.5h-58.8V531z M414.4,590h58.8v58.5h-58.8V590z
	 M414.4,649h58.8v58.5h-58.8V649z M414.4,708h58.8v58.5h-58.8V708z M414.4,767h58.8v58.5h-58.8V767z M414.4,825.9h58.8v58.5h-58.8
	V825.9z M414.4,884.9h58.8v58.5h-58.8V884.9z M414.4,943.9h58.8v58.5h-58.8V943.9z M414.4,1002.9h58.8v58.5h-58.8V1002.9z
	 M414.4,1061.9h58.8v58.5h-58.8V1061.9z M414.4,1120.9h58.8v58.5h-58.8V1120.9z M355.2,295.1h58.8v58.5h-58.8V295.1z M355.2,354.1
	h58.8v58.5h-58.8V354.1z M355.2,413.1h58.8v58.5h-58.8V413.1z M355.2,472h58.8v58.5h-58.8V472z M355.2,531h58.8v58.5h-58.8V531z
	 M355.2,590h58.8v58.5h-58.8V590z M355.2,649h58.8v58.5h-58.8V649z M355.2,708h58.8v58.5h-58.8V708z M355.2,767h58.8v58.5h-58.8V767
	z M355.2,825.9h58.8v58.5h-58.8V825.9z M355.2,884.9h58.8v58.5h-58.8V884.9z M355.2,943.9h58.8v58.5h-58.8V943.9z M355.2,1002.9
	h58.8v58.5h-58.8V1002.9z M355.2,1061.9h58.8v58.5h-58.8V1061.9z M355.2,1120.9h58.8v58.5h-58.8V1120.9z M295.9,295.1h58.8v58.5
	h-58.8V295.1z M295.9,354.1h58.8v58.5h-58.8V354.1z M295.9,413.1h58.8v58.5h-58.8V413.1z M295.9,472h58.8v58.5h-58.8V472z
	 M295.9,531h58.8v58.5h-58.8V531z M295.9,590h58.8v58.5h-58.8V590z M295.9,649h58.8v58.5h-58.8V649z M295.9,708h58.8v58.5h-58.8V708
	z M295.9,767h58.8v58.5h-58.8V767z M295.9,825.9h58.8v58.5h-58.8V825.9z M295.9,884.9h58.8v58.5h-58.8V884.9z M295.9,943.9h58.8
	v58.5h-58.8V943.9z M295.9,1002.9h58.8v58.5h-58.8V1002.9z M295.9,1061.9h58.8v58.5h-58.8V1061.9z M295.9,1120.9h58.8v58.5h-58.8
	V1120.9z"/>
<g>
	<radialGradient id="SVGID_1_" cx="982.6426" cy="2556.2192" r="609.4244" gradientUnits="userSpaceOnUse">
		<stop  offset="0" style="stop-color:#998675"/>
		<stop  offset="5.067348e-03" style="stop-color:#998675"/>
		<stop  offset="0.6715" style="stop-color:#66594F"/>
		<stop  offset="1" style="stop-color:#534741"/>
	</radialGradient>
	<path class="st6" d="M1565,2508.6l-484.3-528.4c-38.4-41.9-103.5-44.7-145.4-6.3l-528.8,484.6c-41.9,38.4-44.7,103.5-6.3,145.4
		l39.7,43.3l0.2-0.1l334.9,365l0.5-0.5l108.9,120.7c38.4,41.9,103.5,44.7,145.4,6.3l528.8-484.6
		C1600.6,2615.6,1603.4,2550.5,1565,2508.6z"/>
</g>
</svg>
