<svg xmlns="http://www.w3.org/2000/svg" xml:space="preserve" id="Layer_1" x="0" y="0" style="enable-background:new 0 0 100 100" version="1.1" viewBox="0 0 100 100">
  <style>
    .st0{fill:#9C52FF}.st1{fill:#1DCFFF}.st2{fill:#FFE401}.st3{fill:#FFFFFF}.st4{fill:#FF284D}.st5{fill:#F638D7}.st6{fill:#FF6B31}
  </style>
  <path d="M100 49.4c-.2-12.2-4.7-23.4-12.1-32-3.3-3.8-7.1-7.1-11.3-9.8-3.3-2.1-6.8-3.8-10.6-5C62.9 1.5 59.6.8 56.2.4c2.1 2.4 4.1 4.9 5.9 7.6 1.9 2.8 3.6 5.7 5.1 8.7 1.7 3.4 3.1 7 4.3 10.7C73.8 34.5 75 42.1 75 50c0 7.7-3.5 14.6-9 19.2-.9 3.3-2.1 6.4-3.5 9.5-1.3 2.8-2.7 5.4-4.3 8-1.5 2.5-3.2 4.8-5.1 7-1.8 2.2-3.8 4.3-5.9 6.3.9 0 1.8.1 2.8.1 2.1 0 4.2-.1 6.2-.4 3.4-.4 6.6-1.2 9.8-2.2 3.7-1.3 7.3-3 10.6-5 4.3-2.7 8.1-6 11.3-9.8C95.3 74 99.8 62.8 100 50.6v-1.2z"/>
</svg>