<svg xmlns="http://www.w3.org/2000/svg" xml:space="preserve" id="Layer_1" x="0" y="0" style="enable-background:new 0 0 100 100" version="1.1" viewBox="0 0 100 100">
  <style>
    .st0{fill:#9C52FF}.st1{fill:#1DCFFF}.st2{fill:#FFE401}.st3{fill:#FFFFFF}.st4{fill:#FF284D}.st5{fill:#F638D7}
  </style>
  <path d="M68.7 49.2c-.1-6.4-1-12.5-2.7-18.4-.9-3.3-2.1-6.4-3.5-9.5-1.3-2.8-2.7-5.4-4.3-8-1.5-2.5-3.2-4.8-5.1-7C51.3 4.1 49.3 2 47.2 0c-2.8.2-5.5.5-8.2 1.1-2.6.6-5.1 1.3-7.5 2.3-2.3.9-4.5 2-6.6 3.2-2 1.2-4 2.5-5.9 4-1.8 1.4-3.5 2.9-5.1 4.6 2 .8 4 1.8 5.9 3 1.8 1.1 3.5 2.4 5.1 3.8 1.6 1.4 3 2.9 4.3 4.5 1.3 1.6 2.5 3.4 3.5 5.2 1.1 2 2 4 2.7 6.2 1.3 3.8 1.9 7.8 1.9 12s-.7 8.2-1.9 12c-.7 2.2-1.6 4.2-2.7 6.2-1 1.9-2.2 3.6-3.5 5.2-1.2 1.7-2.6 3.3-4.2 4.6-1.6 1.4-3.3 2.7-5.1 3.8-1.8 1.2-3.8 2.2-5.9 3 1.6 1.6 3.3 3.2 5.1 4.6 1.9 1.5 3.8 2.8 5.9 4 2.1 1.2 4.3 2.3 6.6 3.2 2.4 1 4.9 1.7 7.5 2.3 2.7.6 5.4 1 8.2 1.1 2.1-2 4-4.1 5.9-6.3 1.8-2.2 3.5-4.6 5.1-7 1.6-2.5 3-5.2 4.3-8 1.4-3 2.6-6.2 3.5-9.5 1.7-5.8 2.6-12 2.7-18.4v-.8c-.1-.2-.1-.5-.1-.7z" style="fill:#FF6B31"/>
</svg>