<?xml version="1.0" encoding="utf-8"?>
<!-- Generator: Adobe Illustrator 25.4.1, SVG Export Plug-In . SVG Version: 6.00 Build 0)  -->
<svg version="1.1" id="Layer_1" xmlns="http://www.w3.org/2000/svg" xmlns:xlink="http://www.w3.org/1999/xlink" x="0px" y="0px"
	 viewBox="0 0 100 100" style="enable-background:new 0 0 100 100;" xml:space="preserve">
<style type="text/css">
	.st0{fill:#9C52FF;}
	.st1{fill:#1DCFFF;}
	.st2{fill:#FFE401;}
	.st3{fill:#FFFFFF;}
	.st4{fill:#FF284D;}
	.st5{fill:#F638D7;}
	.st6{fill:#FF6B31;}
</style>
<path class="st3" d="M71.5,72.7C73.8,65.5,75,57.9,75,50c0,7.7-3.5,14.6-9,19.2c1.7-5.8,2.6-12,2.7-18.4c0-0.3,0-0.6,0-0.8
	c0-0.3,0-0.6,0-0.8c-0.3-6.1-3.4-11.4-8.2-14.7c-2.2-1.5-4.7-2.5-7.5-3c0.8,2.3,1.5,4.6,2,7.1c0.7,3.4,1.1,6.9,1.2,10.5
	c0,0.3,0.1,0.6,0.1,0.9c0,0.3,0,0.6-0.1,0.9c-0.1,3.6-0.5,7.1-1.2,10.5c-0.5,2.4-1.2,4.8-2,7.1c-0.8,2.2-1.7,4.4-2.7,6.5
	c-1,2.1-2.2,4.1-3.5,6.1c-1.3,2-2.8,3.9-4.3,5.7c-1.6,1.8-3.3,3.6-5.1,5.2c-1.8,1.7-3.8,3.2-5.9,4.6c2.4,1,4.9,1.7,7.5,2.3
	c2.7,0.6,5.4,1,8.2,1.1c0.9,0,1.8,0.1,2.8,0.1c2.1,0,4.2-0.1,6.2-0.4c3.4-0.4,6.6-1.2,9.8-2.2c2.2-3,4.1-6.2,5.9-9.5
	c2-3.8,3.7-7.7,5.1-11.8c2.7-7.9,4.2-16.4,4.3-25.2C81,59.4,77.3,67.1,71.5,72.7z"/>
</svg>
