<?xml version="1.0" encoding="utf-8"?>
<!-- Generator: Adobe Illustrator 25.4.1, SVG Export Plug-In . SVG Version: 6.00 Build 0)  -->
<svg version="1.1" id="Layer_1" xmlns="http://www.w3.org/2000/svg" xmlns:xlink="http://www.w3.org/1999/xlink" x="0px" y="0px"
	 viewBox="0 0 100 100" style="enable-background:new 0 0 100 100;" xml:space="preserve">
<style type="text/css">
	.st0{fill:#9C52FF;}
	.st1{fill:#1DCFFF;}
	.st2{fill:#FFE401;}
	.st3{fill:#FFFFFF;}
	.st4{fill:#FF284D;}
	.st5{fill:#F638D7;}
	.st6{fill:#FF6B31;}
</style>
<path class="st2" d="M81.2,49.2C81.2,40.4,79.7,31.9,77,24c-2.8-2.9-6.1-5.4-9.8-7.3c-2.8-1.5-5.8-2.6-9-3.3
	c-2.6-0.6-5.4-0.9-8.2-0.9c0,0,0,0,0,0c-2.6,0-5.1,0.3-7.5,0.7c1.5,1.8,3,3.7,4.3,5.7c1.3,1.9,2.5,4,3.5,6.1c1,2.1,2,4.3,2.7,6.5
	c0.8,2.3,1.5,4.6,2,7.1c0.7,3.4,1.1,6.9,1.2,10.5c0,0.3,0.1,0.6,0.1,0.9c0,0.3,0,0.6-0.1,0.9c-0.1,3.6-0.5,7.1-1.2,10.5
	c-0.5,2.4-1.2,4.8-2,7.1c-1,0.2-2,0.3-3.1,0.3c-1.2,0-2.4-0.1-3.5-0.3c-2.1-0.4-4.1-1.1-5.9-2.2c-1.9-1.1-3.7-2.6-5.1-4.3
	c-0.7,2.2-1.6,4.2-2.7,6.2c-1,1.9-2.2,3.6-3.5,5.2C28,75,26.6,76.6,25,77.9c-1.6,1.4-3.3,2.7-5.1,3.8c-1.8,1.2-3.8,2.2-5.9,3
	c1.6,1.6,3.3,3.2,5.1,4.6c1.9,1.5,3.8,2.8,5.9,4c2.1,1.2,4.3,2.3,6.6,3.2c2.4,1,4.9,1.7,7.5,2.3c2.7,0.6,5.4,1,8.2,1.1
	c0.9,0,1.8,0.1,2.8,0.1c2.1,0,4.2-0.1,6.2-0.4c3.4-0.4,6.6-1.2,9.8-2.2c2.2-3,4.1-6.2,5.9-9.5c2-3.8,3.7-7.7,5.1-11.8
	c2.7-7.9,4.2-16.4,4.3-25.2c0-0.3,0-0.5,0-0.8S81.2,49.5,81.2,49.2z"/>
</svg>
