<?xml version="1.0" encoding="utf-8"?>
<!-- Generator: Adobe Illustrator 25.4.1, SVG Export Plug-In . SVG Version: 6.00 Build 0)  -->
<svg version="1.1" id="Layer_1" xmlns="http://www.w3.org/2000/svg" xmlns:xlink="http://www.w3.org/1999/xlink" x="0px" y="0px"
	 viewBox="0 0 100 100" style="enable-background:new 0 0 100 100;" xml:space="preserve">
<style type="text/css">
	.st0{fill:#9C52FF;}
	.st1{fill:#1DCFFF;}
	.st2{fill:#FFE401;}
	.st3{fill:#FFFFFF;}
	.st4{fill:#FF284D;}
	.st5{fill:#F638D7;}
	.st6{fill:#FF6B31;}
</style>
<path class="st0" d="M100,49.4C99.8,37.2,95.3,26,87.9,17.4c-3.3-3.8-7.1-7.1-11.3-9.8c-3.3-2.1-6.8-3.8-10.6-5
	c-3.1-1.1-6.4-1.8-9.8-2.2C54.2,0.1,52.1,0,50,0c-0.9,0-1.8,0-2.8,0.1c2.1,2,4,4.1,5.9,6.3c1.8,2.2,3.5,4.6,5.1,7
	c1.6,2.5,3,5.2,4.3,8c3.4,1.5,6.4,3.5,9,6c5.8,5.5,9.5,13.2,9.7,21.8c0,0.3,0,0.5,0,0.8c0,0.3,0,0.6,0,0.8
	C81.2,59.6,79.7,68.1,77,76c-1.4,4.1-3.1,8.1-5.1,11.8c-1.7,3.3-3.7,6.5-5.9,9.5c3.7-1.3,7.3-3,10.6-5c4.3-2.7,8.1-6,11.3-9.8
	C95.3,74,99.8,62.8,100,50.6c0-0.2,0-0.4,0-0.6C100,49.8,100,49.6,100,49.4z"/>
</svg>
