<?xml version="1.0" encoding="utf-8"?>
<!-- Generator: Adobe Illustrator 25.4.1, SVG Export Plug-In . SVG Version: 6.00 Build 0)  -->
<svg version="1.1" id="Layer_1" xmlns="http://www.w3.org/2000/svg" xmlns:xlink="http://www.w3.org/1999/xlink" x="0px" y="0px"
	 viewBox="0 0 100 100" style="enable-background:new 0 0 100 100;" xml:space="preserve">
<style type="text/css">
	.st0{fill:#9C52FF;}
	.st1{fill:#1DCFFF;}
	.st2{fill:#FFE401;}
	.st3{fill:#FFFFFF;}
	.st4{fill:#FF284D;}
	.st5{fill:#F638D7;}
	.st6{fill:#FF6B31;}
</style>
<path d="M82.5,79.3c3.3-9.2,5-19,5-29.3c0,10.1-4,19.3-10.5,26c2.7-7.9,4.2-16.4,4.3-25.2c-0.2,8.6-3.9,16.3-9.7,21.8
	C73.8,65.5,75,57.9,75,50c0,7.7-3.5,14.6-9,19.2c-0.9,3.3-2.1,6.4-3.5,9.5c-1.3,2.8-2.7,5.4-4.3,8c-1.5,2.5-3.2,4.8-5.1,7
	c-1.8,2.2-3.8,4.3-5.9,6.3c0.9,0,1.8,0.1,2.8,0.1c2.1,0,4.2-0.1,6.2-0.4c3.4-0.4,6.6-1.2,9.8-2.2c3.7-1.3,7.3-3,10.6-5
	c4.3-2.7,8.1-6,11.3-9.8c3.7-10,5.8-20.8,5.8-32.1C93.6,61.6,89.4,71.7,82.5,79.3z"/>
<path class="st1" d="M100,49.4C99.8,37.2,95.3,26,87.9,17.4c-3.3-3.8-7.1-7.1-11.3-9.8c-3.3-2.1-6.8-3.8-10.6-5
	c-3.1-1.1-6.4-1.8-9.8-2.2C54.2,0.1,52.1,0,50,0c-0.9,0-1.8,0-2.8,0.1c2.1,2,4,4.1,5.9,6.3c1.8,2.2,3.5,4.6,5.1,7
	c1.6,2.5,3,5.2,4.3,8c1.4,3,2.6,6.2,3.5,9.5c1.7,5.8,2.6,12,2.7,18.4c0,0.3,0,0.6,0,0.8c0,0.3,0,0.6,0,0.8c-0.1,6.4-1,12.5-2.7,18.4
	c5.5-4.6,9-11.5,9-19.2c0,7.9-1.2,15.5-3.5,22.7c5.8-5.5,9.5-13.2,9.7-21.8c0-0.3,0-0.5,0-0.8s0-0.5,0-0.8c0,0.3,0,0.5,0,0.8
	c0,0.3,0,0.6,0,0.8C81.2,59.6,79.7,68.1,77,76c6.5-6.7,10.5-15.9,10.5-26c0,10.3-1.8,20.2-5,29.3c6.9-7.6,11.2-17.7,11.3-28.8
	c0-0.2,0-0.3,0-0.5c0-0.2,0-0.3,0-0.5c0,0.2,0,0.3,0,0.5c0,0.2,0,0.3,0,0.5c-0.1,11.3-2.1,22.1-5.8,32.1C95.3,74,99.8,62.8,100,50.6
	c0-0.2,0-0.4,0-0.6C100,49.8,100,49.6,100,49.4z"/>
</svg>
