<svg xmlns="http://www.w3.org/2000/svg" xml:space="preserve" id="Layer_1" x="0" y="0" style="enable-background:new 0 0 100 100" version="1.1" viewBox="0 0 100 100">
  <style>
    .st0{fill:#9C52FF}.st1{fill:#1DCFFF}.st2{fill:#FFE401}.st3{fill:#FFFFFF}.st4{fill:#FF284D}.st5{fill:#F638D7}.st6{fill:#FF6B31}
  </style>
  <path d="M68.7 49.2c-.1-6.4-1-12.5-2.7-18.4-.9-3.3-2.1-6.4-3.5-9.5-1.3-2.8-2.7-5.4-4.3-8-1.5-2.5-3.2-4.8-5.1-7C51.3 4.1 49.3 2 47.2 0c-2.8.2-5.5.5-8.2 1.1-2.6.6-5.1 1.3-7.5 2.3-2.3.9-4.5 2-6.6 3.2-2 1.2-4 2.5-5.9 4-1.8 1.4-3.5 2.9-5.1 4.6-1.5 1.6-3 3.3-4.3 5.1 2.1.7 4 1.6 5.9 2.6 1.8 1.1 3.5 2.3 5.1 3.7 1.6 1.4 3 3 4.3 4.7 1.4 1.8 2.6 3.8 3.5 6 1.8 3.9 2.7 8.2 2.7 12.8 0 4.5 1.6 8.7 4.3 12 1.4 1.7 3.1 3.2 5.1 4.3 1.8 1 3.8 1.8 5.9 2.2 1.1.2 2.3.3 3.5.3 1 0 2.1-.1 3.1-.3 2.7-.5 5.3-1.5 7.5-3 4.7-3.2 7.9-8.6 8.2-14.7V49.2z"/>
</svg>