<svg xmlns="http://www.w3.org/2000/svg" xml:space="preserve" id="Layer_1" x="0" y="0" style="enable-background:new 0 0 100 100" version="1.1" viewBox="0 0 100 100">
  <style>
    .st0{fill:#9C52FF}.st1{fill:#1DCFFF}.st2{fill:#FFE401}.st4{fill:#FF284D}.st5{fill:#F638D7}.st6{fill:#FF6B31}
  </style>
  <path d="M71.5 72.7C73.8 65.5 75 57.9 75 50c0 7.7-3.5 14.6-9 19.2 1.7-5.8 2.6-12 2.7-18.4v-1.6c-.3-6.1-3.4-11.4-8.2-14.7-2.2-1.5-4.7-2.5-7.5-3 .8 2.3 1.5 4.6 2 7.1.7 3.4 1.1 6.9 1.2 10.5 0 .3.1.6.1.9 0 .3 0 .6-.1.9-.1 3.6-.5 7.1-1.2 10.5-.5 2.4-1.2 4.8-2 7.1-.8 2.2-1.7 4.4-2.7 6.5-1 2.1-2.2 4.1-3.5 6.1-1.3 2-2.8 3.9-4.3 5.7-1.6 1.8-3.3 3.6-5.1 5.2-1.8 1.7-3.8 3.2-5.9 4.6 2.4 1 4.9 1.7 7.5 2.3 2.7.6 5.4 1 8.2 1.1.9 0 1.8.1 2.8.1 2.1 0 4.2-.1 6.2-.4 3.4-.4 6.6-1.2 9.8-2.2 2.2-3 4.1-6.2 5.9-9.5 2-3.8 3.7-7.7 5.1-11.8 2.7-7.9 4.2-16.4 4.3-25.2-.3 8.4-4 16.1-9.8 21.7z" style="fill:#FFFFFF"/>
</svg>