<?xml version="1.0" encoding="utf-8"?>
<!-- Generator: Adobe Illustrator 25.4.1, SVG Export Plug-In . SVG Version: 6.00 Build 0)  -->
<svg version="1.1" id="Layer_1" xmlns="http://www.w3.org/2000/svg" xmlns:xlink="http://www.w3.org/1999/xlink" x="0px" y="0px"
	 viewBox="0 0 100 100" style="enable-background:new 0 0 100 100;" xml:space="preserve">
<style type="text/css">
	.st0{fill:#9C52FF;}
	.st1{fill:#1DCFFF;}
	.st2{fill:#FFE401;}
	.st3{fill:#FFFFFF;}
	.st4{fill:#FF284D;}
	.st5{fill:#F638D7;}
	.st6{fill:#FF6B31;}
</style>
<path class="st4" d="M81.2,49.2c-0.2-8.6-3.9-16.3-9.7-21.8c-2.6-2.5-5.7-4.5-9-6c1.4,3,2.6,6.2,3.5,9.5c1.7,5.8,2.6,12,2.7,18.4
	c0,0.3,0,0.6,0,0.8c0,0.3,0,0.6,0,0.8c-0.3,6.1-3.4,11.4-8.2,14.7c-2.2,1.5-4.7,2.5-7.5,3c-1,0.2-2,0.3-3.1,0.3
	c-1.2,0-2.4-0.1-3.5-0.3c-2.1-0.4-4.1-1.1-5.9-2.2c-1.9-1.1-3.7-2.6-5.1-4.3c-2.7-3.2-4.3-7.4-4.3-12c0-4.6-1-8.9-2.7-12.8
	c-1-2.1-2.1-4.1-3.5-6c-1.3-1.7-2.7-3.3-4.3-4.7c-1.6-1.4-3.3-2.6-5.1-3.7c-1.8-1.1-3.8-1.9-5.9-2.6c-1.3,1.7-2.5,3.6-3.5,5.5
	c-1,1.9-2,3.8-2.7,5.8c-0.8,1.9-1.4,4-2,6c-0.5,2-0.9,4.1-1.2,6.2C0.1,45.8,0,47.9,0,50c0,2.1,0.1,4.2,0.4,6.2
	c0.3,2.1,0.7,4.2,1.2,6.2c0.5,2.1,1.2,4.1,2,6c0.8,2,1.7,3.9,2.7,5.8c1.1,1.9,2.2,3.7,3.5,5.5c1.3,1.8,2.8,3.5,4.3,5.1
	c1.6,1.6,3.3,3.2,5.1,4.6c1.9,1.5,3.8,2.8,5.9,4c2.1,1.2,4.3,2.3,6.6,3.2c2.4,1,4.9,1.7,7.5,2.3c2.7,0.6,5.4,1,8.2,1.1
	c0.9,0,1.8,0.1,2.8,0.1c2.1,0,4.2-0.1,6.2-0.4c3.4-0.4,6.6-1.2,9.8-2.2c2.2-3,4.1-6.2,5.9-9.5c2-3.8,3.7-7.7,5.1-11.8
	c2.7-7.9,4.2-16.4,4.3-25.2c0-0.3,0-0.5,0-0.8S81.2,49.5,81.2,49.2z"/>
</svg>
