<svg xmlns="http://www.w3.org/2000/svg" xml:space="preserve" id="Layer_1" x="0" y="0" style="enable-background:new 0 0 100 100" version="1.1" viewBox="0 0 100 100">
  <style>
    .st0{fill:#9C52FF}.st1{fill:#1DCFFF}.st2{fill:#FFE401}.st3{fill:#FFFFFF}.st5{fill:#F638D7}.st6{fill:#FF6B31}
  </style>
  <path d="M100 49.4c-.2-12.2-4.7-23.4-12.1-32-3.3-3.8-7.1-7.1-11.3-9.8-3.3-2.1-6.8-3.8-10.6-5C62.9 1.5 59.6.8 56.2.4 54.2.1 52.1 0 50 0c-.9 0-1.8 0-2.8.1-2.8.2-5.5.5-8.2 1.1-2.6.6-5.1 1.3-7.5 2.3 2.1 1.4 4 2.9 5.9 4.6 1.8 1.6 3.5 3.3 5.1 5.2 2.4-.5 4.9-.7 7.5-.7 2.8 0 5.6.3 8.2.9 3.2.7 6.2 1.8 9 3.3 3.6 1.9 6.9 4.4 9.8 7.3 2.7 7.9 4.2 16.4 4.3 25.2v1.6c-.1 8.7-1.6 17.2-4.3 25.1-1.4 4.1-3.1 8.1-5.1 11.8-1.7 3.3-3.7 6.5-5.9 9.5 3.7-1.3 7.3-3 10.6-5 4.3-2.7 8.1-6 11.3-9.8C95.3 74 99.8 62.8 100 50.6v-1.2z" style="fill:#FF284D"/>
</svg>