<?xml version="1.0" encoding="utf-8"?>
<!-- Generator: Adobe Illustrator 25.4.1, SVG Export Plug-In . SVG Version: 6.00 Build 0)  -->
<svg version="1.1" id="Layer_1" xmlns="http://www.w3.org/2000/svg" xmlns:xlink="http://www.w3.org/1999/xlink" x="0px" y="0px"
	 viewBox="0 0 100 100" style="enable-background:new 0 0 100 100;" xml:space="preserve">
<style type="text/css">
	.st0{fill:#9C52FF;}
	.st1{fill:#1DCFFF;}
	.st2{fill:#FFE401;}
	.st3{fill:#FFFFFF;}
	.st4{fill:#FF284D;}
	.st5{fill:#F638D7;}
	.st6{fill:#FF6B31;}
</style>
<path class="st2" d="M42.6,39.9c-0.5-2.1-1.2-4.2-2-6.2c-1.9,1.1-3.7,2.6-5.1,4.3c-0.7-2.2-1.6-4.2-2.7-6.2
	c-1.7,1.6-3.1,3.4-4.3,5.4c-1-2.1-2.1-4.1-3.5-6c-1.4,1.8-2.6,3.8-3.5,6c-1.8,3.9-2.7,8.2-2.7,12.8c0-4.5-1.6-8.7-4.3-12
	c-1.3,3.8-1.9,7.8-1.9,12c0-4.1-2-7.8-5.1-10.1C6.7,43.2,6.2,46.5,6.2,50c0,3.3-2.6,6-5.9,6.2c0.3,2.1,0.7,4.2,1.2,6.2
	c0.5,2.1,1.2,4.1,2,6c0.8,2,1.7,3.9,2.7,5.8c1.1,1.9,2.2,3.7,3.5,5.5c1.3,1.8,2.8,3.5,4.3,5.1c1.6,1.6,3.3,3.2,5.1,4.6
	c2-1,4-2.2,5.9-3.4c1.8-1.3,3.5-2.6,5.1-4.1c1.5-1.5,3-3,4.3-4.7c1.3-1.6,2.5-3.4,3.5-5.2c1-1.8,2-3.7,2.7-5.6c0.8-2,1.5-4.1,2-6.2
	c0.8-3.2,1.2-6.6,1.2-10.1C43.8,46.5,43.3,43.2,42.6,39.9z"/>
<path class="st3" d="M81.2,49.2C81.2,40.4,79.7,31.9,77,24c-1.4-4.1-3.1-8.1-5.1-11.8c-1.7-3.3-3.7-6.5-5.9-9.5
	c-3.1-1.1-6.4-1.8-9.8-2.2C54.2,0.1,52.1,0,50,0c-0.9,0-1.8,0-2.8,0.1c-2.8,0.2-5.5,0.5-8.2,1.1c-2.6,0.6-5.1,1.3-7.5,2.3
	c-2.3,0.9-4.5,2-6.6,3.2c-2,1.2-4,2.5-5.9,4c-1.8,1.4-3.5,2.9-5.1,4.6c-1.5,1.6-3,3.3-4.3,5.1c-1.3,1.7-2.5,3.6-3.5,5.5
	c-1,1.9-2,3.8-2.7,5.8c-0.8,1.9-1.4,4-2,6c-0.5,2-0.9,4.1-1.2,6.2C0.1,45.8,0,47.9,0,50c0,2.1,0.1,4.2,0.4,6.2
	C3.7,56,6.2,53.3,6.2,50c0-3.5,0.4-6.8,1.2-10.1c3.1,2.3,5.1,5.9,5.1,10.1c0-4.2,0.7-8.2,1.9-12c2.7,3.2,4.3,7.4,4.3,12
	c0-4.6,1-8.9,2.7-12.8c1-2.1,2.1-4.1,3.5-6c1.4,1.8,2.6,3.8,3.5,6c1.2-2,2.6-3.8,4.3-5.4c1.1,2,2,4,2.7,6.2c1.4-1.7,3.1-3.2,5.1-4.3
	c1.8-1,3.8-1.8,5.9-2.2c1.1-0.2,2.3-0.3,3.5-0.3c1,0,2.1,0.1,3.1,0.3c2.7,0.5,5.3,1.5,7.5,3c4.7,3.2,7.9,8.6,8.2,14.7
	c0,0.3,0,0.6,0,0.8c0,0.3,0,0.6,0,0.8c-0.1,6.4-1,12.5-2.7,18.4c5.5-4.6,9-11.5,9-19.2c0,7.9-1.2,15.5-3.5,22.7
	c5.8-5.5,9.5-13.2,9.7-21.8c0-0.3,0-0.5,0-0.8S81.2,49.5,81.2,49.2z"/>
</svg>
