<?xml version="1.0" encoding="utf-8"?>
<!-- Generator: Adobe Illustrator 25.4.1, SVG Export Plug-In . SVG Version: 6.00 Build 0)  -->
<svg version="1.1" id="Layer_1" xmlns="http://www.w3.org/2000/svg" xmlns:xlink="http://www.w3.org/1999/xlink" x="0px" y="0px"
	 viewBox="0 0 100 100" style="enable-background:new 0 0 100 100;" xml:space="preserve">
<style type="text/css">
	.st0{fill:#9C52FF;}
	.st1{fill:#1DCFFF;}
	.st2{fill:#FFE401;}
	.st3{fill:#FFFFFF;}
	.st4{fill:#FF284D;}
	.st5{fill:#F638D7;}
	.st6{fill:#FF6B31;}
</style>
<path class="st1" d="M71.5,27.3c-1.2-3.7-2.6-7.2-4.3-10.7c-1.5-3-3.2-5.9-5.1-8.7c-1.8-2.6-3.8-5.2-5.9-7.6C54.2,0.1,52.1,0,50,0
	c-0.9,0-1.8,0-2.8,0.1c-2.8,0.2-5.5,0.5-8.2,1.1c-2.6,0.6-5.1,1.3-7.5,2.3c-2.3,0.9-4.5,2-6.6,3.2c-2,1.2-4,2.5-5.9,4
	c-1.8,1.4-3.5,2.9-5.1,4.6c-1.5,1.6-3,3.3-4.3,5.1c-1.3,1.7-2.5,3.6-3.5,5.5c-1,1.9-2,3.8-2.7,5.8c-0.8,1.9-1.4,4-2,6
	c-0.5,2-0.9,4.1-1.2,6.2C0.1,45.8,0,47.9,0,50c0,2.1,0.1,4.2,0.4,6.2c0.3,2.1,0.7,4.2,1.2,6.2c0.5,2.1,1.2,4.1,2,6
	c0.8,2,1.7,3.9,2.7,5.8c1.1,1.9,2.2,3.7,3.5,5.5c2.1-0.7,4-1.6,5.9-2.6c1.8-1.1,3.5-2.3,5.1-3.7c1.6-1.4,3-3,4.3-4.7
	c1.4-1.8,2.6-3.8,3.5-6c1.8-3.9,2.7-8.2,2.7-12.8c0-4.5,1.6-8.7,4.3-12c1.4-1.7,3.1-3.2,5.1-4.3c1.8-1,3.8-1.8,5.9-2.2
	c1.1-0.2,2.3-0.3,3.5-0.3c1,0,2.1,0.1,3.1,0.3c2.7,0.5,5.3,1.5,7.5,3c4.7,3.2,7.9,8.6,8.2,14.7c0,0.3,0,0.6,0,0.8c0,0.3,0,0.6,0,0.8
	c-0.1,6.4-1,12.5-2.7,18.4c5.5-4.6,9-11.5,9-19.2C75,42.1,73.8,34.5,71.5,27.3z"/>
</svg>
