<svg xmlns="http://www.w3.org/2000/svg" xml:space="preserve" id="Layer_1" x="0" y="0" style="enable-background:new 0 0 100 100" version="1.1" viewBox="0 0 100 100">
  <style>
    .st0{fill:#9C52FF}.st1{fill:#1DCFFF}.st3{fill:#FFFFFF}.st4{fill:#FF284D}.st5{fill:#F638D7}.st6{fill:#FF6B31}
  </style>
  <path d="M81.2 49.2c0-8.8-1.5-17.3-4.2-25.2-2.8-2.9-6.1-5.4-9.8-7.3-2.8-1.5-5.8-2.6-9-3.3-2.6-.6-5.4-.9-8.2-.9-2.6 0-5.1.3-7.5.7 1.5 1.8 3 3.7 4.3 5.7 1.3 1.9 2.5 4 3.5 6.1 1 2.1 2 4.3 2.7 6.5.8 2.3 1.5 4.6 2 7.1.7 3.4 1.1 6.9 1.2 10.5 0 .3.1.6.1.9 0 .3 0 .6-.1.9-.1 3.6-.5 7.1-1.2 10.5-.5 2.4-1.2 4.8-2 7.1-1 .2-2 .3-3.1.3-1.2 0-2.4-.1-3.5-.3-2.1-.4-4.1-1.1-5.9-2.2-1.9-1.1-3.7-2.6-5.1-4.3-.7 2.2-1.6 4.2-2.7 6.2-1 1.9-2.2 3.6-3.5 5.2-1.2 1.6-2.6 3.2-4.2 4.5-1.6 1.4-3.3 2.7-5.1 3.8-1.8 1.2-3.8 2.2-5.9 3 1.6 1.6 3.3 3.2 5.1 4.6 1.9 1.5 3.8 2.8 5.9 4 2.1 1.2 4.3 2.3 6.6 3.2 2.4 1 4.9 1.7 7.5 2.3 2.7.6 5.4 1 8.2 1.1.9 0 1.8.1 2.8.1 2.1 0 4.2-.1 6.2-.4 3.4-.4 6.6-1.2 9.8-2.2 2.2-3 4.1-6.2 5.9-9.5 2-3.8 3.7-7.7 5.1-11.8 2.7-7.9 4.2-16.4 4.3-25.2v-.8c0-.3-.2-.6-.2-.9z" style="fill:#FFE401"/>
</svg>