<svg xmlns="http://www.w3.org/2000/svg" xml:space="preserve" id="Layer_1" x="0" y="0" style="enable-background:new 0 0 100 100" version="1.1" viewBox="0 0 100 100">
  <style>
    .st0{fill:#9C52FF}.st2{fill:#FFE401}.st3{fill:#FFFFFF}.st4{fill:#FF284D}.st5{fill:#F638D7}.st6{fill:#FF6B31}
  </style>
  <path d="M71.5 27.3c-1.2-3.7-2.6-7.2-4.3-10.7-1.5-3-3.2-5.9-5.1-8.7-1.8-2.6-3.8-5.2-5.9-7.6-2-.2-4.1-.3-6.2-.3-.9 0-1.8 0-2.8.1-2.8.2-5.5.5-8.2 1.1-2.6.6-5.1 1.3-7.5 2.3-2.3.9-4.5 2-6.6 3.2-2 1.2-4 2.5-5.9 4-1.8 1.4-3.5 2.9-5.1 4.6-1.5 1.6-3 3.3-4.3 5.1-1.3 1.7-2.5 3.6-3.5 5.5s-2 3.8-2.7 5.8c-.8 1.9-1.4 4-2 6-.5 2-.9 4.1-1.2 6.2-.1 1.9-.2 4-.2 6.1 0 2.1.1 4.2.4 6.2.3 2.1.7 4.2 1.2 6.2.5 2.1 1.2 4.1 2 6 .8 2 1.7 3.9 2.7 5.8 1.1 1.9 2.2 3.7 3.5 5.5 2.1-.7 4-1.6 5.9-2.6 1.8-1.1 3.5-2.3 5.1-3.7 1.6-1.4 3-3 4.3-4.7 1.4-1.8 2.6-3.8 3.5-6 1.8-3.9 2.7-8.2 2.7-12.8 0-4.5 1.6-8.7 4.3-12 1.4-1.7 3.1-3.2 5.1-4.3 1.8-1 3.8-1.8 5.9-2.2 1.1-.2 2.3-.3 3.5-.3 1 0 2.1.1 3.1.3 2.7.5 5.3 1.5 7.5 3 4.7 3.2 7.9 8.6 8.2 14.7v1.6c-.1 6.4-1 12.5-2.7 18.4 5.5-4.6 9-11.5 9-19.2-.2-7.8-1.4-15.4-3.7-22.6z" style="fill:#1DCFFF"/>
</svg>