<svg xmlns="http://www.w3.org/2000/svg" xml:space="preserve" id="Layer_1" x="0" y="0" style="enable-background:new 0 0 100 100" version="1.1" viewBox="0 0 100 100">
  <style>
    .st0{fill:#9C52FF}.st2{fill:#FFE401}.st3{fill:#FFFFFF}.st4{fill:#FF284D}.st5{fill:#F638D7}.st6{fill:#FF6B31}
  </style>
  <path d="M82.5 79.3c3.3-9.2 5-19 5-29.3 0 10.1-4 19.3-10.5 26 2.7-7.9 4.2-16.4 4.3-25.2-.2 8.6-3.9 16.3-9.7 21.8C73.8 65.5 75 57.9 75 50c0 7.7-3.5 14.6-9 19.2-.9 3.3-2.1 6.4-3.5 9.5-1.3 2.8-2.7 5.4-4.3 8-1.5 2.5-3.2 4.8-5.1 7-1.8 2.2-3.8 4.3-5.9 6.3.9 0 1.8.1 2.8.1 2.1 0 4.2-.1 6.2-.4 3.4-.4 6.6-1.2 9.8-2.2 3.7-1.3 7.3-3 10.6-5 4.3-2.7 8.1-6 11.3-9.8 3.7-10 5.8-20.8 5.8-32.1-.1 11-4.3 21.1-11.2 28.7z"/>
  <path d="M100 49.4c-.2-12.2-4.7-23.4-12.1-32-3.3-3.8-7.1-7.1-11.3-9.8-3.3-2.1-6.8-3.8-10.6-5C62.9 1.5 59.6.8 56.2.4 54.2.1 52.1 0 50 0c-.9 0-1.8 0-2.8.1 2.1 2 4 4.1 5.9 6.3 1.8 2.2 3.5 4.6 5.1 7 1.6 2.5 3 5.2 4.3 8 1.4 3 2.6 6.2 3.5 9.5 1.7 5.8 2.6 12 2.7 18.4v1.6c-.1 6.4-1 12.5-2.7 18.4 5.5-4.6 9-11.5 9-19.2 0 7.9-1.2 15.5-3.5 22.7 5.8-5.5 9.5-13.2 9.7-21.8v-1.6V51c0 8.6-1.5 17.1-4.2 25 6.5-6.7 10.5-15.9 10.5-26 0 10.3-1.8 20.2-5 29.3 6.9-7.6 11.2-17.7 11.3-28.8v-1 1c-.1 11.3-2.1 22.1-5.8 32.1 7.3-8.6 11.8-19.8 12-32v-1.2z" style="fill:#1DCFFF"/>
</svg>