<?xml version="1.0" encoding="utf-8"?>
<!-- Generator: Adobe Illustrator 25.4.1, SVG Export Plug-In . SVG Version: 6.00 Build 0)  -->
<svg version="1.1" id="Layer_1" xmlns="http://www.w3.org/2000/svg" xmlns:xlink="http://www.w3.org/1999/xlink" x="0px" y="0px"
	 viewBox="0 0 100 100" style="enable-background:new 0 0 100 100;" xml:space="preserve">
<style type="text/css">
	.st0{fill:#9C52FF;}
	.st1{fill:#1DCFFF;}
	.st2{fill:#FFE401;}
	.st3{fill:#FFFFFF;}
	.st4{fill:#FF284D;}
	.st5{fill:#F638D7;}
	.st6{fill:#FF6B31;}
</style>
<path class="st1" d="M35.6,38c-0.7-2.2-1.6-4.2-2.7-6.2c-1-1.9-2.2-3.6-3.5-5.2C28,25,26.6,23.4,25,22.1c-1.6-1.4-3.3-2.7-5.1-3.8
	c-1.8-1.2-3.8-2.2-5.9-3c-1.5,1.6-3,3.3-4.3,5.1c-1.3,1.7-2.5,3.6-3.5,5.5c-1,1.9-2,3.8-2.7,5.8c-0.8,1.9-1.4,4-2,6
	c-0.5,2-0.9,4.1-1.2,6.2C0.1,45.8,0,47.9,0,50c0,2.1,0.1,4.2,0.4,6.2c0.3,2.1,0.7,4.2,1.2,6.2c0.5,2.1,1.2,4.1,2,6
	c0.8,2,1.7,3.9,2.7,5.8c1.1,1.9,2.2,3.7,3.5,5.5c1.3,1.8,2.8,3.5,4.3,5.1c2-0.8,4-1.8,5.9-3c1.8-1.1,3.5-2.4,5.1-3.8
	c1.6-1.4,3-2.9,4.3-4.5c1.3-1.6,2.5-3.4,3.5-5.2c1.1-2,2-4,2.7-6.2c1.3-3.8,1.9-7.8,1.9-12C37.5,45.8,36.8,41.8,35.6,38z"/>
</svg>
