<?xml version="1.0" encoding="utf-8"?>
<!-- Generator: Adobe Illustrator 25.4.1, SVG Export Plug-In . SVG Version: 6.00 Build 0)  -->
<svg version="1.1" id="Layer_1" xmlns="http://www.w3.org/2000/svg" xmlns:xlink="http://www.w3.org/1999/xlink" x="0px" y="0px"
	 viewBox="0 0 100 100" style="enable-background:new 0 0 100 100;" xml:space="preserve">
<style type="text/css">
	.st0{fill:#9C52FF;}
	.st1{fill:#1DCFFF;}
	.st2{fill:#FFE401;}
	.st3{fill:#FFFFFF;}
	.st4{fill:#FF284D;}
	.st5{fill:#F638D7;}
	.st6{fill:#FF6B31;}
</style>
<path d="M100,49.4C99.8,37.2,95.3,26,87.9,17.4c-3.3-3.8-7.1-7.1-11.3-9.8c-3.3-2.1-6.8-3.8-10.6-5c-3.1-1.1-6.4-1.8-9.8-2.2
	c2.1,2.4,4.1,4.9,5.9,7.6c1.9,2.8,3.6,5.7,5.1,8.7c1.7,3.4,3.1,7,4.3,10.7C73.8,34.5,75,42.1,75,50c0,7.7-3.5,14.6-9,19.2
	c-0.9,3.3-2.1,6.4-3.5,9.5c-1.3,2.8-2.7,5.4-4.3,8c-1.5,2.5-3.2,4.8-5.1,7c-1.8,2.2-3.8,4.3-5.9,6.3c0.9,0,1.8,0.1,2.8,0.1
	c2.1,0,4.2-0.1,6.2-0.4c3.4-0.4,6.6-1.2,9.8-2.2c3.7-1.3,7.3-3,10.6-5c4.3-2.7,8.1-6,11.3-9.8C95.3,74,99.8,62.8,100,50.6
	c0-0.2,0-0.4,0-0.6C100,49.8,100,49.6,100,49.4z"/>
</svg>
