<svg xmlns="http://www.w3.org/2000/svg" xml:space="preserve" id="Layer_1" x="0" y="0" style="enable-background:new 0 0 100 100" version="1.1" viewBox="0 0 100 100">
  <style>
    .st0{fill:#9C52FF}.st1{fill:#1DCFFF}.st2{fill:#FFE401}.st3{fill:#FFFFFF}.st5{fill:#F638D7}.st6{fill:#FF6B31}
  </style>
  <path d="M81.2 49.2c-.2-8.6-3.9-16.3-9.7-21.8-2.6-2.5-5.7-4.5-9-6 1.4 3 2.6 6.2 3.5 9.5 1.7 5.8 2.6 12 2.7 18.4v1.6c-.3 6.1-3.4 11.4-8.2 14.7-2.2 1.5-4.7 2.5-7.5 3-1 .2-2 .3-3.1.3-1.2 0-2.4-.1-3.5-.3-2.1-.4-4.1-1.1-5.9-2.2-1.9-1.1-3.7-2.6-5.1-4.3-2.7-3.2-4.3-7.4-4.3-12s-1-8.9-2.7-12.8c-1-2.1-2.1-4.1-3.5-6-1.3-1.7-2.7-3.3-4.3-4.7-1.6-1.4-3.3-2.6-5.1-3.7-1.8-1.1-3.8-1.9-5.9-2.6-1.3 1.7-2.5 3.6-3.5 5.5s-2 3.8-2.7 5.8c-.8 1.9-1.4 4-2 6-.5 2-.9 4.1-1.2 6.2-.1 2-.2 4.1-.2 6.2 0 2.1.1 4.2.4 6.2.3 2.1.7 4.2 1.2 6.2.5 2.1 1.2 4.1 2 6 .8 2 1.7 3.9 2.7 5.8 1.1 1.9 2.2 3.7 3.5 5.5 1.3 1.8 2.8 3.5 4.3 5.1 1.6 1.6 3.3 3.2 5.1 4.6 1.9 1.5 3.8 2.8 5.9 4 2.1 1.2 4.3 2.3 6.6 3.2 2.4 1 4.9 1.7 7.5 2.3 2.7.6 5.4 1 8.2 1.1.9 0 1.8.1 2.8.1 2.1 0 4.2-.1 6.2-.4 3.4-.4 6.6-1.2 9.8-2.2 2.2-3 4.1-6.2 5.9-9.5 2-3.8 3.7-7.7 5.1-11.8 2.7-7.9 4.2-16.4 4.3-25.2v-.8c0-.3-.3-.7-.3-1z" style="fill:#FF284D"/>
</svg>